<svg xmlns="http://www.w3.org/2000/svg" xmlns:xlink="http://www.w3.org/1999/xlink" viewBox="0 0 141 121.21"><defs><linearGradient id="linear-gradient" x1="101.01" y1="97.05" x2="115.97" y2="100.86" gradientUnits="userSpaceOnUse"><stop offset="0" stop-color="#f8b400"/><stop offset="0.34" stop-color="#f9ad06"/><stop offset="0.82" stop-color="#fd9a16"/><stop offset="1" stop-color="#ff911e"/></linearGradient><linearGradient id="linear-gradient-2" x1="-889.36" y1="-1123.58" x2="-773.87" y2="-1123.58" gradientTransform="translate(587.21 1387) rotate(14.28)" gradientUnits="userSpaceOnUse"><stop offset="0" stop-color="#c28d00"/><stop offset="0.37" stop-color="#c18605"/><stop offset="0.89" stop-color="#be7313"/><stop offset="1" stop-color="#bd6e17"/></linearGradient><linearGradient id="linear-gradient-3" x1="-0.25" y1="28.95" x2="139.62" y2="64.55" xlink:href="#linear-gradient"/><linearGradient id="未命名漸層_29" x1="34.72" y1="15.85" x2="111.24" y2="92.38" gradientUnits="userSpaceOnUse"><stop offset="0" stop-color="#e62c14"/><stop offset="1" stop-color="#c72c14"/></linearGradient><linearGradient id="linear-gradient-4" x1="7.74" y1="78.34" x2="141" y2="78.34" gradientUnits="userSpaceOnUse"><stop offset="0" stop-color="#f8d04c"/><stop offset="0.28" stop-color="#f9cc45"/><stop offset="0.67" stop-color="#fcc232"/><stop offset="1" stop-color="#ffb71d"/></linearGradient><linearGradient id="linear-gradient-5" x1="-7961.62" y1="890.59" x2="-7960.08" y2="940.24" gradientTransform="matrix(-0.9, 0.07, 0.1, 0.89, -7155.46, -252.76)" gradientUnits="userSpaceOnUse"><stop offset="0" stop-color="#fff"/><stop offset="1" stop-color="#fff" stop-opacity="0"/></linearGradient></defs><title>越_5</title><g id="圖層_2" data-name="圖層 2"><g id="圖層_1-2" data-name="圖層 1"><path d="M116.35,99.35a99.91,99.91,0,0,0-18.28,9.26c3.82-7.5,7.64-14.77,11.47-21.71Q112.94,92.94,116.35,99.35Z" style="fill:url(#linear-gradient)"/><path d="M7.77,57.75C12,74.35,16.19,90.19,20.4,105.41c32,12.49,64-10.64,96-6.06q-3.41-6.42-6.82-12.45C75.61,76.27,41.69,91.74,7.77,57.75Z" style="fill:url(#linear-gradient-2)"/><path d="M141,58.8C112.93,31.49,53.47,19.68,0,28c8.28,2.53,15.89,8.87,15.89,8.87s-1.56,3.7-5,10.92c37.54-8.2,99.74,12.49,124,35.12Q138,70.59,141,58.8Z" style="fill:url(#linear-gradient-3)"/><path d="M127.1,54.12A54.11,54.11,0,1,0,73,108.23l1.61,0,6.11,13,10.09-16A54.13,54.13,0,0,0,127.1,54.12Z" style="fill:url(#未命名漸層_29)"/><path d="M127.1,54.12q0-1.39-.07-2.75c-27.48-5.89-59.12,7.38-76.47,8.12a48.29,48.29,0,0,1-31-10.14l-.51.9c-.09,1.28-.14,2.57-.14,3.88a54.07,54.07,0,0,0,2.59,16.56l49.78,24.4a126.47,126.47,0,0,1,30.23-8.73,35.94,35.94,0,0,1,14.73.35A53.87,53.87,0,0,0,127.1,54.12Z" style="opacity:0.14"/><path d="M7.74,57.82C52.16,86.43,96.58,30.2,141,58.8q-3,11.78-6,24.06C96.77,69.3,58.59,112.75,20.4,105.41,16.18,90.22,12,74.4,7.74,57.82Z" style="fill:url(#linear-gradient-4)"/><polygon points="71.69 12.19 76.37 26.56 91.48 26.56 79.26 35.45 83.93 49.83 71.69 40.94 59.47 49.83 64.14 35.45 51.91 26.56 67.03 26.56 71.69 12.19" style="fill:gold"/><path d="M32.75,40.38c2.06,18.23,21.74,31.63,44,29.93s38.56-17.87,36.5-36.1S91.47,2.58,69.25,4.28,30.69,22.15,32.75,40.38Z" style="fill:url(#linear-gradient-5)"/><path d="M34.63,78.73l-.7.22a.47.47,0,0,0-.32.3.36.36,0,0,0,0,.18l.93,6L39.43,78a1.07,1.07,0,0,0,.11-.21c0-.1,0-.14-.18-.13l-.69.1.1-.33,2.52-.58-.1.33-.63.21a.81.81,0,0,0-.31.16,2.2,2.2,0,0,0-.27.33l-7.91,11.8-.53.12L30.1,80.19a.53.53,0,0,0-.09-.25s-.12-.05-.25,0l-.59.08.1-.33,5.47-1.25Z" style="fill:#42210b"/><path d="M43.2,77a.48.48,0,0,0-.29,0h-.57l.1-.33L47,75.58l3.27,5.36,1.81-5.79c0-.12,0-.19,0-.22a.55.55,0,0,0-.27,0h-.56l.1-.33L53.91,74l-.1.33-.65.27a1.39,1.39,0,0,0-.36.19.58.58,0,0,0-.15.26L49.34,85.6l-.6.14-5.09-8.4-3,9.51c0,.12,0,.19,0,.22a.54.54,0,0,0,.27,0h.56l-.1.32L38.88,88l.1-.32.65-.27a1.41,1.41,0,0,0,.36-.19.57.57,0,0,0,.15-.26l3-9.73C43.23,77.1,43.23,77,43.2,77Z" style="fill:#42210b"/><path d="M67.63,80.53a5.58,5.58,0,0,0,1.19-2.21,2.34,2.34,0,0,0,0-1.87q-.36-.6-1.56-.33l-.68.16.15-.49.7-.16a3.34,3.34,0,0,0,1.7-.92,4.55,4.55,0,0,0,1-1.84q.36-1.14,0-1.55t-1.49-.16a9.57,9.57,0,0,0-3.18,1.51l-.1-.26A15.9,15.9,0,0,1,67.8,71,12.62,12.62,0,0,1,70.5,70a4,4,0,0,1,2.67.06q.87.47.45,1.8a4.38,4.38,0,0,1-1.27,1.86A8.52,8.52,0,0,1,70,75.26a2.59,2.59,0,0,1,2,.43,1.61,1.61,0,0,1,.23,1.77,5.16,5.16,0,0,1-2.12,2.83,12.75,12.75,0,0,1-4.22,1.65,13.32,13.32,0,0,1-2.14.33,4.06,4.06,0,0,1-1.48-.11l1.08-2.75.38-.09a5.9,5.9,0,0,0,.12,1.39,1.21,1.21,0,0,0,.56.79,1.83,1.83,0,0,0,1.33.06A3.58,3.58,0,0,0,67.63,80.53Z" style="fill:#42210b"/><path d="M85.2,67.27a2.1,2.1,0,0,1,1.37,1.53,5.62,5.62,0,0,1-.28,3.05,10.81,10.81,0,0,1-1.74,3.39,10.52,10.52,0,0,1-2.62,2.44A9.54,9.54,0,0,1,78.87,79a4.78,4.78,0,0,1-2.65,0,2.1,2.1,0,0,1-1.37-1.53,5.62,5.62,0,0,1,.28-3.05A10.8,10.8,0,0,1,76.86,71a10.5,10.5,0,0,1,2.62-2.45,9.59,9.59,0,0,1,3.07-1.32A4.81,4.81,0,0,1,85.2,67.27Zm-4.26,9.58a21.18,21.18,0,0,0,1.69-4.16,15.38,15.38,0,0,0,.86-4q0-1.24-1.09-1a3.18,3.18,0,0,0-1.93,1.68,21.22,21.22,0,0,0-1.69,4.16,15.36,15.36,0,0,0-.86,4q0,1.24,1.09,1A3.18,3.18,0,0,0,80.95,76.85Z" style="fill:#42210b"/><path d="M102.15,66.11a2.19,2.19,0,0,0-.8.35q1.92.1,1.37,1.85a4.22,4.22,0,0,1-1.78,2.3A10.38,10.38,0,0,1,97.52,72a8.44,8.44,0,0,1-2,.26,5.09,5.09,0,0,0-1,.38c-.29.15-.46.3-.5.45s0,.27.1.32a1.53,1.53,0,0,0,.62,0c.29,0,.79-.08,1.49-.18L99,72.85a6.8,6.8,0,0,1,1.78-.07.93.93,0,0,1,.8.49,1.79,1.79,0,0,1-.07,1.18,4.15,4.15,0,0,1-1.31,1.89,9.26,9.26,0,0,1-2.29,1.44,14.44,14.44,0,0,1-2.68.9,7.5,7.5,0,0,1-3.08.22.9.9,0,0,1-.77-1.31,2.36,2.36,0,0,1,.88-1.18,5.7,5.7,0,0,1,1.59-.82q-1.75,0-1.34-1.3a3.48,3.48,0,0,1,2.29-2.12q-1.35-.31-.87-1.85A4.13,4.13,0,0,1,95.74,68a10.67,10.67,0,0,1,3.43-1.34,12.67,12.67,0,0,1,1.71-.24A7.92,7.92,0,0,1,102.58,65,6.74,6.74,0,0,1,104.8,64l-1,2-.18,0-.38,0A4.15,4.15,0,0,0,102.15,66.11Zm-7.79,9.47a4.26,4.26,0,0,0-.58,1.2q-.31,1,0,1.38t1.7.06a9.27,9.27,0,0,0,2.59-.95,2.5,2.5,0,0,0,1.23-1.33.8.8,0,0,0,0-.6.56.56,0,0,0-.46-.21,5.8,5.8,0,0,0-1.11.07l-2.26.28Zm4.51-4.79A6.17,6.17,0,0,0,99.67,69a3.61,3.61,0,0,0,.25-1.6c-.07-.32-.36-.42-.88-.3a2,2,0,0,0-1.22.78A6,6,0,0,0,97,69.62a3.8,3.8,0,0,0-.26,1.65q.1.48.88.3A2,2,0,0,0,98.87,70.79Z" style="fill:#42210b"/><path d="M103.42,72.93l.62-.26a1.39,1.39,0,0,0,.36-.19.54.54,0,0,0,.15-.26l1.92-6.13c0-.12,0-.19,0-.23a.49.49,0,0,0-.29,0h-.54l.09-.29,4.13-1.4.31-.07-2.32,7.4c0,.12,0,.2,0,.23a.5.5,0,0,0,.29,0h.54l-.09.29-5.27,1.21Zm4.26-9.49c-.24-.16-.29-.46-.15-.91a2.28,2.28,0,0,1,.78-1.12,3.34,3.34,0,0,1,1.35-.63,1.47,1.47,0,0,1,1.13.06q.35.24.15.91a2.28,2.28,0,0,1-.78,1.12,3.34,3.34,0,0,1-1.35.63A1.46,1.46,0,0,1,107.68,63.44Z" style="fill:#42210b"/><path d="M115.77,70.2c-.09-.09-.09-.29,0-.58l0-.08a7.63,7.63,0,0,1-3.5,1.78,1.9,1.9,0,0,1-1.53-.09c-.3-.23-.35-.68-.14-1.35a3.78,3.78,0,0,1,1.1-1.71,6.88,6.88,0,0,1,2-1.22,23.82,23.82,0,0,1,3.17-1l.37-1.18c.19-.61.2-1,0-1.22s-.54-.24-1.15-.1a6.78,6.78,0,0,0-1.48.53,11.89,11.89,0,0,0-1.52.92l-.12-.26a12.84,12.84,0,0,1,2.19-1.32,12.35,12.35,0,0,1,2.61-.91q1.87-.43,2.44.11t.14,1.9L119,68.9c0,.12,0,.2,0,.23a.49.49,0,0,0,.29,0h.54l-.09.29-3.41.78C116.06,70.3,115.86,70.29,115.77,70.2ZM116,69l.82-2.63a6.66,6.66,0,0,0-1.5.61,2.64,2.64,0,0,0-.85.78,4.37,4.37,0,0,0-.52,1.14,1.14,1.14,0,0,0-.05.84c.09.15.3.19.62.11A3.46,3.46,0,0,0,116,69Zm4.42-8.45-.26.29A8.07,8.07,0,0,1,118,60.3,26.92,26.92,0,0,1,115.18,62l-.11-.2A32.56,32.56,0,0,0,118,59l.86-.2A6.65,6.65,0,0,0,120.38,60.56Z" style="fill:#42210b"/><path d="M127.73,60.63c-.27.11-.43.24-.48.4a.47.47,0,0,0,0,.24L128,64.6l3.1-4.54a.68.68,0,0,0,.1-.17c0-.07,0-.09-.18-.06l-.42.05.08-.24,1.91-.44-.08.24-.45.16a1.47,1.47,0,0,0-.31.15,1.09,1.09,0,0,0-.24.26L126,68q-1.14,1.66-1.78,2.46a8,8,0,0,1-1.28,1.3,7.34,7.34,0,0,1-1.59.91l-.12-2.26a12.22,12.22,0,0,0,2.25-.86,13,13,0,0,0,2-1.2l-1.66-6.55a.25.25,0,0,0-.12-.17.53.53,0,0,0-.24,0l-.46,0,.08-.24,5.2-1.19-.08.24Z" style="fill:#42210b"/></g></g></svg>