<?xml version="1.0" encoding="utf-8"?>
<!-- Generator: Adobe Illustrator 22.1.0, SVG Export Plug-In . SVG Version: 6.00 Build 0)  -->
<svg version="1.1" id="圖層_1" xmlns="http://www.w3.org/2000/svg" xmlns:xlink="http://www.w3.org/1999/xlink" x="0px" y="0px"
	 viewBox="0 0 141 121.2" style="enable-background:new 0 0 141 121.2;" xml:space="preserve">
<path d="M141,58.8c-4.1-4-8.9-7.7-14.3-11C123.6,20.9,100.7,0,73,0C53.6,0,36.6,10.2,27.1,25.5C18,25.8,8.9,26.6,0,28
	c8.3,2.5,15.9,8.9,15.9,8.9s-1.6,3.7-5,10.9c2.7-0.6,5.6-1,8.5-1.3c-0.4,2.5-0.5,5.1-0.5,7.7c0,3.2,0.3,6.4,0.8,9.5
	C15.8,62.3,11.9,60.5,8,58c-0.1-0.1-0.2-0.2-0.2-0.2c0,0,0,0.1,0,0.1c0,0,0,0-0.1,0c4.3,16.6,8.4,32.4,12.7,47.6
	c13.6,5.3,27.1,4.2,40.7,1.5c3.8,0.9,7.8,1.3,11.9,1.3c0,0,0,0,0,0h1.6l6.1,13l10.1-16c4.4-1.5,8.4-3.6,12.1-6
	c-1.6,3.1-3.2,6.2-4.9,9.4c5.8-3.7,11.9-6.8,18.3-9.3c0,0,0,0,0,0c0,0,0,0,0.1,0c-1.4-2.7-2.8-5.3-4.3-7.9c1.4-1.5,2.8-3.1,4.1-4.8
	c0,0,0,0,0,0c1.6-2.1,2.9-4.2,4.2-6.5c4.8,0.1,9.5,0.9,14.3,2.5c0,0,0.1,0.1,0.2,0.1c0,0,0-0.1,0-0.1c0,0,0.1,0,0.1,0
	C137,74.7,139,66.7,141,58.8z"/>
</svg>
