<svg xmlns="http://www.w3.org/2000/svg" xmlns:xlink="http://www.w3.org/1999/xlink" viewBox="0 0 141 121.21"><defs><linearGradient id="linear-gradient" x1="101.01" y1="97.05" x2="115.97" y2="100.86" gradientUnits="userSpaceOnUse"><stop offset="0" stop-color="#f8b400"/><stop offset="0.34" stop-color="#f9ad06"/><stop offset="0.82" stop-color="#fd9a16"/><stop offset="1" stop-color="#ff911e"/></linearGradient><linearGradient id="linear-gradient-2" x1="-500.11" y1="-960.53" x2="-384.61" y2="-960.53" gradientTransform="translate(250.19 1132.99) rotate(14.28)" gradientUnits="userSpaceOnUse"><stop offset="0" stop-color="#c28d00"/><stop offset="0.37" stop-color="#c18605"/><stop offset="0.89" stop-color="#be7313"/><stop offset="1" stop-color="#bd6e17"/></linearGradient><linearGradient id="linear-gradient-3" x1="-0.25" y1="28.95" x2="139.62" y2="64.55" xlink:href="#linear-gradient"/><linearGradient id="未命名漸層_29" x1="34.72" y1="15.85" x2="111.24" y2="92.38" gradientUnits="userSpaceOnUse"><stop offset="0" stop-color="#e62c14"/><stop offset="1" stop-color="#c72c14"/></linearGradient><linearGradient id="linear-gradient-4" x1="7.74" y1="78.34" x2="141" y2="78.34" gradientUnits="userSpaceOnUse"><stop offset="0" stop-color="#f8d04c"/><stop offset="0.28" stop-color="#f9cc45"/><stop offset="0.67" stop-color="#fcc232"/><stop offset="1" stop-color="#ffb71d"/></linearGradient><linearGradient id="linear-gradient-5" x1="-5996.69" y1="987.3" x2="-5995.14" y2="1036.95" gradientTransform="matrix(-0.9, 0.07, 0.1, 0.89, -5404.2, -473.95)" gradientUnits="userSpaceOnUse"><stop offset="0" stop-color="#fff"/><stop offset="1" stop-color="#fff" stop-opacity="0"/></linearGradient></defs><title>印尼文</title><g id="圖層_2" data-name="圖層 2"><g id="圖層_1-2" data-name="圖層 1"><path d="M116.35,99.35a99.91,99.91,0,0,0-18.28,9.26c3.82-7.5,7.64-14.77,11.47-21.71Q112.94,92.94,116.35,99.35Z" style="fill:url(#linear-gradient)"/><path d="M7.77,57.75C12,74.35,16.19,90.19,20.4,105.41c32,12.49,64-10.64,96-6.06q-3.41-6.42-6.82-12.45C75.61,76.27,41.69,91.74,7.77,57.75Z" style="fill:url(#linear-gradient-2)"/><path d="M141,58.8C112.93,31.49,53.47,19.68,0,28c8.28,2.53,15.89,8.87,15.89,8.87s-1.56,3.7-5,10.92c37.54-8.2,99.74,12.49,124,35.12Q138,70.59,141,58.8Z" style="fill:url(#linear-gradient-3)"/><path d="M127.1,54.12A54.11,54.11,0,1,0,73,108.23l1.61,0,6.11,13,10.09-16A54.13,54.13,0,0,0,127.1,54.12Z" style="fill:url(#未命名漸層_29)"/><path d="M127.1,54.12q0-1.39-.07-2.75c-27.48-5.89-59.12,7.38-76.47,8.12a48.29,48.29,0,0,1-31-10.14l-.51.9c-.09,1.28-.14,2.57-.14,3.88a54.07,54.07,0,0,0,2.59,16.56l49.78,24.4a126.47,126.47,0,0,1,30.23-8.73,35.94,35.94,0,0,1,14.73.35A53.87,53.87,0,0,0,127.1,54.12Z" style="opacity:0.14"/><path d="M7.74,57.82C52.16,86.43,96.58,30.2,141,58.8q-3,11.78-6,24.06C96.77,69.3,58.59,112.75,20.4,105.41,16.18,90.22,12,74.4,7.74,57.82Z" style="fill:url(#linear-gradient-4)"/><polygon points="71.69 12.19 76.37 26.56 91.48 26.56 79.26 35.45 83.93 49.83 71.69 40.94 59.47 49.83 64.14 35.45 51.91 26.56 67.03 26.56 71.69 12.19" style="fill:gold"/><path d="M32.75,40.38c2.06,18.23,21.74,31.63,44,29.93s38.56-17.87,36.5-36.1S91.47,2.58,69.25,4.28,30.69,22.15,32.75,40.38Z" style="fill:url(#linear-gradient-5)"/><path d="M25.24,84.39a.36.36,0,0,0-.2,0h-.4l.07-.23,3.88-.89-.07.23L28,83.7a1,1,0,0,0-.25.13.4.4,0,0,0-.11.18L25.4,91.1l1.47-.34A3.49,3.49,0,0,0,28,90.31a3.29,3.29,0,0,0,.79-.72,14.35,14.35,0,0,0,.84-1.26l.33-.08-.71,2.28-7.06,1.62.07-.23.46-.19A1,1,0,0,0,23,91.6a.39.39,0,0,0,.11-.18l2.15-6.87C25.26,84.47,25.26,84.41,25.24,84.39Z" style="fill:#42210b"/><path d="M40.39,81.33q.88.71.19,2.9a7.13,7.13,0,0,1-2.17,3.44,8.11,8.11,0,0,1-3.46,1.7,3.33,3.33,0,0,1-2.85-.25q-.88-.71-.19-2.9a7.13,7.13,0,0,1,2.18-3.43,8.08,8.08,0,0,1,3.46-1.71A3.33,3.33,0,0,1,40.39,81.33ZM36.26,88.4a4.22,4.22,0,0,0,.89-1.31A19,19,0,0,0,38,84.81a15.41,15.41,0,0,0,.56-2.21,1.34,1.34,0,0,0-.15-1.07c-.17-.19-.5-.24-1-.13a2.58,2.58,0,0,0-1.21.63,4.21,4.21,0,0,0-.89,1.31,19.08,19.08,0,0,0-.84,2.28,15.51,15.51,0,0,0-.56,2.21,1.34,1.34,0,0,0,.15,1.07c.17.19.5.24,1,.13A2.59,2.59,0,0,0,36.26,88.4Z" style="fill:#42210b"/><path d="M45.88,86.36a.38.38,0,0,0,.2,0h.41l-.07.23-3.81.87.07-.23.46-.19a1,1,0,0,0,.25-.13.39.39,0,0,0,.11-.18l2.23-7.12-.27.06a3.38,3.38,0,0,0-1.18.48,3.44,3.44,0,0,0-.78.73c-.21.28-.5.7-.88,1.29l-.26.06.72-2.31,7.86-1.8-.72,2.31L50,80.5a5.68,5.68,0,0,0-.14-1.05.69.69,0,0,0-.41-.46,1.8,1.8,0,0,0-1,0l-.27.06L45.88,86.2C45.85,86.28,45.85,86.33,45.88,86.36Z" style="fill:#42210b"/><path d="M55.13,81.42a.29.29,0,0,0-.3-.21,3.71,3.71,0,0,0-.87.13l-.34.08-1,3.22c0,.09,0,.14,0,.16a.33.33,0,0,0,.2,0h.47l-.07.23-3.88.89.07-.23.46-.19a1,1,0,0,0,.25-.13.41.41,0,0,0,.11-.18l2.15-6.87c0-.08,0-.14,0-.16a.36.36,0,0,0-.2,0h-.4l.07-.23,3.44-.79a12.32,12.32,0,0,1,2.43-.37,1.36,1.36,0,0,1,1.14.35,1.27,1.27,0,0,1,0,1.15,3.2,3.2,0,0,1-1,1.48,6.09,6.09,0,0,1-1.95,1,3,3,0,0,1,1,0,.61.61,0,0,1,.48.39,2.14,2.14,0,0,1,0,.94l-.09.66c0,.31-.07.53-.07.63a.37.37,0,0,0,0,.24s.1.06.21,0a1.21,1.21,0,0,0,.63-.54l.18.15a2.89,2.89,0,0,1-.67.65,3.26,3.26,0,0,1-1.15.45,3.21,3.21,0,0,1-1.13.11.59.59,0,0,1-.5-.41A2.49,2.49,0,0,1,55,83l.13-.83A2.12,2.12,0,0,0,55.13,81.42Zm-1.4-.34.45-.1a3.6,3.6,0,0,0,1.1-.42,2.18,2.18,0,0,0,.69-.68,4.53,4.53,0,0,0,.46-1.05,3,3,0,0,0,.18-1,.46.46,0,0,0-.33-.44,2.07,2.07,0,0,0-1,.06l-.45.1Z" style="fill:#42210b"/><path d="M59.47,83.31a1,1,0,0,0,.25-.13.4.4,0,0,0,.11-.18L62,76.13C62,76,62,76,62,76a.35.35,0,0,0-.2,0h-.4l.07-.23,7.2-1.65L68,76.3l-.29.07a3.93,3.93,0,0,0-.11-1,.62.62,0,0,0-.42-.44,2.11,2.11,0,0,0-1,.06l-1.66.38-1.06,3.4,3-.69-.11.34-3,.69-1.12,3.58,1.78-.41a3.63,3.63,0,0,0,1.15-.46,3.32,3.32,0,0,0,.81-.74,11.59,11.59,0,0,0,.83-1.24l.3-.07L66.31,82l-7.37,1.69L59,83.5Z" style="fill:#42210b"/><path d="M77.55,72.24l-.5.16a.33.33,0,0,0-.23.21.25.25,0,0,0,0,.13l.66,4.21,3.46-5.19a.72.72,0,0,0,.08-.15c0-.07,0-.1-.12-.09l-.49.07.07-.23L82.25,71l-.07.23-.45.15a.57.57,0,0,0-.22.12,1.62,1.62,0,0,0-.19.23L75.73,80l-.37.08-1-6.81a.36.36,0,0,0-.07-.18s-.08,0-.18,0l-.42.05.07-.23L77.62,72Z" style="fill:#42210b"/><path d="M83.64,71a.35.35,0,0,0-.2,0H83l.07-.23,3.81-.87-.07.23-.46.19a1,1,0,0,0-.25.13.4.4,0,0,0-.11.18l-2.15,6.87c0,.08,0,.14,0,.16a.35.35,0,0,0,.2,0h.4l-.07.23-3.81.87.07-.23.46-.19a1,1,0,0,0,.25-.13.39.39,0,0,0,.11-.18l2.15-6.87C83.66,71.08,83.66,71,83.64,71Z" style="fill:#42210b"/><path d="M85.89,77.26a1,1,0,0,0,.25-.13.41.41,0,0,0,.11-.18l2.15-6.87c0-.08,0-.14,0-.16a.36.36,0,0,0-.2,0h-.4l.07-.23L95.07,68l-.7,2.23-.29.07a4,4,0,0,0-.11-1,.62.62,0,0,0-.42-.43,2.11,2.11,0,0,0-1,.05l-1.66.38-1.06,3.4,3-.69-.11.34-3,.69-1.12,3.58,1.78-.41a3.6,3.6,0,0,0,1.15-.46A3.32,3.32,0,0,0,92.3,75a11.69,11.69,0,0,0,.83-1.24l.3-.07L92.72,76l-7.37,1.69.07-.23Z" style="fill:#42210b"/><path d="M99.37,74.1a.37.37,0,0,0,.2,0H100l-.07.23-3.81.88.07-.23.46-.19a1,1,0,0,0,.25-.13.39.39,0,0,0,.11-.18l2.23-7.12-.27.06a3.4,3.4,0,0,0-1.18.48,3.48,3.48,0,0,0-.78.73q-.32.41-.88,1.29l-.26.06.72-2.31,7.86-1.8-.72,2.31-.26.06a5.68,5.68,0,0,0-.14-1.05.69.69,0,0,0-.41-.46,1.81,1.81,0,0,0-1,0l-.27.06-2.23,7.12C99.34,74,99.34,74.07,99.37,74.1Z" style="fill:#42210b"/><path d="M105.87,65.91a.36.36,0,0,0-.2,0h-.4l.07-.23,3.24-.74,2.31,3.79,1.28-4.09c0-.08,0-.14,0-.16a.41.41,0,0,0-.19,0h-.39l.07-.23,1.78-.41-.07.23-.46.19a1,1,0,0,0-.25.13.39.39,0,0,0-.11.18L110.21,72l-.42.1-3.59-5.93-2.1,6.71c0,.08,0,.13,0,.15a.4.4,0,0,0,.19,0h.39l-.07.23-1.78.41.07-.23.46-.19a1,1,0,0,0,.25-.13.41.41,0,0,0,.11-.18l2.15-6.87C105.9,66,105.9,65.93,105.87,65.91Z" style="fill:#42210b"/><path d="M116.5,70.33l.52-.16a.29.29,0,0,0,.2-.16.3.3,0,0,0,0-.13L117,68.38l-2.71.62L113,70.83A.62.62,0,0,0,113,71c0,.07,0,.1.12.09l.49-.07-.07.23-1.78.41.07-.23.45-.14a.56.56,0,0,0,.22-.11,1.65,1.65,0,0,0,.19-.24l5.62-8.33.37-.09,1.05,6.81a.37.37,0,0,0,.06.18s.09,0,.18,0l.42-.05-.07.23-3.86.88Zm.44-2.26-.41-2.45-2,3Z" style="fill:#42210b"/><path d="M122.36,68.68c0,.08,0,.13,0,.15a.39.39,0,0,0,.19,0h.39l-.07.23-1.78.41.07-.23.46-.19a1,1,0,0,0,.25-.13.4.4,0,0,0,.11-.18l2.15-6.87c0-.08,0-.14,0-.16a.35.35,0,0,0-.2,0h-.4l.07-.23,3-.69.81,4.54,3.75-5.59,3.09-.71-.07.23-.46.19a.93.93,0,0,0-.25.13.38.38,0,0,0-.11.18l-2.15,6.87c0,.08,0,.14,0,.16a.35.35,0,0,0,.2,0h.41l-.07.23-3.79.87.07-.23.45-.19a1,1,0,0,0,.24-.12.38.38,0,0,0,.11-.18l2-6.48-5.18,7.72-.35.08-1-6Z" style="fill:#42210b"/></g></g></svg>