<svg xmlns="http://www.w3.org/2000/svg" xmlns:xlink="http://www.w3.org/1999/xlink" viewBox="0 0 60.99567 53.2513"><defs><linearGradient id="未命名漸層_74" x1="27.86159" y1="41.45045" x2="3.07122" y2="-1.48773" gradientUnits="userSpaceOnUse"><stop offset="0" stop-color="#fce5b6"/><stop offset="1" stop-color="#b48958"/></linearGradient><linearGradient id="未命名漸層_270" x1="39.79179" y1="17.86195" x2="61.29046" y2="35.86083" gradientUnits="userSpaceOnUse"><stop offset="0" stop-color="#6e6e6e"/><stop offset="0.14311" stop-color="#7f7f80"/><stop offset="1" stop-color="#eaeaea"/></linearGradient><linearGradient id="新增漸層色票_12" x1="20.26621" y1="7.46631" x2="20.26621" y2="44.79788" gradientUnits="userSpaceOnUse"><stop offset="0" stop-color="#fce5b6"/><stop offset="0.82206" stop-color="#b48958"/></linearGradient><linearGradient id="未命名漸層_5" x1="41.71536" x2="41.71536" y2="37.33157" gradientUnits="userSpaceOnUse"><stop offset="0" stop-color="#eaeaea"/><stop offset="1" stop-color="#707070"/></linearGradient></defs><title>資產 44</title><g id="圖層_2" data-name="圖層 2"><g id="圖層_1-2" data-name="圖層 1"><polygon points="32.409 4.977 33.23 0 5.472 0 3.422 0 0.494 0 0.494 39.82 0.494 42.309 0.494 44.798 22.064 44.798 22.064 39.82 5.472 39.82 5.472 4.977 32.409 4.977" style="fill:url(#未命名漸層_74)"/><polygon points="55.524 0 37.988 0 37.111 4.977 55.524 4.977 55.524 39.82 30.798 39.82 29.921 44.798 55.524 44.798 60.501 44.798 60.501 39.82 60.501 4.977 60.501 0 55.524 0" style="fill:url(#未命名漸層_270)"/><polygon points="26.632 7.466 23.811 23.466 24.438 19.91 16.972 19.91 19.166 7.466 14.189 7.466 8.922 37.332 13.9 37.332 16.533 22.399 16.094 24.888 23.561 24.888 20.05 44.798 25.027 44.798 31.61 7.466 26.632 7.466" style="fill:url(#新增漸層色票_12)"/><polygon points="37.177 32.354 42.882 0 37.904 0 31.321 37.332 35.047 37.332 36.299 37.332 51.232 37.332 52.109 32.354 37.177 32.354" style="fill:url(#未命名漸層_5)"/><path d="M0,53.12354V48.32948H2.93738v1.05119H1.27381v.83179H2.84244v1.02811H1.27381v.80888H2.93738v1.0741Z" style="fill:#fdfcfd"/><path d="M7.85651,53.12354,5.84586,48.32948H7.23432l.95954,2.682q.013.04244.054.20465.04088.16195.10649.43707.05233-.21923.09816-.39611.04582-.17705.06882-.24561l.95295-2.682h1.38845L8.85207,53.12354Z" style="fill:#fdfcfd"/><path d="M18.73893,50.73632a2.43659,2.43659,0,0,1-.74335,1.77814,2.61709,2.61709,0,0,1-.8383.54521,2.60978,2.60978,0,0,1-1.96317,0,2.50828,2.50828,0,0,1-.82684-.54521,2.42928,2.42928,0,0,1-.56161-.81217,2.53585,2.53585,0,0,1,0-1.93366,2.43474,2.43474,0,0,1,.56161-.81044,2.50828,2.50828,0,0,1,.82684-.54521,2.62226,2.62226,0,0,1,1.968,0,2.53716,2.53716,0,0,1,.83344.54521,2.45385,2.45385,0,0,1,.74335,1.77814Zm-2.5608,1.40807a1.151,1.151,0,0,0,.89888-.3994,1.59619,1.59619,0,0,0-.00486-2.014,1.20067,1.20067,0,0,0-1.79289-.00156,1.62012,1.62012,0,0,0-.00495,2.01872A1.1511,1.1511,0,0,0,16.17813,52.14439Z" style="fill:#fdfcfd"/><path d="M22.24018,53.12354V48.32948H23.5468v3.67414H25.171v1.11993Z" style="fill:#fdfcfd"/><path d="M28.46263,48.32948h1.30331V50.661a7.20936,7.20936,0,0,0,.02621.7384,1.4217,1.4217,0,0,0,.08844.37493.53905.53905,0,0,0,.262.28,1.11588,1.11588,0,0,0,.90868,0,.55546.55546,0,0,0,.26358-.28,1.42512,1.42512,0,0,0,.08844-.37493,7.20936,7.20936,0,0,0,.02621-.7384V48.32948h1.3v2.53459a5.17388,5.17388,0,0,1-.09495,1.164,1.562,1.562,0,0,1-.32095.64033,1.479,1.479,0,0,1-.67453.43707,3.7974,3.7974,0,0,1-2.08433,0,1.50267,1.50267,0,0,1-.67626-.43707,1.59859,1.59859,0,0,1-.31921-.64033,5.08039,5.08039,0,0,1-.09668-1.164V48.32948Z" style="fill:#fdfcfd"/><path d="M37.09529,53.12354V49.46243h-1.074V48.32948H39.476v1.13295h-1.0741v3.66112Z" style="fill:#fdfcfd"/><path d="M42.82981,53.12354V48.32948h1.31972v4.79407Z" style="fill:#fdfcfd"/><path d="M52.8084,50.73632a2.43659,2.43659,0,0,1-.74335,1.77814,2.61709,2.61709,0,0,1-.8383.54521,2.60978,2.60978,0,0,1-1.96317,0,2.50828,2.50828,0,0,1-.82684-.54521,2.42928,2.42928,0,0,1-.56161-.81217,2.53585,2.53585,0,0,1,0-1.93366,2.43474,2.43474,0,0,1,.56161-.81044,2.50828,2.50828,0,0,1,.82684-.54521,2.62226,2.62226,0,0,1,1.968,0,2.53716,2.53716,0,0,1,.83344.54521,2.45385,2.45385,0,0,1,.74335,1.77814Zm-2.5608,1.40807a1.151,1.151,0,0,0,.89888-.3994,1.59619,1.59619,0,0,0-.00486-2.014,1.20067,1.20067,0,0,0-1.79289-.00156,1.62012,1.62012,0,0,0-.00495,2.01872A1.1511,1.1511,0,0,0,50.2476,52.14439Z" style="fill:#fdfcfd"/><path d="M56.30966,53.12354V48.32948h1.26079l1.81086,2.46586a3.43776,3.43776,0,0,1,.17193.30289q.11951.22756.26358.54191-.03932-.29786-.05728-.53046t-.01805-.4126V48.32948h1.25419v4.79407H59.74148L57.93062,50.648a2.76893,2.76893,0,0,1-.17523-.30289q-.11951-.22756-.26028-.53549.03932.30125.05728.53375t.01805.4126v2.36761Z" style="fill:#fdfcfd"/></g></g></svg>