<svg id="圖層_1" data-name="圖層 1" xmlns="http://www.w3.org/2000/svg" xmlns:xlink="http://www.w3.org/1999/xlink" viewBox="0 0 141 121"><defs><clipPath id="clip-path"><circle cx="-96.33167" cy="53.90766" r="54.15614" style="fill:none"/></clipPath><linearGradient id="linear-gradient" x1="101.01298" y1="96.84214" x2="115.96968" y2="100.64883" gradientUnits="userSpaceOnUse"><stop offset="0.0034" stop-color="#f8b400"/><stop offset="0.33765" stop-color="#f9ad06"/><stop offset="0.81965" stop-color="#fd9a16"/><stop offset="1" stop-color="#ff911e"/></linearGradient><linearGradient id="linear-gradient-2" x1="-203.28678" y1="112.50258" x2="-87.79235" y2="112.50258" gradientTransform="translate(227.15295 19.71521) rotate(14.27665)" gradientUnits="userSpaceOnUse"><stop offset="0.0034" stop-color="#c28d00"/><stop offset="0.36606" stop-color="#c18605"/><stop offset="0.88899" stop-color="#be7313"/><stop offset="1" stop-color="#bd6e17"/></linearGradient><linearGradient id="linear-gradient-3" x1="-0.25114" y1="28.74478" x2="139.61876" y2="64.34362" xlink:href="#linear-gradient"/><clipPath id="clip-path-2"><circle cx="72.98037" cy="53.90766" r="54.15614" style="fill:none"/></clipPath><linearGradient id="未命名漸層_34" x1="34.68619" y1="15.61348" x2="111.27454" y2="92.20183" gradientUnits="userSpaceOnUse"><stop offset="0.0034" stop-color="#fff" stop-opacity="0"/><stop offset="1" stop-opacity="0.4"/></linearGradient><linearGradient id="linear-gradient-4" x1="7.74321" y1="78.13658" x2="141" y2="78.13658" gradientUnits="userSpaceOnUse"><stop offset="0.0034" stop-color="#f8d04c"/><stop offset="0.27761" stop-color="#f9cc45"/><stop offset="0.67289" stop-color="#fcc232"/><stop offset="1" stop-color="#ffb71d"/></linearGradient><linearGradient id="linear-gradient-5" x1="3421.71483" y1="682.12135" x2="3423.25947" y2="731.76937" gradientTransform="matrix(-0.8962, 0.0688, 0.1005, 0.8893, 3067.2366, -850.78646)" gradientUnits="userSpaceOnUse"><stop offset="0" stop-color="#fff"/><stop offset="1" stop-color="#fff" stop-opacity="0"/></linearGradient></defs><title>馬來西亞-越</title><g style="clip-path:url(#clip-path)"><rect x="-151.77836" y="-0.24848" width="210.23753" height="8.75992" style="fill:#d80031"/><rect x="-151.77836" y="8.51144" width="210.23753" height="8.75979" style="fill:#fff"/><rect x="-151.77836" y="17.27123" width="210.23753" height="8.75928" style="fill:#d80031"/><rect x="-151.77836" y="26.03051" width="210.23753" height="8.76664" style="fill:#fff"/><rect x="-151.77836" y="34.79715" width="210.23753" height="8.75295" style="fill:#d80031"/><rect x="-151.77836" y="43.55009" width="210.23753" height="8.76613" style="fill:#fff"/><rect x="-151.77836" y="52.31622" width="210.23753" height="8.75295" style="fill:#d80031"/><rect x="-151.77836" y="61.06917" width="210.23753" height="8.76613" style="fill:#fff"/><rect x="-151.77836" y="69.8353" width="210.23753" height="8.75358" style="fill:#d80031"/><rect x="-151.77836" y="78.58888" width="210.23753" height="8.76613" style="fill:#fff"/><rect x="-151.77836" y="87.35501" width="210.23753" height="8.76043" style="fill:#d80031"/><rect x="-151.77836" y="96.11544" width="210.23753" height="8.75865" style="fill:#fff"/><rect x="-151.77836" y="104.87409" width="210.23753" height="8.76043" style="fill:#d80031"/><rect x="-151.77836" y="113.63451" width="210.23753" height="8.75979" style="fill:#fff"/><rect x="-151.77836" y="-0.24848" width="210.23753" height="122.64279" style="fill:none"/><rect x="-151.77836" y="-0.24848" width="210.23753" height="122.64279" style="fill:none"/></g><path d="M116.35268,99.144a99.90849,99.90849,0,0,0-18.28338,9.264c3.822-7.497,7.64413-14.76987,11.46579-21.71206Q112.9439,92.733,116.35268,99.144Z" style="fill:url(#linear-gradient)"/><path d="M7.76544,57.54363c4.21226,16.60209,8.42415,32.4415,12.636,47.66345,31.98334,12.49248,63.96745-10.64129,95.9512-6.06307q-3.40938-6.42212-6.81759-12.448C75.61158,76.05795,41.68849,91.53223,7.76544,57.54363Z" style="fill:url(#linear-gradient-2)"/><path d="M141,58.597C112.93013,31.28371,53.46769,19.477,0,27.758c8.28465,2.5342,15.88711,8.8694,15.88711,8.8694S14.32747,40.331,10.91623,47.54328C48.458,39.34758,110.65759,60.03779,134.95718,82.65923Q137.97842,70.38145,141,58.597Z" style="fill:url(#linear-gradient-3)"/><path d="M127.09426,53.908a54.11389,54.11389,0,1,0-54.11389,54.11348c.53863,0,1.07444-.01052,1.60942-.02629L80.70134,121l10.08933-15.98214A54.13294,54.13294,0,0,0,127.09426,53.908Z" style="fill:#9d1333"/><g style="clip-path:url(#clip-path-2)"><rect x="17.53368" y="-0.24848" width="210.23753" height="8.75992" style="fill:#d80031"/><rect x="17.53368" y="8.51144" width="210.23753" height="8.75979" style="fill:#fff"/><rect x="17.53368" y="17.27123" width="210.23753" height="8.75928" style="fill:#d80031"/><rect x="17.53368" y="26.03051" width="210.23753" height="8.76664" style="fill:#fff"/><rect x="17.53368" y="34.79715" width="210.23753" height="8.75295" style="fill:#d80031"/><rect x="17.53368" y="43.55009" width="210.23753" height="8.76613" style="fill:#fff"/><rect x="17.53368" y="52.31622" width="210.23753" height="8.75295" style="fill:#d80031"/><rect x="17.53368" y="61.06917" width="210.23753" height="8.76613" style="fill:#fff"/><rect x="17.53368" y="69.8353" width="210.23753" height="8.75358" style="fill:#d80031"/><rect x="17.53368" y="78.58888" width="210.23753" height="8.76613" style="fill:#fff"/><rect x="17.53368" y="87.35501" width="210.23753" height="8.76043" style="fill:#d80031"/><rect x="17.53368" y="96.11544" width="210.23753" height="8.75865" style="fill:#fff"/><rect x="17.53368" y="104.87409" width="210.23753" height="8.76043" style="fill:#d80031"/><rect x="17.53368" y="113.63451" width="210.23753" height="8.75979" style="fill:#fff"/><rect x="17.53368" y="-0.24848" width="64.65558" height="52.56471" style="fill:#2530a9"/><path d="M36.9252,29.90172a12.72149,12.72149,0,0,1,19.38-10.84807,14.54047,14.54047,0,1,0,0,21.69228,12.72622,12.72622,0,0,1-19.38-10.84421" style="fill:#f5d028"/><polygon points="66.014 29.902 72.98 27.202 65.533 27.796 70.641 22.343 64.186 26.107 66.422 18.98 62.244 25.174 61.164 17.781 60.391 23.076 60.171 24.603 60.086 25.174 55.906 18.98 58.143 26.107 51.691 22.343 56.797 27.796 49.35 27.202 56.319 29.902 49.35 32.597 56.797 32.003 51.691 37.456 58.143 33.689 55.906 40.819 60.086 34.626 60.171 35.197 60.391 36.724 61.164 42.018 62.244 34.626 66.422 40.819 64.186 33.689 70.641 37.456 65.533 32.003 72.98 32.597 66.014 29.902" style="fill:#f5d028"/><rect x="17.53368" y="-0.24848" width="210.23753" height="122.64279" style="fill:none"/><rect x="17.53368" y="-0.24848" width="210.23753" height="122.64279" style="fill:none"/></g><circle cx="72.98037" cy="53.90766" r="54.15614" style="fill:url(#未命名漸層_34)"/><path d="M127.09426,53.908q0-1.386-.06915-2.75374c-27.4787-5.88962-59.11669,7.37887-76.47289,8.11765A48.28533,48.28533,0,0,1,19.51955,49.13526l-.51357.89609c-.09014,1.28022-.1395,2.57217-.1395,3.87666a54.0649,54.0649,0,0,0,2.586,16.56284L71.23473,94.87109a126.4689,126.4689,0,0,1,30.22676-8.73147,35.93571,35.93571,0,0,1,14.72622.349A53.86648,53.86648,0,0,0,127.09426,53.908Z" style="opacity:0.14"/><path d="M7.74321,57.61643C52.16242,86.22127,96.58079,29.99214,141,58.597q-3.02119,11.77674-6.04282,24.0622c-38.1855-13.56161-76.37062,29.88428-114.5557,22.54786C16.18189,90.0118,11.96317,74.19665,7.74321,57.61643Z" style="fill:url(#linear-gradient-4)"/><path d="M32.75287,40.13088C34.8128,58.3626,54.49314,71.76109,76.71049,70.05748c22.21729-1.70755,38.558-17.86863,36.49747-36.09949C111.14831,15.7257,91.46574,2.32858,69.2481,4.03362,47.03189,5.73779,30.69178,21.9,32.75287,40.13088Z" style="fill:url(#linear-gradient-5)"/><path d="M62.51451,65.80073a.48276.48276,0,0,0,.11328-.15332.07147.07147,0,0,0-.02344-.09082.2127.2127,0,0,0-.14062-.02051l-.6123.09473.07373-.23633,2.51562-.57617-.07764.248-.55566.16113a1.301,1.301,0,0,0-.373.15527,3.335,3.335,0,0,0-.353.2998l-3.55176,3.46191,2.14941,3.81445a.54487.54487,0,0,0,.144.1748.33185.33185,0,0,0,.21973.01855l.55664-.08105-.07764.24707L57.55992,74.455l.07764-.24707.58789-.18066c.12646-.03711.20117-.09375.22461-.168a.16287.16287,0,0,0-.02734-.166l-1.36719-2.416-3.60205,3.57813a.52.52,0,0,0-.11426.15234.075.075,0,0,0,.0249.09277.20132.20132,0,0,0,.13965.01953l.61328-.09473-.07373.23633-2.51562.57617.07764-.24707.55371-.16211a1.29312,1.29312,0,0,0,.39258-.16992,3.31422,3.31422,0,0,0,.33447-.28418l4.02881-3.96387-1.95361-3.4668a.50269.50269,0,0,0-.145-.1748.3323.3323,0,0,0-.21973-.01855l-.55664.08105.07764-.248,4.96094-1.13672-.07764.248-.58594.18066q-.19116.0542-.22656.167a.1846.1846,0,0,0,.02881.166l1.15576,2.07227Z" style="fill:#42210b"/><path d="M71.8485,70.59272a9.33187,9.33187,0,0,1-3.55518,1.541,4.54041,4.54041,0,0,1-3.06494-.02344q-.90454-.51709-.4043-2.11816a5.18436,5.18436,0,0,1,1.89648-2.64551,9.36585,9.36585,0,0,1,3.55469-1.54,4.54906,4.54906,0,0,1,3.06543.02246q.90527.51855.40527,2.11816A5.17265,5.17265,0,0,1,71.8485,70.59272Zm-4.46094.38965a.86666.86666,0,0,0,.16357.76855c.15186.13379.43408.1543.84326.06055a2.3313,2.3313,0,0,0,1.01611-.48633,3.043,3.043,0,0,0,.70752-.96777,12.47223,12.47223,0,0,0,.65332-1.72852A9.94924,9.94924,0,0,0,71.183,66.957a.86594.86594,0,0,0-.16357-.76758c-.1543-.13477-.43555-.15332-.8457-.05957a2.302,2.302,0,0,0-1.01367.48535,3.01869,3.01869,0,0,0-.70752.96875,12.37231,12.37231,0,0,0-.65479,1.72656A9.96084,9.96084,0,0,0,67.38756,70.98237Zm5.44141-6.7168-.21631.22266a7.3732,7.3732,0,0,1-1.83643-.28223,20.53968,20.53968,0,0,1-2.31006,1.23242L68.368,65.289a24.969,24.969,0,0,0,2.3208-1.90332l.74316-.16992A6.53419,6.53419,0,0,0,72.829,64.26557Zm-.10889-.83789.07764-.502a2.39258,2.39258,0,0,0,.48438-.4043,1.37075,1.37075,0,0,0,.26074-.49219c.07813-.248-.041-.33594-.35547-.26367a2.35247,2.35247,0,0,0-.35937.11035,3.71075,3.71075,0,0,0-.40234.20215l-.02393-.17871a4.69528,4.69528,0,0,1,1.36865-.55566q1.11621-.25635.894.45117-.21387.68262-1.39893,1.16211l-.17432.38477Z" style="fill:#42210b"/><path d="M83.30455,68.25581a1.23025,1.23025,0,0,0,.51172-.68164.4842.4842,0,0,0-.01953-.44434.71018.71018,0,0,0-.439-.21094c-.21631-.042-.56982-.08789-1.05713-.1377a3.59552,3.59552,0,0,1-1.69238-.44629c-.29443-.21973-.35449-.60352-.18359-1.15039a2.94831,2.94831,0,0,1,1.23291-1.56543,7.68352,7.68352,0,0,1,2.57373-1.01074,9.43285,9.43285,0,0,1,1.585-.23145,4.6682,4.6682,0,0,1,1.1416.043l-.63965,1.5293-.24219.05566a1.56181,1.56181,0,0,0-.53516-1.0459,1.82458,1.82458,0,0,0-1.438-.06836,3.85888,3.85888,0,0,0-1.06445.3877,1.12671,1.12671,0,0,0-.53418.64746.44618.44618,0,0,0,.02051.4209.71964.71964,0,0,0,.41357.2041c.20215.04688.5459.10156,1.0293.167a10.18955,10.18955,0,0,1,1.55176.30078,1.07621,1.07621,0,0,1,.67285.47949,1.20647,1.20647,0,0,1-.01758.90234,2.794,2.794,0,0,1-1.24316,1.53418,8.411,8.411,0,0,1-2.59619.98145,12.81906,12.81906,0,0,1-1.77881.27539,5.43158,5.43158,0,0,1-1.31934-.00391l.72754-1.73242.24414-.05664q-.05127.92285.46973,1.21191a2.27756,2.27756,0,0,0,1.57715.04688A3.24849,3.24849,0,0,0,83.30455,68.25581Z" style="fill:#42210b"/><path d="M95.368,65.2021a9.32358,9.32358,0,0,1-3.55518,1.541,4.53948,4.53948,0,0,1-3.06494-.02344q-.906-.51709-.40527-2.11816A5.18061,5.18061,0,0,1,90.2401,61.956a9.35225,9.35225,0,0,1,3.55469-1.54,4.55566,4.55566,0,0,1,3.06543.02246q.90527.52.4043,2.11816A5.17082,5.17082,0,0,1,95.368,65.2021Zm-4.46191.39063a.86823.86823,0,0,0,.16455.76855.97771.97771,0,0,0,.84326.05957,2.32209,2.32209,0,0,0,1.01514-.48633,3.01894,3.01894,0,0,0,.7085-.96777,12.48856,12.48856,0,0,0,.65234-1.72852,9.99105,9.99105,0,0,0,.4126-1.6709.86493.86493,0,0,0-.16455-.76855c-.15332-.13477-.43457-.15332-.84473-.05957a2.31255,2.31255,0,0,0-1.01367.48535,3.03114,3.03114,0,0,0-.7085.96875,12.42085,12.42085,0,0,0-.65479,1.72656A9.9667,9.9667,0,0,0,90.90612,65.59272Zm5.44238-6.7168-.21631.22168a7.32034,7.32034,0,0,1-1.83643-.28223,20.46672,20.46672,0,0,1-2.31006,1.23242l-.09912-.14941A24.951,24.951,0,0,0,94.20836,57.996l.74316-.1709A6.54353,6.54353,0,0,0,96.3485,58.87592Zm1.959-3.27148a.4453.4453,0,0,1,.23975.36035,22.20263,22.20263,0,0,1-2.50732,1.81738l-.11914-.08789q1.21875-1.30225,1.88477-2.1582A.796.796,0,0,1,98.30748,55.60444Z" style="fill:#42210b"/><path d="M38.21862,92.14253c-.02832.09082-.0249.14648.00879.165a.54921.54921,0,0,0,.23877.01855l.48438-.01758-.07764.248-2.17285.498.07764-.248.55859-.2207a1.24725,1.24725,0,0,0,.30615-.15039.40336.40336,0,0,0,.123-.20117L40.09655,84.791c.02832-.09082.02637-.14844-.00586-.1709a.48817.48817,0,0,0-.252-.02344l-.49658.02246.07764-.248,3.65918-.83887,1.2168,4.84473,4.35938-6.123,3.77441-.86523-.07764.248-.56006.2207a1.2258,1.2258,0,0,0-.30566.15137.39578.39578,0,0,0-.123.2002l-2.33105,7.44336c-.02832.09082-.02637.14844.00586.17188a.48181.48181,0,0,0,.25146.02148l.498-.02148-.07764.248L45.077,91.13471l.07764-.248.5459-.21777a1.2988,1.2988,0,0,0,.28955-.1416.36559.36559,0,0,0,.12207-.19336l2.19922-7.02344-6.02246,8.46289-.42871.09766-1.54346-6.42773Z" style="fill:#42210b"/><path d="M55.89537,88.52241c-.08008-.06934-.08594-.21582-.01562-.43945l.01953-.06152a6.93105,6.93105,0,0,1-2.98242,1.43164,1.88388,1.88388,0,0,1-1.33691-.03418q-.40723-.24463-.166-1.01465a2.79921,2.79921,0,0,1,.89795-1.32324,6.13792,6.13792,0,0,1,1.71729-.96875,22.62651,22.62651,0,0,1,2.72852-.833l.28369-.90527q.21753-.6958-.00049-.92676-.21973-.23145-1.00635-.05176A6.42219,6.42219,0,0,0,54.763,83.831a10.52447,10.52447,0,0,0-1.29639.72852l-.11133-.19238a11.15966,11.15966,0,0,1,1.86328-1.05469,11.63351,11.63351,0,0,1,2.24512-.751q1.61572-.37061,2.12988.02344.51123.39551.18555,1.43848L58.703,87.45893c-.02832.0918-.02539.14746.00684.1709a.49705.49705,0,0,0,.251.02344l.4707-.0166-.07031.22363-2.94629.67578C56.1483,88.59663,55.97448,88.5937,55.89537,88.52241Zm.12793-.89844.62988-2.00977a6.11618,6.11618,0,0,0-1.28223.49512,2.16771,2.16771,0,0,0-.71484.60742,3.0921,3.0921,0,0,0-.41406.877c-.09814.31445-.10547.52832-.021.63867q.12671.167.5415.07227A3.07389,3.07389,0,0,0,56.0233,87.624Z" style="fill:#42210b"/><path d="M60.41686,87.41108l.53027-.21387a1.22526,1.22526,0,0,0,.30664-.15039.399.399,0,0,0,.123-.20117l2.34668-7.49219c.02832-.0918.02637-.14941-.00586-.17187a.50188.50188,0,0,0-.25244-.02344l-.46875.01563.06982-.22266,3.54834-1.15918.27148-.0625-2.6499,8.46094c-.02832.0918-.02637.14844.00586.17188a.49147.49147,0,0,0,.251.02246l.4707-.01562-.07031.22363-4.54687,1.042Z" style="fill:#42210b"/><path d="M71.05065,85.04878c-.08008-.06934-.08594-.21582-.01562-.43945l.01953-.06152a6.92542,6.92542,0,0,1-2.98242,1.43164,1.88388,1.88388,0,0,1-1.33691-.03418q-.40869-.24463-.166-1.01465a2.79691,2.79691,0,0,1,.89795-1.32324,6.14812,6.14812,0,0,1,1.71729-.96875,22.74905,22.74905,0,0,1,2.72852-.833l.28369-.90527c.145-.46387.145-.77148-.00146-.92676q-.21826-.23145-1.00537-.05176a6.46373,6.46373,0,0,0-1.27148.43555,10.45359,10.45359,0,0,0-1.29639.72852l-.11133-.19238a11.15966,11.15966,0,0,1,1.86328-1.05469,11.71346,11.71346,0,0,1,2.24414-.751q1.61719-.37061,2.12988.02344.5127.39551.18652,1.43848L73.85826,83.9853c-.02832.0918-.02637.14746.00586.1709a.492.492,0,0,0,.252.02344l.4707-.01562-.07031.22266-2.94629.67578C71.30358,85.123,71.12975,85.12006,71.05065,85.04878Zm.12793-.89844.62988-2.00977a6.12755,6.12755,0,0,0-1.2832.49512,2.17825,2.17825,0,0,0-.71484.6084,3.09287,3.09287,0,0,0-.41406.877c-.09814.31445-.10449.52734-.021.63867.08545.11035.26514.13477.54248.07129A3.0859,3.0859,0,0,0,71.17858,84.15034Z" style="fill:#42210b"/><path d="M81.14147,77.5146c-.2334.09082-.36768.19531-.40381.31152a.3082.3082,0,0,0,.01025.18164l.75293,2.51074,2.54541-3.50879a.49363.49363,0,0,0,.08154-.13379c.01563-.0498-.03711-.06348-.1582-.04395l-.36035.04785.05859-.18652,1.64453-.377-.05859.18652-.3877.13379a1.49867,1.49867,0,0,0-.2627.11816.88254.88254,0,0,0-.19678.207L79.8778,83.15815q-.93457,1.28613-1.4668,1.9082a6.31805,6.31805,0,0,1-1.0752,1.01758,6.61793,6.61793,0,0,1-1.34961.73047l-.18262-1.709a11.53433,11.53433,0,0,0,1.93164-.70215,11.40676,11.40676,0,0,0,1.69336-.958l-1.65723-4.918a.20259.20259,0,0,0-.11377-.123.56271.56271,0,0,0-.2124-.01953l-.39844-.001.05859-.18652,4.48926-1.0293-.05859.1875Z" style="fill:#42210b"/><path d="M88.76354,80.82221a1.22365,1.22365,0,0,0,.51172-.68066.48457.48457,0,0,0-.01855-.44531.713.713,0,0,0-.43945-.21q-.32373-.063-1.05762-.1377a3.60648,3.60648,0,0,1-1.69189-.44727q-.44019-.33105-.18359-1.14941A2.94532,2.94532,0,0,1,87.118,76.18549a7.69071,7.69071,0,0,1,2.57227-1.01074,9.4328,9.4328,0,0,1,1.58545-.23047,4.608,4.608,0,0,1,1.14111.043l-.63867,1.52832-.24219.05566a1.56237,1.56237,0,0,0-.53564-1.0459,1.82888,1.82888,0,0,0-1.438-.06836,3.82026,3.82026,0,0,0-1.06445.38867,1.1268,1.1268,0,0,0-.5332.64648.44628.44628,0,0,0,.01953.4209.72393.72393,0,0,0,.41455.2041c.20117.04688.54443.10156,1.02881.168a9.96333,9.96333,0,0,1,1.55176.30078,1.06923,1.06923,0,0,1,.67236.47852,1.206,1.206,0,0,1-.01709.90234A2.79379,2.79379,0,0,1,90.391,80.50092a8.37171,8.37171,0,0,1-2.59619.98145,12.83487,12.83487,0,0,1-1.77832.27539,5.45312,5.45312,0,0,1-1.32031-.00293l.72949-1.7334.24316-.05566q-.0498.92139.46973,1.21094a2.28216,2.28216,0,0,0,1.57715.04785A3.27689,3.27689,0,0,0,88.76354,80.82221Z" style="fill:#42210b"/><path d="M92.58776,80.038l.5293-.21387a1.22526,1.22526,0,0,0,.30664-.15039.399.399,0,0,0,.123-.20117l1.46875-4.68945c.02832-.08984.02637-.14746-.00586-.1709a.49531.49531,0,0,0-.25244-.02246l-.46826.01563.07031-.22363,3.54688-1.1582.27148-.0625-1.77148,5.65625c-.02832.0918-.02637.14844.00586.17188a.49147.49147,0,0,0,.251.02246l.4707-.01562-.07031.22363-4.5459,1.042Zm3.39746-7.291q-.31714-.17432-.15771-.68359a1.71275,1.71275,0,0,1,.64307-.86719,3.10208,3.10208,0,0,1,1.15576-.5127,1.45629,1.45629,0,0,1,.98877.02148c.21191.11719.26367.3457.15771.68359a1.70082,1.70082,0,0,1-.64307.86719,3.06519,3.06519,0,0,1-1.15625.5127A1.44257,1.44257,0,0,1,95.98522,72.747Z" style="fill:#42210b"/><path d="M103.24889,77.66987c-.08008-.07031-.08594-.2168-.01562-.44043l.01953-.06152a6.92542,6.92542,0,0,1-2.98242,1.43164,1.88512,1.88512,0,0,1-1.33691-.0332q-.40723-.24609-.166-1.01562a2.79655,2.79655,0,0,1,.89795-1.32227,6.13861,6.13861,0,0,1,1.71729-.96973,22.98666,22.98666,0,0,1,2.72852-.833l.28369-.90527c.145-.46387.145-.77148-.00049-.92676q-.21973-.23145-1.00635-.05078a6.419,6.419,0,0,0-1.27148.43457,10.66919,10.66919,0,0,0-1.29639.72949l-.11133-.19336a11.22883,11.22883,0,0,1,1.86328-1.05469,11.76816,11.76816,0,0,1,2.24512-.751q1.61572-.37061,2.12891.02441.5127.39551.18652,1.4375l-1.07617,3.43555c-.02832.0918-.02539.14844.00586.17188a.49592.49592,0,0,0,.252.02246l.4707-.01562-.07031.22363-2.94629.6748C103.50182,77.74409,103.328,77.74018,103.24889,77.66987Zm.12793-.89941.62988-2.00977a6.1707,6.1707,0,0,0-1.28223.49512,2.16968,2.16968,0,0,0-.71484.6084,3.06666,3.06666,0,0,0-.41406.877q-.14722.47168-.022.63867.12817.167.54248.07129A3.07429,3.07429,0,0,0,103.37682,76.77045Z" style="fill:#42210b"/></svg>