<svg xmlns="http://www.w3.org/2000/svg" xmlns:xlink="http://www.w3.org/1999/xlink" viewBox="0 0 141 121.21"><defs><style>.cls-1{fill:none;}.cls-2{isolation:isolate;}.cls-3{fill:url(#linear-gradient);}.cls-4{fill:url(#linear-gradient-2);}.cls-5{fill:url(#linear-gradient-3);}.cls-6{fill:#3b0107;}.cls-7{clip-path:url(#clip-path);}.cls-8{fill:#003187;}.cls-9{fill:#fff;}.cls-10{fill:#bf0013;}.cls-11,.cls-12{opacity:0.8;}.cls-11,.cls-14{mix-blend-mode:screen;}.cls-11{fill:url(#radial-gradient);}.cls-12{mix-blend-mode:multiply;fill:url(#radial-gradient-2);}.cls-13{opacity:0.6;mix-blend-mode:overlay;fill:url(#linear-gradient-4);}.cls-14{fill:url(#linear-gradient-5);}.cls-15{opacity:0.14;}.cls-16{fill:url(#未命名漸層_8);}.cls-17{font-size:20.54px;fill:#42210b;font-family:MicrosoftYaHei, Microsoft YaHei;}</style><linearGradient id="linear-gradient" x1="100.9" y1="96.92" x2="115.81" y2="100.71" gradientUnits="userSpaceOnUse"><stop offset="0" stop-color="#f8b400"/><stop offset="0.34" stop-color="#f9ad06"/><stop offset="0.82" stop-color="#fd9a16"/><stop offset="1" stop-color="#ff911e"/></linearGradient><linearGradient id="linear-gradient-2" x1="-42.87" y1="66.97" x2="72.21" y2="66.97" gradientTransform="translate(60.71 24.42) rotate(14.28)" gradientUnits="userSpaceOnUse"><stop offset="0" stop-color="#c28d00"/><stop offset="0.37" stop-color="#c18605"/><stop offset="0.89" stop-color="#be7313"/><stop offset="1" stop-color="#bd6e17"/></linearGradient><linearGradient id="linear-gradient-3" x1="0" y1="29.07" x2="139.37" y2="64.54" xlink:href="#linear-gradient"/><clipPath id="clip-path"><path class="cls-1" d="M127.54,54.13c0,29.78-24.43,53.93-54.58,53.93S18.41,83.91,18.41,54.13,42.83.22,73,.22,127.54,24.36,127.54,54.13Z"/></clipPath><radialGradient id="radial-gradient" cx="143.07" cy="138.29" fx="105.81308160187875" fy="116.13841427231914" r="81.84" gradientTransform="translate(-54.66 -59.76) scale(0.86)" gradientUnits="userSpaceOnUse"><stop offset="0.02" stop-color="#fff"/><stop offset="0.04" stop-color="#f0f0f0"/><stop offset="0.12" stop-color="#b8b8b8"/><stop offset="0.2" stop-color="#878787"/><stop offset="0.28" stop-color="#5e5e5e"/><stop offset="0.36" stop-color="#3c3c3c"/><stop offset="0.44" stop-color="#212121"/><stop offset="0.53" stop-color="#0f0f0f"/><stop offset="0.62" stop-color="#040404"/><stop offset="0.72"/></radialGradient><radialGradient id="radial-gradient-2" cx="156.56" cy="126.25" fx="121.45533976235473" fy="105.3776429178116" r="77.11" gradientTransform="translate(-54.66 -59.76) scale(0.86)" gradientUnits="userSpaceOnUse"><stop offset="0.57" stop-color="#efffff"/><stop offset="0.77" stop-color="#777f7f"/><stop offset="0.93" stop-color="#222424"/><stop offset="1"/></radialGradient><linearGradient id="linear-gradient-4" x1="63.03" y1="32.97" x2="116.16" y2="151.56" gradientUnits="userSpaceOnUse"><stop offset="0" stop-color="#fff"/><stop offset="1"/></linearGradient><linearGradient id="linear-gradient-5" x1="72" y1="-3.18" x2="72" y2="66" gradientUnits="userSpaceOnUse"><stop offset="0" stop-color="#fff"/><stop offset="0.17" stop-color="#c7c7c7"/><stop offset="0.4" stop-color="#818181"/><stop offset="0.6" stop-color="#494949"/><stop offset="0.78" stop-color="#222"/><stop offset="0.92" stop-color="#090909"/><stop offset="1"/></linearGradient><linearGradient id="未命名漸層_8" x1="7.97" y1="78.28" x2="140.75" y2="78.28" gradientUnits="userSpaceOnUse"><stop offset="0" stop-color="#f8d04c"/><stop offset="0.18" stop-color="#f9c948"/><stop offset="0.44" stop-color="#fab63e"/><stop offset="0.75" stop-color="#fd972d"/><stop offset="1" stop-color="#ff781d"/></linearGradient></defs><title>c_menu--lotteryTh</title><g class="cls-2"><g id="圖層_1" data-name="圖層 1"><path class="cls-3" d="M116.19,99.21A100.12,100.12,0,0,0,98,108.44c3.81-7.47,7.62-14.71,11.42-21.63Q112.79,92.82,116.19,99.21Z"/><path class="cls-4" d="M8,57.76c4.2,16.54,8.39,32.33,12.59,47.49,31.87,12.45,63.74-10.6,95.61-6q-3.41-6.39-6.8-12.4C75.59,76.21,41.79,91.63,8,57.76Z"/><path class="cls-5" d="M140.75,58.81c-28-27.21-87.22-39-140.5-30.73,8.26,2.53,15.83,8.84,15.83,8.84s-1.55,3.69-4.95,10.88c37.41-8.17,99.38,12.45,123.6,35Q137.73,70.55,140.75,58.81Z"/><path class="cls-6" d="M126.89,54.14A53.92,53.92,0,1,0,73,108.06c.54,0,1.07,0,1.61,0l6.08,13,10.06-15.92A53.94,53.94,0,0,0,126.89,54.14Z"/><g class="cls-7"><path class="cls-8" d="M127.41,66.1a325.6,325.6,0,0,1-108.87,0,55.19,55.19,0,0,1,0-23.93,325.08,325.08,0,0,1,108.87,0A55.5,55.5,0,0,1,127.41,66.1Z"/><path class="cls-9" d="M127.41,42.17a325.08,325.08,0,0,0-108.87,0A72.76,72.76,0,0,1,23.8,28.36c32.37-13,66-13,98.33,0A72.17,72.17,0,0,1,127.41,42.17Z"/><path class="cls-10" d="M122.13,28.36c-32.35-13-66-13-98.33,0a102,102,0,0,1,9.11-13.81C44.36,5.89,57.42-.81,72.05-1.07c15.31-.27,29,6.59,41,15.62A100.08,100.08,0,0,1,122.13,28.36Z"/><path class="cls-9" d="M122.13,79.92c-32.35,13-66,13-98.33,0A73.11,73.11,0,0,1,18.54,66.1a325.6,325.6,0,0,0,108.87,0A72.51,72.51,0,0,1,122.13,79.92Z"/><path class="cls-10" d="M113,93.72c-11.94,9-25.67,15.91-41,15.62-14.63-.26-27.68-7-39.14-15.62a101.29,101.29,0,0,1-9.11-13.8c32.37,13,66,13,98.33,0A99.38,99.38,0,0,1,113,93.72Z"/></g><path class="cls-11" d="M127.54,54.13c0,29.78-24.43,53.93-54.58,53.93S18.41,83.91,18.41,54.13,42.83.22,73,.22,127.54,24.36,127.54,54.13Z"/><path class="cls-12" d="M127.54,54.13c0,29.78-24.43,53.93-54.58,53.93S18.41,83.91,18.41,54.13,42.83.22,73,.22,127.54,24.36,127.54,54.13Z"/><path class="cls-13" d="M125.55,53c0,28.89-24,52.31-53.55,52.31S18.45,81.88,18.45,53,42.42.66,72,.66,125.55,24.09,125.55,53Z"/><path class="cls-14" d="M115.65,35.78c0,18.2-19.53,33-43.65,33S28.35,54,28.35,35.78s19.54-33,43.65-33S115.65,17.57,115.65,35.78Z"/><path class="cls-15" d="M126.89,54.14c0-.92,0-1.84-.07-2.74-27.38-5.87-58.9,7.35-76.2,8.08A48.11,48.11,0,0,1,19.7,49.38l-.51.9c-.09,1.27-.14,2.56-.14,3.86a53.86,53.86,0,0,0,2.58,16.5L71.23,95a125.34,125.34,0,0,1,30.12-8.7A35.7,35.7,0,0,1,116,86.6,53.67,53.67,0,0,0,126.89,54.14Z"/><path class="cls-16" d="M8,57.83c44.26,28.51,88.52-27.52,132.78,1q-3,11.73-6,24c-38-13.52-76.1,29.77-114.15,22.46C16.38,90.11,12.17,74.36,8,57.83Z"/><text class="cls-17" transform="matrix(0.97, -0.26, 0.26, 0.97, 46.53, 88.04)">泰国彩</text></g></g></svg>