<svg xmlns="http://www.w3.org/2000/svg" xmlns:xlink="http://www.w3.org/1999/xlink" viewBox="0 0 141.001 122.50923"><defs><linearGradient id="linear-gradient" x1="101.0137" y1="98.3512" x2="115.9705" y2="102.15791" gradientUnits="userSpaceOnUse"><stop offset="0.0034" stop-color="#f8b400"/><stop offset="0.33765" stop-color="#f9ad06"/><stop offset="0.81965" stop-color="#fd9a16"/><stop offset="1" stop-color="#ff911e"/></linearGradient><linearGradient id="linear-gradient-2" x1="-115.48866" y1="-147.05976" x2="0.00658" y2="-147.05976" gradientTransform="translate(78.05974 251.11498) rotate(14.27665)" gradientUnits="userSpaceOnUse"><stop offset="0.0034" stop-color="#c28d00"/><stop offset="0.36606" stop-color="#c18605"/><stop offset="0.88899" stop-color="#be7313"/><stop offset="1" stop-color="#bd6e17"/></linearGradient><linearGradient id="linear-gradient-3" x1="-0.25114" y1="30.25335" x2="139.61975" y2="65.85244" xlink:href="#linear-gradient"/><clipPath id="clip-path"><path d="M127.74372,55.4115c0,29.88516-24.52037,54.11912-54.77429,54.11912-30.23651,0-54.75139-24.234-54.75139-54.11912,0-29.88327,24.51488-54.10984,54.75139-54.10984C103.22335,1.30166,127.74372,25.52823,127.74372,55.4115Z" style="fill:none"/></clipPath><radialGradient id="未命名漸層_18" cx="80.2995" cy="50.29572" fx="49.93644186788501" fy="32.24608410877744" r="66.69246" gradientUnits="userSpaceOnUse"><stop offset="0.56892" stop-color="#efffff" stop-opacity="0.2"/><stop offset="0.6925" stop-color="#a6b1b1" stop-opacity="0.13888"/><stop offset="1" stop-opacity="0"/></radialGradient><linearGradient id="未命名漸層_11" x1="72.0057" y1="-2.10939" x2="72.0057" y2="67.31984" gradientUnits="userSpaceOnUse"><stop offset="0" stop-color="#fff"/><stop offset="0.16806" stop-color="#fff" stop-opacity="0.77931"/><stop offset="0.39556" stop-color="#fff" stop-opacity="0.50546"/><stop offset="0.60083" stop-color="#fff" stop-opacity="0.28806"/><stop offset="0.77631" stop-color="#fff" stop-opacity="0.13141"/><stop offset="0.9151" stop-color="#fff" stop-opacity="0.03535"/><stop offset="1" stop-color="#fff" stop-opacity="0"/></linearGradient><linearGradient id="未命名漸層_7" x1="7.74326" y1="79.64551" x2="141.001" y2="79.64551" gradientUnits="userSpaceOnUse"><stop offset="0.0034" stop-color="#f8d04c"/><stop offset="0.18339" stop-color="#f9c948"/><stop offset="0.44353" stop-color="#fab63e"/><stop offset="0.7508" stop-color="#fd972d"/><stop offset="1" stop-color="#ff781d"/></linearGradient></defs><title>泰国彩-日</title><g id="圖層_2" data-name="圖層 2"><g id="圖層_1-2" data-name="圖層 1"><path d="M116.3535,100.65308A99.9092,99.9092,0,0,0,98.07,109.9172c3.82207-7.497,7.64418-14.77,11.46587-21.71221Q112.9447,94.24206,116.3535,100.65308Z" style="fill:url(#linear-gradient)"/><path d="M7.7655,59.05241c4.21229,16.60221,8.42421,32.44173,12.63613,47.66379,31.98357,12.49257,63.96791-10.64137,95.95188-6.06312q-3.4094-6.42216-6.81764-12.44809C75.61212,77.56685,41.68879,93.04125,7.7655,59.05241Z" style="fill:url(#linear-gradient-2)"/><path d="M141.001,60.10581C112.93094,32.7923,53.46807,20.98553,0,29.26659c8.28471,2.53421,15.88723,8.86946,15.88723,8.86946s-1.55965,3.7036-4.97091,10.91594c37.542-8.19576,99.74206,12.4946,124.04183,35.11619Q137.9794,71.89031,141.001,60.10581Z" style="fill:url(#linear-gradient-3)"/><path d="M127.09516,55.41676a54.11427,54.11427,0,1,0-54.11427,54.11386c.53863,0,1.07444-.01052,1.60943-.02629l6.1116,13.0049L90.79132,106.527A54.13333,54.13333,0,0,0,127.09516,55.41676Z" style="fill:#bf0013"/><g style="clip-path:url(#clip-path)"><path d="M127.61519,67.42039a326.7039,326.7039,0,0,1-109.265,0,55.63217,55.63217,0,0,1,0-24.01758,326.11846,326.11846,0,0,1,109.265,0A55.59691,55.59691,0,0,1,127.61519,67.42039Z" style="fill:#003187"/><path d="M127.61519,43.4028a326.11846,326.11846,0,0,0-109.265,0A73.1476,73.1476,0,0,1,23.63452,29.5435c32.48067-13.08109,66.21565-13.08109,98.68535,0A72.43851,72.43851,0,0,1,127.61519,43.4028Z" style="fill:#fff"/><path d="M122.31987,29.5435c-32.46969-13.08109-66.20467-13.08109-98.68535,0a102.3651,102.3651,0,0,1,9.14154-13.85741C44.26361,6.99565,57.3695.272,72.06079.00778c15.35933-.27184,29.14007,6.60888,41.12492,15.6783A101.28515,101.28515,0,0,1,122.31987,29.5435Z" style="fill:#bf0013"/><path d="M122.31987,81.289c-32.46969,13.07162-66.20467,13.07162-98.68535,0a73.38452,73.38452,0,0,1-5.28434-13.86858,326.7039,326.7039,0,0,0,109.265,0A72.67172,72.67172,0,0,1,122.31987,81.289Z" style="fill:#fff"/><path d="M113.18571,95.139c-11.98485,9.07869-25.76559,15.96661-41.12492,15.68019-14.69128-.26635-27.78525-6.98048-39.28472-15.68019a101.39856,101.39856,0,0,1-9.14154-13.85c32.48067,13.07162,66.21565,13.07162,98.68535,0A100.33833,100.33833,0,0,1,113.18571,95.139Z" style="fill:#bf0013"/></g><path d="M127.74372,55.4115c0,29.88516-24.52037,54.11912-54.77429,54.11912-30.23651,0-54.75139-24.234-54.75139-54.11912,0-29.88327,24.51488-54.10984,54.75139-54.10984C103.22335,1.30166,127.74372,25.52823,127.74372,55.4115Z" style="opacity:0.8;fill:url(#未命名漸層_18)"/><path d="M115.81718,36.99174c0,18.26453-19.60857,33.10537-43.81281,33.10537-24.19969,0-43.81016-14.84083-43.81016-33.10537,0-18.2776,19.61046-33.11294,43.81016-33.11294C96.20861,3.8788,115.81718,18.71415,115.81718,36.99174Z" style="fill:url(#未命名漸層_11)"/><path d="M127.09516,55.41676q0-1.386-.06915-2.75376c-27.47889-5.88966-59.11711,7.37892-76.47343,8.11771A48.28567,48.28567,0,0,1,19.51969,50.644l-.51358.8961c-.09014,1.28023-.1395,2.57219-.1395,3.87668a54.06529,54.06529,0,0,0,2.586,16.563L71.23523,96.38013a126.4698,126.4698,0,0,1,30.227-8.73153,35.936,35.936,0,0,1,14.72633.349A53.86686,53.86686,0,0,0,127.09516,55.41676Z" style="opacity:0.14"/><path d="M7.74326,59.1252c44.41952,28.605,88.83822-27.62448,133.25774.98061q-3.02121,11.77682-6.04286,24.06237c-38.18577-13.5617-76.37116,29.8845-114.55651,22.548C16.182,91.52081,11.96326,75.70555,7.74326,59.1252Z" style="fill:url(#未命名漸層_7)"/><path d="M51.6805,88.30117l-.85254-.89453a25.51763,25.51763,0,0,0,5.1377-6.13281,5.30552,5.30552,0,0,0-1.36621-1.59961l1.17285-1.625a8.26409,8.26409,0,0,1,1.28125,1.33984,23.20978,23.20978,0,0,0,1.834-4.23437l-2.73047.70508a43.84891,43.84891,0,0,1-3.41211,5.33984l-1.02344-.57227a46.7195,46.7195,0,0,0,5.37207-9.46777l1.3877.12988c.29688.0625.23438.19531-.19043.39746q-.41016.87158-1.2373,2.40918l3.07227-.793.38281-.23828.57617.75586-.27637.41992A37.99558,37.99558,0,0,1,57.951,80.4125l.51465.98242L57.1844,83.11953l-.40723-.80273A34.408,34.408,0,0,1,51.6805,88.30117Z" style="fill:#42210b"/><path d="M62.19905,79.10781A50.17074,50.17074,0,0,0,71.7762,67.92715l1.08691.90332c.15723.19336.03613.33984-.3623.44238a50.02375,50.02375,0,0,1-3.45508,4.65332L66.12678,84.223l-1.707.44141L66.742,76.4711a49.86613,49.86613,0,0,1-4.13867,3.99414Z" style="fill:#42210b"/><path d="M78.69514,77.84414l-4.43945,1.14648-.3623,1.27734-1.707.44141L75.53108,68.9086l7.85352-2.02734L80.14632,78.307l-1.707.43945Zm.46875-1.65234,2.04492-7.2168-4.43945,1.14648-2.04492,7.21484Z" style="fill:#42210b"/><path d="M91.47444,72.38613a7.50677,7.50677,0,0,0-2.75391-1.72559L86.50374,78.477l-1.70508.43945,4.30469-15.18262,1.70508-.44043q.49072-.05566-.10645.377l-1.42773,5.03516a8.535,8.535,0,0,1,3.501,1.88281Z" style="fill:#42210b"/></g></g></svg>