<svg xmlns="http://www.w3.org/2000/svg" xmlns:xlink="http://www.w3.org/1999/xlink" viewBox="0 0 85.038 66.88927"><defs><linearGradient id="linear-gradient" x1="60.92155" y1="54.49024" x2="69.94182" y2="56.78603" gradientUnits="userSpaceOnUse"><stop offset="0.0034" stop-color="#f9b500"/><stop offset="0.33765" stop-color="#faae06"/><stop offset="0.81965" stop-color="#fd9b16"/><stop offset="1" stop-color="#ff921e"/></linearGradient><linearGradient id="linear-gradient-2" x1="-51.00488" y1="-384.35341" x2="18.6503" y2="-384.35341" gradientTransform="translate(-43.90249 428.54957) rotate(14.27665)" gradientUnits="userSpaceOnUse"><stop offset="0.0034" stop-color="#c38e00"/><stop offset="0.35843" stop-color="#c28705"/><stop offset="0.87034" stop-color="#bf7413"/><stop offset="1" stop-color="#be6e17"/></linearGradient><linearGradient id="linear-gradient-3" x1="-0.15147" y1="13.42031" x2="84.20493" y2="34.89019" xlink:href="#linear-gradient"/><linearGradient id="linear-gradient-4" x1="33.93469" y1="18.71801" x2="44.22207" y2="21.33629" gradientUnits="userSpaceOnUse"><stop offset="0.0034" stop-color="#ec1e79"/><stop offset="1" stop-color="#ae0663"/></linearGradient><linearGradient id="linear-gradient-5" x1="4.68339" y1="34.71303" x2="76.8867" y2="34.71303" gradientUnits="userSpaceOnUse"><stop offset="0.0034" stop-color="#d10272"/><stop offset="1" stop-color="#931668"/></linearGradient><linearGradient id="linear-gradient-6" x1="59.01707" y1="1.92028" x2="76.8867" y2="1.92028" xlink:href="#linear-gradient-5"/><linearGradient id="linear-gradient-7" x1="40.48118" y1="64.00469" x2="45.61475" y2="64.00469" gradientUnits="userSpaceOnUse"><stop offset="0" stop-color="#3fa8f4"/><stop offset="0.43052" stop-color="#2e99e5"/><stop offset="1" stop-color="#1180cb"/></linearGradient><linearGradient id="linear-gradient-8" x1="26.12395" y1="-411.01909" x2="-37.37266" y2="-386.18706" gradientTransform="translate(-43.90249 428.54957) rotate(14.27665)" gradientUnits="userSpaceOnUse"><stop offset="0.0034" stop-color="#f9d14c"/><stop offset="0.27761" stop-color="#facd45"/><stop offset="0.67289" stop-color="#fcc332"/><stop offset="1" stop-color="#ffb81d"/></linearGradient></defs><title>廣西骰寶_1</title><g id="圖層_2" data-name="圖層 2"><g id="圖層_1-2" data-name="圖層 1"><path d="M70.1728,55.8785a60.24181,60.24181,0,0,0-11.0266,5.58721c2.30512-4.52146,4.61-8.9078,6.915-13.09468Q68.11723,52.012,70.1728,55.8785Z" style="fill:url(#linear-gradient)"/><path d="M4.68339,30.78906C7.2236,40.80188,9.764,50.35473,12.30426,59.53518c19.28947,7.53429,38.57907-6.41783,57.86854-3.65668q-2.05588-3.87322-4.11163-7.50747C45.602,41.95515,25.14274,51.28779,4.68339,30.78906Z" style="fill:url(#linear-gradient-2)"/><path d="M85.038,31.42437C68.10852,14.95153,32.24647,7.83084,0,12.82517c5.17286,2.46877,9.11547,5.18579,9.58177,11.958C32.22342,19.84,66.7383,32.2933,81.39351,45.93643Q83.21545,38.53162,85.038,31.42437Z" style="fill:url(#linear-gradient-3)"/><path d="M34.25015,17.47856C38.40421,15.701,42.558,13.599,46.712,11.55338c-3.09466,6.17784-6.1892,12.38692-9.28374,18.47041Q35.83893,23.7764,34.25015,17.47856Z" style="fill:url(#linear-gradient-4)"/><polygon points="4.683 2.537 19.986 53.037 42.793 53.037 48.297 66.889 56.078 53.037 71.949 53.037 76.887 7.934 4.683 2.537" style="fill:url(#linear-gradient-5)"/><path d="M74.80289,27.0641C59.406,23.37134,40.98635,31.38436,30.48813,31.8314c-7.9645.33873-15.09383-3.04212-18.4553-4.95679l2.62909,8.6293,28.0578,17.5332h.07352l.0245.11755.14439.119A76.30142,76.30142,0,0,1,61.192,48.02131a24.36335,24.36335,0,0,1,11.21487.93771Z" style="opacity:0.14"/><polygon points="59.017 3.841 76.887 3.841 71.4 0 59.017 3.841" style="fill:url(#linear-gradient-6)"/><polygon points="45.615 65.768 43.285 62.241 40.481 63.417 45.615 65.768" style="fill:url(#linear-gradient-7)"/><path d="M25.72887,12.83375l.29688,2.86133c.34082,3.2998.55078,8.35742-.97266,11.45215a11.79657,11.79657,0,0,0-2.33789-1.51855c1.40332-2.85156,1.10938-7.10352.80273-10.06934l-.543-5.24219,8.04883.4375a23.466,23.466,0,0,0-1.12793-2.2002L32.267,7.99781A15.3391,15.3391,0,0,1,33.82652,10.907l6.70117.36426.24609,2.37988ZM39.90855,27.95386a18.14145,18.14145,0,0,0-.88184-1.833c-8.6875.27539-9.96387.28906-10.83691.57422a20.13139,20.13139,0,0,0-1.12793-2.4082c.57422-.11426.93066-.71777,1.46973-1.78906a35.47062,35.47062,0,0,0,2.89551-8.64746l2.84766.77734a47.17024,47.17024,0,0,1-3.61816,9.377l7.11328-.1123c-.88086-1.418-1.87207-2.90527-2.8418-4.16211l2.26367-.81152a42.02873,42.02873,0,0,1,5.2168,8.0918Z" style="fill:#fff"/><path d="M55.53746,12.97925l.23535,2.27637,5.26758.28613L62.44664,29.117l-2.5498-.13867-.11914-1.14844L47.725,27.17457l.123,1.19043-2.44531-.13281L43.99254,14.616l4.97363.27051-.23535-2.27637L42.70445,12.282l-.24707-2.38086,18.83789,1.02344.24707,2.38086Zm-8.86328,4.0459.38867,3.75879a3.517,3.517,0,0,0,2.11816-3.623Zm12.86816,8.52832-.26855-2.58984-.126-.00684-2.29785-.125c-2.19043-.11914-2.749-.85547-2.99316-3.21484l-.22949-2.21387L51.41539,17.283c.09961,2.18555-.46289,4.43945-3.29395,5.63574a9.08673,9.08673,0,0,0-.9541-1.13184l.32227,3.11133ZM53.15562,12.85035l-2.19043-.11914.23535,2.27637,2.19043.11914ZM56.00914,17.532l.22852,2.21387c.07227.68945.16211.75684.752.78809l1.66406.09082a1.4065,1.4065,0,0,0,.376-.02051l-.30273-2.92383Z" style="fill:#fff"/><path d="M4.6701,30.833c26.789,17.25176,53.5784-16.66038,80.3679.59141Q83.21553,38.527,81.39351,45.93643C58.3636,37.75734,35.33382,63.95982,12.30426,59.53518,9.75955,50.37081,7.21469,40.8326,4.6701,30.833Z" style="fill:url(#linear-gradient-8)"/><path d="M17.05309,45.28785a16.76781,16.76781,0,0,0,4.44727-1.97461l.248.73145c.04688.15625-.03516.21582-.248.18262a11.44143,11.44143,0,0,1-1.56055.85547l-.57422,1.835,2.11328-.48535-.30664.9834-2.11523.48535a12.4073,12.4073,0,0,1-3.26562,5.23242l-.50586-.67285a9.99786,9.99786,0,0,0,2.74219-4.32324l-2.57812.58984.30664-.9834,2.57813-.58984.50586-1.61035a13.99568,13.99568,0,0,1-1.91211.60352Z" style="fill:#42210b"/><path d="M24.82262,46.45484l-.43945,4.46-.97461.51465.5293-4.43945-1.77148,1.07031-.043-.7793,1.91211-1.06055.18555-2.11914.959-.46875c.18164-.06934.17969-.01367-.00391.167l-.26953,1.93066,2.627-1.5166.23242.4873-2.07422,3.25781-.51562-.33887,1.35156-2.17773Z" style="fill:#42210b"/><path d="M34.37144,42.3982c.11914.02832.07813.10645-.12109.23535a14.35332,14.35332,0,0,1-4.97461,7.32715l-.39453-.57422q3.09082-2.07861,4.60352-6.91016ZM29.5941,46.19215l-.03516-2.02734.84766-.56738.02148,2.07129Zm1.58789-.94531-.04883-1.98242.7832-.51074.0625,1.93652Z" style="fill:#42210b"/><path d="M35.49644,48.74293l-.36719-.66406a17.18228,17.18228,0,0,0,4.98047-7.03711l-1.80469.41309a17.60072,17.60072,0,0,1-2.33984,3.19336L35.38707,44.2a19.37626,19.37626,0,0,0,3.51953-5.582l.93164.07715c.10938.05859.05273.14063-.17187.24707q-.27246.5625-.79687,1.46973l1.85547-.4248.30078-.19336.38086.61816-.1582.20313A19.8888,19.8888,0,0,1,35.49644,48.74293Z" style="fill:#42210b"/><path d="M42.805,45.116l-.30859.98438-1.18555.27148.30859-.98437Z" style="fill:#42210b"/><path d="M53.86754,37.14039l-4.47461,1.15137.25586-.97266,4.7207-1.165.29883-.19336.50781.67285-.291.31543a23.75418,23.75418,0,0,1-2.71875,3.48828l-.32422-.34082a12.20974,12.20974,0,0,1-3.38867,5.46875l-.48242-.5957a10.27137,10.27137,0,0,0,2.81055-4.54785l.63086-2.0127,1.0332-.23633q.293-.0249-.07031.22363l-.34961,1.11816A15.62991,15.62991,0,0,0,53.86754,37.14039Z" style="fill:#42210b"/><path d="M56.0023,42.09156l-.30859.98438-1.18555.27148.30859-.98437Z" style="fill:#42210b"/><path d="M62.22691,37.34254l.30859-.9834,4.89844-1.123-.252.80469A12.15866,12.15866,0,0,1,62.04527,42.658l-.248-.7334a10.54414,10.54414,0,0,0,4.29688-5.46875ZM63.555,34.63062l.30859-.98437,3.918-.89844-.30859.98438Z" style="fill:#42210b"/><path d="M73.96519,33.324c.11914.02832.07813.10645-.12109.23535a14.35742,14.35742,0,0,1-4.97461,7.32715l-.39453-.57422q3.09082-2.08008,4.60352-6.91016Zm-4.77734,3.793-.03516-2.02637.84766-.56836.02148,2.07227Zm1.58789-.94434-.04883-1.98242.7832-.51074.0625,1.93555Z" style="fill:#42210b"/><path d="M75.09019,39.66773l-.36719-.66309a17.18869,17.18869,0,0,0,4.98047-7.03711l-1.80469.41309A17.60072,17.60072,0,0,1,75.55894,35.574l-.57812-.44922a19.35742,19.35742,0,0,0,3.51953-5.58105l.93164.07715c.10938.05859.05273.14063-.17187.24707q-.27246.561-.79687,1.46973l1.85547-.42578.30078-.19238.38086.61719-.1582.2041A19.88542,19.88542,0,0,1,75.09019,39.66773Z" style="fill:#42210b"/></g></g></svg>