<svg xmlns="http://www.w3.org/2000/svg" xmlns:xlink="http://www.w3.org/1999/xlink" viewBox="0 0 85.038 66.88927"><defs><linearGradient id="linear-gradient" x1="60.92155" y1="54.49024" x2="69.94182" y2="56.78603" gradientUnits="userSpaceOnUse"><stop offset="0.0034" stop-color="#f9b500"/><stop offset="0.33765" stop-color="#faae06"/><stop offset="0.81965" stop-color="#fd9b16"/><stop offset="1" stop-color="#ff921e"/></linearGradient><linearGradient id="linear-gradient-2" x1="-48.24409" y1="-359.7585" x2="21.4111" y2="-359.7585" gradientTransform="translate(-40.51287 404.03383) rotate(14.27665)" gradientUnits="userSpaceOnUse"><stop offset="0.0034" stop-color="#c38e00"/><stop offset="0.35843" stop-color="#c28705"/><stop offset="0.87034" stop-color="#bf7413"/><stop offset="1" stop-color="#be6e17"/></linearGradient><linearGradient id="linear-gradient-3" x1="-0.15147" y1="13.42031" x2="84.20493" y2="34.89019" xlink:href="#linear-gradient"/><linearGradient id="linear-gradient-4" x1="33.93469" y1="18.71801" x2="44.22207" y2="21.33629" gradientUnits="userSpaceOnUse"><stop offset="0.0034" stop-color="#ec1e79"/><stop offset="1" stop-color="#ae0663"/></linearGradient><linearGradient id="linear-gradient-5" x1="4.68339" y1="34.71303" x2="76.8867" y2="34.71303" gradientUnits="userSpaceOnUse"><stop offset="0.0034" stop-color="#d10272"/><stop offset="1" stop-color="#931668"/></linearGradient><linearGradient id="linear-gradient-6" x1="59.01707" y1="1.92028" x2="76.8867" y2="1.92028" xlink:href="#linear-gradient-5"/><linearGradient id="linear-gradient-7" x1="40.48118" y1="64.00469" x2="45.61475" y2="64.00469" gradientUnits="userSpaceOnUse"><stop offset="0" stop-color="#3fa8f4"/><stop offset="0.43052" stop-color="#2e99e5"/><stop offset="1" stop-color="#1180cb"/></linearGradient><linearGradient id="linear-gradient-8" x1="28.88474" y1="-386.42418" x2="-34.61187" y2="-361.59215" gradientTransform="translate(-40.51287 404.03383) rotate(14.27665)" gradientUnits="userSpaceOnUse"><stop offset="0.0034" stop-color="#f9d14c"/><stop offset="0.27761" stop-color="#facd45"/><stop offset="0.67289" stop-color="#fcc332"/><stop offset="1" stop-color="#ffb81d"/></linearGradient></defs><title>世彩30秒骰寶_1</title><g id="圖層_2" data-name="圖層 2"><g id="圖層_1-2" data-name="圖層 1"><path d="M70.1728,55.8785a60.24181,60.24181,0,0,0-11.0266,5.58721c2.30512-4.52146,4.61-8.9078,6.915-13.09468Q68.11723,52.012,70.1728,55.8785Z" style="fill:url(#linear-gradient)"/><path d="M4.68339,30.78906C7.2236,40.80188,9.764,50.35473,12.30426,59.53518c19.28947,7.53429,38.57907-6.41783,57.86854-3.65668q-2.05588-3.87322-4.11163-7.50747C45.602,41.95515,25.14274,51.28779,4.68339,30.78906Z" style="fill:url(#linear-gradient-2)"/><path d="M85.038,31.42437C68.10852,14.95153,32.24647,7.83084,0,12.82517c5.17286,2.46877,9.11547,5.18579,9.58177,11.958C32.22342,19.84,66.7383,32.2933,81.39351,45.93643Q83.21545,38.53162,85.038,31.42437Z" style="fill:url(#linear-gradient-3)"/><path d="M34.25015,17.47856C38.40421,15.701,42.558,13.599,46.712,11.55338c-3.09466,6.17784-6.1892,12.38692-9.28374,18.47041Q35.83893,23.7764,34.25015,17.47856Z" style="fill:url(#linear-gradient-4)"/><polygon points="4.683 2.537 19.986 53.037 42.793 53.037 48.297 66.889 56.078 53.037 71.949 53.037 76.887 7.934 4.683 2.537" style="fill:url(#linear-gradient-5)"/><path d="M74.80289,27.0641C59.406,23.37134,40.98635,31.38436,30.48813,31.8314c-7.9645.33873-15.09383-3.04212-18.4553-4.95679l2.62909,8.6293,28.0578,17.5332h.07352l.0245.11755.14439.119A76.30142,76.30142,0,0,1,61.192,48.02131a24.36335,24.36335,0,0,1,11.21487.93771Z" style="opacity:0.14"/><polygon points="59.017 3.841 76.887 3.841 71.4 0 59.017 3.841" style="fill:url(#linear-gradient-6)"/><polygon points="45.615 65.768 43.285 62.241 40.481 63.417 45.615 65.768" style="fill:url(#linear-gradient-7)"/><path d="M40.03425,22.22421q.4248,4.103-3.39062,3.89551l-8.42773-.458q-3.83643-.208-4.26172-4.31152l-.77734-7.501a3.9944,3.9944,0,0,1,.60156-3.09082,3.62519,3.62519,0,0,1,2.94043-.79688l11.94141.64941.38965,3.76074-11.209-.60937.84082,8.12109,6.76758.36816-.2168-2.09473-2.08984-.11328L32.80378,16.774l6.70313.36426Z" style="fill:#fff"/><path d="M61.0987,11.82968,59.32038,27.35214l-4.63477-.252-2.749-8.543q-.09814-.32373-.65234-2.56445l-.668-.03613q-.041,1.04-.124,2.52246l-.97949,8.33984L44.85651,26.566,39.82429,10.67343l4.418.24023L46.15339,17.775a23.01785,23.01785,0,0,1,.55371,2.45313l.69043.03711q-.00146-1.67725.07031-2.418l.71875-6.71875,4.52637.24609,2.14941,6.874q.29.95068.59668,2.45508l.668.03613q-.0293-1.31836.0498-2.41992l.50293-6.73047Z" style="fill:#fff"/><path d="M4.6701,30.833c26.789,17.25176,53.5784-16.66038,80.3679.59141Q83.21553,38.527,81.39351,45.93643C58.3636,37.75734,35.33382,63.95982,12.30426,59.53518,9.75955,50.37081,7.21469,40.8326,4.6701,30.833Z" style="fill:url(#linear-gradient-8)"/><path d="M38.82331,39.48593a.8172.8172,0,0,0,.7334.07422,2.2382,2.2382,0,0,0,.92188-.52246,2.57162,2.57162,0,0,0,.7373-1.207.794.794,0,0,0-.15723-.89844q-.252-.21826-.9502-.02441l.19824-.63379a2.90639,2.90639,0,0,0,1.1377-.57129,2.07876,2.07876,0,0,0,.623-.97461q.23291-.74414-.04883-.99219a.63152.63152,0,0,0-.57422-.07617,1.6647,1.6647,0,0,0-.71484.37207,2.903,2.903,0,0,0-.82129,1.22656l-.94531.2168a4.062,4.062,0,0,1,1.21973-1.7334,3.38487,3.38487,0,0,1,1.47168-.75293,1.37959,1.37959,0,0,1,1.23535.13281q.438.38379.16992,1.24121a2.77422,2.77422,0,0,1-.84668,1.30078,4.55232,4.55232,0,0,1-.96777.67285,1.19638,1.19638,0,0,1,.73047.21191.99488.99488,0,0,1,.20508,1.12988A3.74066,3.74066,0,0,1,41.003,39.401a3.84517,3.84517,0,0,1-1.668.86719,1.57266,1.57266,0,0,1-1.39453-.12988q-.47021-.41162-.11914-1.5293l.98828-.22656C38.60944,38.93515,38.61335,39.30429,38.82331,39.48593Z" style="fill:#42210b"/><path d="M45.65827,32.55625a3.55944,3.55944,0,0,1,1.49512-.82715,1.25557,1.25557,0,0,1,1.16992.2168q.75.65918.06152,2.85742a7.14856,7.14856,0,0,1-2.01074,3.36719,3.57409,3.57409,0,0,1-1.49707.82813,1.25373,1.25373,0,0,1-1.16895-.21777q-.75-.65625-.04883-2.89453A7.06324,7.06324,0,0,1,45.65827,32.55625Zm1.7627-.02246a.52274.52274,0,0,0-.48926-.0957,1.49011,1.49011,0,0,0-.62793.35156,6.2412,6.2412,0,0,0-1.65723,2.87012q-.63135,2.0127-.03516,2.53516a.52411.52411,0,0,0,.4873.0957,1.50882,1.50882,0,0,0,.62891-.35156,6.22874,6.22874,0,0,0,1.66895-2.90918Q48.01472,33.05527,47.421,32.53378Z" style="fill:#42210b"/><path d="M52.47175,32.44785l1.375-.31445-.22168.708-1.375.31445-.30371.96973a2.25622,2.25622,0,0,1,1.25488.57715l-.749.86328a2.50737,2.50737,0,0,0-.78613-.5459l-1.10937,3.541-.85937.19727,1.0625-3.3916A13.85755,13.85755,0,0,1,49.087,37.27207l-.44629-.48633a16.02776,16.02776,0,0,0,2.707-3.42285l-1.54687.35449.22168-.708,1.58984-.36426.38477-1.23047-1.32422.40723.02832-.59375a25.66238,25.66238,0,0,0,3.64258-1.31934l.05957.57324c.00977.13672-.09766.18555-.32422.14453-.39551.15918-.78809.30762-1.17578.44238Zm5.56055,1.2168q.16846.09961-.1875.21582A12.60042,12.60042,0,0,1,51.93561,38.107l.01855-.69629a11.38219,11.38219,0,0,0,5.43359-3.97949Zm-5.03906.42871a17.4049,17.4049,0,0,0,1.84863-2.8457l.83105.0166c.083.07422.02051.14648-.18555.2168A15.47037,15.47037,0,0,1,53.6153,34.4Zm4.54688-4.709-1.61133,5.14355a1.093,1.093,0,0,1-.876.75391l-.60059.1377.00781-.6582.4707-.1084a.27467.27467,0,0,0,.21973-.18945L56.75007,29.357l.81543-.18652C57.78718,29.14218,57.77839,29.21445,57.54011,29.38437Zm.10938,1.42773.80566-.53125a3.94778,3.94778,0,0,1,.78711,2.06836l-.957.63477A6.15366,6.15366,0,0,0,57.64948,30.81211Z" style="fill:#42210b"/><path d="M14.37116,49.31113a13.92169,13.92169,0,0,0,3.70508-1.64453l.208.61035c.03906.12891-.03027.17871-.207.15039a9.46391,9.46391,0,0,1-1.2998.71289l-.47949,1.52832,1.76172-.40332-.25586.82031-1.76172.40332a10.33793,10.33793,0,0,1-2.72266,4.36133l-.42187-.56152a8.32145,8.32145,0,0,0,2.28516-3.60254l-2.14844.49219.25781-.82031,2.14648-.49219.4209-1.3418a11.43942,11.43942,0,0,1-1.59277.50391Z" style="fill:#42210b"/><path d="M20.84479,50.28378l-.36621,3.71777-.81152.42871.44043-3.7002-1.47559.89258-.03613-.65039,1.59375-.88281.15332-1.76562.80078-.3916c.15039-.05762.14844-.01074-.00391.13965l-.22363,1.6084,2.18945-1.2627.19141.40527L21.5694,51.53769l-.42969-.28223,1.127-1.81543Z" style="fill:#42210b"/><path d="M28.80378,46.9039c.09766.02344.06445.08789-.10156.19629a11.94632,11.94632,0,0,1-4.14551,6.10449l-.3291-.47754a10.34478,10.34478,0,0,0,3.83691-5.75879ZM24.82136,50.065l-.0293-1.68848.707-.47363.01758,1.72656Zm1.3252-.78711-.042-1.65234.65234-.42578.05176,1.61426Z" style="fill:#42210b"/><path d="M29.73932,52.19l-.30566-.55273A14.31429,14.31429,0,0,0,33.58307,45.774l-1.50391.34473a14.74752,14.74752,0,0,1-1.9502,2.66113l-.48145-.375a16.1125,16.1125,0,0,0,2.93359-4.65137l.77734.06445c.09082.04883.043.11719-.14453.207-.15039.31055-.37109.71973-.66211,1.22363l1.54688-.35449.249-.16113.31738.51563-.13281.16895A16.54792,16.54792,0,0,1,29.73932,52.19Z" style="fill:#42210b"/><path d="M35.02448,49.318l.98828-.22559-.25684.82031-.98828.22559Z" style="fill:#42210b"/><path d="M50.54792,41.2623l-3.72949.959.21484-.81055,3.93262-.9707.25-.16113.42188.56055-.24219.26367a19.711,19.711,0,0,1-2.26562,2.90723l-.26953-.28516a10.17216,10.17216,0,0,1-2.82324,4.55664l-.40332-.49609a8.55012,8.55012,0,0,0,2.34277-3.78906l.52539-1.67773.86035-.19727q.24463-.02051-.05859.18652l-.291.93262A13.01715,13.01715,0,0,0,50.54792,41.2623Z" style="fill:#42210b"/><path d="M51.52155,45.53769l.98828-.22656-.25684.82031-.98828.22656Z" style="fill:#42210b"/><path d="M63.01374,40.16953l.25684-.82031,4.08105-.93555-.21.67188a10.12492,10.12492,0,0,1-4.2793,5.51367l-.207-.60937a8.78929,8.78929,0,0,0,3.58008-4.55859Zm1.10547-2.25977.25684-.81934,3.26563-.749-.25684.81934Z" style="fill:#42210b"/><path d="M72.796,36.82089c.09766.02344.06445.08887-.10156.19629a11.95317,11.95317,0,0,1-4.14551,6.10547l-.3291-.47852a10.342,10.342,0,0,0,3.83691-5.75781ZM68.81354,39.982l-.0293-1.6875.707-.47461.01758,1.72656Zm1.3252-.78711-.042-1.65234.65234-.42578.05176,1.61426Z" style="fill:#42210b"/><path d="M73.73347,42.108l-.30664-.55273A14.32381,14.32381,0,0,0,77.57624,35.691l-1.50391.34473a14.67964,14.67964,0,0,1-1.9502,2.66113l-.48047-.375a16.08791,16.08791,0,0,0,2.93164-4.65137l.77832.06543q.13623.07178-.14355.20605c-.15234.31055-.37207.71973-.66406,1.22363l1.54688-.35449.25-.16113.31738.51563-.13281.16895A16.55844,16.55844,0,0,1,73.73347,42.108Z" style="fill:#42210b"/></g></g></svg>