<svg xmlns="http://www.w3.org/2000/svg" xmlns:xlink="http://www.w3.org/1999/xlink" viewBox="0 0 85.038 66.88927"><defs><linearGradient id="linear-gradient" x1="60.92155" y1="54.49024" x2="69.94182" y2="56.78603" gradientUnits="userSpaceOnUse"><stop offset="0.0034" stop-color="#f9b500"/><stop offset="0.33765" stop-color="#faae06"/><stop offset="0.81965" stop-color="#fd9b16"/><stop offset="1" stop-color="#ff921e"/></linearGradient><linearGradient id="linear-gradient-2" x1="-34.12043" y1="-254.53518" x2="35.53476" y2="-254.53518" gradientTransform="translate(-28.25204 298.57902) rotate(14.27665)" gradientUnits="userSpaceOnUse"><stop offset="0.0034" stop-color="#c38e00"/><stop offset="0.35843" stop-color="#c28705"/><stop offset="0.87034" stop-color="#bf7413"/><stop offset="1" stop-color="#be6e17"/></linearGradient><linearGradient id="linear-gradient-3" x1="-0.15147" y1="13.42031" x2="84.20493" y2="34.89019" xlink:href="#linear-gradient"/><linearGradient id="linear-gradient-4" x1="33.93469" y1="18.71801" x2="44.22207" y2="21.33629" gradientUnits="userSpaceOnUse"><stop offset="0.0034" stop-color="#ec1e79"/><stop offset="1" stop-color="#ae0663"/></linearGradient><linearGradient id="linear-gradient-5" x1="4.68339" y1="34.71303" x2="76.8867" y2="34.71303" gradientUnits="userSpaceOnUse"><stop offset="0.0034" stop-color="#d10272"/><stop offset="1" stop-color="#931668"/></linearGradient><linearGradient id="linear-gradient-6" x1="59.01707" y1="1.92028" x2="76.8867" y2="1.92028" xlink:href="#linear-gradient-5"/><linearGradient id="linear-gradient-7" x1="40.48118" y1="64.00469" x2="45.61475" y2="64.00469" gradientUnits="userSpaceOnUse"><stop offset="0" stop-color="#3fa8f4"/><stop offset="0.43052" stop-color="#2e99e5"/><stop offset="1" stop-color="#1180cb"/></linearGradient><linearGradient id="linear-gradient-8" x1="43.0084" y1="-281.20085" x2="-20.4882" y2="-256.36882" gradientTransform="translate(-28.25204 298.57902) rotate(14.27665)" gradientUnits="userSpaceOnUse"><stop offset="0.0034" stop-color="#f9d14c"/><stop offset="0.27761" stop-color="#facd45"/><stop offset="0.67289" stop-color="#fcc332"/><stop offset="1" stop-color="#ffb81d"/></linearGradient></defs><title>安徽骰寶_1</title><g id="圖層_2" data-name="圖層 2"><g id="圖層_1-2" data-name="圖層 1"><path d="M70.1728,55.8785a60.24181,60.24181,0,0,0-11.0266,5.58721c2.30512-4.52146,4.61-8.9078,6.915-13.09468Q68.11723,52.012,70.1728,55.8785Z" style="fill:url(#linear-gradient)"/><path d="M4.68339,30.78906C7.2236,40.80188,9.764,50.35473,12.30426,59.53518c19.28947,7.53429,38.57907-6.41783,57.86854-3.65668q-2.05588-3.87322-4.11163-7.50747C45.602,41.95515,25.14274,51.28779,4.68339,30.78906Z" style="fill:url(#linear-gradient-2)"/><path d="M85.038,31.42437C68.10852,14.95153,32.24647,7.83084,0,12.82517c5.17286,2.46877,9.11547,5.18579,9.58177,11.958C32.22342,19.84,66.7383,32.2933,81.39351,45.93643Q83.21545,38.53162,85.038,31.42437Z" style="fill:url(#linear-gradient-3)"/><path d="M34.25015,17.47856C38.40421,15.701,42.558,13.599,46.712,11.55338c-3.09466,6.17784-6.1892,12.38692-9.28374,18.47041Q35.83893,23.7764,34.25015,17.47856Z" style="fill:url(#linear-gradient-4)"/><polygon points="4.683 2.537 19.986 53.037 42.793 53.037 48.297 66.889 56.078 53.037 71.949 53.037 76.887 7.934 4.683 2.537" style="fill:url(#linear-gradient-5)"/><path d="M74.80289,27.0641C59.406,23.37134,40.98635,31.38436,30.48813,31.8314c-7.9645.33873-15.09383-3.04212-18.4553-4.95679l2.62909,8.6293,28.0578,17.5332h.07352l.0245.11755.14439.119A76.30142,76.30142,0,0,1,61.192,48.02131a24.36335,24.36335,0,0,1,11.21487.93771Z" style="opacity:0.14"/><polygon points="59.017 3.841 76.887 3.841 71.4 0 59.017 3.841" style="fill:url(#linear-gradient-6)"/><polygon points="45.615 65.768 43.285 62.241 40.481 63.417 45.615 65.768" style="fill:url(#linear-gradient-7)"/><path d="M24.71794,12.38484l.28125,2.71484L22.4279,14.96l-.52148-5.0332,7.62891.41406-.249-2.40137,3.32617.34668c.00293.22852-.15332.34473-.56836.38477l.18848,1.81641,7.75391.42188.52148,5.0332L37.81071,15.796l-.28125-2.71484ZM41.42888,19.169l-3.625-.19629a.59071.59071,0,0,1-.46484.16113,9.54171,9.54171,0,0,1-1.93164,4.21484,48.26181,48.26181,0,0,1,5.7998,2.78613L39.422,28.11434a46.05523,46.05523,0,0,0-5.97363-3.04492c-2.02246,1.30273-4.78027,1.9834-8.23145,2.25293a11.92681,11.92681,0,0,0-1.5752-2.26562,19.47156,19.47156,0,0,0,6.76367-1.25293c-.80762-.31445-1.6123-.60645-2.375-.877l-.21973.50781-2.74707-.835c.5293-1.1543,1.13086-2.63867,1.7207-4.22559l-4.61523-.251L21.925,15.76277l5.68945.30957c.40625-1.14063.76953-2.28418,1.08008-3.32617l3.20117.75488c-.042.20605-.2002.30078-.59961.2793-.23437.77637-.52637,1.59082-.81543,2.44727l10.7041.582Zm-11.73633-.6377c-.29395.81543-.58594,1.62988-.88574,2.38184,1.23438.37891,2.56055.8457,3.91309,1.35547A6.50917,6.50917,0,0,0,34.49626,18.793Z" style="fill:#fff"/><path d="M47.31169,9.83211c-.06641.16309-.22949.2168-.50586.18066a17.96236,17.96236,0,0,1-3.17969,4.5,16.3788,16.3788,0,0,0-1.52539-1.78613A11.39831,11.39831,0,0,0,44.66814,8.796Zm8.29688,5.249-7.334-.39844c-.06934.14063-.22754.23633-.50488.17969a23.70374,23.70374,0,0,1-.86621,2.3623l.502.19336c-.00391.165-.16016.28223-.47168.30566l1.12207,10.83984-2.19043-.11914-.79395-7.665a14.75447,14.75447,0,0,1-.93652,1.27832,23.77508,23.77508,0,0,0-1.32031-2.43945,16.06128,16.06128,0,0,0,2.76953-6.03809l2.25.8916-.44824-4.32324,2.291.26953c-.00488.166-.12012.26367-.4502.30762l.23828,2.29785,1.05371.05664-.416-4.00977,2.418.27734c-.002.18652-.13867.2832-.45117.30762l.36621,3.5293,1.11719.06055-.28613-2.75684,2.374.25391c-.00488.166-.13867.2832-.4502.30762Zm6.74121.75977L61.465,15.793a26.33792,26.33792,0,0,1-.79883,8.26367,10.3156,10.3156,0,0,0,3.17676,3.57813,6.25208,6.25208,0,0,0-1.32422,1.77637A11.05679,11.05679,0,0,1,59.759,26.22957a8.00113,8.00113,0,0,1-2.69922,2.86426A13.76915,13.76915,0,0,0,55.70817,27.38l-.42578.14258a12.39981,12.39981,0,0,0-1.24316-2.49707l1.56152-.49609a13.12788,13.12788,0,0,1,1.12891,1.99219,7.01311,7.01311,0,0,0,1.79-2.74707,34.64385,34.64385,0,0,1-1.5293-4.65234,9.7803,9.7803,0,0,1-.68359,1.292,18.44815,18.44815,0,0,0-1.40137-2.19434,5.82746,5.82746,0,0,0,.31152-.64746L53.215,17.463l.13184.06934c-.07031.12109-.25488.17383-.5293.1377a16.992,16.992,0,0,1-1.69629,2.04688c.27441.22266.54785.4248.75586.62207a15.74813,15.74813,0,0,0,1.41113-1.958l2.18555,1.07422c-.07129.12109-.252.19434-.52734.1582a30.09313,30.09313,0,0,1-2.4668,2.69043l1.86816.03906c-.24121-.30371-.46094-.60645-.69727-.86816l1.39063-.73437a16.34319,16.34319,0,0,1,2.28613,3.05176l-1.46.876c-.10645-.21387-.25879-.4707-.41211-.72852l-1.86133.02344.50977,4.92871-2.02246-.10937-.38086-3.67578a.358.358,0,0,1-.36719.084A8.31131,8.31131,0,0,1,50.217,28.18269a10.12425,10.12425,0,0,0-1.52539-.97656,6.94431,6.94431,0,0,0,.91406-2.89941l2.082.67383-.10352-1.002-2.28418.001a.30956.30956,0,0,1-.30664.27344L48.1486,22.172c.58984.03223,1.2832.04883,2.01953.06836.21-.19629.39941-.39355.60645-.61035A24.34243,24.34243,0,0,0,48.13,19.55477l.98242-1.23437c.2002.11426.40332.25.60449.38574.31445-.41895.61816-.92187.90625-1.38379l-2.42383-.13184-.18652-1.7959,7.459.40527.084.81445A28.71825,28.71825,0,0,0,56.34,9.40926l2.73242.68848c-.02246.18652-.17871.30176-.47266.28613-.05859,1.05566-.13867,2.11035-.26172,3.1416l3.793.20605Zm-4.43164.2998A41.45682,41.45682,0,0,0,59.217,20.80086a31.41274,31.41274,0,0,0,.16113-5.12109l-1.34863-.07324Z" style="fill:#fff"/><path d="M4.6701,30.833c26.789,17.25176,53.5784-16.66038,80.3679.59141Q83.21553,38.527,81.39351,45.93643C58.3636,37.75734,35.33382,63.95982,12.30426,59.53518,9.75955,50.37081,7.21469,40.8326,4.6701,30.833Z" style="fill:url(#linear-gradient-8)"/><path d="M17.0529,45.28816a16.79929,16.79929,0,0,0,4.44727-1.97461l.249.73145q.07031.23291-.249.18164a11.33664,11.33664,0,0,1-1.56055.85547l-.57422,1.835,2.11426-.48437-.30762.9834-2.11523.48438a12.39548,12.39548,0,0,1-3.26465,5.23242l-.50684-.67187a9.9976,9.9976,0,0,0,2.74219-4.32422l-2.57813.59082.30762-.9834,2.57813-.59082L18.84,45.543a13.95342,13.95342,0,0,1-1.91211.60352Z" style="fill:#42210b"/><path d="M24.82341,46.45516l-.44043,4.46-.97461.51367.5293-4.43945-1.77051,1.07031-.043-.77832,1.91113-1.06152.18555-2.11914.959-.46777c.18164-.07031.17969-.01465-.00391.167l-.26953,1.92969,2.62793-1.51562.23145.4873-2.07422,3.25684-.51562-.33887,1.35254-2.17773Z" style="fill:#42210b"/><path d="M34.37224,42.39754c.11816.02832.07715.10645-.12207.23633A14.34913,14.34913,0,0,1,29.27653,49.96l-.39551-.57422q3.09229-2.07861,4.60449-6.91016Zm-4.77734,3.79395-.03516-2.02734.84766-.56738L30.4279,45.669Zm1.58691-.94531L31.133,43.26473l.7832-.51172.06348,1.93652Z" style="fill:#42210b"/><path d="M35.49626,48.74227l-.36719-.66406a17.17589,17.17589,0,0,0,4.98047-7.03711l-1.80469.41406A17.63451,17.63451,0,0,1,35.965,44.64852l-.57812-.44922a19.37626,19.37626,0,0,0,3.51953-5.582l.93262.07715c.10938.05859.05176.14063-.17285.248q-.27246.561-.7959,1.46875l1.85547-.4248.30078-.19336.37988.61816-.1582.20313A19.87975,19.87975,0,0,1,35.49626,48.74227Z" style="fill:#42210b"/><path d="M42.80485,45.11531l-.30859.98438-1.18555.27246.30859-.98437Z" style="fill:#42210b"/><path d="M53.86833,37.13973l-4.47559,1.15137.25586-.97266,4.7207-1.165.2998-.19336.50684.67285-.291.31543a23.701,23.701,0,0,1-2.71875,3.48926l-.32324-.3418a12.21822,12.21822,0,0,1-3.38867,5.46875l-.48242-.5957A10.27137,10.27137,0,0,0,50.78239,40.422l.63086-2.0127,1.03223-.2373q.293-.0249-.07031.22363l-.34961,1.11816A15.54956,15.54956,0,0,0,53.86833,37.13973Z" style="fill:#42210b"/><path d="M56.00212,42.0909l-.30762.98438-1.18652.27148.30859-.98437Z" style="fill:#42210b"/><path d="M62.22673,37.34187l.30859-.9834,4.89844-1.123-.252.80469a12.15343,12.15343,0,0,1-5.13574,6.61719l-.249-.73242a10.54157,10.54157,0,0,0,4.29688-5.46973ZM63.55583,34.63l.30859-.98437,3.918-.89844-.30859.98438Z" style="fill:#42210b"/><path d="M73.966,33.32332q.17725.04248-.12207.23535a14.356,14.356,0,0,1-4.97363,7.32715l-.39551-.57422q3.09082-2.07861,4.60449-6.91016Zm-4.77734,3.79395-.03516-2.02734.84766-.56738.02051,2.07129Zm1.58691-.94531-.04883-1.98242.7832-.51074.0625,1.93652Z" style="fill:#42210b"/><path d="M75.09,39.668l-.36719-.66406a17.18869,17.18869,0,0,0,4.98047-7.03711L77.8986,32.38a17.60072,17.60072,0,0,1-2.33984,3.19336l-.57812-.44824a19.37626,19.37626,0,0,0,3.51953-5.582l.93262.07715q.16406.08789-.17285.24707-.27246.5625-.7959,1.46973l1.85547-.42578.30078-.19238.37988.61816-.1582.20313A19.88625,19.88625,0,0,1,75.09,39.668Z" style="fill:#42210b"/></g></g></svg>