<svg xmlns="http://www.w3.org/2000/svg" xmlns:xlink="http://www.w3.org/1999/xlink" viewBox="0 0 85.038 66.88927"><defs><linearGradient id="linear-gradient" x1="60.92155" y1="54.49024" x2="69.94182" y2="56.78603" gradientUnits="userSpaceOnUse"><stop offset="0.0034" stop-color="#f9b500"/><stop offset="0.33765" stop-color="#faae06"/><stop offset="0.81965" stop-color="#fd9b16"/><stop offset="1" stop-color="#ff921e"/></linearGradient><linearGradient id="linear-gradient-2" x1="-41.62507" y1="-307.64638" x2="28.03012" y2="-307.64638" gradientTransform="translate(-34.07652 351.89973) rotate(14.27665)" gradientUnits="userSpaceOnUse"><stop offset="0.0034" stop-color="#c38e00"/><stop offset="0.35843" stop-color="#c28705"/><stop offset="0.87034" stop-color="#bf7413"/><stop offset="1" stop-color="#be6e17"/></linearGradient><linearGradient id="linear-gradient-3" x1="-0.15147" y1="13.42031" x2="84.20493" y2="34.89019" xlink:href="#linear-gradient"/><linearGradient id="linear-gradient-4" x1="33.93469" y1="18.71801" x2="44.22207" y2="21.33629" gradientUnits="userSpaceOnUse"><stop offset="0.0034" stop-color="#ec1e79"/><stop offset="1" stop-color="#ae0663"/></linearGradient><linearGradient id="linear-gradient-5" x1="4.68339" y1="34.71303" x2="76.8867" y2="34.71303" gradientUnits="userSpaceOnUse"><stop offset="0.0034" stop-color="#d10272"/><stop offset="1" stop-color="#931668"/></linearGradient><linearGradient id="linear-gradient-6" x1="59.01707" y1="1.92028" x2="76.8867" y2="1.92028" xlink:href="#linear-gradient-5"/><linearGradient id="linear-gradient-7" x1="40.48118" y1="64.00469" x2="45.61475" y2="64.00469" gradientUnits="userSpaceOnUse"><stop offset="0" stop-color="#3fa8f4"/><stop offset="0.43052" stop-color="#2e99e5"/><stop offset="1" stop-color="#1180cb"/></linearGradient><linearGradient id="linear-gradient-8" x1="35.50376" y1="-334.31206" x2="-27.99284" y2="-309.48003" gradientTransform="translate(-34.07652 351.89973) rotate(14.27665)" gradientUnits="userSpaceOnUse"><stop offset="0.0034" stop-color="#f9d14c"/><stop offset="0.27761" stop-color="#facd45"/><stop offset="0.67289" stop-color="#fcc332"/><stop offset="1" stop-color="#ffb81d"/></linearGradient></defs><title>北京骰寶_1</title><g id="圖層_2" data-name="圖層 2"><g id="圖層_1-2" data-name="圖層 1"><path d="M70.1728,55.8785a60.24181,60.24181,0,0,0-11.0266,5.58721c2.30512-4.52146,4.61-8.9078,6.915-13.09468Q68.11723,52.012,70.1728,55.8785Z" style="fill:url(#linear-gradient)"/><path d="M4.68339,30.78906C7.2236,40.80188,9.764,50.35473,12.30426,59.53518c19.28947,7.53429,38.57907-6.41783,57.86854-3.65668q-2.05588-3.87322-4.11163-7.50747C45.602,41.95515,25.14274,51.28779,4.68339,30.78906Z" style="fill:url(#linear-gradient-2)"/><path d="M85.038,31.42437C68.10852,14.95153,32.24647,7.83084,0,12.82517c5.17286,2.46877,9.11547,5.18579,9.58177,11.958C32.22342,19.84,66.7383,32.2933,81.39351,45.93643Q83.21545,38.53162,85.038,31.42437Z" style="fill:url(#linear-gradient-3)"/><path d="M34.25015,17.47856C38.40421,15.701,42.558,13.599,46.712,11.55338c-3.09466,6.17784-6.1892,12.38692-9.28374,18.47041Q35.83893,23.7764,34.25015,17.47856Z" style="fill:url(#linear-gradient-4)"/><polygon points="4.683 2.537 19.986 53.037 42.793 53.037 48.297 66.889 56.078 53.037 71.949 53.037 76.887 7.934 4.683 2.537" style="fill:url(#linear-gradient-5)"/><path d="M74.80289,27.0641C59.406,23.37134,40.98635,31.38436,30.48813,31.8314c-7.9645.33873-15.09383-3.04212-18.4553-4.95679l2.62909,8.6293,28.0578,17.5332h.07352l.0245.11755.14439.119A76.30142,76.30142,0,0,1,61.192,48.02131a24.36335,24.36335,0,0,1,11.21487.93771Z" style="opacity:0.14"/><polygon points="59.017 3.841 76.887 3.841 71.4 0 59.017 3.841" style="fill:url(#linear-gradient-6)"/><polygon points="45.615 65.768 43.285 62.241 40.481 63.417 45.615 65.768" style="fill:url(#linear-gradient-7)"/><path d="M26.86255,9.90335l2.46875.13379,1.9541,18.86914-2.46875-.13379-.45605-4.40625a31.29183,31.29183,0,0,1-4.24316,1.7168l-1.166-2.5791a38.10486,38.10486,0,0,0,5.13379-1.79l-.50391-4.875-5.084-.27637-.25293-2.44824,5.083.27637Zm5.04.27344,2.46875.13379.6084,5.875a22.693,22.693,0,0,0,4.16895-2.43066L41.03833,16.211a29.889,29.889,0,0,1-5.77539,2.708l.66309,6.40527c.05469.53027.20215.82227.43945.876a2.94249,2.94249,0,0,0,1.14551.2041q1.35938.07471,1.55566-.19922a1.15931,1.15931,0,0,0,.39648-.91113,5.37775,5.37775,0,0,0,.13379-1.47363L41.968,25.18655q-.21533,2.84766-1.0459,3.33008-.19629.29443-1.13281.32422a12.468,12.468,0,0,1-2.02637-.00879,9.1663,9.1663,0,0,1-2.16113-.32031q-1.83105-.30176-2.083-2.72949Z" style="fill:#fff"/><path d="M50.75025,11.2012l2.44824.13281.16895,1.63281,7.9834.43359.23828,2.30469-18.43555-1.002-.23828-2.30469,8.00391.43457Zm-2.7373,12.28516,2.34863,1.34473a9.82451,9.82451,0,0,1-1.67969,2.16016,12.18861,12.18861,0,0,1-2.42871,1.83594l-1.66406-2.03809a12.381,12.381,0,0,0,2.00879-1.55371A9.35622,9.35622,0,0,0,48.01294,23.48635Zm-2.47559-7.29492,14.21875.77246.69531,6.71191-5.92578-.32227.38672,3.7334a4.0545,4.0545,0,0,1-.19141,2.30176,2.00121,2.00121,0,0,1-1.86133.6084,10.9019,10.9019,0,0,1-2.41309-.39453l-.6543-2.36816a10.21363,10.21363,0,0,0,2.48145.459c.15137.00879.23926-.07422.26074-.249a6.34374,6.34374,0,0,0-.0459-1.03711l-.33008-3.18262-5.92578-.32129Zm2.85254,4.61816,9.46387.51367-.23437-2.26367-9.46387-.51465Zm9.98145,3.13867a40.90839,40.90839,0,0,1,4.24219,3.82031L60.842,29.62014a42.89208,42.89208,0,0,0-4.40234-4.37793Z" style="fill:#fff"/><path d="M4.6701,30.833c26.789,17.25176,53.5784-16.66038,80.3679.59141Q83.21553,38.527,81.39351,45.93643C58.3636,37.75734,35.33382,63.95982,12.30426,59.53518,9.75955,50.37081,7.21469,40.8326,4.6701,30.833Z" style="fill:url(#linear-gradient-8)"/><path d="M17.053,45.28811a16.79929,16.79929,0,0,0,4.44727-1.97461l.249.73145q.07031.23291-.249.18164a11.33665,11.33665,0,0,1-1.56055.85547l-.57422,1.835,2.11426-.48437-.30762.9834-2.11523.48438a12.39548,12.39548,0,0,1-3.26465,5.23242L15.2854,52.461a9.9976,9.9976,0,0,0,2.74219-4.32422l-2.57813.59082.30762-.9834,2.57813-.59082.50488-1.61035a13.95342,13.95342,0,0,1-1.91211.60352Z" style="fill:#42210b"/><path d="M24.82349,46.4551l-.44043,4.46-.97461.51367.5293-4.43945L22.16724,48.0596l-.043-.77832,1.91113-1.06152.18555-2.11914.959-.46777c.18164-.07031.17969-.01465-.00391.167l-.26953,1.92969,2.62793-1.51562.23145.4873L25.69165,47.958l-.51562-.33887,1.35254-2.17773Z" style="fill:#42210b"/><path d="M34.37232,42.39749c.11816.02832.07715.10645-.12207.23633A14.34913,14.34913,0,0,1,29.27661,49.96l-.39551-.57422q3.09229-2.07861,4.60449-6.91016ZM29.595,46.19143l-.03516-2.02734.84766-.56738L30.428,45.669Zm1.58691-.94531-.04883-1.98145.7832-.51172.06348,1.93652Z" style="fill:#42210b"/><path d="M35.49634,48.74221l-.36719-.66406A17.17589,17.17589,0,0,0,40.10962,41.041l-1.80469.41406a17.63451,17.63451,0,0,1-2.33984,3.19336l-.57812-.44922a19.37626,19.37626,0,0,0,3.51953-5.582l.93262.07715c.10938.05859.05176.14063-.17285.248q-.27246.561-.7959,1.46875l1.85547-.4248.30078-.19336.37988.61816-.1582.20313A19.87975,19.87975,0,0,1,35.49634,48.74221Z" style="fill:#42210b"/><path d="M42.80493,45.11526l-.30859.98438-1.18555.27246.30859-.98437Z" style="fill:#42210b"/><path d="M53.86841,37.13967,49.39282,38.291l.25586-.97266,4.7207-1.165.2998-.19336.50684.67285-.291.31543a23.701,23.701,0,0,1-2.71875,3.48926l-.32324-.3418a12.21822,12.21822,0,0,1-3.38867,5.46875l-.48242-.5957a10.27137,10.27137,0,0,0,2.81055-4.54687l.63086-2.0127,1.03223-.2373q.293-.0249-.07031.22363l-.34961,1.11816A15.54956,15.54956,0,0,0,53.86841,37.13967Z" style="fill:#42210b"/><path d="M56.0022,42.09085l-.30762.98438-1.18652.27148.30859-.98437Z" style="fill:#42210b"/><path d="M62.22681,37.34182l.30859-.9834,4.89844-1.123-.252.80469a12.15343,12.15343,0,0,1-5.13574,6.61719l-.249-.73242A10.54157,10.54157,0,0,0,66.094,36.4551Zm1.3291-2.71191.30859-.98437,3.918-.89844-.30859.98438Z" style="fill:#42210b"/><path d="M73.96607,33.32327q.17725.04248-.12207.23535a14.356,14.356,0,0,1-4.97363,7.32715l-.39551-.57422q3.09082-2.07861,4.60449-6.91016Zm-4.77734,3.79395-.03516-2.02734.84766-.56738.02051,2.07129Zm1.58691-.94531-.04883-1.98242.7832-.51074.0625,1.93652Z" style="fill:#42210b"/><path d="M75.09009,39.668l-.36719-.66406a17.18869,17.18869,0,0,0,4.98047-7.03711l-1.80469.41309a17.60072,17.60072,0,0,1-2.33984,3.19336l-.57812-.44824a19.37626,19.37626,0,0,0,3.51953-5.582l.93262.07715q.16406.08789-.17285.24707-.27246.5625-.7959,1.46973l1.85547-.42578.30078-.19238.37988.61816-.1582.20313A19.88625,19.88625,0,0,1,75.09009,39.668Z" style="fill:#42210b"/></g></g></svg>