<svg xmlns="http://www.w3.org/2000/svg" xmlns:xlink="http://www.w3.org/1999/xlink" viewBox="0 0 85.038 66.88927"><defs><linearGradient id="linear-gradient" x1="60.92155" y1="54.49024" x2="69.94182" y2="56.78603" gradientUnits="userSpaceOnUse"><stop offset="0.0034" stop-color="#f9b500"/><stop offset="0.33765" stop-color="#faae06"/><stop offset="0.81965" stop-color="#fd9b16"/><stop offset="1" stop-color="#ff921e"/></linearGradient><linearGradient id="linear-gradient-2" x1="-31.12283" y1="-228.28606" x2="38.53235" y2="-228.28606" gradientTransform="translate(-24.68398 272.40179) rotate(14.27665)" gradientUnits="userSpaceOnUse"><stop offset="0.0034" stop-color="#c38e00"/><stop offset="0.35843" stop-color="#c28705"/><stop offset="0.87034" stop-color="#bf7413"/><stop offset="1" stop-color="#be6e17"/></linearGradient><linearGradient id="linear-gradient-3" x1="-0.15147" y1="13.42031" x2="84.20493" y2="34.89019" xlink:href="#linear-gradient"/><linearGradient id="linear-gradient-4" x1="33.93469" y1="18.71801" x2="44.22207" y2="21.33629" gradientUnits="userSpaceOnUse"><stop offset="0.0034" stop-color="#ec1e79"/><stop offset="1" stop-color="#ae0663"/></linearGradient><linearGradient id="linear-gradient-5" x1="4.68339" y1="34.71303" x2="76.8867" y2="34.71303" gradientUnits="userSpaceOnUse"><stop offset="0.0034" stop-color="#d10272"/><stop offset="1" stop-color="#931668"/></linearGradient><linearGradient id="linear-gradient-6" x1="59.01707" y1="1.92028" x2="76.8867" y2="1.92028" xlink:href="#linear-gradient-5"/><linearGradient id="linear-gradient-7" x1="40.48118" y1="64.00469" x2="45.61475" y2="64.00469" gradientUnits="userSpaceOnUse"><stop offset="0" stop-color="#3fa8f4"/><stop offset="0.43052" stop-color="#2e99e5"/><stop offset="1" stop-color="#1180cb"/></linearGradient><linearGradient id="linear-gradient-8" x1="46.006" y1="-254.95174" x2="-17.49061" y2="-230.11971" gradientTransform="translate(-24.68398 272.40179) rotate(14.27665)" gradientUnits="userSpaceOnUse"><stop offset="0.0034" stop-color="#f9d14c"/><stop offset="0.27761" stop-color="#facd45"/><stop offset="0.67289" stop-color="#fcc332"/><stop offset="1" stop-color="#ffb81d"/></linearGradient></defs><title>湖北骰寶_1</title><g id="圖層_2" data-name="圖層 2"><g id="圖層_1-2" data-name="圖層 1"><path d="M70.1728,55.8785a60.24181,60.24181,0,0,0-11.0266,5.58721c2.30512-4.52146,4.61-8.9078,6.915-13.09468Q68.11723,52.012,70.1728,55.8785Z" style="fill:url(#linear-gradient)"/><path d="M4.68339,30.78906C7.2236,40.80188,9.764,50.35473,12.30426,59.53518c19.28947,7.53429,38.57907-6.41783,57.86854-3.65668q-2.05588-3.87322-4.11163-7.50747C45.602,41.95515,25.14274,51.28779,4.68339,30.78906Z" style="fill:url(#linear-gradient-2)"/><path d="M85.038,31.42437C68.10852,14.95153,32.24647,7.83084,0,12.82517c5.17286,2.46877,9.11547,5.18579,9.58177,11.958C32.22342,19.84,66.7383,32.2933,81.39351,45.93643Q83.21545,38.53162,85.038,31.42437Z" style="fill:url(#linear-gradient-3)"/><path d="M34.25015,17.47856C38.40421,15.701,42.558,13.599,46.712,11.55338c-3.09466,6.17784-6.1892,12.38692-9.28374,18.47041Q35.83893,23.7764,34.25015,17.47856Z" style="fill:url(#linear-gradient-4)"/><polygon points="4.683 2.537 19.986 53.037 42.793 53.037 48.297 66.889 56.078 53.037 71.949 53.037 76.887 7.934 4.683 2.537" style="fill:url(#linear-gradient-5)"/><path d="M74.80289,27.0641C59.406,23.37134,40.98635,31.38436,30.48813,31.8314c-7.9645.33873-15.09383-3.04212-18.4553-4.95679l2.62909,8.6293,28.0578,17.5332h.07352l.0245.11755.14439.119A76.30142,76.30142,0,0,1,61.192,48.02131a24.36335,24.36335,0,0,1,11.21487.93771Z" style="opacity:0.14"/><polygon points="59.017 3.841 76.887 3.841 71.4 0 59.017 3.841" style="fill:url(#linear-gradient-6)"/><polygon points="45.615 65.768 43.285 62.241 40.481 63.417 45.615 65.768" style="fill:url(#linear-gradient-7)"/><path d="M22.69913,13.33426a15.91363,15.91363,0,0,1,3.60449,2.02344L25.039,17.303a17.42045,17.42045,0,0,0-3.53906-2.207Zm.2627-5.55176A17.02966,17.02966,0,0,1,26.538,9.929l-1.28906,1.92383a17.16339,17.16339,0,0,0-3.50781-2.30859Zm-.00977,17.90039a54.8798,54.8798,0,0,0,2.05957-6.61621l2.18066,1.42676a58.78114,58.78114,0,0,1-1.68066,6.03516.7981.7981,0,0,1,.23535.44922.51575.51575,0,0,1-.05664.2666ZM40.12882,9.25614l1.709,16.498c.22266,2.15137-.61328,2.5625-3.459,2.4082a9.11039,9.11039,0,0,0-1.01758-2.33984c.46582.0459.93164.0918,1.28906.11133.82227.04492.90625.0498.86523-.34766L39.07706,21.347l-2.10742-.11426c-.03711,2.46875-.51172,4.97754-1.9707,6.66309a11.61648,11.61648,0,0,0-2.02832-1.377,6.06174,6.06174,0,0,0,1.00684-1.60742L30.206,24.70633l.15527,1.50391L28.21183,26.094l-.90234-8.709,2.02246.10938-.335-3.23633-2.6543-.14453-.23535-2.27637,2.6543.14453L28.34171,7.93,31.162,8.2493c-.001.18652-.1377.2832-.4873.34668l.36328,3.50879,2.42285.13184L33.6962,14.513l-2.42285-.13184.335,3.2373,2.06543.1123.64941,6.26563a17.48947,17.48947,0,0,0,.251-6.67383l-.87207-8.416Zm-8.123,13.40918-.29785-2.88184-2.02344-.10937.29785,2.88184Zm6.03516-11.32227-1.89648-.10254.2832,2.73535,1.89648.10352ZM36.787,17.44266c.05176.502.10547,1.02344.1416,1.56543l1.917.10449-.29-2.79883-1.89648-.10254Z" style="fill:#fff"/><path d="M47.90128,13.91434,47.42081,9.2786l3.24414.36328c-.001.18652-.1543.32324-.52832.36523L52.05753,28.552l-2.65527-.14355-.4502-4.34375c-1.50879.60254-2.96094,1.14648-4.03223,1.52441a.4173.4173,0,0,1-.27246.40137l-1.51172-2.86523c1.38965-.33984,3.48242-.97363,5.55273-1.6084L48.161,16.4202l-5.01465-.27246-.25977-2.50586ZM56.954,24.85184c.12109,1.16992.26563,1.34375,1.02441,1.38477l2.21289.12012c.82129.04492.8584-.80469.65625-4.17969a8.49609,8.49609,0,0,0,2.54,1.25977c.16406,4.0166-.30762,5.52734-2.68945,5.39844l-2.84375-.1543c-2.42383-.13184-3.23145-1.04785-3.53906-4.01367L52.75382,9.58817l3.2627.34375c0,.208-.1543.32422-.56836.38477l.59473,5.74316a31.50457,31.50457,0,0,0,4.0293-2.97949l2.18066,2.44434a.61617.61617,0,0,1-.53516.0752,39.27267,39.27267,0,0,1-5.40137,3.09082Z" style="fill:#fff"/><path d="M4.6701,30.833c26.789,17.25176,53.5784-16.66038,80.3679.59141Q83.21553,38.527,81.39351,45.93643C58.3636,37.75734,35.33382,63.95982,12.30426,59.53518,9.75955,50.37081,7.21469,40.8326,4.6701,30.833Z" style="fill:url(#linear-gradient-8)"/><path d="M17.05265,45.28836a16.79929,16.79929,0,0,0,4.44727-1.97461l.249.73145q.07031.23291-.249.18164a11.33664,11.33664,0,0,1-1.56055.85547l-.57422,1.835,2.11426-.48437-.30762.9834-2.11523.48438a12.39548,12.39548,0,0,1-3.26465,5.23242l-.50684-.67187A9.9976,9.9976,0,0,0,18.02726,48.137l-2.57812.59082.30762-.9834,2.57813-.59082.50488-1.61035a13.95342,13.95342,0,0,1-1.91211.60352Z" style="fill:#42210b"/><path d="M24.82316,46.45536l-.44043,4.46-.97461.51367.5293-4.43945-1.77051,1.07031-.043-.77832L24.03507,46.22l.18555-2.11914.959-.46777c.18164-.07031.17969-.01465-.00391.167l-.26953,1.92969,2.62793-1.51562.23145.4873-2.07422,3.25684-.51562-.33887,1.35254-2.17773Z" style="fill:#42210b"/><path d="M34.372,42.39774c.11816.02832.07715.10645-.12207.23633a14.34913,14.34913,0,0,1-4.97363,7.32617l-.39551-.57422q3.09229-2.07861,4.60449-6.91016Zm-4.77734,3.79395-.03516-2.02734.84766-.56738.02051,2.07227Zm1.58691-.94531-.04883-1.98145.7832-.51172.06348,1.93652Z" style="fill:#42210b"/><path d="M35.496,48.74246l-.36719-.66406a17.17589,17.17589,0,0,0,4.98047-7.03711l-1.80469.41406a17.63451,17.63451,0,0,1-2.33984,3.19336l-.57812-.44922a19.37626,19.37626,0,0,0,3.51953-5.582l.93262.07715c.10938.05859.05176.14063-.17285.248q-.27246.561-.7959,1.46875l1.85547-.4248.30078-.19336.37988.61816-.1582.20313A19.87975,19.87975,0,0,1,35.496,48.74246Z" style="fill:#42210b"/><path d="M42.8046,45.11551l-.30859.98438-1.18555.27246.30859-.98437Z" style="fill:#42210b"/><path d="M53.86808,37.13993l-4.47559,1.15137.25586-.97266,4.7207-1.165.2998-.19336.50684.67285-.291.31543a23.701,23.701,0,0,1-2.71875,3.48926l-.32324-.3418A12.21822,12.21822,0,0,1,48.454,45.56473l-.48242-.5957a10.27137,10.27137,0,0,0,2.81055-4.54687l.63086-2.0127,1.03223-.2373q.293-.0249-.07031.22363l-.34961,1.11816A15.54956,15.54956,0,0,0,53.86808,37.13993Z" style="fill:#42210b"/><path d="M56.00187,42.0911l-.30762.98438-1.18652.27148.30859-.98437Z" style="fill:#42210b"/><path d="M62.22648,37.34207l.30859-.9834,4.89844-1.123-.252.80469a12.15343,12.15343,0,0,1-5.13574,6.61719l-.249-.73242a10.54157,10.54157,0,0,0,4.29687-5.46973Zm1.3291-2.71191.30859-.98437,3.918-.89844-.30859.98438Z" style="fill:#42210b"/><path d="M73.96574,33.32352q.17725.04248-.12207.23535A14.356,14.356,0,0,1,68.87,40.886l-.39551-.57422q3.09082-2.07861,4.60449-6.91016Zm-4.77734,3.79395-.03516-2.02734.84766-.56738L70.0214,36.594Zm1.58691-.94531-.04883-1.98242.7832-.51074.0625,1.93652Z" style="fill:#42210b"/><path d="M75.08976,39.66825l-.36719-.66406A17.18869,17.18869,0,0,0,79.703,31.96707l-1.80469.41309a17.60072,17.60072,0,0,1-2.33984,3.19336l-.57812-.44824a19.37626,19.37626,0,0,0,3.51953-5.582l.93262.07715q.16406.08789-.17285.24707-.27246.5625-.7959,1.46973l1.85547-.42578L80.62,30.719l.37988.61816-.1582.20313A19.88625,19.88625,0,0,1,75.08976,39.66825Z" style="fill:#42210b"/></g></g></svg>