<svg xmlns="http://www.w3.org/2000/svg" xmlns:xlink="http://www.w3.org/1999/xlink" viewBox="0 0 85.038 66.88927"><defs><linearGradient id="linear-gradient" x1="60.92155" y1="54.49024" x2="69.94182" y2="56.78603" gradientUnits="userSpaceOnUse"><stop offset="0.0034" stop-color="#f9b500"/><stop offset="0.33765" stop-color="#faae06"/><stop offset="0.81965" stop-color="#fd9b16"/><stop offset="1" stop-color="#ff921e"/></linearGradient><linearGradient id="linear-gradient-2" x1="-37.1218" y1="-281.05212" x2="32.53339" y2="-281.05212" gradientTransform="translate(-31.88249 325.01672) rotate(14.27665)" gradientUnits="userSpaceOnUse"><stop offset="0.0034" stop-color="#c38e00"/><stop offset="0.35843" stop-color="#c28705"/><stop offset="0.87034" stop-color="#bf7413"/><stop offset="1" stop-color="#be6e17"/></linearGradient><linearGradient id="linear-gradient-3" x1="-0.15147" y1="13.42031" x2="84.20493" y2="34.89019" xlink:href="#linear-gradient"/><linearGradient id="linear-gradient-4" x1="33.93469" y1="18.71801" x2="44.22207" y2="21.33629" gradientUnits="userSpaceOnUse"><stop offset="0.0034" stop-color="#ec1e79"/><stop offset="1" stop-color="#ae0663"/></linearGradient><linearGradient id="linear-gradient-5" x1="4.68339" y1="34.71303" x2="76.8867" y2="34.71303" gradientUnits="userSpaceOnUse"><stop offset="0.0034" stop-color="#d10272"/><stop offset="1" stop-color="#931668"/></linearGradient><linearGradient id="linear-gradient-6" x1="59.01707" y1="1.92028" x2="76.8867" y2="1.92028" xlink:href="#linear-gradient-5"/><linearGradient id="linear-gradient-7" x1="40.48118" y1="64.00469" x2="45.61475" y2="64.00469" gradientUnits="userSpaceOnUse"><stop offset="0" stop-color="#3fa8f4"/><stop offset="0.43052" stop-color="#2e99e5"/><stop offset="1" stop-color="#1180cb"/></linearGradient><linearGradient id="linear-gradient-8" x1="40.00703" y1="-307.7178" x2="-23.48957" y2="-282.88577" gradientTransform="translate(-31.88249 325.01672) rotate(14.27665)" gradientUnits="userSpaceOnUse"><stop offset="0.0034" stop-color="#f9d14c"/><stop offset="0.27761" stop-color="#facd45"/><stop offset="0.67289" stop-color="#fcc332"/><stop offset="1" stop-color="#ffb81d"/></linearGradient></defs><title>江蘇骰寶_1</title><g id="圖層_2" data-name="圖層 2"><g id="圖層_1-2" data-name="圖層 1"><path d="M70.1728,55.8785a60.24181,60.24181,0,0,0-11.0266,5.58721c2.30512-4.52146,4.61-8.9078,6.915-13.09468Q68.11723,52.012,70.1728,55.8785Z" style="fill:url(#linear-gradient)"/><path d="M4.68339,30.78906C7.2236,40.80188,9.764,50.35473,12.30426,59.53518c19.28947,7.53429,38.57907-6.41783,57.86854-3.65668q-2.05588-3.87322-4.11163-7.50747C45.602,41.95515,25.14274,51.28779,4.68339,30.78906Z" style="fill:url(#linear-gradient-2)"/><path d="M85.038,31.42437C68.10852,14.95153,32.24647,7.83084,0,12.82517c5.17286,2.46877,9.11547,5.18579,9.58177,11.958C32.22342,19.84,66.7383,32.2933,81.39351,45.93643Q83.21545,38.53162,85.038,31.42437Z" style="fill:url(#linear-gradient-3)"/><path d="M34.25015,17.47856C38.40421,15.701,42.558,13.599,46.712,11.55338c-3.09466,6.17784-6.1892,12.38692-9.28374,18.47041Q35.83893,23.7764,34.25015,17.47856Z" style="fill:url(#linear-gradient-4)"/><polygon points="4.683 2.537 19.986 53.037 42.793 53.037 48.297 66.889 56.078 53.037 71.949 53.037 76.887 7.934 4.683 2.537" style="fill:url(#linear-gradient-5)"/><path d="M74.80289,27.0641C59.406,23.37134,40.98635,31.38436,30.48813,31.8314c-7.9645.33873-15.09383-3.04212-18.4553-4.95679l2.62909,8.6293,28.0578,17.5332h.07352l.0245.11755.14439.119A76.30142,76.30142,0,0,1,61.192,48.02131a24.36335,24.36335,0,0,1,11.21487.93771Z" style="opacity:0.14"/><polygon points="59.017 3.841 76.887 3.841 71.4 0 59.017 3.841" style="fill:url(#linear-gradient-6)"/><polygon points="45.615 65.768 43.285 62.241 40.481 63.417 45.615 65.768" style="fill:url(#linear-gradient-7)"/><path d="M24.00053,14.47289a18.95713,18.95713,0,0,1,3.09082,2.19727l-1.582,2.10449A20.733,20.733,0,0,0,22.354,16.16918ZM24.32671,9.928a18.57667,18.57667,0,0,1,3.123,2.29883L25.94,14.23363a23.10234,23.10234,0,0,0-3.2373-2.60937Zm1.34766,9.64648,2.55371.9502a36.94369,36.94369,0,0,1-2.14453,7.93652l-2.60547-1.44043A34.36622,34.36622,0,0,0,25.67436,19.57445Zm2.31641-8.4541,12.16016.66113.24316,2.3457-5.083-.27637L36.56987,26.008l5.51465.2998.248,2.38672L28.815,27.9602l-.248-2.38672,5.45215.29688L32.7603,13.71215l-4.52637-.24609Z" style="fill:#fff"/><path d="M42.84819,11.74535l4.54785.24707-.10156-.97949,2.36523.12891.10156.97949,4.44531.24121L54.105,11.383l2.40625.13086.10156.97949,4.6709.25391L61.51421,14.97l-4.6709-.25391.10742,1.041-2.40625-.13086-.10742-1.041L49.99174,14.344l.09277.89844-2.36523-.12891-.09277-.89844L43.07866,13.968Zm2.249,2.55566,2.19629.87012c-.0498.16016-.09473.31934-.13379.47949l3.97168.21582.20313,1.959q-.26221.43213-.49121.78418l1.749.09473.69043,6.6709a8.33582,8.33582,0,0,0,1.63672-1.77734,9.30737,9.30737,0,0,0,.88965-1.49316L53.31889,21.969l-.23535-2.26367,3.3125.17969-.14551-1.40723q-1.2085.17725-2.50684.28906l-.9834-2.18262a43.0151,43.0151,0,0,0,7.35156-1.12207l1.28027,2.09766q-1.418.32959-2.96289.61035l.18945,1.83594,3.53906.19141.23535,2.26465-2.44922-.13281a12.54627,12.54627,0,0,0,1.126,1.583,8.58271,8.58271,0,0,0,2.08008,1.918l-.9873,2.31934a13.12394,13.12394,0,0,1-2.49707-2.77246q-.30908-.42187-.582-.88379l.61719,5.957-2.22266-.12109L56.897,24.719q-.12012.21826-.22559.39355a10.64015,10.64015,0,0,1-2.26172,2.45313l-1.06543-1.59961.03125.30664-8.415-.457-.75-7.24219-.88477-.63574a10.7665,10.7665,0,0,0,1.05566-1.667A11.65681,11.65681,0,0,0,45.09721,14.301Zm-.19238,11.77441L46.9146,26.51a13.23975,13.23975,0,0,1-.374,3.30566l-2.07129-.84277A9.54352,9.54352,0,0,0,44.90483,26.07543Zm.97949-7.73535,2.40723.13086.52441-.86426-2.42871-.13184c.002.01367-.00391.02051-.01758.01953A5.61518,5.61518,0,0,1,45.88432,18.34008Zm.666,2.876,1.15137.0625-.084-.81543-1.15137-.0625Zm.2793,2.69238,1.15137.0625-.08691-.83594-1.15137-.0625Zm2.1543,2.63281a18.54036,18.54036,0,0,1,.8584,2.94629l-1.84082.4082a17.4987,17.4987,0,0,0-.87012-3.07031Zm2.09375-.12988a12.83654,12.83654,0,0,1,1.05664,2.89746l-1.8418.38574a15.24342,15.24342,0,0,0-.98633-2.99414Zm-1.50488-5.8418.084.81543,1.15137.0625-.084-.81543Zm.27637,2.67188.08691.83594,1.15137.0625-.08691-.83594Zm3.53711,3.13281a19.53153,19.53153,0,0,1,1.12793,2.98242l-1.835.46777a16.823,16.823,0,0,0-1.04687-2.99707Z" style="fill:#fff"/><path d="M4.6701,30.833c26.789,17.25176,53.5784-16.66038,80.3679.59141Q83.21553,38.527,81.39351,45.93643C58.3636,37.75734,35.33382,63.95982,12.30426,59.53518,9.75955,50.37081,7.21469,40.8326,4.6701,30.833Z" style="fill:url(#linear-gradient-8)"/><path d="M17.05229,45.28832a16.79929,16.79929,0,0,0,4.44727-1.97461l.249.73145q.07031.23291-.249.18164a11.33665,11.33665,0,0,1-1.56055.85547l-.57422,1.835,2.11426-.48437-.30762.9834-2.11523.48438A12.39548,12.39548,0,0,1,15.79155,53.133l-.50684-.67187A9.9976,9.9976,0,0,0,18.0269,48.137l-2.57812.59082.30762-.9834,2.57813-.59082.50488-1.61035a13.95342,13.95342,0,0,1-1.91211.60352Z" style="fill:#42210b"/><path d="M24.8228,46.45531l-.44043,4.46-.97461.51367.5293-4.43945-1.77051,1.07031-.043-.77832L24.03471,46.22l.18555-2.11914.959-.46777c.18164-.07031.17969-.01465-.00391.167l-.26953,1.92969,2.62793-1.51562.23145.4873L25.691,47.95824l-.51562-.33887,1.35254-2.17773Z" style="fill:#42210b"/><path d="M34.37163,42.3977c.11816.02832.07715.10645-.12207.23633a14.34913,14.34913,0,0,1-4.97363,7.32617l-.39551-.57422q3.09229-2.07861,4.60449-6.91016Zm-4.77734,3.79395-.03516-2.02734.84766-.56738.02051,2.07227Zm1.58691-.94531-.04883-1.98145.7832-.51172.06348,1.93652Z" style="fill:#42210b"/><path d="M35.49565,48.74242l-.36719-.66406a17.17589,17.17589,0,0,0,4.98047-7.03711l-1.80469.41406a17.63451,17.63451,0,0,1-2.33984,3.19336l-.57812-.44922a19.37626,19.37626,0,0,0,3.51953-5.582l.93262.07715c.10938.05859.05176.14063-.17285.248q-.27246.561-.7959,1.46875l1.85547-.4248.30078-.19336.37988.61816-.1582.20313A19.87975,19.87975,0,0,1,35.49565,48.74242Z" style="fill:#42210b"/><path d="M42.80424,45.11547l-.30859.98438-1.18555.27246.30859-.98437Z" style="fill:#42210b"/><path d="M53.86772,37.13988l-4.47559,1.15137.25586-.97266,4.7207-1.165.2998-.19336.50684.67285-.291.31543a23.701,23.701,0,0,1-2.71875,3.48926l-.32324-.3418a12.21822,12.21822,0,0,1-3.38867,5.46875l-.48242-.5957a10.27137,10.27137,0,0,0,2.81055-4.54687l.63086-2.0127,1.03223-.2373q.293-.0249-.07031.22363l-.34961,1.11816A15.54956,15.54956,0,0,0,53.86772,37.13988Z" style="fill:#42210b"/><path d="M56.00151,42.09106l-.30762.98438-1.18652.27148.30859-.98437Z" style="fill:#42210b"/><path d="M62.22612,37.342l.30859-.9834,4.89844-1.123-.252.80469a12.15343,12.15343,0,0,1-5.13574,6.61719l-.249-.73242a10.54157,10.54157,0,0,0,4.29688-5.46973Zm1.3291-2.71191.30859-.98437,3.918-.89844-.30859.98438Z" style="fill:#42210b"/><path d="M73.96538,33.32348q.17725.04248-.12207.23535A14.356,14.356,0,0,1,68.86967,40.886l-.39551-.57422q3.09082-2.07861,4.60449-6.91016ZM69.188,37.11742l-.03516-2.02734.84766-.56738L70.021,36.594Zm1.58691-.94531-.04883-1.98242.7832-.51074.0625,1.93652Z" style="fill:#42210b"/><path d="M75.0894,39.6682l-.36719-.66406A17.18869,17.18869,0,0,0,79.70268,31.967l-1.80469.41309a17.60072,17.60072,0,0,1-2.33984,3.19336L74.98,35.12524a19.37626,19.37626,0,0,0,3.51953-5.582l.93262.07715q.16406.08789-.17285.24707-.27246.5625-.7959,1.46973l1.85547-.42578.30078-.19238.37988.61816-.1582.20313A19.88625,19.88625,0,0,1,75.0894,39.6682Z" style="fill:#42210b"/></g></g></svg>