<svg xmlns="http://www.w3.org/2000/svg" xmlns:xlink="http://www.w3.org/1999/xlink" viewBox="0 0 85.038 66.88927"><defs><linearGradient id="linear-gradient" x1="60.92155" y1="54.49024" x2="69.94182" y2="56.78603" gradientUnits="userSpaceOnUse"><stop offset="0.0034" stop-color="#f9b500"/><stop offset="0.33765" stop-color="#faae06"/><stop offset="0.81965" stop-color="#fd9b16"/><stop offset="1" stop-color="#ff921e"/></linearGradient><linearGradient id="linear-gradient-2" x1="-44.87784" y1="-335.16509" x2="24.77734" y2="-335.16509" gradientTransform="translate(-37.71037 379.37024) rotate(14.27665)" gradientUnits="userSpaceOnUse"><stop offset="0.0034" stop-color="#c38e00"/><stop offset="0.35843" stop-color="#c28705"/><stop offset="0.87034" stop-color="#bf7413"/><stop offset="1" stop-color="#be6e17"/></linearGradient><linearGradient id="linear-gradient-3" x1="-0.15147" y1="13.42031" x2="84.20493" y2="34.89019" xlink:href="#linear-gradient"/><linearGradient id="linear-gradient-4" x1="33.93469" y1="18.71801" x2="44.22207" y2="21.33629" gradientUnits="userSpaceOnUse"><stop offset="0.0034" stop-color="#ec1e79"/><stop offset="1" stop-color="#ae0663"/></linearGradient><linearGradient id="linear-gradient-5" x1="4.68339" y1="34.71303" x2="76.8867" y2="34.71303" gradientUnits="userSpaceOnUse"><stop offset="0.0034" stop-color="#d10272"/><stop offset="1" stop-color="#931668"/></linearGradient><linearGradient id="linear-gradient-6" x1="59.01707" y1="1.92028" x2="76.8867" y2="1.92028" xlink:href="#linear-gradient-5"/><linearGradient id="linear-gradient-7" x1="40.48118" y1="64.00469" x2="45.61475" y2="64.00469" gradientUnits="userSpaceOnUse"><stop offset="0" stop-color="#3fa8f4"/><stop offset="0.43052" stop-color="#2e99e5"/><stop offset="1" stop-color="#1180cb"/></linearGradient><linearGradient id="linear-gradient-8" x1="32.25099" y1="-361.83076" x2="-31.24562" y2="-336.99873" gradientTransform="translate(-37.71037 379.37024) rotate(14.27665)" gradientUnits="userSpaceOnUse"><stop offset="0.0034" stop-color="#f9d14c"/><stop offset="0.27761" stop-color="#facd45"/><stop offset="0.67289" stop-color="#fcc332"/><stop offset="1" stop-color="#ffb81d"/></linearGradient></defs><title>世彩1分骰寶_1</title><g id="圖層_2" data-name="圖層 2"><g id="圖層_1-2" data-name="圖層 1"><path d="M70.1728,55.8785a60.24181,60.24181,0,0,0-11.0266,5.58721c2.30512-4.52146,4.61-8.9078,6.915-13.09468Q68.11723,52.012,70.1728,55.8785Z" style="fill:url(#linear-gradient)"/><path d="M4.68339,30.78906C7.2236,40.80188,9.764,50.35473,12.30426,59.53518c19.28947,7.53429,38.57907-6.41783,57.86854-3.65668q-2.05588-3.87322-4.11163-7.50747C45.602,41.95515,25.14274,51.28779,4.68339,30.78906Z" style="fill:url(#linear-gradient-2)"/><path d="M85.038,31.42437C68.10852,14.95153,32.24647,7.83084,0,12.82517c5.17286,2.46877,9.11547,5.18579,9.58177,11.958C32.22342,19.84,66.7383,32.2933,81.39351,45.93643Q83.21545,38.53162,85.038,31.42437Z" style="fill:url(#linear-gradient-3)"/><path d="M34.25015,17.47856C38.40421,15.701,42.558,13.599,46.712,11.55338c-3.09466,6.17784-6.1892,12.38692-9.28374,18.47041Q35.83893,23.7764,34.25015,17.47856Z" style="fill:url(#linear-gradient-4)"/><polygon points="4.683 2.537 19.986 53.037 42.793 53.037 48.297 66.889 56.078 53.037 71.949 53.037 76.887 7.934 4.683 2.537" style="fill:url(#linear-gradient-5)"/><path d="M74.80289,27.0641C59.406,23.37134,40.98635,31.38436,30.48813,31.8314c-7.9645.33873-15.09383-3.04212-18.4553-4.95679l2.62909,8.6293,28.0578,17.5332h.07352l.0245.11755.14439.119A76.30142,76.30142,0,0,1,61.192,48.02131a24.36335,24.36335,0,0,1,11.21487.93771Z" style="opacity:0.14"/><polygon points="59.017 3.841 76.887 3.841 71.4 0 59.017 3.841" style="fill:url(#linear-gradient-6)"/><polygon points="45.615 65.768 43.285 62.241 40.481 63.417 45.615 65.768" style="fill:url(#linear-gradient-7)"/><path d="M40.03368,22.224q.4248,4.103-3.39062,3.89551l-8.42773-.458q-3.83643-.208-4.26172-4.31152l-.77734-7.501a3.99186,3.99186,0,0,1,.60156-3.08984,3.61826,3.61826,0,0,1,2.94043-.79687l11.94141.64844.38965,3.76172-11.209-.60937.84082,8.12012,6.76758.36816-.2168-2.09375-2.08984-.11426-.33887-3.26953,6.70313.36426Z" style="fill:#fff"/><path d="M61.09813,11.83046,59.31981,27.35194,54.685,27.1l-2.749-8.542q-.09814-.3252-.65234-2.56445l-.668-.03613q-.041,1.03857-.124,2.52148l-.97949,8.33984-4.65625-.25293-5.03223-15.8916,4.418.24023,1.91113,6.86133a22.93206,22.93206,0,0,1,.55371,2.45215l.69043.03809q-.00146-1.67871.07031-2.41895l.71875-6.71875,4.52637.24609,2.14941,6.875q.29.95068.59668,2.4541l.668.03613q-.0293-1.31836.0498-2.41895l.50293-6.73047Z" style="fill:#fff"/><path d="M4.6701,30.833c26.789,17.25176,53.5784-16.66038,80.3679.59141Q83.21553,38.527,81.39351,45.93643C58.3636,37.75734,35.33382,63.95982,12.30426,59.53518,9.75955,50.37081,7.21469,40.8326,4.6701,30.833Z" style="fill:url(#linear-gradient-8)"/><path d="M41.7827,39.70741l.91113-2.9082.89844-2.87012-1.28906.29492.14063-.44727a2.94685,2.94685,0,0,0,2.08789-1.44727l.51563-.11816L42.771,39.48085Z" style="fill:#42210b"/><path d="M54.55321,33.181,53.437,36.24062a2.56749,2.56749,0,0,1-1.73633,1.85059l-1.28906.2959.127-.791,1.0752-.24609a1.11393,1.11393,0,0,0,.7998-.77148l.92969-2.46289-2.3623.542-.13672.30859q-.94189,2.11963-4.57324,4.543l-.42187-.56055q3.22412-2.01855,4.00391-3.61719l.22559-.4668-1.63281.374.22266-.708Zm-7.36035,2.24121-.46582-.55078a17.9342,17.9342,0,0,0,4.35059-4.21484l.67676.26074c.14063.05957.09277.12891-.14453.20508A22.91351,22.91351,0,0,1,47.19285,35.42226Zm8.63477-1.97852a3.30352,3.30352,0,0,1-2.25293-3.11719l.9082-.48535a2.89934,2.89934,0,0,0,2.23438,2.6709Z" style="fill:#42210b"/><path d="M14.37059,49.31093a13.92169,13.92169,0,0,0,3.70508-1.64453l.208.61035c.03906.12891-.03027.17871-.207.15039a9.46391,9.46391,0,0,1-1.2998.71289l-.47949,1.52832,1.76172-.40332-.25586.82031-1.76172.40332A10.33793,10.33793,0,0,1,13.31883,55.85l-.42187-.56152a8.32145,8.32145,0,0,0,2.28516-3.60254l-2.14844.49219.25781-.82031,2.14648-.49219.4209-1.3418a11.43942,11.43942,0,0,1-1.59277.50391Z" style="fill:#42210b"/><path d="M20.84422,50.28359,20.478,54.00136l-.81152.42871.44043-3.7002-1.47559.89258-.03613-.65039,1.59375-.88281.15332-1.76562.80078-.3916c.15039-.05762.14844-.01074-.00391.13965l-.22363,1.6084,2.18945-1.2627.19141.40527-1.72754,2.71484-.42969-.28223,1.127-1.81543Z" style="fill:#42210b"/><path d="M28.80321,46.9037c.09766.02344.06445.08789-.10156.19629a11.94632,11.94632,0,0,1-4.14551,6.10449l-.3291-.47754a10.34478,10.34478,0,0,0,3.83691-5.75879Zm-3.98242,3.16113-.0293-1.68848.707-.47363.01758,1.72656Zm1.3252-.78711-.042-1.65234.65234-.42578.05176,1.61426Z" style="fill:#42210b"/><path d="M29.73875,52.18984l-.30566-.55273a14.31429,14.31429,0,0,0,4.14941-5.86328l-1.50391.34473a14.74752,14.74752,0,0,1-1.9502,2.66113l-.48145-.375a16.1125,16.1125,0,0,0,2.93359-4.65137l.77734.06445c.09082.04883.043.11719-.14453.207-.15039.31055-.37109.71973-.66211,1.22363l1.54688-.35449.249-.16113.31738.51563-.13281.16895A16.54792,16.54792,0,0,1,29.73875,52.18984Z" style="fill:#42210b"/><path d="M35.02391,49.31776l.98828-.22559-.25684.82031-.98828.22559Z" style="fill:#42210b"/><path d="M50.54735,41.2621l-3.72949.959.21484-.81055,3.93262-.9707.25-.16113.42188.56055-.24219.26367a19.711,19.711,0,0,1-2.26562,2.90723l-.26953-.28516a10.17216,10.17216,0,0,1-2.82324,4.55664l-.40332-.49609a8.55012,8.55012,0,0,0,2.34277-3.78906l.52539-1.67773.86035-.19727q.24463-.02051-.05859.18652l-.291.93262A13.01715,13.01715,0,0,0,50.54735,41.2621Z" style="fill:#42210b"/><path d="M51.521,45.53749l.98828-.22656-.25684.82031-.98828.22656Z" style="fill:#42210b"/><path d="M63.01317,40.16933,63.27,39.349l4.08105-.93555-.21.67188A10.12492,10.12492,0,0,1,62.8618,44.599l-.207-.60937A8.78929,8.78929,0,0,0,66.23485,39.431Zm1.10547-2.25977.25684-.81934,3.26563-.749-.25684.81934Z" style="fill:#42210b"/><path d="M72.79539,36.82069c.09766.02344.06445.08887-.10156.19629a11.95317,11.95317,0,0,1-4.14551,6.10547l-.3291-.47852a10.342,10.342,0,0,0,3.83691-5.75781ZM68.813,39.98183l-.0293-1.6875.707-.47461.01758,1.72656Zm1.3252-.78711-.042-1.65234.65234-.42578.05176,1.61426Z" style="fill:#42210b"/><path d="M73.73289,42.1078l-.30664-.55273a14.32381,14.32381,0,0,0,4.14941-5.86426l-1.50391.34473a14.67964,14.67964,0,0,1-1.9502,2.66113l-.48047-.375a16.08791,16.08791,0,0,0,2.93164-4.65137l.77832.06543q.13623.07178-.14355.20605c-.15234.31055-.37207.71973-.66406,1.22363l1.54688-.35449.25-.16113.31738.51563-.13281.16895A16.55844,16.55844,0,0,1,73.73289,42.1078Z" style="fill:#42210b"/></g></g></svg>