<svg xmlns="http://www.w3.org/2000/svg" xmlns:xlink="http://www.w3.org/1999/xlink" viewBox="0 0 147.791 116.24958"><defs><linearGradient id="linear-gradient" x1="105.87805" y1="94.70081" x2="121.55473" y2="98.69075" gradientUnits="userSpaceOnUse"><stop offset="0.0034" stop-color="#f9b500"/><stop offset="0.33765" stop-color="#faae06"/><stop offset="0.81965" stop-color="#fd9b16"/><stop offset="1" stop-color="#ff921e"/></linearGradient><linearGradient id="linear-gradient-2" x1="309.13897" y1="-18.00717" x2="430.19556" y2="-18.00717" gradientTransform="translate(-301.50674 16.8086) rotate(14.27665)" gradientUnits="userSpaceOnUse"><stop offset="0.0034" stop-color="#c38e00"/><stop offset="0.35843" stop-color="#c28705"/><stop offset="0.87034" stop-color="#bf7413"/><stop offset="1" stop-color="#be6e17"/></linearGradient><linearGradient id="linear-gradient-3" x1="-0.26325" y1="23.32371" x2="146.34317" y2="60.63709" xlink:href="#linear-gradient"/><linearGradient id="linear-gradient-4" x1="58.97648" y1="32.53079" x2="76.85533" y2="37.08121" gradientUnits="userSpaceOnUse"><stop offset="0.0034" stop-color="#ec1e79"/><stop offset="1" stop-color="#ae0663"/></linearGradient><linearGradient id="linear-gradient-5" x1="8.13945" y1="60.32919" x2="133.62453" y2="60.32919" gradientUnits="userSpaceOnUse"><stop offset="0.0034" stop-color="#d10272"/><stop offset="1" stop-color="#931668"/></linearGradient><linearGradient id="linear-gradient-6" x1="102.56816" y1="3.33733" x2="133.62453" y2="3.33733" xlink:href="#linear-gradient-5"/><linearGradient id="linear-gradient-7" x1="70.35388" y1="111.23635" x2="79.27573" y2="111.23635" gradientUnits="userSpaceOnUse"><stop offset="0" stop-color="#3fa8f4"/><stop offset="0.43052" stop-color="#2e99e5"/><stop offset="1" stop-color="#1180cb"/></linearGradient><linearGradient id="linear-gradient-8" x1="443.18431" y1="-64.35054" x2="332.83097" y2="-21.19395" gradientTransform="translate(-301.50674 16.8086) rotate(14.27665)" gradientUnits="userSpaceOnUse"><stop offset="0.0034" stop-color="#f9d14c"/><stop offset="0.27761" stop-color="#facd45"/><stop offset="0.67289" stop-color="#fcc332"/><stop offset="1" stop-color="#ffb81d"/></linearGradient></defs><title>亞洲30秒快3-中</title><g id="圖層_2" data-name="圖層 2"><g id="圖層_1-2" data-name="圖層 1"><path d="M121.95616,97.11352a104.69669,104.69669,0,0,0-19.16357,9.71023c4.00616-7.858,8.01189-15.48123,12.0178-22.75777Q118.38371,90.39377,121.95616,97.11352Z" style="fill:url(#linear-gradient)"/><path d="M8.13945,53.50955c4.41474,17.40169,8.82988,34.004,13.24462,49.95906,33.524,13.09415,67.04813-11.15381,100.57209-6.35509q-3.573-6.73142-7.14578-13.04754C79.25351,72.91556,43.69659,89.13513,8.13945,53.50955Z" style="fill:url(#linear-gradient-2)"/><path d="M147.791,54.61368C118.36856,25.98488,56.04245,13.60954,0,22.28938,8.99012,26.58,15.84215,31.302,16.65254,43.07161c39.34985-8.59082,99.33467,13.05222,124.80455,36.76318Q144.62352,66.96567,147.791,54.61368Z" style="fill:url(#linear-gradient-3)"/><path d="M59.52472,30.37671c7.21951-3.08935,14.43859-6.74245,21.65789-10.29763C75.80427,30.8158,70.42615,41.60681,65.048,52.17956Q62.28594,41.322,59.52472,30.37671Z" style="fill:url(#linear-gradient-4)"/><polygon points="8.139 4.409 34.734 92.175 74.372 92.175 83.937 116.25 97.46 92.175 125.043 92.175 133.625 13.788 8.139 4.409" style="fill:url(#linear-gradient-5)"/><path d="M130.003,47.0358c-26.75881-6.4178-58.77114,7.50835-77.01643,8.28528-13.84182.5887-26.23218-5.287-32.07422-8.61461l4.56921,14.99721L74.24434,92.17536h.12777l.04258.20429.25095.20685A132.60734,132.60734,0,0,1,106.348,83.45819c8.84069-1.32574,14.19507.23693,19.49077,1.62968Z" style="opacity:0.14"/><polygon points="102.568 6.675 133.625 6.675 124.09 0 102.568 6.675" style="fill:url(#linear-gradient-6)"/><polygon points="79.276 114.301 75.227 108.172 70.354 110.215 79.276 114.301" style="fill:url(#linear-gradient-7)"/><path d="M64.38749,20.897l5.04688.41113q-.41895,1.66113-1.09961,4.85156Q67.17166,31.71,66.073,36.56107q-.71484,5.30713-6.416,4.27539l-.27539,3.36426,9.67383.78906-.11328,1.40332L35.57108,43.6724l.11523-1.40332,9.81445.7998.27344-3.36426q-6.36621.189-6.06055-5.29395-.32227-2.98975-.65039-11.06152-.17871-2.97949-.19531-4.5332l5.04883.41113q.06445,18.21387,1.92773,19.63672l1.82813-22.43457L38.7,15.69779l.11328-1.40137,31.127,2.53809-.11328,1.40137-8.27148-.6748L59.79374,39.15385Q61.38749,36.88627,64.38749,20.897Zm-11.38672-4.0332L50.82889,43.50345l3.22461.2627L56.22733,17.1265Z" style="fill:#fff"/><path d="M79.73124,48.40092l-4.48633-.36523q.72949-3.75293,1.48047-7.7832.50391-6.16992,7.04883-5.07129a8.19989,8.19989,0,0,0-2.53711,5.15625,34.63743,34.63743,0,0,0-.76562,4.17285Q79.99686,46.87015,79.73124,48.40092ZM77.00272,24.74857l4.627.377a30.55819,30.55819,0,0,0,.32422,4.68457,6.56542,6.56542,0,0,0,1.92383,4.10938q-6.47754-.24463-6.46875-3.77441A30.79242,30.79242,0,0,1,77.00272,24.74857Zm1.16406-9.0791,4.627.37793a40.96762,40.96762,0,0,0,.17188,4.8125,5.02852,5.02852,0,0,0,1.79492,3.957q-6.09961.34863-6.28125-4.32227a12.053,12.053,0,0,1-.20508-2.69824C78.23319,17.13529,78.19608,16.42631,78.16678,15.66947Zm5.92383,20.80762L85.2117,22.73588l2.10352.17188L86.21756,36.36869q-.2168,4.35791-3.9668,3.62891Q83.73026,39.13187,84.09061,36.47709Zm2.93945,3.76855L88.97342,16.4097l4.06641.33105-.65234,7.99219,2.24414.18262.29883,10.1875a7.3987,7.3987,0,0,0,.27148,1.85645l1.56641-19.209,4.627.37793-.59375,7.291,2.10352.1709.29883,10.1875a3.501,3.501,0,0,0,.26953,1.85645l1.63477-20.0498,4.9082.40039-2.709,33.23047-4.9082-.40039.9375-11.498q-2.81543-.08643-2.49414-4.01367l-.31445-6.51855L98.84647,49.396l-4.627-.37793.8457-10.376q-2.53711-.063-2.49609-4.01367l-.30664-8.35352L91.08475,40.71732q-.542,10.11914-8.0332,8.51953Q86.2244,46.669,87.03006,40.24564Z" style="fill:#fff"/><path d="M8.11636,53.58585C54.6741,83.56839,101.23244,24.6311,147.791,54.61368q-3.16735,12.34394-6.33391,25.2211c-40.02461-14.21477-80.049,31.3236-120.073,23.63383C16.96152,87.54148,12.5387,70.96463,8.11636,53.58585Z" style="fill:url(#linear-gradient-8)"/><path d="M41.94608,84.77787a5.589,5.589,0,0,0,3.69531.26563,3.73667,3.73667,0,0,0,2.19922-1.373,2.55317,2.55317,0,0,0,.35742-2.2207q-.73242-2.77588-4.709-1.72656l-1.2168.32227-.4043-1.5293,1.16211-.30762q3.52148-.93018,2.832-3.53613-.63574-2.40674-3.32617-1.69727a4.85325,4.85325,0,0,0-2.623,1.80469L39.45,73.03373a6.79562,6.79562,0,0,1,3.13281-1.7168,4.586,4.586,0,0,1,3.25977.18457,3.29591,3.29591,0,0,1,1.80273,2.23535,3.67752,3.67752,0,0,1-1.95117,4.46484l.00977.03809a4.08809,4.08809,0,0,1,2.80273.45605,3.3743,3.3743,0,0,1,1.54492,2.12207,4.10983,4.10983,0,0,1-.58008,3.55762,5.83982,5.83982,0,0,1-3.46289,2.207,6.61142,6.61142,0,0,1-3.55664.11133Z" style="fill:#42210b"/><path d="M52.55155,77.0767a11.2544,11.2544,0,0,1-.26367-6.19727,4.3108,4.3108,0,0,1,3.19531-2.9707q4.64648-1.22607,6.627,6.27051a10.54844,10.54844,0,0,1,.18555,6.00586,4.30567,4.30567,0,0,1-3.15039,2.92773,4.03184,4.03184,0,0,1-3.94141-.94922A10.20742,10.20742,0,0,1,52.55155,77.0767Zm1.86719-.584q1.53809,5.82568,4.49219,5.0459,2.90918-.76758,1.3457-6.68848-1.62012-6.12891-4.4707-5.375Q52.7742,70.272,54.41874,76.49271Z" style="fill:#42210b"/><path d="M65.26639,78.315A22.643,22.643,0,0,0,66.368,71.05326l-2.61523.69141-.33984-1.28418,2.98438-.78809-.77539-2.93555q-1.1543.48633-2.39063.96484a11.43663,11.43663,0,0,0-.74219-1.19922,50.13046,50.13046,0,0,0,6.35547-2.78906l.76367,1.21191q-1.2627.6167-2.64258,1.23438l.83008,3.14355,2.64258-.69824.33984,1.28418-2.64453.69824.70508,2.66309.6543-.96094q.958.57568,2.86328,1.89063l-.88867,1.22363q-1.57617-1.18945-2.55664-1.87988l2.32031,8.79-1.39648.36914-2.39258-9.05469a18.76532,18.76532,0,0,1-1.09961,6.15918Q65.82694,79.05668,65.26639,78.315ZM71.741,65.73588l1.51563.00391q.03809,3.4248-.21484,6.98633A11.91192,11.91192,0,0,0,71.448,72.5806,42.87352,42.87352,0,0,0,71.741,65.73588ZM71.97928,80.48q7.21289-3.74268,8.95313-10.76855l1.52734.50586a18.30721,18.30721,0,0,1-9.32812,11.41309A15.43166,15.43166,0,0,0,71.97928,80.48ZM73.8035,61.91849l1.47266-.38867L78.4285,73.46439l-1.47266.38965Zm3.70313,2.69922,1.123-.94434q2.07422,1.957,4.03125,4.168L81.491,68.91849A50.98252,50.98252,0,0,0,77.50663,64.61771Z" style="fill:#42210b"/><path d="M84.18045,63.86478l1.31445-.14551q.31934,2.35986.44531,5.05273c-.375.00684-.82422.0166-1.34375.0332Q84.53495,66.74125,84.18045,63.86478Zm.68359-4.82715,1.416-.375,1.09766,4.15625.60742-.68652a29.62637,29.62637,0,0,1,2.832,2.08008l-.91406,1.12988A28.35692,28.35692,0,0,0,87.532,63.40287l3.627,13.72852-1.416.375Zm5.2168,8.58105,5.02344-1.32715q-.26367-1.60693-1.02539-4.71875l-3.94727,1.043-.35352-1.3418L93.743,60.22709q-.39258-1.49121-.873-3.30469l1.49219-.39453q.47461,1.7959.85352,3.31055L99.823,58.62064l1.58789,6.00488,1.84961-.48828.35352,1.34082-6.11719,1.61621a11.08888,11.08888,0,0,0,7.68555,4.69727,15.25423,15.25423,0,0,0-.88281,1.78711,12.60021,12.60021,0,0,1-7.61719-5.35937,12.38516,12.38516,0,0,1-3.67187,8.50391,12.88666,12.88666,0,0,0-1.44922-.9707q3.82324-3.87891,3.707-8.07031l-4.834,1.27734Zm8.625-7.26758-3.1543.833q.75586,3.01172,1.0625,4.709l3.32422-.87793Z" style="fill:#42210b"/><path d="M107.16678,67.55033a5.58919,5.58919,0,0,0,3.69531.2666,3.74232,3.74232,0,0,0,2.19922-1.374,2.55262,2.55262,0,0,0,.35742-2.2207q-.73242-2.77588-4.709-1.72559l-1.21875.32129-.40234-1.5293,1.16016-.30664q3.52441-.93018,2.834-3.53711-.63574-2.40674-3.32617-1.69629a4.85413,4.85413,0,0,0-2.625,1.80371l-.46094-1.74609a6.76886,6.76886,0,0,1,3.13086-1.71582,4.59167,4.59167,0,0,1,3.26172.18359,3.30272,3.30272,0,0,1,1.80273,2.23633,3.678,3.678,0,0,1-1.95117,4.46484l.00977.03711a4.08273,4.08273,0,0,1,2.80273.457,3.37217,3.37217,0,0,1,1.543,2.12109,4.10874,4.10874,0,0,1-.58008,3.55762,5.8254,5.8254,0,0,1-3.46094,2.208,6.61986,6.61986,0,0,1-3.55664.11035Z" style="fill:#42210b"/></g></g></svg>