<svg xmlns="http://www.w3.org/2000/svg" xmlns:xlink="http://www.w3.org/1999/xlink" viewBox="0 0 147.79 116.25"><defs><linearGradient id="linear-gradient" x1="105.88" y1="94.7" x2="121.55" y2="98.69" gradientUnits="userSpaceOnUse"><stop offset="0" stop-color="#f9b500"/><stop offset="0.34" stop-color="#faae06"/><stop offset="0.82" stop-color="#fd9b16"/><stop offset="1" stop-color="#ff921e"/></linearGradient><linearGradient id="linear-gradient-2" x1="620.47" y1="-1329.57" x2="741.53" y2="-1329.57" gradientTransform="translate(-926.65 1211.07) rotate(14.28)" gradientUnits="userSpaceOnUse"><stop offset="0" stop-color="#c38e00"/><stop offset="0.36" stop-color="#c28705"/><stop offset="0.87" stop-color="#bf7413"/><stop offset="1" stop-color="#be6e17"/></linearGradient><linearGradient id="linear-gradient-3" x1="-0.26" y1="23.32" x2="146.34" y2="60.64" xlink:href="#linear-gradient"/><linearGradient id="linear-gradient-4" x1="58.98" y1="32.53" x2="76.86" y2="37.08" gradientUnits="userSpaceOnUse"><stop offset="0" stop-color="#ec1e79"/><stop offset="1" stop-color="#ae0663"/></linearGradient><linearGradient id="linear-gradient-5" x1="8.14" y1="60.33" x2="133.62" y2="60.33" gradientUnits="userSpaceOnUse"><stop offset="0" stop-color="#d10272"/><stop offset="1" stop-color="#931668"/></linearGradient><linearGradient id="linear-gradient-6" x1="102.57" y1="3.34" x2="133.62" y2="3.34" xlink:href="#linear-gradient-5"/><linearGradient id="linear-gradient-7" x1="70.35" y1="111.24" x2="79.28" y2="111.24" gradientUnits="userSpaceOnUse"><stop offset="0" stop-color="#3fa8f4"/><stop offset="0.43" stop-color="#2e99e5"/><stop offset="1" stop-color="#1180cb"/></linearGradient><linearGradient id="linear-gradient-8" x1="754.52" y1="-1375.91" x2="644.16" y2="-1332.76" gradientTransform="translate(-926.65 1211.07) rotate(14.28)" gradientUnits="userSpaceOnUse"><stop offset="0" stop-color="#f9d14c"/><stop offset="0.28" stop-color="#facd45"/><stop offset="0.67" stop-color="#fcc332"/><stop offset="1" stop-color="#ffb81d"/></linearGradient></defs><title>安徽快3</title><g id="圖層_2" data-name="圖層 2"><g id="圖層_1-2" data-name="圖層 1"><path d="M122,97.11a104.7,104.7,0,0,0-19.16,9.71c4-7.86,8-15.48,12-22.76Q118.38,90.39,122,97.11Z" style="fill:url(#linear-gradient)"/><path d="M8.14,53.51c4.41,17.4,8.83,34,13.24,50,33.52,13.09,67-11.15,100.57-6.36q-3.57-6.73-7.15-13C79.25,72.92,43.7,89.14,8.14,53.51Z" style="fill:url(#linear-gradient-2)"/><path d="M147.79,54.61C118.37,26,56,13.61,0,22.29c9,4.29,15.84,9,16.65,20.78C56,34.48,116,56.12,141.46,79.83Q144.62,67,147.79,54.61Z" style="fill:url(#linear-gradient-3)"/><path d="M59.52,30.38c7.22-3.09,14.44-6.74,21.66-10.3C75.8,30.82,70.43,41.61,65,52.18Q62.29,41.32,59.52,30.38Z" style="fill:url(#linear-gradient-4)"/><polygon points="8.14 4.41 34.73 92.17 74.37 92.17 83.94 116.25 97.46 92.17 125.04 92.17 133.63 13.79 8.14 4.41" style="fill:url(#linear-gradient-5)"/><path d="M130,47c-26.76-6.42-58.77,7.51-77,8.29-13.84.59-26.23-5.29-32.07-8.61l4.57,15L74.24,92.18h.13l0,.2.25.21a132.61,132.61,0,0,1,31.68-9.13c8.84-1.33,14.2.24,19.49,1.63Z" style="opacity:0.14"/><polygon points="102.57 6.67 133.63 6.67 124.09 0 102.57 6.67" style="fill:url(#linear-gradient-6)"/><polygon points="79.28 114.3 75.23 108.17 70.35 110.22 79.28 114.3" style="fill:url(#linear-gradient-7)"/><path d="M41,31.27l.4-4.91L36.59,26l.12-1.4,4.77.39.22-2.66L38.46,22,39,15.72l5.89.48-.21,2.52q1-2.17,5.24-2l1.26.1.32-3.93,6.73.55L57.9,17.4l5.89.48q6.46.39,5.92,3.59l-.14,1.68a2.16,2.16,0,0,1-1.13,1.74l-2.66-.22-.18,2.24,4.77.39-.12,1.4-4.77-.39-.4,4.91q.26,2-7.86,6.42,7.45,5.55,11.47,8.13Q62,47.23,60,46.93a9.12,9.12,0,0,1-3.68-1.57,21.07,21.07,0,0,0-4.13-3,21,21,0,0,0-4.56,2.31,11.46,11.46,0,0,1-4,.94q-2,0-8.57-.56,3.81-1.67,12.64-6.17Q40.12,32.89,41,31.27Zm3.62-11.56-.14,1.68,2.94.24-.31,3.79L60,26.47l.31-3.79,2.95.24c-.09-.1,0-.33.2-.69l.11-1.4q.13-1.54-3.1-1.8l-10.24-.83Q46,17.85,44.58,19.71Zm15,11.67.29-3.5L47,26.82l-.29,3.5q-.21.83,6,5.71Q59.51,32.22,59.58,31.37Z" style="fill:#fff"/><path d="M81.66,49l-4.77-.39L78,35a5.11,5.11,0,0,1-2.38-.19Q78.1,32,80.11,24.72l4.63.38a48.69,48.69,0,0,0-1.53,5Zm.06-33.59,4.91.4q-.5.95-1.19,2.44-.89,2.19-1.25,3.14-1.9,4.22-7.72,2.9Q78.73,22.63,81.72,15.4ZM99.1,28.95l4.07.33a35.13,35.13,0,0,0,.64,4.29,36.89,36.89,0,0,1,1.5-4.54c.37-1.1.67-1.92.91-2.47l4.07.33q-.91,2.47-2.54,7-1.79,4.65-2.55,7l.8,4A29.42,29.42,0,0,0,108,51q-4.8,0-5.34-3.68-1.28,3.56-6.44,2.86a14.18,14.18,0,0,0,1.91-2.67q-2.84.19-2.82-1.78A10.69,10.69,0,0,1,95,43a8.4,8.4,0,0,1,0-1.27l2.8.23a15.21,15.21,0,0,0,.72,5A5.89,5.89,0,0,1,99,46.3a1.43,1.43,0,0,1,.33-.54q.37-1.1,1.28-3.57a14.6,14.6,0,0,1,.71-1.78q-.83-3.6-1.48-7.74l-6.16,2.88,3.23.26q.23.59,1.45,2.94a8.38,8.38,0,0,0,1.63,2.53q-4.78-.25-5.48-2a.41.41,0,0,0-.12-.29,2.21,2.21,0,0,1-.59.37l-.56,6.87q-.18,3.94-3.39,3.53a5.17,5.17,0,0,1-4.41-3q-.33.53-3.13.31.91-.77,2.48-6.15l2.94.24a11,11,0,0,0-.56,1.65q-.74,2.2-1.09,3c0,.09-.11.23-.31.4l0,.28.27.16a7.47,7.47,0,0,0,1.51.55q1.12.09,1.29-2l.41-5a5.84,5.84,0,0,1-1.41,0,8.35,8.35,0,0,1-1.27,0q-2-.16-2.42-1.47a2.79,2.79,0,0,1,1.34-2.57,8.46,8.46,0,0,1,1.32-.6q.73-.36,1.77-1a3.43,3.43,0,0,1-1.69,0q-2,0-2.46-1-.33-1.15,1.18-2.3a42.21,42.21,0,0,1,3.73-2.52l-4.35-.35.1-1.26,12.9,1.05-.1,1.26-2.24-.18q-1.33.74-2.37,1.36a14.89,14.89,0,0,0-2.07,1.1q-1.05.76-1.08,1.18c.08.2.45.27,1.11.23l.7.06a1.1,1.1,0,0,0,.43-.11l1.34-.88,6.17.5q-.11-.43-.31-1.44A9.78,9.78,0,0,1,99.1,28.95ZM88.64,25.7l-3.22-.26L86,18.15l3.22.26Zm7.44.46-5-.41q-2.82-.09-2.1-3.7.12,2,1.23,2.22l.66-8.13,4.21.34-.65,8q1.55,0,1.71-2l.29-3.5,3.08.25-.35,4.35Q99,26.69,96.08,26.16Zm-6.27,12.9,1.12.09a15.72,15.72,0,0,0,3.41-.29,3.16,3.16,0,0,1-.49-.89A8.83,8.83,0,0,1,93,35.8q-2.2,1.09-3.09,1.58c-.6.42-.91.82-.94,1.19S89.25,39,89.81,39.06Zm12.5-21.7,4.63.38q-.63,2.49-1.39,5l4.91.4-.1,1.26-5.19-.42c-.25.73-.44,1.33-.57,1.79q-.52,2.92-5.94,1.92a10.68,10.68,0,0,0,1.7-3.53,5.93,5.93,0,0,1,.41-1.52Q101.51,20.11,102.31,17.36Z" style="fill:#fff"/><path d="M8.12,53.59c46.56,30,93.12-29,139.67,1Q144.62,67,141.46,79.83c-40-14.21-80,31.32-120.07,23.63C17,87.54,12.54,71,8.12,53.59Z" style="fill:url(#linear-gradient-8)"/><path d="M58.34,71.33l1.45-.16q.35,2.6.49,5.56l-1.48,0Q58.73,74.49,58.34,71.33ZM59.09,66l1.56-.41,1.21,4.57.67-.75a32.61,32.61,0,0,1,3.12,2.29l-1,1.24A31.17,31.17,0,0,0,62,70.82l4,15.1-1.56.41Zm5.74,9.44L70.35,74q-.29-1.77-1.13-5.19L64.89,70l-.39-1.47,4.36-1.15-1-3.64,1.64-.43q.52,2,.94,3.64l5.07-1.34,1.74,6.61,2-.54.39,1.47L73,74.88A12.2,12.2,0,0,0,81.44,80a17.13,17.13,0,0,0-1,2,13.87,13.87,0,0,1-8.38-5.9,13.63,13.63,0,0,1-4,9.36,14.3,14.3,0,0,0-1.59-1.07q4.21-4.27,4.08-8.88l-5.32,1.41Zm9.49-8-3.47.92q.83,3.31,1.17,5.18l3.66-1Z" style="fill:#42210b"/><path d="M84.69,75.1a6.14,6.14,0,0,0,4.07.29,4.1,4.1,0,0,0,2.42-1.51,2.8,2.8,0,0,0,.39-2.44q-.81-3.06-5.18-1.9L85,69.89l-.44-1.68,1.28-.34q3.87-1,3.12-3.89-.7-2.65-3.66-1.87a5.33,5.33,0,0,0-2.89,2l-.51-1.92a7.47,7.47,0,0,1,3.45-1.89,5,5,0,0,1,3.59.2A3.63,3.63,0,0,1,91,63a4,4,0,0,1-2.15,4.91v0a4.49,4.49,0,0,1,3.08.5,3.7,3.7,0,0,1,1.7,2.33A4.52,4.52,0,0,1,93,74.66a6.41,6.41,0,0,1-3.81,2.43,7.28,7.28,0,0,1-3.91.12Z" style="fill:#42210b"/></g></g></svg>