<svg xmlns="http://www.w3.org/2000/svg" xmlns:xlink="http://www.w3.org/1999/xlink" viewBox="0 0 147.79 116.25"><defs><linearGradient id="linear-gradient" x1="105.88" y1="94.7" x2="121.55" y2="98.69" gradientUnits="userSpaceOnUse"><stop offset="0" stop-color="#f9b500"/><stop offset="0.34" stop-color="#faae06"/><stop offset="0.82" stop-color="#fd9b16"/><stop offset="1" stop-color="#ff921e"/></linearGradient><linearGradient id="linear-gradient-2" x1="626.26" y1="-1283.32" x2="747.32" y2="-1283.32" gradientTransform="translate(-920.86 1164.82) rotate(14.28)" gradientUnits="userSpaceOnUse"><stop offset="0" stop-color="#c38e00"/><stop offset="0.36" stop-color="#c28705"/><stop offset="0.87" stop-color="#bf7413"/><stop offset="1" stop-color="#be6e17"/></linearGradient><linearGradient id="linear-gradient-3" x1="-0.26" y1="23.32" x2="146.34" y2="60.64" xlink:href="#linear-gradient"/><linearGradient id="linear-gradient-4" x1="58.98" y1="32.53" x2="76.86" y2="37.08" gradientUnits="userSpaceOnUse"><stop offset="0" stop-color="#ec1e79"/><stop offset="1" stop-color="#ae0663"/></linearGradient><linearGradient id="linear-gradient-5" x1="8.14" y1="60.33" x2="133.62" y2="60.33" gradientUnits="userSpaceOnUse"><stop offset="0" stop-color="#d10272"/><stop offset="1" stop-color="#931668"/></linearGradient><linearGradient id="linear-gradient-6" x1="102.57" y1="3.34" x2="133.62" y2="3.34" xlink:href="#linear-gradient-5"/><linearGradient id="linear-gradient-7" x1="70.35" y1="111.24" x2="79.28" y2="111.24" gradientUnits="userSpaceOnUse"><stop offset="0" stop-color="#3fa8f4"/><stop offset="0.43" stop-color="#2e99e5"/><stop offset="1" stop-color="#1180cb"/></linearGradient><linearGradient id="linear-gradient-8" x1="760.31" y1="-1329.67" x2="649.95" y2="-1286.51" gradientTransform="translate(-920.86 1164.82) rotate(14.28)" gradientUnits="userSpaceOnUse"><stop offset="0" stop-color="#f9d14c"/><stop offset="0.28" stop-color="#facd45"/><stop offset="0.67" stop-color="#fcc332"/><stop offset="1" stop-color="#ffb81d"/></linearGradient></defs><title>北京快3</title><g id="圖層_2" data-name="圖層 2"><g id="圖層_1-2" data-name="圖層 1"><path d="M122,97.11a104.7,104.7,0,0,0-19.16,9.71c4-7.86,8-15.48,12-22.76Q118.38,90.39,122,97.11Z" style="fill:url(#linear-gradient)"/><path d="M8.14,53.51c4.41,17.4,8.83,34,13.24,50,33.52,13.09,67-11.15,100.57-6.36q-3.57-6.73-7.15-13C79.25,72.92,43.7,89.14,8.14,53.51Z" style="fill:url(#linear-gradient-2)"/><path d="M147.79,54.61C118.37,26,56,13.61,0,22.29c9,4.29,15.84,9,16.65,20.78C56,34.48,116,56.12,141.46,79.83Q144.62,67,147.79,54.61Z" style="fill:url(#linear-gradient-3)"/><path d="M59.52,30.38c7.22-3.09,14.44-6.74,21.66-10.3C75.8,30.82,70.43,41.61,65,52.18Q62.29,41.32,59.52,30.38Z" style="fill:url(#linear-gradient-4)"/><polygon points="8.14 4.41 34.73 92.17 74.37 92.17 83.94 116.25 97.46 92.17 125.04 92.17 133.63 13.79 8.14 4.41" style="fill:url(#linear-gradient-5)"/><path d="M130,47c-26.76-6.42-58.77,7.51-77,8.29-13.84.59-26.23-5.29-32.07-8.61l4.57,15L74.24,92.18h.13l0,.2.25.21a132.61,132.61,0,0,1,31.68-9.13c8.84-1.33,14.2.24,19.49,1.63Z" style="opacity:0.14"/><polygon points="102.57 6.67 133.63 6.67 124.09 0 102.57 6.67" style="fill:url(#linear-gradient-6)"/><polygon points="79.28 114.3 75.23 108.17 70.35 110.22 79.28 114.3" style="fill:url(#linear-gradient-7)"/><path d="M35.32,41.53,35.45,40a22.87,22.87,0,0,0,8.11-.75l1.3-16L37,22.62l.13-1.54,7.85.64.74-9.11,5.75.47L48.8,45.88l-5.75-.47.45-5.47Q41.21,42,35.32,41.53ZM65.68,18.89l5.19.42q-1.49,4.4-3.61,9.59-1.06,4.29-7.46,3.2l-.71,8.69q-.71,3.47,3,3.49l2.1.17q3.32.83,5.12-5.65-.31,9-5.58,7.87l-5.61-.46q-5.34-.29-4.62-5.6l2.22-27.2,5.61.46L59.84,31.68q1.2-.89,2.76-4.43Q63.69,24.23,65.68,18.89Z" style="fill:#fff"/><path d="M82.07,37l5.19.42q-2,4.35-4,7.72-1.61,2.41-8,1.46Q78.05,44.73,82.07,37Zm28.09-13.94-33.09-2.7.11-1.4,12.76,1,.31-3.79,7.57.62-.31,3.79,12.76,1ZM84.91,35.13l-6-.49.89-10.94,6,.49-.17,2.1q.44-1.94,3.52-1.69l12.9,1.05q5,.41,4.61,4l-.25,3.09q-.32,3.93-4,3.49l-6.31-.51L95.3,46.14q-.31,3.79-5.08,3.4a7.15,7.15,0,0,1-6.52-4.91,7,7,0,0,0,3.71,1.29q2,0,2.17-2.36l.67-8.27-1.82-.15q-3.1-.11-3.37-2Zm.63-7.71-.37,4.49A1.81,1.81,0,0,0,87,33.75l10.8.88q2,.16,2.17-2.36l.26-3.23q.17-2.1-2.62-2.47L89,25.87Q86,25.48,85.54,27.42ZM97.35,38.26l5.19.42q2.57,8.25,5.21,10.59-6.63-.12-7.68-2.74A58.59,58.59,0,0,1,97.35,38.26Z" style="fill:#fff"/><path d="M8.12,53.59c46.56,30,93.12-29,139.67,1Q144.62,67,141.46,79.83c-40-14.21-80,31.32-120.07,23.63C17,87.54,12.54,71,8.12,53.59Z" style="fill:url(#linear-gradient-8)"/><path d="M58.34,71.33l1.45-.16q.35,2.6.49,5.56l-1.48,0Q58.73,74.49,58.34,71.33ZM59.09,66l1.56-.41,1.21,4.57.67-.75a32.61,32.61,0,0,1,3.12,2.29l-1,1.24A31.17,31.17,0,0,0,62,70.82l4,15.1-1.56.41Zm5.74,9.44L70.35,74q-.29-1.77-1.13-5.19L64.89,70l-.39-1.47,4.36-1.15-1-3.64,1.64-.43q.52,2,.94,3.64l5.07-1.34,1.74,6.61,2-.54.39,1.47L73,74.88A12.2,12.2,0,0,0,81.44,80a17.13,17.13,0,0,0-1,2,13.87,13.87,0,0,1-8.38-5.9,13.63,13.63,0,0,1-4,9.36,14.3,14.3,0,0,0-1.59-1.07q4.21-4.27,4.08-8.88l-5.32,1.41Zm9.49-8-3.47.92q.83,3.31,1.17,5.18l3.66-1Z" style="fill:#42210b"/><path d="M84.69,75.1a6.14,6.14,0,0,0,4.07.29,4.1,4.1,0,0,0,2.42-1.51,2.8,2.8,0,0,0,.39-2.44q-.81-3.06-5.18-1.9L85,69.89l-.44-1.68,1.28-.34q3.87-1,3.12-3.89-.7-2.65-3.66-1.87a5.33,5.33,0,0,0-2.89,2l-.51-1.92a7.47,7.47,0,0,1,3.45-1.89,5,5,0,0,1,3.59.2A3.63,3.63,0,0,1,91,63a4,4,0,0,1-2.15,4.91v0a4.49,4.49,0,0,1,3.08.5,3.7,3.7,0,0,1,1.7,2.33A4.52,4.52,0,0,1,93,74.66a6.41,6.41,0,0,1-3.81,2.43,7.28,7.28,0,0,1-3.91.12Z" style="fill:#42210b"/></g></g></svg>