<svg xmlns="http://www.w3.org/2000/svg" xmlns:xlink="http://www.w3.org/1999/xlink" viewBox="0 0 147.791 116.24958"><defs><linearGradient id="linear-gradient" x1="105.87805" y1="94.70081" x2="121.55473" y2="98.69075" gradientUnits="userSpaceOnUse"><stop offset="0.0034" stop-color="#f9b500"/><stop offset="0.33765" stop-color="#faae06"/><stop offset="0.81965" stop-color="#fd9b16"/><stop offset="1" stop-color="#ff921e"/></linearGradient><linearGradient id="linear-gradient-2" x1="348.9882" y1="-22.99501" x2="470.04478" y2="-22.99501" gradientTransform="translate(-341.35463 11.8155) rotate(14.27665)" gradientUnits="userSpaceOnUse"><stop offset="0.0034" stop-color="#c38e00"/><stop offset="0.35843" stop-color="#c28705"/><stop offset="0.87034" stop-color="#bf7413"/><stop offset="1" stop-color="#be6e17"/></linearGradient><linearGradient id="linear-gradient-3" x1="-0.26325" y1="23.32371" x2="146.34317" y2="60.63709" xlink:href="#linear-gradient"/><linearGradient id="linear-gradient-4" x1="58.97648" y1="32.53079" x2="76.85533" y2="37.08121" gradientUnits="userSpaceOnUse"><stop offset="0.0034" stop-color="#ec1e79"/><stop offset="1" stop-color="#ae0663"/></linearGradient><linearGradient id="linear-gradient-5" x1="8.13945" y1="60.32919" x2="133.62453" y2="60.32919" gradientUnits="userSpaceOnUse"><stop offset="0.0034" stop-color="#d10272"/><stop offset="1" stop-color="#931668"/></linearGradient><linearGradient id="linear-gradient-6" x1="102.56816" y1="3.33733" x2="133.62453" y2="3.33733" xlink:href="#linear-gradient-5"/><linearGradient id="linear-gradient-7" x1="70.35388" y1="111.23635" x2="79.27573" y2="111.23635" gradientUnits="userSpaceOnUse"><stop offset="0" stop-color="#3fa8f4"/><stop offset="0.43052" stop-color="#2e99e5"/><stop offset="1" stop-color="#1180cb"/></linearGradient><linearGradient id="linear-gradient-8" x1="483.03353" y1="-69.33838" x2="372.6802" y2="-26.18178" gradientTransform="translate(-341.35463 11.8155) rotate(14.27665)" gradientUnits="userSpaceOnUse"><stop offset="0.0034" stop-color="#f9d14c"/><stop offset="0.27761" stop-color="#facd45"/><stop offset="0.67289" stop-color="#fcc332"/><stop offset="1" stop-color="#ffb81d"/></linearGradient></defs><title>亞洲1分快3-中</title><g id="圖層_2" data-name="圖層 2"><g id="圖層_1-2" data-name="圖層 1"><path d="M121.95616,97.11352a104.69669,104.69669,0,0,0-19.16357,9.71023c4.00616-7.858,8.01189-15.48123,12.0178-22.75777Q118.38371,90.39377,121.95616,97.11352Z" style="fill:url(#linear-gradient)"/><path d="M8.13945,53.50955c4.41474,17.40169,8.82988,34.004,13.24462,49.95906,33.524,13.09415,67.04813-11.15381,100.57209-6.35509q-3.573-6.73142-7.14578-13.04754C79.25351,72.91556,43.69659,89.13513,8.13945,53.50955Z" style="fill:url(#linear-gradient-2)"/><path d="M147.791,54.61368C118.36856,25.98488,56.04245,13.60954,0,22.28938,8.99012,26.58,15.84215,31.302,16.65254,43.07161c39.34985-8.59082,99.33467,13.05222,124.80455,36.76318Q144.62352,66.96567,147.791,54.61368Z" style="fill:url(#linear-gradient-3)"/><path d="M59.52472,30.37671c7.21951-3.08935,14.43859-6.74245,21.65789-10.29763C75.80427,30.8158,70.42615,41.60681,65.048,52.17956Q62.28594,41.322,59.52472,30.37671Z" style="fill:url(#linear-gradient-4)"/><polygon points="8.139 4.409 34.734 92.175 74.372 92.175 83.937 116.25 97.46 92.175 125.043 92.175 133.625 13.788 8.139 4.409" style="fill:url(#linear-gradient-5)"/><path d="M130.003,47.0358c-26.75881-6.4178-58.77114,7.50835-77.01643,8.28528-13.84182.5887-26.23218-5.287-32.07422-8.61461l4.56921,14.99721L74.24434,92.17536h.12777l.04258.20429.25095.20685A132.60734,132.60734,0,0,1,106.348,83.45819c8.84069-1.32574,14.19507.23693,19.49077,1.62968Z" style="opacity:0.14"/><polygon points="102.568 6.675 133.625 6.675 124.09 0 102.568 6.675" style="fill:url(#linear-gradient-6)"/><polygon points="79.276 114.301 75.227 108.172 70.354 110.215 79.276 114.301" style="fill:url(#linear-gradient-7)"/><path d="M64.38749,20.89671l5.04688.41113q-.41895,1.66113-1.09961,4.85156Q67.17166,31.7097,66.073,36.56077q-.71484,5.30713-6.416,4.27539l-.27539,3.36426,9.67383.78906-.11328,1.40332L35.57108,43.6721l.11523-1.40332,9.81445.7998.27344-3.36426q-6.36621.189-6.06055-5.29395-.32227-2.98975-.65039-11.06152-.17871-2.97949-.19531-4.5332l5.04883.41113q.06445,18.21387,1.92773,19.63672l1.82813-22.43457L38.7,15.69749l.11328-1.40137,31.127,2.53809-.11328,1.40137-8.27148-.6748L59.79374,39.15354Q61.38749,36.886,64.38749,20.89671Zm-11.38672-4.0332L50.82889,43.50315l3.22461.2627L56.22733,17.1262Z" style="fill:#fff"/><path d="M79.73124,48.40061l-4.48633-.36523q.72949-3.75293,1.48047-7.7832.50391-6.16992,7.04883-5.07129a8.19989,8.19989,0,0,0-2.53711,5.15625A34.63743,34.63743,0,0,0,80.47147,44.51Q79.99686,46.86985,79.73124,48.40061ZM77.00272,24.74827l4.627.377a30.55819,30.55819,0,0,0,.32422,4.68457,6.56542,6.56542,0,0,0,1.92383,4.10938q-6.47754-.24463-6.46875-3.77441A30.79242,30.79242,0,0,1,77.00272,24.74827Zm1.16406-9.0791,4.627.37793a40.96762,40.96762,0,0,0,.17188,4.8125,5.02852,5.02852,0,0,0,1.79492,3.957q-6.09961.34863-6.28125-4.32227a12.053,12.053,0,0,1-.20508-2.69824C78.23319,17.135,78.19608,16.426,78.16678,15.66917Zm5.92383,20.80762L85.2117,22.73558l2.10352.17188L86.21756,36.36839q-.2168,4.35791-3.9668,3.62891Q83.73026,39.13157,84.09061,36.47679Zm2.93945,3.76855L88.97342,16.4094l4.06641.33105-.65234,7.99219,2.24414.18262.29883,10.1875a7.3987,7.3987,0,0,0,.27148,1.85645l1.56641-19.209,4.627.37793-.59375,7.291,2.10352.1709.29883,10.1875a3.501,3.501,0,0,0,.26953,1.85645l1.63477-20.0498,4.9082.40039-2.709,33.23047-4.9082-.40039.9375-11.498q-2.81543-.08643-2.49414-4.01367l-.31445-6.51855L98.84647,49.39573l-4.627-.37793.8457-10.376q-2.53711-.063-2.49609-4.01367l-.30664-8.35352L91.08475,40.717q-.542,10.11914-8.0332,8.51953Q86.2244,46.66868,87.03006,40.24534Z" style="fill:#fff"/><path d="M8.11636,53.58585C54.6741,83.56839,101.23244,24.6311,147.791,54.61368q-3.16735,12.34394-6.33391,25.2211c-40.02461-14.21477-80.049,31.3236-120.073,23.63383C16.96152,87.54148,12.5387,70.96463,8.11636,53.58585Z" style="fill:url(#linear-gradient-8)"/><path d="M52.62381,84.1594,49.31913,71.64768A6.44054,6.44054,0,0,1,48.10819,73.009a9.08626,9.08626,0,0,1-1.71289,1.25977l-.47852-1.8125a12.82179,12.82179,0,0,0,2.21289-1.68066,11.38428,11.38428,0,0,0,1.67969-1.8623l.69727-.18457L54.45584,83.675Z" style="fill:#42210b"/><path d="M57.491,73.93284a24.18551,24.18551,0,0,0,4.66406-9.27051l1.53516.38184A27.12811,27.12811,0,0,1,58.92655,74.928,9.47635,9.47635,0,0,0,57.491,73.93284Zm2.73438-.05469L72.782,70.56077q.75293,3.23584,1.373,6.34473.70605,3.59033-2.41406,4.39551-1.52637.42188-3.25391.75879c-.2168-.50879-.44531-1.02148-.68945-1.53613a25.30933,25.30933,0,0,0,3.30859-.63184q1.89844-.4585,1.49414-2.75781-.38672-2.07861-1.01562-4.76172l-5.80664,1.53418a12.54062,12.54062,0,0,1,.0293,5.42676,9.61282,9.61282,0,0,1-3.7832,5.17969c-.43945-.33984-.91211-.668-1.41016-.98047a8.90269,8.90269,0,0,0,3.61523-4.59082,9.89583,9.89583,0,0,0,0-4.626l-3.63477.96Zm5.74219-9.91992,1.20508-.94434a14.7081,14.7081,0,0,0,9.28906,5.64648,12.94621,12.94621,0,0,0-.84766,1.75879A17.53517,17.53517,0,0,1,65.96756,63.95823Z" style="fill:#42210b"/><path d="M77.87381,65.11643,79.18827,64.97q.31934,2.36133.44531,5.05371c-.375.00684-.82227.0166-1.34375.03223Q78.22831,67.99339,77.87381,65.11643Zm.68359-4.82812,1.416-.374,1.09766,4.15527.60742-.68555a29.29537,29.29537,0,0,1,2.832,2.08008L83.59647,66.594a28.16416,28.16416,0,0,0-2.37109-1.93945l3.627,13.72852-1.416.374Zm5.2168,8.582,5.02344-1.32715q-.26367-1.60693-1.02539-4.71875l-3.94727,1.042-.35352-1.34082,3.96484-1.04785q-.39258-1.49121-.873-3.30469l1.49219-.39355q.47461,1.79443.85352,3.30957l4.60938-1.2168,1.58594,6.00488,1.85156-.48926.35352,1.34082L91.19022,68.345a11.09,11.09,0,0,0,7.68555,4.69824A15.17569,15.17569,0,0,0,97.993,74.8303,12.60719,12.60719,0,0,1,90.37577,69.47a12.38047,12.38047,0,0,1-3.67187,8.50488,12.6237,12.6237,0,0,0-1.44922-.9707q3.82324-3.87891,3.707-8.07031l-4.834,1.27637Zm8.625-7.26855-3.1543.833q.75586,3.01318,1.0625,4.709l3.32422-.87793Z" style="fill:#42210b"/><path d="M100.86014,68.802a5.589,5.589,0,0,0,3.69531.26563,3.73667,3.73667,0,0,0,2.19922-1.373,2.55317,2.55317,0,0,0,.35742-2.2207q-.73242-2.77588-4.709-1.72656l-1.21875.32227-.40234-1.5293,1.16211-.30762q3.52148-.93018,2.832-3.53613-.63574-2.40674-3.32617-1.69727a4.85078,4.85078,0,0,0-2.625,1.80469L98.364,57.05784a6.78873,6.78873,0,0,1,3.13086-1.7168,4.59058,4.59058,0,0,1,3.26172.18457,3.301,3.301,0,0,1,1.80273,2.23535,3.67752,3.67752,0,0,1-1.95117,4.46484l.00977.03809a4.08809,4.08809,0,0,1,2.80273.45605,3.38121,3.38121,0,0,1,1.54492,2.12207,4.11625,4.11625,0,0,1-.58008,3.55762,5.83982,5.83982,0,0,1-3.46289,2.207,6.61142,6.61142,0,0,1-3.55664.11133Z" style="fill:#42210b"/></g></g></svg>