<svg xmlns="http://www.w3.org/2000/svg" xmlns:xlink="http://www.w3.org/1999/xlink" viewBox="0 0 147.791 116.24958"><defs><linearGradient id="linear-gradient" x1="105.87805" y1="94.70081" x2="121.55473" y2="98.69075" gradientUnits="userSpaceOnUse"><stop offset="0.0034" stop-color="#f9b500"/><stop offset="0.33765" stop-color="#faae06"/><stop offset="0.81965" stop-color="#fd9b16"/><stop offset="1" stop-color="#ff921e"/></linearGradient><linearGradient id="linear-gradient-2" x1="-73.32061" y1="-29.92577" x2="47.73598" y2="-29.92577" gradientTransform="translate(66.19572 122.67344) rotate(14.27665)" gradientUnits="userSpaceOnUse"><stop offset="0.0034" stop-color="#c38e00"/><stop offset="0.35843" stop-color="#c28705"/><stop offset="0.87034" stop-color="#bf7413"/><stop offset="1" stop-color="#be6e17"/></linearGradient><linearGradient id="linear-gradient-3" x1="-0.26325" y1="23.32371" x2="146.34317" y2="60.63709" xlink:href="#linear-gradient"/><linearGradient id="linear-gradient-4" x1="58.97648" y1="32.53079" x2="76.85533" y2="37.08121" gradientUnits="userSpaceOnUse"><stop offset="0.0034" stop-color="#ec1e79"/><stop offset="1" stop-color="#ae0663"/></linearGradient><linearGradient id="linear-gradient-5" x1="8.13945" y1="60.32919" x2="133.62453" y2="60.32919" gradientUnits="userSpaceOnUse"><stop offset="0.0034" stop-color="#d10272"/><stop offset="1" stop-color="#931668"/></linearGradient><linearGradient id="linear-gradient-6" x1="102.56816" y1="3.33733" x2="133.62453" y2="3.33733" xlink:href="#linear-gradient-5"/><linearGradient id="linear-gradient-7" x1="70.35388" y1="111.23635" x2="79.27573" y2="111.23635" gradientUnits="userSpaceOnUse"><stop offset="0" stop-color="#3fa8f4"/><stop offset="0.43052" stop-color="#2e99e5"/><stop offset="1" stop-color="#1180cb"/></linearGradient><linearGradient id="linear-gradient-8" x1="60.72473" y1="-76.26913" x2="-49.62861" y2="-33.11254" gradientTransform="translate(66.19572 122.67344) rotate(14.27665)" gradientUnits="userSpaceOnUse"><stop offset="0.0034" stop-color="#f9d14c"/><stop offset="0.27761" stop-color="#facd45"/><stop offset="0.67289" stop-color="#fcc332"/><stop offset="1" stop-color="#ffb81d"/></linearGradient></defs><title>澳洲5分快3-中</title><g id="圖層_2" data-name="圖層 2"><g id="圖層_1-2" data-name="圖層 1"><path d="M121.95616,97.11352a104.69669,104.69669,0,0,0-19.16357,9.71023c4.00616-7.858,8.01189-15.48123,12.0178-22.75777Q118.38371,90.39377,121.95616,97.11352Z" style="fill:url(#linear-gradient)"/><path d="M8.13945,53.50955c4.41474,17.40169,8.82988,34.004,13.24462,49.95906,33.524,13.09415,67.04813-11.15381,100.57209-6.35509q-3.573-6.73142-7.14578-13.04754C79.25351,72.91556,43.69659,89.13513,8.13945,53.50955Z" style="fill:url(#linear-gradient-2)"/><path d="M147.791,54.61368C118.36856,25.98488,56.04245,13.60954,0,22.28938,8.99012,26.58,15.84215,31.302,16.65254,43.07161c39.34985-8.59082,99.33467,13.05222,124.80455,36.76318Q144.62352,66.96567,147.791,54.61368Z" style="fill:url(#linear-gradient-3)"/><path d="M59.52472,30.37671c7.21951-3.08935,14.43859-6.74245,21.65789-10.29763C75.80427,30.8158,70.42615,41.60681,65.048,52.17956Q62.28594,41.322,59.52472,30.37671Z" style="fill:url(#linear-gradient-4)"/><polygon points="8.139 4.409 34.734 92.175 74.372 92.175 83.937 116.25 97.46 92.175 125.043 92.175 133.625 13.788 8.139 4.409" style="fill:url(#linear-gradient-5)"/><path d="M130.003,47.0358c-26.75881-6.4178-58.77114,7.50835-77.01643,8.28528-13.84182.5887-26.23218-5.287-32.07422-8.61461l4.56921,14.99721L74.24434,92.17536h.12777l.04258.20429.25095.20685A132.60734,132.60734,0,0,1,106.348,83.45819c8.84069-1.32574,14.19507.23693,19.49077,1.62968Z" style="opacity:0.14"/><polygon points="102.568 6.675 133.625 6.675 124.09 0 102.568 6.675" style="fill:url(#linear-gradient-6)"/><polygon points="79.276 114.301 75.227 108.172 70.354 110.215 79.276 114.301" style="fill:url(#linear-gradient-7)"/><path d="M38.56594,12.15873l4.90625.40039q.70313,8.66748,2.42188,8.38281l.457-5.6084,4.76758.38867-.14844,1.82227a1.95422,1.95422,0,0,1,2.40234-1.7793,9.8879,9.8879,0,0,0,1.61914-2.5498l6.45117.52637q-.8877,2.187-1.62109,2.5498l5.748.46875q4.207.34277,3.92188,3.84766l-1.43945,17.667-4.627-.377,1.45117-17.80762a1.99143,1.99143,0,0,0-2.06055-2.42676l-9.81445-.7998q-1.54395-.126-2.123,1.80273L49.39211,36.89408l-4.76758-.38867L44.98,32.15873q-1.7666.84521-2.67969,5.14551a8.8022,8.8022,0,0,0-.38281,1.23926q-.92871,4.44287-1.25977,6.8125l-5.18945-.42285a20.39661,20.39661,0,0,1,.52148-2.92187q.65918-2.90918,1.10156-4.85059.36035-6.17725,7.91016-5.28223l.11523-1.40137q-7.62891.085-7.17969-3.69141a35.44167,35.44167,0,0,1-.67578-5.55957l5.04688.41113q.73535,8.24707,2.82031,8.69922l.75391-9.25391q-7.35059.1084-6.63086-3.50488a2.003,2.003,0,0,1-.21094-.86426Q38.8384,15.71146,38.56594,12.15873ZM69.24758,40.91263l-8.69336-.709Q65.52,46.81888,68.25539,47.8892q-5.61035-.457-7.24609-1.15625a4.80359,4.80359,0,0,1-2.79492-2.0625,32.2828,32.2828,0,0,0-2.166-2.85742,38.16915,38.16915,0,0,0-3.38281,3.39355,5.02185,5.02185,0,0,1-3.02344.74121,44.07537,44.07537,0,0,1-6.60156-.39746q3.16113-.731,8.541-6.07812l-7.99219-.65137.10156-1.26172,8.97461.73145a12.59736,12.59736,0,0,1,1.41016-1.71973l5.75.46875a6.57352,6.57352,0,0,1-.63086.79492c-.22656.4541-.39258.76855-.502.94727l10.65625.86914Zm-17.791-18.95312.26172-3.22461,3.08594.252-.252,3.085a2.22693,2.22693,0,0,0,1.06836,2.48633l.53711-6.59082,3.64453.29785-.52539,6.4502q1.29492-.31787,1.457-2.28125l.24023-2.94434,3.084.251-.252,3.08594q.19336,2.83887-4.55273,2.16895L59.14016,26.398l4.48633.36523L63.523,28.02494l-4.48633-.36523-.127,1.543.98242.0791q3.80859.0293,3.16016,2.79883l-.16016,1.96289c-.18555,1.11426-.05469,1.78418.40039,2.00781q-4.251.21973-3.58008-2.832l.14844-1.82324q.05859-.7002-1.041-1.07227l-.44727,5.46875-3.64453-.29785.43555-5.32812a.98311.98311,0,0,0-1.19141.75l-.13672,1.68164q.1582,3.26221-4.1543,2.48535.89648-.63135,1.10352-3.15723l.27344-3.36426,3.08594.251-.125,1.543a1.43955,1.43955,0,0,1,1.22461-1.1709l.14844-1.82324-4.48828-.36523.10352-1.26172,4.48828.36523.11328-1.40234Q50.81887,24.59379,51.45657,21.95951Z" style="fill:#fff"/><path d="M79.732,48.40092l-4.48633-.36523q.72949-3.75293,1.48047-7.7832.50391-6.16992,7.04883-5.07129a8.21087,8.21087,0,0,0-2.53906,5.15625,34.31285,34.31285,0,0,0-.76367,4.17285Q79.99465,46.87015,79.732,48.40092ZM77.00149,24.74857l4.627.377a31.06066,31.06066,0,0,0,.32422,4.68457,6.57569,6.57569,0,0,0,1.92383,4.10938q-6.47461-.24463-6.4668-3.77441A30.80891,30.80891,0,0,1,77.00149,24.74857Zm1.16406-9.0791,4.627.37793a41.39475,41.39475,0,0,0,.17188,4.8125,5.03461,5.03461,0,0,0,1.79492,3.957q-6.09961.34863-6.28125-4.32227a11.96156,11.96156,0,0,1-.20312-2.69824Q78.2134,16.80472,78.16555,15.66947Zm5.92578,20.80762,1.12109-13.74121,2.10352.17188L86.21829,36.36869q-.2168,4.35791-3.9668,3.62891Q83.731,39.13187,84.09133,36.47709Zm2.93945,3.76855L88.97414,16.4097l4.06641.33105-.65234,7.99219,2.24414.18262.29883,10.1875a7.22338,7.22338,0,0,0,.27148,1.85645l1.56641-19.209,4.627.37793-.59375,7.291,2.10352.1709.29688,10.1875a3.51922,3.51922,0,0,0,.27148,1.85645l1.63477-20.0498,4.9082.40039-2.709,33.23047-4.9082-.40039.9375-11.498q-2.81836-.08643-2.49609-4.01367l-.31445-6.51855L98.84719,49.396l-4.627-.37793.8457-10.376q-2.53711-.063-2.49609-4.01367l-.30664-8.35352L91.08547,40.71732q-.54492,10.11914-8.03516,8.51953Q86.22317,46.669,87.03079,40.24564Z" style="fill:#fff"/><path d="M8.11636,53.58585C54.6741,83.56839,101.23244,24.6311,147.791,54.61368q-3.16735,12.34394-6.33391,25.2211c-40.02461-14.21477-80.049,31.3236-120.073,23.63383C16.96152,87.54148,12.5387,70.96463,8.11636,53.58585Z" style="fill:url(#linear-gradient-8)"/><path d="M56.00149,78.43754a4.64545,4.64545,0,0,1-.50781,3.832A5.60119,5.60119,0,0,1,52.021,84.59086a6.24757,6.24757,0,0,1-3.23047.19629l-.5-1.8877a5.68668,5.68668,0,0,0,3.27734.16406A3.66114,3.66114,0,0,0,53.812,81.56644a2.96613,2.96613,0,0,0,.34766-2.49121,2.71519,2.71519,0,0,0-1.55078-1.917,4.47965,4.47965,0,0,0-2.96875-.0498,23.15278,23.15278,0,0,0-2.45117.7793l-1.42187-7.56445,6.83594-1.80566.42969,1.624-5.2793,1.39453.793,4.22461,1.31641-.4082a5.54685,5.54685,0,0,1,3.95508.19238A4.21043,4.21043,0,0,1,56.00149,78.43754Z" style="fill:#42210b"/><path d="M57.49172,73.93265a24.15546,24.15546,0,0,0,4.66211-9.27051L63.689,65.044a27.12542,27.12542,0,0,1-4.76172,9.88379A9.47635,9.47635,0,0,0,57.49172,73.93265Zm2.73242-.05469,12.55859-3.31738q.75293,3.23584,1.373,6.34473.70605,3.59033-2.416,4.39551-1.52344.42188-3.25391.75879-.32227-.76318-.6875-1.53613a25.43176,25.43176,0,0,0,3.30859-.63184q1.89844-.4585,1.49219-2.75781-.38672-2.07861-1.01562-4.76172l-5.80664,1.53418a12.51025,12.51025,0,0,1,.0293,5.42676,9.60291,9.60291,0,0,1-3.7832,5.17969q-.65918-.50977-1.41016-.98047A8.8971,8.8971,0,0,0,64.23,78.94144a9.92439,9.92439,0,0,0-.002-4.626l-3.63477.96ZM65.96829,63.958l1.20508-.94434a14.7081,14.7081,0,0,0,9.28906,5.64648,12.94621,12.94621,0,0,0-.84766,1.75879A17.52833,17.52833,0,0,1,65.96829,63.958Z" style="fill:#42210b"/><path d="M77.87258,65.11625l1.31641-.14648q.31934,2.36133.44531,5.05371c-.375.00684-.82422.0166-1.3457.03223Q78.23,67.9932,77.87258,65.11625Zm.68555-4.82812,1.416-.374,1.09766,4.15527.60742-.68555a29.53891,29.53891,0,0,1,2.832,2.08008l-.91406,1.12988a28.48033,28.48033,0,0,0-2.37109-1.93945l3.627,13.72852-1.418.374Zm5.2168,8.582L88.79641,67.543q-.26074-1.60693-1.02344-4.71875l-3.94727,1.042-.35352-1.34082L87.437,61.47758q-.39258-1.49121-.873-3.30469l1.49219-.39355q.47461,1.79443.85352,3.30957l4.60938-1.2168L95.105,65.877l1.84961-.48926.35352,1.34082-6.11719,1.61621A11.08186,11.08186,0,0,0,98.87454,73.043a15.54134,15.54134,0,0,0-.88086,1.78711,12.60162,12.60162,0,0,1-7.61719-5.36035,12.383,12.383,0,0,1-3.67383,8.50488,12.795,12.795,0,0,0-1.44727-.9707q3.82324-3.87891,3.707-8.07031L84.12844,70.21Zm8.623-7.26855-3.15234.833q.75586,3.01318,1.0625,4.709l3.32227-.87793Z" style="fill:#42210b"/><path d="M100.85891,68.80179a5.59555,5.59555,0,0,0,3.69727.26563,3.72534,3.72534,0,0,0,2.19727-1.373,2.54056,2.54056,0,0,0,.35742-2.2207q-.73242-2.77588-4.707-1.72656l-1.21875.32227-.4043-1.5293,1.16211-.30762q3.52148-.93018,2.834-3.53613-.63574-2.40674-3.32812-1.69727a4.85325,4.85325,0,0,0-2.623,1.80469l-.46289-1.74609a6.79562,6.79562,0,0,1,3.13281-1.7168,4.59058,4.59058,0,0,1,3.26172.18457,3.30618,3.30618,0,0,1,1.80273,2.23535,3.68062,3.68062,0,0,1-1.95312,4.46484l.00977.03809a4.08611,4.08611,0,0,1,2.80273.45605,3.377,3.377,0,0,1,1.54688,2.12207,4.1168,4.1168,0,0,1-.582,3.55762,5.83982,5.83982,0,0,1-3.46289,2.207,6.60432,6.60432,0,0,1-3.55469.11133Z" style="fill:#42210b"/></g></g></svg>