<svg xmlns="http://www.w3.org/2000/svg" xmlns:xlink="http://www.w3.org/1999/xlink" viewBox="0 0 141 121.21"><defs><linearGradient id="linear-gradient" x1="101.01" y1="97.05" x2="115.97" y2="100.86" gradientUnits="userSpaceOnUse"><stop offset="0" stop-color="#f8b400"/><stop offset="0.34" stop-color="#f9ad06"/><stop offset="0.82" stop-color="#fd9a16"/><stop offset="1" stop-color="#ff911e"/></linearGradient><linearGradient id="linear-gradient-2" x1="324.61" y1="-1605.34" x2="440.11" y2="-1605.34" gradientTransform="translate(-708.05 1554.51) rotate(14.28)" gradientUnits="userSpaceOnUse"><stop offset="0" stop-color="#c28d00"/><stop offset="0.37" stop-color="#c18605"/><stop offset="0.89" stop-color="#be7313"/><stop offset="1" stop-color="#bd6e17"/></linearGradient><linearGradient id="linear-gradient-3" x1="-0.25" y1="28.95" x2="139.62" y2="64.55" xlink:href="#linear-gradient"/><linearGradient id="未命名漸層_29" x1="34.72" y1="15.85" x2="111.24" y2="92.38" gradientUnits="userSpaceOnUse"><stop offset="0" stop-color="#e62c14"/><stop offset="1" stop-color="#c72c14"/></linearGradient><linearGradient id="linear-gradient-4" x1="7.74" y1="78.34" x2="141" y2="78.34" gradientUnits="userSpaceOnUse"><stop offset="0" stop-color="#f8d04c"/><stop offset="0.28" stop-color="#f9cc45"/><stop offset="0.67" stop-color="#fcc232"/><stop offset="1" stop-color="#ffb71d"/></linearGradient><linearGradient id="linear-gradient-5" x1="-10098.99" y1="1587.37" x2="-10097.45" y2="1637.02" gradientTransform="matrix(-0.9, 0.07, 0.1, 0.89, -9141, -725.35)" gradientUnits="userSpaceOnUse"><stop offset="0" stop-color="#fff"/><stop offset="1" stop-color="#fff" stop-opacity="0"/></linearGradient></defs><title>GLI ลอตเตอรี่ </title><g id="圖層_2" data-name="圖層 2"><g id="圖層_1-2" data-name="圖層 1"><path d="M116.35,99.35a99.91,99.91,0,0,0-18.28,9.26c3.82-7.5,7.64-14.77,11.47-21.71Q112.94,92.94,116.35,99.35Z" style="fill:url(#linear-gradient)"/><path d="M7.77,57.75C12,74.35,16.19,90.19,20.4,105.41c32,12.49,64-10.64,96-6.06q-3.41-6.42-6.82-12.45C75.61,76.27,41.69,91.74,7.77,57.75Z" style="fill:url(#linear-gradient-2)"/><path d="M141,58.8C112.93,31.49,53.47,19.68,0,28c8.28,2.53,15.89,8.87,15.89,8.87s-1.56,3.7-5,10.92c37.54-8.2,99.74,12.49,124,35.12Q138,70.59,141,58.8Z" style="fill:url(#linear-gradient-3)"/><path d="M127.1,54.12A54.11,54.11,0,1,0,73,108.23l1.61,0,6.11,13,10.09-16A54.13,54.13,0,0,0,127.1,54.12Z" style="fill:url(#未命名漸層_29)"/><path d="M127.1,54.12q0-1.39-.07-2.75c-27.48-5.89-59.12,7.38-76.47,8.12a48.29,48.29,0,0,1-31-10.14l-.51.9c-.09,1.28-.14,2.57-.14,3.88a54.07,54.07,0,0,0,2.59,16.56l49.78,24.4a126.47,126.47,0,0,1,30.23-8.73,35.94,35.94,0,0,1,14.73.35A53.87,53.87,0,0,0,127.1,54.12Z" style="opacity:0.14"/><path d="M7.74,57.82C52.16,86.43,96.58,30.2,141,58.8q-3,11.78-6,24.06C96.77,69.3,58.59,112.75,20.4,105.41,16.18,90.22,12,74.4,7.74,57.82Z" style="fill:url(#linear-gradient-4)"/><polygon points="71.69 12.19 76.37 26.56 91.48 26.56 79.26 35.45 83.93 49.83 71.69 40.94 59.47 49.83 64.14 35.45 51.91 26.56 67.03 26.56 71.69 12.19" style="fill:gold"/><path d="M32.75,40.38c2.06,18.23,21.74,31.63,44,29.93s38.56-17.87,36.5-36.1S91.47,2.58,69.25,4.28,30.69,22.15,32.75,40.38Z" style="fill:url(#linear-gradient-5)"/><path d="M41,88l-1.76.4.69-2.19a3.67,3.67,0,0,0-.72-2.32,1.72,1.72,0,0,0-1.86-.58,3.5,3.5,0,0,0-1.71.9,4.12,4.12,0,0,0-1,1.76l-.1.31a3.1,3.1,0,0,1,.69-.25,1,1,0,0,1,1.29,1.4A3.73,3.73,0,0,1,34,89.71q-1.15.26-1.55-.35a2.49,2.49,0,0,1,0-2l.31-1a6.5,6.5,0,0,1,1.84-2.87,6.71,6.71,0,0,1,3.13-1.64,2.66,2.66,0,0,1,2,.19,2,2,0,0,1,.94,1.51l.85-2.72A2,2,0,0,0,41.52,79q-.45-.56-2.21-.16a6.52,6.52,0,0,0-2.35,1,5.23,5.23,0,0,0-1.58,1.78l-1.64.16a8.07,8.07,0,0,1,2.5-2.94,10.44,10.44,0,0,1,3.87-1.68q2.34-.54,3.15.19t.13,2.91Zm-6.56.5a1.15,1.15,0,0,0,.51-.29,1.18,1.18,0,0,0,.34-.5.38.38,0,0,0-.06-.4.39.39,0,0,0-.39-.09,1.15,1.15,0,0,0-.52.3,1.12,1.12,0,0,0-.34.49.36.36,0,0,0,.46.49Z" style="fill:#42210b"/><path d="M54.35,83a4,4,0,0,1-1,1.89,5.51,5.51,0,0,1-2.12.83l-4.08.94c-1,.23-1.64.26-1.87.09S45,86,45.32,85L46,82.92a5.76,5.76,0,0,1,1.29-2.26,3.94,3.94,0,0,1,2-1.19,1,1,0,0,1,1.29,1.4,3.73,3.73,0,0,1-2.44,2.25,2,2,0,0,1-.62,0l-.48,1.52c-.13.42,0,.58.38.49l4.38-1a1,1,0,0,0,.77-.75l1.72-5.48a2,2,0,0,0-.05-1.82q-.45-.57-2.2-.16a5.69,5.69,0,0,0-3.93,2.79l-1.64.17a8.89,8.89,0,0,1,6.35-4.62q2.34-.54,3.16.19t.13,2.91Zm-5.82-1a1.34,1.34,0,0,0,.84-.78.35.35,0,0,0-.45-.48,1.33,1.33,0,0,0-.85.78.38.38,0,0,0,.06.4A.39.39,0,0,0,48.53,81.93Z" style="fill:#42210b"/><path d="M67.34,82l-1.75.4,2.48-7.91a1.41,1.41,0,0,0-.82-2L65,74.45l-1.33-1.09A5.47,5.47,0,0,0,61,76.52a10.59,10.59,0,0,0-.27,2.29,11.42,11.42,0,0,1-.31,2.46,13.29,13.29,0,0,1,1-.95,14.1,14.1,0,0,0,1.43-1.44.9.9,0,0,1-.76-.46,1.28,1.28,0,0,1,0-1,3.72,3.72,0,0,1,2.44-2.25,1,1,0,0,1,1.29,1.4l0,.08a5.78,5.78,0,0,1-.92,1.65A23.77,23.77,0,0,1,62.18,81a20.54,20.54,0,0,0-1.83,1.8,2.77,2.77,0,0,0-.51.84l-1.8.41.53-1.7a11.27,11.27,0,0,0,.37-2.75,11.12,11.12,0,0,1,.36-2.76q1-3.13,4.86-5.22l1.33,1.1,2.28-1.95a2.8,2.8,0,0,1,1.88,1.08A2.34,2.34,0,0,1,69.83,74Zm-3.59-4.35a1.16,1.16,0,0,0,.51-.29,1.14,1.14,0,0,0,.33-.49.37.37,0,0,0-.06-.4.39.39,0,0,0-.39-.08,1.34,1.34,0,0,0-.86.78.38.38,0,0,0,.06.4A.39.39,0,0,0,63.76,77.63Z" style="fill:#42210b"/><path d="M76,78.4a3.73,3.73,0,0,1-2.44,2.25q-1.15.27-1.54-.35a2.5,2.5,0,0,1,0-2l2.8-9,1.75-.4L74,77.26a3.23,3.23,0,0,1,.69-.25A1,1,0,0,1,76,78.4Zm-1.22.28a.37.37,0,0,0-.06-.39.38.38,0,0,0-.39-.09,1.17,1.17,0,0,0-.52.3,1.13,1.13,0,0,0-.33.49.36.36,0,0,0,.46.49,1.13,1.13,0,0,0,.51-.29A1.15,1.15,0,0,0,74.74,78.68Z" style="fill:#42210b"/><path d="M88.11,77.22l-1.75.4,2.48-7.91a1.41,1.41,0,0,0-.82-2l-2.28,1.94L84.4,68.6a5.47,5.47,0,0,0-2.6,3.16A10.67,10.67,0,0,0,81.52,74a11.46,11.46,0,0,1-.31,2.46,13.26,13.26,0,0,1,1-.95,13.79,13.79,0,0,0,1.43-1.44.9.9,0,0,1-.75-.46,1.26,1.26,0,0,1,0-1,3.72,3.72,0,0,1,2.44-2.25,1.12,1.12,0,0,1,1.14.24,1.1,1.1,0,0,1,.15,1.16l0,.08a5.75,5.75,0,0,1-.92,1.65,23.58,23.58,0,0,1-2.69,2.75,20.76,20.76,0,0,0-1.83,1.8,2.82,2.82,0,0,0-.51.85l-1.8.41.53-1.7a11.37,11.37,0,0,0,.37-2.75,11,11,0,0,1,.36-2.76q1-3.13,4.86-5.22L86.26,68l2.28-1.95a2.79,2.79,0,0,1,1.88,1.08,2.34,2.34,0,0,1,.18,2.12Zm-3.59-4.35a1.12,1.12,0,0,0,.51-.29,1.14,1.14,0,0,0,.33-.49.38.38,0,0,0-.06-.4.38.38,0,0,0-.39-.08,1.15,1.15,0,0,0-.52.3,1.14,1.14,0,0,0-.33.49.38.38,0,0,0,.06.4A.39.39,0,0,0,84.52,72.87Z" style="fill:#42210b"/><path d="M101.62,72.13a3.94,3.94,0,0,1-1,1.89,5.53,5.53,0,0,1-2.11.83l-4.08.94q-1.51.35-1.88.09c-.24-.17-.21-.73.08-1.67l.66-2.11a5.78,5.78,0,0,1,1.29-2.26,3.94,3.94,0,0,1,2-1.19A1,1,0,0,1,97.86,70a3.74,3.74,0,0,1-2.44,2.25,2,2,0,0,1-.62,0l-.48,1.52q-.19.62.38.49l4.38-1a1,1,0,0,0,.77-.75l1.72-5.48a2,2,0,0,0-.05-1.82q-.45-.57-2.21-.16a5.68,5.68,0,0,0-3.93,2.79l-1.64.17a8.89,8.89,0,0,1,6.35-4.62q2.34-.54,3.16.19t.13,2.91Zm-5.82-1a1.15,1.15,0,0,0,.51-.3,1.13,1.13,0,0,0,.33-.49.35.35,0,0,0-.45-.48,1.34,1.34,0,0,0-.86.78.38.38,0,0,0,.06.4A.39.39,0,0,0,95.79,71.09Z" style="fill:#42210b"/><path d="M115.87,61.15a10,10,0,0,1-2.05.65l-2.94.56a3.22,3.22,0,0,0-1.5.76,2.7,2.7,0,0,0-.79,1.14,1,1,0,0,0,0,.2,15.74,15.74,0,0,1,2.46-.77q2.17-.5,2.93,0t.06,2.72l-.77,2.45a5.74,5.74,0,0,1-1.29,2.29,4,4,0,0,1-2,1.16,1,1,0,0,1-1.29-1.4,3.72,3.72,0,0,1,2.44-2.25,2.05,2.05,0,0,1,.63,0l.55-1.74a2,2,0,0,0,.05-1.59q-.3-.47-1.74-.14a19.86,19.86,0,0,0-4,1.39,11.71,11.71,0,0,1,.32-1.26,5.92,5.92,0,0,1,4.45-4.39l2.94-.55a10.15,10.15,0,0,0,1.88-.6Zm-5.59,10a1.15,1.15,0,0,0,.52-.3,1.19,1.19,0,0,0,.34-.5.38.38,0,0,0-.06-.4.4.4,0,0,0-.4-.09,1.15,1.15,0,0,0-.51.3,1.13,1.13,0,0,0-.33.49.39.39,0,0,0,.05.41A.37.37,0,0,0,110.28,71.13Z" style="fill:#42210b"/><path d="M116.23,58.7l-8.34,1.91.07-.22a6,6,0,0,1,4.56-4.06,2.92,2.92,0,0,1,3.07.67l.63-2,1.26-.29ZM114.62,58q-.5-1-2.46-.56a4.49,4.49,0,0,0-1.58.67,2.85,2.85,0,0,0-1,1Z" style="fill:#42210b"/></g></g></svg>