<svg xmlns="http://www.w3.org/2000/svg" xmlns:xlink="http://www.w3.org/1999/xlink" viewBox="0 0 141 121.21"><defs><linearGradient id="linear-gradient" x1="101.01" y1="97.05" x2="115.97" y2="100.86" gradientUnits="userSpaceOnUse"><stop offset="0" stop-color="#f8b400"/><stop offset="0.34" stop-color="#f9ad06"/><stop offset="0.82" stop-color="#fd9a16"/><stop offset="1" stop-color="#ff911e"/></linearGradient><linearGradient id="linear-gradient-2" x1="-788.8" y1="-1179.48" x2="-673.31" y2="-1179.48" gradientTransform="translate(475.97 1416.37) rotate(14.28)" gradientUnits="userSpaceOnUse"><stop offset="0" stop-color="#c28d00"/><stop offset="0.37" stop-color="#c18605"/><stop offset="0.89" stop-color="#be7313"/><stop offset="1" stop-color="#bd6e17"/></linearGradient><linearGradient id="linear-gradient-3" x1="-0.25" y1="28.95" x2="139.62" y2="64.55" xlink:href="#linear-gradient"/><linearGradient id="未命名漸層_29" x1="34.72" y1="15.85" x2="111.24" y2="92.38" gradientUnits="userSpaceOnUse"><stop offset="0" stop-color="#e62c14"/><stop offset="1" stop-color="#c72c14"/></linearGradient><linearGradient id="linear-gradient-4" x1="7.74" y1="78.34" x2="141" y2="78.34" gradientUnits="userSpaceOnUse"><stop offset="0" stop-color="#f8d04c"/><stop offset="0.28" stop-color="#f9cc45"/><stop offset="0.67" stop-color="#fcc232"/><stop offset="1" stop-color="#ffb71d"/></linearGradient><linearGradient id="linear-gradient-5" x1="-8272.16" y1="954.69" x2="-8270.62" y2="1004.34" gradientTransform="matrix(-0.9, 0.07, 0.1, 0.89, -7440.21, -288.4)" gradientUnits="userSpaceOnUse"><stop offset="0" stop-color="#fff"/><stop offset="1" stop-color="#fff" stop-opacity="0"/></linearGradient></defs><title>越南5分_泰</title><g id="圖層_2" data-name="圖層 2"><g id="圖層_1-2" data-name="圖層 1"><path d="M116.35,99.35a99.91,99.91,0,0,0-18.28,9.26c3.82-7.5,7.64-14.77,11.47-21.71Q112.94,92.94,116.35,99.35Z" style="fill:url(#linear-gradient)"/><path d="M7.77,57.75C12,74.35,16.19,90.19,20.4,105.41c32,12.49,64-10.64,96-6.06q-3.41-6.42-6.82-12.45C75.61,76.27,41.69,91.74,7.77,57.75Z" style="fill:url(#linear-gradient-2)"/><path d="M141,58.8C112.93,31.49,53.47,19.68,0,28c8.28,2.53,15.89,8.87,15.89,8.87s-1.56,3.7-5,10.92c37.54-8.2,99.74,12.49,124,35.12Q138,70.59,141,58.8Z" style="fill:url(#linear-gradient-3)"/><path d="M127.1,54.12A54.11,54.11,0,1,0,73,108.23l1.61,0,6.11,13,10.09-16A54.13,54.13,0,0,0,127.1,54.12Z" style="fill:url(#未命名漸層_29)"/><path d="M127.1,54.12q0-1.39-.07-2.75c-27.48-5.89-59.12,7.38-76.47,8.12a48.29,48.29,0,0,1-31-10.14l-.51.9c-.09,1.28-.14,2.57-.14,3.88a54.07,54.07,0,0,0,2.59,16.56l49.78,24.4a126.47,126.47,0,0,1,30.23-8.73,35.94,35.94,0,0,1,14.73.35A53.87,53.87,0,0,0,127.1,54.12Z" style="opacity:0.14"/><path d="M7.74,57.82C52.16,86.43,96.58,30.2,141,58.8q-3,11.78-6,24.06C96.77,69.3,58.59,112.75,20.4,105.41,16.18,90.22,12,74.4,7.74,57.82Z" style="fill:url(#linear-gradient-4)"/><polygon points="71.69 12.19 76.37 26.56 91.48 26.56 79.26 35.45 83.93 49.83 71.69 40.94 59.47 49.83 64.14 35.45 51.91 26.56 67.03 26.56 71.69 12.19" style="fill:gold"/><path d="M32.75,40.38c2.06,18.23,21.74,31.63,44,29.93s38.56-17.87,36.5-36.1S91.47,2.58,69.25,4.28,30.69,22.15,32.75,40.38Z" style="fill:url(#linear-gradient-5)"/><path d="M37,78.51l-.82.26a.56.56,0,0,0-.38.35.41.41,0,0,0,0,.21l1.1,7,5.77-8.66a1.27,1.27,0,0,0,.13-.24c0-.12,0-.16-.21-.15l-.82.12.12-.38,3-.68-.12.38L44,77a.94.94,0,0,0-.37.19,2.66,2.66,0,0,0-.32.39L34,91.44l-.62.14L31.65,80.22a.63.63,0,0,0-.11-.29s-.14-.06-.3,0l-.7.09.12-.38,6.43-1.47Z" style="fill:#42210b"/><path d="M47.06,76.46a.57.57,0,0,0-.34,0H46l.12-.38,5.4-1.24,3.85,6.31,2.13-6.81c0-.14,0-.23,0-.26a.66.66,0,0,0-.32,0h-.66l.12-.38,3-.68-.12.38-.77.32a1.61,1.61,0,0,0-.42.22.64.64,0,0,0-.18.31L54.28,86.59l-.7.16-6-9.88-3.5,11.18c0,.14,0,.23,0,.26a.66.66,0,0,0,.32,0h.65l-.12.38-3,.68L42.1,89l.77-.32a1.6,1.6,0,0,0,.42-.22.65.65,0,0,0,.18-.31l3.59-11.45C47.1,76.59,47.1,76.5,47.06,76.46Z" style="fill:#42210b"/><path d="M65.14,84.08a4.75,4.75,0,0,1-1.72-.14l1.26-3.23.45-.1a7.42,7.42,0,0,0,.13,1.64,1.41,1.41,0,0,0,.64.93,2,2,0,0,0,1.51.08,4.27,4.27,0,0,0,2.3-1.4,7.57,7.57,0,0,0,1.48-2.76,3.67,3.67,0,0,0,.15-2.54q-.39-.81-2.16-.4a12.23,12.23,0,0,0-2.38.83l-.55.13,2.38-6.21L77.08,69l-.87,2.79-8,1.84-1.09,2.83q.88-.4,1.57-.63c.46-.15,1-.3,1.6-.44q3.45-.79,4.54,0T75.3,78a6.85,6.85,0,0,1-2.64,3.62,14.07,14.07,0,0,1-5,2.08A15.17,15.17,0,0,1,65.14,84.08Z" style="fill:#42210b"/><path d="M85,79l.2-.65a10.79,10.79,0,0,1-1.94,1.42,8.38,8.38,0,0,1-2.37.95q-2.12.49-2.77-.1T78,78.39l1.93-6.16c0-.14,0-.23,0-.27a.57.57,0,0,0-.34,0l-.61,0,.13-.4,4.82-1.64.41-.09-2.48,7.9a2.57,2.57,0,0,0-.19,1.47q.16.36,1,.17a4.16,4.16,0,0,0,1.38-.61,10.54,10.54,0,0,0,1.34-1.06l2.27-7.23c0-.14,0-.23,0-.27a.57.57,0,0,0-.34,0l-.61,0,.13-.4,4.82-1.64.41-.09-3,9.71Q89,78,89,78a.58.58,0,0,0,.34,0L90,78l-.13.4-4.37,1Q84.83,79.58,85,79Z" style="fill:#42210b"/><path d="M95,76.89l.76-.28a1.31,1.31,0,0,0,.41-.21.73.73,0,0,0,.2-.34l2.07-6.6q.39-1.26.12-1.61c-.19-.24-.62-.27-1.29-.12a8.91,8.91,0,0,0-3.1,1.53l-.18-.4a14.58,14.58,0,0,1,5.37-2.47q2.14-.49,2.81.14t.1,2.42l-2,6.24c0,.14,0,.23,0,.27a.59.59,0,0,0,.34,0l.61,0-.12.4-6.24,1.43Z" style="fill:#42210b"/><path d="M112.89,63.77a9.63,9.63,0,0,1,2.92-1.17q3.2-.73,2.31,2.09L116,71.6c0,.14,0,.23,0,.27a.57.57,0,0,0,.34,0l.61,0-.12.38-4,.92q-1,.24-.69-.85l2.23-7.12q.25-.8.09-1t-.7-.12a5,5,0,0,0-1.7.82,15.18,15.18,0,0,0-1.7,1.38L108,73.41c0,.14,0,.23,0,.27a.58.58,0,0,0,.34,0l.57,0-.12.38-6.12,1.4.12-.38.68-.26a1.61,1.61,0,0,0,.42-.22.65.65,0,0,0,.18-.31l2.58-8.23c0-.14,0-.23,0-.27a.57.57,0,0,0-.34,0l-.61,0,.13-.4,4.82-1.64.37-.08-.59,1.89A17.27,17.27,0,0,1,112.89,63.77Z" style="fill:#42210b"/><path d="M109.68,61.49A5.08,5.08,0,0,1,111,60.26a7.66,7.66,0,0,1,2-.91l4.44.49.71-2.27,2.92-.67-1,3.05-10.72,2.46Z" style="fill:#42210b"/></g></g></svg>