<svg xmlns="http://www.w3.org/2000/svg" xmlns:xlink="http://www.w3.org/1999/xlink" viewBox="0 0 141.001 121.20757"><defs><radialGradient id="radial-gradient" cx="350.03667" cy="-569.36078" r="14.27254" gradientTransform="matrix(0.81909, -0.00857, 0.00032, 0.04525, -186.83034, 68.14552)" gradientUnits="userSpaceOnUse"><stop offset="0.03226" stop-color="#fff"/><stop offset="1" stop-color="#fff" stop-opacity="0"/></radialGradient><radialGradient id="radial-gradient-2" cx="215.89169" cy="753.21627" r="14.27177" gradientTransform="matrix(0.00703, 0.59428, -0.03703, 0.00023, 116.16208, -87.49918)" xlink:href="#radial-gradient"/><radialGradient id="radial-gradient-3" cx="-716.54399" cy="647.1278" r="14.27425" gradientTransform="matrix(0.00702, 0.31144, -0.03703, 0.00012, 94.7248, 278.73513)" xlink:href="#radial-gradient"/></defs><title>資產 37</title><g style="isolation:isolate"><g id="圖層_2" data-name="圖層 2"><g id="圖層_1-2" data-name="圖層 1"><path d="M116.3535,99.35143A99.9092,99.9092,0,0,0,98.07,108.61554c3.82207-7.497,7.64418-14.77,11.46587-21.71221Q112.9447,92.94041,116.3535,99.35143Z"/><path d="M7.7655,57.75075c4.21229,16.60221,8.42421,32.44173,12.63613,47.66379,31.98357,12.49257,63.96791-10.64137,95.95188-6.06312q-3.4094-6.42216-6.81764-12.44809C75.61212,76.2652,41.68879,91.73959,7.7655,57.75075Z"/><path d="M141.001,58.80416C112.93094,31.49065,53.46807,19.68387,0,27.96493c8.28471,2.53421,15.88723,8.86946,15.88723,8.86946s-1.55965,3.7036-4.97091,10.91594c37.542-8.19576,99.74206,12.4946,124.04183,35.11619Q137.9794,70.58866,141.001,58.80416Z"/><path d="M127.09516,54.1151A54.11427,54.11427,0,1,0,72.98089,108.229c.53863,0,1.07444-.01052,1.60943-.02629l6.1116,13.0049,10.08941-15.98226A54.13333,54.13333,0,0,0,127.09516,54.1151Z"/><path d="M127.09516,54.1151q0-1.386-.06915-2.75376c-27.47889-5.88966-59.11711,7.37892-76.47343,8.11771A48.28567,48.28567,0,0,1,19.51969,49.34232l-.51358.8961c-.09014,1.28023-.1395,2.57219-.1395,3.87668a54.06529,54.06529,0,0,0,2.586,16.563L71.23523,95.07848a126.4698,126.4698,0,0,1,30.227-8.73153,35.936,35.936,0,0,1,14.72633.349A53.86686,53.86686,0,0,0,127.09516,54.1151Z" style="opacity:0.14"/><polygon points="62.003 52.063 61.8 48.433 69.017 55.352 69.22 58.983 62.003 52.063"/><polygon points="94.068 45.938 85.44 29.515 85.644 33.145 94.271 49.569 94.068 45.938"/><polygon points="85.44 29.515 69.017 55.352 69.22 58.983 85.644 33.145 85.44 29.515"/><polygon points="94.271 49.569 94.068 45.938 106.474 24.017 106.677 27.648 94.271 49.569"/><polygon points="122.96 8.842 96.645 23.873 106.677 27.648 94.271 49.569 85.644 33.145 69.22 58.983 62.003 52.063 70.689 73.798 83.786 50.566 88.55 63.732 92.192 73.798 98.848 64.435 121.135 33.087 130.624 36.656 122.96 8.842"/><polygon points="122.96 8.842 122.757 5.211 130.42 33.026 130.624 36.656 122.96 8.842"/><polygon points="96.645 23.873 96.442 20.242 122.757 5.211 122.96 8.842 96.645 23.873"/><polygon points="122.96 8.842 96.645 23.873 106.677 27.648 94.271 49.569 85.644 33.145 69.22 58.983 62.003 52.063 67.177 65.537 69.038 70.382 72.656 65.521 83.786 50.566 88.55 63.732 92.192 73.798 98.848 64.435 121.135 33.087 130.624 36.656 122.96 8.842"/><ellipse cx="109.7008" cy="16.26693" rx="14.68564" ry="0.76373" transform="translate(6.58016 57.07149) rotate(-30.02319)" style="mix-blend-mode:overlay"/><ellipse cx="99.74086" cy="39.29709" rx="12.02946" ry="0.76373" transform="translate(14.19243 103.90332) rotate(-58.56417)" style="mix-blend-mode:overlay;fill:url(#radial-gradient)"/><ellipse cx="89.85577" cy="41.00515" rx="0.62504" ry="8.72737" transform="translate(-8.77492 46.24622) rotate(-27.57105)" style="mix-blend-mode:overlay;fill:url(#radial-gradient-2)"/><ellipse cx="65.80129" cy="55.66915" rx="0.62504" ry="4.5744" transform="translate(-20.19191 61.50301) rotate(-44.11291)" style="mix-blend-mode:overlay;fill:url(#radial-gradient-3)"/><ellipse cx="126.69004" cy="22.53287" rx="0.76378" ry="14.68557" transform="translate(-1.31996 35.63011) rotate(-15.92691)" style="mix-blend-mode:overlay"/><path d="M7.74326,57.82355c44.41952,28.605,88.83822-27.62448,133.25774.98061q-3.02121,11.77682-6.04286,24.06237C96.77237,69.30482,58.587,112.751,20.40162,105.41455,16.182,90.21915,11.96326,74.40389,7.74326,57.82355Z"/><ellipse cx="29.00337" cy="59.28608" rx="12.3147" ry="3.64291" transform="translate(-13.6905 8.9545) rotate(-14.23798)"/><path d="M40.93977,56.25733l-.015-.06216a.88558.88558,0,0,0-.12445-.28769.75647.75647,0,0,0-.0969-.13139,1.56331,1.56331,0,0,0-.319-.28861,3.07586,3.07586,0,0,0-.52572-.29219,4.72675,4.72675,0,0,0-.75423-.26382,8.62741,8.62741,0,0,0-.99436-.20265c-.36442-.05716-.77705-.09434-1.20988-.11967-.43412-.025-.90858-.02619-1.39056-.01594-.48028.00861-.98943.04371-1.48648.0834-.255.02551-.49914.044-.75253.077q-.18752.02215-.3712.04426-.18664.02587-.36889.051c-.485.06715-.95456.14644-1.38925.22483-.43532.08012-.8374.1606-1.1946.23986-.35645.07437-.66806.15242-.92368.21087-.25577.06145-.456.11458-.59255.14871l-.2093.053.21-.04954c.13692-.03194.33746-.08079.59242-.13908.25489-.055.5651-.12866.91814-.19767.35382-.07374.75037-.14748,1.17978-.22391.42815-.07368.88933-.14782,1.3639-.20913q.17784-.02322.36062-.04694.17868-.01976.362-.03994c.24615-.029.487-.04808.73611-.072.4867-.037.98484-.07,1.454-.07644.47078-.00824.93336-.00491,1.35712.02121.42824.02295.83768.05775,1.20019.11206a8.756,8.756,0,0,1,.99065.19447,6.14927,6.14927,0,0,1,.77072.24973,3.39718,3.39718,0,0,1,.553.27741,2.26878,2.26878,0,0,1,.35571.27367.86915.86915,0,0,1,.1165.1244.71427.71427,0,0,1,.08215.1107.86758.86758,0,0,1,.08894.16279Z"/><rect x="51.65976" y="14.54196" width="61" height="52.8747"/></g></g></g></svg>