<svg xmlns="http://www.w3.org/2000/svg" xmlns:xlink="http://www.w3.org/1999/xlink" viewBox="0 0 141 121.21"><defs><linearGradient id="linear-gradient" x1="101.01" y1="97.05" x2="115.97" y2="100.86" gradientUnits="userSpaceOnUse"><stop offset="0" stop-color="#f8b400"/><stop offset="0.34" stop-color="#f9ad06"/><stop offset="0.82" stop-color="#fd9a16"/><stop offset="1" stop-color="#ff911e"/></linearGradient><linearGradient id="linear-gradient-2" x1="-488.02" y1="-885.32" x2="-372.52" y2="-885.32" gradientTransform="translate(257.02 1057.13) rotate(14.28)" gradientUnits="userSpaceOnUse"><stop offset="0" stop-color="#c28d00"/><stop offset="0.37" stop-color="#c18605"/><stop offset="0.89" stop-color="#be7313"/><stop offset="1" stop-color="#bd6e17"/></linearGradient><linearGradient id="linear-gradient-3" x1="-0.25" y1="28.95" x2="139.62" y2="64.55" xlink:href="#linear-gradient"/><linearGradient id="未命名漸層_29" x1="34.72" y1="15.85" x2="111.24" y2="92.38" gradientUnits="userSpaceOnUse"><stop offset="0" stop-color="#e62c14"/><stop offset="1" stop-color="#c72c14"/></linearGradient><linearGradient id="linear-gradient-4" x1="7.74" y1="78.34" x2="141" y2="78.34" gradientUnits="userSpaceOnUse"><stop offset="0" stop-color="#f8d04c"/><stop offset="0.28" stop-color="#f9cc45"/><stop offset="0.67" stop-color="#fcc232"/><stop offset="1" stop-color="#ffb71d"/></linearGradient><linearGradient id="linear-gradient-5" x1="-5350.22" y1="962.31" x2="-5348.68" y2="1011.96" gradientTransform="matrix(-0.9, 0.07, 0.1, 0.89, -4822.33, -496.2)" gradientUnits="userSpaceOnUse"><stop offset="0" stop-color="#fff"/><stop offset="1" stop-color="#fff" stop-opacity="0"/></linearGradient></defs><title>越南彩_越南文</title><g id="圖層_2" data-name="圖層 2"><g id="圖層_1-2" data-name="圖層 1"><path d="M116.35,99.35a99.91,99.91,0,0,0-18.28,9.26c3.82-7.5,7.64-14.77,11.47-21.71Q112.94,92.94,116.35,99.35Z" style="fill:url(#linear-gradient)"/><path d="M7.77,57.75C12,74.35,16.19,90.19,20.4,105.41c32,12.49,64-10.64,96-6.06q-3.41-6.42-6.82-12.45C75.61,76.27,41.69,91.74,7.77,57.75Z" style="fill:url(#linear-gradient-2)"/><path d="M141,58.8C112.93,31.49,53.47,19.68,0,28c8.28,2.53,15.89,8.87,15.89,8.87s-1.56,3.7-5,10.92c37.54-8.2,99.74,12.49,124,35.12Q138,70.59,141,58.8Z" style="fill:url(#linear-gradient-3)"/><path d="M127.1,54.12A54.11,54.11,0,1,0,73,108.23l1.61,0,6.11,13,10.09-16A54.13,54.13,0,0,0,127.1,54.12Z" style="fill:url(#未命名漸層_29)"/><path d="M127.1,54.12q0-1.39-.07-2.75c-27.48-5.89-59.12,7.38-76.47,8.12a48.29,48.29,0,0,1-31-10.14l-.51.9c-.09,1.28-.14,2.57-.14,3.88a54.07,54.07,0,0,0,2.59,16.56l49.78,24.4a126.47,126.47,0,0,1,30.23-8.73,35.94,35.94,0,0,1,14.73.35A53.87,53.87,0,0,0,127.1,54.12Z" style="opacity:0.14"/><path d="M7.74,57.82C52.16,86.43,96.58,30.2,141,58.8q-3,11.78-6,24.06C96.77,69.3,58.59,112.75,20.4,105.41,16.18,90.22,12,74.4,7.74,57.82Z" style="fill:url(#linear-gradient-4)"/><polygon points="71.69 12.19 76.37 26.56 91.48 26.56 79.26 35.45 83.93 49.83 71.69 40.94 59.47 49.83 64.14 35.45 51.91 26.56 67.03 26.56 71.69 12.19" style="fill:gold"/><path d="M32.75,40.38c2.06,18.23,21.74,31.63,44,29.93s38.56-17.87,36.5-36.1S91.47,2.58,69.25,4.28,30.69,22.15,32.75,40.38Z" style="fill:url(#linear-gradient-5)"/><path d="M32,79.54l-.74.23a.5.5,0,0,0-.34.32.38.38,0,0,0,0,.19l1,6.31,5.19-7.79a1,1,0,0,0,.12-.22c0-.1,0-.15-.19-.13l-.73.1.11-.34L39,77.6l-.11.34-.67.22a.81.81,0,0,0-.33.17,2.32,2.32,0,0,0-.29.35L29.28,91.18l-.56.13L27.19,81.08a.57.57,0,0,0-.1-.26s-.13-.06-.27,0l-.63.08.11-.34,5.79-1.33Z" style="fill:#42210b"/><path d="M41.13,77.68a.53.53,0,0,0-.3,0h-.61l.11-.34L46,76l-.11.34-.69.29a1.5,1.5,0,0,0-.38.2.59.59,0,0,0-.16.27L41.48,87.41c0,.13,0,.21,0,.24a.53.53,0,0,0,.3,0h.61l-.11.34-5.72,1.31.11-.34.69-.29a1.46,1.46,0,0,0,.38-.2.58.58,0,0,0,.16-.28l3.23-10.31C41.17,77.79,41.17,77.71,41.13,77.68Z" style="fill:#42210b"/><path d="M44.5,87.06a1.5,1.5,0,0,0,.38-.2.59.59,0,0,0,.16-.28l3.23-10.31c0-.13,0-.21,0-.24a.53.53,0,0,0-.3,0h-.61l.11-.34,10.81-2.48-1,3.35-.44.1a6.13,6.13,0,0,0-.17-1.52.93.93,0,0,0-.63-.65,3.16,3.16,0,0,0-1.54.08L52,75.12l-1.6,5.1,4.53-1-.16.52-4.53,1-1.68,5.38,2.67-.61a5.45,5.45,0,0,0,1.73-.68,5,5,0,0,0,1.22-1.11,18,18,0,0,0,1.24-1.86l.46-.1-1.07,3.42L43.7,87.69l.11-.34Zm3.34,2.68q-.3-.24-.1-.86a2.19,2.19,0,0,1,.7-1,2.73,2.73,0,0,1,1.16-.58,1.1,1.1,0,0,1,.95.09q.3.24.11.86a2.19,2.19,0,0,1-.7,1,2.71,2.71,0,0,1-1.16.58A1.09,1.09,0,0,1,47.85,89.75Zm9-17.43-.27.3A8.49,8.49,0,0,1,54.37,72a28.67,28.67,0,0,1-3,1.79l-.11-.21a34.62,34.62,0,0,0,3.09-2.89l.91-.21A7,7,0,0,0,56.89,72.31Z" style="fill:#42210b"/><path d="M64.73,82.32a.53.53,0,0,0,.3,0h.61l-.11.34L59.81,84l.11-.34.69-.29a1.46,1.46,0,0,0,.38-.2.58.58,0,0,0,.16-.28L64.5,72.21l-.4.09a4.87,4.87,0,0,0-2.94,1.82q-.48.62-1.31,1.93l-.39.09,1.09-3.47L72.33,70l-1.09,3.47-.39.09A9,9,0,0,0,70.64,72a1,1,0,0,0-.62-.69,2.69,2.69,0,0,0-1.55,0l-.4.09L64.73,82.08C64.69,82.2,64.69,82.28,64.73,82.32Z" style="fill:#42210b"/><path d="M80,68.77a.52.52,0,0,0-.3,0H79.1l.11-.34,4.86-1.11L87.53,73l1.92-6.13c0-.13,0-.2,0-.23a.6.6,0,0,0-.29,0h-.59l.11-.34,2.67-.61-.11.34-.69.29a1.51,1.51,0,0,0-.38.2.59.59,0,0,0-.16.28l-3.5,11.17-.63.14-5.39-8.89L77.34,79.2c0,.13,0,.2,0,.23a.59.59,0,0,0,.29,0h.59l-.11.34-2.67.61.11-.34.69-.29a1.49,1.49,0,0,0,.38-.2.6.6,0,0,0,.16-.28L80,69C80,68.88,80,68.8,80,68.77Z" style="fill:#42210b"/><path d="M96,75.4l.78-.24a.44.44,0,0,0,.3-.24.45.45,0,0,0,0-.19l-.37-2.24-4.07.93-1.84,2.75a.85.85,0,0,0-.12.22c0,.1,0,.15.19.13l.73-.1-.11.34-2.67.61L88.9,77l.67-.22a.83.83,0,0,0,.33-.17,2.42,2.42,0,0,0,.29-.35l8.43-12.5.56-.13,1.57,10.21a.56.56,0,0,0,.1.27s.13.06.27,0l.63-.08-.11.34-5.79,1.33ZM96.61,72,96,68.34l-3,4.5Z" style="fill:#42210b"/><path d="M104.74,72.92c0,.13,0,.2,0,.23a.6.6,0,0,0,.29,0h.59l-.11.34-2.67.61.11-.34.69-.29a1.49,1.49,0,0,0,.38-.2.58.58,0,0,0,.16-.28l3.23-10.31c0-.13,0-.21,0-.24a.53.53,0,0,0-.3,0h-.61l.11-.34,4.49-1,1.22,6.82,5.62-8.38,4.63-1.06-.11.34-.69.29a1.5,1.5,0,0,0-.38.2.59.59,0,0,0-.16.27L118,69.86c0,.13,0,.21,0,.24a.53.53,0,0,0,.3,0h.61l-.11.34-5.68,1.3.11-.34.67-.28a1.59,1.59,0,0,0,.36-.19.55.55,0,0,0,.16-.27l3-9.72-7.76,11.59-.53.12-1.53-9Z" style="fill:#42210b"/></g></g></svg>