<svg xmlns="http://www.w3.org/2000/svg" xmlns:xlink="http://www.w3.org/1999/xlink" viewBox="0 0 141 121.21"><defs><linearGradient id="linear-gradient" x1="101.01" y1="97.05" x2="115.97" y2="100.86" gradientUnits="userSpaceOnUse"><stop offset="0" stop-color="#f8b400"/><stop offset="0.34" stop-color="#f9ad06"/><stop offset="0.82" stop-color="#fd9a16"/><stop offset="1" stop-color="#ff911e"/></linearGradient><linearGradient id="linear-gradient-2" x1="-783.79" y1="-1139.46" x2="-668.3" y2="-1139.46" gradientTransform="translate(480.99 1376.36) rotate(14.28)" gradientUnits="userSpaceOnUse"><stop offset="0" stop-color="#c28d00"/><stop offset="0.37" stop-color="#c18605"/><stop offset="0.89" stop-color="#be7313"/><stop offset="1" stop-color="#bd6e17"/></linearGradient><linearGradient id="linear-gradient-3" x1="-0.25" y1="28.95" x2="139.62" y2="64.55" xlink:href="#linear-gradient"/><linearGradient id="未命名漸層_29" x1="34.72" y1="15.85" x2="111.24" y2="92.38" gradientUnits="userSpaceOnUse"><stop offset="0" stop-color="#e62c14"/><stop offset="1" stop-color="#c72c14"/></linearGradient><linearGradient id="linear-gradient-4" x1="7.74" y1="78.34" x2="141" y2="78.34" gradientUnits="userSpaceOnUse"><stop offset="0" stop-color="#f8d04c"/><stop offset="0.28" stop-color="#f9cc45"/><stop offset="0.67" stop-color="#fcc232"/><stop offset="1" stop-color="#ffb71d"/></linearGradient><linearGradient id="linear-gradient-5" x1="-7930.36" y1="940.8" x2="-7928.81" y2="990.45" gradientTransform="matrix(-0.9, 0.07, 0.1, 0.89, -7132.49, -299.56)" gradientUnits="userSpaceOnUse"><stop offset="0" stop-color="#fff"/><stop offset="1" stop-color="#fff" stop-opacity="0"/></linearGradient></defs><title>越南5分_越</title><g id="圖層_2" data-name="圖層 2"><g id="圖層_1-2" data-name="圖層 1"><path d="M116.35,99.35a99.91,99.91,0,0,0-18.28,9.26c3.82-7.5,7.64-14.77,11.47-21.71Q112.94,92.94,116.35,99.35Z" style="fill:url(#linear-gradient)"/><path d="M7.77,57.75C12,74.35,16.19,90.19,20.4,105.41c32,12.49,64-10.64,96-6.06q-3.41-6.42-6.82-12.45C75.61,76.27,41.69,91.74,7.77,57.75Z" style="fill:url(#linear-gradient-2)"/><path d="M141,58.8C112.93,31.49,53.47,19.68,0,28c8.28,2.53,15.89,8.87,15.89,8.87s-1.56,3.7-5,10.92c37.54-8.2,99.74,12.49,124,35.12Q138,70.59,141,58.8Z" style="fill:url(#linear-gradient-3)"/><path d="M127.1,54.12A54.11,54.11,0,1,0,73,108.23l1.61,0,6.11,13,10.09-16A54.13,54.13,0,0,0,127.1,54.12Z" style="fill:url(#未命名漸層_29)"/><path d="M127.1,54.12q0-1.39-.07-2.75c-27.48-5.89-59.12,7.38-76.47,8.12a48.29,48.29,0,0,1-31-10.14l-.51.9c-.09,1.28-.14,2.57-.14,3.88a54.07,54.07,0,0,0,2.59,16.56l49.78,24.4a126.47,126.47,0,0,1,30.23-8.73,35.94,35.94,0,0,1,14.73.35A53.87,53.87,0,0,0,127.1,54.12Z" style="opacity:0.14"/><path d="M7.74,57.82C52.16,86.43,96.58,30.2,141,58.8q-3,11.78-6,24.06C96.77,69.3,58.59,112.75,20.4,105.41,16.18,90.22,12,74.4,7.74,57.82Z" style="fill:url(#linear-gradient-4)"/><polygon points="71.69 12.19 76.37 26.56 91.48 26.56 79.26 35.45 83.93 49.83 71.69 40.94 59.47 49.83 64.14 35.45 51.91 26.56 67.03 26.56 71.69 12.19" style="fill:gold"/><path d="M32.75,40.38c2.06,18.23,21.74,31.63,44,29.93s38.56-17.87,36.5-36.1S91.47,2.58,69.25,4.28,30.69,22.15,32.75,40.38Z" style="fill:url(#linear-gradient-5)"/><path d="M37.54,77l-.74.23a.5.5,0,0,0-.34.32.37.37,0,0,0,0,.19l1,6.31,5.19-7.79a1.09,1.09,0,0,0,.12-.22c0-.1,0-.15-.19-.13l-.73.1.11-.34,2.67-.61-.11.34-.67.22a.82.82,0,0,0-.33.17,2.23,2.23,0,0,0-.29.35L34.82,88.69l-.56.13L32.74,78.59a.59.59,0,0,0-.1-.26s-.13-.06-.27,0l-.63.08.11-.34,5.79-1.33Z" style="fill:#42210b"/><path d="M46.61,75.21a.54.54,0,0,0-.3,0H45.7l.11-.34,4.86-1.11,3.46,5.68,1.92-6.13c0-.13,0-.2,0-.23a.61.61,0,0,0-.29,0h-.59l.11-.34,2.67-.61-.11.34-.69.29a1.52,1.52,0,0,0-.38.2.6.6,0,0,0-.16.28l-3.5,11.17-.63.14-5.39-8.89L43.93,85.64c0,.13,0,.2,0,.23a.62.62,0,0,0,.29,0h.59l-.11.34L42,86.86l.11-.34.69-.29a1.54,1.54,0,0,0,.38-.2.59.59,0,0,0,.16-.28l3.23-10.31C46.64,75.32,46.65,75.24,46.61,75.21Z" style="fill:#42210b"/><path d="M62.88,82.07a4.32,4.32,0,0,1-1.55-.12L62.47,79l.4-.09A6.67,6.67,0,0,0,63,80.42a1.27,1.27,0,0,0,.57.84,1.84,1.84,0,0,0,1.36.07A3.85,3.85,0,0,0,67,80.06a6.82,6.82,0,0,0,1.33-2.48,3.31,3.31,0,0,0,.14-2.29q-.35-.72-1.95-.36a11,11,0,0,0-2.14.75l-.49.11L66,70.2l7.6-1.74L72.85,71l-7.23,1.66-1,2.55q.8-.36,1.41-.56c.41-.14.89-.27,1.44-.39q3.11-.71,4.09,0T72,76.59a6.15,6.15,0,0,1-2.37,3.26,12.68,12.68,0,0,1-4.53,1.87A13.69,13.69,0,0,1,62.88,82.07Z" style="fill:#42210b"/><path d="M71.47,83.43l.66-.28a1.5,1.5,0,0,0,.38-.2.59.59,0,0,0,.16-.28L75.91,72.3c0-.13,0-.21,0-.24a.52.52,0,0,0-.3,0H75l.1-.31,4.37-1.48.3-.07-.31,1a8.2,8.2,0,0,1,3.33-1.59q1.95-.45,2.77.32t.13,3a8,8,0,0,1-2.2,3.63,7.53,7.53,0,0,1-3.43,1.79q-1.95.45-2.67-.43l-1.25,4c0,.13,0,.21,0,.24a.54.54,0,0,0,.3,0H77l-.1.31-5.58,1.28Zm7.91-11.8-1.77,5.65a1.51,1.51,0,0,0,.7.49,1.76,1.76,0,0,0,1,0,2.31,2.31,0,0,0,1.11-.61,4.47,4.47,0,0,0,.88-1.29,17,17,0,0,0,.82-2.19,6.76,6.76,0,0,0,.47-2.64c-.08-.49-.45-.66-1.09-.52A5.09,5.09,0,0,0,79.38,71.64Z" style="fill:#42210b"/><path d="M97.68,73.58a.52.52,0,0,0,.3,0h.57l-.1.31-3.65.84c-.32.07-.52,0-.61-.08s-.09-.35,0-.67l1.64-5.22a1.51,1.51,0,0,0,.09-1q-.15-.27-.75-.13A6.36,6.36,0,0,0,92.77,69l-1.86,5.93c0,.13,0,.21,0,.25s.13.06.29.05l.56,0-.1.31-5.54,1.27.1-.31.66-.28a1.44,1.44,0,0,0,.38-.2.59.59,0,0,0,.16-.28l3.25-10.38c0-.12,0-.21,0-.24a.52.52,0,0,0-.3,0h-.57l.1-.31,4.37-1.48.33-.08-1.65,5.26a12.48,12.48,0,0,1,1.9-1.27,8.6,8.6,0,0,1,2.24-.86q1.63-.37,2.13.14t.07,1.85l-1.58,5.05C97.65,73.47,97.64,73.55,97.68,73.58Z" style="fill:#42210b"/><path d="M109.7,64.32a.53.53,0,0,0-.3,0h-.57l.1-.31,4.41-1.49.3-.07-2.45,7.83c0,.13,0,.21,0,.24a.52.52,0,0,0,.3,0h.57l-.1.31-3.56.82q-.51.12-.66,0c-.1-.11-.1-.32,0-.63l.06-.19a11.72,11.72,0,0,1-1.88,1.28,8.69,8.69,0,0,1-2.26.87q-1.63.37-2.12-.14t-.07-1.85L103,66.1c0-.13,0-.21,0-.24a.53.53,0,0,0-.3,0h-.57l.1-.31L106.6,64l.3-.07-2,6.49a1.52,1.52,0,0,0-.09,1c.1.18.35.22.75.13a6.15,6.15,0,0,0,2.39-1.34l1.79-5.72Q109.76,64.37,109.7,64.32Zm2-4.32a1.21,1.21,0,0,1,0,.82,22.4,22.4,0,0,1-2.13,1.1q-1.27.59-2.19.92l0-.17.82-.63,1.26-1q1.06-.84,1.75-1.49A.74.74,0,0,1,111.73,60Z" style="fill:#42210b"/><path d="M115.68,62.65l.14-.45a3.8,3.8,0,0,0,.83-.27,3.18,3.18,0,0,0,.62-.43l4-3.46.16,0-1,3.14,2.26-.52-.14.45-2.26.52-1.81,5.77a2.2,2.2,0,0,0-.16,1.11c.06.19.26.25.59.17a2.26,2.26,0,0,0,.73-.31,5.31,5.31,0,0,0,.82-.68l.18.26a7.44,7.44,0,0,1-3.64,2q-1.46.33-1.9-.12t0-1.73l1.77-5.63Z" style="fill:#42210b"/></g></g></svg>