<svg xmlns="http://www.w3.org/2000/svg" xmlns:xlink="http://www.w3.org/1999/xlink" viewBox="0 0 141 121.21"><defs><linearGradient id="linear-gradient" x1="101.01" y1="97.05" x2="115.97" y2="100.86" gradientUnits="userSpaceOnUse"><stop offset="0" stop-color="#f8b400"/><stop offset="0.34" stop-color="#f9ad06"/><stop offset="0.82" stop-color="#fd9a16"/><stop offset="1" stop-color="#ff911e"/></linearGradient><linearGradient id="linear-gradient-2" x1="326.43" y1="-1603.39" x2="441.92" y2="-1603.39" gradientTransform="translate(-709.33 1552.17) rotate(14.28)" gradientUnits="userSpaceOnUse"><stop offset="0" stop-color="#c28d00"/><stop offset="0.37" stop-color="#c18605"/><stop offset="0.89" stop-color="#be7313"/><stop offset="1" stop-color="#bd6e17"/></linearGradient><linearGradient id="linear-gradient-3" x1="-0.25" y1="28.95" x2="139.62" y2="64.55" xlink:href="#linear-gradient"/><linearGradient id="未命名漸層_29" x1="34.72" y1="15.85" x2="111.24" y2="92.38" gradientUnits="userSpaceOnUse"><stop offset="0" stop-color="#e62c14"/><stop offset="1" stop-color="#c72c14"/></linearGradient><linearGradient id="linear-gradient-4" x1="7.74" y1="78.34" x2="141" y2="78.34" gradientUnits="userSpaceOnUse"><stop offset="0" stop-color="#f8d04c"/><stop offset="0.28" stop-color="#f9cc45"/><stop offset="0.67" stop-color="#fcc232"/><stop offset="1" stop-color="#ffb71d"/></linearGradient><linearGradient id="linear-gradient-5" x1="-10079.9" y1="1587.35" x2="-10078.36" y2="1636.99" gradientTransform="matrix(-0.9, 0.07, 0.1, 0.89, -9123.89, -726.64)" gradientUnits="userSpaceOnUse"><stop offset="0" stop-color="#fff"/><stop offset="1" stop-color="#fff" stop-opacity="0"/></linearGradient></defs><title>GLI_lottery</title><g id="圖層_2" data-name="圖層 2"><g id="圖層_1-2" data-name="圖層 1"><path d="M116.35,99.35a99.91,99.91,0,0,0-18.28,9.26c3.82-7.5,7.64-14.77,11.47-21.71Q112.94,92.94,116.35,99.35Z" style="fill:url(#linear-gradient)"/><path d="M7.77,57.75C12,74.35,16.19,90.19,20.4,105.41c32,12.49,64-10.64,96-6.06q-3.41-6.42-6.82-12.45C75.61,76.27,41.69,91.74,7.77,57.75Z" style="fill:url(#linear-gradient-2)"/><path d="M141,58.8C112.93,31.49,53.47,19.68,0,28c8.28,2.53,15.89,8.87,15.89,8.87s-1.56,3.7-5,10.92c37.54-8.2,99.74,12.49,124,35.12Q138,70.59,141,58.8Z" style="fill:url(#linear-gradient-3)"/><path d="M127.1,54.12A54.11,54.11,0,1,0,73,108.23l1.61,0,6.11,13,10.09-16A54.13,54.13,0,0,0,127.1,54.12Z" style="fill:url(#未命名漸層_29)"/><path d="M127.1,54.12q0-1.39-.07-2.75c-27.48-5.89-59.12,7.38-76.47,8.12a48.29,48.29,0,0,1-31-10.14l-.51.9c-.09,1.28-.14,2.57-.14,3.88a54.07,54.07,0,0,0,2.59,16.56l49.78,24.4a126.47,126.47,0,0,1,30.23-8.73,35.94,35.94,0,0,1,14.73.35A53.87,53.87,0,0,0,127.1,54.12Z" style="opacity:0.14"/><path d="M7.74,57.82C52.16,86.43,96.58,30.2,141,58.8q-3,11.78-6,24.06C96.77,69.3,58.59,112.75,20.4,105.41,16.18,90.22,12,74.4,7.74,57.82Z" style="fill:url(#linear-gradient-4)"/><path d="M32.75,40.38c2.06,18.23,21.74,31.63,44,29.93s38.56-17.87,36.5-36.1S91.47,2.58,69.25,4.28,30.69,22.15,32.75,40.38Z" style="fill:url(#linear-gradient-5)"/><path d="M40.26,88.15,26.92,91.21l4.29-13.7,5-1.15L33,86.74l8.31-1.91Z" style="fill:#42210b"/><path d="M55.9,81.68a5.3,5.3,0,0,1-1.73,2.52,7.12,7.12,0,0,1-3,1.45l-6.42,1.47a2,2,0,0,1-1.92-.3,1.87,1.87,0,0,1-.28-2.08l1.29-4.12a5,5,0,0,1,1.51-2.29,5.73,5.73,0,0,1,2.49-1.26l6.7-1.54a2.89,2.89,0,0,1,2.37.15q.71.55.29,1.87Zm-4.26,1,1.22-3.9L48,79.89l-1.22,3.9Z" style="fill:#42210b"/><path d="M66.79,82.07l-6.08,1.39q-1.87.43-2.35-.21t.13-2.38l1.24-4-1.2.28L59,75.73l1.2-.28,1.55-4.94,4.4-1-1.55,4.94,4.86-1.11L69,74.78l-4.86,1.11L62.8,80.16,67.74,79Z" style="fill:#42210b"/><path d="M78.32,79.43l-6.08,1.39q-1.87.43-2.35-.21T70,78.23l1.24-4-1.2.28.46-1.45,1.2-.28,1.55-4.94,4.4-1L76.12,71.8,81,70.69l-.46,1.45-4.86,1.11-1.34,4.27,4.94-1.13Z" style="fill:#42210b"/><path d="M94,71.91,85,74l-.43,1.36,6.64-1.52-.9,2.87-7.67,1.76q-3.24.74-2.36-2.07l1.35-4.31a5,5,0,0,1,1.6-2.37A6.62,6.62,0,0,1,86,68.32l7-1.61q2.75-.63,1.83,2.31Zm-3.45-.58L91,69.88l-5,1.16-.46,1.45Z" style="fill:#42210b"/><path d="M108,68.14l-4,.93.68-2.16-3.61.83-2.19,7-4.36,1,3.15-10.06,4.36-1-.18.58.54,0a3.23,3.23,0,0,1,1-.8,6.51,6.51,0,0,1,1.26-.39l2.6-.6q1.37-.31,1.75.06T109,65Z" style="fill:#42210b"/><path d="M124.41,59.52,115.22,72a5.92,5.92,0,0,1-1.64,1.62,7.28,7.28,0,0,1-1.94.67l-3.54.81.88-2.8,3.35-.77-1.68-8.84,4.51-1,.44,3a6.61,6.61,0,0,1-.06,2l.67-.15a12.68,12.68,0,0,1,1.28-2.23l2.61-3.7Z" style="fill:#42210b"/><path d="M63.4,39.05q-2,6.46-8,6.46l-13.28,0q-6,0-4.07-6.45l3.61-11.8a9.8,9.8,0,0,1,3-4.94,8.39,8.39,0,0,1,5.25-1.52l18.82,0-1.81,5.92-17.67,0L45.33,39.52,56,39.5l1-3.29h-3.3l1.57-5.14,10.57,0Z" style="fill:#fff"/><path d="M85,45.47l-21.1,0L71.44,20.8h7.95L73.65,39.51l13.15,0Z" style="fill:#fff"/><path d="M95,45.46H86.87l7.56-24.71h8.12Z" style="fill:#fff"/></g></g></svg>