<svg xmlns="http://www.w3.org/2000/svg" xmlns:xlink="http://www.w3.org/1999/xlink" viewBox="0 0 141 121.21"><defs><linearGradient id="linear-gradient" x1="101.01" y1="97.05" x2="115.97" y2="100.86" gradientUnits="userSpaceOnUse"><stop offset="0" stop-color="#f8b400"/><stop offset="0.34" stop-color="#f9ad06"/><stop offset="0.82" stop-color="#fd9a16"/><stop offset="1" stop-color="#ff911e"/></linearGradient><linearGradient id="linear-gradient-2" x1="-773.77" y1="-1059.42" x2="-658.28" y2="-1059.42" gradientTransform="translate(491.02 1296.32) rotate(14.28)" gradientUnits="userSpaceOnUse"><stop offset="0" stop-color="#c28d00"/><stop offset="0.37" stop-color="#c18605"/><stop offset="0.89" stop-color="#be7313"/><stop offset="1" stop-color="#bd6e17"/></linearGradient><linearGradient id="linear-gradient-3" x1="-0.25" y1="28.95" x2="139.62" y2="64.55" xlink:href="#linear-gradient"/><linearGradient id="未命名漸層_29" x1="34.72" y1="15.85" x2="111.24" y2="92.38" gradientUnits="userSpaceOnUse"><stop offset="0" stop-color="#e62c14"/><stop offset="1" stop-color="#c72c14"/></linearGradient><linearGradient id="linear-gradient-4" x1="7.74" y1="78.34" x2="141" y2="78.34" gradientUnits="userSpaceOnUse"><stop offset="0" stop-color="#f8d04c"/><stop offset="0.28" stop-color="#f9cc45"/><stop offset="0.67" stop-color="#fcc232"/><stop offset="1" stop-color="#ffb71d"/></linearGradient><linearGradient id="linear-gradient-5" x1="-7246.74" y1="913.03" x2="-7245.19" y2="962.68" gradientTransform="matrix(-0.9, 0.07, 0.1, 0.89, -6517.04, -321.89)" gradientUnits="userSpaceOnUse"><stop offset="0" stop-color="#fff"/><stop offset="1" stop-color="#fff" stop-opacity="0"/></linearGradient></defs><title>越南5分_英</title><g id="圖層_2" data-name="圖層 2"><g id="圖層_1-2" data-name="圖層 1"><path d="M116.35,99.35a99.91,99.91,0,0,0-18.28,9.26c3.82-7.5,7.64-14.77,11.47-21.71Q112.94,92.94,116.35,99.35Z" style="fill:url(#linear-gradient)"/><path d="M7.77,57.75C12,74.35,16.19,90.19,20.4,105.41c32,12.49,64-10.64,96-6.06q-3.41-6.42-6.82-12.45C75.61,76.27,41.69,91.74,7.77,57.75Z" style="fill:url(#linear-gradient-2)"/><path d="M141,58.8C112.93,31.49,53.47,19.68,0,28c8.28,2.53,15.89,8.87,15.89,8.87s-1.56,3.7-5,10.92c37.54-8.2,99.74,12.49,124,35.12Q138,70.59,141,58.8Z" style="fill:url(#linear-gradient-3)"/><path d="M127.1,54.12A54.11,54.11,0,1,0,73,108.23l1.61,0,6.11,13,10.09-16A54.13,54.13,0,0,0,127.1,54.12Z" style="fill:url(#未命名漸層_29)"/><path d="M127.1,54.12q0-1.39-.07-2.75c-27.48-5.89-59.12,7.38-76.47,8.12a48.29,48.29,0,0,1-31-10.14l-.51.9c-.09,1.28-.14,2.57-.14,3.88a54.07,54.07,0,0,0,2.59,16.56l49.78,24.4a126.47,126.47,0,0,1,30.23-8.73,35.94,35.94,0,0,1,14.73.35A53.87,53.87,0,0,0,127.1,54.12Z" style="opacity:0.14"/><path d="M7.74,57.82C52.16,86.43,96.58,30.2,141,58.8q-3,11.78-6,24.06C96.77,69.3,58.59,112.75,20.4,105.41,16.18,90.22,12,74.4,7.74,57.82Z" style="fill:url(#linear-gradient-4)"/><polygon points="71.69 12.19 76.37 26.56 91.48 26.56 79.26 35.45 83.93 49.83 71.69 40.94 59.47 49.83 64.14 35.45 51.91 26.56 67.03 26.56 71.69 12.19" style="fill:gold"/><path d="M32.75,40.38c2.06,18.23,21.74,31.63,44,29.93s38.56-17.87,36.5-36.1S91.47,2.58,69.25,4.28,30.69,22.15,32.75,40.38Z" style="fill:url(#linear-gradient-5)"/><path d="M43.81,77.44,35.58,89.66l-4.38,1.07-1.65-9.8,3.91-1,.68,5.39a10.47,10.47,0,0,1,0,1.45l.5-.12q.57-1.05,1-1.7l4.27-6.59Z" style="fill:#42210b"/><path d="M54.23,85.11,50.58,86l-2.66-4.82a7.82,7.82,0,0,1-.47-1.3l-.52.27a9.21,9.21,0,0,1-.39,2.07L45,87.36l-3.51.86,3.28-11L49.58,76l1.92,3.61A10.91,10.91,0,0,1,52,80.94l.52-.25a10,10,0,0,1,.42-2.1L54,75l3.51-.86Z" style="fill:#42210b"/><path d="M74.08,78.37A3.39,3.39,0,0,1,72.93,80a5.08,5.08,0,0,1-2.12,1L62,83.22l.81-2.73,7.91-1.93.54-1.81-7.91,1.93,1.93-6.47,11-2.68-.81,2.73-7.38,1.8-.53,1.77L73,74.51q1.37-.33,1.79,0t.07,1.43Z" style="fill:#42210b"/><path d="M91.21,76.1l-1.8.44q-2.25.55-1.58-1.67l1-3.4-2.76.67-1.67,5.62-3.27.8,1.67-5.62L80,73.63l-1.67,5.62L75,80,77.42,72l3.32-.81-.32,1.08a10.41,10.41,0,0,1,1.39-1.16,3.37,3.37,0,0,1,1-.43l2.05-.5q1.23-.3,1.39.66a4.31,4.31,0,0,1,1.08-1.07,4,4,0,0,1,1.21-.49l2.12-.52c.89-.22,1.44-.22,1.64,0s.19.74-.07,1.61l-1,3.46.7-.17Z" style="fill:#42210b"/><path d="M96,74.93l-3.73.91,2.38-8L98.37,67Zm2.82-9.45-3.73.91.46-1.56,3.73-.91Z" style="fill:#42210b"/><path d="M109.06,71.75l-2.19.53a1.57,1.57,0,0,1-1.33-.11.85.85,0,0,1-.21-1l1.2-4-4.08,1-1.67,5.62-3.38.82,2.41-8.09,3.37-.82-.33,1.12A7.61,7.61,0,0,1,106,65l1.34-.33q1.85-.45,2.38.1t0,2.11L109,69.46l.8-.2Z" style="fill:#42210b"/><path d="M121,67.29a3.21,3.21,0,0,1-2.59,2.17L110,71.51l.74-2.49L118,67.27l.29-1L113,67.57q-2,.48-1.4-1.4l.29-1a3.17,3.17,0,0,1,2.5-2.25l7.31-1.78L121,63.63l-6.06,1.48-.29,1,5.19-1.27q2.09-.51,1.52,1.41Z" style="fill:#42210b"/></g></g></svg>