<svg xmlns="http://www.w3.org/2000/svg" xmlns:xlink="http://www.w3.org/1999/xlink" viewBox="0 0 141 121.21"><defs><linearGradient id="linear-gradient" x1="101.01" y1="97.05" x2="115.97" y2="100.86" gradientUnits="userSpaceOnUse"><stop offset="0" stop-color="#f8b400"/><stop offset="0.34" stop-color="#f9ad06"/><stop offset="0.82" stop-color="#fd9a16"/><stop offset="1" stop-color="#ff911e"/></linearGradient><linearGradient id="linear-gradient-2" x1="319.04" y1="-1645.45" x2="434.53" y2="-1645.45" gradientTransform="translate(-712.54 1594.75) rotate(14.28)" gradientUnits="userSpaceOnUse"><stop offset="0" stop-color="#c28d00"/><stop offset="0.37" stop-color="#c18605"/><stop offset="0.89" stop-color="#be7313"/><stop offset="1" stop-color="#bd6e17"/></linearGradient><linearGradient id="linear-gradient-3" x1="-0.25" y1="28.95" x2="139.62" y2="64.55" xlink:href="#linear-gradient"/><linearGradient id="未命名漸層_29" x1="34.72" y1="15.85" x2="111.24" y2="92.38" gradientUnits="userSpaceOnUse"><stop offset="0" stop-color="#e62c14"/><stop offset="1" stop-color="#c72c14"/></linearGradient><linearGradient id="linear-gradient-4" x1="7.74" y1="78.34" x2="141" y2="78.34" gradientUnits="userSpaceOnUse"><stop offset="0" stop-color="#f8d04c"/><stop offset="0.28" stop-color="#f9cc45"/><stop offset="0.67" stop-color="#fcc232"/><stop offset="1" stop-color="#ffb71d"/></linearGradient><linearGradient id="linear-gradient-5" x1="-10442.4" y1="1601.06" x2="-10440.86" y2="1650.71" gradientTransform="matrix(-0.9, 0.07, 0.1, 0.89, -9450.14, -713.9)" gradientUnits="userSpaceOnUse"><stop offset="0" stop-color="#fff"/><stop offset="1" stop-color="#fff" stop-opacity="0"/></linearGradient></defs><title>Xổ Số GLI</title><g id="圖層_2" data-name="圖層 2"><g id="圖層_1-2" data-name="圖層 1"><path d="M116.35,99.35a99.91,99.91,0,0,0-18.28,9.26c3.82-7.5,7.64-14.77,11.47-21.71Q112.94,92.94,116.35,99.35Z" style="fill:url(#linear-gradient)"/><path d="M7.77,57.75C12,74.35,16.19,90.19,20.4,105.41c32,12.49,64-10.64,96-6.06q-3.41-6.42-6.82-12.45C75.61,76.27,41.69,91.74,7.77,57.75Z" style="fill:url(#linear-gradient-2)"/><path d="M141,58.8C112.93,31.49,53.47,19.68,0,28c8.28,2.53,15.89,8.87,15.89,8.87s-1.56,3.7-5,10.92c37.54-8.2,99.74,12.49,124,35.12Q138,70.59,141,58.8Z" style="fill:url(#linear-gradient-3)"/><path d="M127.1,54.12A54.11,54.11,0,1,0,73,108.23l1.61,0,6.11,13,10.09-16A54.13,54.13,0,0,0,127.1,54.12Z" style="fill:url(#未命名漸層_29)"/><path d="M127.1,54.12q0-1.39-.07-2.75c-27.48-5.89-59.12,7.38-76.47,8.12a48.29,48.29,0,0,1-31-10.14l-.51.9c-.09,1.28-.14,2.57-.14,3.88a54.07,54.07,0,0,0,2.59,16.56l49.78,24.4a126.47,126.47,0,0,1,30.23-8.73,35.94,35.94,0,0,1,14.73.35A53.87,53.87,0,0,0,127.1,54.12Z" style="opacity:0.14"/><path d="M7.74,57.82C52.16,86.43,96.58,30.2,141,58.8q-3,11.78-6,24.06C96.77,69.3,58.59,112.75,20.4,105.41,16.18,90.22,12,74.4,7.74,57.82Z" style="fill:url(#linear-gradient-4)"/><path d="M32.75,40.38c2.06,18.23,21.74,31.63,44,29.93s38.56-17.87,36.5-36.1S91.47,2.58,69.25,4.28,30.69,22.15,32.75,40.38Z" style="fill:url(#linear-gradient-5)"/><path d="M55.47,72.2a.81.81,0,0,0,.16-.23.13.13,0,0,0,0-.14.26.26,0,0,0-.19,0l-.83.12.11-.36,3.43-.79-.12.38-.76.23a1.61,1.61,0,0,0-.51.22,4.45,4.45,0,0,0-.5.45l-5,5.22,2.68,6a.8.8,0,0,0,.19.28.4.4,0,0,0,.3,0l.76-.1-.12.38-6.77,1.55.12-.38.8-.26a.41.41,0,0,0,.31-.25.29.29,0,0,0,0-.26l-1.7-3.81-5.07,5.4a.83.83,0,0,0-.16.23.13.13,0,0,0,0,.14.25.25,0,0,0,.19,0l.83-.12-.11.36L40,87.3l.12-.38.76-.23a1.59,1.59,0,0,0,.54-.25,4.66,4.66,0,0,0,.47-.43l5.67-6-2.43-5.47A.79.79,0,0,0,45,74.3a.4.4,0,0,0-.3,0l-.75.1.12-.38,6.76-1.55-.12.38-.8.26a.41.41,0,0,0-.31.25.32.32,0,0,0,0,.26L51,76.84Z" style="fill:#42210b"/><path d="M67.79,80a12,12,0,0,1-4.89,2.24q-2.94.67-4.14-.17t-.42-3.31a8.17,8.17,0,0,1,2.72-4,11.94,11.94,0,0,1,4.89-2.24q2.94-.68,4.13.17T70.5,76A8.17,8.17,0,0,1,67.79,80Zm-6,.41a1.49,1.49,0,0,0,.17,1.2c.2.21.58.26,1.14.13a3,3,0,0,0,1.4-.71,4.73,4.73,0,0,0,1-1.47,21.24,21.24,0,0,0,1-2.65,17.37,17.37,0,0,0,.65-2.57,1.48,1.48,0,0,0-.18-1.2c-.2-.21-.58-.26-1.13-.13a3,3,0,0,0-1.4.71,4.72,4.72,0,0,0-1,1.47,21.12,21.12,0,0,0-1,2.65A17.36,17.36,0,0,0,61.74,80.45Zm7.74-10.19-.3.33a8.74,8.74,0,0,1-2.46-.52,27.32,27.32,0,0,1-3.19,1.81l-.13-.24a35.92,35.92,0,0,0,3.25-2.85l1-.23A9,9,0,0,0,69.48,70.26ZM69.39,69l.13-.78a3.33,3.33,0,0,0,.68-.61,2.27,2.27,0,0,0,.38-.75c.12-.38,0-.52-.46-.43a2.68,2.68,0,0,0-.49.16,4.52,4.52,0,0,0-.55.29l0-.28a5.9,5.9,0,0,1,1.88-.8q1.52-.35,1.18.74a3.12,3.12,0,0,1-2,1.74l-.26.59Z" style="fill:#42210b"/><path d="M85,76.29a3,3,0,0,0,1.13-1.53,1.69,1.69,0,0,0,.06-1.13,1.34,1.34,0,0,0-.71-.65,9,9,0,0,0-1.65-.51,11.48,11.48,0,0,1-2.14-.67,1.79,1.79,0,0,1-1-1,3.24,3.24,0,0,1,.14-2A6.06,6.06,0,0,1,83,65.69a11.73,11.73,0,0,1,4.5-1.89,12.1,12.1,0,0,1,2.41-.32,6.49,6.49,0,0,1,1.82.17l-1.38,3-.53.12a6.06,6.06,0,0,0-.19-1.68,1.2,1.2,0,0,0-.75-.81,3.08,3.08,0,0,0-1.7,0q-2.57.59-3.09,2.23a1.46,1.46,0,0,0,0,1,1.23,1.23,0,0,0,.69.58q.51.21,1.74.57l.33.08a15.87,15.87,0,0,1,2.25.78,1.84,1.84,0,0,1,1,1,3.1,3.1,0,0,1-.14,1.94,6.17,6.17,0,0,1-2.32,3.15,12.89,12.89,0,0,1-4.79,2,15.61,15.61,0,0,1-2.64.36,7.09,7.09,0,0,1-2.11-.12l1.58-3.48.51-.12a4.69,4.69,0,0,0,0,2.14,1.19,1.19,0,0,0,.91.84,4.28,4.28,0,0,0,1.77-.11A5.56,5.56,0,0,0,85,76.29Z" style="fill:#42210b"/><path d="M102.23,72.14a12,12,0,0,1-4.89,2.24q-2.94.68-4.14-.17c-.79-.56-.94-1.66-.42-3.31a8.17,8.17,0,0,1,2.72-4,12,12,0,0,1,4.89-2.24q2.94-.68,4.13.17t.42,3.3A8.17,8.17,0,0,1,102.23,72.14Zm-6,.41a1.5,1.5,0,0,0,.18,1.2c.2.21.58.26,1.14.13a3,3,0,0,0,1.4-.71,4.74,4.74,0,0,0,1-1.47,21.15,21.15,0,0,0,1-2.65,17.35,17.35,0,0,0,.65-2.58,1.49,1.49,0,0,0-.18-1.2c-.2-.21-.58-.26-1.13-.13a3,3,0,0,0-1.4.71,4.75,4.75,0,0,0-1,1.47,21.51,21.51,0,0,0-1,2.65A17.67,17.67,0,0,0,96.19,72.55Zm7.74-10.19-.3.33a8.73,8.73,0,0,1-2.46-.52A27.2,27.2,0,0,1,98,64l-.12-.24a35.48,35.48,0,0,0,3.25-2.85l1-.23A9,9,0,0,0,103.93,62.37Zm2.84-5a.69.69,0,0,1,.3.57,30.74,30.74,0,0,1-3.49,2.71l-.16-.14q1.72-2,2.67-3.27A.93.93,0,0,1,106.77,57.37Z" style="fill:#42210b"/><path d="M63.4,39.05q-2,6.46-8,6.46l-13.28,0q-6,0-4.07-6.45l3.61-11.8a9.8,9.8,0,0,1,3-4.94,8.39,8.39,0,0,1,5.25-1.52l18.82,0-1.81,5.92-17.67,0L45.33,39.52,56,39.5l1-3.29h-3.3l1.57-5.14,10.57,0Z" style="fill:#fff"/><path d="M85,45.47l-21.1,0L71.44,20.8h7.95L73.65,39.51l13.15,0Z" style="fill:#fff"/><path d="M95,45.46H86.87l7.56-24.71h8.12Z" style="fill:#fff"/></g></g></svg>