<svg xmlns="http://www.w3.org/2000/svg" xmlns:xlink="http://www.w3.org/1999/xlink" viewBox="0 0 141.001 121.20757"><defs><linearGradient id="linear-gradient" x1="101.0137" y1="97.04954" x2="115.9705" y2="100.85626" gradientUnits="userSpaceOnUse"><stop offset="0.0034" stop-color="#f8b400"/><stop offset="0.33765" stop-color="#f9ad06"/><stop offset="0.81965" stop-color="#fd9a16"/><stop offset="1" stop-color="#ff911e"/></linearGradient><linearGradient id="linear-gradient-2" x1="16.57274" y1="182.72344" x2="132.06799" y2="182.72344" gradientTransform="translate(31.40357 -102.34591) rotate(14.27665)" gradientUnits="userSpaceOnUse"><stop offset="0.0034" stop-color="#c28d00"/><stop offset="0.36606" stop-color="#c18605"/><stop offset="0.88899" stop-color="#be7313"/><stop offset="1" stop-color="#bd6e17"/></linearGradient><linearGradient id="linear-gradient-3" x1="-0.25114" y1="28.95169" x2="139.61975" y2="64.55079" xlink:href="#linear-gradient"/><linearGradient id="未命名漸層_29" x1="34.71634" y1="15.84992" x2="111.24375" y2="92.37733" gradientUnits="userSpaceOnUse"><stop offset="0" stop-color="#e62c14"/><stop offset="1" stop-color="#c72c14"/></linearGradient><linearGradient id="linear-gradient-4" x1="7.74326" y1="78.34385" x2="141.001" y2="78.34385" gradientUnits="userSpaceOnUse"><stop offset="0.0034" stop-color="#f8d04c"/><stop offset="0.27761" stop-color="#f9cc45"/><stop offset="0.67289" stop-color="#fcc232"/><stop offset="1" stop-color="#ffb71d"/></linearGradient><linearGradient id="linear-gradient-5" x1="4347.23807" y1="745.80874" x2="4348.78272" y2="795.45711" gradientTransform="matrix(-0.8962, 0.0688, 0.1005, 0.8893, 3890.29044, -970.85123)" gradientUnits="userSpaceOnUse"><stop offset="0" stop-color="#fff"/><stop offset="1" stop-color="#fff" stop-opacity="0"/></linearGradient></defs><title>資產 1</title><g id="圖層_2" data-name="圖層 2"><g id="圖層_1-2" data-name="圖層 1"><path d="M116.3535,99.35143A99.9092,99.9092,0,0,0,98.07,108.61554c3.82207-7.497,7.64418-14.77,11.46587-21.71221Q112.9447,92.94041,116.3535,99.35143Z" style="fill:url(#linear-gradient)"/><path d="M7.7655,57.75075c4.21229,16.60221,8.42421,32.44173,12.63613,47.66379,31.98357,12.49257,63.96791-10.64137,95.95188-6.06312q-3.4094-6.42216-6.81764-12.44809C75.61212,76.2652,41.68879,91.73959,7.7655,57.75075Z" style="fill:url(#linear-gradient-2)"/><path d="M141.001,58.80416C112.93094,31.49065,53.46807,19.68387,0,27.96493c8.28471,2.53421,15.88723,8.86946,15.88723,8.86946s-1.55965,3.7036-4.97091,10.91594c37.542-8.19576,99.74206,12.4946,124.04183,35.11619Q137.9794,70.58866,141.001,58.80416Z" style="fill:url(#linear-gradient-3)"/><path d="M127.09516,54.1151A54.11427,54.11427,0,1,0,72.98089,108.229c.53863,0,1.07444-.01052,1.60943-.02629l6.1116,13.0049,10.08941-15.98226A54.13333,54.13333,0,0,0,127.09516,54.1151Z" style="fill:url(#未命名漸層_29)"/><path d="M127.09516,54.1151q0-1.386-.06915-2.75376c-27.47889-5.88966-59.11711,7.37892-76.47343,8.11771A48.28567,48.28567,0,0,1,19.51969,49.34232l-.51358.8961c-.09014,1.28023-.1395,2.57219-.1395,3.87668a54.06529,54.06529,0,0,0,2.586,16.563L71.23523,95.07848a126.4698,126.4698,0,0,1,30.227-8.73153,35.936,35.936,0,0,1,14.72633.349A53.86686,53.86686,0,0,0,127.09516,54.1151Z" style="opacity:0.14"/><path d="M7.74326,57.82355c44.41952,28.605,88.83822-27.62448,133.25774.98061q-3.02121,11.77682-6.04286,24.06237C96.77237,69.30482,58.587,112.751,20.40162,105.41455,16.182,90.21915,11.96326,74.40389,7.74326,57.82355Z" style="fill:url(#linear-gradient-4)"/><path d="M55.41165,72.56227l.71582-.7041q-1.95117.57422-4.0791,1.19727a18.18522,18.18522,0,0,1,1.874,1.27441L53.16361,75.2l7.94531-2.09961-.8457-.30859a16.23048,16.23048,0,0,0,.87109-2.42773l1.35742.32813q-.42334,1.19531-.917,2.28516l2.84961-.752.64453,2.43945-1.252.33008-.34766-1.31445-12.02246,3.1748.34766,1.31543-1.252.33105L49.898,76.06227l3.08887-.81641a22.16137,22.16137,0,0,0-1.80469-1.34277l.71387-.80664q-1.06055.30615-2.16992.624c-.14453-.32715-.32031-.69336-.53027-1.0957Q56.88773,70.5403,63.105,68.4695l.49512,1.08887q-3.2417,1.02686-7.21094,2.21387a22.05579,22.05579,0,0,1,1.78223,1.418l-.94727.90234A19.538,19.538,0,0,0,55.41165,72.56227ZM50.2554,79.04176l4.81543-1.27246q.08643-.71045.11426-1.45508l1.36426-.36035q-.04541.74121-.12988,1.459l9.293-2.45508.29688,1.125-9.7832,2.584q-.13477.75586-.33105,1.47754l8.54785-2.25781.29688,1.124a12.57126,12.57126,0,0,1-2.72852,3.64844,22.1957,22.1957,0,0,0,5.81445-.48047c-.16211.55664-.29785,1.06348-.40625,1.51563a22.09577,22.09577,0,0,1-6.70215.07813A27.063,27.063,0,0,1,54.63626,87.241a10.23235,10.23235,0,0,0-1.02637-.89648,28.70117,28.70117,0,0,0,5.55176-2.90625A10.34907,10.34907,0,0,1,55.44,81.56911a17.168,17.168,0,0,1-2.9209,5.13281,12.44793,12.44793,0,0,0-1-.99023,14.58193,14.58193,0,0,0,3.34277-6.68457l-4.30957,1.1377Zm12.75879.39063L56.729,81.09254A10.73976,10.73976,0,0,0,60.44,82.46461,10.82287,10.82287,0,0,0,63.01419,79.43239Z" style="fill:#42210b"/><path d="M65.66751,68.22243l14.04492-3.71,3.95508,14.97461-1.23633.32617-.21191-.80273L70.647,82.06813l.2168.81836-1.23633.32617Zm13.10938-2.24316L67.20462,69.0359l3.1416,11.89258,11.57227-3.05664ZM70.3472,77.94118l4.42969-1.16992L73.937,73.59352,70.06888,74.615l-.28809-1.0918L73.649,72.50172l-.56836-2.15039-4.17285,1.10254-.28809-1.0918,9.56641-2.52734.28809,1.0918-4.20508,1.11133.56836,2.15039,3.88379-1.02637.28809,1.0918L75.12552,73.28l.83984,3.17773,4.46191-1.17871.28809,1.0918L70.63529,79.033ZM76.231,74.08668l.72168-.91211a23.30228,23.30228,0,0,1,1.96191,1.31836l-.75586.97363A18.90171,18.90171,0,0,0,76.231,74.08668Z" style="fill:#42210b"/><path d="M82.10892,65.45973c-.1709-.34473-.37109-.71-.59766-1.0957q4.64209-1.46777,8.33789-2.752l.59473,1.0791Q87.38968,63.73707,82.10892,65.45973Zm.33691,1.4043.82324-.78418q1.08545,1.05322,2.125,2.13477l-.88574.86914Q83.61331,68.032,82.44583,66.864Zm7.03809,4.80273q1.70215.69141,3.53125,1.47168l-.53223,1.23926q-1.61719-.86133-3.44434-1.665L90.357,77.70289l-1.1875.31348L87.732,72.57594a19.56405,19.56405,0,0,1-2.125,4.69922q-.38379-.22412-1.18652-.59473a15.17634,15.17634,0,0,0,2.65137-5.62988l-3.27441.86523-.31348-1.1875,3.51563-.92871-.33105-1.252,1.1875-.31348.33105,1.252,3.28906-.86914.31445,1.1875-3.29.86914.52539,1.99023ZM85.24173,65.491l.84375-.77246q1.13379,1.1748,2.123,2.25391l-.92578.84668A30.47431,30.47431,0,0,0,85.24173,65.491ZM88.773,67.54567q.4834-1.67432.90332-3.86133l1.22754.293q-.35449,1.4502-1.00391,3.80273Zm7.54395-6.80176a20.12221,20.12221,0,0,1-4.42871,5.8584q-.60937-.49219-1.07812-.832a14.75351,14.75351,0,0,0,4.25-5.43164ZM92.1431,76.08082a17.39819,17.39819,0,0,0,6.124-7.4375l1.19922.57617a19.55033,19.55033,0,0,1-6.2041,7.71582A12.08974,12.08974,0,0,0,92.1431,76.08082ZM97.83646,65.0652A20.30988,20.30988,0,0,1,93.35892,70.867c-.27441-.25879-.61621-.55371-1.02246-.87988a15.23037,15.23037,0,0,0,4.28027-5.44141Z" style="fill:#42210b"/><polygon points="71.695 12.193 76.368 26.563 91.484 26.563 79.258 35.449 83.926 49.829 71.695 40.943 59.469 49.829 64.142 35.449 51.911 26.563 67.027 26.563 71.695 12.193" style="fill:gold"/><path d="M32.7531,40.37965C34.813,58.6115,54.49353,72.01008,76.711,70.30647c22.21745-1.70756,38.55831-17.86876,36.49773-36.09975C111.1491,15.9743,91.46639,2.57709,69.24859,4.28213,47.03223,5.98632,30.692,22.14866,32.7531,40.37965Z" style="fill:url(#linear-gradient-5)"/></g></g></svg>