<svg xmlns="http://www.w3.org/2000/svg" xmlns:xlink="http://www.w3.org/1999/xlink" viewBox="0 0 141 121.21"><defs><linearGradient id="linear-gradient" x1="101.01" y1="97.05" x2="115.97" y2="100.86" gradientUnits="userSpaceOnUse"><stop offset="0" stop-color="#f8b400"/><stop offset="0.34" stop-color="#f9ad06"/><stop offset="0.82" stop-color="#fd9a16"/><stop offset="1" stop-color="#ff911e"/></linearGradient><linearGradient id="linear-gradient-2" x1="-778.78" y1="-1099.44" x2="-663.29" y2="-1099.44" gradientTransform="translate(486 1336.34) rotate(14.28)" gradientUnits="userSpaceOnUse"><stop offset="0" stop-color="#c28d00"/><stop offset="0.37" stop-color="#c18605"/><stop offset="0.89" stop-color="#be7313"/><stop offset="1" stop-color="#bd6e17"/></linearGradient><linearGradient id="linear-gradient-3" x1="-0.25" y1="28.95" x2="139.62" y2="64.55" xlink:href="#linear-gradient"/><linearGradient id="未命名漸層_29" x1="34.72" y1="15.85" x2="111.24" y2="92.38" gradientUnits="userSpaceOnUse"><stop offset="0" stop-color="#e62c14"/><stop offset="1" stop-color="#c72c14"/></linearGradient><linearGradient id="linear-gradient-4" x1="7.74" y1="78.34" x2="141" y2="78.34" gradientUnits="userSpaceOnUse"><stop offset="0" stop-color="#f8d04c"/><stop offset="0.28" stop-color="#f9cc45"/><stop offset="0.67" stop-color="#fcc232"/><stop offset="1" stop-color="#ffb71d"/></linearGradient><linearGradient id="linear-gradient-5" x1="-7588.55" y1="926.92" x2="-7587" y2="976.56" gradientTransform="matrix(-0.9, 0.07, 0.1, 0.89, -6824.76, -310.73)" gradientUnits="userSpaceOnUse"><stop offset="0" stop-color="#fff"/><stop offset="1" stop-color="#fff" stop-opacity="0"/></linearGradient></defs><title>越南5分_日</title><g id="圖層_2" data-name="圖層 2"><g id="圖層_1-2" data-name="圖層 1"><path d="M116.35,99.35a99.91,99.91,0,0,0-18.28,9.26c3.82-7.5,7.64-14.77,11.47-21.71Q112.94,92.94,116.35,99.35Z" style="fill:url(#linear-gradient)"/><path d="M7.77,57.75C12,74.35,16.19,90.19,20.4,105.41c32,12.49,64-10.64,96-6.06q-3.41-6.42-6.82-12.45C75.61,76.27,41.69,91.74,7.77,57.75Z" style="fill:url(#linear-gradient-2)"/><path d="M141,58.8C112.93,31.49,53.47,19.68,0,28c8.28,2.53,15.89,8.87,15.89,8.87s-1.56,3.7-5,10.92c37.54-8.2,99.74,12.49,124,35.12Q138,70.59,141,58.8Z" style="fill:url(#linear-gradient-3)"/><path d="M127.1,54.12A54.11,54.11,0,1,0,73,108.23l1.61,0,6.11,13,10.09-16A54.13,54.13,0,0,0,127.1,54.12Z" style="fill:url(#未命名漸層_29)"/><path d="M127.1,54.12q0-1.39-.07-2.75c-27.48-5.89-59.12,7.38-76.47,8.12a48.29,48.29,0,0,1-31-10.14l-.51.9c-.09,1.28-.14,2.57-.14,3.88a54.07,54.07,0,0,0,2.59,16.56l49.78,24.4a126.47,126.47,0,0,1,30.23-8.73,35.94,35.94,0,0,1,14.73.35A53.87,53.87,0,0,0,127.1,54.12Z" style="opacity:0.14"/><path d="M7.74,57.82C52.16,86.43,96.58,30.2,141,58.8q-3,11.78-6,24.06C96.77,69.3,58.59,112.75,20.4,105.41,16.18,90.22,12,74.4,7.74,57.82Z" style="fill:url(#linear-gradient-4)"/><polygon points="71.69 12.19 76.37 26.56 91.48 26.56 79.26 35.45 83.93 49.83 71.69 40.94 59.47 49.83 64.14 35.45 51.91 26.56 67.03 26.56 71.69 12.19" style="fill:gold"/><path d="M32.75,40.38c2.06,18.23,21.74,31.63,44,29.93s38.56-17.87,36.5-36.1S91.47,2.58,69.25,4.28,30.69,22.15,32.75,40.38Z" style="fill:url(#linear-gradient-5)"/><path d="M40.61,74.62l2.27-.52,1.44,10.25L52.9,71.81l2.27-.52L44.3,86.95l-1.7.39Z" style="fill:#42210b"/><path d="M57.22,70.89l2.36-.54,4.1,9.34,3.47-11.07,2.17-.5-4.39,14-2.36.54-4.09-9.34L55,84.42l-2.18.5Z" style="fill:#42210b"/><path d="M80.76,65.5l8.13-1.86-.49,1.56-6.33,1.45-.08.25q-.58,1.58-1.23,3.1a2.13,2.13,0,0,0-.25.51,7.34,7.34,0,0,1,3-1.59,3.06,3.06,0,0,1,2.79.35q1,.85.27,3.06a9.94,9.94,0,0,1-3,4.65,8.49,8.49,0,0,1-3.67,1.91A3.06,3.06,0,0,1,77,78.53c-.6-.52-.77-1.47-.51-2.85l2.17-.5c-.2,1-.12,1.68.25,2a1.38,1.38,0,0,0,1.26.17,4.53,4.53,0,0,0,2-1,6.94,6.94,0,0,0,2-3.27q.64-2,0-2.59A1.27,1.27,0,0,0,83,70.31a5.2,5.2,0,0,0-2.22,1.19q-.72.62-1,.91l-1.89.43a3.34,3.34,0,0,0,.27-.6l2.45-6.42Z" style="fill:#42210b"/><path d="M107.27,64.6l-2.46,6.73q-1.27,3.49-3.82,4.07L98.16,76l.28-1.74,2.36-.54a2.46,2.46,0,0,0,1.76-1.7l2-5.42-5.2,1.19-.3.68Q97,73.18,89,78.52l-.93-1.23q7.09-4.44,8.81-8l.5-1-3.59.82.49-1.56Zm-16.2,4.93-1-1.21A39.46,39.46,0,0,0,99.62,59l1.49.57q.46.2-.31.45A50.3,50.3,0,0,1,91.07,69.53Zm19-4.35q-4.38-1.43-5-6.86l2-1.07q.62,4.73,4.91,5.88Z" style="fill:#42210b"/></g></g></svg>