<svg xmlns="http://www.w3.org/2000/svg" xmlns:xlink="http://www.w3.org/1999/xlink" viewBox="0 0 141 121.21"><defs><linearGradient id="linear-gradient" x1="101.01" y1="97.05" x2="115.97" y2="100.86" gradientUnits="userSpaceOnUse"><stop offset="0" stop-color="#f8b400"/><stop offset="0.34" stop-color="#f9ad06"/><stop offset="0.82" stop-color="#fd9a16"/><stop offset="1" stop-color="#ff911e"/></linearGradient><linearGradient id="linear-gradient-2" x1="-470.46" y1="-762.52" x2="-354.97" y2="-762.52" gradientTransform="translate(270.29 933.79) rotate(14.28)" gradientUnits="userSpaceOnUse"><stop offset="0" stop-color="#c28d00"/><stop offset="0.37" stop-color="#c18605"/><stop offset="0.89" stop-color="#be7313"/><stop offset="1" stop-color="#bd6e17"/></linearGradient><linearGradient id="linear-gradient-3" x1="-0.25" y1="28.95" x2="139.62" y2="64.55" xlink:href="#linear-gradient"/><linearGradient id="未命名漸層_29" x1="34.72" y1="15.85" x2="111.24" y2="92.38" gradientUnits="userSpaceOnUse"><stop offset="0" stop-color="#e62c14"/><stop offset="1" stop-color="#c72c14"/></linearGradient><linearGradient id="linear-gradient-4" x1="7.74" y1="78.34" x2="141" y2="78.34" gradientUnits="userSpaceOnUse"><stop offset="0" stop-color="#f8d04c"/><stop offset="0.28" stop-color="#f9cc45"/><stop offset="0.67" stop-color="#fcc232"/><stop offset="1" stop-color="#ffb71d"/></linearGradient><linearGradient id="linear-gradient-5" x1="-4298.01" y1="920.6" x2="-4296.47" y2="970.25" gradientTransform="matrix(-0.9, 0.07, 0.1, 0.89, -3875.15, -531.5)" gradientUnits="userSpaceOnUse"><stop offset="0" stop-color="#fff"/><stop offset="1" stop-color="#fff" stop-opacity="0"/></linearGradient></defs><title>越南彩_中文</title><g id="圖層_2" data-name="圖層 2"><g id="圖層_1-2" data-name="圖層 1"><path d="M116.35,99.35a99.91,99.91,0,0,0-18.28,9.26c3.82-7.5,7.64-14.77,11.47-21.71Q112.94,92.94,116.35,99.35Z" style="fill:url(#linear-gradient)"/><path d="M7.77,57.75C12,74.35,16.19,90.19,20.4,105.41c32,12.49,64-10.64,96-6.06q-3.41-6.42-6.82-12.45C75.61,76.27,41.69,91.74,7.77,57.75Z" style="fill:url(#linear-gradient-2)"/><path d="M141,58.8C112.93,31.49,53.47,19.68,0,28c8.28,2.53,15.89,8.87,15.89,8.87s-1.56,3.7-5,10.92c37.54-8.2,99.74,12.49,124,35.12Q138,70.59,141,58.8Z" style="fill:url(#linear-gradient-3)"/><path d="M127.1,54.12A54.11,54.11,0,1,0,73,108.23l1.61,0,6.11,13,10.09-16A54.13,54.13,0,0,0,127.1,54.12Z" style="fill:url(#未命名漸層_29)"/><path d="M127.1,54.12q0-1.39-.07-2.75c-27.48-5.89-59.12,7.38-76.47,8.12a48.29,48.29,0,0,1-31-10.14l-.51.9c-.09,1.28-.14,2.57-.14,3.88a54.07,54.07,0,0,0,2.59,16.56l49.78,24.4a126.47,126.47,0,0,1,30.23-8.73,35.94,35.94,0,0,1,14.73.35A53.87,53.87,0,0,0,127.1,54.12Z" style="opacity:0.14"/><path d="M7.74,57.82C52.16,86.43,96.58,30.2,141,58.8q-3,11.78-6,24.06C96.77,69.3,58.59,112.75,20.4,105.41,16.18,90.22,12,74.4,7.74,57.82Z" style="fill:url(#linear-gradient-4)"/><path d="M43.83,88.8q.76-3-.54-8.18l1.32-.27a33.22,33.22,0,0,1,.71,3.51,6.83,6.83,0,0,0,2.36,1.82l-1.84-6.95-4.31,1.14-.34-1.3,3.74-1-.73-2.78-3.08.81-.34-1.3,3.08-.81-.72-2.74,1.32-.35.72,2.74,2.91-.77.34,1.3-2.91.77.73,2.78,3.21-.85.34,1.3-2.64.7.79,3,2.42-.64L50.7,82l-2.42.64.92,3.47a8.32,8.32,0,0,0,3.4-.21q4.39-1.1,9.78-2.66c-.08.63-.12,1.17-.14,1.63q-5.36,1.42-9.68,2.5-4.49,1.11-7.07-1.62A12,12,0,0,1,45,90.16,12.42,12.42,0,0,0,43.83,88.8Zm9.77-5a24.46,24.46,0,0,0,2.11-4.29A30.42,30.42,0,0,1,53,73.28l-2.22.59,1.7,6.42q.65-1,1.47-2.23.31.71.65,1.32Q53.74,80.62,52.9,82a9.63,9.63,0,0,0-.62,1.24l-1.2-.71a3,3,0,0,0,.1-2l-2-7.57,3.44-.91q-.52-1.74-1-3.59l1.28-.34q.43,1.72,1,3.59l4.66-1.23.33,1.25-4.6,1.21a27.9,27.9,0,0,0,2,4.86A20.87,20.87,0,0,0,57,73.62l1.41.19a27.69,27.69,0,0,1-1.19,5.5,9.3,9.3,0,0,0,1.31,1.5q.49.48.81.39c.19,0,.26-.32.21-.8q-.15-1.25-.45-3l1.43.13q.34,2.11.42,3.18.15,1.7-1,2a2.24,2.24,0,0,1-2.05-.59,8,8,0,0,1-1.24-1.26,23.6,23.6,0,0,1-1.79,3.55A5.16,5.16,0,0,0,53.6,83.81Zm.51-15.19.79-1q1,.67,2.45,1.72l-.91,1.07Q55.13,69.33,54.11,68.63Z" style="fill:#42210b"/><path d="M63.26,67.87l8.48-2.24-.56-2.13,1.55-.41.56,2.13L81.56,63l.35,1.34-8.27,2.18.51,1.93,7.23-1.91,2.83,10.71a2,2,0,0,1-1.6,2.81q-1.24.35-3.13.77c-.2-.44-.43-.94-.69-1.47q1.9-.38,2.88-.64,1.25-.33,1-1.43l-2.38-9L67.17,71.74l3.09,11.69-1.49.39-3.44-13L72.6,68.9,72.09,67l-8.48,2.24ZM69.61,78l5.06-1.34-.54-2.06-4.46,1.18-.33-1.25,5.93-1.57q.55-1.6,1-3.47l1.6.41q-.59,1.51-1.1,2.65l2.91-.77L80.05,73,75.6,74.19l.54,2.06,5.06-1.34.33,1.25-5.06,1.34,1,3.63L76,81.51l-1-3.62-5.06,1.34Zm.39-6,.92-1q1.26.86,2.33,1.71l-1,1.1Q71.15,72.82,70,71.95Z" style="fill:#42210b"/><path d="M87,62q-.3-.61-.7-1.29Q91.8,59,96.15,57.48l.7,1.27Q93.25,60,87,62Zm.4,1.65,1-.92q1.28,1.24,2.5,2.51l-1,1Q88.81,65,87.44,63.66Zm8.28,5.65q2,.82,4.15,1.73l-.63,1.46q-1.9-1-4.05-2l1.55,5.87-1.4.37-1.69-6.4a23,23,0,0,1-2.5,5.53c-.3-.17-.77-.41-1.4-.7a17.85,17.85,0,0,0,3.12-6.62l-3.85,1-.37-1.4,4.14-1.09-.39-1.47,1.4-.37.39,1.47,3.87-1,.37,1.4-3.87,1,.62,2.34Zm-5-7.27,1-.91q1.34,1.39,2.5,2.65l-1.09,1A36.23,36.23,0,0,0,90.73,62Zm4.15,2.42q.57-2,1.06-4.54l1.44.35Q97,62,96.21,64.74Zm8.87-8a23.66,23.66,0,0,1-5.21,6.89q-.72-.58-1.27-1a17.34,17.34,0,0,0,5-6.39Zm-4.91,18q5.4-4.05,7.2-8.75l1.41.68a23,23,0,0,1-7.3,9.08A14.19,14.19,0,0,0,98.85,74.51Zm6.7-13a23.89,23.89,0,0,1-5.27,6.83q-.48-.46-1.2-1a17.94,17.94,0,0,0,5-6.4Z" style="fill:#42210b"/><polygon points="71.69 12.19 76.37 26.56 91.48 26.56 79.26 35.45 83.93 49.83 71.69 40.94 59.47 49.83 64.14 35.45 51.91 26.56 67.03 26.56 71.69 12.19" style="fill:gold"/><path d="M32.75,40.38c2.06,18.23,21.74,31.63,44,29.93s38.56-17.87,36.5-36.1S91.47,2.58,69.25,4.28,30.69,22.15,32.75,40.38Z" style="fill:url(#linear-gradient-5)"/></g></g></svg>