<svg xmlns="http://www.w3.org/2000/svg" viewBox="0 0 24.93 23.21"><title>11狗</title><g id="圖層_2" data-name="圖層 2"><g id="圖層_1-2" data-name="圖層 1"><path d="M1.92,23.21c2,0,1.21-1.9.43-2.36-.79-1.28,1.87-2.56,2.33-3s2.07-1.28,2-3.09c0-.76,3.51.82,4.63,1s3.45.16,3.84-.26-.89,6.5,1.41,7,3.41-.43,2.86-1.35-1.81-.69-1.15-3.18,0-2.59,0-2.72,3.48-3.58,3.55-5.19S21.25,5.81,23.32,5s1.58-2,1.51-2.27-2.3-.23-2.3-.23-.23-1.08-1.87-1.08L20.33.2l-.66.69L19.35,0a63,63,0,0,0-4.23,6c-1,1.9-6.34,2.43-7.06,2.43s-4.2-.3-2.92-2.07C5.89,5.78,7,7.48,7.07,7.75s3,.66,1.54-2.63-5.84-3.55-7.22-1,.72,6.17,1,6.37c0,0-2.76,2.69-.62,5.78.49.81-1.25,1.77-1.58,2.56S-.09,23.21,1.92,23.21Z" style="fill:#534741"/></g></g></svg>