<svg xmlns="http://www.w3.org/2000/svg" viewBox="0 0 29.26 18.06"><title>12豬_1</title><g id="圖層_2" data-name="圖層 2"><g id="圖層_1-2" data-name="圖層 1"><path d="M1,3.16A.62.62,0,0,1,.66,3S-.64,2.38.42,1.54s1.49.59,1,.93A.41.41,0,0,0,.83,2.1c-.6.23.3.67.58.62h0C2.92,1.12,6.43-1,12.94.51c8.06,1.85,9.42,1.89,11,3.2A7.67,7.67,0,0,1,25.08,5a8.28,8.28,0,0,1,.94.27,14.21,14.21,0,0,0,2.89.43c.18.72-1.6,1.34-2.55,1.61a5.69,5.69,0,0,1,.34,1.3c.16,1.38,2.35,2.55,2.55,2.23,0,0-.09,1.47-.86,1.74a1.66,1.66,0,0,1-1.51-.16c-.2-.14-.75-.72-1.2-.79s.75.52.93.88-.2.54-.5.59a7.14,7.14,0,0,1-3.14,0c-1-.41-1.67-1-2.3-1.29s-1.38-.27-1.4.59a7.47,7.47,0,0,0,1,3.12,3.25,3.25,0,0,1,.35.64v0c.24.41.68,1.08-.1.87a2.17,2.17,0,0,1-1.23-.75c-.1-.15-.17-.4-.33-.47s-.22.34-.22.34l-.43.12s0-.37,0-1.34A2.11,2.11,0,0,0,18,13.53a2.93,2.93,0,0,1-.16-.67,1.78,1.78,0,0,0-.26.2,8.61,8.61,0,0,0-.79,1.54A5.94,5.94,0,0,0,16.76,16l.05.25.1.2c.45.85.69,1.34.46,1.5s-1.05.13-1.25-.37a2.79,2.79,0,0,1-.26-1.07c0-.1-.4-.08-.47-.27s.18-3.59.25-4.51l-.09-.24c0,.06,0,.43-3.6.58A31.59,31.59,0,0,1,7.66,12c-.07.17-.17.42-.23.63s-.72.49-.6.94-.33.6.38,1.64S8.65,17,8.66,17.09a2,2,0,0,1-1.07.07c-.39-.1-.53-.44-.66-.77S6.81,16,6.61,16s-.23.26-.36.21S6,15.5,5.64,14.89,5,14,4.9,13.75a3.06,3.06,0,0,1-.19-.45,1.74,1.74,0,0,0-.86.6A2.88,2.88,0,0,0,3.2,16c.22.52.58,1.35.68,1.68s-.19.31-.37.33a8.37,8.37,0,0,1-1.23-.13s0-.66,0-.88-.15,0-.34-.17-.07-.5,0-1a2.19,2.19,0,0,0-.1-1.36A1.17,1.17,0,0,1,2,13.19c.35-.58.84-.52.75-1.14,0-.08,0-.14,0-.19l-.17-.6C2.13,9.66,2,10.14,1,8.15S-.06,5.08.68,3.7A4.15,4.15,0,0,1,1,3.16Z" style="fill:#fff"/></g></g></svg>