<svg xmlns="http://www.w3.org/2000/svg" viewBox="0 0 20.46 27.16"><title>06蛇_1</title><g id="圖層_2" data-name="圖層 2"><g id="圖層_1-2" data-name="圖層 1"><path d="M11.11,17.77l0-.12Z" style="fill:#fff"/><path d="M11,17.95l.06-.13Z" style="fill:#fff"/><path d="M10.93,18.1l0,0Z" style="fill:#fff"/><polygon points="10.81 18.28 10.81 18.28 10.81 18.28 10.81 18.28" style="fill:#fff"/><path d="M11,17.95l-.06.11Z" style="fill:#fff"/><path d="M20.41,19.36l0,.1Z" style="fill:#fff"/><path d="M20.43,19.53v0Z" style="fill:#fff"/><path d="M20.19,18.56l0,.11Z" style="fill:#fff"/><path d="M20.3,18.87l0,.11Z" style="fill:#fff"/><path d="M20.25,18.72l0,.11Z" style="fill:#fff"/><path d="M20.34,19l0,.11Z" style="fill:#fff"/><path d="M11.46,3.77v0Z" style="fill:#fff"/><path d="M20.13,18.41l0,.1Z" style="fill:#fff"/><path d="M14.35,1.88h0Z" style="fill:#fff"/><path d="M20.46,20.1h0Z" style="fill:#fff"/><path d="M19.15,16.75l-.16-.2Z" style="fill:#fff"/><path d="M18.87,16.41l-.13-.15Z" style="fill:#fff"/><path d="M19.41,17.11l-.18-.25Z" style="fill:#fff"/><path d="M20.45,19.7v0Z" style="fill:#fff"/><path d="M18.56,16.07l-.1-.1Z" style="fill:#fff"/><path d="M19.65,17.48l-.19-.29Z" style="fill:#fff"/><path d="M19.87,17.87l-.19-.33Z" style="fill:#fff"/><polygon points="20.29 20.95 20.29 20.95 20.29 20.95 20.29 20.95" style="fill:#fff"/><path d="M20.38,19.19l0,.1Z" style="fill:#fff"/><path d="M18.24,15.74l0,0Z" style="fill:#fff"/><path d="M7.38,4.06h.67a6,6,0,0,1,.76.1c.49.09,1,.2,1.45.32a4,4,0,0,1-.3-.35L9.3,4,9.13,4,9,4l-.34,0-.34,0H7.46A.32.32,0,0,0,7.31,4l0,0,0,0A.11.11,0,0,0,7.38,4.06Z" style="fill:#fff"/><path d="M19.67,17.51l-.23-.36-.25-.34-.26-.33-.28-.32-.29-.3-.3-.29-.32-.28L17.42,15l-.33-.26-.34-.25-.35-.24L16,14.05l-.36-.22-.36-.2a14.6,14.6,0,0,1-.24,1.67h0c0-.1,0-.2,0-.3v-.91a8.89,8.89,0,0,0,0-1.22c-.05-.4-.12-.8-.2-1.2a7.4,7.4,0,0,0-.35-1.17L14,9.36c-.15-.38-.31-.75-.49-1.12L13,7.15c-.18-.36-.36-.73-.51-1.1a3.21,3.21,0,0,1-.46-.2,4.72,4.72,0,0,1-.44-.26A7.11,7.11,0,0,1,10.81,5l.12.64h-.78l-.77.05-.76.1-.38.07L8,5.9A.47.47,0,0,0,7.87,6h0A5.51,5.51,0,0,1,7.46,5a4,4,0,0,1-.12-.49c0-.08,0-.17,0-.25V4h0V4a1.58,1.58,0,0,1,.09-.5,1.18,1.18,0,0,1,.11-.23A1.35,1.35,0,0,1,7.63,3a.77.77,0,0,1,.21-.16.27.27,0,0,1,.13,0l.13,0,.24.08.23.1L9,3.27l.44.26c.29.18.57.36.85.56h0l.14.1.1.07h0c.29.23.58.45.89.66l.51.32.26.14.14.06.07,0,.07,0,.28.1.29.09c.19.06.39.1.58.14a4.15,4.15,0,0,0,.6.07,1.38,1.38,0,0,0,.58-.08h0v0l.41.82.2.41c0,.07.07.14.09.21a.73.73,0,0,1,.06.23.21.21,0,0,1,0,.12l0,0h0l-.06,0a.17.17,0,0,0-.09,0l0,0a.11.11,0,0,0,0,.12l0,0h.05a.32.32,0,0,0,.19-.07.52.52,0,0,0,.14-.16.54.54,0,0,0,.05-.21A1.31,1.31,0,0,0,15.77,7l0-.09.07.06a.64.64,0,0,0,.36.17.69.69,0,0,0,.2,0l.2-.06c.06,0,.1-.08.06-.12a.16.16,0,0,0-.17,0,.82.82,0,0,1-.21.07A.29.29,0,0,1,16,6.94a1.26,1.26,0,0,1-.15-.16l-.13-.17a3.45,3.45,0,0,1-.22-.36l-.19-.38c-.06-.13-.13-.25-.18-.38h0a2.2,2.2,0,0,0,.32-.71A4.37,4.37,0,0,0,15.62,4a4.71,4.71,0,0,0,0-.79,2.86,2.86,0,0,0-.15-.77,2.82,2.82,0,0,0-.37-.69,4.2,4.2,0,0,0-.51-.59A3.08,3.08,0,0,0,14,.69a4,4,0,0,0-.72-.3A8.31,8.31,0,0,0,11.7,0a4.91,4.91,0,0,0-.78,0,7.48,7.48,0,0,0-.78.07A7.67,7.67,0,0,0,8.6.43a5.5,5.5,0,0,0-1.39.72,3.9,3.9,0,0,0-1,1.16c-.07.11-.12.23-.18.35s-.14.23-.2.34a2.33,2.33,0,0,0-.23.74,4.28,4.28,0,0,0,0,.78,5.2,5.2,0,0,0,.09.78,5.82,5.82,0,0,0,.2.76,7.14,7.14,0,0,0,.29.73A13.74,13.74,0,0,0,7.84,9.43c.66.82,1.41,1.57,2,2.44l.05.07H9.82a18,18,0,0,0-3.24-.22A10.44,10.44,0,0,0,5,11.89a7.3,7.3,0,0,0-2.27.84,7,7,0,0,0-.68.45,5.92,5.92,0,0,0-.61.53c-.1.09-.19.19-.28.29L1,14.14l-.06.08-.06.08-.12.16-.11.17c-.07.11-.14.23-.21.35a4,4,0,0,0-.33.74,2.93,2.93,0,0,0-.1.8,7.08,7.08,0,0,0,0,.81,2.67,2.67,0,0,0,.18.78,4.89,4.89,0,0,0,.35.73,4.33,4.33,0,0,0,.46.66,5.34,5.34,0,0,0,.58.57A9.24,9.24,0,0,0,2.91,21a8.82,8.82,0,0,0,1.48.66A7.35,7.35,0,0,0,6,22l.81.09a7.71,7.71,0,0,0,.81,0A11.75,11.75,0,0,0,9.2,22,5.06,5.06,0,0,0,10,21.8c.26-.08.51-.18.76-.29h0l.38-.18.37-.2.36-.22.34-.24.33-.26.31-.28.3-.3.28-.31.26-.33.24-.34.22-.36.19-.37.17-.38.15-.39.12-.4.1-.41v0h0c.2.13.4.26.58.4a6.62,6.62,0,0,1,.54.45l.25.25.12.13.11.14c.08.09.14.19.22.28s.13.19.19.3l.09.15.08.16,0,.08,0,.08.06.17a3.41,3.41,0,0,1,.16.69c0,.12,0,.23,0,.35a2.6,2.6,0,0,1,0,.35,1.52,1.52,0,0,1-.07.35,1.73,1.73,0,0,1-.16.32,2.1,2.1,0,0,1-.46.53,2.86,2.86,0,0,1-.61.37,4,4,0,0,1-.67.23,6.15,6.15,0,0,1-.69.13c-.47.06-.94.09-1.4.15a4.54,4.54,0,0,0-.69.13A5.09,5.09,0,0,0,12,23h0a3.36,3.36,0,0,0-1.06.7,1.66,1.66,0,0,0-.36.52,2.37,2.37,0,0,0-.16.61,5,5,0,0,0,0,.64,4,4,0,0,0,0,.64,2,2,0,0,0,.19.61,2.23,2.23,0,0,0,.16.27l.1.13s.07.09.12.07a.2.2,0,0,0,.12-.09.33.33,0,0,0,0-.15,1.14,1.14,0,0,0,0-.31,1.93,1.93,0,0,1-.07-.31A1.57,1.57,0,0,1,11,26a1.49,1.49,0,0,1,.2-.61,1.12,1.12,0,0,1,.47-.43,2.55,2.55,0,0,1,.61-.21l.63-.12c.42-.07.85-.1,1.27-.14a12.3,12.3,0,0,0,2.52-.41A6.62,6.62,0,0,0,19,22.85a4.28,4.28,0,0,0,1.4-2.1,3.18,3.18,0,0,0,.08-1.27,4.4,4.4,0,0,0-.36-1.22l-.19-.38ZM14.32,1.86l.09.06.06,0,0,0,.18.12h0l.19.13a1.18,1.18,0,0,1,.17.16l.07.1.05.11a.73.73,0,0,1,0,.11.9.9,0,0,1,0,.12,1,1,0,0,1,0,.12.94.94,0,0,1,0,.12.74.74,0,0,1,0,.12.69.69,0,0,1,0,.11l-.07.1L15,3.49h0l0,0h0V3.41l0-.07,0-.15,0-.15,0-.07V2.89h0V2.75s0-.09,0-.14a1.16,1.16,0,0,0,0-.14,1,1,0,0,0-.06-.13,5.58,5.58,0,0,0-.32-.48ZM11.44,3.74l.07.08,0,0,0,0,.09.09.07.06,0,0,.07,0,.11,0a1,1,0,0,0,.23,0l.24,0a1.76,1.76,0,0,1,.46.12,1,1,0,0,1,.21.12,1,1,0,0,1,.18.17h0a0,0,0,0,1,0,0v0h-.72l-.14,0-.27-.09-.07,0-.06,0-.12-.08-.11-.1-.09-.11A1.58,1.58,0,0,1,11.55,4a2.52,2.52,0,0,1-.11-.26ZM14,13.24v0c0,.21.06.41.08.62s0,.41,0,.62l-.71.1-.18,0-.18,0-.18,0-.17,0h0v0c0-.21-.06-.41-.11-.62s-.09-.41-.15-.61v0h0l.09,0,.09,0,.19-.05.39-.07.39,0h.2l.19,0Zm-.61-1.92h0l.09.26c.09.22.17.45.25.67a6.64,6.64,0,0,1,.2.69v0h0c-.26,0-.52,0-.78.09l-.19,0-.19,0a2.17,2.17,0,0,0-.37.11l0,0v0c0-.14-.1-.27-.15-.41L12,12.4l-.18-.4-.19-.39,0,0h0l.2-.07.11,0,.11,0,.43-.09.43,0h.44ZM12.74,10h0l.09.16c.08.14.15.27.21.41s.13.28.19.43h0c-.29,0-.57.1-.85.17l-.21.06-.2.07-.21.07-.1,0-.09,0,0,0,0,0-.16-.27-.16-.27-.34-.53,0,0h0l.11,0,.11-.05.23-.08a3.39,3.39,0,0,1,.47-.12L12,10h.72Zm-.66-1.15.25.41.25.41v0h0l-.44.12-.11,0-.11,0-.22.08-.22.08-.21.08-.21.09-.1,0-.1,0,0,0,0,0-.34-.52-.34-.52,0,0,0,0,.23-.12L10.58,9a3.66,3.66,0,0,1,.49-.12,3.36,3.36,0,0,1,.5-.05h.5ZM8.94,7.57h0l-.22-.31A11.76,11.76,0,0,1,7.94,6.1v0h0l.19,0,.09,0,.1,0,.38-.06c.26,0,.51,0,.77-.05a6.63,6.63,0,0,1,.78,0l.38.07a3.26,3.26,0,0,0,.38.07h0v0c.05.23.1.45.18.67h0l0,.18V7h0a9.32,9.32,0,0,0-1.16.21l-.29.08-.28.09-.28.1-.28.1Zm.6.87-.46-.67c.09,0,.17-.09.27-.13l.28-.09a4.54,4.54,0,0,1,.58-.12c.19,0,.39,0,.59-.06h.61v0a10.64,10.64,0,0,0,.49,1.06l0,0h-.05c-.32.08-.63.15-.94.25l-.46.16a2.82,2.82,0,0,0-.44.19h0l0,0Zm1.27,9.85-.05.07,0,0-.1.13h0l-.06.08a3.24,3.24,0,0,1-.57.54h0a.68.68,0,0,0,.09-.12l.09-.13c.06-.08.12-.17.17-.25s.19-.35.28-.52l-.7.32q-.36.15-.73.28c-.25.09-.5.16-.75.23s-.51.12-.77.16a7.53,7.53,0,0,1-.78.09,7,7,0,0,1-.78,0q-.39,0-.78-.07A6.62,6.62,0,0,1,4.58,19a4.56,4.56,0,0,1-.74-.26,3.89,3.89,0,0,1-.68-.4,2.62,2.62,0,0,1-.57-.55A1.66,1.66,0,0,1,2.27,17c0-.07,0-.13,0-.2s0-.13,0-.2a1.66,1.66,0,0,1,.08-.39,2.24,2.24,0,0,1,.4-.69A2.66,2.66,0,0,1,3.33,15a2.52,2.52,0,0,1,.35-.19l.18-.08.09,0,0,0H4a0,0,0,0,0,0,0l0,0a5.46,5.46,0,0,1,.91-.23,8.42,8.42,0,0,1,.93-.09,12.92,12.92,0,0,1,1.86,0c.31,0,.62.07.92.13l.91.19.9.23.45.13.22.07.22.06h0a8.47,8.47,0,0,1,0,1l0,0h0a.58.58,0,0,0,0,.11l0,.11,0,.22c0,.15,0,.3,0,.44a2.68,2.68,0,0,1-.08.44,2.11,2.11,0,0,1-.09.25h0l-.07.15-.14.23,0,.06Zm2.16.65-.27.4-.17.23a9.13,9.13,0,0,1-.61.69l-.16.16-.16.17a1.11,1.11,0,0,1-.38.28l-.14.06.11-.11a3.79,3.79,0,0,0,.35-.38l.15-.21.14-.22a4.8,4.8,0,0,0,.24-.46c.07-.16.14-.32.2-.48v0h.18l.16,0,.33-.07h0Zm.59-1.24-.09.23-.17.39c-.06.13-.12.26-.18.38h0l-.36.1-.18.06h-.09l-.09,0h-.07l0-.06c.11-.35.22-.69.3-1v0h0a.45.45,0,0,0,.21,0l.11,0h.11l.45,0h0ZM14,16.36c0,.17-.08.34-.13.5s-.11.33-.17.49l-.24,0-.24.05a4.4,4.4,0,0,0-.47.1l0,0v0c0-.09,0-.18,0-.27s0-.18,0-.27,0-.37,0-.55v0h0l.14,0,.07,0h.08l.3,0a5.38,5.38,0,0,1,.6,0h0Zm.12-.93c0,.2,0,.4-.09.6l-.31,0-.31,0-.31,0-.16,0-.15,0h0v0l0-.32,0-.32-.06-.64v0h0l.17,0H13l.36,0h.74v0C14.13,15,14.12,15.23,14.1,15.43Z" style="fill:#fff"/><path d="M20.07,18.26l-.18-.37Z" style="fill:#fff"/><path d="M20.46,19.94v0Z" style="fill:#fff"/></g></g></svg>