<svg xmlns="http://www.w3.org/2000/svg" viewBox="0 0 30.31 19.41"><title>05龍_1</title><g id="圖層_2" data-name="圖層 2"><g id="圖層_1-2" data-name="圖層 1"><path d="M28.39,10h0S28.41,10,28.39,10Z" style="fill:#fff"/><path d="M0,12.89c.15.47.69.36.93,0,0,.36-.55.36-.16.88a.44.44,0,0,1-.36,0c.22.09.47.25.66,0s0-.5.25-.67c0,.16,0,.47.07.61s.51.11.23.42c.75-.43-.22-.63,0-1.06.16.31,1.09.21.74.7.6-.54-.26-.66-.6-1a.67.67,0,0,1,.3-.23,1.3,1.3,0,0,1,1.24.4,4.94,4.94,0,0,0,1.46,1c.34,2,3,3,5,2.64a1.68,1.68,0,0,0,2.08-.13c.1-.4.72-.43,1.06-.59s.69-.45,1.07,0,.59.41.95,0c-.46.36-.5-.54-.83-.64.34-.13.3-.56.3-.85a1.54,1.54,0,0,1,0-.52c.1-.19.32-.26.42,0,0-.25-.26-.53-.54-.36s-.12.54-.29.75c.08-.38-.39-.74.15-.92-.9-.14-.28.63-.5,1.05,0-.48-.34-.49-.55-.79.05,0,.07-.08.14-.12-.94-.23.12.82.15,1-.18-.42-.8-.14-.8-.67a1.34,1.34,0,0,0-.1.19,7.25,7.25,0,0,0,.22-1.22,4.93,4.93,0,0,1,.38-2.07c1-1.57,2.55-.07,3.18.93.42.66.82,1.47,1.28,2.23-1.5.67-.54,2.45-.54,2.45.4.1.44.72.59,1.06s.46.68,0,1.07-.41.59,0,.95c-.36-.46.54-.5.63-.83.13.34.56.29.86.3a1.54,1.54,0,0,1,.52,0c.19.1.26.32,0,.42.25,0,.53-.26.36-.54s-.54-.12-.75-.29c.38.08.74-.39.92.15.13-.9-.63-.27-1.05-.49.48,0,.49-.34.79-.56,0,.05.08.07.12.14.22-.94-.82.12-1,.16.42-.19.14-.8.67-.8-.81-.5-.59.43-1.07.62-.14-.17-.13-.4-.19-.59s-.35-.5-.3-.63c.2-.61,1-.41,1.39-.3a3.37,3.37,0,0,0,2.08.5,4.35,4.35,0,0,0,3.06-1.52c2.05,0,2.22-.86,2.22-.86.06-.22,0-.39.18-.58s.29-.26.42-.43a5,5,0,0,1,1-.87c.29-.25.59-.79,1-.45.17.15.08.43.37.43s.34-.22.4-.36c-.39.15-.31,0-.48-.25s-.22-.15-.17-.51c0-.21,0-.48.07-.69s.1-.29.43-.37c-.19-.1-.42-.23-.61-.08s0,.43-.24.58c-.2-.56-.21-.61.2-1-.71,0-.54.42-.55.9-.15-.2-1-.36-.58-.62-1.08.47.24.49.25,1a1.5,1.5,0,0,1-.63-.06c-.18-.1-.23-.31-.33-.5,0,0,0,.1,0,.11a1.17,1.17,0,0,0,0,.54c.12.22.3.14.5.19.7.15.06.48-.31.66s-.94.53-1.27.46-.68-.46-1-.65a4.69,4.69,0,0,0-.15-.53,6.79,6.79,0,0,0-2.51-2.9c-.46-.33-1.25-.62-1.55-1.11a1.15,1.15,0,0,1,.4-1.47s1.75.12,2,.55c.09.15.28,1.27.48,1.66s.41.29,1.23.62a1.11,1.11,0,0,0,1.29-.24c.13-.15,0-.25,0-.4a1.55,1.55,0,0,1,.09-.35c0-.21,0-.57-.26-.59,0,.18,0,.61-.3.65s-.42-.43-.51-.62c.55.34,1-.52,1.54-.27-.39-.65-1,0-1.51-.3s-.3-1.22-.92-1.23c.24-.08.69.07.87-.11a.61.61,0,0,1,0,.08.7.7,0,0,0,.16-.08s0,.07,0,.1a.3.3,0,0,0,.22-.1A.41.41,0,0,1,26,5.3a.4.4,0,0,0,.25-.22s0,.1,0,.14l.08-.06,0,.07,0,.06,0,0a1.22,1.22,0,0,0,.16.21.72.72,0,0,1-.18.27.5.5,0,0,0,.36-.11,2.64,2.64,0,0,0,.79.38c.53.17,1.18.19,1.47.79.51,1.09-.79.44-1.12.81s.14.48.11.78-.41.28-.56.51.18.44.26.73a.39.39,0,0,1-.16.41c.21-.1.38-.29.24-.54s-.44-.52.06-.7.51-.25.26-.63-.05-.53.39-.5.74.05.83-.37a1.19,1.19,0,0,0-.62-1.16c-.36-.2-1.37-.27-1.85-.61A1.1,1.1,0,0,0,27,5s0,.06,0,.09l.09-.1s0,.08,0,.12A.56.56,0,0,0,27.31,5a.23.23,0,0,1-.1.3.32.32,0,0,0,.22-.17l0,.05A1,1,0,0,0,27.55,5a1.62,1.62,0,0,1,0,.19.38.38,0,0,0,.11-.25.52.52,0,0,1,.11.81A.52.52,0,0,0,28.13,5l.11.08a.75.75,0,0,0-.11-.2c.21.1.53.22.69,0a.6.6,0,0,1-.54-.17.85.85,0,0,0,.36,0,.58.58,0,0,1-.27-.17c.21.11.83.07.75-.29a.38.38,0,0,1-.59.11c.2,0,.42-.08.44-.32a.91.91,0,0,1-.38.16c.13-.24.44-.32.33-.67,0,.22-.2.26-.35.4,0-.19.11-.38-.08-.52.1.23-.08.37-.29.31s-.25-.23-.33-.41a.69.69,0,0,0-.1-.16A.54.54,0,0,1,28,3c.34-.17,1.36-.37,1.07-1s-1.13.27-1.52-.09c-.21-.2-.09-.67-.31-.89a.63.63,0,0,0-.73,0c-.52.26-.66,1-1.33,1a1,1,0,0,0,.92-.43c.22-.28.59-.85,1-.46s0,.86.43,1,.84-.42,1.21-.17-.24.64-.49.72a1.58,1.58,0,0,0-.67.34c-.2,0-.41.13-.51.4a.45.45,0,0,0-.44-.29c-.27,0-.2.27-.34.46-.09-.17-.23-.37-.46-.3a.4.4,0,0,0,0-.35l-.07,0a.46.46,0,0,0,0-.26.84.84,0,0,1-.07.1.26.26,0,0,0-.15-.27c0,.52-.46.24-.72.13a2,2,0,0,0-1.06-.2h0c-.65-.19-1-1-1.44-1.46a1,1,0,0,0,.2.68,4.07,4.07,0,0,1-1-1.6c-.28.41.07,1.08.16,1.49A9.12,9.12,0,0,1,20.33,0c0,.3,0,.57.08.86C20.24.72,20.13.55,20,.41c0,.23.12.43.13.65a2.65,2.65,0,0,0-.88-.59c.12.27.5.3.58.57-.56-.32-.9,0-1.46.06.53.12,1.28.08,1.5.72-.48-.25-1,0-1.52-.27.28.37,1.05.33,1.22.73a1,1,0,0,0-.59-.07c-.21.07-.28.2-.53.18.27.26,1,0,1.11.55a.66.66,0,0,0-.89.17c.48-.08.78.26,1.08.58a1.37,1.37,0,0,0,.44.39,1,1,0,0,1,.19.13,2.5,2.5,0,0,0-1.4.36,1.55,1.55,0,0,1,.74,0,2.36,2.36,0,0,0-1.27.72,3,3,0,0,1,.9-.11,2.54,2.54,0,0,0-1.18,1.21,3.7,3.7,0,0,1,.74-.3,1.64,1.64,0,0,0-.4,1,3.23,3.23,0,0,1,.42-.37,3.35,3.35,0,0,0-.19.93A1,1,0,0,1,19,7.36a3.41,3.41,0,0,0-.1.88,2.1,2.1,0,0,0,.25-.29c0,.34-.15.76,0,1,.08-.18.16-.37.25-.54,0,.39-.13.85.08,1.18a2.27,2.27,0,0,1,.18-.69A2.39,2.39,0,0,0,20.06,10a1.21,1.21,0,0,1,0-.69,2.35,2.35,0,0,0,.59,1.1,1.05,1.05,0,0,1,0-.55,3.38,3.38,0,0,0,.51,1,1.27,1.27,0,0,1,0-.63c.18.22.22.61.39.88,0-.18,0-.38.08-.51a2.58,2.58,0,0,1,.23.83c0-.17,0-.37.17-.47.12.23.09.52.2.77a.82.82,0,0,1,.33-.56,3.38,3.38,0,0,0-.14.9.94.94,0,0,1,.44-.43,2.32,2.32,0,0,0-.38.73,1.12,1.12,0,0,1,.46-.19,2.13,2.13,0,0,0-.52.39,1,1,0,0,1,.57,0l-.52.14a1.32,1.32,0,0,1,.41.35,3.44,3.44,0,0,0-.61-.07c.15.13.36.23.49.38a3.56,3.56,0,0,0-.74-.19c.14.17.38.28.41.52a4.16,4.16,0,0,0-.64-.51,1.12,1.12,0,0,1,.11.56A3.6,3.6,0,0,0,21.4,13a2.52,2.52,0,0,1,0,.57,8.55,8.55,0,0,1-.5-.93,1.12,1.12,0,0,1,0,.62c-.21-.25-.17-.8-.32-1.1a1.24,1.24,0,0,1-.17.74,4.82,4.82,0,0,1-.34-1.16,1.55,1.55,0,0,1-.17.63,9.48,9.48,0,0,1-.31-1.27,2.66,2.66,0,0,1-.16.65h0a9.08,9.08,0,0,0-.34-1.42c0,.17,0,.41-.05.61a4.27,4.27,0,0,1-.31-1,.81.81,0,0,1-.1.38,3.69,3.69,0,0,0-.22-1,5.16,5.16,0,0,1-.09.59A3,3,0,0,0,18,9a3.25,3.25,0,0,1,0,.47,1.7,1.7,0,0,0-.39-1c0,.13,0,.27,0,.41a5.45,5.45,0,0,0-.33-1c0,.22,0,.44,0,.66a2.43,2.43,0,0,0-.72-1.19c.11.3.25.59.34.9-.22-.33-.38-.8-.72-1,0,.18.11.36.14.54A2.6,2.6,0,0,0,15.65,7a5.37,5.37,0,0,1,.14.7c-.37-.18-.56-.64-1-.82.12.2.22.41.34.62a2,2,0,0,0-1-.7,1.76,1.76,0,0,1,.48.58,3,3,0,0,0-1-.46,3.5,3.5,0,0,1,.38.46,2.71,2.71,0,0,0-1.29-.3c.18.12.35.26.52.39a2.57,2.57,0,0,0-1.13-.14c.16.11.35.21.51.33a2.33,2.33,0,0,0-1,.12c.15,0,.33.07.48.1a1.15,1.15,0,0,0-.84.33,1.49,1.49,0,0,0,.42,0,3.92,3.92,0,0,0-.73.37c.11,0,.24,0,.35,0a3.07,3.07,0,0,0-.65.49,1.61,1.61,0,0,1,.38-.1c-.19.24-.48.39-.63.66l.34-.14c-.22.13-.56.4-.57.66a2.6,2.6,0,0,1,.36-.15,2.84,2.84,0,0,0-.63.77c.14,0,.28-.09.43-.11-.3.13-.42.4-.65.61.22,0,.38-.18.6-.19v0c-.2.15-.5.34-.57.56a1.82,1.82,0,0,1,.42,0,2.24,2.24,0,0,0-.63.36h.54a3.93,3.93,0,0,0-.69.6,3.18,3.18,0,0,1,.58,0c-.18.12-.43.17-.63.3a.82.82,0,0,1,.52.13v0c-.21,0-.45,0-.65.06a.52.52,0,0,1,.33.35A3.36,3.36,0,0,0,9,13.32a.84.84,0,0,1,.24.41,3.66,3.66,0,0,0-.47-.24,1.61,1.61,0,0,1,.08.41c-.1-.13-.21-.26-.33-.38a2.27,2.27,0,0,1-.06.51,3,3,0,0,0-.16-.54A3,3,0,0,1,8.1,14,1.52,1.52,0,0,0,8,13.33a.83.83,0,0,1-.35.72l0,0a1.67,1.67,0,0,1,0-.7,1,1,0,0,1-.35.24c.05-.19.27-.31.34-.5A1.66,1.66,0,0,1,7,13c.19-.13.43-.22.63-.36a.82.82,0,0,1-.36-.14A4.63,4.63,0,0,0,8,12.08a2.47,2.47,0,0,0-.52,0c.26-.16.6-.12.82-.36a1.84,1.84,0,0,1-.46-.06,4,4,0,0,0,.65-.38,2.43,2.43,0,0,0-.38-.06,2,2,0,0,0,.77-.42c-.08,0-.22,0-.27,0a1.52,1.52,0,0,0,.63-.34c-.09,0-.18,0-.27,0,.13-.16.33-.27.46-.44-.08,0-.18,0-.26,0,.21-.15.42-.35.6-.52-.07,0-.15,0-.22,0,.12-.16.32-.28.43-.44-.09,0-.18,0-.26,0a1.62,1.62,0,0,0,.3-.71c-.08.08-.21.14-.29.22,0-.31.19-.57.16-.91,0,0,0,0-.07,0a2.94,2.94,0,0,0-.07-.69S9.63,7,9.6,7a1.72,1.72,0,0,0-.1-.66,1.56,1.56,0,0,0-.13.16,2.25,2.25,0,0,0-.12-.71c0,.09-.08.19-.1.27a2.28,2.28,0,0,0-.22-.63,1.13,1.13,0,0,0-.06.3,1.33,1.33,0,0,0-.25-.52,1.08,1.08,0,0,1,0,.4.9.9,0,0,0-.24-.54,2.3,2.3,0,0,0,0,.36A1.87,1.87,0,0,0,8,4.89C8,5,8,5.14,8,5.26a.8.8,0,0,0-.19-.44C7.68,4.32,7,3.75,7,3.41s.34-.73.28-1.17-.55-.68-.53-1.19c-.06.65.59.84.33,1.46C7,2.8,6.73,3,6.65,3.3s.12.56.25.86c-.49-.2-1.19-.26-1.14-1,0-.34.32-.6.33-.94a1.54,1.54,0,0,0-.34-.8,1.11,1.11,0,0,1-.13,1.1,1.36,1.36,0,0,0-.2.72c0,.25.28.43.25.69-.73.11-.51-1.6-.74-2C4.55,1.36,3.5,1.5,3.26.66c-.08,1.07,1,.79,1.38,1.45A1.73,1.73,0,0,1,4.76,3a1.54,1.54,0,0,0,.33,1c-.63-.48-.81-1.48-1.55-1.85s-1.87.15-2.73-.5a1.66,1.66,0,0,0,1.36.6,1.9,1.9,0,0,1,1.31.39,5,5,0,0,1,.69,1.11,2.3,2.3,0,0,0,.91.72,1.66,1.66,0,0,1-1.65-.94c-.35-.57-.81-.57-1.31-.77A6.47,6.47,0,0,1,3.4,4.16c.37.43,1.37.32,1.49.91C4.66,4.89,4.37,5,4.1,5a1.15,1.15,0,0,1-.71-.44A2,2,0,0,0,2.77,4a2.07,2.07,0,0,0-.51-.07c.56.21.83.88,1.42,1.1a6.11,6.11,0,0,1,1.8.72,3.63,3.63,0,0,0-.77,0,3,3,0,0,1-.92-.36A1,1,0,0,0,3,5.25c-.26.11-.4.37-.67.46.3,0,.56-.21.86-.25a1.79,1.79,0,0,1,.94.26A2.73,2.73,0,0,0,4.93,6c.27,0,.63-.09.85.08-.55,0-.69.46-1.19.56a3.29,3.29,0,0,0-.94.16,1.77,1.77,0,0,0-.48.49C3.47,7,3.93,7,4.32,7a1.68,1.68,0,0,0,1-.37,3.42,3.42,0,0,1,.85-.56A2.85,2.85,0,0,1,7.08,6l0,0a4.89,4.89,0,0,1,1,1.21c.79,1.2-.9,2.37-1.69,3a5.71,5.71,0,0,0-1.34,1.45l-1.65.41c-.49-.2-1,.05-1.48-.09s-.2-.22-.22-.53-.14-.47-.44-.3c.42.13.05.43,0,.6s.09.32-.2.53-.36.14-.54.38S.38,13.12,0,12.89Zm11.95,2.47a4.54,4.54,0,0,0,.55-1.19c-.06.41.61.33.75.74-.17.14-.4.12-.59.19s-.5.34-.63.3Z" style="fill:#fff"/><path d="M20.06,11.57a1.31,1.31,0,0,1,0,.17A1,1,0,0,1,20.06,11.57Z" style="fill:#fff"/><path d="M3.17,7.28l-.06.07Z" style="fill:#fff"/><path d="M5.76,1.44l-.1-.17Z" style="fill:#fff"/><path d="M2.26,3.91A.85.85,0,0,1,2,3.85,1,1,0,0,1,2.26,3.91Z" style="fill:#fff"/><path d="M2.29,5.71h0S2.27,5.71,2.29,5.71Z" style="fill:#fff"/><path d="M2.13,2.75a2,2,0,0,1-.34-.17A1.77,1.77,0,0,1,2.13,2.75Z" style="fill:#fff"/><path d="M18.31,1.55h0S18.3,1.54,18.31,1.55Z" style="fill:#fff"/><path d="M28.49,3.38h0S28.48,3.38,28.49,3.38Z" style="fill:#fff"/><path d="M27.52,10.05a.42.42,0,0,1-.28.09A1,1,0,0,0,27.52,10.05Z" style="fill:#fff"/></g></g></svg>