<svg xmlns="http://www.w3.org/2000/svg" viewBox="0 0 29.86 23.63"><title>07馬</title><g id="圖層_2" data-name="圖層 2"><g id="圖層_1-2" data-name="圖層 1"><path d="M29.45,5.84h0l-.19-.08a.94.94,0,0,1-.35-.19,2.68,2.68,0,0,1-.4-.61,4.31,4.31,0,0,1-.28-.66c-.07-.21-.13-.44-.18-.65a8.43,8.43,0,0,0-.34-1.08A1.55,1.55,0,0,0,27.37,2a2.23,2.23,0,0,0-.57-.34l-.34-.12-.08,0a.53.53,0,0,1-.25-.1A.67.67,0,0,1,26,1V1a1.62,1.62,0,0,1,0-.39,1.66,1.66,0,0,1,.09-.39v0L26.2,0h0V0h0A1.19,1.19,0,0,0,26,.15a3.12,3.12,0,0,0-.32.31l0,0a1.83,1.83,0,0,0-.34.47,1.08,1.08,0,0,0-.09.43v.21l-.11-.18A1.94,1.94,0,0,0,23.71.73a2.29,2.29,0,0,0-1.29.13,6,6,0,0,0-.74.39l-.46.26A8.85,8.85,0,0,1,20,2a7.89,7.89,0,0,1-2,.4h0l.17.06.2.07a3.21,3.21,0,0,0,.49.09l.19,0a5.23,5.23,0,0,0,1.33.06h.08l0,.08a1.19,1.19,0,0,1-.47.51l0,0a4.7,4.7,0,0,1-.65.4,10.91,10.91,0,0,1-1.4.62,4.1,4.1,0,0,0-1.1.52,2.08,2.08,0,0,0-.53.51l.08,0,.08,0,.32-.15A4.21,4.21,0,0,1,17.39,5a6.76,6.76,0,0,1,1.18-.2l.18,0-.14.11L18.37,5h0c-.19.15-.38.31-.58.5l-.19.19a3.46,3.46,0,0,1-.62.53,3.59,3.59,0,0,1-1,.44,2.11,2.11,0,0,1-.37,0h-.43a.73.73,0,0,0,.24.15l.05,0,.5.22a3.55,3.55,0,0,0,1,.25,3.32,3.32,0,0,0,2-.55l.4-.25-.33.33a4.67,4.67,0,0,1-1.2.8,14.72,14.72,0,0,1-1.53.65,12.78,12.78,0,0,1-1.29.38l-.28.07a10.45,10.45,0,0,0-1.56.54,6,6,0,0,0-1.44.92l0,0,0-.05a4.55,4.55,0,0,0-1.34-1.5,4.8,4.8,0,0,0-1.76-.67,5.73,5.73,0,0,0-2,0,6.11,6.11,0,0,0-1.54.56l-.45.21c-.38.17-.77.3-1.09.41A5.32,5.32,0,0,1,3,9.41l-.3.06-.11,0H2.54a5.86,5.86,0,0,1-.87.06l-.39,0H1.21a.38.38,0,0,0-.26,0c-.06.05-.06.09-.06.1s.18.19.26.24h0a4,4,0,0,0,.76.32,5.89,5.89,0,0,0,3.22,0l.18,0-.13.13a1.63,1.63,0,0,1-.49.3l-.07,0a2.94,2.94,0,0,1-.64.19,4.16,4.16,0,0,1-.66.09H2.63s0,0,0,.06a.42.42,0,0,0,.21.15,2.64,2.64,0,0,0,.65.16,8.62,8.62,0,0,0,1.23.06H5l-.13.1A2.81,2.81,0,0,1,3.33,12a5.27,5.27,0,0,1-1.63-.14,3.09,3.09,0,0,1-.77-.34l-.34-.21-.1-.07a1,1,0,0,0-.22-.13.2.2,0,0,0-.22,0,.23.23,0,0,0,0,.25,1.54,1.54,0,0,0,.39.47l.07.07,0,0a8.73,8.73,0,0,0,1.37,1.13l.21.13-.24,0A2.33,2.33,0,0,1,1.18,13a4,4,0,0,1-.46-.25l-.09-.06a.22.22,0,0,1,0,.06,2.55,2.55,0,0,0,1.47,1.2,3.54,3.54,0,0,0,1.1.27,4.05,4.05,0,0,0,.87-.06l.15,0a8.85,8.85,0,0,0,2.12-.63,10.4,10.4,0,0,0,1.6-.9l.34-.22a8.79,8.79,0,0,1,1.08-.56,2.36,2.36,0,0,1,1.23-.25h.08l0,.07a3.93,3.93,0,0,0-.46,1.78,4.78,4.78,0,0,0,.37,1.84c0,.14.11.28.18.41s.13.29.19.44a2,2,0,0,1,.06,1,3,3,0,0,1-.3.92l0,.06-.07.13h0l0,0a1.19,1.19,0,0,0-.21.38h0a.24.24,0,0,0,0,.11.1.1,0,0,0,0,.07h0a.92.92,0,0,0,.4.38l0,0c.18.12.38.23.64.37a4.52,4.52,0,0,1,.4.25l.25.16,0,0,.16.14.23.19a9,9,0,0,1,.77.71l.52.57,0,0v0a1.06,1.06,0,0,1,.18.35l0,.06,0,.1v.08a.22.22,0,0,1-.11.23l-.05,0a.34.34,0,0,0-.08.22v0c0,.1,0,.21,0,.31s0,.12,0,.18,0,.05,0,.08a.45.45,0,0,0,0,.15h.35c.19,0,.37,0,.55,0h.16a6.11,6.11,0,0,0,.75,0h.24a.73.73,0,0,0,.27,0,0,0,0,0,0,0,0h0a.15.15,0,0,0,0,0,.64.64,0,0,0-.07-.21l0-.1a2.28,2.28,0,0,0-.14-.35l0,0a1,1,0,0,0-.16-.25l-.11-.07h0a1.21,1.21,0,0,0-.33-.12h0l-.08,0-.35-.06h0V22.2l.14,0,.11,0,.32,0h0c0-.11-.06-.22-.09-.31a3.27,3.27,0,0,0-.62-.87v0l0,0-.05-.06-.21-.22c-.17-.18-.36-.35-.54-.51l-.27-.25a6.19,6.19,0,0,0-.79-.6l0,0a.08.08,0,0,1,0-.1v0a.37.37,0,0,1,0-.12l0,0,.12-.25a6.67,6.67,0,0,1,.36-.62A8.38,8.38,0,0,1,14,17a4.32,4.32,0,0,1,.51-.47,4.51,4.51,0,0,0,.48-.44A4.73,4.73,0,0,0,15.72,15a3.78,3.78,0,0,0,.4-1.38,13.44,13.44,0,0,0,.09-1.43l-.41-.29.47.21s.07,0,.21.8h0a3.93,3.93,0,0,1-.22,2.14,3.41,3.41,0,0,1,1-.58l.32-.1.11,0,.2-.06.19,0,.13,0,.19,0h.12l.18,0,.18,0h.18l.22,0h0l.52-.09c.31-.06.62-.12.93-.21a7.18,7.18,0,0,0,.84-.33,4.67,4.67,0,0,0,.83-.44,1.47,1.47,0,0,1-.27-1,2,2,0,0,1,.1-.53,1.36,1.36,0,0,1,.12-.27v0c.08-.15.12-.19.16-.2l.29-.05-.25.14a1.83,1.83,0,0,0-.07.26,1.52,1.52,0,0,0,0,.36,2.16,2.16,0,0,0,.12.69.68.68,0,0,0,.42.45.71.71,0,0,0,.47-.06,2,2,0,0,0,.7-.45l.1-.1c.21-.23.43-.46.66-.68h0A2.86,2.86,0,0,1,26.11,11h0c.13,0,.28.11.26.44v.06a3.4,3.4,0,0,1-.22.7l-.05.13-.06.15c-.08.21-.16.42-.26.63l0,0,0,0,0,0,0,.06,0,.07v0h0a.83.83,0,0,0-.07.16c-.08.12-.1,0-.26.13l-.12.09a1.54,1.54,0,0,0-.36.47l0,.1v0c0,.06,0,.08,0,.13a.66.66,0,0,0,.1.16l0,0A3.09,3.09,0,0,0,26,15.5l.21.08h0v0a1.59,1.59,0,0,0,.13-.66v0a.53.53,0,0,0,0-.17.88.88,0,0,0-.09-.18l0-.07h0l.08,0h0a.44.44,0,0,0,.13-.24l0-.07c0-.14.09-.29.13-.47s.12-.43.19-.64.1-.32.15-.47a6.4,6.4,0,0,1,.41-1l.11-.21a2.17,2.17,0,0,0,.27-.69.89.89,0,0,0,0-.18c0-.11-.08-.39-.15-.43h0l0,0-.07-.07h0a.77.77,0,0,0-.2-.1h0a1.24,1.24,0,0,0-.68-.07l-.49.09-.27.06h0a.39.39,0,0,1-.16,0c-.47.09-1.09.13-1.28-.43a1.28,1.28,0,0,1,0-.74,6.47,6.47,0,0,1,.27-.75h0l.13-.34.16-.41a4.31,4.31,0,0,1,.35-.63l0,0,0,0c.11-.2.15-.25.2-.25s.06,0,.11.07l0,0,.19.09a4.57,4.57,0,0,0,.69.19l.34.05a3.37,3.37,0,0,1,.5.09,1,1,0,0,1,.31.14.58.58,0,0,1,.17.27l0,.08a.51.51,0,0,0,.42.36A1.23,1.23,0,0,0,29,7.36a2.53,2.53,0,0,0,.5-.43l.06-.06a.9.9,0,0,0,.32-.56C29.86,6.08,29.66,6,29.45,5.84ZM10,10.65a.93.93,0,0,0-.3.06l-.08,0a3,3,0,0,0-.4.13,5.41,5.41,0,0,0-1.42,1l0,0a5.61,5.61,0,0,1-2.78,1.56,4.71,4.71,0,0,1-.71.06,4,4,0,0,1-.85-.09,3.19,3.19,0,0,1-1.4-.73L2,12.61l.13.09a3.44,3.44,0,0,0,.6.35,2.72,2.72,0,0,0,1.58.09,5.69,5.69,0,0,0,2.37-1.32l0,0a4.85,4.85,0,0,1,2.6-1.27,2.42,2.42,0,0,1,.64,0Zm-3.77.59A3.88,3.88,0,0,1,8.92,9.79a1.65,1.65,0,0,1,.54.07.81.81,0,0,1,.24.13l.07.07,0,0-.06.09-.09-.05a1.16,1.16,0,0,0-.42-.08H8.8a4,4,0,0,0-1.36.42,6.42,6.42,0,0,0-.67.4,3.75,3.75,0,0,0-.51.42Zm4.94-.8a.82.82,0,0,0-.16-.13l-.06,0-.3-.21A4.17,4.17,0,0,0,10,9.76l-.13,0-.23-.09L9.3,9.48a4.44,4.44,0,0,0-.72-.2A4.71,4.71,0,0,0,7,9.3a12.4,12.4,0,0,0-1.5.38h0A5.19,5.19,0,0,1,4.13,10V9.86h.18l.34-.06a5,5,0,0,0,.74-.26c.19-.08.39-.17.6-.28s.47-.23.7-.32A4.21,4.21,0,0,1,8.07,8.6a3.27,3.27,0,0,1,1.77.47,3.34,3.34,0,0,1,.77.57,6.65,6.65,0,0,1,.59.74Zm9-8h0V2.36a1.93,1.93,0,0,0,.72-.2,6,6,0,0,0,.78-.45,3.54,3.54,0,0,1,1.68-.64,1.69,1.69,0,0,1,.86.11,1.52,1.52,0,0,1,.37.27l.07.08a1,1,0,0,0,.13.15l0,.1a1.36,1.36,0,0,1-.35-.11l-.2-.07a1.83,1.83,0,0,0-.53-.07H23.5a4.63,4.63,0,0,0-1.17.16,6,6,0,0,0-.84.33l-.3.13A3,3,0,0,1,20.07,2.47Zm2.68,1.21-.08.09a2.31,2.31,0,0,1-.29.23,5.79,5.79,0,0,1-.67.4l-.35.16a3.46,3.46,0,0,0-.89.5,1.56,1.56,0,0,0-.56,1.15s0,.1,0,.15a2.69,2.69,0,0,1-.07.56,1.82,1.82,0,0,1-.32.62A2.87,2.87,0,0,1,19,8a.91.91,0,0,1-.48.25l-.1,0,0-.1h.07l.1,0a1.85,1.85,0,0,0,.86-1,1.77,1.77,0,0,0,0-.79,2.54,2.54,0,0,1,0-.62,1.76,1.76,0,0,1,.72-1.17,3.82,3.82,0,0,1,1.36-.57,4.11,4.11,0,0,0,1.22-.47l.06.09A.58.58,0,0,0,22.75,3.68Zm1.1-1.2-.15.12h0l-.06,0,0,0-.06.05-.06.05-.26.2a2.07,2.07,0,0,1-.52.25,4.78,4.78,0,0,1-.77.15l-.4.06a3.37,3.37,0,0,0-1.11.42,2.88,2.88,0,0,0-.43.31,2.15,2.15,0,0,0-.17.19l-.14.15-.08-.07a3.48,3.48,0,0,1,1.74-1.22,5.55,5.55,0,0,1,.57-.15c.17,0,.35-.08.51-.13a3.71,3.71,0,0,0,.71-.35l.2-.11a2.18,2.18,0,0,1,.34-.15l.13,0a.58.58,0,0,0,.17,0l.06.09ZM24.43,2h-.27l-.33,0h-.2l-.45,0A2.88,2.88,0,0,0,22,2.54l-.07-.08a2.72,2.72,0,0,1,1.68-.74,1.23,1.23,0,0,1,.89.21l.36.3Zm3.08,2V4h0l0,0L27.4,4V4l-.09-.07h0l0,0a.19.19,0,0,1-.16,0,.27.27,0,0,1-.17-.15.43.43,0,0,1,0-.54.2.2,0,0,0-.12-.05h0c-.11,0-.25,0-.3-.18l.1,0,0,0,.06,0a.22.22,0,0,0,.13,0l.1,0a.38.38,0,0,1,.3.11.87.87,0,0,1,.21.39c0,.05,0,.11.05.15l0,0C27.5,3.83,27.54,3.92,27.51,4Z" style="fill:#534741"/></g></g></svg>