<svg xmlns="http://www.w3.org/2000/svg" viewBox="0 0 29.21 22.55"><title>02牛</title><g id="圖層_2" data-name="圖層 2"><g id="圖層_1-2" data-name="圖層 1"><path d="M29.18,4.78l0,0h0a1.44,1.44,0,0,1-1.43,0l-.3-.15A4.5,4.5,0,0,0,26.1,4a3.08,3.08,0,0,0-1.71.17l-.21.1,0,0c-.06,0-.09.06-.13.06s-.08,0-.21-.23l-.05-.07a4.82,4.82,0,0,0-.43-.41l-.16-.15-.23-.22L22.58,3c-.13-.11-.28-.22-.41-.31L22,2.53a4.7,4.7,0,0,1-.54-.5L21.34,2l-.29-.28-.35-.34L20.41,1a2.74,2.74,0,0,0-.92-.81A3.24,3.24,0,0,0,17.72.07a6.91,6.91,0,0,0-2,.61,7.8,7.8,0,0,0-1.52.9l.69-.21h0l.46-.12c.07,0,.12,0,.13,0s0,.07-.06.09l-.13,0-.06,0a6.4,6.4,0,0,0-1.51.83c.11,0,.17,0,.21,0h0a.05.05,0,0,1,0,0,.06.06,0,0,1,0,.05v0a.41.41,0,0,1-.17.13l-.06,0-.35.22c-.17.1-.34.2-.5.32a9.68,9.68,0,0,0-.82.67,7.34,7.34,0,0,0-.61.61A10.82,10.82,0,0,1,13,3.54l0,.09-.1.09-.05,0-.22.17L12.61,4l-.38.29-.38.3L11.3,5l-.53.38-.46.33,0,0L9.89,6h0a.57.57,0,0,0-.16.14l0,.06a.78.78,0,0,1-.1.13l-.27.27.12-.2a21.77,21.77,0,0,1-2,1.75A10.85,10.85,0,0,1,6.14,9L6,9.11a10,10,0,0,1-1.2.6A2.74,2.74,0,0,1,4,9.92a2.13,2.13,0,0,1-.75-.09A2.62,2.62,0,0,1,2.07,9a2.14,2.14,0,0,1-.49-1.34s0,0,0-.07a.56.56,0,0,0,0-.09h0a6.47,6.47,0,0,1,.15-.69v0a3.22,3.22,0,0,0,.07-.32h0l.05-.19A1.72,1.72,0,0,0,1.52,4.8,2.2,2.2,0,0,0,.34,4.17l.23.22,0,0c.17.16.23.23.22.29a.07.07,0,0,1,0,.06c-.05,0-.11,0-.2-.09l0,0a2.09,2.09,0,0,0-.42-.2h0L0,4.41l.07.06,0,0h0a1.45,1.45,0,0,1,.22.21,1,1,0,0,1,.23.62c0,.06,0,.13,0,.19s0,.23,0,.35a1.94,1.94,0,0,0,.06.47,2.08,2.08,0,0,0,.27.56,3.24,3.24,0,0,1,.21.38,1.94,1.94,0,0,1,.14.48v.11h0s0,.08,0,.12a2.42,2.42,0,0,0,.11.59,2.57,2.57,0,0,0,.44.83A2.7,2.7,0,0,0,3,10.29a1.61,1.61,0,0,0,.26.07,1.44,1.44,0,0,1,.33.1,1.27,1.27,0,0,1,.39.32A4.64,4.64,0,0,1,4.73,12a4.46,4.46,0,0,1,.69-.75l.43-.34.23-.17,0,0c.08-.07.14-.12.19-.12h0v0h0v0h0a1.45,1.45,0,0,0-.15.21l0,.07-.25.33v0a7.33,7.33,0,0,0-.44.6L5.34,12a9,9,0,0,0-.62,1.1A4,4,0,0,0,4.89,16a5.94,5.94,0,0,0,.35.81c.08.16.15.32.21.49l.07.17a3.27,3.27,0,0,1,.33-.82l.22-.34-.13.39c0,.07-.06.38-.08.5v.06c0,.22-.07.46-.13.7s-.09.38-.13.57-.1.46-.16.69a9.22,9.22,0,0,1-.3.9L5,20.43l0,.08a.47.47,0,0,0-.05.17v0h0l0,0,.06.07.06.06a2.25,2.25,0,0,1,.27.42.64.64,0,0,1,.08.53l-.06.12a.49.49,0,0,0-.09.27.5.5,0,0,0,.11.32.12.12,0,0,0,.09,0l.52,0c.36,0,.72,0,1.08,0h.52c.08,0,.21,0,.25,0a0,0,0,0,0,0,0,.62.62,0,0,0,0-.16,1.13,1.13,0,0,1,0-.11V22.1a1.83,1.83,0,0,0,0-.25.86.86,0,0,0-.33-.5,1.7,1.7,0,0,1-.75-.94h0v-.08h0v-.1a1.88,1.88,0,0,1,0-.32,2.13,2.13,0,0,1,.1-.48,2.38,2.38,0,0,1,.39-.71,10.12,10.12,0,0,1,1.18-1.23l.36-.34a6.12,6.12,0,0,0,.6-.69,2.68,2.68,0,0,0,.37-.69,15.48,15.48,0,0,0,.68-2.33,5.43,5.43,0,0,0,0-2v-.05h.09v0c.07.33.12.66.17,1s.06.4.1.61a14,14,0,0,1,2.29-1.23,12.08,12.08,0,0,1,2.5-.86,5.16,5.16,0,0,1,1.22-.09,3.22,3.22,0,0,1-1.35-.91,1.13,1.13,0,0,1-.21-.83,1.85,1.85,0,0,1,.14-.46v0c.15-.37.19-.4.24-.4h.06l0,.06a1.85,1.85,0,0,0-.05,1.09,1.68,1.68,0,0,0,.86.72c.42.22.79.43,1.12.64l.13.09a2.32,2.32,0,0,0,.34.2l.35.14.17.06.73.25.39.13.12,0a1.34,1.34,0,0,1,.34.14c.07,0,.12.08.09.19a1.16,1.16,0,0,1-.1.22l0,0a5,5,0,0,1-.42.61l-.19.25-.05.07a.9.9,0,0,1-.29.31.44.44,0,0,1-.42-.08l-.07,0,0,0a.47.47,0,0,0-.43-.08.68.68,0,0,0-.32.34,4.29,4.29,0,0,0-.33,1.05l0,.12a.87.87,0,0,0,0,.64.2.2,0,0,0,.17.07h0a.22.22,0,0,0,.19,0l.16-.09.1-.06h0c.18-.1.37-.19.55-.27l.07,0a.61.61,0,0,0,.2-.11.49.49,0,0,0,.09-.16h0l0-.06a2.46,2.46,0,0,1,.35-.4c.17-.16.35-.3.53-.44l.09-.07a7.84,7.84,0,0,1,.95-.68l.26-.14.27-.15.07,0a.61.61,0,0,0,.17-.11.65.65,0,0,0,.09-.21l0-.05a1.83,1.83,0,0,0,.08-1.23,1.35,1.35,0,0,0-.32-.4l0,0-.19-.19-.28-.27-1-.92-.25-.22a8.08,8.08,0,0,0-.8-.65L19,8.37h.16a1.15,1.15,0,0,1,.44.14h0l.34.19a2.85,2.85,0,0,1,0-1.33,1.63,1.63,0,0,1,.28-.63,1.4,1.4,0,0,1,.22-.23l0,0c.12-.12.19-.17.24-.17h.1l-.06.08-.11.14a1.89,1.89,0,0,0-.23.34,1.71,1.71,0,0,0-.16.57,3.71,3.71,0,0,0,0,.67v.07a1.62,1.62,0,0,0,.09.54,1.2,1.2,0,0,0,.41.43,4.27,4.27,0,0,0,.41.25l.13.07a2.28,2.28,0,0,1,.51.38l.22.25,0,0a.45.45,0,0,1,.13.18l.06.19c.14.5.29.9.72.79.05,0,.08,0,.09-.05a.08.08,0,0,0,0-.07L23,11.07l-.06-.12a1.32,1.32,0,0,1-.07-.77l.08-.42,0,.43s.13.5.14.55l0,.11a.88.88,0,0,0,.14.29c.1.11.27.14.52.07a2,2,0,0,0,.64-.29.59.59,0,0,0,.23-.51.45.45,0,0,0-.16-.29.73.73,0,0,1-.16-.22A5.1,5.1,0,0,1,24,8.82V8.74a3.3,3.3,0,0,1,0-1.21,2.92,2.92,0,0,1,.29-.7,3.16,3.16,0,0,0,.26-.6,1.3,1.3,0,0,0,0-.54v-.1a.17.17,0,0,1,0-.15,1.08,1.08,0,0,1,.29-.29,2.22,2.22,0,0,1,1.5-.31,4.65,4.65,0,0,1,.84.17,4,4,0,0,0,.95.17A1.37,1.37,0,0,0,28.93,5,1,1,0,0,0,29.18,4.78Zm-6.45.83-.1.15,0,0,0,.05a.55.55,0,0,0-.08.11h-.1v-.1a1.73,1.73,0,0,0,0-.6,2,2,0,0,0-.31-.63,2.68,2.68,0,0,0-.51-.55l-.24-.19-.27-.22a1.93,1.93,0,0,0,0,1.06c.1.3.27.72.57.8h.07v.1l-.08,0a.55.55,0,0,1-.28-.15,1.41,1.41,0,0,1-.26-.35,2.2,2.2,0,0,1-.27-.75,1.78,1.78,0,0,1,0-.44,1.79,1.79,0,0,1,0-.19,1.4,1.4,0,0,0,0-.21h0a.06.06,0,0,0,0,0l0,0,0,0a.36.36,0,0,1-.06-.17.22.22,0,0,1,.07-.18A.22.22,0,0,1,21,3a.19.19,0,0,1,.11.09l0,0,.16.1.07,0,.19.12.25.15a2.59,2.59,0,0,1,.75.64,1.49,1.49,0,0,1,.32.92A1,1,0,0,1,22.73,5.61Zm.73,2.16a.28.28,0,0,1-.24.25h0a.32.32,0,0,1-.28-.2,1.18,1.18,0,0,1,0-.89h0a1.28,1.28,0,0,1,.42-.7h0l0,.09h0a.52.52,0,0,0-.09.19h0a1.88,1.88,0,0,0-.06.21v.13h0v.06a1.37,1.37,0,0,0,0,.16l0,.07,0,0,0,0,.08.1A.64.64,0,0,1,23.46,7.77Z" style="fill:#534741"/></g></g></svg>