<svg xmlns="http://www.w3.org/2000/svg" viewBox="0 0 28.83 16.68"><title>03虎_1</title><g id="圖層_2" data-name="圖層 2"><g id="圖層_1-2" data-name="圖層 1"><path d="M28.7,11.23a.27.27,0,0,0,.11-.16.51.51,0,0,0-.09-.39,1.36,1.36,0,0,0-.53-.46,1.74,1.74,0,0,0-.46-.15,1.86,1.86,0,0,0-.35,0h0L27,10a4.47,4.47,0,0,1-.86-.09,3.47,3.47,0,0,1-.73-.27h0l-.21-.16a9.58,9.58,0,0,1-1.1-1c-.09-.1-.2-.22-.3-.35l0,0A.36.36,0,0,0,23.68,8a.5.5,0,0,0-.18,0h-.08a4.13,4.13,0,0,1-.72,0l-.36,0-.35,0,.16,0-.2,0,.4-.05a5.42,5.42,0,0,0,1.05-.2l-.11-.12-.06-.06-.19-.27,0,0L23,7l0,0h0a2.73,2.73,0,0,1-.67.16h-.21a1.4,1.4,0,0,0-.29,0l-.37.08.34-.17a.92.92,0,0,1,.2-.06H22A.71.71,0,0,0,22.19,7l.06,0,0,0a2.81,2.81,0,0,0,.34-.22h0l0,0,.07,0v0a.48.48,0,0,0-.07-.12l0-.08-.11-.24a3,3,0,0,1-.18-.55,2.82,2.82,0,0,1,0-1.28,1.41,1.41,0,0,1,.1-.26l.08-.17.05-.11.11-.19,0,.22v.08a.68.68,0,0,1,0,.09s0,.08,0,.11v0a2.67,2.67,0,0,0,0,.28c0,.07,0,.14,0,.23v.09c0,.1,0,.2.05.3a1.83,1.83,0,0,0,.14.35l0,0,0,0,0,0a1.4,1.4,0,0,1,.16-.18,2,2,0,0,1,.4-.29c.2-.11.25-.11.28-.07s0,.11,0,.14l0,0-.07.08h0a3.12,3.12,0,0,1,.82,0h.07a1.36,1.36,0,0,1,.25,0,2.42,2.42,0,0,1,.59.28l0,0,.14.08a1.26,1.26,0,0,0,1,.29.65.65,0,0,0,.36-.25,1.45,1.45,0,0,0,.23-.58l0,0a.75.75,0,0,1-.16.07A1.5,1.5,0,0,1,26,4.95l-.2-.09H26a2.11,2.11,0,0,0,1.09-.23,1,1,0,0,0,.27-.56l0-.08h0a.54.54,0,0,1,0-.16h0l.06-.12.05-.1a.37.37,0,0,0,0-.28.17.17,0,0,0-.11-.1l-.07,0a.38.38,0,0,1-.14-.05l-.06-.06,0,0L27,2.91,27,2.85a5.22,5.22,0,0,1-.51-.53,3.87,3.87,0,0,1-.29-.44L26,1.64a3.13,3.13,0,0,0-2-1L23.73.5l-.06,0a5.39,5.39,0,0,1-.73-.24l-.07,0a2.37,2.37,0,0,1-.4-.21V0h0a1,1,0,0,1-.08.24,1.43,1.43,0,0,1-.29.4c-.15.15-.31.28-.46.41l-.17.14-.06.05a.8.8,0,0,0-.22.23c0,.13.68,1,.93,1l.46.07-.46,0c-.31,0-1-.71-1.13-.85a.35.35,0,0,1-.06-.38A1.39,1.39,0,0,1,21.19,1a1.7,1.7,0,0,0,.23-.26l.19-.27.21-.3a4.07,4.07,0,0,1-.66.26c-.16.05-.32.1-.47.17a3.43,3.43,0,0,1-1.42.23h0c-.47,0-1,0-1.44,0a5.48,5.48,0,0,0-1.49.41l-.06,0a1.28,1.28,0,0,0-.25.12l-.15.1-.1.07-.25.17-.26.17c.54.24,1.32.6,1.22,1.33a2.86,2.86,0,0,1-.46,1l0,.06c-.21.34-.43.67-.68,1l-.08,0L15.4,5c.14-.29.29-.58.42-.88L15.87,4c.13-.29.32-.69.18-1a1.55,1.55,0,0,0-.8-.59l-.13-.06-.18-.08,0,0-.08,0-.08.06,0,0-.11.07,0,0c-.18.12-.36.24-.55.34l.08.11,0,.06.14.24a2.39,2.39,0,0,1,.2.54,1.7,1.7,0,0,1-.11,1l-.09,0a1.59,1.59,0,0,0-.12-1.06,2.86,2.86,0,0,0-.32-.5L13.77,3l0-.05h0l-.14,0-.11,0a2.44,2.44,0,0,1-1.13,0,4.8,4.8,0,0,0-.54-.08,2.07,2.07,0,0,1,1.35,1.16l-.09,0a1.67,1.67,0,0,0-1-.75,4.34,4.34,0,0,0-1.33-.24.37.37,0,0,0-.15,0h0l0,0h0a5.59,5.59,0,0,0-1.14.74h0l-.05,0,0,0L9.17,4h0c-.12.09-.24.19-.36.31A13,13,0,0,0,7.12,6.22l-.31.43c-.36.5-.74,1-1.14,1.5L5,8.92l-.27.33-.12.15-.11.14-.11.14,0,0-.07.07a.62.62,0,0,0,0,.1l0,.07a1.59,1.59,0,0,1,0,.22,2.57,2.57,0,0,1,0,.41h-.1a.67.67,0,0,0-.07-.21l0-.09L4.12,10A6.08,6.08,0,0,1,3,10.93a2.81,2.81,0,0,1,.78.8l-.07.06a.79.79,0,0,0-.18-.12l-.09-.05-.32-.22-.3-.22h0l0,0s-.06-.05-.08-.05h0l-.09,0-.06,0a1.3,1.3,0,0,1-1.22-.06.81.81,0,0,1-.17-.61,1.62,1.62,0,0,1,.05-.27.76.76,0,0,0,0-.45.44.44,0,0,0-.51-.21,1,1,0,0,0-.39.16.71.71,0,0,0-.25.41A2.14,2.14,0,0,0,.16,11.5a1.38,1.38,0,0,0,.85.79,2.87,2.87,0,0,0,1.32.14,3.09,3.09,0,0,0,1.31-.52,5.88,5.88,0,0,0,.89-.72c.38-.39.69-.73,1-1.07l.38-.43c.15-.17.31-.34.45-.52C7,8.39,7.48,7.69,7.94,7L8,7,8,7a1,1,0,0,1,.15.23,3.86,3.86,0,0,1,.3.83,3.29,3.29,0,0,1-.13,2.09,4,4,0,0,1-.49.74c-.18.23-.37.46-.56.68L7,11.89l-.1.12-.32.39a3.52,3.52,0,0,0-.21.3c-.06.1-.13.19-.2.29h0a3.8,3.8,0,0,0-.49,2.57,1.34,1.34,0,0,0,.25.64,1.32,1.32,0,0,0,.56.36,1,1,0,0,0,.38.07h0l.35,0h.1a2.2,2.2,0,0,0,.64,0,1.15,1.15,0,0,0,.51-.18.46.46,0,0,0,.18-.27h0A.69.69,0,0,0,8.76,16h0a.45.45,0,0,0,0,0H8.4L8,15.95H8l0-.09.14-.07.13-.07a1.54,1.54,0,0,1,.3-.09h.21a1,1,0,0,0-.12-.31c-.05-.09-.09-.09-.11-.08H8.31a.52.52,0,0,0-.19,0h0l-.11,0-.05-.08H8L8,15.21h0l0,0h0l.13-.06h0a2.06,2.06,0,0,0-.8,0l-.15,0H7C6.8,15.1,6.71,15,6.7,15s0-.09.1-.18l0,0L7,14.52A10.14,10.14,0,0,1,8.36,13a6.62,6.62,0,0,1,.58-.46l.39-.26c.17-.11.34-.22.5-.34l.43-.34.48-.38.37-.26.13-.09.23-.17.06,0c.07,0,.17-.11.18-.16a.69.69,0,0,0,0-.25v0a1.38,1.38,0,0,0-.11-.31,1.9,1.9,0,0,0-.37-.53,4.83,4.83,0,0,0-.62-.49l-.21-.15-.29-.21.34.13a2.85,2.85,0,0,1,1.12.65,1.44,1.44,0,0,1,.37,1l.38-.37,0,0,.09-.09V9.74a2.06,2.06,0,0,0-.07-.28,1.21,1.21,0,0,0-.69-.78l-.34-.13.2,0-.18-.12.32.11.14,0h0a4,4,0,0,1,.55.24,1.41,1.41,0,0,1,.49.42,1.73,1.73,0,0,0,.12-.19L13,9l.24-.39a3.45,3.45,0,0,0,.33-.79A1.33,1.33,0,0,0,13.62,7a3,3,0,0,0-.37-.65l.07-.06a2.81,2.81,0,0,1,.5.62,1.47,1.47,0,0,1,.1.92,4.68,4.68,0,0,1-.64,1.75A5.3,5.3,0,0,1,12.08,11c-.28.24-.59.46-.89.67l-.33.24h0l0,0h0l-.16.09,0,0-.1.07h0l0,0a.58.58,0,0,0,0,.09l0,0a3.89,3.89,0,0,1,.06.39h0v.09l0,.15h0c0,.1,0,.19,0,.29a3.79,3.79,0,0,0,.14.58v0a1.21,1.21,0,0,0,.23.47h0c.05.1.08.11.09.11h0l0,0a1.15,1.15,0,0,0,.64.28h.46a5.9,5.9,0,0,0,1-.06h.12a.9.9,0,0,0,.2,0,.47.47,0,0,0,.27-.27v0a.35.35,0,0,0,0-.12h0l-.09,0h0a1.8,1.8,0,0,0-.51-.07h0V14h0l.06,0,.07,0,.2,0a1.6,1.6,0,0,1,.34,0,1,1,0,0,0-.19-.38c-.06-.08-.29-.06-.43-.06h-.09v-.1h0l.1,0,.07,0,.13,0a.65.65,0,0,0-.45-.09,2,2,0,0,0-.38.1,2.22,2.22,0,0,1-.35.1.15.15,0,0,1-.14,0c-.12-.13-.07-.47-.05-.55a2.58,2.58,0,0,1,.26-.65,6.75,6.75,0,0,1,1.58-1.74l.13-.11A9.46,9.46,0,0,1,16,9a5.23,5.23,0,0,1,1.79-.62,3.73,3.73,0,0,1,1.9.18,2,2,0,0,1-.22-.36,1,1,0,0,1-.05-.63,2.17,2.17,0,0,1,.59-1l.08.06L20,6.78l0,0c-.05.1-.09.18-.13.26a1.57,1.57,0,0,0-.13.6,1.14,1.14,0,0,0,.59.84l.35.24c.21.14.42.29.64.42l.95.6a4.62,4.62,0,0,0,1.54.66,10.66,10.66,0,0,0,1.65.2h.06l.06,0,.09,0a2.29,2.29,0,0,1,.56.24l.1.08.1.08h0a.69.69,0,0,0,.28.21,1.55,1.55,0,0,0,.43.06h.5a1.56,1.56,0,0,0-.15-.26l0,0a.85.85,0,0,0-.09-.12l-.32-.28.38.2a1,1,0,0,1,.26.19.71.71,0,0,1,.13.19l0,.06v0H28l.42,0a1.48,1.48,0,0,0-.25-.37A1,1,0,0,0,28,10.8l0,0-.12-.07h0v-.1h0A1.06,1.06,0,0,1,28.7,11.23ZM24.4,1.58a.32.32,0,0,1,.24-.12.58.58,0,0,1,.46.22,1.17,1.17,0,0,1,.14.22.91.91,0,0,0,.16.23h0l-.07.07h-.09l.08.08.21.22v0l-.08.06h0l-.12-.06-.06,0-.22-.12h0a.36.36,0,0,1-.15-.14.64.64,0,0,1,0-.13l0-.07,0-.06c0-.06,0-.21-.09-.22h0s0,0,0,.26l0,.13-.09-.05-.08,0a.35.35,0,0,1-.23-.24A.28.28,0,0,1,24.4,1.58Zm-2.15.15a.33.33,0,0,1,0-.36.29.29,0,0,1,.3-.1.77.77,0,0,1,.18.06l0,0,.06,0h0v.08h-.33l0,0s0,0,0,0h0a.58.58,0,0,0,.19.24l0,0,.07.07.1.1,0,0a.64.64,0,0,0,.09.09h0v.1h0A1.1,1.1,0,0,1,22.25,1.74Zm-3.88,2A4.83,4.83,0,0,1,17.2,6.16l-.27.36-.2.27-.25.32-.12.16,0,0,0,.06-.09,0c.17-.41.35-.81.53-1.18L17,5.68c.12-.22.24-.44.34-.66l.07-.16a6.46,6.46,0,0,0,.39-1,1.82,1.82,0,0,0,.07-.56,1.11,1.11,0,0,0-.19-.53,3.4,3.4,0,0,0-.38-.53L17,2l0-.05a.93.93,0,0,0-.15-.14h0v0h0v0a.47.47,0,0,1,.21.1l.05,0,.27.16a2.84,2.84,0,0,1,.52.44,1.64,1.64,0,0,1,.38.56A1.7,1.7,0,0,1,18.37,3.69Z" style="fill:#fff"/></g></g></svg>