<svg xmlns="http://www.w3.org/2000/svg" viewBox="0 0 27.89 24.61"><title>10雞_1</title><g id="圖層_2" data-name="圖層 2"><g id="圖層_1-2" data-name="圖層 1"><path d="M27.71,9.74a2.84,2.84,0,0,0-2-1.46,5.87,5.87,0,0,0-3.93.51,7,7,0,0,0-2.06,1.41,8.06,8.06,0,0,1,1.67-1.81,4,4,0,0,1,1-.6,4.33,4.33,0,0,1,.6-.18l.31-.06a1.32,1.32,0,0,0,.32,0,.31.31,0,0,0,.18-.36.51.51,0,0,0-.41-.31,2.78,2.78,0,0,0-1.17,0,5,5,0,0,0-2,1.11A4.85,4.85,0,0,0,18.63,10a9.77,9.77,0,0,1,1.68-3.41,6.16,6.16,0,0,1,2.92-2.19,6.27,6.27,0,0,1,1-.27,5.15,5.15,0,0,1,.53-.06,1.74,1.74,0,0,0,.51,0A2.71,2.71,0,0,0,25,3.81a3.35,3.35,0,0,0-1.78-.67,4.28,4.28,0,0,0-1.12.08,5.3,5.3,0,0,0-.54.13l-.25.08-.11,0-.1,0h0a5.68,5.68,0,0,0-2.26,1.65A8.14,8.14,0,0,0,17.48,7.8a7.6,7.6,0,0,0-.79-2.56A6.86,6.86,0,0,0,15,3.37s-.08-.09-.14-.05,0,.18,0,.24l.36.6a6.75,6.75,0,0,1,.6,1.3,4.36,4.36,0,0,1,.07,2.65A2.93,2.93,0,0,1,15,9.35a5,5,0,0,1-.63.48l-.31.18-.12.06-.14.07a3.55,3.55,0,0,1-3,.07,3.21,3.21,0,0,1-1.61-2,4.56,4.56,0,0,1-.13-1.72,1.34,1.34,0,0,0,.79,1.06,1.2,1.2,0,0,0,1.22-.29,1.41,1.41,0,0,0,.12-1.32A5.73,5.73,0,0,0,11,5.27a1.83,1.83,0,0,1-.27-.67,3.29,3.29,0,0,1,.57.26,1.24,1.24,0,0,0,.53.2.42.42,0,0,0,.32-.13l0,0c.14-.17,0-.43-.08-.58a4,4,0,0,0-.45-.53c-.16-.17-.35-.31-.5-.48A.58.58,0,0,1,11,3.07c0-.07.1-.14.13-.18a1.72,1.72,0,0,1,.23-.26,2,2,0,0,1,1-.55c.13,0,.3-.17.13-.28a.82.82,0,0,0-.45,0H12A2.92,2.92,0,0,0,10.82,2a.91.91,0,0,0-.45-.27l-.18,0,0,0a5.53,5.53,0,0,1-.38-.41C9.6,1.1,9.41.92,9.21.74A1.75,1.75,0,0,0,9,.54,2.34,2.34,0,0,0,8.24.12l0,0A1.21,1.21,0,0,0,7.54,0a1.74,1.74,0,0,0-1.12.7C6.28.87,6.15,1,6,1.19a2.55,2.55,0,0,1-.58.38,7.59,7.59,0,0,1-.76.28,10.34,10.34,0,0,1-1.78.4h0a3.76,3.76,0,0,1-.61,0l-.29-.05c-.05,0-.13-.06-.19,0s.08.28.15.31a2.3,2.3,0,0,0,.54.21l.09,0a2.74,2.74,0,0,0,.79.14,2.59,2.59,0,0,0,.68,0,4,4,0,0,1-1.6.72c-.43.12-.85.27-1.28.37H1l-.5.06C.32,4.07,0,4,0,4.23a.9.9,0,0,0,.42.56l.07.05A3.94,3.94,0,0,0,1,5.22a4,4,0,0,0,1.82.58,4.23,4.23,0,0,0,2.08-.53,5.5,5.5,0,0,1-.67.52c-.24.15-.5.28-.73.44-.07.05-.17.12-.07.21s.28,0,.37.05c.32,0,.64,0,1,0A3.59,3.59,0,0,1,4,7.62a13.49,13.49,0,0,0-.84,1.09Q3,9,2.83,9.27l-.17.33c0,.08-.13.22-.08.31s.44,0,.55-.07a6,6,0,0,1,.66-.21,4,4,0,0,0-.54,2,4.52,4.52,0,0,0,.06,1,4.06,4.06,0,0,0,.36,1,9.24,9.24,0,0,0,1,1.73A9,9,0,0,0,6,16.72,11.55,11.55,0,0,0,7.66,17.8a11.23,11.23,0,0,0,1.79.75l.21.07.13.15a5.55,5.55,0,0,0,1.13,1.07,1.68,1.68,0,0,0,.42.21,1.93,1.93,0,0,1,.08.33c.06.32.07.65.11,1a11.11,11.11,0,0,1,.09,1.11s0,.09,0,.14a3.35,3.35,0,0,0-1.25.74,4.48,4.48,0,0,0-.45.46c0,.06-.2.2-.11.28S10,24,10,24a2.93,2.93,0,0,1,1.26-.56c0,.07,0,.16,0,.19a2.92,2.92,0,0,0-.06.29,1.21,1.21,0,0,0,0,.61c.09.23.21,0,.26-.13s.2-.33.3-.49.21-.33.3-.51l.05-.1a1.18,1.18,0,0,1,.38.31,3.56,3.56,0,0,1,.3.42c0,.06.14.34.25.27s0-.37,0-.47a1,1,0,0,0-.24-.65l-.1-.1L12.61,23a1.71,1.71,0,0,0-.36-.21l-.06,0h0l.2-.09a.29.29,0,0,0,.1-.07l.11-.1s.16-.27,0-.24-.14.06-.21.08l-.22,0v-.06c0-.21,0-.42,0-.63a8.46,8.46,0,0,1,0-1.29s0-.1,0-.15a.23.23,0,0,1,.05-.07c.08-.07.17-.11.25-.18a2.7,2.7,0,0,0,.77-.65,3.43,3.43,0,0,0,.36-.52l.29-.05a6.33,6.33,0,0,0,1.45-.48c2-.92,3.13-2.92,5-4,.23-.13.49-.22.72-.36s.17-.13.14-.25-.17-.13-.28-.14a5.29,5.29,0,0,0-1.83.06,1.6,1.6,0,0,1,.24-.39l.32-.43a8.57,8.57,0,0,1,.71-.79A6.75,6.75,0,0,1,22,10.78a8.15,8.15,0,0,1,1.87-.68A5.71,5.71,0,0,1,26,9.93a3.79,3.79,0,0,1,1,.34,4.35,4.35,0,0,1,.51.27,1.32,1.32,0,0,0,.37.22A2.71,2.71,0,0,0,27.71,9.74Zm-17.22-6c.19-.18.31-.14.51,0a1.93,1.93,0,0,1,.81.87c0,.08.07.11,0,.14s-.2,0-.27-.07a3.52,3.52,0,0,0-.59-.19c-.14,0-.37-.07-.36.14a2.08,2.08,0,0,0,.17.56A2.74,2.74,0,0,1,11,6.59a.65.65,0,0,1-.3.48,1.07,1.07,0,0,1-.58.08c-.4-.07-.63-.5-.73-.86a2.15,2.15,0,0,1-.08-.54,1.27,1.27,0,0,1,.12-.45,4.11,4.11,0,0,1,.44-.81A4,4,0,0,1,10.49,3.77Zm-.54-1a.52.52,0,0,1-.33.44c-.49.2-.47-.58-.1-.7A.31.31,0,0,1,9.95,2.72ZM7.3,3.05a6.84,6.84,0,0,0-.9.59,7.93,7.93,0,0,1-1.5,1,4.84,4.84,0,0,1-1.68.51,4.59,4.59,0,0,1-.93,0,3,3,0,0,1-.81-.19,5.81,5.81,0,0,1-.71-.42,1.5,1.5,0,0,1-.17-.14c.84-.18,1.68-.38,2.5-.64a3.73,3.73,0,0,0,1.15-.56c.13-.1.27-.26.21-.44s-.25-.21-.4-.24a8.12,8.12,0,0,0,1.69-.63,4.46,4.46,0,0,0,.68-.44A3.74,3.74,0,0,0,6.91.85C7.46.47,8.11.16,8.71.62a5.26,5.26,0,0,1,.7.71c.12.14.24.29.37.43a6.3,6.3,0,0,0-1.28.56A8.25,8.25,0,0,0,7.3,3.05Zm8,9.41a6.55,6.55,0,0,1-2,1.34c.27,0,.64,0,.78.3s-.08.54-.28.7a3.1,3.1,0,0,1-1.73.56A3.64,3.64,0,0,1,10.3,15c-.27-.13-.54-.28-.81-.42s-.6-.28-.9-.42a2.65,2.65,0,0,0,.31.06l.36.09a6.29,6.29,0,0,1,.64.22,6.32,6.32,0,0,0,1.41.46,3.86,3.86,0,0,0,1.51-.08,2.66,2.66,0,0,0,.67-.25,1.18,1.18,0,0,0,.27-.2.53.53,0,0,0,.1-.11s0-.12,0-.07c0-.35-.57-.25-.76-.28s-.24-.11-.17-.25a1.32,1.32,0,0,1,.35-.32,11.07,11.07,0,0,0,.85-.72,2,2,0,0,0,.64-.89,1.85,1.85,0,0,0-.78.06l-.82.2a12.53,12.53,0,0,1-1.52.29,6.1,6.1,0,0,1-1.44,0,5.1,5.1,0,0,1-.69-.13c-.21-.06-.42-.15-.64-.2a5.93,5.93,0,0,0,1.39.23A5.18,5.18,0,0,0,11.79,12c.51-.14,1-.33,1.5-.52a6.15,6.15,0,0,1,1.52-.44.7.7,0,0,1,.79.41A1,1,0,0,1,15.32,12.46ZM27.75,10v0S27.77,10,27.75,10Z" style="fill:#fff"/></g></g></svg>