<svg xmlns="http://www.w3.org/2000/svg" viewBox="0 0 20.34 18.03"><title>04兔</title><g id="圖層_2" data-name="圖層 2"><g id="圖層_1-2" data-name="圖層 1"><path d="M19.29,6.21h0c-.17-.23-.35-.47-.53-.74-.85-1.24-1.65-1.84-2.42-1.84h-.11C16,3.33,15.45,2.29,15,1.37S13.88.08,13.37,0h0c-.18,0-.34.13-.47.39s0,.36.5,1.54A3.26,3.26,0,0,0,12,.47a1,1,0,0,0-.34-.07.4.4,0,0,0-.37.19c-.15.25-.06.71.29,1.4s.66,1.56.86,2a3.41,3.41,0,0,1,.34,1.4v0c0,.09,0,.18,0,.29s0,.1-.15.16A.55.55,0,0,1,12.4,6h-.05l-1.27-.59,0,0A13,13,0,0,0,8.15,5,5.66,5.66,0,0,0,2.43,9l0,.11v0a24.91,24.91,0,0,0-.5,3.71l-.38-.38C1,12,.8,11.75.58,11.75c-.39,0-.58.33-.58,1a4.14,4.14,0,0,0,1.73,2.61.62.62,0,0,0,.71,0,.68.68,0,0,1,.17-.08,13.65,13.65,0,0,0,1.16,1l.37.47a1.6,1.6,0,0,0,.51.47,7.58,7.58,0,0,0,2,.45c.46.06,1.15.17,1.69.26h.08L9,18v0h0a.52.52,0,0,0,.22,0,.88.88,0,0,0,.59-.47.75.75,0,0,0-.06-.92,5.44,5.44,0,0,0-.58-.46,2.19,2.19,0,0,0-.42-.22,27.09,27.09,0,0,1,4.44.7,2.2,2.2,0,0,0,1.9,1.27.92.92,0,0,0,.92-.52c.16-.31,0-.66-.39-1l-.63-.47a1.2,1.2,0,0,1-.43-.49c-.19-.28-.18-.4-.18-.42a.06.06,0,0,1,0,0,5.38,5.38,0,0,0,1.84-1.75A4.36,4.36,0,0,0,17.12,11a5.26,5.26,0,0,0,2.08-.91,2.09,2.09,0,0,0,1.14-1.72A3.92,3.92,0,0,0,19.29,6.21Zm-2.67.3A.52.52,0,1,1,17.14,6,.52.52,0,0,1,16.62,6.51Z" style="fill:#534741"/></g></g></svg>