<svg xmlns="http://www.w3.org/2000/svg" viewBox="0 0 29.97 21.57"><title>09猴</title><g id="圖層_2" data-name="圖層 2"><g id="圖層_1-2" data-name="圖層 1"><path d="M29.8,10l-.05-.07a1.49,1.49,0,0,0-.18-.36A1.77,1.77,0,0,0,29,9.06a1.21,1.21,0,0,0-.64-.16h-.08a3.23,3.23,0,0,0-1.16.38l-.24.09h-.09a2,2,0,0,1-.57-.3,1.64,1.64,0,0,1-.67-1,2.12,2.12,0,0,0-.52-1L24.85,7l-.11-.06,0,0-.22-.09a2.64,2.64,0,0,1-1-1.18s.09.1.12.14l.17.21a1.72,1.72,0,0,0,.43.38,1.81,1.81,0,0,0,.52.2h0a1.53,1.53,0,0,0,.6,0,1.75,1.75,0,0,0,.95-.68.91.91,0,0,1-.83-.07.57.57,0,0,0,.15,0,1.06,1.06,0,0,0,.71-.17.81.81,0,0,0,.36-.57c0-.23.1-.56-.12-.71a.39.39,0,0,0-.28,0h0l0,0a7.37,7.37,0,0,0-.69-.75,3.41,3.41,0,0,0-.45-.33l-.08-.06a9,9,0,0,1-.27-1.07.48.48,0,0,0,0-.08c0-.06,0,0-.06,0l-.07,0a1.74,1.74,0,0,0-.36.12,2.93,2.93,0,0,0-.84.57,1.17,1.17,0,0,0,.09-.16l.14-.18A2.72,2.72,0,0,1,24,2a1.4,1.4,0,0,1,.75-.29,2.71,2.71,0,0,0-.84-1,3.22,3.22,0,0,0-.67-.42A1.9,1.9,0,0,0,22.53,0c-.14,0-.3,0-.45,0h-.13l-.37.07a.9.9,0,0,0-.28.09l-.05,0L21,.28a2.32,2.32,0,0,0-.68.4l-.09.08a3.49,3.49,0,0,0-.52.48,2.84,2.84,0,0,0-.69,1.93,3.43,3.43,0,0,0,.68,1.76h0c-.14.15-.25.32-.4.47a6.12,6.12,0,0,1-.94.77,8,8,0,0,1-2.24,1.12l-.31.09a16.16,16.16,0,0,0-2.54.33,7.83,7.83,0,0,0-2.88,1.22h0L10.36,9l-.12.1h0a2.9,2.9,0,0,0-.5,0,3.15,3.15,0,0,0-.88.2,6.22,6.22,0,0,0-1.6.88A5.28,5.28,0,0,0,6,11.57a8.56,8.56,0,0,0-.8,1.72c-.22.62-.42,1.25-.6,1.88s-.3,1.28-.47,1.92a5.92,5.92,0,0,1-.78,1.73A3.22,3.22,0,0,1,2.09,20a2.65,2.65,0,0,1-.9.2H.72a2.35,2.35,0,0,0-.52,0,.26.26,0,0,0,0,.5,1.74,1.74,0,0,0,.42,0h.54a3.45,3.45,0,0,0,1.77-.49A5.94,5.94,0,0,0,5.1,17.41c.23-.61.39-1.24.6-1.86s.45-1.27.69-1.89A7.32,7.32,0,0,1,7.27,12a3.19,3.19,0,0,1,.62-.68,4.25,4.25,0,0,1,.81-.46,3.77,3.77,0,0,1,.43-.17,4.42,4.42,0,0,0-.31,1.2A3,3,0,0,0,9,13.09,3.44,3.44,0,0,0,10.38,15a.76.76,0,0,1,.22.16,1,1,0,0,1,.12.26,1.54,1.54,0,0,1,.08.61,1.41,1.41,0,0,1-.57,1c-.34.27-.86.19-1,.68a2.09,2.09,0,0,0,0,.64c0,.12,0,.25,0,.37V19h0a4.73,4.73,0,0,0,.47,1.73c.12.21.34.52.58.58a.17.17,0,0,0,.23-.14.9.9,0,0,0-.09-.37c.07,0,.14.15.21.2a.78.78,0,0,0,.28.15.3.3,0,0,0,.41-.22c.15.06.67.19.61-.13s-.36-.42-.54-.56a2.17,2.17,0,0,1-.58-.64,1.1,1.1,0,0,1-.19-.89,2.25,2.25,0,0,1,1.15-1.15c.25-.15.51-.29.75-.46a1.07,1.07,0,0,0,.32-.28c.06-.11,0-.34,0-.46a2.91,2.91,0,0,0-.4-1,2.31,2.31,0,0,0-.33-.41l-.18-.14-.14-.11a2.32,2.32,0,0,1,.95.71,2.58,2.58,0,0,1,.53,1.22,4.61,4.61,0,0,1,0,1.33,4.3,4.3,0,0,1-.15.66c-.06.19-.16.38-.24.57a1.59,1.59,0,0,0-.14.92v.07l0,.08v0l0,.1v0l0,.07,0,.1h0l0,0,0,0a1.64,1.64,0,0,0,.22.33,1.69,1.69,0,0,0,1.06.41h0a9.38,9.38,0,0,0,2.38.05.77.77,0,0,0,.15,0,.19.19,0,0,0,.08-.08c.06-.13-.05-.22-.16-.27.16,0,.45.06.53-.12s-.15-.29-.3-.34c.18,0,.7,0,.66-.25s-.67-.27-.92-.25-.74.12-1.08.17a2.77,2.77,0,0,1-1.15,0,.65.65,0,0,1-.36-.89c.13-.35.51-.6.76-.86a8,8,0,0,0,.82-.94,3.22,3.22,0,0,0,.63-2.35,5.25,5.25,0,0,0-.36-1.22c-.17-.42-.33-.84-.52-1.25a4.53,4.53,0,0,0-.73-1.23,4.07,4.07,0,0,0-.45-.41l-.12-.1a2.93,2.93,0,0,1,1.21.93,6.11,6.11,0,0,1,.8,1.52l.12.36.06.2a.59.59,0,0,0,0,.1c0,.06,0,0,.08,0a1.66,1.66,0,0,0,.38-.09l.39-.12a7,7,0,0,0,1.5-.7,6.2,6.2,0,0,0,1.42-1.2A9.32,9.32,0,0,0,20.39,14a3.6,3.6,0,0,0,.35,1c.17.29.32.59.5.87a1.81,1.81,0,0,0,.75.61,3,3,0,0,0,1,.23,2,2,0,0,1,.92.35,1.65,1.65,0,0,1,.52.76c.06.16.26.94.53.81.12-.06.09-.22.08-.32a3.47,3.47,0,0,0-.14-.62,3.54,3.54,0,0,0,.37.62c.05.07.12.16.2.18a.16.16,0,0,0,.2-.15.69.69,0,0,0-.09-.3c0-.11-.1-.22-.16-.32s-.22-.41-.32-.63c.23.35.42.72.65,1.08,0,.07.09.16.19.16a.18.18,0,0,0,.16-.14,1,1,0,0,0-.16-.56c.18,0,.2-.14.17-.27a2.63,2.63,0,0,0-.27-.57,1.81,1.81,0,0,0-.37-.48,1.6,1.6,0,0,0-1-.35,2.72,2.72,0,0,1-1.15-.15A2.29,2.29,0,0,1,23,15.7a.36.36,0,0,1-.16-.2c-.09-.2-.16-.41-.23-.62a6.15,6.15,0,0,1-.25-1.2,6,6,0,0,1,0-1.26c0-.2.07-.4.09-.6a3.49,3.49,0,0,1,.13-.65,5.14,5.14,0,0,0,.3-1.38,1.79,1.79,0,0,0-.11-.66,1.19,1.19,0,0,0-.15-.26s-.14-.22-.18-.23.14.11.17.13a1.26,1.26,0,0,1,.19.19,1.47,1.47,0,0,1,.25.48,2.28,2.28,0,0,1,0,1.14A2.07,2.07,0,0,1,24,10a.9.9,0,0,1,1,.22c.27.24.47.54.75.76a.75.75,0,0,0,.48.22A2.3,2.3,0,0,0,27,11c.63-.25,1.19-.62,1.8-.91a1.77,1.77,0,0,1-.08.78c0,.14-.14.47.13.46,0,.14-.26.55,0,.61s.36-.35.43-.48c0,.13-.14.44,0,.53s.31-.2.37-.32a2.77,2.77,0,0,0,.29-1A1,1,0,0,0,29.8,10Zm-6.05-6.6.12-.27c.07-.15.17-.35.36-.35a.27.27,0,0,1,.27.41c-.14.22-.45.09-.61.25h0v0h0a.51.51,0,0,1,.21-.21s.19-.1.18-.15-.28.13-.29.13-.21.29-.34.42A1.59,1.59,0,0,0,23.75,3.38Zm-1.33-.09-.34-.07c-.19,0-.57-.09-.64.16s.24.46.38.59a3.09,3.09,0,0,0,.29.24,1.51,1.51,0,0,0,.33.21,2.35,2.35,0,0,1-1.13-.61.59.59,0,0,1-.19-.58.55.55,0,0,1,.35-.36,1.21,1.21,0,0,1,1.3.52A1.61,1.61,0,0,0,22.41,3.29Z" style="fill:#534741"/></g></g></svg>