<svg xmlns="http://www.w3.org/2000/svg" viewBox="0 0 26.35 22.91"><title>白羊</title><g id="圖層_2" data-name="圖層 2"><g id="圖層_1-2" data-name="圖層 1"><path d="M15.56,19.4a2.52,2.52,0,0,0,.15,1.28c.22,1.09.5,2.23.5,2.23H14.7s-.42-1.68-.58-2.36a6.61,6.61,0,0,1-.24-2.08h1.8S15.63,18.79,15.56,19.4Z" style="fill:#fff"/><path d="M3.31,19.4a2.52,2.52,0,0,0,.15,1.28c.22,1.09.5,2.23.5,2.23H2.45S2,21.23,1.86,20.55a6.61,6.61,0,0,1-.24-2.08h1.8S3.37,18.79,3.31,19.4Z" style="fill:#fff"/><path d="M5.52,3.56s7.25.07,9.85.07a4.17,4.17,0,0,0,3.87-2.18A2.76,2.76,0,0,1,21.38,0a4.26,4.26,0,0,1,3.46,1.21,1.33,1.33,0,0,1,.08,1.47c.44.68.68,1.21.87,1.54.57,1,.7,1.55.42,2.24-.36.89-1.7.73-1.7.73-1.17,0-2.8,1.31-3.85,5a5.66,5.66,0,0,1-3.81,3.89l-.85,2H13.63l-.42-2c-3.92,0-5.84-.18-7.33.22-1.2.32-1.57,1.25-2,1.77H1.2a52.22,52.22,0,0,0-.92-6.34C-.14,9.08-.1,7.87.46,6.42,1.73,3.16,5.52,3.56,5.52,3.56Z" style="fill:#fff"/></g></g></svg>