<svg id="圖層_1" data-name="圖層 1" xmlns="http://www.w3.org/2000/svg" xmlns:xlink="http://www.w3.org/1999/xlink" viewBox="0 0 141 121"><defs><clipPath id="clip-path"><circle cx="-96.22609" cy="54.0319" r="54.15614" style="fill:none"/></clipPath><linearGradient id="linear-gradient" x1="101.01298" y1="96.84214" x2="115.96968" y2="100.64883" gradientUnits="userSpaceOnUse"><stop offset="0.0034" stop-color="#f8b400"/><stop offset="0.33765" stop-color="#f9ad06"/><stop offset="0.81965" stop-color="#fd9a16"/><stop offset="1" stop-color="#ff911e"/></linearGradient><linearGradient id="linear-gradient-2" x1="-198.06056" y1="154.25633" x2="-82.56613" y2="154.25633" gradientTransform="translate(232.38469 -22.03713) rotate(14.27665)" gradientUnits="userSpaceOnUse"><stop offset="0.0034" stop-color="#c28d00"/><stop offset="0.36606" stop-color="#c18605"/><stop offset="0.88899" stop-color="#be7313"/><stop offset="1" stop-color="#bd6e17"/></linearGradient><linearGradient id="linear-gradient-3" x1="-0.25114" y1="28.74478" x2="139.61876" y2="64.34362" xlink:href="#linear-gradient"/><clipPath id="clip-path-2"><circle cx="72.98037" cy="53.90766" r="54.15614" style="fill:none"/></clipPath><linearGradient id="未命名漸層_34" x1="34.68619" y1="15.61348" x2="111.27454" y2="92.20183" gradientUnits="userSpaceOnUse"><stop offset="0.0034" stop-color="#fff" stop-opacity="0"/><stop offset="1" stop-opacity="0.4"/></linearGradient><linearGradient id="linear-gradient-4" x1="7.74321" y1="78.13658" x2="141" y2="78.13658" gradientUnits="userSpaceOnUse"><stop offset="0.0034" stop-color="#f8d04c"/><stop offset="0.27761" stop-color="#f9cc45"/><stop offset="0.67289" stop-color="#fcc232"/><stop offset="1" stop-color="#ffb71d"/></linearGradient><linearGradient id="linear-gradient-5" x1="3778.3241" y1="667.63125" x2="3779.86874" y2="717.27927" gradientTransform="matrix(-0.8962, 0.0688, 0.1005, 0.8893, 3388.28609, -862.43513)" gradientUnits="userSpaceOnUse"><stop offset="0" stop-color="#fff"/><stop offset="1" stop-color="#fff" stop-opacity="0"/></linearGradient></defs><title>馬來西亞-英</title><g style="clip-path:url(#clip-path)"><rect x="-151.67278" y="-0.12424" width="210.23753" height="8.75992" style="fill:#d80031"/><rect x="-151.67278" y="8.63568" width="210.23753" height="8.75979" style="fill:#fff"/><rect x="-151.67278" y="17.39547" width="210.23753" height="8.75928" style="fill:#d80031"/><rect x="-151.67278" y="26.15475" width="210.23753" height="8.76664" style="fill:#fff"/><rect x="-151.67278" y="34.92139" width="210.23753" height="8.75295" style="fill:#d80031"/><rect x="-151.67278" y="43.67434" width="210.23753" height="8.76613" style="fill:#fff"/><rect x="-151.67278" y="52.44047" width="210.23753" height="8.75295" style="fill:#d80031"/><rect x="-151.67278" y="61.19341" width="210.23753" height="8.76613" style="fill:#fff"/><rect x="-151.67278" y="69.95954" width="210.23753" height="8.75358" style="fill:#d80031"/><rect x="-151.67278" y="78.71312" width="210.23753" height="8.76613" style="fill:#fff"/><rect x="-151.67278" y="87.47925" width="210.23753" height="8.76043" style="fill:#d80031"/><rect x="-151.67278" y="96.23968" width="210.23753" height="8.75865" style="fill:#fff"/><rect x="-151.67278" y="104.99833" width="210.23753" height="8.76043" style="fill:#d80031"/><rect x="-151.67278" y="113.75875" width="210.23753" height="8.75979" style="fill:#fff"/><rect x="-151.67278" y="-0.12424" width="210.23753" height="122.64279" style="fill:none"/><rect x="-151.67278" y="-0.12424" width="210.23753" height="122.64279" style="fill:none"/></g><path d="M116.35268,99.144a99.90849,99.90849,0,0,0-18.28338,9.264c3.822-7.497,7.64413-14.76987,11.46579-21.71206Q112.9439,92.733,116.35268,99.144Z" style="fill:url(#linear-gradient)"/><path d="M7.76544,57.54363c4.21226,16.60209,8.42415,32.4415,12.636,47.66345,31.98334,12.49248,63.96745-10.64129,95.9512-6.06307q-3.40938-6.42212-6.81759-12.448C75.61158,76.05795,41.68849,91.53223,7.76544,57.54363Z" style="fill:url(#linear-gradient-2)"/><path d="M141,58.597C112.93013,31.28371,53.46769,19.477,0,27.758c8.28465,2.5342,15.88711,8.8694,15.88711,8.8694S14.32747,40.331,10.91623,47.54328C48.458,39.34758,110.65759,60.03779,134.95718,82.65923Q137.97842,70.38145,141,58.597Z" style="fill:url(#linear-gradient-3)"/><path d="M127.09426,53.908a54.11389,54.11389,0,1,0-54.11389,54.11348c.53863,0,1.07444-.01052,1.60942-.02629L80.70134,121l10.08933-15.98214A54.13294,54.13294,0,0,0,127.09426,53.908Z" style="fill:#9d1333"/><g style="clip-path:url(#clip-path-2)"><rect x="17.53368" y="-0.24848" width="210.23753" height="8.75992" style="fill:#d80031"/><rect x="17.53368" y="8.51144" width="210.23753" height="8.75979" style="fill:#fff"/><rect x="17.53368" y="17.27123" width="210.23753" height="8.75928" style="fill:#d80031"/><rect x="17.53368" y="26.03051" width="210.23753" height="8.76664" style="fill:#fff"/><rect x="17.53368" y="34.79715" width="210.23753" height="8.75295" style="fill:#d80031"/><rect x="17.53368" y="43.55009" width="210.23753" height="8.76613" style="fill:#fff"/><rect x="17.53368" y="52.31622" width="210.23753" height="8.75295" style="fill:#d80031"/><rect x="17.53368" y="61.06917" width="210.23753" height="8.76613" style="fill:#fff"/><rect x="17.53368" y="69.8353" width="210.23753" height="8.75358" style="fill:#d80031"/><rect x="17.53368" y="78.58888" width="210.23753" height="8.76613" style="fill:#fff"/><rect x="17.53368" y="87.35501" width="210.23753" height="8.76043" style="fill:#d80031"/><rect x="17.53368" y="96.11544" width="210.23753" height="8.75865" style="fill:#fff"/><rect x="17.53368" y="104.87409" width="210.23753" height="8.76043" style="fill:#d80031"/><rect x="17.53368" y="113.63451" width="210.23753" height="8.75979" style="fill:#fff"/><rect x="17.53368" y="-0.24848" width="64.65558" height="52.56471" style="fill:#2530a9"/><path d="M36.9252,29.90172a12.72149,12.72149,0,0,1,19.38-10.84807,14.54047,14.54047,0,1,0,0,21.69228,12.72622,12.72622,0,0,1-19.38-10.84421" style="fill:#f5d028"/><polygon points="66.014 29.902 72.98 27.202 65.533 27.796 70.641 22.343 64.186 26.107 66.422 18.98 62.244 25.174 61.164 17.781 60.391 23.076 60.171 24.603 60.086 25.174 55.906 18.98 58.143 26.107 51.691 22.343 56.797 27.796 49.35 27.202 56.319 29.902 49.35 32.597 56.797 32.003 51.691 37.456 58.143 33.689 55.906 40.819 60.086 34.626 60.171 35.197 60.391 36.724 61.164 42.018 62.244 34.626 66.422 40.819 64.186 33.689 70.641 37.456 65.533 32.003 72.98 32.597 66.014 29.902" style="fill:#f5d028"/><rect x="17.53368" y="-0.24848" width="210.23753" height="122.64279" style="fill:none"/><rect x="17.53368" y="-0.24848" width="210.23753" height="122.64279" style="fill:none"/></g><circle cx="72.98037" cy="53.90766" r="54.15614" style="fill:url(#未命名漸層_34)"/><path d="M127.09426,53.908q0-1.386-.06915-2.75374c-27.4787-5.88962-59.11669,7.37887-76.47289,8.11765A48.28533,48.28533,0,0,1,19.51955,49.13526l-.51357.89609c-.09014,1.28022-.1395,2.57217-.1395,3.87666a54.0649,54.0649,0,0,0,2.586,16.56284L71.23473,94.87109a126.4689,126.4689,0,0,1,30.22676-8.73147,35.93571,35.93571,0,0,1,14.72622.349A53.86648,53.86648,0,0,0,127.09426,53.908Z" style="opacity:0.14"/><path d="M7.74321,57.61643C52.16242,86.22127,96.58079,29.99214,141,58.597q-3.02119,11.77674-6.04282,24.0622c-38.1855-13.56161-76.37062,29.88428-114.5557,22.54786C16.18189,90.0118,11.96317,74.19665,7.74321,57.61643Z" style="fill:url(#linear-gradient-4)"/><path d="M32.75287,40.13088C34.8128,58.3626,54.49314,71.76109,76.71049,70.05748c22.21729-1.70755,38.558-17.86863,36.49747-36.09949C111.14831,15.7257,91.46574,2.32858,69.2481,4.03362,47.03189,5.73779,30.69178,21.9,32.75287,40.13088Z" style="fill:url(#linear-gradient-5)"/><path d="M50.45741,77.3227l-3.05273.69922,1.4834-4.73633a17.37718,17.37718,0,0,1,.95313-2.32422l-.58789.13379-4.21,7.46777-2.541.582.165-6.54-.55664.12793a12.09122,12.09122,0,0,1-.45508,2.21094l-1.4834,4.73633-3.06641.70313,3.00391-9.58984,4.73633-1.08594-.15234,4.625c-.01465.252-.08105.76953-.20605,1.54785l.48242-.11035q.50391-1.11914.82324-1.68945l2.93164-5.2627,4.73633-1.085Z" style="fill:#42210b"/><path d="M61.31288,74.83442l-1.88086.43164a1.63026,1.63026,0,0,1-1.00684.01172c-.23047-.09961-.39844-.377-.50879-.82812a4.79688,4.79688,0,0,1-1.10059,1.19727,3.23122,3.23122,0,0,1-1.17285.48633l-2.08984.47949q-2.17676.49951-1.56641-1.458l.98535-3.14453a3.505,3.505,0,0,1,2.78809-2.44336l2.21094-.50586a1.524,1.524,0,0,1,1.03516.041,1.50178,1.50178,0,0,1,.62012.56055l.33105-1.05664,2.96094-.67969L61.39,72.8061l.60156-.1377Zm-2.88379-1.34961.85352-2.72656-3.38477.77539-.85352,2.72656Z" style="fill:#42210b"/><path d="M65.51015,73.87251l-3.2793.751,3.00391-9.58984,3.2793-.751Z" style="fill:#42210b"/><path d="M76.36561,71.38422l-1.88086.43066a1.6275,1.6275,0,0,1-1.00684.01367c-.23047-.10156-.39844-.377-.50879-.82812a4.82509,4.82509,0,0,1-1.10059,1.19629,3.2702,3.2702,0,0,1-1.1709.4873l-2.0918.47852q-2.17676.49951-1.56641-1.457l.98535-3.14453a3.50451,3.50451,0,0,1,2.78809-2.44434l2.21094-.50684a1.52812,1.52812,0,0,1,1.03516.043,1.47413,1.47413,0,0,1,.62012.56055l.33105-1.05859,2.96094-.67773L76.44276,69.3559l.60156-.1377Zm-2.88379-1.34863.85352-2.72656-3.38281.77539L70.099,70.811Z" style="fill:#42210b"/><path d="M88.73671,62.00922,82.306,70.725a4.10751,4.10751,0,0,1-1.14941,1.13672,5.11586,5.11586,0,0,1-1.36133.46777l-2.48047.56934.6123-1.957,2.3457-.53809-1.17676-6.18555,3.16016-.72363.30957,2.08594a4.70271,4.70271,0,0,1-.042,1.377l.4668-.10742a8.9829,8.9829,0,0,1,.89355-1.56055l1.83105-2.58789Z" style="fill:#42210b"/><path d="M96.60682,65.40083a2.81056,2.81056,0,0,1-2.29,1.86914l-7.39844,1.69531.67871-2.166,6.34766-1.4541.26563-.84766-4.61719,1.05762c-1.14062.26172-1.54492-.15039-1.2041-1.2373l.26953-.86133A2.776,2.776,0,0,1,90.87147,61.52l6.41992-1.47168-.6748,2.15332-5.32227,1.2207L91.0287,64.27,95.58339,63.225q1.83691-.42041,1.31348,1.25Z" style="fill:#42210b"/><path d="M100.27382,65.90473l-3.27734.752,2.1748-6.94141,3.27734-.752Zm2.5791-8.23242-3.27734.752.4248-1.35742,3.27734-.752Z" style="fill:#42210b"/><path d="M111.12929,63.41645l-1.88086.43164a1.63,1.63,0,0,1-1.00879.01172c-.22852-.09961-.39648-.376-.50879-.82715a4.80554,4.80554,0,0,1-1.09863,1.19629,3.24852,3.24852,0,0,1-1.17285.4873l-2.08984.47949q-2.17969.498-1.56641-1.458l.98535-3.14453a3.50327,3.50327,0,0,1,2.78809-2.44434l2.21094-.50586a1.5231,1.5231,0,0,1,1.03516.042,1.47382,1.47382,0,0,1,.61816.56055l.33105-1.05762,2.96289-.67969-1.52832,4.88086.60156-.13867Zm-2.88574-1.34863.85352-2.72656-3.38281.77539-.85352,2.72656Z" style="fill:#42210b"/><path d="M49.20253,92.49165l-9.33789,2.13965,3.00293-9.58984,3.51953-.80664-2.27637,7.26758,5.81836-1.334Z" style="fill:#42210b"/><path d="M59.76307,88.04731a3.71448,3.71448,0,0,1-1.209,1.76758,4.97246,4.97246,0,0,1-2.10352,1.01563l-4.49609,1.03027a1.42582,1.42582,0,0,1-1.34375-.21387,1.30844,1.30844,0,0,1-.20117-1.45508l.90332-2.88281a3.475,3.475,0,0,1,1.05957-1.59961,3.99878,3.99878,0,0,1,1.74121-.88379l4.69141-1.0752a2.03033,2.03033,0,0,1,1.65723.10449q.49365.38379.2041,1.30957Zm-2.98047.69629L57.6371,86.017l-3.41406.78223-.85449,2.72656Z" style="fill:#42210b"/><path d="M67.00722,88.41059l-4.25586.97656q-1.30957.29883-1.64258-.14551c-.207-.2666-.17578-.82324.08789-1.667l.87109-2.7793-.84375.19336.31836-1.01758.84375-.19336,1.083-3.457,3.082-.707-1.083,3.457,3.39844-.7793L68.54823,83.309l-3.39844.7793-.93555,2.98828,3.459-.793Z" style="fill:#42210b"/><path d="M74.69081,86.64985l-4.25586.97559q-1.30957.29883-1.64258-.14453c-.207-.26758-.17578-.82422.08789-1.668l.87109-2.7793-.84375.19336.31836-1.01758.84375-.19336,1.083-3.457,3.082-.70605-1.083,3.457,3.39844-.77832-.31836,1.01758-3.39844.77832-.93555,2.98828,3.459-.793Z" style="fill:#42210b"/><path d="M85.25429,81.479l-6.26953,1.4375-.29785.95117,4.64648-1.06445-.62891,2.00977L77.33729,86.0434q-2.27344.52148-1.65527-1.4502l.94434-3.01367a3.50027,3.50027,0,0,1,1.12012-1.66211,4.62621,4.62621,0,0,1,1.94727-.9541l4.916-1.127q1.9248-.44092,1.27832,1.62109Zm-2.41309-.4043.31836-1.01758-3.5332.81055L79.308,81.8852Z" style="fill:#42210b"/><path d="M94.70741,78.92426l-2.82617.64844.47461-1.5127-2.52734.5791-1.53223,4.89258-3.05078.69922,2.20605-7.0459,3.05078-.69922-.127.4043.374.01074a2.31148,2.31148,0,0,1,.69336-.55859,4.54044,4.54044,0,0,1,.87988-.27344l1.82031-.418c.64063-.14648,1.05176-.13086,1.22754.04688.17969.16895.18457.52148.01563,1.0625Z" style="fill:#42210b"/><path d="M105.7953,72.9809l-6.42773,8.71484a4.10153,4.10153,0,0,1-1.14941,1.13574,5.12852,5.12852,0,0,1-1.3623.46973l-2.48047.56836.61328-1.957,2.3457-.53711-1.17773-6.18555,3.1582-.72461.31152,2.085a4.70531,4.70531,0,0,1-.041,1.37793l.4668-.10645a8.81937,8.81937,0,0,1,.89258-1.56152l1.83105-2.58789Z" style="fill:#42210b"/></svg>