<?xml version="1.0" encoding="utf-8"?>
<!-- Generator: Adobe Illustrator 24.0.1, SVG Export Plug-In . SVG Version: 6.00 Build 0)  -->
<svg version="1.1" id="圖層_1" xmlns="http://www.w3.org/2000/svg" xmlns:xlink="http://www.w3.org/1999/xlink" x="0px" y="0px"
	 viewBox="0 0 172 122" style="enable-background:new 0 0 172 122;" xml:space="preserve">
<path d="M170.3,37.9L163,34l0-0.1c0.1-0.8-0.5-1.5-1.2-1.5l-2.3-0.3l-3.5-1.9c-0.5-0.3-1.1-0.2-1.5,0.2c-0.2,0-0.3-0.1-0.5,0
	l-4.1,0.6l-4.1-0.5c-0.1,0-0.2,0-0.3,0c-0.4-0.4-1.1-0.5-1.6-0.2l-0.4,0.2c-8.8-17.9-27.2-30.2-48.6-30.2
	C75.5,0.4,58.6,10.6,49,25.9c-9.1,0.3-18.2,1.1-27.1,2.5c8.3,2.5,15.9,8.9,15.9,8.9s-1.6,3.7-5,10.9c2.7-0.6,5.6-1,8.5-1.3
	c-0.2,1.2-0.3,2.5-0.4,3.8l0,0c0,0.2,0,0.4,0,0.6c0,0.3,0,0.6,0,0.8c0,0.4,0,0.7,0,1.1h-37C2.2,53.2,1,54.4,1,56v15.2
	c0,1.5,1.1,2.6,2.5,2.8c0.4,0.9,1.4,1.5,2.4,1.5h28.2c2.7,10.4,5.5,20.5,8.2,30.3c13.6,5.3,27.1,4.2,40.7,1.5
	c3.8,0.9,7.8,1.3,11.9,1.3c0,0,0,0,0,0c0.5,0,1.1,0,1.6,0l6.1,13l10.1-16c4.4-1.5,8.4-3.6,12.2-6.1c-1.6,3.1-3.3,6.3-4.9,9.4
	c5.8-3.7,11.9-6.8,18.3-9.3l0,0h0c-1.4-2.7-2.8-5.3-4.3-7.8c1.5-1.5,2.8-3.1,4.1-4.8c0,0,0,0,0,0c0.1-0.2,0.2-0.3,0.4-0.5
	c0.2-0.3,0.5-0.7,0.7-1c0.2-0.3,0.5-0.7,0.7-1c0.1-0.2,0.3-0.4,0.4-0.7c0.3-0.4,0.5-0.8,0.8-1.3c0.1-0.2,0.2-0.3,0.3-0.5
	c0.3-0.5,0.6-1,0.8-1.4c0,0,0.1-0.1,0.1-0.1c4.9,0.1,9.7,0.9,14.6,2.6c2-8.2,4-16.2,6-24.1c-0.5-0.5-1.1-1-1.6-1.5l9.5-18
	c0,0,0,0,0,0C171.2,39.1,171,38.2,170.3,37.9z"/>
</svg>
