<svg xmlns="http://www.w3.org/2000/svg" xmlns:xlink="http://www.w3.org/1999/xlink" viewBox="0 0 141.001 122.50923"><defs><linearGradient id="linear-gradient" x1="101.0137" y1="98.3512" x2="115.9705" y2="102.15791" gradientUnits="userSpaceOnUse"><stop offset="0.0034" stop-color="#f8b400"/><stop offset="0.33765" stop-color="#f9ad06"/><stop offset="0.81965" stop-color="#fd9a16"/><stop offset="1" stop-color="#ff911e"/></linearGradient><linearGradient id="linear-gradient-2" x1="-88.49397" y1="62.95837" x2="27.00127" y2="62.95837" gradientTransform="translate(103.68966 40.92953) rotate(14.27665)" gradientUnits="userSpaceOnUse"><stop offset="0.0034" stop-color="#c28d00"/><stop offset="0.36606" stop-color="#c18605"/><stop offset="0.88899" stop-color="#be7313"/><stop offset="1" stop-color="#bd6e17"/></linearGradient><linearGradient id="linear-gradient-3" x1="-0.25114" y1="30.25335" x2="139.61975" y2="65.85244" xlink:href="#linear-gradient"/><clipPath id="clip-path"><path d="M127.74372,55.4115c0,29.88516-24.52037,54.11912-54.77429,54.11912-30.23651,0-54.75139-24.234-54.75139-54.11912,0-29.88327,24.51488-54.10984,54.75139-54.10984C103.22335,1.30166,127.74372,25.52823,127.74372,55.4115Z" style="fill:none"/></clipPath><radialGradient id="未命名漸層_18" cx="80.2995" cy="50.29572" fx="49.936441867884554" fy="32.24608410877535" r="66.69246" gradientUnits="userSpaceOnUse"><stop offset="0.56892" stop-color="#efffff" stop-opacity="0.2"/><stop offset="0.6925" stop-color="#a6b1b1" stop-opacity="0.13888"/><stop offset="1" stop-opacity="0"/></radialGradient><linearGradient id="未命名漸層_11" x1="72.0057" y1="-2.10939" x2="72.0057" y2="67.31984" gradientUnits="userSpaceOnUse"><stop offset="0" stop-color="#fff"/><stop offset="0.16806" stop-color="#fff" stop-opacity="0.77931"/><stop offset="0.39556" stop-color="#fff" stop-opacity="0.50546"/><stop offset="0.60083" stop-color="#fff" stop-opacity="0.28806"/><stop offset="0.77631" stop-color="#fff" stop-opacity="0.13141"/><stop offset="0.9151" stop-color="#fff" stop-opacity="0.03535"/><stop offset="1" stop-color="#fff" stop-opacity="0"/></linearGradient><linearGradient id="未命名漸層_7" x1="7.74326" y1="79.64551" x2="141.001" y2="79.64551" gradientUnits="userSpaceOnUse"><stop offset="0.0034" stop-color="#f8d04c"/><stop offset="0.18339" stop-color="#f9c948"/><stop offset="0.44353" stop-color="#fab63e"/><stop offset="0.7508" stop-color="#fd972d"/><stop offset="1" stop-color="#ff781d"/></linearGradient></defs><title>泰国5分彩-越</title><g id="圖層_2" data-name="圖層 2"><g id="圖層_1-2" data-name="圖層 1"><path d="M116.3535,100.65308A99.9092,99.9092,0,0,0,98.07,109.9172c3.82207-7.497,7.64418-14.77,11.46587-21.71221Q112.9447,94.24206,116.3535,100.65308Z" style="fill:url(#linear-gradient)"/><path d="M7.7655,59.05241c4.21229,16.60221,8.42421,32.44173,12.63613,47.66379,31.98357,12.49257,63.96791-10.64137,95.95188-6.06312q-3.4094-6.42216-6.81764-12.44809C75.61212,77.56685,41.68879,93.04125,7.7655,59.05241Z" style="fill:url(#linear-gradient-2)"/><path d="M141.001,60.10581C112.93094,32.7923,53.46807,20.98553,0,29.26659c8.28471,2.53421,15.88723,8.86946,15.88723,8.86946s-1.55965,3.7036-4.97091,10.91594c37.542-8.19576,99.74206,12.4946,124.04183,35.11619Q137.9794,71.89031,141.001,60.10581Z" style="fill:url(#linear-gradient-3)"/><path d="M127.09516,55.41676a54.11427,54.11427,0,1,0-54.11427,54.11386c.53863,0,1.07444-.01052,1.60943-.02629l6.1116,13.0049L90.79132,106.527A54.13333,54.13333,0,0,0,127.09516,55.41676Z" style="fill:#bf0013"/><g style="clip-path:url(#clip-path)"><path d="M127.61519,67.42039a326.7039,326.7039,0,0,1-109.265,0,55.63217,55.63217,0,0,1,0-24.01758,326.11846,326.11846,0,0,1,109.265,0A55.59691,55.59691,0,0,1,127.61519,67.42039Z" style="fill:#003187"/><path d="M127.61519,43.4028a326.11846,326.11846,0,0,0-109.265,0A73.1476,73.1476,0,0,1,23.63452,29.5435c32.48067-13.08109,66.21565-13.08109,98.68535,0A72.43851,72.43851,0,0,1,127.61519,43.4028Z" style="fill:#fff"/><path d="M122.31987,29.5435c-32.46969-13.08109-66.20467-13.08109-98.68535,0a102.3651,102.3651,0,0,1,9.14154-13.85741C44.26361,6.99565,57.3695.272,72.06079.00778c15.35933-.27184,29.14007,6.60888,41.12492,15.6783A101.28515,101.28515,0,0,1,122.31987,29.5435Z" style="fill:#bf0013"/><path d="M122.31987,81.289c-32.46969,13.07162-66.20467,13.07162-98.68535,0a73.38452,73.38452,0,0,1-5.28434-13.86858,326.7039,326.7039,0,0,0,109.265,0A72.67172,72.67172,0,0,1,122.31987,81.289Z" style="fill:#fff"/><path d="M113.18571,95.139c-11.98485,9.07869-25.76559,15.96661-41.12492,15.68019-14.69128-.26635-27.78525-6.98048-39.28472-15.68019a101.39856,101.39856,0,0,1-9.14154-13.85c32.48067,13.07162,66.21565,13.07162,98.68535,0A100.33833,100.33833,0,0,1,113.18571,95.139Z" style="fill:#bf0013"/></g><path d="M127.74372,55.4115c0,29.88516-24.52037,54.11912-54.77429,54.11912-30.23651,0-54.75139-24.234-54.75139-54.11912,0-29.88327,24.51488-54.10984,54.75139-54.10984C103.22335,1.30166,127.74372,25.52823,127.74372,55.4115Z" style="opacity:0.8;fill:url(#未命名漸層_18)"/><path d="M115.81718,36.99174c0,18.26453-19.60857,33.10537-43.81281,33.10537-24.19969,0-43.81016-14.84083-43.81016-33.10537,0-18.2776,19.61046-33.11294,43.81016-33.11294C96.20861,3.8788,115.81718,18.71415,115.81718,36.99174Z" style="fill:url(#未命名漸層_11)"/><path d="M127.09516,55.41676q0-1.386-.06915-2.75376c-27.47889-5.88966-59.11711,7.37892-76.47343,8.11771A48.28567,48.28567,0,0,1,19.51969,50.644l-.51358.8961c-.09014,1.28023-.1395,2.57219-.1395,3.87668a54.06529,54.06529,0,0,0,2.586,16.563L71.23523,96.38013a126.4698,126.4698,0,0,1,30.227-8.73153,35.936,35.936,0,0,1,14.72633.349A53.86686,53.86686,0,0,0,127.09516,55.41676Z" style="opacity:0.14"/><path d="M7.74326,59.1252c44.41952,28.605,88.83822-27.62448,133.25774.98061q-3.02121,11.77682-6.04286,24.06237c-38.18577-13.5617-76.37116,29.8845-114.55651,22.548C16.182,91.52081,11.96326,75.70555,7.74326,59.1252Z" style="fill:url(#未命名漸層_7)"/><path d="M29.298,89.02754a3.98815,3.98815,0,0,1-1.27637-.05371l.84375-2.10449.3291-.0752A4.18956,4.18956,0,0,0,29.337,87.844a.93963.93963,0,0,0,.499.58789,1.71709,1.71709,0,0,0,1.12207.01855,3.19729,3.19729,0,0,0,1.665-.95215,4.61292,4.61292,0,0,0,1.0166-1.80371,2.07682,2.07682,0,0,0,.042-1.6377q-.31055-.51123-1.6123-.21387a9.93813,9.93813,0,0,0-1.73535.583l-.40039.0918L31.52061,80.469,37.711,79.05l-.56641,1.81152L31.254,82.21211l-.72461,1.84668q.64307-.27539,1.14453-.43555.50244-.16113,1.17285-.31445,2.53271-.58008,3.3623-.12012.8335.46.43945,1.71387a4.39508,4.39508,0,0,1-1.84961,2.38574,11.10157,11.10157,0,0,1-3.66309,1.44434A12.58969,12.58969,0,0,1,29.298,89.02754Z" style="fill:#42210b"/><path d="M44.01768,80.14375a7.61283,7.61283,0,0,1,1.67383-.59668q1.771-.40576,1.9707.40039a10.22342,10.22342,0,0,1,1.52637-.9541,7.7165,7.7165,0,0,1,1.82129-.665q1.33008-.30469,1.75.04883.41895.35156.11719,1.32031L51.73448,83.344c-.02832.0918-.02734.14844.00488.17188a.52593.52593,0,0,0,.25293.02246l.46973-.0166-.07031.22461-2.97363.68164c-.25879.05859-.42578.043-.50391-.0459-.07812-.08984-.08008-.251-.00781-.48145L50.088,80.12911c.11621-.373.12988-.62109.04-.74707-.08789-.126-.29492-.15039-.61816-.07617a5.35575,5.35575,0,0,0-1.81641.92285,2.67656,2.67656,0,0,1-.13574.6875l-1.14258,3.64746c-.02832.09082-.02539.14746.00586.1709a.49945.49945,0,0,0,.25293.02246l.46973-.01562-.07031.22363-2.97461.68164q-.38525.08789-.50293-.04492-.11719-.13477-.00879-.48242l1.18164-3.77148q.17432-.55811.041-.74609c-.08887-.126-.2959-.15137-.61914-.07715a5.01493,5.01493,0,0,0-1.71387.85352l-1.37988,4.4043c-.02832.09082-.02637.14941.00488.17676a.38616.38616,0,0,0,.23535.0332l.459-.02539-.07031.22363-4.51855,1.03516.07031-.22363.53125-.21289a1.2516,1.2516,0,0,0,.30566-.15137.40009.40009,0,0,0,.123-.2002l1.46875-4.68945c.02832-.09082.02637-.14844-.00586-.17187a.49119.49119,0,0,0-.252-.02246l-.46875.01563.06934-.22363,3.54883-1.1582.24316-.05566-.27246.86816A10.70205,10.70205,0,0,1,44.01768,80.14375Z" style="fill:#42210b"/><path d="M53.506,83.2834l.53125-.21387a1.23006,1.23006,0,0,0,.30469-.15039.4045.4045,0,0,0,.123-.2002L55.9337,78.0295c.02832-.0918.02637-.14844-.00586-.17187a.49607.49607,0,0,0-.251-.02344l-.46875.01563.06934-.22266L58.8253,76.468l.27246-.06152L57.3253,82.0627c-.02832.0918-.02734.14844.00488.17188a.50675.50675,0,0,0,.252.02246l.46973-.0166-.07031.22461-4.5459,1.041Zm3.39746-7.291q-.31641-.17432-.15625-.68359a1.70073,1.70073,0,0,1,.6416-.86621,3.05834,3.05834,0,0,1,1.15625-.5127,1.44844,1.44844,0,0,1,.98828.02148c.21191.11621.26367.34375.1582.68262a1.69687,1.69687,0,0,1-.64355.86621,3.04449,3.04449,0,0,1-1.15625.51367A1.44844,1.44844,0,0,1,56.90343,75.99239Z" style="fill:#42210b"/><path d="M68.46788,79.68184a.51135.51135,0,0,0,.25293.02246l.46875-.0166-.07031.22461-2.97363.68066c-.25781.05957-.4248.04395-.50293-.04492-.07812-.08984-.08008-.251-.00781-.48145l1.18164-3.77148c.11621-.373.12988-.62109.04-.74707q-.1333-.1875-.61914-.07617a5.40834,5.40834,0,0,0-1.95312,1.02344l-1.34082,4.28027c-.02832.09082-.02637.14941.00488.17676a.38093.38093,0,0,0,.23535.03223l.459-.02539-.07031.22461L59.05382,82.219l.07031-.22363.53125-.21387a1.22305,1.22305,0,0,0,.30566-.15039.40009.40009,0,0,0,.123-.2002l1.46875-4.68945c.02832-.09082.02637-.14844-.00586-.17187a.49119.49119,0,0,0-.252-.02246l-.46875.01563.06934-.22363,3.54883-1.15918.24316-.05469-.31543,1.00391a10.47976,10.47976,0,0,1,1.53613-.96289,7.70717,7.70717,0,0,1,1.83008-.67187q1.32861-.30469,1.75.04883.41895.35156.11719,1.32031L68.463,79.51C68.43468,79.60176,68.43565,79.6584,68.46788,79.68184Z" style="fill:#42210b"/><path d="M74.71886,78.3293a1.22806,1.22806,0,0,0,.51172-.68066.48592.48592,0,0,0-.01953-.44531.71973.71973,0,0,0-.43945-.21094c-.21582-.041-.56934-.08789-1.05762-.13672a3.58665,3.58665,0,0,1-1.69141-.44727q-.44238-.32959-.18457-1.14941a2.949,2.949,0,0,1,1.2334-1.56641,7.68232,7.68232,0,0,1,2.57422-1.01074,9.42373,9.42373,0,0,1,1.584-.23047,4.56848,4.56848,0,0,1,1.1416.043l-.63867,1.52832-.24316.05566a1.56328,1.56328,0,0,0-.53418-1.0459,1.82611,1.82611,0,0,0-1.43848-.06836,3.83947,3.83947,0,0,0-1.06445.38867,1.12557,1.12557,0,0,0-.53418.64746.44382.44382,0,0,0,.02051.41992.71965.71965,0,0,0,.41406.2041c.20215.04785.5459.10156,1.0293.168a10.25223,10.25223,0,0,1,1.55176.2998,1.07714,1.07714,0,0,1,.67285.48047,1.20869,1.20869,0,0,1-.01758.90234,2.79962,2.79962,0,0,1-1.24316,1.5332,8.39654,8.39654,0,0,1-2.59766.98145,12.49113,12.49113,0,0,1-1.77734.27539,5.44414,5.44414,0,0,1-1.31934-.00293l.72754-1.7334.24414-.05566q-.05127.92285.46875,1.21094a2.2809,2.2809,0,0,0,1.57813.04688A3.24849,3.24849,0,0,0,74.71886,78.3293Z" style="fill:#42210b"/><path d="M89.43761,74.85274a.47761.47761,0,0,0,.251.02246l.498-.02148-.07812.248-4.66113,1.06836.07813-.248.56055-.22168a1.20817,1.20817,0,0,0,.30664-.14941.41564.41564,0,0,0,.12109-.20117l2.417-7.7168-.32812.0752a4.519,4.519,0,0,0-1.43066.55859,3.9609,3.9609,0,0,0-.92969.81152q-.375.457-1.01855,1.4082l-.31348.07227.78418-2.50586,9.60742-2.20215-.78418,2.50586-.31445.07227a5.6909,5.6909,0,0,0-.22656-1.123.79639.79639,0,0,0-.52734-.47754,2.51955,2.51955,0,0,0-1.27246.06055l-.33008.0752-2.417,7.7168C89.40147,74.77168,89.4044,74.8293,89.43761,74.85274Z" style="fill:#42210b"/><path d="M103.06846,71.75118a.49308.49308,0,0,0,.252.02246l.46973-.01562-.07031.22363-2.97363.68164c-.25781.05957-.4248.04395-.50293-.04492q-.11719-.13477-.00879-.48242l1.18164-3.77148c.11621-.37207.12988-.62012.041-.74609-.08984-.126-.29492-.15137-.62012-.07617a5.40078,5.40078,0,0,0-1.95215,1.02246l-1.34082,4.28027c-.02832.09082-.02734.14941.00391.17676a.38791.38791,0,0,0,.23535.0332l.459-.02539-.07031.22363-4.51855,1.03613.07031-.22461.53223-.21289a1.24673,1.24673,0,0,0,.30469-.15039.4.4,0,0,0,.124-.20117L97.03136,66.008c.0293-.0918.02637-.14844-.00684-.17187a.48675.48675,0,0,0-.251-.02246l-.46973.01465.06934-.22266L99.922,64.44649l.27246-.0625L99.005,68.17989a10.39343,10.39343,0,0,1,1.51953-.95312,7.64222,7.64222,0,0,1,1.81348-.66211q1.32861-.30469,1.75.04785.41895.353.11719,1.32031l-1.14258,3.64746C103.03429,71.6711,103.03624,71.72774,103.06846,71.75118Z" style="fill:#42210b"/><path d="M109.84776,70.44454q-.11865-.104-.01465-.43945l.01953-.06152a6.92563,6.92563,0,0,1-2.98242,1.43164,1.89159,1.89159,0,0,1-1.33691-.0332q-.40869-.24609-.166-1.01562a2.7906,2.7906,0,0,1,.89844-1.32227,6.11124,6.11124,0,0,1,1.7168-.96973,22.59886,22.59886,0,0,1,2.72852-.833l.28418-.90527q.2168-.6958-.002-.92676-.21826-.23145-1.00586-.05176a6.40271,6.40271,0,0,0-1.27051.43555,10.49267,10.49267,0,0,0-1.29687.72852l-.1123-.19238a11.42075,11.42075,0,0,1,1.86328-1.05469,11.71012,11.71012,0,0,1,2.24609-.751q1.61572-.37061,2.12988.02441.5127.394.18555,1.4375l-1.07617,3.43555c-.02832.0918-.02637.14844.00586.17188a.5218.5218,0,0,0,.25293.02246l.46875-.0166-.07031.22461-2.94629.6748C110.10167,70.51973,109.92882,70.51583,109.84776,70.44454Zm.12891-.89844.62988-2.00977a6.12755,6.12755,0,0,0-1.2832.49512,2.16824,2.16824,0,0,0-.71484.6084,3.106,3.106,0,0,0-.41309.877c-.09863.31445-.10645.52734-.02148.63867.085.11035.26465.13477.542.07129A3.07429,3.07429,0,0,0,109.97667,69.5461Zm3.06055-7.56445a.7681.7681,0,0,1,.041.58887q-.69434.38965-1.71582.83789-1.02246.44531-1.76953.71l-.02832-.12012.65332-.47168q.15527-.11719,1.001-.74121.84668-.627,1.39648-1.11035A.61058.61058,0,0,1,113.03721,61.98165Z" style="fill:#42210b"/><path d="M114.39854,69.32637l.53125-.21289a1.278,1.278,0,0,0,.30566-.15039.40576.40576,0,0,0,.123-.20117l1.46875-4.68945c.02832-.08984.02539-.14844-.00586-.17187a.50478.50478,0,0,0-.252-.02246l-.46875.01563.06934-.22363,3.54785-1.1582.27246-.0625-1.77246,5.65723c-.02832.09082-.02734.14746.00488.1709a.50715.50715,0,0,0,.25293.02344l.46973-.0166-.07031.22363-4.54687,1.042Zm3.39746-7.291c-.21094-.11523-.2627-.34375-.15625-.68164a1.69509,1.69509,0,0,1,.6416-.86719,3.06293,3.06293,0,0,1,1.15723-.5127,1.45272,1.45272,0,0,1,.9873.02051q.31787.17578.15918.68359a1.69888,1.69888,0,0,1-.64453.86621,3.03993,3.03993,0,0,1-1.15527.51367A1.44421,1.44421,0,0,1,117.796,62.03536Z" style="fill:#42210b"/></g></g></svg>