<svg xmlns="http://www.w3.org/2000/svg" xmlns:xlink="http://www.w3.org/1999/xlink" viewBox="0 0 141 121.21"><defs><linearGradient id="linear-gradient" x1="101.01" y1="97.05" x2="115.97" y2="100.86" gradientUnits="userSpaceOnUse"><stop offset="0" stop-color="#f8b400"/><stop offset="0.34" stop-color="#f9ad06"/><stop offset="0.82" stop-color="#fd9a16"/><stop offset="1" stop-color="#ff911e"/></linearGradient><linearGradient id="linear-gradient-2" x1="-489.9" y1="-880.8" x2="-374.4" y2="-880.8" gradientTransform="translate(259.96 1053.21) rotate(14.28)" gradientUnits="userSpaceOnUse"><stop offset="0" stop-color="#c28d00"/><stop offset="0.37" stop-color="#c18605"/><stop offset="0.89" stop-color="#be7313"/><stop offset="1" stop-color="#bd6e17"/></linearGradient><linearGradient id="linear-gradient-3" x1="-0.25" y1="28.95" x2="139.62" y2="64.55" xlink:href="#linear-gradient"/><linearGradient id="未命名漸層_29" x1="34.72" y1="15.85" x2="111.24" y2="92.38" gradientUnits="userSpaceOnUse"><stop offset="0" stop-color="#e62c14"/><stop offset="1" stop-color="#c72c14"/></linearGradient><linearGradient id="linear-gradient-4" x1="7.74" y1="78.34" x2="141" y2="78.34" gradientUnits="userSpaceOnUse"><stop offset="0" stop-color="#f8d04c"/><stop offset="0.28" stop-color="#f9cc45"/><stop offset="0.67" stop-color="#fcc232"/><stop offset="1" stop-color="#ffb71d"/></linearGradient><linearGradient id="linear-gradient-5" x1="-5315.42" y1="959.73" x2="-5313.88" y2="1009.38" gradientTransform="matrix(-0.9, 0.07, 0.1, 0.89, -4790.88, -496.3)" gradientUnits="userSpaceOnUse"><stop offset="0" stop-color="#fff"/><stop offset="1" stop-color="#fff" stop-opacity="0"/></linearGradient></defs><title>越南文</title><g id="圖層_2" data-name="圖層 2"><g id="圖層_1-2" data-name="圖層 1"><path d="M116.35,99.35a99.91,99.91,0,0,0-18.28,9.26c3.82-7.5,7.64-14.77,11.47-21.71Q112.94,92.94,116.35,99.35Z" style="fill:url(#linear-gradient)"/><path d="M7.77,57.75C12,74.35,16.19,90.19,20.4,105.41c32,12.49,64-10.64,96-6.06q-3.41-6.42-6.82-12.45C75.61,76.27,41.69,91.74,7.77,57.75Z" style="fill:url(#linear-gradient-2)"/><path d="M141,58.8C112.93,31.49,53.47,19.68,0,28c8.28,2.53,15.89,8.87,15.89,8.87s-1.56,3.7-5,10.92c37.54-8.2,99.74,12.49,124,35.12Q138,70.59,141,58.8Z" style="fill:url(#linear-gradient-3)"/><path d="M127.1,54.12A54.11,54.11,0,1,0,73,108.23l1.61,0,6.11,13,10.09-16A54.13,54.13,0,0,0,127.1,54.12Z" style="fill:url(#未命名漸層_29)"/><path d="M127.1,54.12q0-1.39-.07-2.75c-27.48-5.89-59.12,7.38-76.47,8.12a48.29,48.29,0,0,1-31-10.14l-.51.9c-.09,1.28-.14,2.57-.14,3.88a54.07,54.07,0,0,0,2.59,16.56l49.78,24.4a126.47,126.47,0,0,1,30.23-8.73,35.94,35.94,0,0,1,14.73.35A53.87,53.87,0,0,0,127.1,54.12Z" style="opacity:0.14"/><path d="M7.74,57.82C52.16,86.43,96.58,30.2,141,58.8q-3,11.78-6,24.06C96.77,69.3,58.59,112.75,20.4,105.41,16.18,90.22,12,74.4,7.74,57.82Z" style="fill:url(#linear-gradient-4)"/><polygon points="71.69 12.19 76.37 26.56 91.48 26.56 79.26 35.45 83.93 49.83 71.69 40.94 59.47 49.83 64.14 35.45 51.91 26.56 67.03 26.56 71.69 12.19" style="fill:gold"/><path d="M32.75,40.38c2.06,18.23,21.74,31.63,44,29.93s38.56-17.87,36.5-36.1S91.47,2.58,69.25,4.28,30.69,22.15,32.75,40.38Z" style="fill:url(#linear-gradient-5)"/><path d="M25.87,90.67a1.82,1.82,0,0,0,.68-.92,1,1,0,0,0,0-.68.79.79,0,0,0-.43-.39,5.63,5.63,0,0,0-1-.3,6.82,6.82,0,0,1-1.29-.4,1.07,1.07,0,0,1-.59-.63,1.94,1.94,0,0,1,.09-1.19,3.63,3.63,0,0,1,1.31-1.84,7,7,0,0,1,2.7-1.13A7.23,7.23,0,0,1,28.84,83a3.84,3.84,0,0,1,1.09.1l-.83,1.82-.32.07a3.63,3.63,0,0,0-.12-1,.72.72,0,0,0-.45-.49,1.86,1.86,0,0,0-1,0q-1.54.35-1.85,1.34a.88.88,0,0,0,0,.62.74.74,0,0,0,.41.35q.31.13,1,.34l.2,0a9.41,9.41,0,0,1,1.35.47,1.1,1.1,0,0,1,.58.61,1.85,1.85,0,0,1-.08,1.16,3.71,3.71,0,0,1-1.39,1.89,7.7,7.7,0,0,1-2.87,1.19,9.16,9.16,0,0,1-1.58.21,4.18,4.18,0,0,1-1.26-.07l.95-2.09.3-.07a2.86,2.86,0,0,0,0,1.28.72.72,0,0,0,.55.51,2.56,2.56,0,0,0,1.06-.07A3.35,3.35,0,0,0,25.87,90.67Z" style="fill:#42210b"/><path d="M39.49,81.31q.87.71.19,2.89a7.15,7.15,0,0,1-2.17,3.44A8.14,8.14,0,0,1,34,89.35a3.34,3.34,0,0,1-2.85-.25q-.87-.71-.19-2.9a7.15,7.15,0,0,1,2.18-3.43,8.12,8.12,0,0,1,3.46-1.71A3.32,3.32,0,0,1,39.49,81.31Zm-4.13,7.07a4.2,4.2,0,0,0,.89-1.31,18.69,18.69,0,0,0,.84-2.28,15.18,15.18,0,0,0,.56-2.21,1.33,1.33,0,0,0-.15-1.07c-.17-.19-.5-.24-1-.13a2.59,2.59,0,0,0-1.21.63,4.2,4.2,0,0,0-.89,1.31,18.7,18.7,0,0,0-.84,2.28A15.31,15.31,0,0,0,33,87.82a1.34,1.34,0,0,0,.15,1.07c.17.19.5.24,1,.13A2.59,2.59,0,0,0,35.36,88.39Zm3.4-8.49-.18.2a5.27,5.27,0,0,1-1.48-.31,16.14,16.14,0,0,1-1.92,1.09l-.07-.14A22.19,22.19,0,0,0,37.06,79l.61-.14A5.34,5.34,0,0,0,38.76,79.9Zm1.7-3a.42.42,0,0,1,.18.34,18.63,18.63,0,0,1-2.1,1.63l-.09-.08q1-1.18,1.6-2A.56.56,0,0,1,40.46,76.91Z" style="fill:#42210b"/><path d="M51,84.5a10.36,10.36,0,0,1-4,1.76l-3.58.82.07-.23.46-.19a1,1,0,0,0,.25-.13.41.41,0,0,0,.11-.18l1-3.14-.71.16.1-.32.71-.16,1.07-3.41c0-.08,0-.14,0-.16a.36.36,0,0,0-.2,0H45.8l.07-.23,3.58-.82q2.46-.56,3.46,0t.32,2.81A6.62,6.62,0,0,1,51,84.5Zm-3.34-1.84L46.57,86l.48-.11a4.37,4.37,0,0,0,1.6-.68A3.81,3.81,0,0,0,49.73,84a12.71,12.71,0,0,0,.9-2.26,9.44,9.44,0,0,0,.48-2.16q0-.73-.39-.95a2.18,2.18,0,0,0-1.39,0l-.48.11-1.14,3.64,1.6-.37-.1.32Z" style="fill:#42210b"/><path d="M53.75,84.4a1,1,0,0,0,.25-.13.41.41,0,0,0,.11-.18l2.15-6.87c0-.08,0-.14,0-.16a.36.36,0,0,0-.2,0h-.41l.07-.23,7.21-1.65-.7,2.23-.29.07a4,4,0,0,0-.11-1,.62.62,0,0,0-.42-.43,2.11,2.11,0,0,0-1,.05l-1.66.38-1.06,3.4,3-.69-.11.34-3,.69-1.12,3.58,1.78-.41a3.57,3.57,0,0,0,1.15-.46,3.32,3.32,0,0,0,.81-.74A11.69,11.69,0,0,0,61,80.93l.3-.07-.71,2.28-7.37,1.69.07-.23ZM59.41,74l-.17.14a3.9,3.9,0,0,1-1.32-.85,1.92,1.92,0,0,1,.44-.48,1.64,1.64,0,0,1,.52-.29A7.29,7.29,0,0,0,59.41,74Zm2.55.6-.18.2a5.23,5.23,0,0,1-1.48-.31,16.31,16.31,0,0,1-1.92,1.09l-.08-.14a21.91,21.91,0,0,0,1.95-1.71l.61-.14A5.44,5.44,0,0,0,62,74.58Z" style="fill:#42210b"/><path d="M71.82,73.33l-.5.16a.33.33,0,0,0-.23.21.25.25,0,0,0,0,.13L71.75,78l3.46-5.19a.86.86,0,0,0,.08-.15c0-.07,0-.1-.12-.09l-.49.07.07-.23L76.53,72l-.07.23-.45.14a.57.57,0,0,0-.22.12,1.55,1.55,0,0,0-.19.23L70,81.09l-.37.09-1-6.81a.37.37,0,0,0-.06-.18s-.09,0-.18,0l-.42.05L68,74l3.86-.88Z" style="fill:#42210b"/><path d="M77.91,72.1s-.09,0-.2,0h-.41l.07-.23L81.19,71l-.07.23-.46.19a1.07,1.07,0,0,0-.25.13.42.42,0,0,0-.11.18l-2.15,6.87c0,.08,0,.14,0,.16a.35.35,0,0,0,.2,0h.41l-.07.23-3.81.87.07-.23.46-.19a1,1,0,0,0,.25-.13.39.39,0,0,0,.11-.18l2.15-6.87C77.94,72.17,77.94,72.12,77.91,72.1Z" style="fill:#42210b"/><path d="M80.16,78.35a1,1,0,0,0,.25-.13.39.39,0,0,0,.11-.18l2.15-6.87c0-.08,0-.14,0-.16a.36.36,0,0,0-.2,0h-.4l.07-.23,7.2-1.65-.7,2.23-.29.07a4,4,0,0,0-.11-1,.62.62,0,0,0-.42-.43,2.09,2.09,0,0,0-1,.05l-1.66.38-1.06,3.4,3-.69-.11.34-3,.69-1.12,3.58,1.78-.41a3.58,3.58,0,0,0,1.15-.46,3.32,3.32,0,0,0,.81-.74,11.89,11.89,0,0,0,.83-1.24l.3-.07L87,77.08l-7.37,1.69.07-.23Zm2.23,1.79c-.13-.11-.16-.3-.07-.57a1.48,1.48,0,0,1,.47-.7,1.82,1.82,0,0,1,.77-.38.74.74,0,0,1,.63.06c.13.11.16.3.07.57a1.47,1.47,0,0,1-.47.7,1.81,1.81,0,0,1-.77.38A.73.73,0,0,1,82.39,80.14Zm6-11.62-.18.2a5.62,5.62,0,0,1-1.5-.39,19,19,0,0,1-2,1.19l-.07-.14a23.28,23.28,0,0,0,2.06-1.93l.61-.14A4.71,4.71,0,0,0,88.42,68.52Z" style="fill:#42210b"/><path d="M93.64,75.19a.36.36,0,0,0,.2,0h.41l-.07.23-3.81.87.07-.23.46-.19a1.06,1.06,0,0,0,.25-.13.41.41,0,0,0,.1-.18l2.23-7.12-.27.06A3.43,3.43,0,0,0,92,69a3.5,3.5,0,0,0-.78.73q-.32.41-.87,1.29l-.26.06.72-2.31L98.71,67,98,69.27l-.26.06a5.65,5.65,0,0,0-.14-1.05.68.68,0,0,0-.41-.46,1.79,1.79,0,0,0-1,0l-.27.06L93.65,75C93.62,75.11,93.62,75.16,93.64,75.19Z" style="fill:#42210b"/><path d="M103.84,66.15a.36.36,0,0,0-.2,0h-.4l.07-.23,3.24-.74,2.31,3.79,1.28-4.09c0-.08,0-.14,0-.15a.38.38,0,0,0-.19,0h-.39l.07-.23,1.78-.41-.07.23-.46.19a1.07,1.07,0,0,0-.25.13.42.42,0,0,0-.11.18l-2.33,7.44-.42.1-3.59-5.93-2.1,6.71c0,.08,0,.13,0,.15a.41.41,0,0,0,.19,0h.39l-.07.23-1.78.41.07-.23.46-.19a1,1,0,0,0,.25-.13.39.39,0,0,0,.11-.18l2.15-6.87C103.86,66.23,103.86,66.18,103.84,66.15Z" style="fill:#42210b"/><path d="M114.46,70.57l.52-.16a.3.3,0,0,0,.2-.16.27.27,0,0,0,0-.13l-.25-1.5-2.71.62L111,71.08a.55.55,0,0,0-.08.15c0,.07,0,.1.13.09l.49-.07-.07.23-1.78.41.07-.23.45-.14a.57.57,0,0,0,.22-.12,1.71,1.71,0,0,0,.19-.24l5.62-8.33.37-.08,1,6.81a.37.37,0,0,0,.06.18s.09,0,.18,0l.42-.05-.07.23-3.86.88Zm.43-2.26-.41-2.45-2,3Z" style="fill:#42210b"/><path d="M120.32,68.92c0,.08,0,.13,0,.15a.41.41,0,0,0,.19,0h.39l-.07.23-1.78.41.07-.23.46-.19a1,1,0,0,0,.25-.13A.41.41,0,0,0,120,69l2.15-6.87c0-.08,0-.14,0-.16a.36.36,0,0,0-.2,0h-.4l.07-.23,3-.69.81,4.54L129.12,60l3.09-.71-.07.23-.46.19a1,1,0,0,0-.25.13.41.41,0,0,0-.11.18l-2.15,6.87c0,.08,0,.14,0,.16a.35.35,0,0,0,.2,0h.41l-.07.23-3.79.87.07-.23.45-.19a1.07,1.07,0,0,0,.24-.12.37.37,0,0,0,.11-.18l2-6.48-5.18,7.72-.35.08-1-6Z" style="fill:#42210b"/></g></g></svg>