<svg xmlns="http://www.w3.org/2000/svg" xmlns:xlink="http://www.w3.org/1999/xlink" viewBox="0 0 141 121.21"><defs><linearGradient id="linear-gradient" x1="101.01" y1="97.05" x2="115.97" y2="100.86" gradientUnits="userSpaceOnUse"><stop offset="0" stop-color="#f8b400"/><stop offset="0.34" stop-color="#f9ad06"/><stop offset="0.82" stop-color="#fd9a16"/><stop offset="1" stop-color="#ff911e"/></linearGradient><linearGradient id="linear-gradient-2" x1="-879.34" y1="-1043.54" x2="-763.85" y2="-1043.54" gradientTransform="translate(597.24 1306.96) rotate(14.28)" gradientUnits="userSpaceOnUse"><stop offset="0" stop-color="#c28d00"/><stop offset="0.37" stop-color="#c18605"/><stop offset="0.89" stop-color="#be7313"/><stop offset="1" stop-color="#bd6e17"/></linearGradient><linearGradient id="linear-gradient-3" x1="-0.25" y1="28.95" x2="139.62" y2="64.55" xlink:href="#linear-gradient"/><linearGradient id="未命名漸層_29" x1="34.72" y1="15.85" x2="111.24" y2="92.38" gradientUnits="userSpaceOnUse"><stop offset="0" stop-color="#e62c14"/><stop offset="1" stop-color="#c72c14"/></linearGradient><linearGradient id="linear-gradient-4" x1="7.74" y1="78.34" x2="141" y2="78.34" gradientUnits="userSpaceOnUse"><stop offset="0" stop-color="#f8d04c"/><stop offset="0.28" stop-color="#f9cc45"/><stop offset="0.67" stop-color="#fcc232"/><stop offset="1" stop-color="#ffb71d"/></linearGradient><linearGradient id="linear-gradient-5" x1="-7278.01" y1="862.82" x2="-7276.46" y2="912.46" gradientTransform="matrix(-0.9, 0.07, 0.1, 0.89, -6540.01, -275.09)" gradientUnits="userSpaceOnUse"><stop offset="0" stop-color="#fff"/><stop offset="1" stop-color="#fff" stop-opacity="0"/></linearGradient></defs><title>英_5</title><g id="圖層_2" data-name="圖層 2"><g id="圖層_1-2" data-name="圖層 1"><path d="M116.35,99.35a99.91,99.91,0,0,0-18.28,9.26c3.82-7.5,7.64-14.77,11.47-21.71Q112.94,92.94,116.35,99.35Z" style="fill:url(#linear-gradient)"/><path d="M7.77,57.75C12,74.35,16.19,90.19,20.4,105.41c32,12.49,64-10.64,96-6.06q-3.41-6.42-6.82-12.45C75.61,76.27,41.69,91.74,7.77,57.75Z" style="fill:url(#linear-gradient-2)"/><path d="M141,58.8C112.93,31.49,53.47,19.68,0,28c8.28,2.53,15.89,8.87,15.89,8.87s-1.56,3.7-5,10.92c37.54-8.2,99.74,12.49,124,35.12Q138,70.59,141,58.8Z" style="fill:url(#linear-gradient-3)"/><path d="M127.1,54.12A54.11,54.11,0,1,0,73,108.23l1.61,0,6.11,13,10.09-16A54.13,54.13,0,0,0,127.1,54.12Z" style="fill:url(#未命名漸層_29)"/><path d="M127.1,54.12q0-1.39-.07-2.75c-27.48-5.89-59.12,7.38-76.47,8.12a48.29,48.29,0,0,1-31-10.14l-.51.9c-.09,1.28-.14,2.57-.14,3.88a54.07,54.07,0,0,0,2.59,16.56l49.78,24.4a126.47,126.47,0,0,1,30.23-8.73,35.94,35.94,0,0,1,14.73.35A53.87,53.87,0,0,0,127.1,54.12Z" style="opacity:0.14"/><path d="M7.74,57.82C52.16,86.43,96.58,30.2,141,58.8q-3,11.78-6,24.06C96.77,69.3,58.59,112.75,20.4,105.41,16.18,90.22,12,74.4,7.74,57.82Z" style="fill:url(#linear-gradient-4)"/><polygon points="71.69 12.19 76.37 26.56 91.48 26.56 79.26 35.45 83.93 49.83 71.69 40.94 59.47 49.83 64.14 35.45 51.91 26.56 67.03 26.56 71.69 12.19" style="fill:gold"/><path d="M32.75,40.38c2.06,18.23,21.74,31.63,44,29.93s38.56-17.87,36.5-36.1S91.47,2.58,69.25,4.28,30.69,22.15,32.75,40.38Z" style="fill:url(#linear-gradient-5)"/><path d="M54.41,74.86,46.18,87.07,41.8,88.14l-1.65-9.8,3.91-1,.68,5.39a10.48,10.48,0,0,1,0,1.45l.5-.12q.57-1.05,1-1.7l4.27-6.59Z" style="fill:#42210b"/><path d="M64.84,82.53l-3.65.89-2.66-4.82a7.69,7.69,0,0,1-.47-1.3l-.53.27a9.09,9.09,0,0,1-.39,2.07L55.6,84.78l-3.51.86,3.28-11,4.81-1.17,1.92,3.61a10.91,10.91,0,0,1,.47,1.29l.52-.25a10,10,0,0,1,.42-2.1l1.08-3.62,3.51-.86Z" style="fill:#42210b"/><path d="M84.62,76q-.53,1.8-3.5,2.52l-8.56,2.09.81-2.73L81.27,76l.5-1.66-6.37,1.55.67-2.25,6.37-1.55.49-1.65L75,72.36l.81-2.73,8.6-2.1q2.93-.71,2.39,1.08l-.55,1.84a2.75,2.75,0,0,1-.66,1.15A7.15,7.15,0,0,1,84,72.74a2.22,2.22,0,0,1,1.18.45,1.11,1.11,0,0,1,0,1Z" style="fill:#42210b"/><path d="M99.3,71.42a5,5,0,0,1-3.9,3.66l-6.34,1.54q-3,.74-2.16-2.18l1.56-5.23a5,5,0,0,1,1.36-2.33,5.53,5.53,0,0,1,2.52-1.27l6.34-1.54q1.58-.38,2.1.11t.08,2Zm-3.82,1.21,1.71-5.74-4.93,1.2-1.71,5.74Z" style="fill:#42210b"/><path d="M110.43,69.87A3.21,3.21,0,0,1,107.85,72L99.42,74.1l.74-2.49,7.23-1.76.29-1-5.26,1.28q-2,.48-1.4-1.4l.29-1a3.17,3.17,0,0,1,2.5-2.25l7.31-1.78-.74,2.47-6.06,1.48-.29,1,5.19-1.27q2.09-.51,1.52,1.41Z" style="fill:#42210b"/></g></g></svg>