<svg xmlns="http://www.w3.org/2000/svg" xmlns:xlink="http://www.w3.org/1999/xlink" viewBox="0 0 141 121.21"><defs><linearGradient id="linear-gradient" x1="101.01" y1="97.05" x2="115.97" y2="100.86" gradientUnits="userSpaceOnUse"><stop offset="0" stop-color="#f8b400"/><stop offset="0.34" stop-color="#f9ad06"/><stop offset="0.82" stop-color="#fd9a16"/><stop offset="1" stop-color="#ff911e"/></linearGradient><linearGradient id="linear-gradient-2" x1="-483.44" y1="-839.35" x2="-367.95" y2="-839.35" gradientTransform="translate(263.93 1011.45) rotate(14.28)" gradientUnits="userSpaceOnUse"><stop offset="0" stop-color="#c28d00"/><stop offset="0.37" stop-color="#c18605"/><stop offset="0.89" stop-color="#be7313"/><stop offset="1" stop-color="#bd6e17"/></linearGradient><linearGradient id="linear-gradient-3" x1="-0.25" y1="28.95" x2="139.62" y2="64.55" xlink:href="#linear-gradient"/><linearGradient id="未命名漸層_29" x1="34.72" y1="15.85" x2="111.24" y2="92.38" gradientUnits="userSpaceOnUse"><stop offset="0" stop-color="#e62c14"/><stop offset="1" stop-color="#c72c14"/></linearGradient><linearGradient id="linear-gradient-4" x1="7.74" y1="78.34" x2="141" y2="78.34" gradientUnits="userSpaceOnUse"><stop offset="0" stop-color="#f8d04c"/><stop offset="0.28" stop-color="#f9cc45"/><stop offset="0.67" stop-color="#fcc232"/><stop offset="1" stop-color="#ffb71d"/></linearGradient><linearGradient id="linear-gradient-5" x1="-4959.44" y1="945.87" x2="-4957.89" y2="995.52" gradientTransform="matrix(-0.9, 0.07, 0.1, 0.89, -4470.46, -508.47)" gradientUnits="userSpaceOnUse"><stop offset="0" stop-color="#fff"/><stop offset="1" stop-color="#fff" stop-opacity="0"/></linearGradient></defs><title>日文</title><g id="圖層_2" data-name="圖層 2"><g id="圖層_1-2" data-name="圖層 1"><path d="M116.35,99.35a99.91,99.91,0,0,0-18.28,9.26c3.82-7.5,7.64-14.77,11.47-21.71Q112.94,92.94,116.35,99.35Z" style="fill:url(#linear-gradient)"/><path d="M7.77,57.75C12,74.35,16.19,90.19,20.4,105.41c32,12.49,64-10.64,96-6.06q-3.41-6.42-6.82-12.45C75.61,76.27,41.69,91.74,7.77,57.75Z" style="fill:url(#linear-gradient-2)"/><path d="M141,58.8C112.93,31.49,53.47,19.68,0,28c8.28,2.53,15.89,8.87,15.89,8.87s-1.56,3.7-5,10.92c37.54-8.2,99.74,12.49,124,35.12Q138,70.59,141,58.8Z" style="fill:url(#linear-gradient-3)"/><path d="M127.1,54.12A54.11,54.11,0,1,0,73,108.23l1.61,0,6.11,13,10.09-16A54.13,54.13,0,0,0,127.1,54.12Z" style="fill:url(#未命名漸層_29)"/><path d="M127.1,54.12q0-1.39-.07-2.75c-27.48-5.89-59.12,7.38-76.47,8.12a48.29,48.29,0,0,1-31-10.14l-.51.9c-.09,1.28-.14,2.57-.14,3.88a54.07,54.07,0,0,0,2.59,16.56l49.78,24.4a126.47,126.47,0,0,1,30.23-8.73,35.94,35.94,0,0,1,14.73.35A53.87,53.87,0,0,0,127.1,54.12Z" style="opacity:0.14"/><path d="M7.74,57.82C52.16,86.43,96.58,30.2,141,58.8q-3,11.78-6,24.06C96.77,69.3,58.59,112.75,20.4,105.41,16.18,90.22,12,74.4,7.74,57.82Z" style="fill:url(#linear-gradient-4)"/><polygon points="71.69 12.19 76.37 26.56 91.48 26.56 79.26 35.45 83.93 49.83 71.69 40.94 59.47 49.83 64.14 35.45 51.91 26.56 67.03 26.56 71.69 12.19" style="fill:gold"/><path d="M32.75,40.38c2.06,18.23,21.74,31.63,44,29.93s38.56-17.87,36.5-36.1S91.47,2.58,69.25,4.28,30.69,22.15,32.75,40.38Z" style="fill:url(#linear-gradient-5)"/><path d="M39,83.46q3.62-3.76,5.28-5.63a1.7,1.7,0,0,1,.77-.61c.26-.06.43,0,.51.19a18.76,18.76,0,0,0,2,3.33,15.23,15.23,0,0,0,2,2l-1.8,1.84a14.65,14.65,0,0,1-1.86-2.31,23.2,23.2,0,0,1-1.42-2.35c0-.08-.09-.1-.19-.08a.83.83,0,0,0-.37.27q-.56.63-4,4.65Z" style="fill:#42210b"/><path d="M54.51,72.11l.94,1.59-1.08.93L53.53,73Zm1.76-1,1.06,1.44-1.08.93-1-1.52Z" style="fill:#42210b"/><path d="M60,76.08a14.44,14.44,0,0,1,3.88,1.35l-1.2,1.77a11.77,11.77,0,0,0-3.21-1.44l-2.19,7-1.55.35L60,71.47l1.43-.2c.49,0,.46.12-.07.45Z" style="fill:#42210b"/><path d="M70.57,75.85l.61-1.95L66.31,75l.4-1.27,4.87-1.12L72.9,68.4l1.43-.2c.49,0,.46.12-.07.45l-1.13,3.62,4.56-1-.4,1.27-4.56,1-.8,2.55a15.3,15.3,0,0,1-5.17,7.1L66,82.25A13.36,13.36,0,0,0,70.57,75.85Z" style="fill:#42210b"/><path d="M77.3,77.73l1.64-.44a93.76,93.76,0,0,0,6.33-11.73l1.53.15c.37,0,.36.15,0,.32Q84,71.46,80.51,76.87l5.31-1.59a12.64,12.64,0,0,0-.68-2.65l1.53-1.22a18.86,18.86,0,0,1,1.5,5.08l-1.88,1.43q-.09-.85-.26-1.68L77.9,79q-.34.64-.46.11Z" style="fill:#42210b"/><path d="M94,65.36l8.51-1.95L99.36,73.54l-1.62.37L98,73l-5.34,1.22-.42,1.34L90.7,76Zm-1,7.63,5.42-1.24,2.1-6.71-5.42,1.24Z" style="fill:#42210b"/><path d="M106,65.54a14.41,14.41,0,0,1,3.88,1.35l-1.2,1.77a11.75,11.75,0,0,0-3.21-1.44l-2.19,7-1.55.36L106,60.93l1.43-.2q.73,0-.07.45Z" style="fill:#42210b"/></g></g></svg>