<svg xmlns="http://www.w3.org/2000/svg" xmlns:xlink="http://www.w3.org/1999/xlink" viewBox="0 0 141 121.21"><defs><linearGradient id="linear-gradient" x1="101.01" y1="97.05" x2="115.97" y2="100.86" gradientUnits="userSpaceOnUse"><stop offset="0" stop-color="#f8b400"/><stop offset="0.34" stop-color="#f9ad06"/><stop offset="0.82" stop-color="#fd9a16"/><stop offset="1" stop-color="#ff911e"/></linearGradient><linearGradient id="linear-gradient-2" x1="-793.81" y1="-1219.5" x2="-678.32" y2="-1219.5" gradientTransform="translate(470.96 1456.39) rotate(14.28)" gradientUnits="userSpaceOnUse"><stop offset="0" stop-color="#c28d00"/><stop offset="0.37" stop-color="#c18605"/><stop offset="0.89" stop-color="#be7313"/><stop offset="1" stop-color="#bd6e17"/></linearGradient><linearGradient id="linear-gradient-3" x1="-0.25" y1="28.95" x2="139.62" y2="64.55" xlink:href="#linear-gradient"/><linearGradient id="未命名漸層_29" x1="34.72" y1="15.85" x2="111.24" y2="92.38" gradientUnits="userSpaceOnUse"><stop offset="0" stop-color="#e62c14"/><stop offset="1" stop-color="#c72c14"/></linearGradient><linearGradient id="linear-gradient-4" x1="7.74" y1="78.34" x2="141" y2="78.34" gradientUnits="userSpaceOnUse"><stop offset="0" stop-color="#f8d04c"/><stop offset="0.28" stop-color="#f9cc45"/><stop offset="0.67" stop-color="#fcc232"/><stop offset="1" stop-color="#ffb71d"/></linearGradient><linearGradient id="linear-gradient-5" x1="-8613.97" y1="968.58" x2="-8612.43" y2="1018.23" gradientTransform="matrix(-0.9, 0.07, 0.1, 0.89, -7747.94, -277.23)" gradientUnits="userSpaceOnUse"><stop offset="0" stop-color="#fff"/><stop offset="1" stop-color="#fff" stop-opacity="0"/></linearGradient></defs><title>越南5分_印</title><g id="圖層_2" data-name="圖層 2"><g id="圖層_1-2" data-name="圖層 1"><path d="M116.35,99.35a99.91,99.91,0,0,0-18.28,9.26c3.82-7.5,7.64-14.77,11.47-21.71Q112.94,92.94,116.35,99.35Z" style="fill:url(#linear-gradient)"/><path d="M7.77,57.75C12,74.35,16.19,90.19,20.4,105.41c32,12.49,64-10.64,96-6.06q-3.41-6.42-6.82-12.45C75.61,76.27,41.69,91.74,7.77,57.75Z" style="fill:url(#linear-gradient-2)"/><path d="M141,58.8C112.93,31.49,53.47,19.68,0,28c8.28,2.53,15.89,8.87,15.89,8.87s-1.56,3.7-5,10.92c37.54-8.2,99.74,12.49,124,35.12Q138,70.59,141,58.8Z" style="fill:url(#linear-gradient-3)"/><path d="M127.1,54.12A54.11,54.11,0,1,0,73,108.23l1.61,0,6.11,13,10.09-16A54.13,54.13,0,0,0,127.1,54.12Z" style="fill:url(#未命名漸層_29)"/><path d="M127.1,54.12q0-1.39-.07-2.75c-27.48-5.89-59.12,7.38-76.47,8.12a48.29,48.29,0,0,1-31-10.14l-.51.9c-.09,1.28-.14,2.57-.14,3.88a54.07,54.07,0,0,0,2.59,16.56l49.78,24.4a126.47,126.47,0,0,1,30.23-8.73,35.94,35.94,0,0,1,14.73.35A53.87,53.87,0,0,0,127.1,54.12Z" style="opacity:0.14"/><path d="M7.74,57.82C52.16,86.43,96.58,30.2,141,58.8q-3,11.78-6,24.06C96.77,69.3,58.59,112.75,20.4,105.41,16.18,90.22,12,74.4,7.74,57.82Z" style="fill:url(#linear-gradient-4)"/><polygon points="71.69 12.19 76.37 26.56 91.48 26.56 79.26 35.45 83.93 49.83 71.69 40.94 59.47 49.83 64.14 35.45 51.91 26.56 67.03 26.56 71.69 12.19" style="fill:gold"/><path d="M32.75,40.38c2.06,18.23,21.74,31.63,44,29.93s38.56-17.87,36.5-36.1S91.47,2.58,69.25,4.28,30.69,22.15,32.75,40.38Z" style="fill:url(#linear-gradient-5)"/><path d="M38.14,77l-.74.23a.5.5,0,0,0-.34.32.37.37,0,0,0,0,.19l1,6.31,5.19-7.79a1.07,1.07,0,0,0,.12-.22c0-.1,0-.15-.19-.13l-.73.1.11-.34,2.67-.61-.11.34-.67.22a.83.83,0,0,0-.33.17,2.41,2.41,0,0,0-.29.35L35.43,88.69l-.56.13L33.35,78.6a.56.56,0,0,0-.1-.26s-.13-.06-.27,0l-.63.08.11-.34,5.79-1.33Z" style="fill:#42210b"/><path d="M47.21,75.21a.53.53,0,0,0-.3,0H46.3l.11-.34,4.86-1.11,3.47,5.68,1.92-6.13c0-.13,0-.2,0-.23a.6.6,0,0,0-.29,0h-.59l.11-.34,2.67-.61-.11.34-.69.29a1.47,1.47,0,0,0-.38.2.59.59,0,0,0-.16.28l-3.5,11.17-.63.14-5.39-8.89L44.54,85.64c0,.13,0,.2,0,.23a.6.6,0,0,0,.29,0h.59l-.11.34-2.67.61.11-.34.69-.29a1.46,1.46,0,0,0,.38-.2.59.59,0,0,0,.16-.28l3.23-10.31C47.25,75.32,47.25,75.24,47.21,75.21Z" style="fill:#42210b"/><path d="M63.49,82.07a4.31,4.31,0,0,1-1.55-.12L63.07,79l.4-.09a6.8,6.8,0,0,0,.12,1.47,1.28,1.28,0,0,0,.58.84,1.84,1.84,0,0,0,1.36.07,3.85,3.85,0,0,0,2.07-1.26,6.82,6.82,0,0,0,1.33-2.48,3.32,3.32,0,0,0,.14-2.29q-.35-.72-1.95-.36a11,11,0,0,0-2.14.75l-.49.11,2.14-5.59,7.6-1.74L73.45,71l-7.23,1.66-1,2.55a15.1,15.1,0,0,1,1.42-.56q.62-.21,1.44-.39,3.11-.71,4.09,0t.44,2.41a6.16,6.16,0,0,1-2.37,3.26,12.66,12.66,0,0,1-4.53,1.87A13.67,13.67,0,0,1,63.49,82.07Z" style="fill:#42210b"/><path d="M81.84,70.23a8.49,8.49,0,0,1,2.06-.77q2.17-.5,2.37.64a12.42,12.42,0,0,1,1.91-1.27A8.68,8.68,0,0,1,90.43,68q1.63-.37,2.12.13t.07,1.85L91,75c0,.13,0,.21,0,.24a.51.51,0,0,0,.3,0h.57l-.1.31-3.65.84c-.32.07-.52,0-.61-.08a.82.82,0,0,1,0-.67l1.64-5.22a1.52,1.52,0,0,0,.09-1c-.1-.18-.35-.22-.75-.13a6.3,6.3,0,0,0-2.25,1.22,4.28,4.28,0,0,1-.2,1L84.52,76.5c0,.13,0,.21,0,.24a.52.52,0,0,0,.3,0h.57l-.1.31-3.65.84q-.47.11-.61-.08c-.09-.13-.08-.35,0-.67l1.63-5.22a1.51,1.51,0,0,0,.09-1c-.1-.18-.35-.22-.75-.13A5.86,5.86,0,0,0,79.9,71.9L78,78c0,.13,0,.21,0,.25s.13.06.29.05l.56,0-.1.31-5.54,1.27.1-.31.66-.28a1.46,1.46,0,0,0,.38-.2.59.59,0,0,0,.16-.28l2-6.49c0-.13,0-.2,0-.24a.52.52,0,0,0-.3,0h-.57l.1-.31,4.37-1.48.3-.07L80,71.37A12.92,12.92,0,0,1,81.84,70.23Z" style="fill:#42210b"/><path d="M93.2,75l.66-.28a1.49,1.49,0,0,0,.38-.2.6.6,0,0,0,.16-.28l2-6.49c0-.13,0-.21,0-.24a.54.54,0,0,0-.31,0h-.57l.1-.31L100,65.67l.33-.08-2.45,7.83c0,.13,0,.21,0,.24a.52.52,0,0,0,.3,0h.57l-.1.31L93.1,75.29Zm4.52-10.05q-.38-.26-.16-1a2.41,2.41,0,0,1,.83-1.19,3.53,3.53,0,0,1,1.43-.67,1.55,1.55,0,0,1,1.2.07c.25.17.3.49.16,1a2.41,2.41,0,0,1-.83,1.19,3.54,3.54,0,0,1-1.43.67A1.55,1.55,0,0,1,97.72,64.93Z" style="fill:#42210b"/><path d="M111.57,70.54a.51.51,0,0,0,.3,0h.57l-.1.31-3.65.84q-.47.11-.61-.08c-.09-.13-.08-.35,0-.67l1.63-5.22a1.51,1.51,0,0,0,.09-1q-.15-.27-.75-.13a6.35,6.35,0,0,0-2.43,1.35l-1.86,5.93c0,.13,0,.21,0,.25s.13.06.29.05l.56,0-.1.31L100,73.71l.1-.31.66-.28a1.47,1.47,0,0,0,.38-.2.59.59,0,0,0,.16-.28l2-6.49c0-.13,0-.2,0-.24a.53.53,0,0,0-.31,0h-.57l.1-.31,4.37-1.48.3-.07-.44,1.39a12.79,12.79,0,0,1,1.92-1.29,8.68,8.68,0,0,1,2.26-.87q1.63-.37,2.13.13t.07,1.85l-1.58,5.05C111.53,70.42,111.53,70.5,111.57,70.54Z" style="fill:#42210b"/><path d="M119.24,68.89a1.73,1.73,0,0,0,.66-.93.76.76,0,0,0,0-.62.82.82,0,0,0-.52-.31q-.39-.1-1.28-.23a3.93,3.93,0,0,1-2-.69q-.52-.48-.16-1.61a4.12,4.12,0,0,1,1.58-2.14A8.75,8.75,0,0,1,120.66,61a10.15,10.15,0,0,1,1.94-.26,4.87,4.87,0,0,1,1.38.11L123.13,63l-.3.07a2.3,2.3,0,0,0-.59-1.48q-.48-.44-1.74-.15a4.3,4.3,0,0,0-1.31.5,1.56,1.56,0,0,0-.68.88.71.71,0,0,0,0,.59.84.84,0,0,0,.49.3q.36.11,1.24.27a10.58,10.58,0,0,1,1.87.48,1.32,1.32,0,0,1,.79.7,1.92,1.92,0,0,1-.07,1.26,3.89,3.89,0,0,1-1.59,2.09A9.5,9.5,0,0,1,118,69.77a13.53,13.53,0,0,1-2.17.32,5.77,5.77,0,0,1-1.6-.05l1-2.39.3-.07q-.11,1.28.51,1.71a2.44,2.44,0,0,0,1.92.13A3.68,3.68,0,0,0,119.24,68.89Z" style="fill:#42210b"/></g></g></svg>