<svg id="圖層_1" data-name="圖層 1" xmlns="http://www.w3.org/2000/svg" viewBox="0 0 28 28"><defs><style>.cls-1{fill:#8e7c66;}.cls-2{fill:#fff;}</style></defs><title>i_animal</title><circle class="cls-1" cx="14" cy="14" r="14" transform="translate(-4.5 21.06) rotate(-65.88)"/><path class="cls-2" d="M25.28,16.34a.22.22,0,0,0,.09-.13.4.4,0,0,0-.07-.32,1.19,1.19,0,0,0-.43-.37,1.31,1.31,0,0,0-.38-.11,1.26,1.26,0,0,0-.28,0h0l-.3,0a3.22,3.22,0,0,1-.69-.06,3.4,3.4,0,0,1-.6-.22h0l-.17-.14a6.87,6.87,0,0,1-.89-.84c-.08-.08-.16-.18-.25-.29s0,0,0,0l-.05-.07a.4.4,0,0,0-.15,0H21a3.76,3.76,0,0,1-.58,0l-.29,0-.28,0,.12,0-.15,0,.32,0A4.9,4.9,0,0,0,21,13.4l-.09-.1,0-.05L20.72,13s0,0,0,0l0,0h0a1.89,1.89,0,0,1-.54.12h-.4l-.3.07.27-.14.16,0h.05a.51.51,0,0,0,.15-.07l0,0,0,0a2.68,2.68,0,0,0,.28-.18h0l0,0,.05,0v0a.41.41,0,0,0,0-.09.43.43,0,0,1,0-.07l-.09-.19a2.44,2.44,0,0,1-.14-1.47,1.43,1.43,0,0,1,.08-.22s.05-.09.07-.14l0-.09.09-.15,0,.17s0,.06,0,.07,0,0,0,.07,0,.06,0,.09v0a1.77,1.77,0,0,0,0,.23,1.41,1.41,0,0,0,0,.18v.07c0,.08,0,.17,0,.25s.07.19.11.28l0,0,0,0v0a.86.86,0,0,1,.13-.14,1.67,1.67,0,0,1,.32-.24c.16-.08.2-.09.23-.05s0,.08,0,.11h0l-.05.06h0a2.36,2.36,0,0,1,.65,0h.06l.2,0a1.71,1.71,0,0,1,.47.23h0l.11.07a1,1,0,0,0,.78.23.56.56,0,0,0,.29-.2,1.33,1.33,0,0,0,.19-.47l0,0-.12.06a1.25,1.25,0,0,1-.71-.05l-.17-.07h.18A1.66,1.66,0,0,0,24,11a.77.77,0,0,0,.22-.45l0-.07h0a.5.5,0,0,1,0-.13h0l.06-.1,0-.08a.3.3,0,0,0,0-.22.14.14,0,0,0-.09-.08l-.06,0-.11,0-.06-.05,0,0L24,9.62l-.06,0a4.29,4.29,0,0,1-.4-.43,2.25,2.25,0,0,1-.24-.36l-.11-.18a2.55,2.55,0,0,0-1.59-.85l-.28-.07-.05,0a4.06,4.06,0,0,1-.59-.19l-.06,0a2.06,2.06,0,0,1-.33-.17v0h0a2,2,0,0,1-.07.19,1,1,0,0,1-.24.32,3.8,3.8,0,0,1-.37.33l-.13.11-.06.05a.77.77,0,0,0-.18.18c0,.11.55.78.75.81l.37,0-.37,0c-.25,0-.84-.57-.91-.69a.26.26,0,0,1-.05-.3.92.92,0,0,1,.24-.31,1.24,1.24,0,0,0,.19-.21l.15-.22.17-.24a3.89,3.89,0,0,1-.53.21l-.38.13a2.83,2.83,0,0,1-1.15.19h0c-.39,0-.78,0-1.17,0a4.77,4.77,0,0,0-1.2.33l0,0a1,1,0,0,0-.21.1l-.12.08-.08.06-.21.14-.2.14c.43.19,1.06.48,1,1.07a2.35,2.35,0,0,1-.37.84l0,0c-.17.28-.35.54-.55.83l-.06,0,.15-.31.34-.7,0-.1c.11-.23.26-.55.15-.78a1.33,1.33,0,0,0-.65-.48l-.1,0-.15-.07h0l-.06,0-.06,0,0,0-.09.06h0a4.87,4.87,0,0,1-.45.27l.07.09,0,0,.11.19a1.82,1.82,0,0,1,.16.44,1.32,1.32,0,0,1-.09.77l-.07,0a1.24,1.24,0,0,0-.1-.85,1.8,1.8,0,0,0-.25-.4l-.08-.09,0,0h0l-.12,0-.08,0a2.14,2.14,0,0,1-.91,0,3.32,3.32,0,0,0-.44-.06,1.65,1.65,0,0,1,1.09.93l-.07,0a1.37,1.37,0,0,0-.79-.61,3.41,3.41,0,0,0-1.07-.19.25.25,0,0,0-.12,0H10.6a5.31,5.31,0,0,0-.92.6h0l0,0,0,0-.1.09h0a3,3,0,0,0-.29.25,10.31,10.31,0,0,0-1.36,1.5l-.26.35c-.29.41-.59.83-.92,1.21l-.5.62L6,14.73l-.09.12L5.79,15l-.09.11,0,0-.06.06,0,.07a.14.14,0,0,1,0,.06,1.16,1.16,0,0,1,0,.18,1.82,1.82,0,0,1,0,.33H5.63a.39.39,0,0,0-.06-.17l0-.08c0-.06,0-.13-.09-.21a5,5,0,0,1-.91.74,2.44,2.44,0,0,1,.63.65l-.06.05a.71.71,0,0,0-.14-.1l-.08,0-.25-.18c-.08,0-.16-.12-.24-.18h0l0,0-.06,0h0l-.07,0,0,0a1.06,1.06,0,0,1-1-.05.67.67,0,0,1-.13-.49.85.85,0,0,1,0-.22.64.64,0,0,0,0-.36A.35.35,0,0,0,2.7,15a.93.93,0,0,0-.31.13.62.62,0,0,0-.21.34,1.75,1.75,0,0,0,.07,1.1,1.11,1.11,0,0,0,.68.64A2.26,2.26,0,0,0,4,17.3a2.59,2.59,0,0,0,1.06-.42,4.94,4.94,0,0,0,.72-.58c.31-.32.56-.59.78-.86l.31-.35.37-.42c.5-.63.93-1.19,1.3-1.73l0,0,0,0a.71.71,0,0,1,.12.18,3.24,3.24,0,0,1,.24.67,2.65,2.65,0,0,1-.1,1.69,3,3,0,0,1-.4.6c-.14.19-.3.37-.45.55l-.2.23-.08.1-.26.31-.17.24a1.88,1.88,0,0,1-.16.23h0a3.1,3.1,0,0,0-.4,2.07,1.09,1.09,0,0,0,.21.51.9.9,0,0,0,.45.29.75.75,0,0,0,.31.06h0l.29,0h.08a1.55,1.55,0,0,0,.52,0A.8.8,0,0,0,9,20.55a.35.35,0,0,0,.14-.22h0a1.16,1.16,0,0,0,0-.18h0v0H8.9l-.3.05h0l0-.08L8.64,20,8.75,20A.61.61,0,0,1,9,19.9h.16a.66.66,0,0,0-.1-.25c0-.07-.07-.07-.08-.07H8.83a.62.62,0,0,0-.16,0h0l-.09,0-.05-.06h0l.06,0h.06l.1-.05h0a1.78,1.78,0,0,0-.65,0l-.12,0H7.74c-.13,0-.2-.09-.21-.14s0-.07.08-.15v0l.14-.2a8.7,8.7,0,0,1,1.11-1.24,3.66,3.66,0,0,1,.47-.37,2.11,2.11,0,0,1,.31-.21l.4-.28.34-.28.39-.3.3-.22.1-.07.18-.14.05,0c.06,0,.14-.09.15-.13a.78.78,0,0,0,0-.21v0a1.52,1.52,0,0,0-.09-.25,1.6,1.6,0,0,0-.3-.42,3.9,3.9,0,0,0-.51-.4l-.17-.12-.23-.18.27.11a2.33,2.33,0,0,1,.9.52,1.19,1.19,0,0,1,.3.84,2.81,2.81,0,0,0,.3-.29l0,0s.07,0,.08-.07a0,0,0,0,1,0,0,.08.08,0,0,1,0,0,1.8,1.8,0,0,0-.06-.22,1,1,0,0,0-.56-.63l-.27-.11.16,0-.14-.1.26.09.11,0h0a3.75,3.75,0,0,1,.44.2,1.08,1.08,0,0,1,.4.33.56.56,0,0,0,.1-.15l0-.07.2-.32a2.77,2.77,0,0,0,.26-.64,1,1,0,0,0,0-.66,2,2,0,0,0-.3-.53l.06-.05a2.1,2.1,0,0,1,.41.5,1.14,1.14,0,0,1,.08.73A3.61,3.61,0,0,1,12.84,15a4.26,4.26,0,0,1-1,1.16c-.23.19-.48.37-.72.54l-.26.2h0l0,0h0l-.13.08h0s-.07,0-.08.06h0a.14.14,0,0,0,0,.07.08.08,0,0,1,0,0,1.81,1.81,0,0,1,.05.31h0v.07s0,.08,0,.13h0a2.23,2.23,0,0,0,0,.23,3.66,3.66,0,0,0,.11.47v0a.84.84,0,0,0,.18.38h0c0,.08.06.09.07.09h0l0,0a.93.93,0,0,0,.51.22H12a4.25,4.25,0,0,0,.78-.05h.1l.16,0a.39.39,0,0,0,.22-.22v0a.38.38,0,0,0,0-.1h0l-.07,0h0a1.13,1.13,0,0,0-.41-.06h0v-.08h.05l.06,0H13a.82.82,0,0,1,.27,0,.84.84,0,0,0-.16-.31c-.05-.07-.23-.06-.34-.05h-.08v-.07h0l.08,0,.06,0L13,18a.55.55,0,0,0-.37-.07l-.3.08a1.47,1.47,0,0,1-.28.08.11.11,0,0,1-.12,0c-.1-.1-.06-.37,0-.44a2.36,2.36,0,0,1,.21-.52,5.47,5.47,0,0,1,1.27-1.4l.11-.09A7.91,7.91,0,0,1,15,14.53a4.36,4.36,0,0,1,1.45-.5,3,3,0,0,1,1.53.15,1.75,1.75,0,0,1-.18-.29.85.85,0,0,1,0-.51,1.77,1.77,0,0,1,.48-.81l.06,0-.06.13,0,0-.1.21a1.23,1.23,0,0,0-.1.49.9.9,0,0,0,.47.67l.28.19.52.34.76.48a3.63,3.63,0,0,0,1.25.53,8.47,8.47,0,0,0,1.33.16h.05l.05,0,.07,0a2,2,0,0,1,.45.19l.09.07.08.07h0a.6.6,0,0,0,.23.17,1.34,1.34,0,0,0,.35.05h.4a.83.83,0,0,0-.12-.21l0,0a.36.36,0,0,0-.07-.1L24,15.89l.3.16a.65.65,0,0,1,.21.16.72.72,0,0,1,.11.15.09.09,0,0,1,0,.05v0h.13l.34,0a.87.87,0,0,0-.2-.3.61.61,0,0,0-.15-.12l0,0s-.07-.05-.1-.05h0v-.07h0A.84.84,0,0,1,25.28,16.34ZM21.81,8.55a.23.23,0,0,1,.19-.1.44.44,0,0,1,.37.18.57.57,0,0,1,.12.18.75.75,0,0,0,.13.18h0l-.06.06h-.07l.07.06.16.18h0l-.07,0h0l-.1,0-.05,0a1,1,0,0,1-.17-.1h0a.28.28,0,0,1-.13-.11l0-.1s0,0,0-.06a.07.07,0,0,1,0-.05s0-.16-.08-.18h0a.45.45,0,0,0,0,.21l0,.1L22,9l-.06,0c-.07,0-.16-.08-.18-.2A.23.23,0,0,1,21.81,8.55Zm-1.74.12a.3.3,0,0,1,0-.29.23.23,0,0,1,.24-.08.38.38,0,0,1,.14,0l0,0,.05,0h0v.06h-.28a.49.49,0,0,0,.16.2l0,0,.06.06.08.08,0,0,.07.07h0v.08h0A.93.93,0,0,1,20.07,8.67ZM17,10.25a3.88,3.88,0,0,1-.95,2l-.21.29-.17.22c-.07.09-.13.18-.2.26l-.1.13,0,0,0,.05-.07,0c.14-.33.28-.65.43-.95l.2-.38c.09-.17.19-.35.27-.53l.06-.13a5.56,5.56,0,0,0,.32-.8,1.88,1.88,0,0,0,.06-.46,1,1,0,0,0-.15-.42,3.2,3.2,0,0,0-.31-.43l-.2-.2s0,0,0,0l-.12-.12h0v0h0v0a.32.32,0,0,1,.17.08l0,0a1.4,1.4,0,0,1,.22.14,2.3,2.3,0,0,1,.42.35,1.44,1.44,0,0,1,.31.45A1.46,1.46,0,0,1,17,10.25Z"/></svg>