<svg id="圖層_1" data-name="圖層 1" xmlns="http://www.w3.org/2000/svg" viewBox="0 0 30 30"><defs><style>.cls-1{fill:#5b5b5b;}</style></defs><title>i_betting</title><path class="cls-1" d="M26.15,20.93h-1.7V19.6c0-4.15,0-8.3,0-12.45,0-2.08-.93-3-3-3h-15c-.32,0-.65,0-1.39.07,1.45.67,1.42,1.67,1.41,2.69,0,5,0,10,0,15,0,2.3,1,3.69,2.73,3.86,2.26.21,3.55-.81,4.05-3.2a2.52,2.52,0,0,1,.13-.4c.34,0,.7-.06,1.07-.06H28.66c1.3,0,1.49.24,1.25,1.53a4.55,4.55,0,0,1-4.51,3.93c-5.27.06-10.54.07-15.81,0a4.79,4.79,0,0,1-4.87-5.06c0-4.38,0-8.75,0-13.12V7.91c-1.29,0-2.47,0-3.65,0C.2,8,0,7.55,0,6.77A4.57,4.57,0,0,1,4.44,2.41c5.87,0,11.74,0,17.61,0a4,4,0,0,1,4.08,3.71C26.21,11,26.15,15.9,26.15,20.93Z"/><path class="cls-1" d="M22.31,14.41H16V12.8h6.27Z"/><path class="cls-1" d="M16,8.09h6.29v1.6H16Z"/><path class="cls-1" d="M15.94,17.47h6.39c0,.52.05,1,.07,1.6H16C16,18.6,16,18.1,15.94,17.47Z"/><path class="cls-1" d="M14.06,16.22c-1,1.23-1.85,2.42-2.82,3.54-.13.16-.77.1-1-.08-.5-.43-.85-1-1.32-1.51s-.4-1,.31-1.37L10.77,18,13,15.47Z"/><path class="cls-1" d="M9.19,12l1.59,1.25L13,10.78l1.05.75c-1,1.23-1.82,2.4-2.77,3.48A1.12,1.12,0,0,1,10.23,15a26.6,26.6,0,0,1-1.78-2.07Z"/><path class="cls-1" d="M8.44,8.18l.74-.82,1.61,1.22L13,6.1l1.07.7c-1,1.26-1.89,2.46-2.87,3.6-.12.14-.78,0-1-.16C9.61,9.65,9.1,9,8.44,8.18Z"/></svg>