<svg id="圖層_1" data-name="圖層 1" xmlns="http://www.w3.org/2000/svg" viewBox="0 0 30 30"><defs><style>.cls-1{fill:#fff;}</style></defs><title>i_betting--320</title><path class="cls-1" d="M0,6.56l.12-.51A4.64,4.64,0,0,1,4.65,2.36H21.88a4.33,4.33,0,0,1,4.36,4.38V21.07H24.39V6.76A2.48,2.48,0,0,0,21.84,4.2H5.08v0a3.85,3.85,0,0,1,.47.19,1.84,1.84,0,0,1,1,1.73V22.7a2.9,2.9,0,0,0,1.7,2.76,3.37,3.37,0,0,0,4.89-2.86c0-.45.12-.55.56-.55H29.43c.41,0,.52.11.56.57a4.68,4.68,0,0,1-3.41,4.84,4.8,4.8,0,0,1-1.3.18H9.66a4.93,4.93,0,0,1-5-5V8h-4C.19,8,.18,8,0,7.5Z"/><path class="cls-1" d="M19.22,8c1,0,1.94,0,2.9,0,.28,0,.39.08.38.37s0,.78,0,1.17c0,.22-.06.32-.29.32H16.25c-.22,0-.3-.07-.3-.29q0-.63,0-1.26c0-.23.09-.31.31-.3Z"/><path class="cls-1" d="M19.25,12.67c1,0,1.92,0,2.87,0,.28,0,.39.08.38.37s0,.78,0,1.17c0,.22-.06.32-.29.32H16.25c-.22,0-.3-.08-.3-.29q0-.63,0-1.26c0-.23.09-.31.31-.31Z"/><path class="cls-1" d="M19.22,19.21c-1,0-1.95,0-2.93,0-.25,0-.35-.08-.34-.34q0-.61,0-1.23c0-.21.09-.29.3-.29h5.92c.23,0,.33.08.33.32,0,.41,0,.83,0,1.24,0,.23-.08.3-.31.3C21.2,19.2,20.21,19.21,19.22,19.21Z"/><circle class="cls-1" cx="11.6" cy="8.86" r="1.63"/><circle class="cls-1" cx="11.6" cy="13.49" r="1.63"/><circle class="cls-1" cx="11.6" cy="18.12" r="1.63"/></svg>