<svg id="圖層_1" data-name="圖層 1" xmlns="http://www.w3.org/2000/svg" xmlns:xlink="http://www.w3.org/1999/xlink" viewBox="0 0 39.43 39.43"><defs><linearGradient id="linear-gradient" x1="-350.61" y1="242.79" x2="-350.3" y2="242.79" gradientTransform="matrix(-64.21, -64.21, -64.21, 64.21, -6892.79, -38071.27)" gradientUnits="userSpaceOnUse"><stop offset="0" stop-color="#fc1dc8"/><stop offset="0.27" stop-color="#f022ba"/><stop offset="0.78" stop-color="#d12f97"/><stop offset="1" stop-color="#c23685"/></linearGradient><linearGradient id="linear-gradient-2" x1="-282.74" y1="249.91" x2="-282.43" y2="249.91" gradientTransform="matrix(3.75, -1.11, -1.11, -3.75, 1336.72, 647.87)" gradientUnits="userSpaceOnUse"><stop offset="0" stop-color="#b3b0b1"/><stop offset="0.2" stop-color="#c8c6c7"/><stop offset="0.53" stop-color="#e6e5e5"/><stop offset="0.81" stop-color="#f8f8f8"/><stop offset="1" stop-color="#fff"/></linearGradient><linearGradient id="linear-gradient-3" x1="-355.27" y1="218.93" x2="-354.96" y2="218.93" gradientTransform="matrix(-5.39, -5.39, -5.39, 5.39, -699.47, -3060.88)" xlink:href="#linear-gradient-2"/><linearGradient id="linear-gradient-4" x1="-301.28" y1="204.5" x2="-300.97" y2="204.5" gradientTransform="matrix(1.43, -3.71, -3.71, -1.43, 1201.78, -785.09)" xlink:href="#linear-gradient-2"/><linearGradient id="linear-gradient-5" x1="-374.54" y1="240.55" x2="-374.23" y2="240.55" gradientTransform="matrix(-6.75, 1.56, 1.56, 6.75, -2864.99, -1026.62)" xlink:href="#linear-gradient-2"/><linearGradient id="linear-gradient-6" x1="-365.29" y1="267.93" x2="-364.98" y2="267.93" gradientTransform="matrix(-2.64, 6.38, 6.38, 2.64, -2644.21, 1624.73)" xlink:href="#linear-gradient-2"/><linearGradient id="linear-gradient-7" x1="-381.02" y1="223.2" x2="-380.71" y2="223.2" gradientTransform="matrix(-6.39, -2.22, -2.22, 6.39, -1941.75, -2256.06)" gradientUnits="userSpaceOnUse"><stop offset="0" stop-color="#fc1dcf"/><stop offset="0.48" stop-color="#fb1ecd"/><stop offset="0.65" stop-color="#f520c6"/><stop offset="0.77" stop-color="#ec24ba"/><stop offset="0.87" stop-color="#df2aaa"/><stop offset="0.96" stop-color="#ce3194"/><stop offset="1" stop-color="#c23685"/></linearGradient><linearGradient id="linear-gradient-8" x1="-386.56" y1="257.37" x2="-386.25" y2="257.37" gradientTransform="matrix(-4.85, 4.61, 4.61, 4.85, -3055.87, 568.2)" gradientUnits="userSpaceOnUse"><stop offset="0" stop-color="#f220c0"/><stop offset="0.24" stop-color="#ec23b8"/><stop offset="0.61" stop-color="#da2ba3"/><stop offset="1" stop-color="#c23685"/></linearGradient><linearGradient id="linear-gradient-9" x1="-355.15" y1="262.06" x2="-354.84" y2="262.06" gradientTransform="matrix(3.14, 12.39, 12.39, -3.14, -2106.44, 5260.41)" gradientUnits="userSpaceOnUse"><stop offset="0" stop-color="#c72c92"/><stop offset="0.21" stop-color="#bc3188"/><stop offset="0.55" stop-color="#b3367f"/><stop offset="1" stop-color="#b0387c"/></linearGradient><linearGradient id="linear-gradient-10" x1="-348.68" y1="255.03" x2="-348.37" y2="255.03" gradientTransform="matrix(10.17, 15.53, 15.53, -10.17, -379.92, 8030.87)" gradientUnits="userSpaceOnUse"><stop offset="0" stop-color="#ed3bb5"/><stop offset="0.52" stop-color="#eb3bb3"/><stop offset="0.71" stop-color="#e53aac"/><stop offset="0.84" stop-color="#db39a1"/><stop offset="0.95" stop-color="#cc3790"/><stop offset="1" stop-color="#c23685"/></linearGradient><linearGradient id="linear-gradient-11" x1="-329.19" y1="240.32" x2="-328.88" y2="240.32" gradientTransform="matrix(7.4, -4.25, -4.25, -7.4, 3490.47, 385.56)" xlink:href="#linear-gradient-7"/><linearGradient id="linear-gradient-12" x1="-354.71" y1="198.27" x2="-354.4" y2="198.27" gradientTransform="matrix(-1.25, -4.44, -4.44, 1.25, 451.26, -1821.83)" xlink:href="#linear-gradient-7"/><linearGradient id="linear-gradient-13" x1="-333.17" y1="268.3" x2="-332.86" y2="268.3" gradientTransform="matrix(6.21, 5.75, 5.75, -6.21, 529.44, 3586.68)" xlink:href="#linear-gradient-2"/><linearGradient id="linear-gradient-14" x1="-348.6" y1="247.45" x2="-348.29" y2="247.45" gradientTransform="matrix(58, 58, 58, -58, 5877.57, 34580.31)" xlink:href="#linear-gradient"/></defs><title>icon__chip--pink</title><path d="M34.76,16.89a15,15,0,0,0-.9-2.82,15.49,15.49,0,0,0-1.32-2.44,14.89,14.89,0,0,0-4.31-4.25A14.83,14.83,0,0,0,25.61,6,14.32,14.32,0,0,0,23,5.21L22.3,5.1l-.2,0L21.63,5l-.22,0-.6,0h-.07l-.74,0-.78,0h-.07l-.64,0-.23,0-.49.07-.22,0-.68.12a15,15,0,0,0-2.82.9,15.49,15.49,0,0,0-2.44,1.32,14.89,14.89,0,0,0-4.25,4.31A14.83,14.83,0,0,0,6,14.39a14.09,14.09,0,0,0-.8,2.66,15.21,15.21,0,0,0,0,6.06,15,15,0,0,0,.9,2.82,15.49,15.49,0,0,0,1.32,2.44,14.89,14.89,0,0,0,4.31,4.25A14.83,14.83,0,0,0,14.39,34a14.32,14.32,0,0,0,2.66.8l.65.11.2,0,.47.06.22,0,.6.05.81,0a15.19,15.19,0,0,0,3.11-.32,15,15,0,0,0,2.82-.9,15.49,15.49,0,0,0,2.44-1.32,14.89,14.89,0,0,0,4.25-4.31A15.14,15.14,0,0,0,34.79,23a15.21,15.21,0,0,0,0-6.06ZM22.49,5.13l-.13,0ZM22,5.06l-.34,0ZM21.39,5l-.57,0ZM19.15,5l-.62,0ZM18.24,5l-.36,0Zm-.73.1-.14,0Zm0,29.74.13,0Zm.48.07.34,0Zm.62.07.57.05Z" transform="translate(-0.29 -0.29)" style="fill:#c23685"/><path d="M5.36,26.27a15.79,15.79,0,0,1-1-3c-.09-.43-.16-.86-.21-1.3l-3.76.47c.07.55.16,1.08.27,1.61a20.14,20.14,0,0,0,1.16,3.7l.3.64,3.42-1.61C5.51,26.62,5.43,26.44,5.36,26.27Z" transform="translate(-0.29 -0.29)" style="fill:#f9fbf7"/><path d="M36.49,30.81l-3.17-2.08a16.15,16.15,0,0,1-2.06,2.53A13.19,13.19,0,0,1,30,32.43l2.36,3a20.55,20.55,0,0,0,1.63-1.45A20.27,20.27,0,0,0,36.49,30.81Z" transform="translate(-0.29 -0.29)" style="fill:#f9fbf7"/><path d="M14.08,34.79a15.72,15.72,0,0,1-2.1-1L10.07,37a19,19,0,0,0,2.6,1.27,19.17,19.17,0,0,0,3.18,1l.8-3.7A15.61,15.61,0,0,1,14.08,34.79Z" transform="translate(-0.29 -0.29)" style="fill:#f9fbf7"/><path d="M34.64,13.73a15.79,15.79,0,0,1,1,3c.09.43.16.86.21,1.3l3.76-.47c-.07-.55-.16-1.08-.27-1.61a19.91,19.91,0,0,0-1.16-3.7l-.3-.64-3.42,1.61C34.49,13.38,34.57,13.56,34.64,13.73Z" transform="translate(-0.29 -0.29)" style="fill:#f9fbf7"/><path d="M25.92,5.21a15.72,15.72,0,0,1,2.1,1L29.93,3a19,19,0,0,0-2.6-1.27,19.17,19.17,0,0,0-3.18-1l-.8,3.7A15.61,15.61,0,0,1,25.92,5.21Z" transform="translate(-0.29 -0.29)" style="fill:#f9fbf7"/><path d="M39.56,17.55,35.8,18h0c0-.44-.12-.87-.21-1.3a15.79,15.79,0,0,0-1-3c-.07-.17-.15-.35-.23-.52h0l3.42-1.61A19.84,19.84,0,0,0,36.4,9.05a20.17,20.17,0,0,0-2.46-3,19.58,19.58,0,0,0-3.17-2.57c-.28-.18-.56-.36-.84-.52L28,6.24h0a15.59,15.59,0,0,0-4.67-1.81l.8-3.7L23.86.66A20.45,20.45,0,0,0,20,.29a19.42,19.42,0,0,0-4.06.42A19.47,19.47,0,0,0,9.05,3.6c-.47.32-.92.66-1.36,1l2.36,3A13.19,13.19,0,0,0,8.74,8.74,16,16,0,0,0,6.66,11.3l0,0L3.51,9.19l0,0A19,19,0,0,0,1.7,12.67a19.31,19.31,0,0,0-1,3.47A20.45,20.45,0,0,0,.29,20a19.78,19.78,0,0,0,.15,2.45L4.2,22h0c0,.44.12.87.21,1.3a15.79,15.79,0,0,0,1,3c.07.17.15.35.23.52L2.17,28.4A19.84,19.84,0,0,0,3.6,31a20.17,20.17,0,0,0,2.46,3,19.58,19.58,0,0,0,3.17,2.57c.28.18.56.36.84.52L12,33.76h0a15.72,15.72,0,0,0,2.1,1,15.44,15.44,0,0,0,2.81.83l-.24,0-.8,3.7.3.07a20.27,20.27,0,0,0,3.85.37,19.42,19.42,0,0,0,4.06-.42A19.47,19.47,0,0,0,31,36.4c.47-.32.92-.66,1.36-1l-2.36-3a13.19,13.19,0,0,0,1.31-1.17,16.15,16.15,0,0,0,2.06-2.53l3.17,2.08,0,0a19,19,0,0,0,1.79-3.44,19.31,19.31,0,0,0,1-3.47A20.45,20.45,0,0,0,39.71,20,19.78,19.78,0,0,0,39.56,17.55Zm-5.37-4.78s0-.1-.08-.16S34.16,12.72,34.19,12.77Zm-.59-1.06-.35-.55Zm.31.54c0-.09-.1-.18-.16-.27C33.81,12.07,33.86,12.16,33.91,12.25ZM11.16,6.75c-.2.13-.38.27-.57.4C10.78,7,11,6.88,11.16,6.75Zm-7,14.7v0Zm-.06-1a.49.49,0,0,0,0,.12A.49.49,0,0,1,4.08,20.47Zm0,.48a.45.45,0,0,1,0,.11A.45.45,0,0,0,4.1,21Zm1.71,6.28a1.19,1.19,0,0,1,.08.16A1.19,1.19,0,0,0,5.81,27.23Zm.59,1.06.35.55Zm-.31-.54c0,.09.1.19.16.28C6.19,27.94,6.14,27.84,6.09,27.75Zm22.75,5.5.57-.4Zm2.75-5.69a14.29,14.29,0,0,1-1.8,2.23,14.54,14.54,0,0,1-2.11,1.72,14.16,14.16,0,0,1-2.23,1.22,14.3,14.3,0,0,1-2.6.82,14.06,14.06,0,0,1-2.85.3,13.79,13.79,0,0,1-5.15-1,13.47,13.47,0,0,1-2.41-1.26,14.29,14.29,0,0,1-2.23-1.8,14.54,14.54,0,0,1-1.72-2.11,14.16,14.16,0,0,1-1.22-2.23,14.3,14.3,0,0,1-.82-2.6A14.06,14.06,0,0,1,6.15,20a13.79,13.79,0,0,1,1-5.15,13.47,13.47,0,0,1,1.26-2.41,14.29,14.29,0,0,1,1.8-2.23,14.54,14.54,0,0,1,2.11-1.72,14.16,14.16,0,0,1,2.23-1.22,14.3,14.3,0,0,1,2.6-.82A14.06,14.06,0,0,1,20,6.15a13.79,13.79,0,0,1,5.15,1,13.47,13.47,0,0,1,2.41,1.26,14.29,14.29,0,0,1,2.23,1.8,14.54,14.54,0,0,1,1.72,2.11,14.16,14.16,0,0,1,1.22,2.23,14.3,14.3,0,0,1,.82,2.6,14.06,14.06,0,0,1,.3,2.85,13.79,13.79,0,0,1-1,5.15A13.47,13.47,0,0,1,31.59,27.56Zm4.26-9.08v0Zm0,.46a.41.41,0,0,0,0,.11A.41.41,0,0,1,35.89,18.94Zm0,.47s0,.08,0,.12S35.91,19.45,35.91,19.41Z" transform="translate(-0.29 -0.29)" style="fill:#d94297"/><path d="M8.74,8.74a13.19,13.19,0,0,1,1.31-1.17l-2.36-3A20.55,20.55,0,0,0,6.06,6.06,19.7,19.7,0,0,0,3.51,9.19l3.17,2.08A16.15,16.15,0,0,1,8.74,8.74Z" transform="translate(-0.29 -0.29)" style="fill:#f9fbf7"/><path d="M32.45,17.38a12.37,12.37,0,0,0-1.87-4.44A12.37,12.37,0,0,0,29,11a12,12,0,0,0-2-1.66,12.71,12.71,0,0,0-4.46-1.83A12.82,12.82,0,0,0,20,7.27a12.52,12.52,0,0,0-2.62.28A12.08,12.08,0,0,0,15,8.3a12.69,12.69,0,0,0-2.05,1.12A12.37,12.37,0,0,0,11,11a12,12,0,0,0-1.66,2,12.71,12.71,0,0,0-1.83,4.46A12.82,12.82,0,0,0,7.27,20a12.52,12.52,0,0,0,.28,2.62,12.37,12.37,0,0,0,1.87,4.44A12.27,12.27,0,0,0,11,29a12,12,0,0,0,2,1.66,12.71,12.71,0,0,0,4.46,1.83,12.77,12.77,0,0,0,1.86.23,12.37,12.37,0,0,1-1.83-.23,11.85,11.85,0,0,1-2.22-.66,12.64,12.64,0,0,1-2.19-1.14,13.29,13.29,0,0,1-2-1.64,12.57,12.57,0,0,1-1.57-1.91,13.69,13.69,0,0,1-1.1-2,13.25,13.25,0,0,1-.75-2.36,12.92,12.92,0,0,1-.27-2.59,12.52,12.52,0,0,1,.25-2.46,11.75,11.75,0,0,1,.66-2.21,12,12,0,0,1,1.14-2.19,13.37,13.37,0,0,1,1.64-2A12.5,12.5,0,0,1,13,9.7a12.87,12.87,0,0,1,2-1.11,12.46,12.46,0,0,1,2.36-.74A12.31,12.31,0,0,1,20,7.57a12.52,12.52,0,0,1,2.46.25,11.85,11.85,0,0,1,2.22.66,12.2,12.2,0,0,1,2.18,1.14,13.37,13.37,0,0,1,2,1.64,11.94,11.94,0,0,1,1.56,1.91,12.87,12.87,0,0,1,1.11,2,13.25,13.25,0,0,1,.75,2.36,13,13,0,0,1,.27,2.59,12.52,12.52,0,0,1-.25,2.46,11.85,11.85,0,0,1-.66,2.22A12.64,12.64,0,0,1,30.53,27a13.29,13.29,0,0,1-1.64,2A12.57,12.57,0,0,1,27,30.61a13.69,13.69,0,0,1-2,1.1,13.25,13.25,0,0,1-2.36.75,12.92,12.92,0,0,1-2.59.27,12.52,12.52,0,0,0,2.62-.28,12.37,12.37,0,0,0,4.44-1.87A12.37,12.37,0,0,0,29,29a12,12,0,0,0,1.66-2,12.71,12.71,0,0,0,1.83-4.46A12.82,12.82,0,0,0,32.73,20,12.52,12.52,0,0,0,32.45,17.38Z" transform="translate(-0.29 -0.29)" style="fill:#a3ff90"/><path d="M8.2,12.3a13.81,13.81,0,0,0-2,4.95,14.15,14.15,0,0,0,0,5.65,14.44,14.44,0,0,0,.83,2.64,14.77,14.77,0,0,0,1.23,2.28A13.71,13.71,0,0,0,10,30,13.49,13.49,0,0,0,12.3,31.8a13.81,13.81,0,0,0,4.95,2,14.15,14.15,0,0,0,5.65,0A14.44,14.44,0,0,0,25.54,33a14.77,14.77,0,0,0,2.28-1.23A13.71,13.71,0,0,0,30,30,13.49,13.49,0,0,0,31.8,27.7a13.81,13.81,0,0,0,2-4.95,14.15,14.15,0,0,0,0-5.65A14.44,14.44,0,0,0,33,14.46a14.77,14.77,0,0,0-1.23-2.28A13.71,13.71,0,0,0,30,10,13.49,13.49,0,0,0,27.7,8.2a13.81,13.81,0,0,0-4.95-2,14.15,14.15,0,0,0-5.65,0,14.44,14.44,0,0,0-2.64.83,14.77,14.77,0,0,0-2.28,1.23A13.71,13.71,0,0,0,10,10,13.49,13.49,0,0,0,8.2,12.3Zm6.71-4.2a13.09,13.09,0,0,1,2.42-.77A13,13,0,0,1,24.82,8a12.67,12.67,0,0,1,2.25,1.17,13.34,13.34,0,0,1,2.09,1.69,13.48,13.48,0,0,1,1.61,2,12.52,12.52,0,0,1,1.13,2.1,13.09,13.09,0,0,1,.77,2.42A13.36,13.36,0,0,1,32.94,20a12.62,12.62,0,0,1-.25,2.53A12.48,12.48,0,0,1,32,24.82a12.67,12.67,0,0,1-1.17,2.25,13.34,13.34,0,0,1-1.69,2.09,13.48,13.48,0,0,1-2,1.61,12.52,12.52,0,0,1-2.1,1.13,13.09,13.09,0,0,1-2.42.77A13,13,0,0,1,15.18,32a12.67,12.67,0,0,1-2.25-1.17,13.34,13.34,0,0,1-2.09-1.69,13.48,13.48,0,0,1-1.61-2,12.52,12.52,0,0,1-1.13-2.1,13.09,13.09,0,0,1-.77-2.42A13,13,0,0,1,8,15.18a12.67,12.67,0,0,1,1.17-2.25,13.34,13.34,0,0,1,1.69-2.09,13.48,13.48,0,0,1,2-1.61A12.52,12.52,0,0,1,14.91,8.1Z" transform="translate(-0.29 -0.29)" style="fill:url(#linear-gradient)"/><path d="M30.58,12.94l.93-.62a14.54,14.54,0,0,0-1.72-2.11L29,11A12.37,12.37,0,0,1,30.58,12.94Z" transform="translate(-0.29 -0.29)" style="fill:#c23685"/><path d="M31.7,15l1-.44a14.16,14.16,0,0,0-1.22-2.23l-.93.62A12.69,12.69,0,0,1,31.7,15Z" transform="translate(-0.29 -0.29)" style="fill:#e6ede6"/><path d="M32.45,17.38l1.1-.23a14.3,14.3,0,0,0-.82-2.6l-1,.44A12.78,12.78,0,0,1,32.45,17.38Z" transform="translate(-0.29 -0.29)" style="fill:#c23685"/><path d="M29,29l.8.8a14.29,14.29,0,0,0,1.8-2.23L30.65,27A12,12,0,0,1,29,29Z" transform="translate(-0.29 -0.29)" style="fill:#e6ede6"/><path d="M8.19,15.27l-1-.42a14.32,14.32,0,0,0-.73,2.44l1.1.22A12.3,12.3,0,0,1,8.19,15.27Z" transform="translate(-0.29 -0.29)" style="fill:#e6ede6"/><path d="M7.55,22.62l-1.1.23a14.3,14.3,0,0,0,.82,2.6l1-.44A12.78,12.78,0,0,1,7.55,22.62Z" transform="translate(-0.29 -0.29)" style="fill:#c23685"/><path d="M7.52,17.51l-1.1-.22A14.23,14.23,0,0,0,6.15,20H7.27A12.82,12.82,0,0,1,7.52,17.51Z" transform="translate(-0.29 -0.29)" style="fill:#c23685"/><path d="M7.27,20H6.15a14.06,14.06,0,0,0,.3,2.85l1.1-.23A12.52,12.52,0,0,1,7.27,20Z" transform="translate(-0.29 -0.29)" style="fill:#e6ede6"/><path d="M8.3,25l-1,.44a14.16,14.16,0,0,0,1.22,2.23l.93-.62A12.69,12.69,0,0,1,8.3,25Z" transform="translate(-0.29 -0.29)" style="fill:#e6ede6"/><path d="M11,29l-.8.8a14.29,14.29,0,0,0,2.23,1.8l.61-.94A12,12,0,0,1,11,29Z" transform="translate(-0.29 -0.29)" style="fill:#e6ede6"/><path d="M9.42,27.06l-.93.62a14.54,14.54,0,0,0,1.72,2.11L11,29A12.27,12.27,0,0,1,9.42,27.06Z" transform="translate(-0.29 -0.29)" style="fill:#c23685"/><path d="M13.05,30.65l-.61.94a13.47,13.47,0,0,0,2.41,1.26l.42-1A12.33,12.33,0,0,1,13.05,30.65Z" transform="translate(-0.29 -0.29)" style="fill:#c23685"/><path d="M9.35,13.05l-.94-.61a13.47,13.47,0,0,0-1.26,2.41l1,.42A12.33,12.33,0,0,1,9.35,13.05Z" transform="translate(-0.29 -0.29)" style="fill:#c23685"/><path d="M20,7.27V6.15a14.06,14.06,0,0,0-2.85.3l.23,1.1A12.52,12.52,0,0,1,20,7.27Z" transform="translate(-0.29 -0.29)" style="fill:#e6ede6"/><path d="M15,8.3l-.44-1a14.16,14.16,0,0,0-2.23,1.22l.62.93A12.69,12.69,0,0,1,15,8.3Z" transform="translate(-0.29 -0.29)" style="fill:#e6ede6"/><path d="M17.38,7.55l-.23-1.1a14.3,14.3,0,0,0-2.6.82l.44,1A12.08,12.08,0,0,1,17.38,7.55Z" transform="translate(-0.29 -0.29)" style="fill:#c23685"/><path d="M11,11l-.8-.8a14.29,14.29,0,0,0-1.8,2.23l.94.61A12,12,0,0,1,11,11Z" transform="translate(-0.29 -0.29)" style="fill:#e6ede6"/><path d="M12.94,9.42l-.62-.93a14.54,14.54,0,0,0-2.11,1.72l.8.8A12.37,12.37,0,0,1,12.94,9.42Z" transform="translate(-0.29 -0.29)" style="fill:#c23685"/><path d="M32.45,17.38A12.52,12.52,0,0,1,32.73,20h1.12a14.06,14.06,0,0,0-.3-2.85Z" transform="translate(-0.29 -0.29)" style="fill:#e6ede6"/><path d="M32.48,22.49l1.1.22A14.23,14.23,0,0,0,33.85,20H32.73A12.82,12.82,0,0,1,32.48,22.49Z" transform="translate(-0.29 -0.29)" style="fill:#c23685"/><path d="M29,11l.8-.8a14.29,14.29,0,0,0-2.23-1.8L27,9.35A12,12,0,0,1,29,11Z" transform="translate(-0.29 -0.29)" style="fill:#e6ede6"/><path d="M31.81,24.73l1,.42a14.32,14.32,0,0,0,.73-2.44l-1.1-.22A12.3,12.3,0,0,1,31.81,24.73Z" transform="translate(-0.29 -0.29)" style="fill:#e6ede6"/><path d="M15.27,31.81l-.42,1a14.32,14.32,0,0,0,2.44.73l.22-1.1A12.3,12.3,0,0,1,15.27,31.81Z" transform="translate(-0.29 -0.29)" style="fill:#e6ede6"/><path d="M27,9.35l.61-.94a13.47,13.47,0,0,0-2.41-1.26l-.42,1A12.33,12.33,0,0,1,27,9.35Z" transform="translate(-0.29 -0.29)" style="fill:#c23685"/><path d="M24.73,8.19l.42-1a14.32,14.32,0,0,0-2.44-.73l-.22,1.1A12.3,12.3,0,0,1,24.73,8.19Z" transform="translate(-0.29 -0.29)" style="fill:#e6ede6"/><path d="M30.65,27l.94.61a13.47,13.47,0,0,0,1.26-2.41l-1-.42A12.33,12.33,0,0,1,30.65,27Z" transform="translate(-0.29 -0.29)" style="fill:#c23685"/><path d="M20,32.73v1.12a14.06,14.06,0,0,0,2.85-.3l-.23-1.1A12.52,12.52,0,0,1,20,32.73Z" transform="translate(-0.29 -0.29)" style="fill:#e6ede6"/><path d="M22.49,7.52l.22-1.1A14.23,14.23,0,0,0,20,6.15V7.27A12.82,12.82,0,0,1,22.49,7.52Z" transform="translate(-0.29 -0.29)" style="fill:#c23685"/><path d="M17.51,32.48l-.22,1.1a14.23,14.23,0,0,0,2.71.27V32.73A12.82,12.82,0,0,1,17.51,32.48Z" transform="translate(-0.29 -0.29)" style="fill:#c23685"/><path d="M22.62,32.45l.23,1.1a14.3,14.3,0,0,0,2.6-.82l-.44-1A12.78,12.78,0,0,1,22.62,32.45Z" transform="translate(-0.29 -0.29)" style="fill:#c23685"/><path d="M25,31.7l.44,1a14.16,14.16,0,0,0,2.23-1.22l-.62-.93A12.69,12.69,0,0,1,25,31.7Z" transform="translate(-0.29 -0.29)" style="fill:#e6ede6"/><path d="M27.06,30.58l.62.93a14.54,14.54,0,0,0,2.11-1.72L29,29A12.37,12.37,0,0,1,27.06,30.58Z" transform="translate(-0.29 -0.29)" style="fill:#c23685"/><path d="M4.27,22.51a.5.5,0,0,1,0,.12A.5.5,0,0,0,4.27,22.51Z" transform="translate(-0.29 -0.29)" style="fill:#c23685"/><path d="M31.26,31.26a16.15,16.15,0,0,0,2.06-2.53A16.15,16.15,0,0,1,31.26,31.26Z" transform="translate(-0.29 -0.29)" style="fill:#c23685"/><path d="M15.35,35.23c.43.13.86.24,1.3.34C16.21,35.47,15.78,35.36,15.35,35.23Z" transform="translate(-0.29 -0.29)" style="fill:#c23685"/><path d="M14.72,35l.52.17Z" transform="translate(-0.29 -0.29)" style="fill:#c23685"/><path d="M35.71,17.36v0Z" transform="translate(-0.29 -0.29)" style="fill:#c23685"/><path d="M7.65,10a15.27,15.27,0,0,0-1,1.31A15.27,15.27,0,0,1,7.65,10Z" transform="translate(-0.29 -0.29)" style="fill:#f9faf9"/><path d="M8.18,9.33l-.49.57Z" transform="translate(-0.29 -0.29)" style="fill:#f9faf9"/><path d="M2.43,28.28c-.1-.21-.2-.42-.29-.64A18.59,18.59,0,0,1,1,24C.88,23.48.79,23,.72,22.42l-.28,0c.07.55.16,1.08.27,1.61a20.14,20.14,0,0,0,1.16,3.7l.3.64Z" transform="translate(-0.29 -0.29)" style="fill:url(#linear-gradient-2)"/><path d="M33.74,33.74c-.51.5-1.05,1-1.61,1.43l.18.22a20.55,20.55,0,0,0,1.63-1.45,20.27,20.27,0,0,0,2.55-3.13l-.24-.16A19.6,19.6,0,0,1,33.74,33.74Z" transform="translate(-0.29 -0.29)" style="fill:url(#linear-gradient-3)"/><path d="M12.77,38a21.5,21.5,0,0,1-2.55-1.25l-.15.24a19,19,0,0,0,2.6,1.27,19.17,19.17,0,0,0,3.18,1l.06-.28A19.64,19.64,0,0,1,12.77,38Z" transform="translate(-0.29 -0.29)" style="fill:url(#linear-gradient-4)"/><path d="M37.86,12.36A18.59,18.59,0,0,1,39,16c.11.52.2,1.05.27,1.58l.28,0c-.07-.55-.16-1.08-.27-1.61a19.91,19.91,0,0,0-1.16-3.7l-.3-.64-.26.12C37.67,11.93,37.77,12.14,37.86,12.36Z" transform="translate(-0.29 -0.29)" style="fill:url(#linear-gradient-5)"/><path d="M27.23,2a20.77,20.77,0,0,1,2.55,1.25L29.93,3a19,19,0,0,0-2.6-1.27,19.17,19.17,0,0,0-3.18-1L24.09,1A19.64,19.64,0,0,1,27.23,2Z" transform="translate(-0.29 -0.29)" style="fill:url(#linear-gradient-6)"/><path d="M.72,22.42A21.54,21.54,0,0,1,.57,20,19.2,19.2,0,0,1,3.73,9.39l0,0-.24-.16,0,0A19,19,0,0,0,1.7,12.67a19.31,19.31,0,0,0-1,3.47A20.45,20.45,0,0,0,.29,20a19.78,19.78,0,0,0,.15,2.45Z" transform="translate(-0.29 -0.29)" style="fill:url(#linear-gradient-7)"/><path d="M10.22,36.79c-.28-.17-.56-.34-.83-.52a19,19,0,0,1-3.13-2.53,19.59,19.59,0,0,1-2.42-3,19.92,19.92,0,0,1-1.41-2.51l-.26.12A19.84,19.84,0,0,0,3.6,31a20.17,20.17,0,0,0,2.46,3,19.58,19.58,0,0,0,3.17,2.57c.28.18.56.36.84.52Z" transform="translate(-0.29 -0.29)" style="fill:url(#linear-gradient-8)"/><path d="M32.13,35.17c-.43.34-.88.68-1.34,1a19.09,19.09,0,0,1-3.15,1.7A18.59,18.59,0,0,1,24,39a19.52,19.52,0,0,1-4,.42,19.06,19.06,0,0,1-3.8-.38L15.91,39l-.06.28.3.07a20.27,20.27,0,0,0,3.85.37,19.42,19.42,0,0,0,4.06-.42A19.47,19.47,0,0,0,31,36.4c.47-.32.92-.66,1.36-1Z" transform="translate(-0.29 -0.29)" style="fill:url(#linear-gradient-9)"/><path d="M39.56,17.55l-.28,0h0A21.54,21.54,0,0,1,39.43,20a19.2,19.2,0,0,1-3.16,10.61l0,0,.24.16,0,0a19,19,0,0,0,1.79-3.44,19.31,19.31,0,0,0,1-3.47A20.45,20.45,0,0,0,39.71,20,19.78,19.78,0,0,0,39.56,17.55Z" transform="translate(-0.29 -0.29)" style="fill:url(#linear-gradient-10)"/><path d="M29.78,3.21c.28.17.56.34.83.52a19,19,0,0,1,3.13,2.53,19.59,19.59,0,0,1,2.42,3,19.92,19.92,0,0,1,1.41,2.51l.26-.12A19.84,19.84,0,0,0,36.4,9.05a20.17,20.17,0,0,0-2.46-3,19.58,19.58,0,0,0-3.17-2.57c-.28-.18-.56-.36-.84-.52Z" transform="translate(-0.29 -0.29)" style="fill:url(#linear-gradient-11)"/><path d="M7.87,4.83c.43-.34.88-.68,1.34-1a19.09,19.09,0,0,1,3.15-1.7A18.38,18.38,0,0,1,16,1a19.52,19.52,0,0,1,4-.42A19.06,19.06,0,0,1,23.8,1l.29.06.06-.28L23.86.66A20.45,20.45,0,0,0,20,.29a19.42,19.42,0,0,0-4.06.42A19.47,19.47,0,0,0,9.05,3.6c-.47.32-.92.66-1.36,1Z" transform="translate(-0.29 -0.29)" style="fill:url(#linear-gradient-12)"/><path d="M6.26,6.26c.51-.5,1-1,1.61-1.43l-.18-.22A20.55,20.55,0,0,0,6.06,6.06,19.7,19.7,0,0,0,3.51,9.19l.24.16A20.18,20.18,0,0,1,6.26,6.26Z" transform="translate(-0.29 -0.29)" style="fill:url(#linear-gradient-13)"/><path d="M23.39,36.61a.8.8,0,1,1,.8.81A.8.8,0,0,1,23.39,36.61Z" transform="translate(-0.29 -0.29)" style="fill:#f9faf9"/><path d="M15.24,3.39a.8.8,0,1,1,.8.8A.8.8,0,0,1,15.24,3.39Z" transform="translate(-0.29 -0.29)" style="fill:#f9faf9"/><path d="M2.38,17a.81.81,0,1,1,.8.8A.8.8,0,0,1,2.38,17Z" transform="translate(-0.29 -0.29)" style="fill:#f9faf9"/><path d="M6.86,31.85a.8.8,0,1,1,.8.8A.8.8,0,0,1,6.86,31.85Z" transform="translate(-0.29 -0.29)" style="fill:#f9faf9"/><path d="M35.78,23.93a.81.81,0,0,1,1.61,0,.81.81,0,0,1-1.61,0Z" transform="translate(-0.29 -0.29)" style="fill:#f9faf9"/><path d="M31.82,8.61a.81.81,0,1,1,.81.8A.81.81,0,0,1,31.82,8.61Z" transform="translate(-0.29 -0.29)" style="fill:#f9faf9"/><path d="M30.66,27a12.31,12.31,0,0,0,1.15-2.22,13.71,13.71,0,0,0,.67-2.24A13,13,0,0,0,32.72,20a12.8,12.8,0,0,0-.27-2.62A13,13,0,0,0,31.7,15a13.3,13.3,0,0,0-1.12-2.06l-.31-.45a1.71,1.71,0,0,1-.11-.14L29.92,12l-.12-.15-.33-.38,0,0c-.14-.16-.28-.31-.43-.46s-.32-.31-.48-.45h0l0,0-.42-.35L27.91,10l-.33-.26-.15-.11L27,9.34a12.31,12.31,0,0,0-2.22-1.15,13.71,13.71,0,0,0-2.24-.67A13,13,0,0,0,20,7.28a12.8,12.8,0,0,0-2.62.27A13,13,0,0,0,15,8.3a13.3,13.3,0,0,0-2.06,1.12A12.47,12.47,0,0,0,11,11a12.85,12.85,0,0,0-1.66,2.05,12.31,12.31,0,0,0-1.15,2.22,13.71,13.71,0,0,0-.67,2.24A13,13,0,0,0,7.28,20a12.8,12.8,0,0,0,.27,2.62A13,13,0,0,0,8.3,25a13.3,13.3,0,0,0,1.12,2.06l.31.45a1.71,1.71,0,0,1,.11.14l.24.31.12.15.33.38c.15.17.31.34.47.5a12.85,12.85,0,0,0,2.05,1.66,12.31,12.31,0,0,0,2.22,1.15,13.71,13.71,0,0,0,2.24.67,13,13,0,0,0,2.49.24,12.8,12.8,0,0,0,2.62-.27A13,13,0,0,0,25,31.7a13.3,13.3,0,0,0,2.06-1.12A12.47,12.47,0,0,0,29,29,12.85,12.85,0,0,0,30.66,27Zm-.3-14.33a.36.36,0,0,0-.07-.1A.36.36,0,0,1,30.36,12.62Zm-.24-.34-.18-.22Zm-.33-.41-.32-.37Zm-1.32-1.36-.39-.34Zm-.59-.5-.24-.18Zm-.49-.37-.1-.07ZM9.64,27.38a.36.36,0,0,0,.07.1A.36.36,0,0,1,9.64,27.38Zm.24.34.18.22Zm.33.41.32.37Z" transform="translate(-0.29 -0.29)" style="fill:url(#linear-gradient-14)"/><path d="M32.19,17.43a12.27,12.27,0,0,0-1.84-4.34A11.73,11.73,0,0,0,28.8,11.2a12.36,12.36,0,0,0-4.17-2.76,12.55,12.55,0,0,0-2.19-.65l-.54-.1-.17,0-.39,0-.17,0c-.17,0-.33,0-.5,0H19.3l-.53,0-.19,0-.41,0-.17,0-.57.1a12.27,12.27,0,0,0-4.34,1.84A11.73,11.73,0,0,0,11.2,11.2a12.36,12.36,0,0,0-2.76,4.17,12.41,12.41,0,0,0-.65,2.2A12.14,12.14,0,0,0,7.55,20a12.8,12.8,0,0,0,.26,2.57A12.58,12.58,0,0,0,11.2,28.8a12.36,12.36,0,0,0,4.17,2.76,12.41,12.41,0,0,0,2.2.65l.53.1.17,0,.39.05.17,0c.17,0,.33,0,.5,0s.45,0,.67,0a12.8,12.8,0,0,0,2.57-.26,12.27,12.27,0,0,0,4.34-1.84A11.73,11.73,0,0,0,28.8,28.8a12.36,12.36,0,0,0,2.76-4.17,12.41,12.41,0,0,0,.65-2.2A12.14,12.14,0,0,0,32.45,20,12.8,12.8,0,0,0,32.19,17.43ZM22.06,7.72,22,7.7Zm-.4-.06-.28,0Zm-.51-.06-.47,0Zm-2.6,0-.3,0Zm-.6.09-.12,0Zm0,24.56.11,0Zm.4.06.28,0Zm.51.06.47,0Z" transform="translate(-0.29 -0.29)" style="fill:#d94297"/></svg>