<?xml version="1.0" encoding="utf-8"?>
<!-- Generator: Adobe Illustrator 22.1.0, SVG Export Plug-In . SVG Version: 6.00 Build 0)  -->
<svg version="1.1" id="圖層_1" xmlns="http://www.w3.org/2000/svg" xmlns:xlink="http://www.w3.org/1999/xlink" x="0px" y="0px"
	 viewBox="0 0 38.2 38.2" style="enable-background:new 0 0 38.2 38.2;" xml:space="preserve">
<style type="text/css">
	.st0{fill:url(#SVGID_1_);}
	.st1{fill:url(#XMLID_2_);}
	.st2{fill:url(#SVGID_2_);}
	.st3{fill:url(#XMLID_3_);}
	.st4{fill:url(#XMLID_4_);}
	.st5{fill:url(#XMLID_5_);}
	.st6{fill:url(#XMLID_6_);}
	.st7{fill:url(#XMLID_7_);}
	.st8{fill:url(#XMLID_8_);}
	.st9{fill:url(#XMLID_9_);}
	.st10{fill:url(#XMLID_10_);}
	.st11{fill:url(#XMLID_11_);}
	.st12{opacity:0.77;fill:url(#XMLID_12_);}
	.st13{fill:#333333;}
	.st14{font-family:'MicrosoftJhengHeiRegular';}
	.st15{font-size:11.3313px;}
	.st16{fill:url(#SVGID_3_);}
</style>
<g>
	<linearGradient id="SVGID_1_" gradientUnits="userSpaceOnUse" x1="8.0931" y1="8.0931" x2="33.4858" y2="33.4859">
		<stop  offset="0" style="stop-color:#F9AE1E"/>
		<stop  offset="1" style="stop-color:#F99009"/>
	</linearGradient>
	<circle class="st0" cx="19.1" cy="19.1" r="19.1"/>
</g>
<linearGradient id="XMLID_2_" gradientUnits="userSpaceOnUse" x1="5.956" y1="6.1289" x2="28.4797" y2="28.6526">
	<stop  offset="0" style="stop-color:#F9AE1E"/>
	<stop  offset="1" style="stop-color:#F99009"/>
</linearGradient>
<circle id="XMLID_50_" class="st1" cx="19.1" cy="19.3" r="15.3"/>
<linearGradient id="SVGID_2_" gradientUnits="userSpaceOnUse" x1="12.9837" y1="13.1566" x2="29.7322" y2="29.9051">
	<stop  offset="0" style="stop-color:#FFFFFF"/>
	<stop  offset="1" style="stop-color:#D5D3D3"/>
</linearGradient>
<path class="st2" d="M19.1,5C11.2,5,4.8,11.4,4.8,19.3c0,7.9,6.4,14.3,14.3,14.3c7.9,0,14.3-6.4,14.3-14.3C33.4,11.4,27,5,19.1,5z
	 M28.9,29.1c-2.5,2.5-6,4.1-9.8,4.1c-3.8,0-7.3-1.6-9.8-4.1c-2.5-2.5-4.1-6-4.1-9.8c0-3.8,1.6-7.3,4.1-9.8c2.5-2.5,6-4.1,9.8-4.1
	c3.8,0,7.3,1.6,9.8,4.1c2.5,2.5,4.1,6,4.1,9.8C33,23.1,31.4,26.6,28.9,29.1z"/>
<linearGradient id="XMLID_3_" gradientUnits="userSpaceOnUse" x1="5.8542" y1="6.0271" x2="37.249" y2="37.4219">
	<stop  offset="0" style="stop-color:#FFFFFF"/>
	<stop  offset="1" style="stop-color:#D5D3D3"/>
</linearGradient>
<circle id="XMLID_49_" class="st3" cx="19.1" cy="19.3" r="13.5"/>
<g>
	<linearGradient id="XMLID_4_" gradientUnits="userSpaceOnUse" x1="16.5406" y1="-1.2084" x2="43.635" y2="25.886">
		<stop  offset="0" style="stop-color:#FFFFFF"/>
		<stop  offset="1" style="stop-color:#D5D3D3"/>
	</linearGradient>
	<path id="XMLID_48_" class="st4" d="M16,3h6.4c0.5,0,1-0.4,1-1V0.5C22,0.2,20.5,0,19.1,0c-1.4,0-2.7,0.2-4.1,0.4V2
		C15,2.5,15.5,3,16,3z"/>
	<linearGradient id="XMLID_5_" gradientUnits="userSpaceOnUse" x1="-1.1222" y1="16.4544" x2="25.9722" y2="43.5489">
		<stop  offset="0" style="stop-color:#FFFFFF"/>
		<stop  offset="1" style="stop-color:#D5D3D3"/>
	</linearGradient>
	<path id="XMLID_47_" class="st5" d="M22.4,35.2H16c-0.5,0-1,0.4-1,1v1.5c1.3,0.3,2.7,0.4,4.1,0.4c1.5,0,2.9-0.2,4.2-0.5v-1.5
		C23.3,35.6,22.9,35.2,22.4,35.2z"/>
	<linearGradient id="XMLID_6_" gradientUnits="userSpaceOnUse" x1="7.5322" y1="7.8" x2="34.6268" y2="34.8946">
		<stop  offset="0" style="stop-color:#FFFFFF"/>
		<stop  offset="1" style="stop-color:#D5D3D3"/>
	</linearGradient>
	<path id="XMLID_46_" class="st6" d="M5.4,10.1l4.5-4.5c0.4-0.4,0.4-1,0-1.4L8.7,3.1C6.3,4.6,4.4,6.6,2.9,9L4,10.1
		C4.4,10.5,5,10.5,5.4,10.1z"/>
	<linearGradient id="XMLID_7_" gradientUnits="userSpaceOnUse" x1="7.6389" y1="7.693" x2="34.7336" y2="34.7876">
		<stop  offset="0" style="stop-color:#FFFFFF"/>
		<stop  offset="1" style="stop-color:#D5D3D3"/>
	</linearGradient>
	<path id="XMLID_45_" class="st7" d="M32.8,28.3l-4.5,4.5c-0.4,0.4-0.4,1,0,1.4l1,1c2.4-1.5,4.4-3.5,5.9-5.9l-1-1
		C33.7,27.9,33.1,27.9,32.8,28.3z"/>
	<linearGradient id="XMLID_8_" gradientUnits="userSpaceOnUse" x1="-1.3808" y1="16.7131" x2="25.7135" y2="43.8075">
		<stop  offset="0" style="stop-color:#FFFFFF"/>
		<stop  offset="1" style="stop-color:#D5D3D3"/>
	</linearGradient>
	<path id="XMLID_44_" class="st8" d="M3,22.7l-0.1-6.4c0-0.5-0.4-1-1-1l-1.6,0C0.1,16.6,0,17.8,0,19.1c0,1.6,0.2,3.1,0.6,4.6l1.5,0
		C2.6,23.7,3,23.3,3,22.7z"/>
	<linearGradient id="XMLID_9_" gradientUnits="userSpaceOnUse" x1="16.427" y1="-1.0947" x2="43.5214" y2="25.9997">
		<stop  offset="0" style="stop-color:#FFFFFF"/>
		<stop  offset="1" style="stop-color:#D5D3D3"/>
	</linearGradient>
	<path id="XMLID_43_" class="st9" d="M37.7,15.1l-1.6,0c-0.5,0-1,0.4-1,1l0.1,6.4c0,0.5,0.4,1,1,1l1.5,0c0.3-1.4,0.5-2.8,0.5-4.3
		C38.2,17.7,38,16.4,37.7,15.1z"/>
	<linearGradient id="XMLID_10_" gradientUnits="userSpaceOnUse" x1="-4.8412" y1="20.1734" x2="22.2533" y2="47.2678">
		<stop  offset="0" style="stop-color:#FFFFFF"/>
		<stop  offset="1" style="stop-color:#D5D3D3"/>
	</linearGradient>
	<path id="XMLID_42_" class="st10" d="M10.2,33.3l-4.6-4.4c-0.4-0.4-1-0.4-1.4,0l-1,1c1.6,2.3,3.7,4.2,6.1,5.7l0.8-0.9
		C10.6,34.3,10.6,33.7,10.2,33.3z"/>
	<linearGradient id="XMLID_11_" gradientUnits="userSpaceOnUse" x1="20.0256" y1="-4.6933" x2="47.12" y2="22.401">
		<stop  offset="0" style="stop-color:#FFFFFF"/>
		<stop  offset="1" style="stop-color:#D5D3D3"/>
	</linearGradient>
	<path id="XMLID_41_" class="st11" d="M28.2,5.8l4.6,4.4c0.4,0.4,1,0.4,1.4,0L35.3,9c-1.5-2.4-3.5-4.4-5.8-5.9l-1.3,1.3
		C27.8,4.8,27.8,5.4,28.2,5.8z"/>
</g>
<linearGradient id="XMLID_12_" gradientUnits="userSpaceOnUse" x1="45.6513" y1="45.6513" x2="13.6685" y2="13.6686">
	<stop  offset="0" style="stop-color:#000000"/>
	<stop  offset="0.1413" style="stop-color:#242424"/>
	<stop  offset="1" style="stop-color:#FFFFFF"/>
</linearGradient>
<path id="XMLID_33_" class="st12" d="M19.6,0c10,0.3,18,8.4,18,18.5c0,10.2-8.3,18.5-18.5,18.5C8.9,37,0.6,28.7,0.6,18.5
	c0-10.1,8-18.2,18-18.5C8.3,0.3,0,8.7,0,19.1c0,10.5,8.5,19.1,19.1,19.1s19.1-8.5,19.1-19.1C38.2,8.7,29.9,0.3,19.6,0z"/>
<text transform="matrix(1 0 0 1 8.0749 23.6266)" class="st13 st14 st15">筹码</text>
<linearGradient id="SVGID_3_" gradientUnits="userSpaceOnUse" x1="27.9064" y1="28.8807" x2="10.3768" y2="9.0051">
	<stop  offset="0" style="stop-color:#FFFFFF"/>
	<stop  offset="1" style="stop-color:#FFFFFF;stop-opacity:0"/>
</linearGradient>
<path class="st16" d="M19.1,0C8.5,0,0,8.5,0,19.1c0,3.7,1,7.1,2.8,10L36,10.4C32.9,4.2,26.5,0,19.1,0z"/>
</svg>
