<?xml version="1.0" encoding="utf-8"?>
<!-- Generator: Adobe Illustrator 22.1.0, SVG Export Plug-In . SVG Version: 6.00 Build 0)  -->
<svg version="1.1" id="圖層_1" xmlns="http://www.w3.org/2000/svg" xmlns:xlink="http://www.w3.org/1999/xlink" x="0px" y="0px"
	 viewBox="0 0 30 26" style="enable-background:new 0 0 30 26;" xml:space="preserve">
<style type="text/css">
	.st0{fill:url(#SVGID_1_);stroke:#000000;stroke-width:0.75;stroke-miterlimit:10;}
	.st1{fill:none;stroke:#8C6239;stroke-width:0.75;stroke-linecap:round;stroke-linejoin:round;stroke-miterlimit:10;}
	.st2{fill:#666666;}
</style>
<g>
	
		<linearGradient id="SVGID_1_" gradientUnits="userSpaceOnUse" x1="265.8202" y1="-223.0856" x2="248.2368" y2="-239.2522" gradientTransform="matrix(0.9864 -0.1644 0.1644 0.9864 -203.6451 285.3792)">
		<stop  offset="3.401451e-03" style="stop-color:#F15A24"/>
		<stop  offset="0.1922" style="stop-color:#F46623"/>
		<stop  offset="1" style="stop-color:#FF951D"/>
	</linearGradient>
	<path class="st0" d="M27.3,21.6L4.7,25.4c-1.1,0.2-2.1-0.6-2.3-1.6l-1.5-8.9c-0.2-1.1,0.6-2.1,1.6-2.3l22.7-3.8
		c1.1-0.2,2.1,0.6,2.3,1.6l1.5,8.9C29.2,20.4,28.4,21.5,27.3,21.6z"/>
	<g>
		<g>
			<path d="M7.4,20c0,0.4-0.1,0.8-0.2,1.1C7,21.7,6.6,22,6,22.1c-0.6,0.1-1.2-0.1-1.6-0.6c-0.4-0.5-0.7-1.1-0.8-2
				c-0.1-0.9-0.1-1.6,0.2-2.2c0.3-0.6,0.7-0.9,1.3-1c0.8-0.1,1.5,0.3,1.9,1.4L6.3,18c-0.3-0.7-0.7-1-1.2-0.9
				c-0.5,0.1-0.7,0.4-0.9,0.9c-0.1,0.4-0.1,0.8,0,1.4c0.1,0.6,0.3,1.1,0.4,1.4c0.3,0.5,0.6,0.6,1.1,0.6c0.6-0.1,0.8-0.6,0.8-1.5
				L7.4,20z"/>
			<path d="M11,21.2l-2.7,0.5L7.3,16L8,15.9l0.8,4.9l2-0.3L11,21.2z"/>
			<path d="M14.8,17.6c0.1,0.9,0.1,1.6-0.2,2.2c-0.3,0.6-0.7,1-1.3,1.1c-0.6,0.1-1.1-0.1-1.6-0.6c-0.4-0.5-0.7-1.2-0.9-2
				c-0.1-0.8-0.1-1.5,0.1-2.1c0.3-0.7,0.7-1,1.4-1.2c0.6-0.1,1.2,0.1,1.6,0.6C14.4,16.1,14.7,16.8,14.8,17.6z M14.1,17.7
				c-0.1-0.6-0.3-1.1-0.6-1.5c-0.3-0.3-0.6-0.5-1-0.4c-0.4,0.1-0.6,0.3-0.8,0.6c-0.2,0.4-0.3,1-0.1,1.7c0.1,0.7,0.3,1.2,0.7,1.6
				c0.3,0.3,0.6,0.4,1,0.3c0.5-0.1,0.8-0.4,0.9-1C14.2,18.7,14.2,18.3,14.1,17.7z"/>
			<path d="M18.7,18.2c0.1,0.5,0,0.9-0.1,1.2c-0.2,0.4-0.6,0.7-1.2,0.8c-0.6,0.1-1,0-1.4-0.4c-0.3-0.3-0.5-0.7-0.6-1.2l0.6-0.2
				c0.1,0.3,0.2,0.5,0.3,0.6c0.3,0.3,0.6,0.5,1,0.4c0.3,0,0.5-0.2,0.6-0.3c0.1-0.2,0.2-0.4,0.2-0.7c0-0.3-0.2-0.4-0.4-0.5
				c-0.1-0.1-0.4-0.1-0.8-0.2c-0.5-0.1-0.8-0.2-1-0.3c-0.4-0.2-0.6-0.6-0.7-1.1c-0.1-0.4,0-0.8,0.2-1.2c0.2-0.4,0.6-0.6,1-0.7
				c0.5-0.1,0.8,0,1.2,0.2c0.4,0.3,0.6,0.7,0.7,1.2L17.5,16c-0.2-0.6-0.5-0.9-1-0.8c-0.2,0-0.4,0.1-0.5,0.3
				c-0.2,0.2-0.2,0.4-0.2,0.6c0,0.2,0.1,0.4,0.3,0.5c0.1,0.1,0.4,0.2,0.8,0.2c0.5,0.1,0.9,0.2,1.1,0.3
				C18.4,17.2,18.6,17.6,18.7,18.2z"/>
			<path d="M22.7,19.2l-3.1,0.5l-0.9-5.7l3-0.5l0.1,0.8l-2.3,0.4l0.3,1.5l2.2-0.4l0.1,0.8l-2.2,0.4l0.3,1.7l2.4-0.4L22.7,19.2z"/>
			<path d="M26.3,15.7c0.2,1,0.1,1.7-0.2,2.3c-0.2,0.4-0.6,0.7-1.2,0.8l-1.5,0.3l-0.9-5.7l1.5-0.2c0.3-0.1,0.6-0.1,0.8,0
				c0.3,0.1,0.6,0.3,0.9,0.6C25.9,14.2,26.1,14.9,26.3,15.7z M25.6,15.8c-0.1-0.8-0.4-1.3-0.7-1.6c-0.1-0.1-0.3-0.2-0.5-0.2
				c-0.1,0-0.3,0-0.6,0.1l-0.6,0.1l0.7,4.1l0.8-0.1c0.4-0.1,0.7-0.2,0.8-0.4C25.7,17.3,25.7,16.7,25.6,15.8z"/>
		</g>
	</g>
	<polyline class="st1" points="5.1,13 12.4,2 23.5,9.9 	"/>
	<circle class="st2" cx="12.5" cy="2.5" r="2.5"/>
</g>
</svg>
