<svg xmlns="http://www.w3.org/2000/svg" viewBox="0 0 10.27 14"><title>清空</title><g id="圖層_2" data-name="圖層 2"><g id="彩種玩法選單"><path d="M1.42,13a1.27,1.27,0,0,0,1.28,1H7.56a1.27,1.27,0,0,0,1.28-1l1-9.32H.47ZM7,5.13a.47.47,0,1,1,.93,0l-.47,7a.47.47,0,0,1-.93,0Zm-2.33,0a.47.47,0,1,1,.93,0v7a.47.47,0,1,1-.93,0ZM2.8,4.67a.47.47,0,0,1,.47.47l.47,7a.47.47,0,0,1-.93,0l-.47-7a.47.47,0,0,1,.47-.47Zm6.72-2.8H7.47V.93C7.47.23,7.24,0,6.53,0H3.73A.82.82,0,0,0,2.8.93v.93H.75a.72.72,0,0,0-.75.7.72.72,0,0,0,.75.7H9.52a.72.72,0,0,0,.75-.7.72.72,0,0,0-.75-.7Zm-3,0H3.73V.93h2.8Zm0,0" style="fill:#fff;fill-rule:evenodd"/></g></g></svg>