<svg id="圖層_1" data-name="圖層 1" xmlns="http://www.w3.org/2000/svg" viewBox="0 0 18 17"><defs><style>.cls-1{fill:#c7b299;}</style></defs><title>i_dateLottery</title><path class="cls-1" d="M4,4A1,1,0,0,0,5,3V1A1,1,0,0,0,3,1V3A1,1,0,0,0,4,4Z"/><path class="cls-1" d="M14,4a1,1,0,0,0,1-1V1a1,1,0,0,0-2,0V3A1,1,0,0,0,14,4Z"/><path class="cls-1" d="M17,1H16V3a2,2,0,0,1-4,0V1H6V3A2,2,0,0,1,2,3V1H1A1,1,0,0,0,0,2V16a1,1,0,0,0,1,1H17a1,1,0,0,0,1-1V2A1,1,0,0,0,17,1Zm0,14a1,1,0,0,1-1,1H2a1,1,0,0,1-1-1V7A1,1,0,0,1,2,6H16a1,1,0,0,1,1,1Z"/><rect class="cls-1" x="2" y="7" width="2" height="2"/><rect class="cls-1" x="5" y="7" width="2" height="2"/><rect class="cls-1" x="8" y="7" width="2" height="2"/><rect class="cls-1" x="11" y="7" width="2" height="2"/><rect class="cls-1" x="14" y="7" width="2" height="2"/><rect class="cls-1" x="2" y="10" width="2" height="2"/><rect class="cls-1" x="5" y="10" width="2" height="2"/><rect class="cls-1" x="8" y="10" width="2" height="2"/><rect class="cls-1" x="14" y="10" width="2" height="2"/><rect class="cls-1" x="2" y="13" width="2" height="2"/><rect class="cls-1" x="5" y="13" width="2" height="2"/><rect class="cls-1" x="8" y="13" width="2" height="2"/><rect class="cls-1" x="11" y="13" width="2" height="2"/><rect class="cls-1" x="14" y="13" width="2" height="2"/></svg>