<svg xmlns="http://www.w3.org/2000/svg" viewBox="0 0 81 111.96"><title>資產 1</title><g id="圖層_2" data-name="圖層 2"><g id="Layer_1" data-name="Layer 1"><path d="M54.13,54.75H47.84V57.9h6.29Zm0,16.95H47.84v3.15h6.29ZM47.84,91.79h6.29V88.65H47.84Zm16.77-37H58.32V57.9h6.29ZM54.13,37.81H47.84V41h6.29ZM64.61,71.7H58.32v3.15h6.29Zm0-33.89H58.32V41h6.29Zm-21,33.89H37.35v3.15h6.29ZM57.33,12.5H51.25V10.75a10.75,10.75,0,1,0-21.5,0V12.5H23.67V27H57.33Zm-13.08,0h-7.5V10.75a3.75,3.75,0,1,1,7.5,0ZM64.61,88.65H58.32v3.14h6.29ZM16.39,74.85h6.29V71.7H16.39Zm21,16.94h6.29V88.65H37.35Zm-14.68-54H16.39V41h6.29Zm10.48,0H26.87V41h6.29Zm38.9-25.14H60.33v7H72.06A2,2,0,0,1,74,21.77v81.1A2,2,0,0,1,72.06,105H8.94A2,2,0,0,1,7,102.87V21.77a2,2,0,0,1,1.94-2.09H20.67v-7H8.94A9,9,0,0,0,0,21.77v81.1A9,9,0,0,0,8.94,112H72.06A9,9,0,0,0,81,102.87V21.77A9,9,0,0,0,72.06,12.67ZM22.68,54.75H16.39V57.9h6.29Zm21-16.94H37.35V41h6.29Zm0,16.94H37.35V57.9h6.29ZM26.87,74.85h6.29V71.7H26.87Zm6.29-20.09H26.87V57.9h6.29Z" style="fill:#0071bc"/></g></g></svg>