<?xml version="1.0" encoding="utf-8"?>
<!-- Generator: Adobe Illustrator 21.1.0, SVG Export Plug-In . SVG Version: 6.00 Build 0)  -->
<svg version="1.1" id="圖層_1" xmlns="http://www.w3.org/2000/svg" xmlns:xlink="http://www.w3.org/1999/xlink" x="0px" y="0px"
	 viewBox="0 0 33 33" style="enable-background:new 0 0 33 33;" xml:space="preserve">
<style type="text/css">
	.st0{fill:#9E977E;}
</style>
<path class="st0" d="M16.5,6.5C10.7,6.5,6,7.7,6,9.1v3.1c0,0.6,0.9,1.2,2.4,1.7l6.2,7.5v5h1.3l2.4-1.5v-3.5l6.2-7.5
	c1.5-0.5,2.4-1,2.4-1.7V9.1C27,7.7,22.3,6.5,16.5,6.5z M16.5,7.6c5.2,0,8.5,0.9,9.3,1.6c-0.8,0.6-4.2,1.6-9.3,1.6S8,9.8,7.2,9.1
	C8,8.5,11.3,7.6,16.5,7.6L16.5,7.6z"/>
</svg>
