<svg xmlns="http://www.w3.org/2000/svg" viewBox="0 0 23.6 23.6"><title>i_game-vn-prompt</title><g id="圖層_2" data-name="圖層 2"><g id="圖層_1-2" data-name="圖層 1"><circle cx="11.8" cy="11.8" r="11.8" transform="translate(-3.79 17.75) rotate(-65.88)" style="fill:#8e7c66"/><path d="M13.88,6.36c.44-.08,1.36-.44,1-1s-.93-.63-1.75-.66c-.1,0-.51-.06-.67-.07a3.86,3.86,0,0,0,.58.93c-.71-.07-1.26-.93-1.31-.93a2.82,2.82,0,0,0-1.66,0,.62.62,0,0,0-.4.31c-.09.15-.14.17-.47.24-.56.12-.72,0-.85.46-.08.27.06.34.29.54a1.07,1.07,0,0,0,1.19.14,3.39,3.39,0,0,1,1.3-.12c1.39.14,1,.54,2.71.21Zm3.75,9a3.4,3.4,0,0,0-.09,1.42c.08.39.29.68.1.86-.35.35-1.12,0-1.46.18a11.5,11.5,0,0,1-7.86.24A5.65,5.65,0,0,0,6.53,18c-.65,0-.4-.57-.26-1.17a2.25,2.25,0,0,0,0-.94C5.7,13.64,5,9.84,8.5,7.26A4,4,0,0,0,11.35,8c-.14.33-1.61.4-1.5.83.29,1.11-.46.46-.25,1.22a7.69,7.69,0,0,0,.8.28c-.14-1.29.44-1.46.91-2a1,1,0,0,0,.26-.77,4.28,4.28,0,0,1-3-.73C8.32,6.41,7.74,5.92,8,5.5c.12-.19.18-.43.92-.51.29,0,.34-.21.43-.36a2.07,2.07,0,0,1,1.23-.53,3.79,3.79,0,0,1,1.74.17c.29.05.66,0,.85.06.59.09,1.69,0,2.17.54A1.19,1.19,0,0,1,15.61,6c-.18.45-.59.35-.66.92a4,4,0,0,1-3,.66.82.82,0,0,0,.36.55c.83,0,2.12,0,2.79-.84,2.48,2.47,3.08,4.47,2.56,8.06ZM13.78,9.68c0-.16-.37-.31-.44-.41a2.83,2.83,0,0,1,.42,1.27,1.48,1.48,0,0,1,1-.33c-.7-3.06-2.62-1-3-2.59-.38,1.44,1.93.75,2,2.06ZM11.51,13v-1a.56.56,0,0,0-.47.49c0,.26.16.44.47.56ZM10,16.12a4.38,4.38,0,0,0,1.45.26v.48h.6v-.52c1.2-.17,2-1.42,1.22-2.42a2.89,2.89,0,0,0-1.22-.74V11.84a2.78,2.78,0,0,1,1.11.24l.11-.84A4.16,4.16,0,0,0,12.08,11v-.49h-.6v.52a1.75,1.75,0,0,0-.76.2,1.34,1.34,0,0,0,0,2.43l.71.35V15.5a3.61,3.61,0,0,1-1.33-.29l-.12.91Zm2-1.8V15.4C12.7,15.2,12.65,14.56,12,14.32Z" style="fill:#fff;fill-rule:evenodd"/></g></g></svg>