<svg id="圖層_1" data-name="圖層 1" xmlns="http://www.w3.org/2000/svg" viewBox="0 0 30 30"><defs><style>.cls-1{fill:#8e7c66;}.cls-2,.cls-3,.cls-5{fill:none;stroke:#ddd9cc;stroke-miterlimit:10;}.cls-2{stroke-width:1.48px;}.cls-3{stroke-linecap:round;stroke-width:1.11px;}.cls-4{fill:#ddd9cc;}.cls-5{stroke-width:0.56px;}</style></defs><title>i_history</title><rect class="cls-1" width="30" height="30" rx="3.29" ry="3.29"/><path class="cls-2" d="M11.81,7.46a.1.1,0,0,0-.1-.11.11.11,0,0,0-.11.11.1.1,0,0,0,.11.1A.09.09,0,0,0,11.81,7.46Z"/><path class="cls-2" d="M24,7.6a.1.1,0,1,0-.2,0,.1.1,0,1,0,.2,0Z"/><line class="cls-3" x1="4.47" y1="24.15" x2="25.06" y2="24.15"/><rect class="cls-4" x="4.47" y="15" width="2.26" height="7.23"/><rect class="cls-4" x="22.8" y="11.24" width="2.26" height="10.98"/><rect class="cls-4" x="10.58" y="11.11" width="2.26" height="11.12"/><circle class="cls-5" cx="11.71" cy="7.46" r="1.6"/><circle class="cls-5" cx="23.93" cy="7.6" r="1.6" transform="translate(-0.91 3.92) rotate(-9.19)"/><rect class="cls-4" x="16.69" y="14.58" width="2.26" height="7.64"/><circle class="cls-5" cx="17.82" cy="10.93" r="0.96"/><path class="cls-5" d="M6.56,11.35a1,1,0,1,0-1,1A1,1,0,0,0,6.56,11.35Z"/><line class="cls-5" x1="6.32" y1="10.71" x2="10.33" y2="8.27"/><line class="cls-5" x1="13.19" y1="8.08" x2="16.86" y2="10.38"/><line class="cls-5" x1="18.67" y1="10.48" x2="22.49" y2="8.29"/></svg>