<svg xmlns="http://www.w3.org/2000/svg" viewBox="0 0 21 13.59"><title>i_letter--close</title><g id="圖層_2" data-name="圖層 2"><g id="圖層_1-2" data-name="圖層 1"><path d="M20.13,0H.87A.87.87,0,0,0,0,.87V12.72a.87.87,0,0,0,.87.87H20.13a.87.87,0,0,0,.87-.87V.87A.87.87,0,0,0,20.13,0Zm.19,11.66L13.25,6.05l7.07-4.41ZM.87.68H20.13a.18.18,0,0,1,.18.14L10.5,7,.69.82A.18.18,0,0,1,.87.68ZM.68,1.6,7.74,6,.68,11.66ZM20.13,12.9H.87a.18.18,0,0,1-.19-.18v-.18l7.67-6.1,2,1.24a.33.33,0,0,0,.36,0l2-1.24,7.67,6.1v.18A.18.18,0,0,1,20.13,12.9Z" style="fill:#666"/></g></g></svg>