<svg xmlns="http://www.w3.org/2000/svg" viewBox="0 0 19 21.14"><title>i_letter--open</title><g id="圖層_2" data-name="圖層 2"><g id="圖層_1-2" data-name="圖層 1"><rect x="4.56" y="7.83" width="9.88" height="0.78" style="fill:#fb8032"/><rect x="4.56" y="5.48" width="9.88" height="0.78" style="fill:#fb8032"/><path d="M16.72,6.57V3.91A1.54,1.54,0,0,0,15.2,2.35H12.08L9.5,0,6.92,2.35H3.8A1.54,1.54,0,0,0,2.28,3.91V6.57L0,8.61v11a1.55,1.55,0,0,0,1.52,1.57h16A1.55,1.55,0,0,0,19,19.57v-11Zm0,1,1.14,1-1.14,1ZM9.5,1l1.44,1.33H8ZM3,3.91a.72.72,0,0,1,.76-.78H15.2a.83.83,0,0,1,.76.78v6.34l-2.43,2.27H5.47L3,10.33Zm8,11H8L6.31,13.31h6.31ZM2.28,7.59V9.71L1.14,8.61ZM1,20.11a.71.71,0,0,1-.23-.54V9.39l6.08,5.48Zm.91.24,5.32-4.7h4.56l5.32,4.7Zm16.34-5.87v5.09a.71.71,0,0,1-.23.54l-5.85-5.24,6.08-5.48Z" style="fill:#fb8032"/><rect x="4.56" y="10.17" width="9.88" height="0.78" style="fill:#fb8032"/></g></g></svg>