<svg id="圖層_1" data-name="圖層 1" xmlns="http://www.w3.org/2000/svg" viewBox="0 0 23 23"><defs><style>.cls-1{fill:#8e7c66;}.cls-2,.cls-3,.cls-5{fill:none;stroke:#ddd9cc;stroke-miterlimit:10;}.cls-2{stroke-width:1.15px;}.cls-3{stroke-linecap:round;stroke-width:0.86px;}.cls-4{fill:#ddd9cc;}.cls-5{stroke-width:0.44px;}</style></defs><title>i_lottery-period--trendline</title><rect class="cls-1" width="23" height="23" rx="2.56" ry="2.56"/><path class="cls-2" d="M9.06,5.72A.08.08,0,0,0,9,5.64a.07.07,0,0,0-.08.08A.08.08,0,0,0,9,5.8.09.09,0,0,0,9.06,5.72Z"/><path class="cls-2" d="M18.43,5.82a.09.09,0,0,0-.08-.08.08.08,0,0,0-.08.08.07.07,0,0,0,.08.08A.08.08,0,0,0,18.43,5.82Z"/><line class="cls-3" x1="3.42" y1="18.51" x2="19.21" y2="18.51"/><rect class="cls-4" x="3.42" y="11.5" width="1.74" height="5.54"/><rect class="cls-4" x="17.48" y="8.62" width="1.74" height="8.42"/><rect class="cls-4" x="8.11" y="8.51" width="1.74" height="8.52"/><circle class="cls-5" cx="8.98" cy="5.72" r="1.23"/><circle class="cls-5" cx="18.35" cy="5.82" r="1.23" transform="translate(-0.69 3.01) rotate(-9.19)"/><rect class="cls-4" x="12.79" y="11.18" width="1.74" height="5.86"/><circle class="cls-5" cx="13.66" cy="8.38" r="0.74"/><path class="cls-5" d="M5,8.7a.74.74,0,1,0-.74.74A.74.74,0,0,0,5,8.7Z"/><line class="cls-5" x1="4.85" y1="8.21" x2="7.92" y2="6.34"/><line class="cls-5" x1="10.11" y1="6.2" x2="12.92" y2="7.96"/><line class="cls-5" x1="14.31" y1="8.03" x2="17.24" y2="6.35"/></svg>