<svg id="圖層_1" data-name="圖層 1" xmlns="http://www.w3.org/2000/svg" viewBox="0 0 23 23"><defs><style>.cls-1{fill:#8e7c66;}.cls-2,.cls-3{fill:#ddd9cc;}.cls-3{stroke:#8e7c66;stroke-linecap:round;stroke-linejoin:round;stroke-width:0.51px;}</style></defs><title>i_official-website</title><rect class="cls-1" width="23" height="23" rx="2.56" ry="2.56"/><path class="cls-2" d="M11.5,3.57a7.93,7.93,0,1,0,7.93,7.93A7.94,7.94,0,0,0,11.5,3.57Zm-1.27.88A9.43,9.43,0,0,0,8,7.42H5.61A7.16,7.16,0,0,1,10.23,4.45ZM5.15,8.19H7.66a9.32,9.32,0,0,0-.59,2.93H4.34A7.07,7.07,0,0,1,5.15,8.19Zm-.81,3.69H7.07a9.32,9.32,0,0,0,.59,2.93H5.15A7.07,7.07,0,0,1,4.34,11.88Zm1.27,3.7H8a9.43,9.43,0,0,0,2.25,3A7.16,7.16,0,0,1,5.61,15.58Zm5.51,2.72a8.78,8.78,0,0,1-2.29-2.72h2.29Zm0-3.49H8.48a8.56,8.56,0,0,1-.65-2.93h3.29Zm0-3.69H7.83a8.56,8.56,0,0,1,.65-2.93h2.64Zm0-3.7H8.83A8.78,8.78,0,0,1,11.12,4.7Zm.76-2.72a8.78,8.78,0,0,1,2.29,2.72H11.88Zm0,3.49h2.64a8.56,8.56,0,0,1,.65,2.93H11.88Zm0,3.69h3.29a8.56,8.56,0,0,1-.65,2.93H11.88Zm0,6.42V15.58h2.29A8.78,8.78,0,0,1,11.88,18.3Zm.89.25a9.43,9.43,0,0,0,2.25-3h2.37A7.16,7.16,0,0,1,12.77,18.55Zm5.08-3.74H15.34a9.32,9.32,0,0,0,.59-2.93h2.73A7.07,7.07,0,0,1,17.85,14.81Zm.81-3.69H15.93a9.32,9.32,0,0,0-.59-2.93h2.51A7.07,7.07,0,0,1,18.66,11.12ZM15,7.42a9.43,9.43,0,0,0-2.25-3,7.16,7.16,0,0,1,4.62,3Z"/><polygon class="cls-3" points="20.46 18.36 17.48 14.81 18.55 13.94 13.52 12.09 14.42 17.29 15.49 16.43 18.47 19.98 20.46 18.36"/></svg>