<svg id="圖層_1" data-name="圖層 1" xmlns="http://www.w3.org/2000/svg" viewBox="0 0 23 23"><defs><style>.cls-1{fill:#8e7c66;}.cls-2{fill:#ddd9cc;}</style></defs><title>i_lottery-period--history</title><rect class="cls-1" width="23" height="23" rx="2.56" ry="2.56"/><path class="cls-2" d="M10.53,18.78H6.16a1.41,1.41,0,0,1-1.41-1.41V5.24a1.41,1.41,0,0,1,1.41-1.4h5.09v2a2.56,2.56,0,0,0,2.56,2.56h2v3.05a5.61,5.61,0,0,1,1.16.28V7.51h-.1l-.07-.07-2.3-2.3L12.07,2.68H6.16A2.57,2.57,0,0,0,3.59,5.24V17.37a2.58,2.58,0,0,0,2.57,2.57h5.1A5.81,5.81,0,0,1,10.53,18.78ZM12.4,4.66,13.71,6,15,7.27H13.81a1.41,1.41,0,0,1-1.41-1.4Z"/><path class="cls-2" d="M15.35,11.93a4.75,4.75,0,1,0,4.75,4.75A4.75,4.75,0,0,0,15.35,11.93Zm.28,8.79v-.58h-.56v.58A4.06,4.06,0,0,1,11.31,17h.58V16.4h-.58a4.07,4.07,0,0,1,3.76-3.77v.59h.56v-.59A4.07,4.07,0,0,1,19.4,16.4h-.59V17h.59A4.06,4.06,0,0,1,15.63,20.72Zm.08-4.13V14.1a.36.36,0,0,0-.72,0v2.64a.36.36,0,0,0,.15.29h0l1.67,1.52A.36.36,0,0,0,17.3,18Z"/></svg>