<?xml version="1.0" encoding="utf-8"?>
<!-- Generator: Adobe Illustrator 22.1.0, SVG Export Plug-In . SVG Version: 6.00 Build 0)  -->
<svg version="1.1" id="圖層_1" xmlns="http://www.w3.org/2000/svg" xmlns:xlink="http://www.w3.org/1999/xlink" x="0px" y="0px"
	 viewBox="0 0 45 45" style="enable-background:new 0 0 45 45;" xml:space="preserve">
<style type="text/css">
	.st0{fill:url(#SVGID_1_);}
	.st1{fill:#FFD700;}
	.st2{opacity:0.7;fill:url(#SVGID_2_);enable-background:new    ;}
	.st3{opacity:0.2;fill:url(#SVGID_3_);enable-background:new    ;}
	.st4{opacity:0.7;fill:url(#SVGID_4_);enable-background:new    ;}
</style>
<title>i_menu--lotteryCn</title>
<linearGradient id="SVGID_1_" gradientUnits="userSpaceOnUse" x1="0.6897" y1="0.9499" x2="44.3103" y2="12.0501" gradientTransform="matrix(1 0 0 1 0 16)">
	<stop  offset="0" style="stop-color:#E62C14"/>
	<stop  offset="1" style="stop-color:#AE2C14"/>
</linearGradient>
<circle class="st0" cx="22.5" cy="22.5" r="22.5"/>
<path class="st1" d="M22.5,20.7l-0.9,1l-1.2-0.5l0.7,1.1l-0.9,1l1.3-0.3l0.7,1.1l0.1-1.3l1.3-0.3L22.5,22V20.7z M27.5,17.9h-1.3
	l-0.4-1.3l-0.4,1.3H24l1.1,0.8L24.7,20l1.1-0.8l1.1,0.8l-0.4-1.3L27.5,17.9z M25.3,13l0.2,1.3l0.6-1.2l1.3,0.2l-0.9-0.9l0.6-1.2
	l-1.2,0.6L25,10.9l0.2,1.3L24,12.8L25.3,13z M22.6,6.9l-0.9,1l-1.2-0.5l0.7,1.1l-0.9,1l1.3-0.3l0.7,1.1L22.4,9l1.3-0.3l-1.2-0.5
	L22.6,6.9z M13.3,12.8L12,8.9l-1.3,3.9h-4l3.3,2.4L8.8,19l3.3-2.4l3.3,2.4L14,15.2l3.3-2.4L13.3,12.8z"/>
<linearGradient id="SVGID_2_" gradientUnits="userSpaceOnUse" x1="22.6" y1="-20.15" x2="22.6" y2="1.06" gradientTransform="matrix(1 0 0 1 0 16)">
	<stop  offset="0" style="stop-color:#FFFFFF"/>
	<stop  offset="0.11" style="stop-color:#FFFFFF;stop-opacity:0.98"/>
	<stop  offset="0.24" style="stop-color:#FFFFFF;stop-opacity:0.93"/>
	<stop  offset="0.37" style="stop-color:#FFFFFF;stop-opacity:0.84"/>
	<stop  offset="0.5" style="stop-color:#FFFFFF;stop-opacity:0.72"/>
	<stop  offset="0.64" style="stop-color:#FFFFFF;stop-opacity:0.56"/>
	<stop  offset="0.78" style="stop-color:#FFFFFF;stop-opacity:0.37"/>
	<stop  offset="0.92" style="stop-color:#FFFFFF;stop-opacity:0.15"/>
	<stop  offset="1" style="stop-color:#FFFFFF;stop-opacity:0"/>
</linearGradient>
<ellipse class="st2" cx="22.6" cy="12" rx="13.6" ry="9.9"/>
<radialGradient id="SVGID_3_" cx="21.5108" cy="31.9728" r="23.5457" gradientTransform="matrix(5.059297e-02 0.9987 -1.0287 5.211075e-02 54.0413 -5.9093)" gradientUnits="userSpaceOnUse">
	<stop  offset="0.67" style="stop-color:#000000;stop-opacity:0"/>
	<stop  offset="0.7" style="stop-color:#000000;stop-opacity:6.000000e-02"/>
	<stop  offset="0.77" style="stop-color:#000000;stop-opacity:0.22"/>
	<stop  offset="0.85" style="stop-color:#000000;stop-opacity:0.48"/>
	<stop  offset="0.9399" style="stop-color:#000000;stop-opacity:0.81"/>
	<stop  offset="1" style="stop-color:#000000"/>
</radialGradient>
<path class="st3" d="M44.8,19.4C43.4,11.8,38,1.5,24,0.1C12.3-0.6,2,7.8,0.2,19.4C-1.5,31.7,7.1,43,19.4,44.7s23.7-6.9,25.4-19.2
	C45.1,23.5,45.1,21.4,44.8,19.4z"/>
<radialGradient id="SVGID_4_" cx="2372.8154" cy="81.2132" r="14.324" gradientTransform="matrix(-1.797590e-02 -0.9998 1.5597 -2.804241e-02 -61.2206 2418.417)" gradientUnits="userSpaceOnUse">
	<stop  offset="0" style="stop-color:#FFFFFF"/>
	<stop  offset="9.000000e-02" style="stop-color:#FFFFFF;stop-opacity:0.83"/>
	<stop  offset="0.25" style="stop-color:#FFFFFF;stop-opacity:0.54"/>
	<stop  offset="0.4" style="stop-color:#FFFFFF;stop-opacity:0.31"/>
	<stop  offset="0.52" style="stop-color:#FFFFFF;stop-opacity:0.14"/>
	<stop  offset="0.62" style="stop-color:#FFFFFF;stop-opacity:4.000000e-02"/>
	<stop  offset="0.68" style="stop-color:#FFFFFF;stop-opacity:0"/>
</radialGradient>
<ellipse class="st4" cx="22.6" cy="33" rx="13.6" ry="9.9"/>
</svg>
