<svg xmlns="http://www.w3.org/2000/svg" viewBox="0 0 28.81 27.8"><title>news</title><g id="圖層_2" data-name="圖層 2"><g id="圖層_1-2" data-name="圖層 1"><path d="M21.75,23.75V.4H.4V23.75A3.65,3.65,0,0,0,4.06,27.4H25.42A3.66,3.66,0,0,1,21.75,23.75Z" style="fill:none;stroke:#344154;stroke-linecap:round;stroke-linejoin:round;stroke-width:0.801029567467347px"/><path d="M21.75,11.64h6.66V24.48a2.92,2.92,0,0,1-2.93,2.92" style="fill:none;stroke:#344154;stroke-linecap:round;stroke-linejoin:round;stroke-width:0.801029567467347px"/><rect x="0.4" y="0.4" width="8.15" height="11.24" style="fill:none;stroke:#344154;stroke-linecap:round;stroke-linejoin:round;stroke-width:0.801029567467347px"/><line x1="11.11" y1="11.64" x2="19.2" y2="11.64" style="fill:none;stroke:#344154;stroke-linecap:round;stroke-linejoin:round;stroke-width:0.801029567467347px"/><line x1="11.11" y1="8.44" x2="19.2" y2="8.44" style="fill:none;stroke:#344154;stroke-linecap:round;stroke-linejoin:round;stroke-width:0.801029567467347px"/><line x1="11.11" y1="5.25" x2="19.2" y2="5.25" style="fill:none;stroke:#344154;stroke-linecap:round;stroke-linejoin:round;stroke-width:0.801029567467347px"/><line x1="2.96" y1="14.83" x2="19.19" y2="14.83" style="fill:none;stroke:#344154;stroke-linecap:round;stroke-linejoin:round;stroke-width:0.801029567467347px"/><path d="M6.11,21.68H5.5L3.81,18.49h0v3.18H3.19V17.35H3.8l1.68,3.19h0V17.35h.61Z" style="fill:#344154"/><path d="M9.63,19.67H8.16v1.56H9.9v.45H7.55V17.35H9.88v.47H8.16v1.39H9.63Z" style="fill:#344154"/><path d="M14,20.43h0l.57-3.08h.63l-.89,4.33h-.56L13,18.61h0l-.76,3.07h-.56l-.89-4.33h.64L12,20.43h0l.74-3.08h.52Z" style="fill:#344154"/><path d="M18.35,20.6a.67.67,0,0,0-.17-.49,1.37,1.37,0,0,0-.6-.35,2.59,2.59,0,0,1-.94-.49,1,1,0,0,1-.33-.8,1.07,1.07,0,0,1,.37-.85,1.32,1.32,0,0,1,.93-.33,1.3,1.3,0,0,1,1,.37,1.22,1.22,0,0,1,.35.92v0h-.58a.91.91,0,0,0-.2-.61.68.68,0,0,0-.54-.24.65.65,0,0,0-.5.2.76.76,0,0,0-.18.51.67.67,0,0,0,.19.47,1.78,1.78,0,0,0,.64.34,2.27,2.27,0,0,1,.9.51,1.09,1.09,0,0,1,.31.81,1.06,1.06,0,0,1-.36.84,1.45,1.45,0,0,1-1,.32,1.56,1.56,0,0,1-1-.34,1.13,1.13,0,0,1-.41-1h.59a.86.86,0,0,0,.23.65.81.81,0,0,0,.58.22.69.69,0,0,0,.53-.19A.65.65,0,0,0,18.35,20.6Z" style="fill:#344154"/><rect x="1.28" y="4.06" width="6.39" height="3.93" transform="translate(10.49 1.54) rotate(90)" style="fill:none;stroke:#344154;stroke-linecap:round;stroke-linejoin:round;stroke-width:0.801029567467347px"/></g></g></svg>