<svg id="圖層_1" data-name="圖層 1" xmlns="http://www.w3.org/2000/svg" viewBox="0 0 30 30"><defs><style>.cls-1{fill:#8e7c66;}.cls-2{fill:#ddd9cc;}</style></defs><title>i_playinfo</title><rect class="cls-1" width="30" height="30" rx="3.29" ry="3.29"/><path class="cls-2" d="M10.74,6.89A7.07,7.07,0,0,1,15,5.66,7.24,7.24,0,0,1,19.51,7a4.31,4.31,0,0,1,1.84,3.48,4,4,0,0,1-.68,2.24,9.41,9.41,0,0,1-2.21,2.1,8.38,8.38,0,0,0-1.12.92,1.08,1.08,0,0,0-.23.42A3.9,3.9,0,0,0,17,17.3a1.07,1.07,0,0,1-1.07,1H14a1.07,1.07,0,0,1-1.08-1v-.54a5,5,0,0,1,.43-2.15,4.87,4.87,0,0,1,1-1.4A14.81,14.81,0,0,1,15.9,12,5.63,5.63,0,0,0,17,11a.74.74,0,0,0,.13-.42,1.15,1.15,0,0,0-.52-.91,2.68,2.68,0,0,0-3-.05,2.33,2.33,0,0,0-.74,1.46,1.09,1.09,0,0,1-1.16.87l-2.07-.21a1.07,1.07,0,0,1-.95-1.2A5.28,5.28,0,0,1,10.74,6.89Z"/><path class="cls-2" d="M12.88,23.6l0-2.12a1,1,0,0,1,1.06-1.06H16a1.08,1.08,0,0,1,1.06,1.13V23.6A1,1,0,0,1,16,24.66H13.92A1,1,0,0,1,12.88,23.6Z"/></svg>