<svg xmlns="http://www.w3.org/2000/svg" viewBox="0 0 28 28"><title>i_question</title><g id="圖層_2" data-name="圖層 2"><g id="圖層_1-2" data-name="圖層 1"><circle cx="14" cy="14" r="14" transform="translate(-4.5 21.06) rotate(-65.88)" style="fill:#8e7c66"/><path d="M10.25,6.72A6.19,6.19,0,0,1,14,5.63,6.33,6.33,0,0,1,18,6.79,3.83,3.83,0,0,1,19.6,9.86a3.57,3.57,0,0,1-.6,2,8.26,8.26,0,0,1-2,1.85,6.77,6.77,0,0,0-1,.82.91.91,0,0,0-.2.36,3.8,3.8,0,0,0-.11,1,.94.94,0,0,1-.94.91h-1.7a1,1,0,0,1-.95-.9v-.48a4.49,4.49,0,0,1,.38-1.89,4.63,4.63,0,0,1,.88-1.23,15.13,15.13,0,0,1,1.38-1.12,4.33,4.33,0,0,0,1-.86.62.62,0,0,0,.12-.36,1,1,0,0,0-.47-.8,2.35,2.35,0,0,0-2.67-.05,2,2,0,0,0-.65,1.29,1,1,0,0,1-1,.76L9.26,11a1,1,0,0,1-.65-.36.94.94,0,0,1-.2-.7A4.6,4.6,0,0,1,10.25,6.72Z" style="fill:#fff"/><path d="M12.13,21.43l0-1.87a.91.91,0,0,1,.94-.93h1.86a1,1,0,0,1,.94,1v1.8a.92.92,0,0,1-.95.94H13.05A.89.89,0,0,1,12.13,21.43Z" style="fill:#fff"/></g></g></svg>