<?xml version="1.0" encoding="utf-8"?>
<!-- Generator: Adobe Illustrator 21.0.2, SVG Export Plug-In . SVG Version: 6.00 Build 0)  -->
<svg version="1.1" id="圖層_1" xmlns="http://www.w3.org/2000/svg" xmlns:xlink="http://www.w3.org/1999/xlink" x="0px" y="0px"
	 viewBox="0 0 20 14" style="enable-background:new 0 0 20 14;" xml:space="preserve">
<style type="text/css">
	.st0{fill:#FFFFFF;}
	.st1{fill-rule:evenodd;clip-rule:evenodd;fill:#FFFFFF;}
</style>
<g>
	<g>
		<path class="st0" d="M19.8,2.8l-4.7-2.5c0,0.1,0,0.3,0,0.4c0,0.3,0,0.5,0,0.8c-0.1,0-0.2,0-0.2,0c-1.8,0-3.4,0.6-4.7,1.5
			C9.3,3.8,8.6,4.6,7.9,5.4C7.4,6.1,6.8,6.9,6.2,7.7c-0.5,0.6-1,1.1-1.6,1.6C3.9,9.8,3,10.1,1.9,10.1c-0.6,0-1.2,0-1.7,0v2.4
			c0.6,0,1.2,0,1.7,0c1.6,0,3.1-0.3,4.3-1.1c0.8-0.5,1.5-1,2-1.7C9,8.9,9.7,8,10.4,7.1c0.5-0.6,1-1.3,1.6-1.9c0.4-0.4,0.9-0.8,1.6-1
			C14,4.1,14.5,4,15.1,4c0,0.4,0,0.8,0,1.2L19.8,2.8z"/>
		<path class="st0" d="M19.8,11.3l-4.7-2.4c0,0.3,0,0.7,0,1v0.2c-0.1,0-0.2,0-0.2,0c-0.9,0-1.7-0.3-2.3-0.8c-0.6-0.4-1-1-1.5-1.5
			c0,0-0.1-0.1-0.1-0.2c0,0,0,0-0.1,0.1c-0.6,0.7-1.1,1.5-1.7,2.2c0,0,0,0.1,0,0.2c0.3,0.3,0.6,0.6,1,0.8c1.1,0.8,2.3,1.4,3.9,1.5
			c0.4,0,0.7,0.1,1.1,0.1c0,0.1,0,0.1,0,0.2c0,0.3,0,0.7,0,1L19.8,11.3z"/>
		<path class="st1" d="M7,3.1C5.8,2.2,4.3,1.7,2.5,1.6c-0.8,0-1.5,0-2.3,0V4C0.8,4,1.4,4,2,4c1,0,1.9,0.3,2.7,0.8
			c0.6,0.4,1.1,0.9,1.5,1.4c0,0.1,0.1,0.1,0.1,0.2c0.6-0.8,1.2-1.6,1.8-2.4C7.7,3.8,7.4,3.4,7,3.1z"/>
	</g>
</g>
</svg>
