<?xml version="1.0" encoding="utf-8"?>
<!-- Generator: Adobe Illustrator 21.1.0, SVG Export Plug-In . SVG Version: 6.00 Build 0)  -->
<svg version="1.1" id="圖層_1" xmlns="http://www.w3.org/2000/svg" xmlns:xlink="http://www.w3.org/1999/xlink" x="0px" y="0px"
	 viewBox="0 0 28 28" style="enable-background:new 0 0 28 28;" xml:space="preserve">
<style type="text/css">
	.st0{clip-path:url(#SVGID_2_);fill:#bbb598;}
	.st1{fill:#bbb598;}
</style>
<g>
	<g>
		<defs>
			<rect id="SVGID_1_" x="0.5" y="2.9" width="27" height="22.1"/>
		</defs>
		<clipPath id="SVGID_2_">
			<use xlink:href="#SVGID_1_"  style="overflow:visible;"/>
		</clipPath>
		<rect x="0.5" y="23.8" class="st0" width="27" height="1"/>
	</g>
	<path class="st1" d="M3.9,21L8,16.9c0.4-0.4,0.5-0.8,0.4-1.3l1-1c2.2,1.6,5.2,1.4,7.2-0.5c2.1-2.1,2.1-5.6,0-7.8
		c-2.1-2.1-5.6-2.1-7.8,0c-2,2-2.1,5-0.5,7.2l-1,1c-0.5-0.1-0.9,0-1.3,0.4l-4.1,4.1c-0.6,0.6-0.6,1.5,0,2C2.5,21.5,3.4,21.5,3.9,21
		L3.9,21z M9.9,7.4c1.5-1.5,4-1.5,5.6,0c1.5,1.5,1.5,4,0,5.6c-1.5,1.5-4,1.5-5.6,0C8.4,11.5,8.4,9,9.9,7.4L9.9,7.4z M9.9,7.4"/>
	<rect x="23.4" y="2.9" class="st1" width="2.1" height="20.3"/>
	<path class="st1" d="M21.2,6.2h-2.1v2.4c0.1,0.5,0.2,1.1,0.2,1.6c0,0.6-0.1,1.1-0.2,1.6v11.2h2.1V6.2z M21.2,6.2"/>
	<path class="st1" d="M14.6,23.2h2.1v-7.6c-0.6,0.5-1.3,0.8-2.1,1.1V23.2z M14.6,23.2"/>
	<path class="st1" d="M9.8,23.2h2.1v-6.3c-0.4,0-0.7-0.1-1.1-0.2h-1V23.2z M9.8,23.2"/>
	<path class="st1" d="M5.1,23.2h2.1v-3.3H6.7l-1.6,1.6V23.2z M5.1,23.2"/>
</g>
</svg>
