<svg xmlns="http://www.w3.org/2000/svg" xmlns:xlink="http://www.w3.org/1999/xlink" viewBox="0 0 45.82 45.82"><defs><linearGradient id="linear-gradient" y1="22.91" x2="45.82" y2="22.91" gradientUnits="userSpaceOnUse"><stop offset="0" stop-color="#fff"/><stop offset="1" stop-color="#d1d3d4"/></linearGradient><linearGradient id="linear-gradient-2" x1="1.15" y1="22.91" x2="44.68" y2="22.91" gradientUnits="userSpaceOnUse"><stop offset="0" stop-color="#d1d3d4"/><stop offset="1" stop-color="#fff"/></linearGradient><linearGradient id="未命名漸層_34" x1="5.73" y1="22.91" x2="40.1" y2="22.91" gradientUnits="userSpaceOnUse"><stop offset="0" stop-color="#666"/><stop offset="1" stop-color="#333"/></linearGradient><linearGradient id="未命名漸層_49" x1="8.59" y1="22.91" x2="37.23" y2="22.91" gradientUnits="userSpaceOnUse"><stop offset="0" stop-color="#333"/><stop offset="1" stop-color="#4d4d4d"/></linearGradient></defs><title>資產 19</title><g style="isolation:isolate"><g id="圖層_2" data-name="圖層 2"><g id="menu"><g style="mix-blend-mode:multiply"><circle cx="22.91" cy="22.91" r="22.63" style="fill:#808285"/></g><circle cx="22.91" cy="22.91" r="22.91" style="fill:url(#linear-gradient)"/><circle cx="22.91" cy="22.91" r="21.77" style="fill:url(#linear-gradient-2)"/><g style="mix-blend-mode:multiply"><circle cx="27.61" cy="27.61" r="17.18" style="fill:#fff;opacity:0"/><circle cx="27.32" cy="27.32" r="17.17" style="fill:#f7f7f7;opacity:0.0625"/><circle cx="27.03" cy="27.03" r="17.15" style="fill:#efeff0;opacity:0.125"/><circle cx="26.73" cy="26.73" r="17.13" style="fill:#e7e8e8;opacity:0.1875"/><circle cx="26.44" cy="26.44" r="17.11" style="fill:#dfe0e1;opacity:0.25"/><circle cx="26.14" cy="26.14" r="17.09" style="fill:#d7d8d9;opacity:0.3125"/><circle cx="25.85" cy="25.85" r="17.08" style="fill:#cfd0d1;opacity:0.375"/><circle cx="25.56" cy="25.56" r="17.06" style="fill:#c7c8ca;opacity:0.4375"/><circle cx="25.26" cy="25.26" r="17.04" style="fill:#c0c1c2;opacity:0.5"/><circle cx="24.97" cy="24.97" r="17.02" style="fill:#b8b9ba;opacity:0.5625"/><circle cx="24.67" cy="24.67" r="17.01" style="fill:#b0b1b3;opacity:0.625"/><circle cx="24.38" cy="24.38" r="16.99" style="fill:#a8a9ab;opacity:0.6875"/><circle cx="24.09" cy="24.09" r="16.97" style="fill:#a0a1a4;opacity:0.75"/><circle cx="23.79" cy="23.79" r="16.95" style="fill:#98999c;opacity:0.8125"/><circle cx="23.5" cy="23.5" r="16.93" style="fill:#909294;opacity:0.875"/><circle cx="23.21" cy="23.21" r="16.92" style="fill:#888a8d;opacity:0.9375"/><circle cx="22.91" cy="22.91" r="16.9" style="fill:#808285"/></g><circle cx="22.91" cy="22.91" r="17.18" style="fill:url(#未命名漸層_34)"/><circle cx="22.91" cy="22.91" r="14.32" style="fill:url(#未命名漸層_49)"/><g style="opacity:0.8;mix-blend-mode:multiply"><path d="M27.54,20.48H18.83a1.24,1.24,0,0,0-.73.25l9.44,6.12Z" style="fill:#a7a9ac"/><path d="M20.59,20.42a2,2,0,0,0,0-4,2,2,0,1,0,0,4Z" style="fill:#a7a9ac"/><path d="M17,22.72v5.62a1.29,1.29,0,0,0,1.27,1.32H27v-.85l-9.91-6.42A1.14,1.14,0,0,0,17,22.72Z" style="fill:#a7a9ac"/><polygon points="30.8 21.02 28.02 22.83 28.02 26.33 30.8 28.08 31.52 28.08 31.52 21.02 30.8 21.02" style="fill:#a7a9ac"/><path d="M25.42,20.42a2,2,0,0,0,0-4,2,2,0,0,0,0,4Z" style="fill:#a7a9ac"/><rect x="15.63" y="23.15" width="0.96" height="4.47" rx="0.24" ry="0.24" style="fill:#a7a9ac"/><polygon points="28.57 27.77 17.76 20.9 14.03 18.53 13.52 19.31 17.22 21.66 28.57 28.88 32.62 31.45 33.13 30.68 28.57 27.77" style="fill:#a7a9ac"/></g><path d="M27.35,19.76h-8.7a1.31,1.31,0,0,0-.74.25l9.44,6.12Z" style="fill:#fff"/><path d="M20.4,19.72a2,2,0,1,0,0-4,2,2,0,0,0,0,4Z" style="fill:#fff"/><path d="M17.17,22.21v5.61a1.3,1.3,0,0,0,1.27,1.33h8.7V28.3l-9.91-6.43A1.28,1.28,0,0,0,17.17,22.21Z" style="fill:#fff"/><polygon points="30.61 20.3 27.83 22.12 27.83 25.62 30.61 27.36 31.34 27.36 31.34 20.3 30.61 20.3" style="fill:#fff"/><path d="M25.23,19.72a2,2,0,0,0,0-4,2,2,0,0,0,0,4Z" style="fill:#fff"/><rect x="15.78" y="22.63" width="0.96" height="4.47" rx="0.24" ry="0.24" style="fill:#fff"/><polygon points="28.57 27.44 17.76 20.45 14.03 18.04 13.52 18.83 17.22 21.23 28.57 28.57 32.62 31.19 33.13 30.4 28.57 27.44" style="fill:#fff"/></g></g></g></svg>