<svg xmlns="http://www.w3.org/2000/svg" xmlns:xlink="http://www.w3.org/1999/xlink" viewBox="0 0 46 46"><defs><linearGradient id="linear-gradient" y1="23" x2="46" y2="23" gradientUnits="userSpaceOnUse"><stop offset="0" stop-color="#fff"/><stop offset="1" stop-color="#d1d3d4"/></linearGradient><linearGradient id="linear-gradient-2" x1="1.15" y1="23" x2="44.85" y2="23" gradientUnits="userSpaceOnUse"><stop offset="0" stop-color="#d1d3d4"/><stop offset="1" stop-color="#fff"/></linearGradient><linearGradient id="linear-gradient-3" x1="5.75" y1="23" x2="40.25" y2="23" gradientUnits="userSpaceOnUse"><stop offset="0" stop-color="#f67950"/><stop offset="1" stop-color="#f15a29"/></linearGradient><linearGradient id="linear-gradient-4" x1="8.63" y1="23" x2="37.38" y2="23" gradientUnits="userSpaceOnUse"><stop offset="0" stop-color="#f15a29"/><stop offset="1" stop-color="#f67950"/></linearGradient></defs><title>資產 1</title><g style="isolation:isolate"><g id="圖層_2" data-name="圖層 2"><g id="圖層_1-2" data-name="圖層 1"><circle cx="23" cy="23" r="23" style="fill:url(#linear-gradient)"/><circle cx="23" cy="23" r="21.85" style="fill:url(#linear-gradient-2)"/><g style="mix-blend-mode:multiply"><circle cx="27.72" cy="27.72" r="17.25" style="fill:#fff;opacity:0"/><circle cx="27.42" cy="27.42" r="17.23" style="fill:#f7f7f7;opacity:0.0625"/><circle cx="27.13" cy="27.13" r="17.21" style="fill:#efeff0;opacity:0.125"/><circle cx="26.83" cy="26.83" r="17.2" style="fill:#e7e8e8;opacity:0.1875"/><circle cx="26.54" cy="26.54" r="17.18" style="fill:#dfe0e1;opacity:0.25"/><circle cx="26.24" cy="26.24" r="17.16" style="fill:#d7d8d9;opacity:0.3125"/><circle cx="25.95" cy="25.95" r="17.14" style="fill:#cfd0d1;opacity:0.375"/><circle cx="25.65" cy="25.65" r="17.12" style="fill:#c7c8ca;opacity:0.4375"/><circle cx="25.36" cy="25.36" r="17.11" style="fill:#c0c1c2;opacity:0.5"/><circle cx="25.06" cy="25.06" r="17.09" style="fill:#b8b9ba;opacity:0.5625"/><circle cx="24.77" cy="24.77" r="17.07" style="fill:#b0b1b3;opacity:0.625"/><circle cx="24.47" cy="24.47" r="17.05" style="fill:#a8a9ab;opacity:0.6875"/><circle cx="24.18" cy="24.18" r="17.03" style="fill:#a0a1a4;opacity:0.75"/><circle cx="23.88" cy="23.88" r="17.02" style="fill:#98999c;opacity:0.8125"/><circle cx="23.59" cy="23.59" r="17" style="fill:#909294;opacity:0.875"/><circle cx="23.29" cy="23.29" r="16.98" style="fill:#888a8d;opacity:0.9375"/><circle cx="23" cy="23" r="16.96" style="fill:#808285"/></g><circle cx="23" cy="23" r="17.25" style="fill:url(#linear-gradient-3)"/><circle cx="23" cy="23" r="14.37" style="fill:url(#linear-gradient-4)"/><path d="M20.26,29.33a.76.76,0,0,1-.75-.78v-11a.76.76,0,0,1,.75-.78.8.8,0,0,1,.4.11l9.53,5.5a.76.76,0,0,1,0,1.33l-9.53,5.5a.8.8,0,0,1-.4.11Z" style="fill:#a7a9ac;opacity:0.8;mix-blend-mode:multiply"/><path d="M19.61,28.68a.76.76,0,0,1-.75-.78v-11a.76.76,0,0,1,.75-.78.8.8,0,0,1,.4.11l9.52,5.5a.75.75,0,0,1,0,1.33L20,28.57a.8.8,0,0,1-.4.11Z" style="fill:#fff"/></g></g></g></svg>