<svg xmlns="http://www.w3.org/2000/svg" xmlns:xlink="http://www.w3.org/1999/xlink" viewBox="0 0 45.82 45.82"><defs><linearGradient id="linear-gradient" y1="22.91" x2="45.82" y2="22.91" gradientUnits="userSpaceOnUse"><stop offset="0" stop-color="#fff"/><stop offset="1" stop-color="#d1d3d4"/></linearGradient><linearGradient id="linear-gradient-2" x1="1.15" y1="22.91" x2="44.68" y2="22.91" gradientUnits="userSpaceOnUse"><stop offset="0" stop-color="#d1d3d4"/><stop offset="1" stop-color="#fff"/></linearGradient><linearGradient id="未命名漸層_34" x1="5.73" y1="22.91" x2="40.1" y2="22.91" gradientUnits="userSpaceOnUse"><stop offset="0" stop-color="#666"/><stop offset="1" stop-color="#333"/></linearGradient><linearGradient id="未命名漸層_49" x1="8.59" y1="22.91" x2="37.23" y2="22.91" gradientUnits="userSpaceOnUse"><stop offset="0" stop-color="#333"/><stop offset="1" stop-color="#4d4d4d"/></linearGradient></defs><title>資產 16</title><g style="isolation:isolate"><g id="圖層_2" data-name="圖層 2"><g id="圖層_1-2" data-name="圖層 1"><g style="mix-blend-mode:multiply"><circle cx="22.91" cy="22.91" r="22.63" style="fill:#808285"/></g><circle cx="22.91" cy="22.91" r="22.91" style="fill:url(#linear-gradient)"/><circle cx="22.91" cy="22.91" r="21.77" style="fill:url(#linear-gradient-2)"/><g style="mix-blend-mode:multiply"><circle cx="27.61" cy="27.61" r="17.18" style="fill:#fff;opacity:0"/><circle cx="27.32" cy="27.32" r="17.17" style="fill:#f7f7f7;opacity:0.0625"/><circle cx="27.03" cy="27.03" r="17.15" style="fill:#efeff0;opacity:0.125"/><circle cx="26.73" cy="26.73" r="17.13" style="fill:#e7e8e8;opacity:0.1875"/><circle cx="26.44" cy="26.44" r="17.11" style="fill:#dfe0e1;opacity:0.25"/><circle cx="26.14" cy="26.14" r="17.09" style="fill:#d7d8d9;opacity:0.3125"/><circle cx="25.85" cy="25.85" r="17.08" style="fill:#cfd0d1;opacity:0.375"/><circle cx="25.56" cy="25.56" r="17.06" style="fill:#c7c8ca;opacity:0.4375"/><circle cx="25.26" cy="25.26" r="17.04" style="fill:#c0c1c2;opacity:0.5"/><circle cx="24.97" cy="24.97" r="17.02" style="fill:#b8b9ba;opacity:0.5625"/><circle cx="24.67" cy="24.67" r="17.01" style="fill:#b0b1b3;opacity:0.625"/><circle cx="24.38" cy="24.38" r="16.99" style="fill:#a8a9ab;opacity:0.6875"/><circle cx="24.09" cy="24.09" r="16.97" style="fill:#a0a1a4;opacity:0.75"/><circle cx="23.79" cy="23.79" r="16.95" style="fill:#98999c;opacity:0.8125"/><circle cx="23.5" cy="23.5" r="16.93" style="fill:#909294;opacity:0.875"/><circle cx="23.21" cy="23.21" r="16.92" style="fill:#888a8d;opacity:0.9375"/><circle cx="22.91" cy="22.91" r="16.9" style="fill:#808285"/></g><circle cx="22.91" cy="22.91" r="17.18" style="fill:url(#未命名漸層_34)"/><circle cx="22.91" cy="22.91" r="14.32" style="fill:url(#未命名漸層_49)"/><path d="M20.36,29.48a.74.74,0,0,1-.74-.77V17.76a.75.75,0,0,1,.74-.77.8.8,0,0,1,.4.11l9.49,5.48a.75.75,0,0,1,.39.66.76.76,0,0,1-.39.66l-9.49,5.47a.71.71,0,0,1-.4.11Z" style="fill:#a7a9ac;opacity:0.8;mix-blend-mode:multiply"/><path d="M19.71,28.84a.75.75,0,0,1-.74-.77v-11a.75.75,0,0,1,.74-.77.8.8,0,0,1,.4.11l9.49,5.48a.75.75,0,0,1,0,1.32l-9.49,5.47a.72.72,0,0,1-.4.12Z" style="fill:#fff"/></g></g></g></svg>