<?xml version="1.0" encoding="utf-8"?>
<!-- Generator: Adobe Illustrator 22.1.0, SVG Export Plug-In . SVG Version: 6.00 Build 0)  -->
<svg version="1.1" id="圖層_1" xmlns="http://www.w3.org/2000/svg" xmlns:xlink="http://www.w3.org/1999/xlink" x="0px" y="0px"
	 viewBox="0 0 45 45" style="enable-background:new 0 0 45 45;" xml:space="preserve">
<style type="text/css">
	.st0{clip-path:url(#SVGID_2_);}
	.st1{fill:#D80031;}
	.st2{fill:#FFFFFF;}
	.st3{fill:#2530A9;}
	.st4{fill:#F5D028;}
	.st5{fill:none;}
	.st6{fill:url(#SVGID_3_);}
	.st7{opacity:0.7;fill:url(#SVGID_4_);enable-background:new    ;}
	.st8{opacity:0.2;fill:url(#SVGID_5_);enable-background:new    ;}
	.st9{opacity:0.7;fill:url(#SVGID_6_);enable-background:new    ;}
</style>
<title>i_menu--lotteryMas</title>
<g>
	<g>
		<defs>
			<circle id="SVGID_1_" cx="22.5" cy="22.5" r="22.5"/>
		</defs>
		<clipPath id="SVGID_2_">
			<use xlink:href="#SVGID_1_"  style="overflow:visible;"/>
		</clipPath>
		<g class="st0">
			<rect x="-0.5" class="st1" width="87.3" height="3.6"/>
			<rect x="-0.5" y="3.6" class="st2" width="87.3" height="3.6"/>
			<rect x="-0.5" y="7.3" class="st1" width="87.3" height="3.6"/>
			<rect x="-0.5" y="10.9" class="st2" width="87.3" height="3.6"/>
			<rect x="-0.5" y="14.6" class="st1" width="87.3" height="3.6"/>
			<rect x="-0.5" y="18.2" class="st2" width="87.3" height="3.6"/>
			<rect x="-0.5" y="21.8" class="st1" width="87.3" height="3.6"/>
			<rect x="-0.5" y="25.5" class="st2" width="87.3" height="3.6"/>
			<rect x="-0.5" y="29.1" class="st1" width="87.3" height="3.6"/>
			<rect x="-0.5" y="32.8" class="st2" width="87.3" height="3.6"/>
			<rect x="-0.5" y="36.4" class="st1" width="87.3" height="3.6"/>
			<rect x="-0.5" y="40" class="st2" width="87.3" height="3.6"/>
			<rect x="-0.5" y="43.7" class="st1" width="87.3" height="3.6"/>
			<rect x="-0.5" class="st3" width="26.9" height="21.8"/>
			<path class="st4" d="M7.5,12.5c0-2.9,2.4-5.3,5.3-5.3c1,0,1.9,0.3,2.8,0.8c-2.5-2.2-6.3-2-8.5,0.5s-2,6.3,0.5,8.5
				c2.3,2,5.7,2,7.9,0c-0.8,0.5-1.8,0.8-2.8,0.8C9.9,17.8,7.5,15.4,7.5,12.5"/>
			<polygon class="st4" points="19.6,12.5 22.5,11.4 19.4,11.6 21.5,9.4 18.9,10.9 19.8,8 18,10.6 17.6,7.5 17.3,9.7 17.2,10.3 
				17.1,10.6 15.4,8 16.3,10.9 13.6,9.4 15.8,11.6 12.7,11.4 15.6,12.5 12.7,13.6 15.8,13.4 13.6,15.7 16.3,14.1 15.4,17.1 
				17.1,14.5 17.2,14.7 17.3,15.4 17.6,17.6 18,14.5 19.8,17.1 18.9,14.1 21.5,15.7 19.4,13.4 22.5,13.6 			"/>
			<rect x="-0.5" class="st5" width="87.3" height="51"/>
			<rect x="-0.5" class="st5" width="87.3" height="51"/>
		</g>
	</g>
</g>
<linearGradient id="SVGID_3_" gradientUnits="userSpaceOnUse" x1="6.5901" y1="-9.4099" x2="38.4099" y2="22.4099" gradientTransform="matrix(1 0 0 1 0 16)">
	<stop  offset="0" style="stop-color:#FFFFFF;stop-opacity:0"/>
	<stop  offset="1" style="stop-color:#000000;stop-opacity:0.4"/>
</linearGradient>
<circle class="st6" cx="22.5" cy="22.5" r="22.5"/>
<linearGradient id="SVGID_4_" gradientUnits="userSpaceOnUse" x1="22.6" y1="-20.15" x2="22.6" y2="1.06" gradientTransform="matrix(1 0 0 1 0 16)">
	<stop  offset="0" style="stop-color:#FFFFFF"/>
	<stop  offset="0.11" style="stop-color:#FFFFFF;stop-opacity:0.98"/>
	<stop  offset="0.24" style="stop-color:#FFFFFF;stop-opacity:0.93"/>
	<stop  offset="0.37" style="stop-color:#FFFFFF;stop-opacity:0.84"/>
	<stop  offset="0.5" style="stop-color:#FFFFFF;stop-opacity:0.72"/>
	<stop  offset="0.64" style="stop-color:#FFFFFF;stop-opacity:0.56"/>
	<stop  offset="0.78" style="stop-color:#FFFFFF;stop-opacity:0.37"/>
	<stop  offset="0.92" style="stop-color:#FFFFFF;stop-opacity:0.15"/>
	<stop  offset="1" style="stop-color:#FFFFFF;stop-opacity:0"/>
</linearGradient>
<ellipse class="st7" cx="22.6" cy="12" rx="13.6" ry="9.9"/>
<radialGradient id="SVGID_5_" cx="21.5228" cy="31.973" r="23.5453" gradientTransform="matrix(5.059297e-02 0.9987 -1.0287 5.211075e-02 54.0413 -5.9093)" gradientUnits="userSpaceOnUse">
	<stop  offset="0.67" style="stop-color:#000000;stop-opacity:0"/>
	<stop  offset="0.7" style="stop-color:#000000;stop-opacity:6.000000e-02"/>
	<stop  offset="0.77" style="stop-color:#000000;stop-opacity:0.22"/>
	<stop  offset="0.85" style="stop-color:#000000;stop-opacity:0.48"/>
	<stop  offset="0.9399" style="stop-color:#000000;stop-opacity:0.81"/>
	<stop  offset="1" style="stop-color:#000000"/>
</radialGradient>
<path class="st8" d="M44.8,19.4C43.4,11.8,38,1.6,24,0.1C12.3-0.6,2,7.8,0.2,19.4c-1.7,12.3,6.9,23.7,19.2,25.4s23.7-6.9,25.4-19.2
	C45.1,23.5,45.1,21.4,44.8,19.4z"/>
<radialGradient id="SVGID_6_" cx="2372.8154" cy="81.2132" r="14.324" gradientTransform="matrix(-1.797590e-02 -0.9998 1.5597 -2.804241e-02 -61.2206 2418.417)" gradientUnits="userSpaceOnUse">
	<stop  offset="0" style="stop-color:#FFFFFF"/>
	<stop  offset="9.000000e-02" style="stop-color:#FFFFFF;stop-opacity:0.83"/>
	<stop  offset="0.25" style="stop-color:#FFFFFF;stop-opacity:0.54"/>
	<stop  offset="0.4" style="stop-color:#FFFFFF;stop-opacity:0.31"/>
	<stop  offset="0.52" style="stop-color:#FFFFFF;stop-opacity:0.14"/>
	<stop  offset="0.62" style="stop-color:#FFFFFF;stop-opacity:4.000000e-02"/>
	<stop  offset="0.68" style="stop-color:#FFFFFF;stop-opacity:0"/>
</radialGradient>
<ellipse class="st9" cx="22.6" cy="33" rx="13.6" ry="9.9"/>
</svg>
