<svg xmlns="http://www.w3.org/2000/svg" xmlns:xlink="http://www.w3.org/1999/xlink" viewBox="0 0 141 121.21"><defs><linearGradient id="linear-gradient" x1="101.01" y1="97.05" x2="115.97" y2="100.86" gradientUnits="userSpaceOnUse"><stop offset="0" stop-color="#f8b400"/><stop offset="0.34" stop-color="#f9ad06"/><stop offset="0.82" stop-color="#fd9a16"/><stop offset="1" stop-color="#ff911e"/></linearGradient><linearGradient id="linear-gradient-2" x1="-476.08" y1="-801.87" x2="-360.59" y2="-801.87" gradientTransform="translate(266.04 973.31) rotate(14.28)" gradientUnits="userSpaceOnUse"><stop offset="0" stop-color="#c28d00"/><stop offset="0.37" stop-color="#c18605"/><stop offset="0.89" stop-color="#be7313"/><stop offset="1" stop-color="#bd6e17"/></linearGradient><linearGradient id="linear-gradient-3" x1="-0.25" y1="28.95" x2="139.62" y2="64.55" xlink:href="#linear-gradient"/><linearGradient id="未命名漸層_29" x1="34.72" y1="15.85" x2="111.24" y2="92.38" gradientUnits="userSpaceOnUse"><stop offset="0" stop-color="#e62c14"/><stop offset="1" stop-color="#c72c14"/></linearGradient><linearGradient id="linear-gradient-4" x1="7.74" y1="78.34" x2="141" y2="78.34" gradientUnits="userSpaceOnUse"><stop offset="0" stop-color="#f8d04c"/><stop offset="0.28" stop-color="#f9cc45"/><stop offset="0.67" stop-color="#fcc232"/><stop offset="1" stop-color="#ffb71d"/></linearGradient><linearGradient id="linear-gradient-5" x1="-4635.16" y1="933.97" x2="-4633.62" y2="983.62" gradientTransform="matrix(-0.9, 0.07, 0.1, 0.89, -4178.65, -520.19)" gradientUnits="userSpaceOnUse"><stop offset="0" stop-color="#fff"/><stop offset="1" stop-color="#fff" stop-opacity="0"/></linearGradient></defs><title>越南彩_英文</title><g id="圖層_2" data-name="圖層 2"><g id="圖層_1-2" data-name="圖層 1"><path d="M116.35,99.35a99.91,99.91,0,0,0-18.28,9.26c3.82-7.5,7.64-14.77,11.47-21.71Q112.94,92.94,116.35,99.35Z" style="fill:url(#linear-gradient)"/><path d="M7.77,57.75C12,74.35,16.19,90.19,20.4,105.41c32,12.49,64-10.64,96-6.06q-3.41-6.42-6.82-12.45C75.61,76.27,41.69,91.74,7.77,57.75Z" style="fill:url(#linear-gradient-2)"/><path d="M141,58.8C112.93,31.49,53.47,19.68,0,28c8.28,2.53,15.89,8.87,15.89,8.87s-1.56,3.7-5,10.92c37.54-8.2,99.74,12.49,124,35.12Q138,70.59,141,58.8Z" style="fill:url(#linear-gradient-3)"/><path d="M127.1,54.12A54.11,54.11,0,1,0,73,108.23l1.61,0,6.11,13,10.09-16A54.13,54.13,0,0,0,127.1,54.12Z" style="fill:url(#未命名漸層_29)"/><path d="M127.1,54.12q0-1.39-.07-2.75c-27.48-5.89-59.12,7.38-76.47,8.12a48.29,48.29,0,0,1-31-10.14l-.51.9c-.09,1.28-.14,2.57-.14,3.88a54.07,54.07,0,0,0,2.59,16.56l49.78,24.4a126.47,126.47,0,0,1,30.23-8.73,35.94,35.94,0,0,1,14.73.35A53.87,53.87,0,0,0,127.1,54.12Z" style="opacity:0.14"/><path d="M7.74,57.82C52.16,86.43,96.58,30.2,141,58.8q-3,11.78-6,24.06C96.77,69.3,58.59,112.75,20.4,105.41,16.18,90.22,12,74.4,7.74,57.82Z" style="fill:url(#linear-gradient-4)"/><polygon points="71.69 12.19 76.37 26.56 91.48 26.56 79.26 35.45 83.93 49.83 71.69 40.94 59.47 49.83 64.14 35.45 51.91 26.56 67.03 26.56 71.69 12.19" style="fill:gold"/><path d="M32.75,40.38c2.06,18.23,21.74,31.63,44,29.93s38.56-17.87,36.5-36.1S91.47,2.58,69.25,4.28,30.69,22.15,32.75,40.38Z" style="fill:url(#linear-gradient-5)"/><path d="M43.42,76.37,34.16,90.11l-4.93,1.2-1.86-11,4.39-1.07.77,6.06a12,12,0,0,1,.05,1.63l.56-.14q.64-1.19,1.11-1.91L39,77.44Z" style="fill:#42210b"/><path d="M45.41,87.37l-4.61,1.12L44.5,76.11,49.1,75Z" style="fill:#42210b"/><path d="M62.1,74.57l-8.07,2-.6,2,8-2L60.74,79l-8,2-.6,2,8-2-.89,3L47,87,50.69,74.6,63,71.6Z" style="fill:#42210b"/><path d="M76.45,71.07l-4.53,1.1-2.81,9.42-4.43,1.08,2.81-9.42L62.77,74.4l.88-3L77.34,68.1Z" style="fill:#42210b"/><path d="M89.06,76.73l-4.1,1L82,72.3a8.81,8.81,0,0,1-.53-1.46l-.59.3a10.39,10.39,0,0,1-.44,2.33l-1.73,5.79-4,1,3.69-12.38,5.42-1.32L86,70.59A12.33,12.33,0,0,1,86.53,72l.59-.28a11.36,11.36,0,0,1,.47-2.36l1.22-4.08,3.95-1Z" style="fill:#42210b"/><path d="M104.36,73l-4.18,1,1.56-5.22-5.86,1.43-1.56,5.22-4.18,1,3-10a4.1,4.1,0,0,1,1.34-2A6.2,6.2,0,0,1,97,63.32l8-1.94a2.68,2.68,0,0,1,2.12.08q.62.44.28,1.57Zm-2-6.26L103,64.6,97.13,66l-.64,2.14Z" style="fill:#42210b"/><path d="M122.55,68.56l-3.91,1,1.82-6.12a22.6,22.6,0,0,1,1.18-3l-.75.18-5.28,9.67-3.26.79.1-8.41-.71.17a15.53,15.53,0,0,1-.55,2.85l-1.82,6.12-3.93,1,3.69-12.38,6.07-1.48-.11,5.95q0,.49-.24,2l.62-.15q.63-1.45,1-2.19l3.68-6.82,6.07-1.48Z" style="fill:#42210b"/></g></g></svg>