<svg xmlns="http://www.w3.org/2000/svg" xmlns:xlink="http://www.w3.org/1999/xlink" viewBox="0 0 85.03759 66.88895"><defs><linearGradient id="linear-gradient" x1="60.92126" y1="54.48998" x2="69.94149" y2="56.78576" gradientUnits="userSpaceOnUse"><stop offset="0.0034" stop-color="#f9b500"/><stop offset="0.33765" stop-color="#faae06"/><stop offset="0.81965" stop-color="#fd9b16"/><stop offset="1" stop-color="#ff921e"/></linearGradient><linearGradient id="linear-gradient-2" x1="-190.69923" y1="-226.79653" x2="-121.04438" y2="-226.79653" gradientTransform="translate(130.32882 310.30962) rotate(14.27665)" gradientUnits="userSpaceOnUse"><stop offset="0.0034" stop-color="#c38e00"/><stop offset="0.35843" stop-color="#c28705"/><stop offset="0.87034" stop-color="#bf7413"/><stop offset="1" stop-color="#be6e17"/></linearGradient><linearGradient id="linear-gradient-3" x1="-0.15147" y1="13.42025" x2="84.20453" y2="34.89003" xlink:href="#linear-gradient"/><linearGradient id="linear-gradient-4" x1="33.93453" y1="18.71792" x2="44.22186" y2="21.33619" gradientUnits="userSpaceOnUse"><stop offset="0.0034" stop-color="#ec1e79"/><stop offset="1" stop-color="#ae0663"/></linearGradient><linearGradient id="linear-gradient-5" x1="4.68337" y1="34.71286" x2="76.88634" y2="34.71286" gradientUnits="userSpaceOnUse"><stop offset="0.0034" stop-color="#d10272"/><stop offset="1" stop-color="#931668"/></linearGradient><linearGradient id="linear-gradient-6" x1="59.01678" y1="1.92027" x2="76.88634" y2="1.92027" xlink:href="#linear-gradient-5"/><linearGradient id="linear-gradient-7" x1="40.48098" y1="64.00438" x2="45.61453" y2="64.00438" gradientUnits="userSpaceOnUse"><stop offset="0" stop-color="#3fa8f4"/><stop offset="0.43052" stop-color="#2e99e5"/><stop offset="1" stop-color="#1180cb"/></linearGradient><linearGradient id="linear-gradient-8" x1="-113.57077" y1="-253.46208" x2="-177.06707" y2="-228.63017" gradientTransform="translate(130.32882 310.30962) rotate(14.27665)" gradientUnits="userSpaceOnUse"><stop offset="0.0034" stop-color="#f9d14c"/><stop offset="0.27761" stop-color="#facd45"/><stop offset="0.67289" stop-color="#fcc332"/><stop offset="1" stop-color="#ffb81d"/></linearGradient></defs><title>湖北骰寶</title><g id="圖層_2" data-name="圖層 2"><g id="彩種圖"><path d="M70.17246,55.87824a60.24152,60.24152,0,0,0-11.02654,5.58718c2.30511-4.52144,4.61-8.90776,6.91493-13.09461Q68.11691,52.01175,70.17246,55.87824Z" style="fill:url(#linear-gradient)"/><path d="M4.68337,30.78891C7.22357,40.80168,9.764,50.35449,12.3042,59.5349c19.28938,7.53425,38.57888-6.4178,57.86826-3.65666q-2.05587-3.8732-4.11161-7.50743C45.60175,41.955,25.14262,51.28754,4.68337,30.78891Z" style="fill:url(#linear-gradient-2)"/><path d="M85.03759,31.42422C68.10819,14.95146,32.24632,7.83081,0,12.82511c5.17283,2.46876,9.11543,5.18577,9.58172,11.9579,22.64155-4.94308,57.15626,7.51013,71.8114,21.1532Q83.21506,38.53144,85.03759,31.42422Z" style="fill:url(#linear-gradient-3)"/><path d="M34.25,17.47848c4.154-1.77759,8.30783-3.87954,12.46175-5.92516-3.09465,6.17781-6.18917,12.38686-9.2837,18.47032Q35.83876,23.77628,34.25,17.47848Z" style="fill:url(#linear-gradient-4)"/><polygon points="4.683 2.537 19.986 53.037 42.793 53.037 48.297 66.889 56.078 53.037 71.949 53.037 76.886 7.933 4.683 2.537" style="fill:url(#linear-gradient-5)"/><path d="M74.80254,27.064C59.40576,23.37123,40.98616,31.38421,30.488,31.83125c-7.96446.33873-15.09376-3.04211-18.45521-4.95677l2.62908,8.62926L42.71952,53.03686H42.793l.0245.11755.14439.119a76.30106,76.30106,0,0,1,18.22974-5.25234,24.36323,24.36323,0,0,1,11.21481.9377Z" style="opacity:0.14"/><polygon points="59.017 3.841 76.886 3.841 71.4 0 59.017 3.841" style="fill:url(#linear-gradient-6)"/><polygon points="45.615 65.768 43.285 62.241 40.481 63.417 45.615 65.768" style="fill:url(#linear-gradient-7)"/><path d="M23.06225,25.97446,20.239,25.744q.27686-1.43848.54688-2.71631a12.452,12.452,0,0,1,.38574-1.75537q.28271-3.46729,4.54492-2.95947l.2041-2.501,1.9375.1582.32227-3.95312-2.09863-.17139.05957-.72607,2.09863.17139.31543-3.87207,2.66211.2168-.31543,3.87207,2.25879.18457-.05957.72607-2.25879-.18457-.33594,4.11475q1.77393.145,1.64941,1.67773l-.53906,6.61572a1.46874,1.46874,0,0,1-1.55859,1.17188l-1.29-.105a1.204,1.204,0,0,1-1.15039-.82471l-.05957.72607-2.4209-.19775.5791-7.09961a4.39574,4.39574,0,0,0-1.70215,2.94824Q23.57495,23.66123,23.06225,25.97446ZM21.25659,12.265l2.82324.23a12.18252,12.18252,0,0,0,.26074,2.78223,3.08393,3.08393,0,0,0,1.34766,2.38428q-4.36377-.27466-4.11133-2.36572-.167-.90674-.292-2.37939A3.32494,3.32494,0,0,1,21.25659,12.265Zm.75-5.21826,2.82324.23047a6.64189,6.64189,0,0,0,.00879.894,7.50833,7.50833,0,0,0,.252,1.88867A2.89,2.89,0,0,0,26.366,12.3563q-4.14111-.01245-4.18066-2.5332-.04687-.40942-.123-1.47217C22.03881,7.97055,22.02026,7.535,22.00659,7.04673ZM28.22924,17.3812l-.55859,6.85742a.7936.7936,0,0,0,.69238.46289,1.08,1.08,0,0,0,1.05371-.97021l.43359-5.32422c.00781-.75684-.25391-1.21143-.78125-1.36328C28.63842,17.00864,28.35912,17.12192,28.22924,17.3812Zm4.16992,5.61865,1.2041-14.76367,2.74414.22412-.07227.8877a1.1815,1.1815,0,0,1,1.36328-.78271l1.12891.09229q1.856.15088,1.665,2.49072L39.281,25.26694q-.19775,2.41992-1.96582,2.19434a2.44037,2.44037,0,0,1-2.16211-2.36865,1.40609,1.40609,0,0,0,.86133.39551c.32324.02637.50586-.23145.5498-.76758l.38184-4.67969-1.53223-.12451-.34863,4.27588q-.24316,2.98315-3.63281,2.7085a3.95539,3.95539,0,0,0,.60938-1.49316A11.215,11.215,0,0,0,32.39916,22.99985Zm3.42871-8.1665-.34863,4.27588,1.53223.125.34863-4.27637Zm.4082-5.002-.34277,4.19531,1.53223.12451L37.696,10.8436q.03076-1.377-.6875-1.51758A.81868.81868,0,0,0,36.23608,9.83139Z" style="fill:#fff"/><path d="M43.02807,25.73471l.07227-.8877a13.147,13.147,0,0,0,4.66406-.43213l.75-9.19678-4.51855-.36816.07227-.8877,4.51855.36816.42773-5.24365,3.30762.27L50.783,28.23471l-3.30762-.27.25586-3.146Q46.41577,26.01181,43.02807,25.73471ZM60.49487,12.703l2.98535.24316q-.85693,2.53052-2.07422,5.51611-.60937,2.469-4.292,1.84277l-.40723,5.002q-.40869,1.998,1.7041,2.00732l1.21.09863q1.91016.47827,2.94434-3.25293-.17725,5.18262-3.21094,4.53027l-3.22656-.26318q-3.07471-.17065-2.66113-3.22217L54.74291,9.554l3.22656.26318-.83594,10.24561a6.81659,6.81659,0,0,0,1.58887-2.55029Q59.35082,15.77817,60.49487,12.703Z" style="fill:#fff"/><path d="M4.67008,30.83281c26.7889,17.25168,53.57814-16.6603,80.36751.5914q-1.82246,7.10259-3.64447,14.512C58.36332,37.75716,35.33365,63.95952,12.3042,59.5349,9.7595,50.37057,7.21465,40.8324,4.67008,30.83281Z" style="fill:url(#linear-gradient-8)"/><path d="M33.50854,42.286l.77637-.20508-.91211-3.45312,4.41016-1.165.91309,3.45313.78809-.2085L40.00561,42.68l-.74121.1958L38.948,41.68051l-4.49316,1.187.32227,1.21875-.74121.1958Zm3.709-3.86816-2.88086.76074.24609.93262,1.91211-.50488.46777,1.76758.96777-.25586Zm-1.29785,2.10693-1.14746.30322.27832,1.05078,1.14746-.30322Zm1.416,9.03613-.78906.208L34.9519,43.73374l4.01563-1.06055,1.26563,4.793q.25049.94336-.40723,1.31006a5.52087,5.52087,0,0,1-1.24609.36719,6.96906,6.96906,0,0,0-.374-.88574,4.19249,4.19249,0,0,0,.918-.15234q.40723-.10767.28027-.58594l-.14453-.5498-2.43848.644Zm1.0332-5.9624-2.43848.644.249.94434,2.43848-.644Zm-1.74707,3.26123,2.43848-.644-.24316-.91895-2.43848.644Zm3.93945-9.28662.09766.37012a6.3222,6.3222,0,0,1,.24707,1.853,4.24987,4.24987,0,0,1-.44824,1.7417,6.68745,6.68745,0,0,0-.83691-.50684,3.45634,3.45634,0,0,0,.4082-1.31055A4.70326,4.70326,0,0,0,39.83178,38.2l-.30566-1.15918,3.53711-.93408.7168,2.71289q.10107.38232.4248.29736l.97949-.25879a5.25123,5.25123,0,0,0,.01074.86523l-1.05176.27783c-.57324.15137-.94629-.09814-1.11914-.75244l-.57422-2.1748Zm-.26074,5.45117-.20117-.76465,4.74512-1.25342.19824.75293a9.203,9.203,0,0,1-.77539,3.74609,6.62116,6.62116,0,0,0,2.85059.57715c-.1377.35059-.25488.69824-.35156,1.03955a8.08717,8.08717,0,0,1-2.95312-.86963,8.65609,8.65609,0,0,1-2.49609,2.35986c-.24609-.25146-.49512-.4834-.74707-.69873A8.71317,8.71317,0,0,0,43.06323,45.786a7.70551,7.70551,0,0,1-2.2959-2.88477Zm1.291-.34082a6.048,6.048,0,0,0,1.9209,2.38184,6.56012,6.56012,0,0,0,.64941-3.06055Z" style="fill:#42210b"/><path d="M46.70385,36.21811l5.2168-1.37793q-.4541-.512-1.05371-1.064l.76465-.63574a11.95335,11.95335,0,0,1,1.23828,1.15527l-.459.415,5.13379-1.356.53027,2.00879-.96875.25537-.293-1.11133-8.9043,2.35205.293,1.11133-.96777.25586Zm1.89063,8.70752,5.28223-1.39551L53.157,40.80454l-4.25391,1.124-.2334-.88379,4.25391-1.124-.46094-1.74512-4.709,1.24414-.2334-.88477,10.42188-2.75293.23438.88477-4.69727,1.24023.46094,1.74512,4.29-1.13281.2334.88379-4.29,1.13281.71973,2.72559,5.34277-1.41113.23633.89648-11.6416,3.0752Zm7.207-3.93652.56055-.73633a15.46371,15.46371,0,0,1,1.88086,1.2168l-.61914.80273A18.55752,18.55752,0,0,0,55.80151,40.98911Z" style="fill:#42210b"/></g></g></svg>