<svg xmlns="http://www.w3.org/2000/svg" xmlns:xlink="http://www.w3.org/1999/xlink" viewBox="0 0 85.03759 66.88895"><defs><linearGradient id="linear-gradient" x1="60.92126" y1="54.48998" x2="69.94149" y2="56.78576" gradientUnits="userSpaceOnUse"><stop offset="0.0034" stop-color="#f9b500"/><stop offset="0.33765" stop-color="#faae06"/><stop offset="0.81965" stop-color="#fd9b16"/><stop offset="1" stop-color="#ff921e"/></linearGradient><linearGradient id="linear-gradient-2" x1="-203.52504" y1="-330.60246" x2="-133.87019" y2="-330.60246" gradientTransform="translate(117.15977 414.07079) rotate(14.27665)" gradientUnits="userSpaceOnUse"><stop offset="0.0034" stop-color="#c38e00"/><stop offset="0.35843" stop-color="#c28705"/><stop offset="0.87034" stop-color="#bf7413"/><stop offset="1" stop-color="#be6e17"/></linearGradient><linearGradient id="linear-gradient-3" x1="-0.15147" y1="13.42025" x2="84.20453" y2="34.89003" xlink:href="#linear-gradient"/><linearGradient id="linear-gradient-4" x1="4.68337" y1="34.71286" x2="76.88634" y2="34.71286" gradientUnits="userSpaceOnUse"><stop offset="0.0034" stop-color="#d10272"/><stop offset="1" stop-color="#931668"/></linearGradient><linearGradient id="linear-gradient-5" x1="59.01678" y1="1.92027" x2="76.88634" y2="1.92027" xlink:href="#linear-gradient-4"/><linearGradient id="linear-gradient-6" x1="40.48098" y1="64.00438" x2="45.61453" y2="64.00438" gradientUnits="userSpaceOnUse"><stop offset="0" stop-color="#3fa8f4"/><stop offset="0.43052" stop-color="#2e99e5"/><stop offset="1" stop-color="#1180cb"/></linearGradient><linearGradient id="linear-gradient-7" x1="-126.39658" y1="-357.26801" x2="-189.89288" y2="-332.4361" gradientTransform="translate(117.15977 414.07079) rotate(14.27665)" gradientUnits="userSpaceOnUse"><stop offset="0.0034" stop-color="#f9d14c"/><stop offset="0.27761" stop-color="#facd45"/><stop offset="0.67289" stop-color="#fcc332"/><stop offset="1" stop-color="#ffb81d"/></linearGradient></defs><title>世彩1分骰寶</title><g id="圖層_2" data-name="圖層 2"><g id="彩種圖"><path d="M70.17246,55.87824a60.24152,60.24152,0,0,0-11.02654,5.58718c2.30511-4.52144,4.61-8.90776,6.91493-13.09461Q68.11691,52.01175,70.17246,55.87824Z" style="fill:url(#linear-gradient)"/><path d="M4.68337,30.78891C7.22357,40.80168,9.764,50.35449,12.3042,59.5349c19.28938,7.53425,38.57888-6.4178,57.86826-3.65666q-2.05587-3.8732-4.11161-7.50743C45.60175,41.955,25.14262,51.28754,4.68337,30.78891Z" style="fill:url(#linear-gradient-2)"/><path d="M85.03759,31.42422C68.10819,14.95146,32.24632,7.83081,0,12.82511c5.17283,2.46876,9.11543,5.18577,9.58172,11.9579,22.64155-4.94308,57.15626,7.51013,71.8114,21.1532Q83.21506,38.53144,85.03759,31.42422Z" style="fill:url(#linear-gradient-3)"/><polygon points="4.683 2.537 19.986 53.037 42.793 53.037 48.297 66.889 56.078 53.037 71.949 53.037 76.886 7.933 4.683 2.537" style="fill:url(#linear-gradient-4)"/><path d="M74.80254,27.064C59.40576,23.37123,40.98616,31.38421,30.488,31.83125c-7.96446.33873-15.09376-3.04211-18.45521-4.95677l2.62908,8.62926L42.71952,53.03686H42.793l.0245.11755.14439.119a76.30106,76.30106,0,0,1,18.22974-5.25234,24.36323,24.36323,0,0,1,11.21481.9377Z" style="opacity:0.14"/><polygon points="59.017 3.841 76.886 3.841 71.4 0 59.017 3.841" style="fill:url(#linear-gradient-5)"/><polygon points="45.615 65.768 43.285 62.241 40.481 63.417 45.615 65.768" style="fill:url(#linear-gradient-6)"/><path d="M38.74658,26.84687l-13.7168-1.11816q-3.252.05859-2.60547-2.89258l.7832-9.60059-2.01758-.16406.07227-.8877,2.01758.16406.4082-5.002,3.38867.27637-.4082,5.002,2.25781.18408.42188-5.16309,3.38867.27637-.42187,5.16309,2.41992.19727.42188-5.16309,3.38867.27637-.41992,5.16309,2.5.2041-.07227.8877-2.5-.2041-.54687,6.69629q-.11279,2.34741-3.24414,1.92822l-1.04883-.08545q-1.62158-.05054-1.60156-1.26758L31.52,22.84687l-3.38867-.27637L28.854,13.696l-2.25781-.18408L25.854,22.62812q-.52441,2.39429,1.99219,2.437l10.97266.89453Zm-4.62891-5.981.54492-6.69629-2.41992-.19727-.5918,7.26074a.83254.83254,0,0,0,.82813.79883l.72656.05908Q33.9248,22.23237,34.11767,20.86592Z" style="fill:#fff"/><path d="M57.34814,19.43037l-5.084-.41455-.14453,1.7749,1.291.10547q3.5625.12891,3.125,2.52881l-.2168,2.6626a3.38143,3.38143,0,0,0,.37988,2.3042,6.59636,6.59636,0,0,0,1.6084-2.79248,18.9144,18.9144,0,0,1,.59375-2.30615c.1543-.58252.30273-1.05811.44141-1.42627l3.46875.2832q-.47461,1.83032-1.082,4.29736a2.75949,2.75949,0,0,1-1.54883,2.06592,9.07227,9.07227,0,0,1-4.248.30371c.05762-.0498.14453-.124.26172-.22168a3.5578,3.5578,0,0,0,.417-.12891q-3.87744-.23657-3.43359-2.7168l.21-2.58105q.28125-1.43994-1.333-1.5708l-.56543,6.938-3.30664-.26953.56543-6.938a1.96011,1.96011,0,0,0-1.51855.688l-.25,3.06543q.09082,2.84985-4.08984,2.34668a3.47608,3.47608,0,0,0,1.00391-2.354l.4082-5.002,3.06543.25L47.2622,21.613a1.505,1.505,0,0,1,1.54492-1.01074l.15039-1.856-5.32422-.43457.06543-.80615,5.3252.43457.08594-1.04932,3.30664.26953-.08594,1.04932,5.083.41455Zm-13.01465-7.7207,3.14551.25684q.07031,1.144.07227,2.11719c-.00977.1084.01172.16357.06641.168a2.2511,2.2511,0,0,0,.82422,1.854q-4.46484-.03955-3.95117-2.35254A10.63762,10.63762,0,0,1,44.33349,11.70967Zm10.748-.3418-10.64941-.86865.06641-.80664,7.82422.63818a1.65523,1.65523,0,0,0,1.85352-.82324l4.27637.34912Q57.72314,11.82759,55.08154,11.36787Zm-5.98828.73,3.14648.25684c-.00488.0542-.01074.13477-.02051.24219a17.53406,17.53406,0,0,0,.1582,2.04248,2.51543,2.51543,0,0,0,.66211,1.84131,2.38767,2.38767,0,0,0,1.0332-1.70264q.252-1.11621.40625-1.99707a.32814.32814,0,0,1,.10059-.23535l3.14648.25635q-.25488,1.11768-.40723,1.99756-.11133,2.34668-4.19824,1.688-4.38281-.033-3.9502-2.35254A18.84483,18.84483,0,0,1,49.09326,12.09785Zm10.73535,3.79932,3.46875.28271a7.72775,7.72775,0,0,0-.415,1.10352,16.37391,16.37391,0,0,0-.53418,1.58057q-.39258,2.811-5.28711,2.08643Q58.53759,19.77192,59.82861,15.89717Zm.3125-5.82227,3.54883.28955a7.37643,7.37643,0,0,0-.42773,1.26416q-.416,1.10449-.52734,1.50049-.27979,2.41333-5.17969,1.77051a3.65767,3.65767,0,0,0,1.63672-2.14111c.07031-.20947.14258-.44727.21973-.71289Q59.92578,10.70747,60.14111,10.0749Z" style="fill:#fff"/><path d="M4.67008,30.83281c26.7889,17.25168,53.57814-16.6603,80.36751.5914q-1.82246,7.10259-3.64447,14.512C58.36332,37.75716,35.33365,63.95952,12.3042,59.5349,9.7595,50.37057,7.21465,40.8324,4.67008,30.83281Z" style="fill:url(#linear-gradient-7)"/><path d="M26.04248,49.68037l-1.9834-7.50586a3.78768,3.78768,0,0,1-.72656.81543,5.37042,5.37042,0,0,1-1.02734.75635l-.28711-1.08789a7.62067,7.62067,0,0,0,1.32813-1.00781A6.72252,6.72252,0,0,0,24.354,40.53291l.41895-.11084,2.36816,8.96777Z" style="fill:#42210b"/><path d="M29.54345,43.3918a14.48807,14.48807,0,0,0,2.79687-5.562l.92188.229A16.28694,16.28694,0,0,1,30.40478,43.989,5.62037,5.62037,0,0,0,29.54345,43.3918Zm1.64063-.03271,7.5332-1.99023q.4541,1.94092.82422,3.80664.4248,2.15405-1.44922,2.63721-.91406.25415-1.95117.45508-.19482-.4585-.41406-.92139a15.5279,15.5279,0,0,0,1.98535-.37891q1.13818-.27686.89551-1.65527-.23145-1.24658-.60937-2.85645l-3.4834.92041a7.52247,7.52247,0,0,1,.01855,3.25586,5.77488,5.77488,0,0,1-2.27148,3.10791,9.82282,9.82282,0,0,0-.8457-.58789,5.33875,5.33875,0,0,0,2.16992-2.75537,5.93984,5.93984,0,0,0,0-2.7749l-2.18164.57617Zm3.44531-5.95215L35.352,36.84a8.81774,8.81774,0,0,0,5.57422,3.3877,7.99657,7.99657,0,0,0-.50977,1.05615A10.53323,10.53323,0,0,1,34.62939,37.40693Z" style="fill:#42210b"/><path d="M42.30322,39.13691l.73633-.19434-.86523-3.27441L46.356,34.56367l.86328,3.27441.748-.19775.49414,1.87012-.70215.18555-.2998-1.13379L43.1997,39.6877l.30469,1.15625-.70215.18555Zm3.51563-3.66748-2.73047.7207.23242.88379,1.8125-.47852.44336,1.67676.918-.24219ZM44.58838,37.4665l-1.08789.28711.26367.99707,1.08789-.28711Zm1.3418,8.56641-.748.19727L43.67041,40.5085,47.478,39.50312l1.2002,4.54395q.2373.895-.38672,1.24121a5.18664,5.18664,0,0,1-1.18164.34814,6.31359,6.31359,0,0,0-.35547-.83887,3.838,3.838,0,0,0,.87109-.14551c.25781-.06787.3457-.25293.26563-.55469l-.13672-.52148-2.3125.61035Zm.97949-5.65234-2.31152.61035.23633.89551,2.31152-.61035Zm-1.65527,3.0918,2.31055-.61035-.23047-.87207-2.31055.61035Zm3.73438-8.8042.09277.35156a6.01364,6.01364,0,0,1,.2334,1.75635,4.02955,4.02955,0,0,1-.42383,1.65088,6.50966,6.50966,0,0,0-.79492-.481,3.24367,3.24367,0,0,0,.3877-1.24219,4.39357,4.39357,0,0,0-.18652-1.44141l-.29-1.09863,3.35352-.88574.67871,2.57227q.09668.36182.40234.28174l.92871-.24561a5.156,5.156,0,0,0,.01074.82129l-.99609.26367q-.81738.21533-1.0625-.71338l-.54395-2.0625Zm-.24707,5.16748-.19141-.72461,4.498-1.188.18848.71387a8.74407,8.74407,0,0,1-.73437,3.55176,6.28016,6.28016,0,0,0,2.70117.54639q-.19336.49951-.333.98535a7.66921,7.66921,0,0,1-2.7998-.82422A8.17564,8.17564,0,0,1,49.70361,45.133q-.34863-.356-.707-.66113a8.26934,8.26934,0,0,0,2.36328-2.01807,7.2999,7.2999,0,0,1-2.17578-2.73437Zm1.22363-.32324a5.73635,5.73635,0,0,0,1.82031,2.25879,6.22257,6.22257,0,0,0,.61523-2.90186Z" style="fill:#42210b"/><path d="M54.811,33.385l4.94727-1.30615c-.28906-.32422-.62109-.66016-1-1.00928l.72461-.60352a11.2311,11.2311,0,0,1,1.17383,1.09619l-.43555.39355,4.86719-1.28516.502,1.90332-.916.24219L64.395,31.7624l-8.44141,2.23.2793,1.05371-.918.24219Zm1.793,8.25293,5.00781-1.32275-.68164-2.583L56.896,38.79756l-.22168-.83887,4.0332-1.06543L60.272,35.239l-4.46484,1.1792-.22168-.83789,9.87988-2.60986.22266.83789-4.45313,1.17627.43555,1.6543,4.06836-1.07422.22168.83887-4.06738,1.07422.68164,2.583,5.06445-1.3374.22461.84961L56.82861,42.4875ZM63.436,37.906l.53125-.69727a14.63766,14.63766,0,0,1,1.7832,1.15283l-.58691.76074A17.87958,17.87958,0,0,0,63.436,37.906Z" style="fill:#42210b"/></g></g></svg>