<svg xmlns="http://www.w3.org/2000/svg" xmlns:xlink="http://www.w3.org/1999/xlink" viewBox="0 0 85.03759 66.88895"><defs><linearGradient id="linear-gradient" x1="-197.44613" y1="-280.15151" x2="-127.79127" y2="-280.15151" gradientTransform="translate(123.7099 363.67972) rotate(14.27665)" gradientUnits="userSpaceOnUse"><stop offset="0.0034" stop-color="#c38e00"/><stop offset="0.35843" stop-color="#c28705"/><stop offset="0.87034" stop-color="#bf7413"/><stop offset="1" stop-color="#be6e17"/></linearGradient><linearGradient id="linear-gradient-2" x1="-0.15147" y1="13.42025" x2="84.20453" y2="34.89003" gradientUnits="userSpaceOnUse"><stop offset="0.0034" stop-color="#f9b500"/><stop offset="0.33765" stop-color="#faae06"/><stop offset="0.81965" stop-color="#fd9b16"/><stop offset="1" stop-color="#ff921e"/></linearGradient><linearGradient id="linear-gradient-3" x1="4.68337" y1="34.71286" x2="76.88634" y2="34.71286" gradientUnits="userSpaceOnUse"><stop offset="0.0034" stop-color="#d10272"/><stop offset="1" stop-color="#931668"/></linearGradient><linearGradient id="linear-gradient-4" x1="59.01678" y1="1.92027" x2="76.88634" y2="1.92027" xlink:href="#linear-gradient-3"/><linearGradient id="linear-gradient-5" x1="40.48098" y1="64.00438" x2="45.61453" y2="64.00438" gradientUnits="userSpaceOnUse"><stop offset="0" stop-color="#3fa8f4"/><stop offset="0.43052" stop-color="#2e99e5"/><stop offset="1" stop-color="#1180cb"/></linearGradient><linearGradient id="linear-gradient-6" x1="-120.31766" y1="-306.81707" x2="-183.81397" y2="-281.98515" gradientTransform="translate(123.7099 363.67972) rotate(14.27665)" gradientUnits="userSpaceOnUse"><stop offset="0.0034" stop-color="#f9d14c"/><stop offset="0.27761" stop-color="#facd45"/><stop offset="0.67289" stop-color="#fcc332"/><stop offset="1" stop-color="#ffb81d"/></linearGradient></defs><title>江蘇骰寶</title><g id="圖層_2" data-name="圖層 2"><g id="彩種圖"><path d="M4.68337,30.78891C7.22357,40.80168,9.764,50.35449,12.3042,59.5349c19.28938,7.53425,38.57888-6.4178,57.86826-3.65666q-2.05587-3.8732-4.11161-7.50743C45.60175,41.955,25.14262,51.28754,4.68337,30.78891Z" style="fill:url(#linear-gradient)"/><path d="M85.03759,31.42422C68.10819,14.95146,32.24632,7.83081,0,12.82511c5.17283,2.46876,9.11543,5.18577,9.58172,11.9579,22.64155-4.94308,57.15626,7.51013,71.8114,21.1532Q83.21506,38.53144,85.03759,31.42422Z" style="fill:url(#linear-gradient-2)"/><polygon points="4.683 2.537 19.986 53.037 42.793 53.037 48.297 66.889 56.078 53.037 71.949 53.037 76.886 7.933 4.683 2.537" style="fill:url(#linear-gradient-3)"/><path d="M74.80254,27.064C59.40576,23.37123,40.98616,31.38421,30.488,31.83125c-7.96446.33873-15.09376-3.04211-18.45521-4.95677l2.62908,8.62926L42.71952,53.03686H42.793l.0245.11755.14439.119a76.30106,76.30106,0,0,1,18.22974-5.25234,24.36323,24.36323,0,0,1,11.21481.9377Z" style="opacity:0.14"/><polygon points="59.017 3.841 76.886 3.841 71.4 0 59.017 3.841" style="fill:url(#linear-gradient-4)"/><polygon points="45.615 65.768 43.285 62.241 40.481 63.417 45.615 65.768" style="fill:url(#linear-gradient-5)"/><path d="M24.43257,26.08612l-3.38672-.27637q.58008-2.14526,1.40918-4.35156.7749-3.50977,5.51367-2.87988a6.15652,6.15652,0,0,0-2.03027,3.001q-.31494.86938-.75684,2.29395A22.58137,22.58137,0,0,0,24.43257,26.08612ZM21.249,12.3454l3.38867.27588a8.91289,8.91289,0,0,0,2.584,5.165q-4.86035-.15234-5.07227-2.52539A11.58794,11.58794,0,0,1,21.249,12.3454Zm1.63867-5.14551,3.38867.27637q.59619,3.62329,2.25977,5.13818-4.86621-.071-4.9043-2.59277a1.82332,1.82332,0,0,1-.20312-.50342A15.48487,15.48487,0,0,1,22.88764,7.19989ZM39.56538,26.75165,25.85054,25.63349l.05957-.72607,5.002.40771,1.22363-15.00586L27.77925,9.9538l.05957-.72607,12.58594,1.02637-.05957.72607-4.67969-.38135L34.46186,25.60468l5.16309.4209Z" style="fill:#fff"/><path d="M45.67573,18.15351l2.33984.19092q-.50977,1.259-1.1377,2.99414-.53027,1.5-.748,2.21191-.55078,1.74316-3.17871,1.12207Q44.01753,23.541,45.67573,18.15351Zm10.24316,6.8457.42773-5.24463q.37061-2.56714-1.90039-2.59082l-1.12891-.09229a27.648,27.648,0,0,1-1.57129,5.313,30.48141,30.48141,0,0,1-2.43945,4.02441q-1.37549,1.91748-5.21973,1.2793,2.061-1.37476,4.56641-6.20508a18.88305,18.88305,0,0,0,1.51758-4.668l-5.16406-.4209.06641-.80762,5.24414.42773a6.7631,6.7631,0,0,1,.14551-.7998,3.77817,3.77817,0,0,1,.15332-.88086l-2.66211-.2168.13867-1.69434-3.95312-.32275.07227-.88721,3.95313.32275.20313-2.501,3.38867.27588-.20312,2.501,4.59766.375.20313-2.501,3.4707.2832-.2041,2.501,3.95313.32227-.07227.88721-3.95312-.32227-.1377,1.69434-3.4707-.2832.13867-1.69434-4.59766-.37451-.10547,1.291,2.41895.19727a14.97435,14.97435,0,0,0-.33105,2.084l2.501.20361q3.97119.0813,3.55566,3.21436l-.45508,5.56641q-.16113,3.9646-3.623,3.60254a5.994,5.994,0,0,1-4.90723-3.56738,7.40686,7.40686,0,0,0,3.39746,1.17041Q55.93354,26.78559,55.91889,24.99921Zm3.94824-6.58154,2.09766.1709q.19922,6.51489.91895,7.62793-2.44336.12671-2.55664-1.50781Q60.07514,21.84638,59.86714,18.41767Z" style="fill:#fff"/><path d="M4.67008,30.83281c26.7889,17.25168,53.57814-16.6603,80.36751.5914q-1.82246,7.10259-3.64447,14.512C58.36332,37.75716,35.33365,63.95952,12.3042,59.5349,9.7595,50.37057,7.21465,40.8324,4.67008,30.83281Z" style="fill:url(#linear-gradient-6)"/><path d="M33.50874,42.28583l.77637-.20508L33.373,38.62763l4.41016-1.165.91309,3.45313.78809-.2085.52051,1.97266-.74023.1958-.31641-1.19531-4.49316,1.187.32129,1.21875-.74023.1958Zm3.709-3.86816-2.88086.76074.24609.93262,1.91211-.50488.4668,1.76758.96875-.25586ZM35.91987,40.5246l-1.14746.30322.27734,1.05078,1.14844-.30322Zm1.415,9.03613-.78906.208L34.9521,43.73358,38.96772,42.673l1.26563,4.793q.249.94336-.40723,1.31006a5.52087,5.52087,0,0,1-1.24609.36719,6.96906,6.96906,0,0,0-.374-.88574,4.20233,4.20233,0,0,0,.918-.15234q.40723-.10767.28027-.58594l-.14551-.5498-2.4375.644Zm1.03418-5.9624-2.43848.644.249.94434,2.43848-.644ZM36.622,46.85956l2.43848-.644-.24316-.91895-2.43848.644Zm3.93945-9.28662.09766.37012a6.285,6.285,0,0,1,.24609,1.853,4.2338,4.2338,0,0,1-.44727,1.7417,6.68745,6.68745,0,0,0-.83691-.50684,3.45634,3.45634,0,0,0,.4082-1.31055,4.70326,4.70326,0,0,0-.19727-1.52051l-.30566-1.15918,3.53711-.93408.7168,2.71289q.10107.38232.42383.29736l.98047-.25879a5.25123,5.25123,0,0,0,.01074.86523l-1.05176.27783c-.57422.15137-.94629-.09814-1.11914-.75244l-.57422-2.1748Zm-.26074,5.45117-.20215-.76465L44.84468,41.006l.19824.75293a9.203,9.203,0,0,1-.77539,3.74609,6.62116,6.62116,0,0,0,2.85059.57715c-.1377.35059-.25488.69824-.35156,1.03955a8.08717,8.08717,0,0,1-2.95312-.86963A8.66911,8.66911,0,0,1,41.31733,48.612c-.24609-.25146-.49512-.4834-.748-.69873a8.70508,8.70508,0,0,0,2.49414-2.12744,7.70551,7.70551,0,0,1-2.2959-2.88477Zm1.291-.34082a6.03957,6.03957,0,0,0,1.9209,2.38184,6.57222,6.57222,0,0,0,.64941-3.06055Z" style="fill:#42210b"/><path d="M46.70405,36.218,51.92085,34.84a14.91156,14.91156,0,0,0-1.05469-1.064l.76563-.63574a11.95335,11.95335,0,0,1,1.23828,1.15527l-.459.415,5.13281-1.356.53125,2.00879-.96875.25537-.293-1.11133-8.9043,2.35205.293,1.11133-.96777.25586Zm1.89063,8.70752L53.8769,43.53l-.71973-2.72559-4.25391,1.124-.23437-.88379,4.25488-1.124-.46094-1.74512-4.709,1.24414-.2334-.88477,10.42188-2.75293.23438.88477-4.69727,1.24023.46094,1.74512,4.29-1.13281.2334.88379-4.291,1.13281.7207,2.72559,5.34277-1.41113.23633.89648L48.831,45.822Zm7.207-3.93652.56055-.73633a15.53988,15.53988,0,0,1,1.88086,1.2168l-.61914.80273A18.55752,18.55752,0,0,0,55.80171,40.989Z" style="fill:#42210b"/></g></g></svg>