<svg xmlns="http://www.w3.org/2000/svg" xmlns:xlink="http://www.w3.org/1999/xlink" viewBox="0 0 80.36751 66.88895"><defs><linearGradient id="linear-gradient" x1="0.01329" y1="34.71286" x2="72.21626" y2="34.71286" gradientUnits="userSpaceOnUse"><stop offset="0.0034" stop-color="#d10272"/><stop offset="1" stop-color="#931668"/></linearGradient><linearGradient id="linear-gradient-2" x1="54.3467" y1="1.92027" x2="72.21626" y2="1.92027" xlink:href="#linear-gradient"/><linearGradient id="linear-gradient-3" x1="35.8109" y1="64.00438" x2="40.94445" y2="64.00438" gradientUnits="userSpaceOnUse"><stop offset="0" stop-color="#3fa8f4"/><stop offset="0.43052" stop-color="#2e99e5"/><stop offset="1" stop-color="#1180cb"/></linearGradient><linearGradient id="linear-gradient-4" x1="-121.78985" y1="-281.26822" x2="-185.28615" y2="-256.43631" gradientTransform="translate(126.76686 339.28337) rotate(14.27665)" gradientUnits="userSpaceOnUse"><stop offset="0.0034" stop-color="#f9d14c"/><stop offset="0.27761" stop-color="#facd45"/><stop offset="0.67289" stop-color="#fcc332"/><stop offset="1" stop-color="#ffb81d"/></linearGradient></defs><title>安徽骰寶</title><g id="圖層_2" data-name="圖層 2"><g id="彩種圖"><polygon points="0.013 2.537 15.316 53.037 38.123 53.037 43.627 66.889 51.408 53.037 67.279 53.037 72.216 7.933 0.013 2.537" style="fill:url(#linear-gradient)"/><path d="M70.13246,27.064c-15.39678-3.69275-33.81638,4.32024-44.31455,4.76727-7.96446.33873-15.09376-3.04211-18.45521-4.95677l2.62908,8.62926L38.04944,53.03686H38.123l.0245.11755.14439.119a76.30106,76.30106,0,0,1,18.22974-5.25234,24.36323,24.36323,0,0,1,11.21481.9377Z" style="opacity:0.14"/><polygon points="54.347 3.841 72.216 3.841 66.73 0 54.347 3.841" style="fill:url(#linear-gradient-2)"/><polygon points="40.944 65.768 38.615 62.241 35.811 63.417 40.944 65.768" style="fill:url(#linear-gradient-3)"/><path d="M18.882,17.97431l.23047-2.82324-2.74316-.22363.06543-.80713,2.74316.22363.125-1.53271-1.85547-.15137L17.7433,9.029l3.3877.27637-.11816,1.45215q.59033-1.24951,3.0166-1.13428l.72656.05908L24.93959,7.423l3.873.31592L28.629,9.99823l3.3877.27588q3.71631.22266,3.4043,2.06445l-.07812.96777a1.23953,1.23953,0,0,1-.65039,1.00293l-1.5332-.125-.10547,1.291,2.74316.22363-.06543.80713-2.74316-.22363-.23047,2.82324q.15088,1.15063-4.52344,3.69141,4.28613,3.19336,6.60254,4.68066-3.87158-.31567-4.99609-.48828a5.26374,5.26374,0,0,1-2.11914-.90381,12.15157,12.15157,0,0,0-2.375-1.7373,12.06965,12.06965,0,0,0-2.627,1.32959,6.61522,6.61522,0,0,1-2.31836.5415q-1.13525-.01245-4.92676-.32031,2.18848-.96021,7.27246-3.54932Q18.401,18.91034,18.882,17.97431Zm2.085-6.65137-.0791.96777,1.69531.13818-.17773,2.17822,7.4209.605.17773-2.17822,1.69531.13818c-.0498-.05762-.01172-.19043.11328-.397l.06543-.80664q.07324-.8877-1.78223-1.03857l-5.88965-.48047Q21.7848,10.25238,20.96693,11.32294Zm8.62891,6.71289.165-2.0166-7.4209-.605-.165,2.0166q-.12158.47681,3.46777,3.2876Q29.55677,18.52045,29.59584,18.03583Z" style="fill:#fff"/><path d="M42.30091,28.16767,39.55775,27.944l.6377-7.8252a2.95606,2.95606,0,0,1-1.37109-.1123,15.00738,15.00738,0,0,0,2.585-5.79932l2.66113.2168a28.04,28.04,0,0,0-.88184,2.85205Zm.03223-19.32617,2.82422.23c-.19141.36426-.4209.83252-.68359,1.40625q-.50977,1.2583-.71582,1.81006-1.09277,2.42871-4.43945,1.66748Q40.61341,13.00678,42.33314,8.84149ZM52.337,16.6413l2.33887.19092a19.91669,19.91669,0,0,0,.36816,2.46631,21.23471,21.23471,0,0,1,.8623-2.60937q.3208-.94922.52051-1.41943l2.34082.19043q-.52295,1.41943-1.46484,4.02246-1.03271,2.67847-1.46582,4.02246.22852,1.15723.46191,2.31152a16.8792,16.8792,0,0,0,1.17578,3.50684q-2.76416.01831-3.0752-2.11865-.73828,2.05078-3.708,1.647a8.16764,8.16764,0,0,0,1.09961-1.53516q-1.63623.1106-1.62109-1.0249a6.066,6.066,0,0,1-.19824-1.55957,4.84452,4.84452,0,0,1-.02246-.73242l1.61328.13184a8.80035,8.80035,0,0,0,.416,2.876,3.55216,3.55216,0,0,1,.27441-.38379.83706.83706,0,0,1,.1875-.30908q.21533-.63135.73633-2.05176a8.24913,8.24913,0,0,1,.4082-1.02246q-.4834-2.06836-.85449-4.45508-.5918.27686-3.5459,1.65967l1.85449.15137q.13477.33691.83691,1.69238a4.849,4.849,0,0,0,.93652,1.457q-2.74951-.14209-3.1543-1.15039a.24627.24627,0,0,0-.06738-.16846,1.24924,1.24924,0,0,1-.34277.21631l-.32227,3.95313q-.104,2.26392-1.95215,2.0332a2.9742,2.9742,0,0,1-2.53711-1.75q-.19043.30835-1.80176.17822.52441-.44458,1.4248-3.53857l1.69434.13867a6.37024,6.37024,0,0,0-.32031.94775q-.42773,1.26489-.62891,1.73535c-.00391.05322-.06543.12939-.18164.22949-.00391.05225-.00879.10693-.0127.16064l.15527.09424a4.301,4.301,0,0,0,.86816.314q.64307.05273.74316-1.15723l.23633-2.9043a3.3706,3.3706,0,0,1-.8125.01563,4.85086,4.85086,0,0,1-.73242.02051q-1.13086-.09229-1.39355-.84424a1.60627,1.60627,0,0,1,.76953-1.48,4.88206,4.88206,0,0,1,.75977-.34424c.28223-.13965.62207-.32715,1.02148-.56592a1.98741,1.98741,0,0,1-.97559.001c-.75684-.00684-1.22949-.208-1.41211-.60254q-.19043-.665.67578-1.3252a24.70182,24.70182,0,0,1,2.14941-1.44922L44.16224,16.3l.05957-.72607,7.42188.605-.05957.72607-1.29-.105q-.76758.42407-1.36426.78223a8.39885,8.39885,0,0,0-1.18848.63428q-.605.438-.623.67969.06592.16846.63867.13281c.16113.01318.29492.02393.40234.03271a.62776.62776,0,0,0,.25-.06006q.33984-.2168.77148-.50586l3.5498.28955q-.063-.24829-.17676-.82715A5.63228,5.63228,0,0,1,52.337,16.6413ZM46.31654,14.7702l-1.85547-.15137.34277-4.19482,1.85547.15088Zm4.28223.26758-2.9043-.23633q-1.62012-.05127-1.20605-2.12891.06738,1.14331.708,1.27539l.38086-4.6792,2.4209.19775-.375,4.59863q.89355-.00732.98633-1.1377l.165-2.0166,1.77441.14453-.2041,2.501Q52.27894,15.33832,50.59876,15.03778Zm-3.61035,7.42139.64648.05273a9.03214,9.03214,0,0,0,1.96289-.16553,1.81169,1.81169,0,0,1-.2832-.51025,4.99978,4.99978,0,0,1-.46582-1.25635q-1.27148.62769-1.78125.91064-.51709.36548-.543.68652Q46.5055,22.41937,46.98841,22.45917ZM54.1808,9.96991l2.66113.21729q-.36035,1.43188-.80176,2.85791l2.82422.23047-.05859.72607L55.82044,13.758q-.21533.63354-.32715,1.0293-.30176,1.68091-3.41992,1.10205a6.14281,6.14281,0,0,0,.97754-2.03223,3.40535,3.40535,0,0,1,.23438-.87451Q53.72474,11.55731,54.1808,9.96991Z" style="fill:#fff"/><path d="M0,30.83281c26.7889,17.25168,53.57814-16.6603,80.36751.5914q-1.82246,7.10259-3.64447,14.512C53.69324,37.75716,30.66357,63.95952,7.63412,59.5349,5.08942,50.37057,2.54457,40.8324,0,30.83281Z" style="fill:url(#linear-gradient-4)"/><path d="M28.839,42.28583l.77637-.20508-.91211-3.45312,4.41016-1.165.91211,3.45313.78906-.2085.52051,1.97266-.74121.1958-.31543-1.19531-4.49316,1.187.32129,1.21875-.74023.1958Zm3.708-3.86816-2.87988.76074.24609.93262,1.91211-.50488.4668,1.76758.96875-.25586ZM31.25013,40.5246l-1.14746.30322L30.38,41.8786l1.14746-.30322Zm1.415,9.03613-.78906.208-1.59375-6.03516L34.298,42.673l1.26563,4.793q.249.94336-.40723,1.31006a5.52087,5.52087,0,0,1-1.24609.36719,6.81564,6.81564,0,0,0-.375-.88574,4.20148,4.20148,0,0,0,.91895-.15234c.27148-.07178.36426-.26758.28027-.58594l-.14551-.5498-2.43848.644Zm1.03418-5.9624-2.43848.644.249.94434,2.43848-.644Zm-1.74707,3.26123,2.43848-.644-.24316-.91895-2.43848.644Zm3.93945-9.28662.09766.37012a6.285,6.285,0,0,1,.24609,1.853,4.249,4.249,0,0,1-.44727,1.7417,6.68745,6.68745,0,0,0-.83691-.50684,3.45634,3.45634,0,0,0,.4082-1.31055,4.70326,4.70326,0,0,0-.19727-1.52051l-.30664-1.15918,3.53809-.93408.7168,2.71289q.10107.38232.42383.29736l.98047-.25879a5.25123,5.25123,0,0,0,.01074.86523l-1.05176.27783c-.57422.15137-.94629-.09814-1.11914-.75244l-.57422-2.1748ZM35.631,43.02411l-.20215-.76465L40.174,41.006l.19922.75293a9.203,9.203,0,0,1-.77539,3.74609,6.62116,6.62116,0,0,0,2.85059.57715c-.1377.35059-.25488.69824-.35254,1.03955a8.09858,8.09858,0,0,1-2.95312-.86963A8.6431,8.6431,0,0,1,36.64662,48.612c-.24512-.25146-.49414-.4834-.74707-.69873a8.70508,8.70508,0,0,0,2.49414-2.12744,7.696,7.696,0,0,1-2.2959-2.88477Zm1.291-.34082a6.03957,6.03957,0,0,0,1.9209,2.38184,6.57222,6.57222,0,0,0,.64941-3.06055Z" style="fill:#42210b"/><path d="M42.03334,36.218,47.25111,34.84q-.45557-.512-1.05469-1.064l.76563-.63574a11.95335,11.95335,0,0,1,1.23828,1.15527l-.46.415,5.13379-1.356.53125,2.00879-.96875.25537-.29395-1.11133-8.9043,2.35205.29395,1.11133-.96777.25586Zm1.8916,8.70752L49.20716,43.53l-.71973-2.72559-4.25488,1.124-.2334-.88379,4.25488-1.124-.46094-1.74512-4.709,1.24414-.2334-.88477,10.42188-2.75293.2334.88477-4.69727,1.24023.46094,1.74512,4.291-1.13281.2334.88379-4.291,1.13281.7207,2.72559,5.34277-1.41113.23633.89648L44.16126,45.822ZM51.132,40.989l.55957-.73633a15.4776,15.4776,0,0,1,1.88184,1.2168l-.61914.80273A18.55752,18.55752,0,0,0,51.132,40.989Z" style="fill:#42210b"/></g></g></svg>