<svg xmlns="http://www.w3.org/2000/svg" xmlns:xlink="http://www.w3.org/1999/xlink" viewBox="0 0 85.038 66.88927"><defs><linearGradient id="linear-gradient" x1="60.92155" y1="54.49024" x2="69.94182" y2="56.78603" gradientUnits="userSpaceOnUse"><stop offset="0.0034" stop-color="#f9b500"/><stop offset="0.33765" stop-color="#faae06"/><stop offset="0.81965" stop-color="#fd9b16"/><stop offset="1" stop-color="#ff921e"/></linearGradient><linearGradient id="linear-gradient-2" x1="-227.93496" y1="-360.01802" x2="-158.27977" y2="-360.01802" gradientTransform="translate(133.56155 448.5971) rotate(14.27665)" gradientUnits="userSpaceOnUse"><stop offset="0.0034" stop-color="#c38e00"/><stop offset="0.35843" stop-color="#c28705"/><stop offset="0.87034" stop-color="#bf7413"/><stop offset="1" stop-color="#be6e17"/></linearGradient><linearGradient id="linear-gradient-3" x1="-0.15147" y1="13.42031" x2="84.20493" y2="34.89019" xlink:href="#linear-gradient"/><linearGradient id="linear-gradient-4" x1="33.93469" y1="18.71801" x2="44.22207" y2="21.33629" gradientUnits="userSpaceOnUse"><stop offset="0.0034" stop-color="#ec1e79"/><stop offset="1" stop-color="#ae0663"/></linearGradient><linearGradient id="linear-gradient-5" x1="4.68339" y1="34.71303" x2="76.8867" y2="34.71303" gradientUnits="userSpaceOnUse"><stop offset="0.0034" stop-color="#d10272"/><stop offset="1" stop-color="#931668"/></linearGradient><linearGradient id="linear-gradient-6" x1="59.01707" y1="1.92028" x2="76.8867" y2="1.92028" xlink:href="#linear-gradient-5"/><linearGradient id="linear-gradient-7" x1="40.48118" y1="64.00469" x2="45.61475" y2="64.00469" gradientUnits="userSpaceOnUse"><stop offset="0" stop-color="#3fa8f4"/><stop offset="0.43052" stop-color="#2e99e5"/><stop offset="1" stop-color="#1180cb"/></linearGradient><linearGradient id="linear-gradient-8" x1="-150.80613" y1="-386.6837" x2="-214.30273" y2="-361.85167" gradientTransform="translate(133.56155 448.5971) rotate(14.27665)" gradientUnits="userSpaceOnUse"><stop offset="0.0034" stop-color="#f9d14c"/><stop offset="0.27761" stop-color="#facd45"/><stop offset="0.67289" stop-color="#fcc332"/><stop offset="1" stop-color="#ffb81d"/></linearGradient></defs><title>廣西骰寶_中</title><g id="圖層_2" data-name="圖層 2"><g id="圖層_1-2" data-name="圖層 1"><path d="M70.1728,55.8785a60.24181,60.24181,0,0,0-11.0266,5.58721c2.30512-4.52146,4.61-8.9078,6.915-13.09468Q68.11723,52.012,70.1728,55.8785Z" style="fill:url(#linear-gradient)"/><path d="M4.68339,30.78906C7.2236,40.80188,9.764,50.35473,12.30426,59.53518c19.28947,7.53429,38.57907-6.41783,57.86854-3.65668q-2.05588-3.87322-4.11163-7.50747C45.602,41.95515,25.14274,51.28779,4.68339,30.78906Z" style="fill:url(#linear-gradient-2)"/><path d="M85.038,31.42437C68.10852,14.95153,32.24647,7.83084,0,12.82517c5.17286,2.46877,9.11547,5.18579,9.58177,11.958C32.22342,19.84,66.7383,32.2933,81.39351,45.93643Q83.21545,38.53162,85.038,31.42437Z" style="fill:url(#linear-gradient-3)"/><path d="M34.25015,17.47856C38.40421,15.701,42.558,13.599,46.712,11.55338c-3.09466,6.17784-6.1892,12.38692-9.28374,18.47041Q35.83893,23.7764,34.25015,17.47856Z" style="fill:url(#linear-gradient-4)"/><polygon points="4.683 2.537 19.986 53.037 42.793 53.037 48.297 66.889 56.078 53.037 71.949 53.037 76.887 7.934 4.683 2.537" style="fill:url(#linear-gradient-5)"/><path d="M74.80289,27.0641C59.406,23.37134,40.98635,31.38436,30.48813,31.8314c-7.9645.33873-15.09383-3.04212-18.4553-4.95679l2.62909,8.6293,28.0578,17.5332h.07352l.0245.11755.14439.119A76.30142,76.30142,0,0,1,61.192,48.02131a24.36335,24.36335,0,0,1,11.21487.93771Z" style="opacity:0.14"/><polygon points="59.017 3.841 76.887 3.841 71.4 0 59.017 3.841" style="fill:url(#linear-gradient-6)"/><polygon points="45.615 65.768 43.285 62.241 40.481 63.417 45.615 65.768" style="fill:url(#linear-gradient-7)"/><path d="M22.19672,21.85928l1.0332-12.6665,3.5498.28906-.19141,2.33984q.30615-1.76074,3.28418-1.438l.80762.06592.23633-2.9043,3.792.30908-.23633,2.9043,5.48535.44727-.0791.96826-10.4873-.85547q-2.4082-.35742-2.8418.9873l-.8418,10.32617q-.022,4.21948-5.07715,3.48438A7.70088,7.70088,0,0,0,22.19672,21.85928Z" style="fill:#fff"/><path d="M47.436,27.65273l-3.30859-.26953,1.01953-12.50488,3.30859.26953-.10547,1.291A1.50611,1.50611,0,0,1,49.895,15.42764l.335-4.11475-5.24414-.42773.06641-.80664,18.07227,1.47363-.06641.80664-5.48633-.44727L57.2436,15.9457l2.33789.19043q2.74219.22412,2.48633,2.39551l-.6582,8.06738q.05127,2.35913-2.67187,1.894L48.81489,27.684q-1.37988-.033-1.24023-1.72559Zm2.10352-7.86816.28906-3.55029-.24219-.02a1.22742,1.22742,0,0,0-1.2627.54736l-.749,9.19678a1.19981,1.19981,0,0,0,1.14355.90576l8.14844.66455a1.003,1.003,0,0,0,1.22266-1.03809l.22949-2.82324-2.33984-.19092q-2.52832.11938-2.02148-3.08838l.30859-3.792-1.45215-.11865-.30859,3.792q-.08057,3.97339-4.56543,3.20117Q49.22162,22.68252,49.53949,19.78457Zm3.67578-8.22852-.3291,4.03418,1.45313.11865.32813-4.03418ZM57.65473,16.872l-.48437-.03906-.2959,3.63037q-.37354,2.57007,1.10742,2.36426l.40332.0332.38086-4.67969A1.07316,1.07316,0,0,0,57.65473,16.872Z" style="fill:#fff"/><path d="M4.6701,30.833c26.789,17.25176,53.5784-16.66038,80.3679.59141Q83.21553,38.527,81.39351,45.93643C58.3636,37.75734,35.33382,63.95982,12.30426,59.53518,9.75955,50.37081,7.21469,40.8326,4.6701,30.833Z" style="fill:url(#linear-gradient-8)"/><path d="M31.68207,42.29433l.77734-.20557-.91211-3.4541,4.41016-1.16455.91211,3.4541.78906-.2085.52051,1.97266-.74121.1958-.31543-1.19531-4.49414,1.187.32227,1.21875-.74121.1958Zm3.709-3.86865-2.88086.76123.24707.93164,1.91211-.50537.4668,1.76855.96777-.25586ZM34.09418,40.5331l-1.14746.30322.27734,1.05078,1.14746-.30322Zm1.415,9.03564-.78906.2085-1.59473-6.03516,4.0166-1.061,1.26563,4.792q.249.94336-.4082,1.31055a5.51317,5.51317,0,0,1-1.24512.36768,6.85573,6.85573,0,0,0-.375-.88623,4.08791,4.08791,0,0,0,.91895-.15283q.40576-.10767.28027-.58594l-.14551-.5498-2.43848.644Zm1.0332-5.9624-2.43848.644.25.94336,2.43848-.644Zm-1.74707,3.26123,2.43848-.644-.24316-.91992-2.4375.644Zm3.93945-9.28711.09766.37012a6.29034,6.29034,0,0,1,.24707,1.85254,4.24705,4.24705,0,0,1-.44727,1.7417,6.95508,6.95508,0,0,0-.83789-.50684,3.4525,3.4525,0,0,0,.4082-1.30908,4.672,4.672,0,0,0-.19629-1.52148l-.30664-1.15918,3.53809-.93457.7168,2.71387c.06738.25488.208.35352.42383.29688l.97949-.25879a5.26646,5.26646,0,0,0,.01172.86621l-1.05273.27734q-.85986.22778-1.11816-.75293l-.57422-2.1748ZM38.475,43.03262l-.20215-.76465L43.018,41.01406l.19922.752a9.22977,9.22977,0,0,1-.77539,3.74756,6.62706,6.62706,0,0,0,2.84961.57568q-.20508.52808-.35156,1.03955a8.074,8.074,0,0,1-2.95312-.86963,8.62417,8.62417,0,0,1-2.49609,2.36035c-.24609-.25049-.49414-.48242-.74707-.69824a8.73021,8.73021,0,0,0,2.49316-2.12842,7.7035,7.7035,0,0,1-2.2959-2.88379Zm1.291-.34131A6.04975,6.04975,0,0,0,41.686,45.07363a6.565,6.565,0,0,0,.64941-3.061Z" style="fill:#42210b"/><path d="M44.87739,36.226l5.2168-1.37793a14.78767,14.78767,0,0,0-1.05371-1.064l.76563-.63672a11.95066,11.95066,0,0,1,1.23828,1.15576l-.46.41553,5.13379-1.356.53027,2.00781-.96777.25586L54.98676,34.515l-8.9043,2.35205.29395,1.11133-.96875.25537ZM46.768,44.933l5.2832-1.39551-.7207-2.72559L47.0766,41.93545l-.2334-.88379,4.25488-1.12354L50.63715,38.183l-4.709,1.24365-.23437-.88477L56.11664,35.789l.2334.88477-4.69727,1.24072.46094,1.74512,4.291-1.1333.2334.88379-4.291,1.1333.71973,2.72559,5.34277-1.41113.2373.89648-11.64258,3.0752Zm7.208-3.937.55957-.73584a15.32907,15.32907,0,0,1,1.88086,1.21631l-.61914.80273A18.79178,18.79178,0,0,0,53.976,40.996Z" style="fill:#42210b"/></g></g></svg>