<svg xmlns="http://www.w3.org/2000/svg" xmlns:xlink="http://www.w3.org/1999/xlink" viewBox="0 0 85.03759 66.88895"><defs><linearGradient id="linear-gradient" x1="60.92126" y1="54.48998" x2="69.94149" y2="56.78576" gradientUnits="userSpaceOnUse"><stop offset="0.0034" stop-color="#f9b500"/><stop offset="0.33765" stop-color="#faae06"/><stop offset="0.81965" stop-color="#fd9b16"/><stop offset="1" stop-color="#ff921e"/></linearGradient><linearGradient id="linear-gradient-2" x1="-206.86095" y1="-356.1475" x2="-137.20609" y2="-356.1475" gradientTransform="translate(114.09319 439.64912) rotate(14.27665)" gradientUnits="userSpaceOnUse"><stop offset="0.0034" stop-color="#c38e00"/><stop offset="0.35843" stop-color="#c28705"/><stop offset="0.87034" stop-color="#bf7413"/><stop offset="1" stop-color="#be6e17"/></linearGradient><linearGradient id="linear-gradient-3" x1="-0.15147" y1="13.42025" x2="84.20453" y2="34.89003" xlink:href="#linear-gradient"/><linearGradient id="linear-gradient-4" x1="4.68337" y1="34.71286" x2="76.88634" y2="34.71286" gradientUnits="userSpaceOnUse"><stop offset="0.0034" stop-color="#d10272"/><stop offset="1" stop-color="#931668"/></linearGradient><linearGradient id="linear-gradient-5" x1="59.01678" y1="1.92027" x2="76.88634" y2="1.92027" xlink:href="#linear-gradient-4"/><linearGradient id="linear-gradient-6" x1="40.48098" y1="64.00438" x2="45.61453" y2="64.00438" gradientUnits="userSpaceOnUse"><stop offset="0" stop-color="#3fa8f4"/><stop offset="0.43052" stop-color="#2e99e5"/><stop offset="1" stop-color="#1180cb"/></linearGradient><linearGradient id="linear-gradient-7" x1="-129.73249" y1="-382.81305" x2="-193.22879" y2="-357.98114" gradientTransform="translate(114.09319 439.64912) rotate(14.27665)" gradientUnits="userSpaceOnUse"><stop offset="0.0034" stop-color="#f9d14c"/><stop offset="0.27761" stop-color="#facd45"/><stop offset="0.67289" stop-color="#fcc332"/><stop offset="1" stop-color="#ffb81d"/></linearGradient></defs><title>世彩30秒骰寶</title><g id="圖層_2" data-name="圖層 2"><g id="彩種圖"><path d="M70.17246,55.87824a60.24152,60.24152,0,0,0-11.02654,5.58718c2.30511-4.52144,4.61-8.90776,6.91493-13.09461Q68.11691,52.01175,70.17246,55.87824Z" style="fill:url(#linear-gradient)"/><path d="M4.68337,30.78891C7.22357,40.80168,9.764,50.35449,12.3042,59.5349c19.28938,7.53425,38.57888-6.4178,57.86826-3.65666q-2.05587-3.8732-4.11161-7.50743C45.60175,41.955,25.14262,51.28754,4.68337,30.78891Z" style="fill:url(#linear-gradient-2)"/><path d="M85.03759,31.42422C68.10819,14.95146,32.24632,7.83081,0,12.82511c5.17283,2.46876,9.11543,5.18577,9.58172,11.9579,22.64155-4.94308,57.15626,7.51013,71.8114,21.1532Q83.21506,38.53144,85.03759,31.42422Z" style="fill:url(#linear-gradient-3)"/><polygon points="4.683 2.537 19.986 53.037 42.793 53.037 48.297 66.889 56.078 53.037 71.949 53.037 76.886 7.933 4.683 2.537" style="fill:url(#linear-gradient-4)"/><path d="M74.80254,27.064C59.40576,23.37123,40.98616,31.38421,30.488,31.83125c-7.96446.33873-15.09376-3.04211-18.45521-4.95677l2.62908,8.62926L42.71952,53.03686H42.793l.0245.11755.14439.119a76.30106,76.30106,0,0,1,18.22974-5.25234,24.36323,24.36323,0,0,1,11.21481.9377Z" style="opacity:0.14"/><polygon points="59.017 3.841 76.886 3.841 71.4 0 59.017 3.841" style="fill:url(#linear-gradient-5)"/><polygon points="45.615 65.768 43.285 62.241 40.481 63.417 45.615 65.768" style="fill:url(#linear-gradient-6)"/><path d="M38.74619,26.84706,25.03037,25.72889q-3.252.05859-2.60645-2.89258l.7832-9.60059-2.0166-.16406.07227-.8877,2.0166.16406.4082-5.002,3.38965.27637-.4082,5.002,2.25781.18408.4209-5.16309,3.38867.27637-.4209,5.16309,2.41992.19727.4209-5.16309L38.546,8.3954l-.4209,5.16309,2.5.2041-.07227.8877-2.5-.2041-.5459,6.69629q-.11426,2.34741-3.24414,1.92822L33.214,22.98524q-1.623-.05054-1.60254-1.26758l-.0918,1.12939L28.131,22.57069l.72363-8.87451-2.25781-.18408-.74316,9.11621q-.52295,2.39429,1.99316,2.437l10.97168.89453Zm-4.62891-5.981.5459-6.69629-2.41992-.19727-.5918,7.26074a.83167.83167,0,0,0,.82715.79883l.72656.05908Q33.92442,22.23255,34.11729,20.8661Z" style="fill:#fff"/><path d="M57.34776,19.43055l-5.083-.41455-.14453,1.7749,1.291.10547q3.5625.12891,3.124,2.52881l-.2168,2.6626a3.387,3.387,0,0,0,.37988,2.3042,6.586,6.586,0,0,0,1.6084-2.79248,19.09787,19.09787,0,0,1,.59375-2.30615c.1543-.58252.30273-1.05811.44141-1.42627l3.46875.2832q-.47314,1.83032-1.082,4.29736a2.75862,2.75862,0,0,1-1.54785,2.06592,9.074,9.074,0,0,1-4.248.30371c.05664-.0498.14453-.124.26172-.22168a3.59522,3.59522,0,0,0,.416-.12891q-3.87744-.23657-3.43359-2.7168l.21094-2.58105q.27979-1.43994-1.334-1.5708l-.56543,6.938-3.30664-.26953.56543-6.938a1.96011,1.96011,0,0,0-1.51855.688l-.25,3.06543q.09229,2.84985-4.08887,2.34668a3.485,3.485,0,0,0,1.00391-2.354l.40723-5.002,3.06543.25-.10449,1.29053a1.505,1.505,0,0,1,1.54492-1.01074l.15137-1.856-5.3252-.43457.06543-.80615,5.3252.43457.08594-1.04932,3.30664.26953-.08594,1.04932,5.083.41455Zm-13.01465-7.7207,3.14551.25684q.07031,1.144.07227,2.11719c-.00879.1084.0127.16357.06738.168a2.25059,2.25059,0,0,0,.82324,1.854q-4.46484-.03955-3.9502-2.35254A10.55525,10.55525,0,0,1,44.33311,11.70985Zm10.748-.3418L44.43174,10.4994l.06641-.80664,7.8252.63818a1.6539,1.6539,0,0,0,1.85254-.82324l4.27637.34912Q57.72276,11.82777,55.08116,11.36805Zm-5.98828.73,3.14648.25684c-.00391.0542-.01074.13477-.01953.24219a17.11558,17.11558,0,0,0,.1582,2.04248,2.51484,2.51484,0,0,0,.66113,1.84131,2.38767,2.38767,0,0,0,1.0332-1.70264q.252-1.11621.40723-1.99707a.32767.32767,0,0,1,.09961-.23535l3.14648.25635q-.25488,1.11768-.40625,1.99756-.11133,2.34668-4.19922,1.688-4.38281-.033-3.94922-2.35254A18.57983,18.57983,0,0,1,49.09287,12.098ZM59.8292,15.89735l3.46875.28271a7.71151,7.71151,0,0,0-.416,1.10352,16.65837,16.65837,0,0,0-.53418,1.58057q-.39258,2.811-5.28613,2.08643Q58.53672,19.77211,59.8292,15.89735Zm.31152-5.82227,3.5498.28955a7.20749,7.20749,0,0,0-.42773,1.26416q-.416,1.10449-.52832,1.50049-.27979,2.41333-5.17969,1.77051a3.65385,3.65385,0,0,0,1.63672-2.14111q.10547-.31421.21973-.71289Q59.92686,10.70765,60.14073,10.07508Z" style="fill:#fff"/><path d="M4.67008,30.83281c26.7889,17.25168,53.57814-16.6603,80.36751.5914q-1.82246,7.10259-3.64447,14.512C58.36332,37.75716,35.33365,63.95952,12.3042,59.5349,9.7595,50.37057,7.21465,40.8324,4.67008,30.83281Z" style="fill:url(#linear-gradient-7)"/><path d="M22.23643,49.85243a3.34888,3.34888,0,0,0,2.21777.15918,2.24032,2.24032,0,0,0,1.31836-.82373,1.52858,1.52858,0,0,0,.21484-1.332q-.44092-1.66553-2.8252-1.03613l-.73047.19287-.24219-.918.69629-.18408q2.11377-.55811,1.7002-2.12158-.38232-1.44434-1.99609-1.01758a2.91416,2.91416,0,0,0-1.5752,1.082l-.27637-1.04785a4.08207,4.08207,0,0,1,1.87988-1.03027,2.75487,2.75487,0,0,1,1.95605.11133,1.97886,1.97886,0,0,1,1.08105,1.34082,2.2074,2.2074,0,0,1-1.1709,2.67969l.00586.02246a2.4511,2.4511,0,0,1,1.68164.27393,2.02292,2.02292,0,0,1,.92676,1.27295,2.464,2.464,0,0,1-.34766,2.13428A3.50352,3.50352,0,0,1,24.673,50.93544a3.966,3.966,0,0,1-2.13281.06641Z" style="fill:#42210b"/><path d="M29.17979,45.079a6.74867,6.74867,0,0,1-.1582-3.71826,2.58308,2.58308,0,0,1,1.917-1.7832q2.7876-.73608,3.97559,3.76221a6.327,6.327,0,0,1,.1123,3.60352,2.58419,2.58419,0,0,1-1.89062,1.75684,2.41768,2.41768,0,0,1-2.36523-.56934A6.12757,6.12757,0,0,1,29.17979,45.079Zm1.11914-.35059q.92285,3.49512,2.69727,3.02686,1.74463-.46069.80566-4.01221-.97119-3.67676-2.68164-3.2251Q29.3126,40.99549,30.29893,44.7284Z" style="fill:#42210b"/><path d="M37.3878,45.66883a13.59511,13.59511,0,0,0,.66113-4.35693l-1.56836.41455-.20312-.77051,1.79-.47266-.46582-1.76172q-.69287.29077-1.43457.57813a6.84513,6.84513,0,0,0-.44434-.71826,30.23593,30.23593,0,0,0,3.81152-1.67334l.459.72705q-.75732.36914-1.58594.73975l.498,1.88672,1.58594-.41895.20313.77051-1.58594.41895.42188,1.59766.39355-.57715q.57568.345,1.71777,1.13428l-.5332.73535q-.94629-.71411-1.53418-1.12842l1.39258,5.27441-.83789.22168-1.43457-5.43262a11.27951,11.27951,0,0,1-.66113,3.69482Q37.72422,46.11195,37.3878,45.66883Zm3.88477-7.54736.91016.002q.022,2.05518-.12891,4.19092a7.31212,7.31212,0,0,0-.95605-.08691A25.87191,25.87191,0,0,0,41.27256,38.12147Zm.14355,8.84619a9.796,9.796,0,0,0,5.37207-6.46045l.916.30322a10.98578,10.98578,0,0,1-5.59668,6.84717A9.31079,9.31079,0,0,0,41.41612,46.96766Zm1.09375-11.13721.88379-.2334,1.8916,7.16113-.88379.2334Zm2.22266,1.61963.67383-.56689q1.24365,1.17627,2.418,2.50049l-.70215.64648A30.38133,30.38133,0,0,0,44.73252,37.45008Z" style="fill:#42210b"/><path d="M49.2667,38.03358l.73633-.19482-.86426-3.27441,4.18066-1.104.86523,3.27441.74707-.19775.49414,1.87012-.70312.18555-.29883-1.13379-4.25977,1.12549.30469,1.15625-.70215.18555Zm3.51563-3.668-2.73047.72119.2334.88379,1.81348-.47852.44238,1.67676.918-.24268Zm-1.22949,1.99756-1.08789.28711.26367.99707,1.08789-.28711Zm1.3418,8.56641-.748.19727-1.51172-5.72168,3.80664-1.00537,1.2002,4.54395q.2373.895-.38672,1.24072a5.16987,5.16987,0,0,1-1.18066.34863,6.59937,6.59937,0,0,0-.35449-.83887,3.83859,3.83859,0,0,0,.87012-.14551q.38525-.10181.26563-.55518l-.1377-.52148-2.31152.61084Zm.97949-5.65283-2.31152.61084.23633.89551,2.31152-.61084ZM52.21787,42.369l2.31152-.61084-.23047-.87207-2.31152.61084Zm3.73438-8.8042.09277.35156a5.98512,5.98512,0,0,1,.23438,1.75635,4.03237,4.03237,0,0,1-.4248,1.65088,6.49769,6.49769,0,0,0-.793-.481,3.25811,3.25811,0,0,0,.38672-1.24219,4.44717,4.44717,0,0,0-.18652-1.44141l-.291-1.09863,3.35449-.88574L59.004,34.747c.06445.24121.19727.33545.40137.28125l.92969-.24512a4.936,4.936,0,0,0,.01074.82129l-.99707.26367q-.81592.21533-1.06055-.71338l-.54492-2.0625Zm-.24707,5.16748-.19141-.72461,4.498-1.188.18848.71387a8.728,8.728,0,0,1-.73437,3.55176,6.28879,6.28879,0,0,0,2.70215.54639q-.19482.49951-.334.98535a7.66405,7.66405,0,0,1-2.79883-.82422A8.21515,8.21515,0,0,1,56.669,44.02967q-.3501-.356-.708-.66162a8.27424,8.27424,0,0,0,2.36328-2.01758,7.30356,7.30356,0,0,1-2.17676-2.73486Zm1.22363-.32324a5.74153,5.74153,0,0,0,1.82129,2.2583,6.20774,6.20774,0,0,0,.61523-2.90186Z" style="fill:#42210b"/><path d="M61.77549,32.28163l4.94531-1.30615a14.06867,14.06867,0,0,0-.999-1.00928l.72559-.60352a11.3294,11.3294,0,0,1,1.17383,1.09619l-.43555.39355,4.86621-1.28516.50293,1.90332-.918.24219-.27832-1.05371-8.44043,2.23.27832,1.05371-.918.24219Zm1.792,8.25293,5.00879-1.32275-.68262-2.583-4.03418,1.06543-.2207-.83887,4.0332-1.06543-.43652-1.6543-4.46484,1.1792-.22168-.83789,9.87988-2.60986.22168.83789-4.45215,1.17627.43652,1.6543,4.06738-1.07422.22168.83887L68.85655,36.3744l.68262,2.583L74.60362,37.62l.22363.84961L63.79209,41.38417Zm6.832-3.73193.53125-.69727a14.5625,14.5625,0,0,1,1.7832,1.15283l-.58691.76074A17.87958,17.87958,0,0,0,70.39952,36.80262Z" style="fill:#42210b"/></g></g></svg>