<svg xmlns="http://www.w3.org/2000/svg" xmlns:xlink="http://www.w3.org/1999/xlink" viewBox="0 0 85.03759 66.88895"><defs><linearGradient id="linear-gradient" x1="60.92126" y1="54.48998" x2="69.94149" y2="56.78576" gradientUnits="userSpaceOnUse"><stop offset="0.0034" stop-color="#f9b500"/><stop offset="0.33765" stop-color="#faae06"/><stop offset="0.81965" stop-color="#fd9b16"/><stop offset="1" stop-color="#ff921e"/></linearGradient><linearGradient id="linear-gradient-2" x1="-200.28893" y1="-305.4016" x2="-130.63407" y2="-305.4016" gradientTransform="translate(120.23818 388.85061) rotate(14.27665)" gradientUnits="userSpaceOnUse"><stop offset="0.0034" stop-color="#c38e00"/><stop offset="0.35843" stop-color="#c28705"/><stop offset="0.87034" stop-color="#bf7413"/><stop offset="1" stop-color="#be6e17"/></linearGradient><linearGradient id="linear-gradient-3" x1="-0.15147" y1="13.42025" x2="84.20453" y2="34.89003" xlink:href="#linear-gradient"/><linearGradient id="linear-gradient-4" x1="4.68337" y1="34.71286" x2="76.88634" y2="34.71286" gradientUnits="userSpaceOnUse"><stop offset="0.0034" stop-color="#d10272"/><stop offset="1" stop-color="#931668"/></linearGradient><linearGradient id="linear-gradient-5" x1="57.62147" y1="1.92027" x2="75.09902" y2="1.92027" xlink:href="#linear-gradient-4"/><linearGradient id="linear-gradient-6" x1="40.48098" y1="64.00438" x2="45.61453" y2="64.00438" gradientUnits="userSpaceOnUse"><stop offset="0" stop-color="#3fa8f4"/><stop offset="0.43052" stop-color="#2e99e5"/><stop offset="1" stop-color="#1180cb"/></linearGradient><linearGradient id="linear-gradient-7" x1="-123.16046" y1="-332.06715" x2="-186.65677" y2="-307.23524" gradientTransform="translate(120.23818 388.85061) rotate(14.27665)" gradientUnits="userSpaceOnUse"><stop offset="0.0034" stop-color="#f9d14c"/><stop offset="0.27761" stop-color="#facd45"/><stop offset="0.67289" stop-color="#fcc332"/><stop offset="1" stop-color="#ffb81d"/></linearGradient></defs><title>北京骰寶</title><g id="圖層_2" data-name="圖層 2"><g id="彩種圖"><path d="M70.17246,55.87824a60.24152,60.24152,0,0,0-11.02654,5.58718c2.30511-4.52144,4.61-8.90776,6.91493-13.09461Q68.11691,52.01175,70.17246,55.87824Z" style="fill:url(#linear-gradient)"/><path d="M4.68337,30.78891C7.22357,40.80168,9.764,50.35449,12.3042,59.5349c19.28938,7.53425,38.57888-6.4178,57.86826-3.65666q-2.05587-3.8732-4.11161-7.50743C45.60175,41.955,25.14262,51.28754,4.68337,30.78891Z" style="fill:url(#linear-gradient-2)"/><path d="M85.03759,31.42422C68.10819,14.95146,32.24632,7.83081,0,12.82511c5.17283,2.46876,9.11543,5.18577,9.58172,11.9579,22.64155-4.94308,57.15626,7.51013,71.8114,21.1532Q83.21506,38.53144,85.03759,31.42422Z" style="fill:url(#linear-gradient-3)"/><polygon points="4.683 2.537 19.986 53.037 42.793 53.037 48.297 66.889 56.078 53.037 71.949 53.037 76.886 7.933 4.683 2.537" style="fill:url(#linear-gradient-4)"/><path d="M74.80254,27.064C59.40576,23.37123,40.98616,31.38421,30.488,31.83125c-7.96446.33873-15.09376-3.04211-18.45521-4.95677l2.62908,8.62926L42.71952,53.03686H42.793l.0245.11755.14439.119a76.30106,76.30106,0,0,1,18.22974-5.25234,24.36323,24.36323,0,0,1,11.21481.9377Z" style="opacity:0.14"/><polygon points="57.621 3.841 75.099 3.841 69.733 0 57.621 3.841" style="fill:url(#linear-gradient-5)"/><polygon points="45.615 65.768 43.285 62.241 40.481 63.417 45.615 65.768" style="fill:url(#linear-gradient-6)"/><path d="M20.3093,23.88267l.07227-.8877a13.16948,13.16948,0,0,0,4.66406-.43213l.75-9.19678L21.278,12.99742l.07227-.8877,4.51758.36865.42773-5.24365,3.30762.26953L28.06418,26.38218l-3.30762-.26953.25586-3.146Q23.697,24.159,20.3093,23.88267ZM37.7761,10.85045l2.98535.24316q-.85693,2.53125-2.07422,5.51611-.60791,2.469-4.292,1.84277l-.40723,5.002q-.40869,1.998,1.70508,2.00732l1.209.09863q1.91016.479,2.94434-3.25293-.17725,5.18262-3.21094,4.53027l-3.22656-.26318q-3.07471-.17065-2.66113-3.22217L32.02414,7.70152l3.22656.26318-.83594,10.24561A6.81659,6.81659,0,0,0,36.00364,15.66Q36.63205,13.92564,37.7761,10.85045Z" style="fill:#fff"/><path d="M47.20774,21.284l2.98535.24316q-1.1792,2.50342-2.3125,4.44092-.92578,1.38574-4.61523.8418Q44.89426,25.72447,47.20774,21.284Zm16.165-8.02148L44.33371,11.70982l.06543-.80664,7.3418.59863.17773-2.17773,4.35645.355-.17773,2.17822,7.34082.59863Zm-14.5332,6.936-3.46973-.2832.5127-6.29248,3.46973.2832-.09863,1.21q.252-1.11548,2.02832-.97119l7.42285.605q2.90332.2373,2.65234,2.32764l-.14551,1.7749q-.18311,2.25952-2.27539,2.00732l-3.62988-.29639L54.82,26.534q-.17725,2.17822-2.92187,1.9541a4.11147,4.11147,0,0,1-3.749-2.82324,3.99775,3.99775,0,0,0,2.13281.74219q1.13379.01172,1.24707-1.36035l.3877-4.75977-1.04785-.085q-1.78125-.06372-1.9375-1.13281Zm.3623-4.43652-.21094,2.58105a1.03719,1.03719,0,0,0,1.0498,1.06006l6.21191.50684q1.12939.09155,1.248-1.36035l.15137-1.85547q.09961-1.21069-1.50879-1.42187l-4.9209-.40137Q49.45432,14.6461,49.20188,15.76207Zm6.7998,6.23877,2.98438.24365q1.47949,4.749,2.99512,6.0918-3.81152-.06738-4.41895-1.57861A33.69465,33.69465,0,0,1,56.00168,22.00084Z" style="fill:#fff"/><path d="M4.67008,30.83281c26.7889,17.25168,53.57814-16.6603,80.36751.5914q-1.82246,7.10259-3.64447,14.512C58.36332,37.75716,35.33365,63.95952,12.3042,59.5349,9.7595,50.37057,7.21465,40.8324,4.67008,30.83281Z" style="fill:url(#linear-gradient-7)"/><path d="M33.50852,42.286l.77637-.20508-.91211-3.45312,4.41016-1.165.91309,3.45313.78809-.2085L40.00559,42.68l-.74121.1958L38.948,41.68052l-4.49316,1.187.32227,1.21875-.74121.1958Zm3.709-3.86816-2.88086.76074.24609.93262,1.91211-.50488.46777,1.76758.96777-.25586Zm-1.29785,2.10693-1.14746.30322.27832,1.05078,1.14746-.30322Zm1.416,9.03613-.78906.208-1.59473-6.03516L38.9675,42.6732l1.26563,4.793q.25049.94336-.40723,1.31006a5.52087,5.52087,0,0,1-1.24609.36719,6.96906,6.96906,0,0,0-.374-.88574,4.19249,4.19249,0,0,0,.918-.15234q.40723-.10767.28027-.58594l-.14453-.5498-2.43848.644Zm1.0332-5.9624-2.43848.644.249.94434,2.43848-.644ZM36.6218,46.85972l2.43848-.644-.24316-.91895-2.43848.644Zm3.93945-9.28662.09766.37012a6.3222,6.3222,0,0,1,.24707,1.853,4.24987,4.24987,0,0,1-.44824,1.7417,6.68745,6.68745,0,0,0-.83691-.50684,3.45634,3.45634,0,0,0,.4082-1.31055,4.70326,4.70326,0,0,0-.19727-1.52051l-.30566-1.15918,3.53711-.93408.7168,2.71289q.10107.38232.4248.29736l.97949-.25879a5.25123,5.25123,0,0,0,.01074.86523l-1.05176.27783c-.57324.15137-.94629-.09814-1.11914-.75244l-.57422-2.1748Zm-.26074,5.45117-.20117-.76465,4.74512-1.25342.19824.75293a9.203,9.203,0,0,1-.77539,3.74609,6.62116,6.62116,0,0,0,2.85059.57715c-.1377.35059-.25488.69824-.35156,1.03955a8.08717,8.08717,0,0,1-2.95312-.86963,8.65609,8.65609,0,0,1-2.49609,2.35986c-.24609-.25146-.49512-.4834-.74707-.69873A8.71317,8.71317,0,0,0,43.06321,45.786a7.70551,7.70551,0,0,1-2.2959-2.88477Zm1.291-.34082a6.048,6.048,0,0,0,1.9209,2.38184,6.56012,6.56012,0,0,0,.64941-3.06055Z" style="fill:#42210b"/><path d="M46.70383,36.21812l5.2168-1.37793q-.4541-.512-1.05371-1.064l.76465-.63574a11.95335,11.95335,0,0,1,1.23828,1.15527l-.459.415,5.13379-1.356.53027,2.00879-.96875.25537-.293-1.11133-8.9043,2.35205.293,1.11133-.96777.25586Zm1.89063,8.70752,5.28223-1.39551L53.157,40.80455l-4.25391,1.124-.2334-.88379,4.25391-1.124-.46094-1.74512-4.709,1.24414-.2334-.88477,10.42188-2.75293.23438.88477-4.69727,1.24023.46094,1.74512,4.29-1.13281.2334.88379-4.29,1.13281.71973,2.72559,5.34277-1.41113.23633.89648-11.6416,3.0752Zm7.207-3.93652.56055-.73633a15.46371,15.46371,0,0,1,1.88086,1.2168l-.61914.80273A18.55752,18.55752,0,0,0,55.80149,40.98912Z" style="fill:#42210b"/></g></g></svg>