<svg xmlns="http://www.w3.org/2000/svg" xmlns:xlink="http://www.w3.org/1999/xlink" viewBox="0 0 141 121.21"><defs><linearGradient id="linear-gradient" x1="101.01" y1="97.05" x2="115.97" y2="100.86" gradientUnits="userSpaceOnUse"><stop offset="0" stop-color="#f8b400"/><stop offset="0.34" stop-color="#f9ad06"/><stop offset="0.82" stop-color="#fd9a16"/><stop offset="1" stop-color="#ff911e"/></linearGradient><linearGradient id="linear-gradient-2" x1="-884.35" y1="-1083.56" x2="-768.86" y2="-1083.56" gradientTransform="translate(592.22 1346.98) rotate(14.28)" gradientUnits="userSpaceOnUse"><stop offset="0" stop-color="#c28d00"/><stop offset="0.37" stop-color="#c18605"/><stop offset="0.89" stop-color="#be7313"/><stop offset="1" stop-color="#bd6e17"/></linearGradient><linearGradient id="linear-gradient-3" x1="-0.25" y1="28.95" x2="139.62" y2="64.55" xlink:href="#linear-gradient"/><linearGradient id="未命名漸層_29" x1="34.72" y1="15.85" x2="111.24" y2="92.38" gradientUnits="userSpaceOnUse"><stop offset="0" stop-color="#e62c14"/><stop offset="1" stop-color="#c72c14"/></linearGradient><linearGradient id="linear-gradient-4" x1="7.74" y1="78.34" x2="141" y2="78.34" gradientUnits="userSpaceOnUse"><stop offset="0" stop-color="#f8d04c"/><stop offset="0.28" stop-color="#f9cc45"/><stop offset="0.67" stop-color="#fcc232"/><stop offset="1" stop-color="#ffb71d"/></linearGradient><linearGradient id="linear-gradient-5" x1="-7619.81" y1="876.7" x2="-7618.27" y2="926.35" gradientTransform="matrix(-0.9, 0.07, 0.1, 0.89, -6847.74, -263.92)" gradientUnits="userSpaceOnUse"><stop offset="0" stop-color="#fff"/><stop offset="1" stop-color="#fff" stop-opacity="0"/></linearGradient></defs><title>日_6</title><g id="圖層_2" data-name="圖層 2"><g id="圖層_1-2" data-name="圖層 1"><path d="M116.35,99.35a99.91,99.91,0,0,0-18.28,9.26c3.82-7.5,7.64-14.77,11.47-21.71Q112.94,92.94,116.35,99.35Z" style="fill:url(#linear-gradient)"/><path d="M7.77,57.75C12,74.35,16.19,90.19,20.4,105.41c32,12.49,64-10.64,96-6.06q-3.41-6.42-6.82-12.45C75.61,76.27,41.69,91.74,7.77,57.75Z" style="fill:url(#linear-gradient-2)"/><path d="M141,58.8C112.93,31.49,53.47,19.68,0,28c8.28,2.53,15.89,8.87,15.89,8.87s-1.56,3.7-5,10.92c37.54-8.2,99.74,12.49,124,35.12Q138,70.59,141,58.8Z" style="fill:url(#linear-gradient-3)"/><path d="M127.1,54.12A54.11,54.11,0,1,0,73,108.23l1.61,0,6.11,13,10.09-16A54.13,54.13,0,0,0,127.1,54.12Z" style="fill:url(#未命名漸層_29)"/><path d="M127.1,54.12q0-1.39-.07-2.75c-27.48-5.89-59.12,7.38-76.47,8.12a48.29,48.29,0,0,1-31-10.14l-.51.9c-.09,1.28-.14,2.57-.14,3.88a54.07,54.07,0,0,0,2.59,16.56l49.78,24.4a126.47,126.47,0,0,1,30.23-8.73,35.94,35.94,0,0,1,14.73.35A53.87,53.87,0,0,0,127.1,54.12Z" style="opacity:0.14"/><path d="M7.74,57.82C52.16,86.43,96.58,30.2,141,58.8q-3,11.78-6,24.06C96.77,69.3,58.59,112.75,20.4,105.41,16.18,90.22,12,74.4,7.74,57.82Z" style="fill:url(#linear-gradient-4)"/><polygon points="71.69 12.19 76.37 26.56 91.48 26.56 79.26 35.45 83.93 49.83 71.69 40.94 59.47 49.83 64.14 35.45 51.91 26.56 67.03 26.56 71.69 12.19" style="fill:gold"/><path d="M32.75,40.38c2.06,18.23,21.74,31.63,44,29.93s38.56-17.87,36.5-36.1S91.47,2.58,69.25,4.28,30.69,22.15,32.75,40.38Z" style="fill:url(#linear-gradient-5)"/><path d="M34.56,76l2.27-.52,1.44,10.25,8.58-12.55,2.27-.52L38.25,88.33l-1.7.39Z" style="fill:#42210b"/><path d="M51.18,72.28l2.36-.54,4.1,9.34L61.1,70l2.17-.5-4.39,14-2.36.54-4.09-9.34L49,85.8l-2.17.5Z" style="fill:#42210b"/><path d="M72.69,71.08a7.54,7.54,0,0,1,2.39-3.44,7.77,7.77,0,0,1,3.36-1.76q2.08-.48,3,.31t.31,2.36A5.68,5.68,0,0,1,80,71.22a4.83,4.83,0,0,1-1.62,1,2.11,2.11,0,0,1,1.35.45q.83.72.31,2.36a7.12,7.12,0,0,1-2.25,3.26,9.24,9.24,0,0,1-4,2,3.23,3.23,0,0,1-2.95-.39,2.11,2.11,0,0,1-.48-2.4l.21-.66,2.18-.5-.18.57a1.42,1.42,0,0,0,.29,1.61,1.55,1.55,0,0,0,1.43.21,5,5,0,0,0,2.19-1.11,4.74,4.74,0,0,0,1.4-2.22q.36-1.15-.19-1.63a1.62,1.62,0,0,0-1.5-.27l-.76.17.44-1.39.57-.13A4.81,4.81,0,0,0,79.56,69a1.38,1.38,0,0,0-.21-1.55A1.52,1.52,0,0,0,78,67.35a4,4,0,0,0-1.69.92,5.53,5.53,0,0,0-1.52,2.33Z" style="fill:#42210b"/><path d="M83.37,70.61a12,12,0,0,1,3.53-5.68A8.45,8.45,0,0,1,90.57,63a3.23,3.23,0,0,1,2.95.39q1.38,1.21.25,4.82l-.51,1.64a11.88,11.88,0,0,1-3.51,5.6,8.48,8.48,0,0,1-3.67,1.91A3.23,3.23,0,0,1,83.13,77c-.92-.8-1-2.38-.27-4.73Zm4.8-5a9.17,9.17,0,0,0-2.49,4.3l-.59,1.89q-.9,2.87.06,3.72a1.5,1.5,0,0,0,1.4.29,4.51,4.51,0,0,0,1.91-1A9.16,9.16,0,0,0,91,70.47l.59-1.89q.93-3,0-3.74a1.6,1.6,0,0,0-1.49-.27A4.51,4.51,0,0,0,88.17,65.62Z" style="fill:#42210b"/><path d="M102.69,63l3-.69-.49,1.56-3,.69-.67,2.13a4.94,4.94,0,0,1,2.76,1.27l-1.65,1.9a5.48,5.48,0,0,0-1.73-1.2l-2.44,7.79-1.89.43,2.34-7.46a30.5,30.5,0,0,1-3.68,4.19l-1-1.07a35.29,35.29,0,0,0,6-7.53l-3.4.78.49-1.56,3.5-.8.85-2.71-2.91.9.06-1.31a55.68,55.68,0,0,0,8-2.9l.13,1.26c0,.3-.21.41-.71.32q-1.31.53-2.58,1Zm12.23,2.68c.25.15.11.31-.41.48a27.7,27.7,0,0,1-13,9.3l0-1.53a25,25,0,0,0,12-8.75Zm-11.09.94a38.34,38.34,0,0,0,4.07-6.26l1.83,0c.18.16,0,.32-.41.48a33.93,33.93,0,0,1-4.12,6.42Zm10-10.36-3.54,11.32a2.4,2.4,0,0,1-1.92,1.66l-1.32.3,0-1.45,1-.24a.6.6,0,0,0,.48-.42l3.52-11.24,1.79-.41C114.38,55.71,114.36,55.87,113.83,56.24Zm.25,3.14,1.77-1.17a8.67,8.67,0,0,1,1.73,4.55l-2.11,1.39A13.66,13.66,0,0,0,114.08,59.38Z" style="fill:#42210b"/></g></g></svg>