<svg xmlns="http://www.w3.org/2000/svg" xmlns:xlink="http://www.w3.org/1999/xlink" viewBox="0 0 85.038 66.88927"><defs><linearGradient id="linear-gradient" x1="60.92155" y1="54.49024" x2="69.94182" y2="56.78603" gradientUnits="userSpaceOnUse"><stop offset="0.0034" stop-color="#f9b500"/><stop offset="0.33765" stop-color="#faae06"/><stop offset="0.81965" stop-color="#fd9b16"/><stop offset="1" stop-color="#ff921e"/></linearGradient><linearGradient id="linear-gradient-2" x1="-126.25962" y1="-373.43936" x2="-56.60443" y2="-373.43936" gradientTransform="translate(31.71828 436.53058) rotate(14.27665)" gradientUnits="userSpaceOnUse"><stop offset="0.0034" stop-color="#c38e00"/><stop offset="0.35843" stop-color="#c28705"/><stop offset="0.87034" stop-color="#bf7413"/><stop offset="1" stop-color="#be6e17"/></linearGradient><linearGradient id="linear-gradient-3" x1="-0.15147" y1="13.42031" x2="84.20493" y2="34.89019" xlink:href="#linear-gradient"/><linearGradient id="linear-gradient-4" x1="33.93469" y1="18.71801" x2="44.22207" y2="21.33629" gradientUnits="userSpaceOnUse"><stop offset="0.0034" stop-color="#ec1e79"/><stop offset="1" stop-color="#ae0663"/></linearGradient><linearGradient id="linear-gradient-5" x1="4.68339" y1="34.71303" x2="76.8867" y2="34.71303" gradientUnits="userSpaceOnUse"><stop offset="0.0034" stop-color="#d10272"/><stop offset="1" stop-color="#931668"/></linearGradient><linearGradient id="linear-gradient-6" x1="59.01707" y1="1.92028" x2="76.8867" y2="1.92028" xlink:href="#linear-gradient-5"/><linearGradient id="linear-gradient-7" x1="40.48118" y1="64.00469" x2="45.61475" y2="64.00469" gradientUnits="userSpaceOnUse"><stop offset="0" stop-color="#3fa8f4"/><stop offset="0.43052" stop-color="#2e99e5"/><stop offset="1" stop-color="#1180cb"/></linearGradient><linearGradient id="linear-gradient-8" x1="-49.13079" y1="-400.10504" x2="-112.62739" y2="-375.27301" gradientTransform="translate(31.71828 436.53058) rotate(14.27665)" gradientUnits="userSpaceOnUse"><stop offset="0.0034" stop-color="#f9d14c"/><stop offset="0.27761" stop-color="#facd45"/><stop offset="0.67289" stop-color="#fcc332"/><stop offset="1" stop-color="#ffb81d"/></linearGradient></defs><title>廣西骰寶</title><g id="圖層_2" data-name="圖層 2"><g id="圖層_1-2" data-name="圖層 1"><path d="M70.1728,55.8785a60.24181,60.24181,0,0,0-11.0266,5.58721c2.30512-4.52146,4.61-8.9078,6.915-13.09468Q68.11723,52.012,70.1728,55.8785Z" style="fill:url(#linear-gradient)"/><path d="M4.68339,30.78906C7.2236,40.80188,9.764,50.35473,12.30426,59.53518c19.28947,7.53429,38.57907-6.41783,57.86854-3.65668q-2.05588-3.87322-4.11163-7.50747C45.602,41.95515,25.14274,51.28779,4.68339,30.78906Z" style="fill:url(#linear-gradient-2)"/><path d="M85.038,31.42437C68.10852,14.95153,32.24647,7.83084,0,12.82517c5.17286,2.46877,9.11547,5.18579,9.58177,11.958C32.22342,19.84,66.7383,32.2933,81.39351,45.93643Q83.21545,38.53162,85.038,31.42437Z" style="fill:url(#linear-gradient-3)"/><path d="M34.25015,17.47856C38.40421,15.701,42.558,13.599,46.712,11.55338c-3.09466,6.17784-6.1892,12.38692-9.28374,18.47041Q35.83893,23.7764,34.25015,17.47856Z" style="fill:url(#linear-gradient-4)"/><polygon points="4.683 2.537 19.986 53.037 42.793 53.037 48.297 66.889 56.078 53.037 71.949 53.037 76.887 7.934 4.683 2.537" style="fill:url(#linear-gradient-5)"/><path d="M74.80289,27.0641C59.406,23.37134,40.98635,31.38436,30.48813,31.8314c-7.9645.33873-15.09383-3.04212-18.4553-4.95679l2.62909,8.6293,28.0578,17.5332h.07352l.0245.11755.14439.119A76.30142,76.30142,0,0,1,61.192,48.02131a24.36335,24.36335,0,0,1,11.21487.93771Z" style="opacity:0.14"/><polygon points="59.017 3.841 76.887 3.841 71.4 0 59.017 3.841" style="fill:url(#linear-gradient-6)"/><polygon points="45.615 65.768 43.285 62.241 40.481 63.417 45.615 65.768" style="fill:url(#linear-gradient-7)"/><path d="M4.6701,30.833c26.789,17.25176,53.5784-16.66038,80.3679.59141Q83.21553,38.527,81.39351,45.93643C58.3636,37.75734,35.33382,63.95982,12.30426,59.53518,9.75955,50.37081,7.21469,40.8326,4.6701,30.833Z" style="fill:url(#linear-gradient-8)"/><path d="M30.06313,48.32654a2.49065,2.49065,0,0,1-.9248,1.23535,4.68224,4.68224,0,0,1-1.793.78711l-8.03711,1.84277.68262-2.18164L27.2936,48.3363l.44141-1.40918-4.11035.94189a7.06468,7.06468,0,0,1-2.26953.29248q-.665-.13184-.36328-1.10059l.70313-2.24316a2.63117,2.63117,0,0,1,1.166-1.46191,7.952,7.952,0,0,1,2.46094-.90576l6.38379-1.46338-.67578,2.1582-6.48242,1.48633-.44531,1.42188,4.90039-1.124q2.28955-.52441,1.77832,1.10547Z" style="fill:#42210b"/><path d="M33.53286,48.931l-3.08008.70605,2.042-6.52148,3.08008-.70605Zm2.42188-7.73437-3.08008.70605.39941-1.27539,3.08008-.70605Z" style="fill:#42210b"/><path d="M41.73989,47.05017l-5.18555,1.18848a1.693,1.693,0,0,1-1.43164-.11621q-.43066-.34424-.14941-1.24023l.90137-2.87891a3.21915,3.21915,0,0,1,1.06641-1.51855,4.131,4.131,0,0,1,1.75781-.88184L43.81216,40.431l-.63281,2.02246-4.45117,1.02L37.92641,46.035l4.4502-1.02Z" style="fill:#42210b"/><path d="M58.445,41.43493a3.38977,3.38977,0,0,1-.96094,1.5625,3.90737,3.90737,0,0,1-1.80273.85742l-8.26367,1.894,2.82129-9.00977,8.292-1.90039q1.13086-.25928,1.502.02.38086.28931.10547,1.1709l-.40625,1.29883a1.75938,1.75938,0,0,1-.42383.72314,10.2298,10.2298,0,0,1-1.18262.93115q.68555.06958.80762.34961a1.15025,1.15025,0,0,1-.06934.7666Zm-2.95605.439.50684-1.61816-4.33691.99365L51.152,42.86755Zm.97461-3.11328L56.9518,37.204l-4.33691.99365-.48828,1.55664Z" style="fill:#42210b"/><path d="M67.84927,39.16638A3.48461,3.48461,0,0,1,66.71352,40.826a4.69627,4.69627,0,0,1-1.97754.95361l-4.22266.96777a1.343,1.343,0,0,1-1.2627-.2002,1.22978,1.22978,0,0,1-.1875-1.36719l.84863-2.709a3.27378,3.27378,0,0,1,.99414-1.50293,3.76437,3.76437,0,0,1,1.6377-.83008l4.40723-1.00977a1.90442,1.90442,0,0,1,1.55566.09863q.46436.36035.19043,1.23047Zm-2.80078.65234.80273-2.56152-3.207.73535-.80273,2.56152Z" style="fill:#42210b"/><path d="M24.46548,17.89392q.23145,2.23828-1.85059,2.125l-4.59668-.24951A2.29146,2.29146,0,0,1,15.694,17.41736L15.27016,13.326a2.18306,2.18306,0,0,1,.32715-1.686,1.97806,1.97806,0,0,1,1.60352-.43457l6.51367.354.21289,2.05127-6.11426-.332.459,4.42969,3.69238.20068-.11816-1.14258-1.14062-.062-.18555-1.7832,3.65723.19873Z" style="fill:#fff"/><path d="M33.56118,20.61364l-2.31641-.12549-.0918-.88574a2.3138,2.3138,0,0,1-1.85937.7793l-1.623-.08789q-1.563-.085-1.7627-2.0083L25.654,15.83777,25.0895,15.807l-.19922-1.92334,1.44531.07861a1.4918,1.4918,0,0,1,1.5791,1.46484l.30762,2.97217,2.82227.15332-.45215-4.35937,2.31641.126Z" style="fill:#fff"/><path d="M42.05044,21.07507,40.58071,20.995a1.61766,1.61766,0,0,1-.86816-.25586,2.752,2.752,0,0,1-.74121-.94434,1.58351,1.58351,0,0,1-.5166.876,1.32221,1.32221,0,0,1-.83789.16357l-1.63379-.08887a1.8255,1.8255,0,0,1-1.88574-1.84131l-.291-2.80908q-.18018-1.7373,1.52441-1.644l1.72852.09375a1.65659,1.65659,0,0,1,.91016.31592,3.63649,3.63649,0,0,1,.74023.7124l-.09863-.94385,2.31641.126.45215,4.35938.4707.02539Zm-2.9873-2.08643-.25293-2.436-2.64453-.14355.25293,2.436Z" style="fill:#fff"/><path d="M50.77407,21.54919l-1.50488-.082a1.65,1.65,0,0,1-1.04883-.416,1.37484,1.37484,0,0,1-.46777-.90625l-.32422-3.124L44.63052,16.869l.45313,4.37109-2.31641-.126-.65234-6.29443,2.31641.126.09082.874a2.30668,2.30668,0,0,1,1.86035-.76807l.918.0498a2.67369,2.67369,0,0,1,1.8457.66846,2.96552,2.96552,0,0,1,.666,1.79736l.209,2.0166.55273.03027Z" style="fill:#fff"/><path d="M58.76137,21.34558a2.40378,2.40378,0,0,1-.28516,1.75781,1.90992,1.90992,0,0,1-1.60254.43457l-2.70508-.147-.15918-1.53906,2.50488.13623L56.4,20.89245l-.34863-.08838a.98306.98306,0,0,1-.39746.55811,1.63589,1.63589,0,0,1-.83008.11719l-1.6582-.09033a1.7997,1.7997,0,0,1-1.88086-1.79395l-.26855-2.58789q-.17725-1.71313,1.52734-1.62109l1.752.09521a1.74854,1.74854,0,0,1,.90723.293,4.44348,4.44348,0,0,1,.74219.72412l-.09668-.93262,2.32715.12646Zm-2.4873-1.67676L56.04458,17.454l-2.66895-.145.22949,2.21484Z" style="fill:#fff"/><path d="M67.65786,22.46667l-2.54-.13818L63.75747,19.577l-1.14062-.062-.81445,2.6333-2.55078-.13867,1.124-3.25391L58.611,15.71618l2.59863.14111L62.569,18.37683l1,.0542.84961-2.39941,2.5752.14014-1.12793,2.88232Z" style="fill:#fff"/><path d="M70.11782,15.286l-2.56348-.13916-.126-1.21191,2.56348.13916Zm.76172,7.35547-2.56348-.13916-.64258-6.20117,2.56348.13916Z" style="fill:#fff"/></g></g></svg>