<svg xmlns="http://www.w3.org/2000/svg" xmlns:xlink="http://www.w3.org/1999/xlink" viewBox="0 0 85.038 66.88927"><defs><linearGradient id="linear-gradient" x1="60.92155" y1="54.49024" x2="69.94182" y2="56.78603" gradientUnits="userSpaceOnUse"><stop offset="0.0034" stop-color="#f9b500"/><stop offset="0.33765" stop-color="#faae06"/><stop offset="0.81965" stop-color="#fd9b16"/><stop offset="1" stop-color="#ff921e"/></linearGradient><linearGradient id="linear-gradient-2" x1="-107.21665" y1="-218.76157" x2="-37.56146" y2="-218.76157" gradientTransform="translate(51.40728 281.93634) rotate(14.27665)" gradientUnits="userSpaceOnUse"><stop offset="0.0034" stop-color="#c38e00"/><stop offset="0.35843" stop-color="#c28705"/><stop offset="0.87034" stop-color="#bf7413"/><stop offset="1" stop-color="#be6e17"/></linearGradient><linearGradient id="linear-gradient-3" x1="-0.15147" y1="13.42031" x2="84.20493" y2="34.89019" xlink:href="#linear-gradient"/><linearGradient id="linear-gradient-4" x1="33.93469" y1="18.71801" x2="44.22207" y2="21.33629" gradientUnits="userSpaceOnUse"><stop offset="0.0034" stop-color="#ec1e79"/><stop offset="1" stop-color="#ae0663"/></linearGradient><linearGradient id="linear-gradient-5" x1="4.68339" y1="34.71303" x2="76.8867" y2="34.71303" gradientUnits="userSpaceOnUse"><stop offset="0.0034" stop-color="#d10272"/><stop offset="1" stop-color="#931668"/></linearGradient><linearGradient id="linear-gradient-6" x1="59.01707" y1="1.92028" x2="76.8867" y2="1.92028" xlink:href="#linear-gradient-5"/><linearGradient id="linear-gradient-7" x1="40.48118" y1="64.00469" x2="45.61475" y2="64.00469" gradientUnits="userSpaceOnUse"><stop offset="0" stop-color="#3fa8f4"/><stop offset="0.43052" stop-color="#2e99e5"/><stop offset="1" stop-color="#1180cb"/></linearGradient><linearGradient id="linear-gradient-8" x1="-30.08782" y1="-245.42725" x2="-93.58442" y2="-220.59522" gradientTransform="translate(51.40728 281.93634) rotate(14.27665)" gradientUnits="userSpaceOnUse"><stop offset="0.0034" stop-color="#f9d14c"/><stop offset="0.27761" stop-color="#facd45"/><stop offset="0.67289" stop-color="#fcc332"/><stop offset="1" stop-color="#ffb81d"/></linearGradient></defs><title>湖北骰寶</title><g id="圖層_2" data-name="圖層 2"><g id="圖層_1-2" data-name="圖層 1"><path d="M70.1728,55.8785a60.24181,60.24181,0,0,0-11.0266,5.58721c2.30512-4.52146,4.61-8.9078,6.915-13.09468Q68.11723,52.012,70.1728,55.8785Z" style="fill:url(#linear-gradient)"/><path d="M4.68339,30.78906C7.2236,40.80188,9.764,50.35473,12.30426,59.53518c19.28947,7.53429,38.57907-6.41783,57.86854-3.65668q-2.05588-3.87322-4.11163-7.50747C45.602,41.95515,25.14274,51.28779,4.68339,30.78906Z" style="fill:url(#linear-gradient-2)"/><path d="M85.038,31.42437C68.10852,14.95153,32.24647,7.83084,0,12.82517c5.17286,2.46877,9.11547,5.18579,9.58177,11.958C32.22342,19.84,66.7383,32.2933,81.39351,45.93643Q83.21545,38.53162,85.038,31.42437Z" style="fill:url(#linear-gradient-3)"/><path d="M34.25015,17.47856C38.40421,15.701,42.558,13.599,46.712,11.55338c-3.09466,6.17784-6.1892,12.38692-9.28374,18.47041Q35.83893,23.7764,34.25015,17.47856Z" style="fill:url(#linear-gradient-4)"/><polygon points="4.683 2.537 19.986 53.037 42.793 53.037 48.297 66.889 56.078 53.037 71.949 53.037 76.887 7.934 4.683 2.537" style="fill:url(#linear-gradient-5)"/><path d="M74.80289,27.0641C59.406,23.37134,40.98635,31.38436,30.48813,31.8314c-7.9645.33873-15.09383-3.04212-18.4553-4.95679l2.62909,8.6293,28.0578,17.5332h.07352l.0245.11755.14439.119A76.30142,76.30142,0,0,1,61.192,48.02131a24.36335,24.36335,0,0,1,11.21487.93771Z" style="opacity:0.14"/><polygon points="59.017 3.841 76.887 3.841 71.4 0 59.017 3.841" style="fill:url(#linear-gradient-6)"/><polygon points="45.615 65.768 43.285 62.241 40.481 63.417 45.615 65.768" style="fill:url(#linear-gradient-7)"/><path d="M4.6701,30.833c26.789,17.25176,53.5784-16.66038,80.3679.59141Q83.21553,38.527,81.39351,45.93643C58.3636,37.75734,35.33382,63.95982,12.30426,59.53518,9.75955,50.37081,7.21469,40.8326,4.6701,30.833Z" style="fill:url(#linear-gradient-8)"/><path d="M30.06339,48.32638a2.49065,2.49065,0,0,1-.9248,1.23535,4.68224,4.68224,0,0,1-1.793.78711l-8.03711,1.84277L19.99113,50.01l7.30273-1.67383.44141-1.40918-4.11035.94189a7.06468,7.06468,0,0,1-2.26953.29248q-.665-.13184-.36328-1.10059l.70313-2.24316a2.63117,2.63117,0,0,1,1.166-1.46191,7.952,7.952,0,0,1,2.46094-.90576L31.706,40.98653l-.67578,2.1582-6.48242,1.48633-.44531,1.42188,4.90039-1.124q2.28955-.52441,1.77832,1.10547Z" style="fill:#42210b"/><path d="M33.53312,48.93087l-3.08008.70605,2.042-6.52148,3.08008-.70605ZM35.955,41.1965l-3.08008.70605.39941-1.27539,3.08008-.70605Z" style="fill:#42210b"/><path d="M41.74015,47.05,36.5546,48.23849a1.693,1.693,0,0,1-1.43164-.11621q-.43066-.34424-.14941-1.24023l.90137-2.87891a3.21915,3.21915,0,0,1,1.06641-1.51855,4.131,4.131,0,0,1,1.75781-.88184l5.11328-1.17187-.63281,2.02246-4.45117,1.02-.80176,2.56152,4.4502-1.02Z" style="fill:#42210b"/><path d="M58.44523,41.43478a3.38977,3.38977,0,0,1-.96094,1.5625,3.90737,3.90737,0,0,1-1.80273.85742l-8.26367,1.894L50.23917,36.739l8.292-1.90039q1.13086-.25928,1.502.02.38086.28931.10547,1.1709l-.40625,1.29883a1.75938,1.75938,0,0,1-.42383.72314,10.2298,10.2298,0,0,1-1.18262.93115q.68555.06958.80762.34961a1.15025,1.15025,0,0,1-.06934.7666Zm-2.95605.439.50684-1.61816-4.33691.99365-.50684,1.61816Zm.97461-3.11328.48828-1.55664-4.33691.99365-.48828,1.55664Z" style="fill:#42210b"/><path d="M67.84953,39.16622a3.48461,3.48461,0,0,1-1.13574,1.65967,4.69627,4.69627,0,0,1-1.97754.95361l-4.22266.96777a1.343,1.343,0,0,1-1.2627-.2002,1.22978,1.22978,0,0,1-.1875-1.36719l.84863-2.709a3.27378,3.27378,0,0,1,.99414-1.50293,3.76437,3.76437,0,0,1,1.6377-.83008l4.40723-1.00977a1.90442,1.90442,0,0,1,1.55566.09863q.46436.36035.19043,1.23047Zm-2.80078.65234.80273-2.56152-3.207.73535-.80273,2.56152Z" style="fill:#42210b"/><path d="M29.47257,21.614l-3.61328-.19629-.5166-4.99268-5.00293-.272.5166,4.99268-3.59668-.19531L16.02628,9.03683l3.59668.19531.47852,4.61963,5.00293.272-.47852-4.61963,3.61328.19629Z" style="fill:#fff"/><path d="M41.96281,22.29269l-3.2207-.17529-.127-1.23242a3.21853,3.21853,0,0,1-2.58691,1.085l-2.25586-.12256q-2.17529-.11792-2.45117-2.793l-.35254-3.40381-.78516-.04248-.27734-2.67432,2.01172.10938a2.07436,2.07436,0,0,1,2.19434,2.0376L34.54,19.21358l3.92383.21289-.62793-6.062,3.2207.17529Z" style="fill:#fff"/><path d="M53.84855,20.56905q.24609,2.38184-2.124,2.25391l-2.28906-.12451a2.28762,2.28762,0,0,1-1.22266-.35645,3.358,3.358,0,0,1-.94824-1.29248,2.54255,2.54255,0,0,1-.78418,1.19824,1.81681,1.81681,0,0,1-1.14941.228l-2.02734-.11035-.27344-2.64209.6377.03467-.96-9.27148,3.20508.17432.47461,4.58691a4.26189,4.26189,0,0,1,.85156-.88867,1.84008,1.84008,0,0,1,1.18848-.29l2.4043.13037a2.51973,2.51973,0,0,1,2.61816,2.52832Zm-3.29687-.437-.3457-3.33936L46.52726,16.593l.3457,3.33936Z" style="fill:#fff"/><path d="M64.455,19.85567l-6.81738-.37012.123,1.18311,5.05273.27441.25781,2.49658-5.83789-.31738a2.5971,2.5971,0,0,1-2.72168-2.58154l-.3877-3.74414a2.15035,2.15035,0,0,1,.50781-1.84229,2.37176,2.37176,0,0,1,1.85938-.57568l5.3457.29q2.09326.11426,2.3584,2.6748Zm-3.1084-1.44189-.13086-1.26416-3.8418-.2085.13086,1.26416Z" style="fill:#fff"/><path d="M68.33781,13.55538l-3.56445-.19385-.1748-1.68555,3.56445.19385Zm1.05859,10.228-3.56445-.19385L64.93937,14.966l3.56445.19385Z" style="fill:#fff"/></g></g></svg>