<svg xmlns="http://www.w3.org/2000/svg" xmlns:xlink="http://www.w3.org/1999/xlink" viewBox="0 0 85.038 66.88927"><defs><linearGradient id="linear-gradient" x1="60.92155" y1="54.49024" x2="69.94182" y2="56.78603" gradientUnits="userSpaceOnUse"><stop offset="0.0034" stop-color="#f9b500"/><stop offset="0.33765" stop-color="#faae06"/><stop offset="0.81965" stop-color="#fd9b16"/><stop offset="1" stop-color="#ff921e"/></linearGradient><linearGradient id="linear-gradient-2" x1="-111.12331" y1="-244.65897" x2="-41.46813" y2="-244.65897" gradientTransform="translate(48.80693 307.9969) rotate(14.27665)" gradientUnits="userSpaceOnUse"><stop offset="0.0034" stop-color="#c38e00"/><stop offset="0.35843" stop-color="#c28705"/><stop offset="0.87034" stop-color="#bf7413"/><stop offset="1" stop-color="#be6e17"/></linearGradient><linearGradient id="linear-gradient-3" x1="-0.15147" y1="13.42031" x2="84.20493" y2="34.89019" xlink:href="#linear-gradient"/><linearGradient id="linear-gradient-4" x1="33.93469" y1="18.71801" x2="44.22207" y2="21.33629" gradientUnits="userSpaceOnUse"><stop offset="0.0034" stop-color="#ec1e79"/><stop offset="1" stop-color="#ae0663"/></linearGradient><linearGradient id="linear-gradient-5" x1="4.68339" y1="34.71303" x2="76.8867" y2="34.71303" gradientUnits="userSpaceOnUse"><stop offset="0.0034" stop-color="#d10272"/><stop offset="1" stop-color="#931668"/></linearGradient><linearGradient id="linear-gradient-6" x1="59.01707" y1="1.92028" x2="76.8867" y2="1.92028" xlink:href="#linear-gradient-5"/><linearGradient id="linear-gradient-7" x1="40.48118" y1="64.00469" x2="45.61475" y2="64.00469" gradientUnits="userSpaceOnUse"><stop offset="0" stop-color="#3fa8f4"/><stop offset="0.43052" stop-color="#2e99e5"/><stop offset="1" stop-color="#1180cb"/></linearGradient><linearGradient id="linear-gradient-8" x1="-33.99448" y1="-271.32465" x2="-97.49109" y2="-246.49262" gradientTransform="translate(48.80693 307.9969) rotate(14.27665)" gradientUnits="userSpaceOnUse"><stop offset="0.0034" stop-color="#f9d14c"/><stop offset="0.27761" stop-color="#facd45"/><stop offset="0.67289" stop-color="#fcc332"/><stop offset="1" stop-color="#ffb81d"/></linearGradient></defs><title>安徽骰寶</title><g id="圖層_2" data-name="圖層 2"><g id="圖層_1-2" data-name="圖層 1"><path d="M70.1728,55.8785a60.24181,60.24181,0,0,0-11.0266,5.58721c2.30512-4.52146,4.61-8.9078,6.915-13.09468Q68.11723,52.012,70.1728,55.8785Z" style="fill:url(#linear-gradient)"/><path d="M4.68339,30.78906C7.2236,40.80188,9.764,50.35473,12.30426,59.53518c19.28947,7.53429,38.57907-6.41783,57.86854-3.65668q-2.05588-3.87322-4.11163-7.50747C45.602,41.95515,25.14274,51.28779,4.68339,30.78906Z" style="fill:url(#linear-gradient-2)"/><path d="M85.038,31.42437C68.10852,14.95153,32.24647,7.83084,0,12.82517c5.17286,2.46877,9.11547,5.18579,9.58177,11.958C32.22342,19.84,66.7383,32.2933,81.39351,45.93643Q83.21545,38.53162,85.038,31.42437Z" style="fill:url(#linear-gradient-3)"/><path d="M34.25015,17.47856C38.40421,15.701,42.558,13.599,46.712,11.55338c-3.09466,6.17784-6.1892,12.38692-9.28374,18.47041Q35.83893,23.7764,34.25015,17.47856Z" style="fill:url(#linear-gradient-4)"/><polygon points="4.683 2.537 19.986 53.037 42.793 53.037 48.297 66.889 56.078 53.037 71.949 53.037 76.887 7.934 4.683 2.537" style="fill:url(#linear-gradient-5)"/><path d="M74.80289,27.0641C59.406,23.37134,40.98635,31.38436,30.48813,31.8314c-7.9645.33873-15.09383-3.04212-18.4553-4.95679l2.62909,8.6293,28.0578,17.5332h.07352l.0245.11755.14439.119A76.30142,76.30142,0,0,1,61.192,48.02131a24.36335,24.36335,0,0,1,11.21487.93771Z" style="opacity:0.14"/><polygon points="59.017 3.841 76.887 3.841 71.4 0 59.017 3.841" style="fill:url(#linear-gradient-6)"/><polygon points="45.615 65.768 43.285 62.241 40.481 63.417 45.615 65.768" style="fill:url(#linear-gradient-7)"/><path d="M4.6701,30.833c26.789,17.25176,53.5784-16.66038,80.3679.59141Q83.21553,38.527,81.39351,45.93643C58.3636,37.75734,35.33382,63.95982,12.30426,59.53518,9.75955,50.37081,7.21469,40.8326,4.6701,30.833Z" style="fill:url(#linear-gradient-8)"/><path d="M30.06335,48.32668a2.49065,2.49065,0,0,1-.9248,1.23535,4.68224,4.68224,0,0,1-1.793.78711l-8.03711,1.84277.68262-2.18164,7.30273-1.67383.44141-1.40918-4.11035.94189a7.06468,7.06468,0,0,1-2.26953.29248q-.665-.13184-.36328-1.10059l.70313-2.24316a2.63117,2.63117,0,0,1,1.166-1.46191,7.952,7.952,0,0,1,2.46094-.90576l6.38379-1.46338-.67578,2.1582-6.48242,1.48633-.44531,1.42188,4.90039-1.124q2.28955-.52441,1.77832,1.10547Z" style="fill:#42210b"/><path d="M33.53308,48.93117l-3.08008.70605,2.042-6.52148,3.08008-.70605ZM35.955,41.1968l-3.08008.70605.39941-1.27539,3.08008-.70605Z" style="fill:#42210b"/><path d="M41.74011,47.05032l-5.18555,1.18848a1.693,1.693,0,0,1-1.43164-.11621q-.43066-.34424-.14941-1.24023l.90137-2.87891a3.21915,3.21915,0,0,1,1.06641-1.51855,4.131,4.131,0,0,1,1.75781-.88184l5.11328-1.17187-.63281,2.02246-4.45117,1.02-.80176,2.56152,4.4502-1.02Z" style="fill:#42210b"/><path d="M58.44519,41.43508a3.38977,3.38977,0,0,1-.96094,1.5625,3.90737,3.90737,0,0,1-1.80273.85742l-8.26367,1.894,2.82129-9.00977,8.292-1.90039q1.13086-.25928,1.502.02.38086.28931.10547,1.1709l-.40625,1.29883a1.75938,1.75938,0,0,1-.42383.72314,10.2298,10.2298,0,0,1-1.18262.93115q.68555.06958.80762.34961a1.15025,1.15025,0,0,1-.06934.7666Zm-2.95605.439.50684-1.61816-4.33691.99365-.50684,1.61816Zm.97461-3.11328.48828-1.55664-4.33691.99365-.48828,1.55664Z" style="fill:#42210b"/><path d="M67.84948,39.16653a3.48461,3.48461,0,0,1-1.13574,1.65967,4.69627,4.69627,0,0,1-1.97754.95361l-4.22266.96777a1.343,1.343,0,0,1-1.2627-.2002,1.22978,1.22978,0,0,1-.1875-1.36719l.84863-2.709a3.27378,3.27378,0,0,1,.99414-1.50293,3.76437,3.76437,0,0,1,1.6377-.83008L66.951,35.12844a1.90442,1.90442,0,0,1,1.55566.09863q.46436.36035.19043,1.23047Zm-2.80078.65234.80273-2.56152-3.207.73535-.80273,2.56152Z" style="fill:#42210b"/><path d="M28.90026,21.583l-3.54785-.19287-.51953-5.0249-4.96973-.27.51953,5.0249-3.54883-.19287-.99316-9.5957a1.90212,1.90212,0,0,1,.51074-1.66406,2.55748,2.55748,0,0,1,1.91406-.50879l6.75293.3667a3.25913,3.25913,0,0,1,2.02539.72314,2.56363,2.56363,0,0,1,.86328,1.73877ZM24.6278,14.38772l-.21387-2.05859-4.96875-.27.21289,2.05859Z" style="fill:#fff"/><path d="M40.94909,22.23782,38.85632,22.124a2.29762,2.29762,0,0,1-1.458-.5791,1.90956,1.90956,0,0,1-.65039-1.26025l-.44922-4.34375L32.4071,15.729l.62891,6.07861-3.2207-.1748-.90625-8.75293,3.2207.1748.126,1.21533a3.21106,3.21106,0,0,1,2.58887-1.06738l1.27441.06885a3.73,3.73,0,0,1,2.56738.92969,4.14113,4.14113,0,0,1,.92578,2.49951l.29,2.80469.76855.0415Z" style="fill:#fff"/><path d="M53.4237,22.91555l-2.09277-.11377a2.33612,2.33612,0,0,1-1.45605-.5625,1.887,1.887,0,0,1-.64844-1.24414l-.44336-4.2793-3.8916-.21143.61914,5.98145-3.2207-.17529L41.05651,10.397l3.2207.17529.4668,4.50586a3.27617,3.27617,0,0,1,2.58887-1.06836l1.27441.06934a3.76877,3.76877,0,0,1,2.56543.91309A4.067,4.067,0,0,1,52.0946,17.46l.28711,2.772.76855.0415Z" style="fill:#fff"/><path d="M65.91491,23.59426l-3.2207-.1748-.127-1.23242a3.22006,3.22006,0,0,1-2.58691,1.085l-2.25586-.12256q-2.17529-.11792-2.45117-2.793l-.35254-3.40381-.78516-.04248-.27734-2.67432,2.01172.10889a2.07436,2.07436,0,0,1,2.19434,2.0376l.42773,4.13281,3.92383.21338-.62793-6.062,3.2207.1748Z" style="fill:#fff"/><path d="M69.76062,13.63283l-3.56445-.19336-.1748-1.68555,3.56445.19336Zm1.05859,10.228-3.56445-.19336L66.36218,15.044l3.56445.19336Z" style="fill:#fff"/></g></g></svg>