<svg xmlns="http://www.w3.org/2000/svg" xmlns:xlink="http://www.w3.org/1999/xlink" viewBox="0 0 85.038 66.88927"><defs><linearGradient id="linear-gradient" x1="60.92155" y1="54.49024" x2="69.94182" y2="56.78603" gradientUnits="userSpaceOnUse"><stop offset="0.0034" stop-color="#f9b500"/><stop offset="0.33765" stop-color="#faae06"/><stop offset="0.81965" stop-color="#fd9b16"/><stop offset="1" stop-color="#ff921e"/></linearGradient><linearGradient id="linear-gradient-2" x1="-114.15057" y1="-269.5376" x2="-44.49539" y2="-269.5376" gradientTransform="translate(45.60558 332.85329) rotate(14.27665)" gradientUnits="userSpaceOnUse"><stop offset="0.0034" stop-color="#c38e00"/><stop offset="0.35843" stop-color="#c28705"/><stop offset="0.87034" stop-color="#bf7413"/><stop offset="1" stop-color="#be6e17"/></linearGradient><linearGradient id="linear-gradient-3" x1="-0.15147" y1="13.42031" x2="84.20493" y2="34.89019" xlink:href="#linear-gradient"/><linearGradient id="linear-gradient-4" x1="33.93469" y1="18.71801" x2="44.22207" y2="21.33629" gradientUnits="userSpaceOnUse"><stop offset="0.0034" stop-color="#ec1e79"/><stop offset="1" stop-color="#ae0663"/></linearGradient><linearGradient id="linear-gradient-5" x1="4.68339" y1="34.71303" x2="76.8867" y2="34.71303" gradientUnits="userSpaceOnUse"><stop offset="0.0034" stop-color="#d10272"/><stop offset="1" stop-color="#931668"/></linearGradient><linearGradient id="linear-gradient-6" x1="59.01707" y1="1.92028" x2="76.8867" y2="1.92028" xlink:href="#linear-gradient-5"/><linearGradient id="linear-gradient-7" x1="40.48118" y1="64.00469" x2="45.61475" y2="64.00469" gradientUnits="userSpaceOnUse"><stop offset="0" stop-color="#3fa8f4"/><stop offset="0.43052" stop-color="#2e99e5"/><stop offset="1" stop-color="#1180cb"/></linearGradient><linearGradient id="linear-gradient-8" x1="-37.02174" y1="-296.20327" x2="-100.51835" y2="-271.37124" gradientTransform="translate(45.60558 332.85329) rotate(14.27665)" gradientUnits="userSpaceOnUse"><stop offset="0.0034" stop-color="#f9d14c"/><stop offset="0.27761" stop-color="#facd45"/><stop offset="0.67289" stop-color="#fcc332"/><stop offset="1" stop-color="#ffb81d"/></linearGradient></defs><title>江蘇骰寶</title><g id="圖層_2" data-name="圖層 2"><g id="圖層_1-2" data-name="圖層 1"><path d="M70.1728,55.8785a60.24181,60.24181,0,0,0-11.0266,5.58721c2.30512-4.52146,4.61-8.9078,6.915-13.09468Q68.11723,52.012,70.1728,55.8785Z" style="fill:url(#linear-gradient)"/><path d="M4.68339,30.78906C7.2236,40.80188,9.764,50.35473,12.30426,59.53518c19.28947,7.53429,38.57907-6.41783,57.86854-3.65668q-2.05588-3.87322-4.11163-7.50747C45.602,41.95515,25.14274,51.28779,4.68339,30.78906Z" style="fill:url(#linear-gradient-2)"/><path d="M85.038,31.42437C68.10852,14.95153,32.24647,7.83084,0,12.82517c5.17286,2.46877,9.11547,5.18579,9.58177,11.958C32.22342,19.84,66.7383,32.2933,81.39351,45.93643Q83.21545,38.53162,85.038,31.42437Z" style="fill:url(#linear-gradient-3)"/><path d="M34.25015,17.47856C38.40421,15.701,42.558,13.599,46.712,11.55338c-3.09466,6.17784-6.1892,12.38692-9.28374,18.47041Q35.83893,23.7764,34.25015,17.47856Z" style="fill:url(#linear-gradient-4)"/><polygon points="4.683 2.537 19.986 53.037 42.793 53.037 48.297 66.889 56.078 53.037 71.949 53.037 76.887 7.934 4.683 2.537" style="fill:url(#linear-gradient-5)"/><path d="M74.80289,27.0641C59.406,23.37134,40.98635,31.38436,30.48813,31.8314c-7.9645.33873-15.09383-3.04212-18.4553-4.95679l2.62909,8.6293,28.0578,17.5332h.07352l.0245.11755.14439.119A76.30142,76.30142,0,0,1,61.192,48.02131a24.36335,24.36335,0,0,1,11.21487.93771Z" style="opacity:0.14"/><polygon points="59.017 3.841 76.887 3.841 71.4 0 59.017 3.841" style="fill:url(#linear-gradient-6)"/><polygon points="45.615 65.768 43.285 62.241 40.481 63.417 45.615 65.768" style="fill:url(#linear-gradient-7)"/><path d="M4.6701,30.833c26.789,17.25176,53.5784-16.66038,80.3679.59141Q83.21553,38.527,81.39351,45.93643C58.3636,37.75734,35.33382,63.95982,12.30426,59.53518,9.75955,50.37081,7.21469,40.8326,4.6701,30.833Z" style="fill:url(#linear-gradient-8)"/><path d="M30.06339,48.32656a2.49065,2.49065,0,0,1-.9248,1.23535,4.68224,4.68224,0,0,1-1.793.78711L19.30851,52.1918l.68262-2.18164,7.30273-1.67383.44141-1.40918-4.11035.94189a7.06468,7.06468,0,0,1-2.26953.29248q-.665-.13184-.36328-1.10059l.70313-2.24316a2.63117,2.63117,0,0,1,1.166-1.46191,7.952,7.952,0,0,1,2.46094-.90576L31.706,40.98672l-.67578,2.1582-6.48242,1.48633-.44531,1.42188,4.90039-1.124q2.28955-.52441,1.77832,1.10547Z" style="fill:#42210b"/><path d="M33.53312,48.93105l-3.08008.70605,2.042-6.52148,3.08008-.70605ZM35.955,41.19668l-3.08008.70605.39941-1.27539,3.08008-.70605Z" style="fill:#42210b"/><path d="M41.74015,47.05019,36.5546,48.23867a1.693,1.693,0,0,1-1.43164-.11621q-.43066-.34424-.14941-1.24023l.90137-2.87891a3.21915,3.21915,0,0,1,1.06641-1.51855,4.131,4.131,0,0,1,1.75781-.88184l5.11328-1.17187-.63281,2.02246-4.45117,1.02-.80176,2.56152,4.4502-1.02Z" style="fill:#42210b"/><path d="M58.44522,41.435a3.38977,3.38977,0,0,1-.96094,1.5625,3.90737,3.90737,0,0,1-1.80273.85742l-8.26367,1.894,2.82129-9.00977,8.292-1.90039q1.13086-.25928,1.502.02.38086.28931.10547,1.1709l-.40625,1.29883a1.75938,1.75938,0,0,1-.42383.72314,10.2298,10.2298,0,0,1-1.18262.93115q.68555.06958.80762.34961a1.15025,1.15025,0,0,1-.06934.7666Zm-2.95605.439.50684-1.61816-4.33691.99365-.50684,1.61816Zm.97461-3.11328.48828-1.55664-4.33691.99365-.48828,1.55664Z" style="fill:#42210b"/><path d="M67.84952,39.16641a3.48461,3.48461,0,0,1-1.13574,1.65967,4.69627,4.69627,0,0,1-1.97754.95361l-4.22266.96777a1.343,1.343,0,0,1-1.2627-.2002,1.22978,1.22978,0,0,1-.1875-1.36719l.84863-2.709a3.27378,3.27378,0,0,1,.99414-1.50293,3.76437,3.76437,0,0,1,1.6377-.83008l4.40723-1.00977a1.90442,1.90442,0,0,1,1.55566.09863q.46436.36035.19043,1.23047Zm-2.80078.65234.80273-2.56152-3.207.73535-.80273,2.56152Z" style="fill:#42210b"/><path d="M23.55558,17.71816q.252,2.42432-2.02832,2.30029L18.037,19.829a2.489,2.489,0,0,1-2.53125-2.54834l-.17285-1.667,2.61133.14209.19141,1.84375,2.80176.15234-.72852-7.03369,2.63672.14307Z" style="fill:#fff"/><path d="M26.80265,12.38174l-2.77539-.15039-.13574-1.31348,2.77539.15137Zm.8252,7.96875-2.77539-.15137-.69531-6.71777,2.77539.15137Z" style="fill:#fff"/><path d="M36.82413,20.85l-1.5918-.08643a1.77181,1.77181,0,0,1-.94141-.27686,2.97993,2.97993,0,0,1-.80176-1.02344,1.71265,1.71265,0,0,1-.56152.94922,1.42987,1.42987,0,0,1-.90527.17627l-1.77051-.09619a1.97761,1.97761,0,0,1-2.04395-1.99414L27.89347,15.455q-.19482-1.88159,1.65234-1.78125l1.87207.10205a1.79,1.79,0,0,1,.98535.34229,3.94792,3.94792,0,0,1,.80273.772l-.10645-1.02295,2.50879.13623.48926,4.72266.50977.02783Zm-3.23535-2.26025-.27344-2.63916-2.86621-.15576.27344,2.63916Z" style="fill:#fff"/><path d="M46.2753,21.36367l-1.62988-.08887a1.78171,1.78171,0,0,1-1.13574-.45117,1.48433,1.48433,0,0,1-.50684-.98145l-.35059-3.38428L39.621,16.29336l.49023,4.73535L37.60147,20.892l-.70605-6.81885,2.50977.13672.09766.94727a2.5,2.5,0,0,1,2.01563-.83252l.99414.0542a2.904,2.904,0,0,1,2,.72363,3.21785,3.21785,0,0,1,.7207,1.94775l.22656,2.18457.59863.03271Z" style="fill:#fff"/><path d="M54.92862,21.14346a2.6147,2.6147,0,0,1-.30859,1.9043,2.07525,2.07525,0,0,1-1.7373.47021l-2.93066-.15918-.17285-1.6665,2.71387.14746-.123-1.187-.377-.0957a1.06778,1.06778,0,0,1-.43262.604,1.75575,1.75575,0,0,1-.89746.127l-1.79687-.09717A1.95136,1.95136,0,0,1,46.828,19.24648l-.29-2.80322q-.19189-1.85669,1.6543-1.75586l1.89941.103a1.89544,1.89544,0,0,1,.98145.31689,4.883,4.883,0,0,1,.80371.78467l-.10449-1.01025,2.52148.13721Zm-2.69531-1.81689-.249-2.39941-2.8916-.15723.248,2.39941Z" style="fill:#fff"/><path d="M63.13565,20.88613q.145,1.40112-1.40918,1.31689l-6.2666-.34033-.2168-2.09619,5.374.292-.085-.8208-3.91016-.2124a1.60452,1.60452,0,0,1-1.61523-1.65771l-.08691-.833q-.15381-1.49048,1.31055-1.41064l5.43945.2959.21582,2.083-4.50879-.24463.085.8208,3.85938.20947a1.67563,1.67563,0,0,1,1.7207,1.70068Z" style="fill:#fff"/><path d="M72.68058,22.79824,70.17081,22.662l-.09961-.95947a2.50806,2.50806,0,0,1-2.01465.84473l-1.75781-.0957q-1.69336-.09229-1.90918-2.17529l-.27441-2.65186-.61133-.03369-.21582-2.083,1.56543.085a1.61459,1.61459,0,0,1,1.71,1.58691l.334,3.22021,3.05664.166-.48926-4.72266,2.50977.13623Z" style="fill:#fff"/></g></g></svg>