<svg xmlns="http://www.w3.org/2000/svg" viewBox="0 0 147.74 116.21"><title>遮罩1</title><g id="圖層_2" data-name="圖層 2"><g id="圖層_1-2" data-name="圖層 1"><path d="M121.91,97.08a104.66,104.66,0,0,0-19.16,9.71c4-7.86,8-15.48,12-22.75Q118.34,90.36,121.91,97.08Z"/><path d="M8.14,53.49c4.41,17.4,8.83,34,13.24,49.94,33.51,13.09,67-11.15,100.53-6.35q-3.57-6.73-7.14-13C79.22,72.89,43.68,89.1,8.14,53.49Z"/><path d="M147.74,54.59C118.32,26,56,13.6,0,22.28c9,4.29,15.84,9,16.65,20.77C56,34.47,115.94,56.1,141.4,79.8Q144.57,66.94,147.74,54.59Z"/><path d="M59.5,30.37c7.22-3.09,14.43-6.74,21.65-10.29C75.78,30.8,70.4,41.59,65,52.16Q62.26,41.31,59.5,30.37Z"/><polygon points="8.14 4.41 34.72 92.14 74.34 92.14 83.91 116.21 97.42 92.14 125 92.14 133.57 13.78 8.14 4.41"/><path d="M130,47C103.21,40.6,71.2,54.52,53,55.3,39.13,55.89,26.74,50,20.9,46.69l4.57,15L74.22,92.14h.13l0,.2.25.21a132.56,132.56,0,0,1,31.67-9.12c8.84-1.33,14.19.24,19.48,1.63Z" style="opacity:0.14"/><polygon points="102.53 6.67 133.57 6.67 124.04 0 102.53 6.67"/><polygon points="79.25 114.26 75.2 108.13 70.33 110.17 79.25 114.26"/><path d="M42.5,45.37l-5.89-.48q1-3.73,2.45-7.56,1.34-6.1,9.58-5a10.72,10.72,0,0,0-3.53,5.21q-.55,1.51-1.31,4A38.56,38.56,0,0,0,42.5,45.37ZM37,21.5l5.89.48q1.32,6.32,4.49,9-8.44-.27-8.81-4.39A20.14,20.14,0,0,1,37,21.5Zm2.84-8.94L45.7,13q1,6.29,3.93,8.93-8.46-.12-8.52-4.5a3.13,3.13,0,0,1-.35-.88A27.07,27.07,0,0,1,39.81,12.56Zm29,34L45,44.58l.1-1.26,8.69.71L55.88,18l-7.57-.62.1-1.26,21.87,1.78-.1,1.26L62,18.46,59.92,44.53l9,.73Z"/><path d="M79.41,31.59l4.06.33q-.89,2.19-2,5.2-.92,2.61-1.3,3.84-1,3-5.52,1.95Q76.53,40.95,79.41,31.59ZM97.2,43.48l.74-9.11q.64-4.46-3.3-4.5l-2-.16A48.05,48.05,0,0,1,90,38.94a53.16,53.16,0,0,1-4.24,7q-2.39,3.33-9.07,2.22,3.58-2.39,7.93-10.78a32.73,32.73,0,0,0,2.64-8.11l-9-.73.11-1.4,9.11.74a11.64,11.64,0,0,1,.25-1.39A6.64,6.64,0,0,1,88,25l-4.62-.38.24-2.94-6.87-.56.13-1.54,6.87.56.35-4.34,5.89.48-.35,4.34,8,.65L98,16.88l6,.49-.35,4.34,6.87.56-.13,1.54-6.87-.56-.24,2.94-6-.49.24-2.94-8-.65-.18,2.24,4.2.34a25.72,25.72,0,0,0-.58,3.62l4.34.35q6.9.14,6.18,5.58l-.79,9.67q-.28,6.89-6.29,6.26-5.47-.45-8.53-6.2a12.86,12.86,0,0,0,5.9,2Q97.23,46.58,97.2,43.48ZM104.06,32l3.64.3q.35,11.32,1.6,13.25-4.25.22-4.44-2.62Q104.42,38,104.06,32Z"/><path d="M8.11,53.57c46.54,30,93.08-28.94,139.62,1q-3.17,12.34-6.33,25.21c-40-14.21-80,31.31-120,23.62C17,87.51,12.53,70.94,8.11,53.57Z"/><path d="M57.18,71.44l1.54-.17q.38,2.77.52,5.93l-1.58,0Q57.6,74.81,57.18,71.44Zm.8-5.66,1.66-.44,1.29,4.87.71-.8A34.35,34.35,0,0,1,65,71.85l-1.07,1.33a32.81,32.81,0,0,0-2.78-2.27L65.37,87l-1.66.44ZM64.1,75.84,70,74.29q-.31-1.88-1.2-5.53L64.16,70l-.42-1.57,4.65-1.23-1-3.87,1.75-.46q.56,2.1,1,3.88l5.4-1.43,1.86,7,2.17-.57L80,73.33l-7.17,1.9a13,13,0,0,0,9,5.51,18.32,18.32,0,0,0-1,2.1,14.78,14.78,0,0,1-8.93-6.29,14.52,14.52,0,0,1-4.31,10,15.26,15.26,0,0,0-1.7-1.14q4.48-4.55,4.35-9.46l-5.67,1.5Zm10.11-8.52-3.7,1q.89,3.53,1.25,5.52l3.9-1Z"/><path d="M85.27,75.46a6.54,6.54,0,0,0,4.33.31,4.37,4.37,0,0,0,2.58-1.61,3,3,0,0,0,.42-2.6q-.86-3.25-5.52-2l-1.43.38-.47-1.79,1.36-.36q4.13-1.09,3.32-4.15-.74-2.82-3.9-2a5.69,5.69,0,0,0-3.08,2.12l-.54-2a8,8,0,0,1,3.67-2,5.39,5.39,0,0,1,3.82.21A3.88,3.88,0,0,1,92,62.52a4.31,4.31,0,0,1-2.29,5.23v0a4.8,4.8,0,0,1,3.29.54,4,4,0,0,1,1.81,2.49A4.82,4.82,0,0,1,94.09,75,6.84,6.84,0,0,1,90,77.58a7.75,7.75,0,0,1-4.17.13Z"/></g></g></svg>