<svg xmlns="http://www.w3.org/2000/svg" xmlns:xlink="http://www.w3.org/1999/xlink" viewBox="0 0 85.038 66.88927"><defs><linearGradient id="linear-gradient" x1="60.92155" y1="54.49024" x2="69.94182" y2="56.78603" gradientUnits="userSpaceOnUse"><stop offset="0.0034" stop-color="#f9b500"/><stop offset="0.33765" stop-color="#faae06"/><stop offset="0.81965" stop-color="#fd9b16"/><stop offset="1" stop-color="#ff921e"/></linearGradient><linearGradient id="linear-gradient-2" x1="-123.60334" y1="-347.59657" x2="-53.94816" y2="-347.59657" gradientTransform="translate(35.51691 410.8313) rotate(14.27665)" gradientUnits="userSpaceOnUse"><stop offset="0.0034" stop-color="#c38e00"/><stop offset="0.35843" stop-color="#c28705"/><stop offset="0.87034" stop-color="#bf7413"/><stop offset="1" stop-color="#be6e17"/></linearGradient><linearGradient id="linear-gradient-3" x1="-0.15147" y1="13.42031" x2="84.20493" y2="34.89019" xlink:href="#linear-gradient"/><linearGradient id="linear-gradient-4" x1="33.93469" y1="18.71801" x2="44.22207" y2="21.33629" gradientUnits="userSpaceOnUse"><stop offset="0.0034" stop-color="#ec1e79"/><stop offset="1" stop-color="#ae0663"/></linearGradient><linearGradient id="linear-gradient-5" x1="4.68339" y1="34.71303" x2="76.8867" y2="34.71303" gradientUnits="userSpaceOnUse"><stop offset="0.0034" stop-color="#d10272"/><stop offset="1" stop-color="#931668"/></linearGradient><linearGradient id="linear-gradient-6" x1="59.01707" y1="1.92028" x2="76.8867" y2="1.92028" xlink:href="#linear-gradient-5"/><linearGradient id="linear-gradient-7" x1="40.48118" y1="64.00469" x2="45.61475" y2="64.00469" gradientUnits="userSpaceOnUse"><stop offset="0" stop-color="#3fa8f4"/><stop offset="0.43052" stop-color="#2e99e5"/><stop offset="1" stop-color="#1180cb"/></linearGradient><linearGradient id="linear-gradient-8" x1="-46.47451" y1="-374.26225" x2="-109.97112" y2="-349.43022" gradientTransform="translate(35.51691 410.8313) rotate(14.27665)" gradientUnits="userSpaceOnUse"><stop offset="0.0034" stop-color="#f9d14c"/><stop offset="0.27761" stop-color="#facd45"/><stop offset="0.67289" stop-color="#fcc332"/><stop offset="1" stop-color="#ffb81d"/></linearGradient></defs><title>世彩30秒骰寶</title><g id="圖層_2" data-name="圖層 2"><g id="圖層_1-2" data-name="圖層 1"><path d="M70.1728,55.8785a60.24181,60.24181,0,0,0-11.0266,5.58721c2.30512-4.52146,4.61-8.9078,6.915-13.09468Q68.11723,52.012,70.1728,55.8785Z" style="fill:url(#linear-gradient)"/><path d="M4.68339,30.78906C7.2236,40.80188,9.764,50.35473,12.30426,59.53518c19.28947,7.53429,38.57907-6.41783,57.86854-3.65668q-2.05588-3.87322-4.11163-7.50747C45.602,41.95515,25.14274,51.28779,4.68339,30.78906Z" style="fill:url(#linear-gradient-2)"/><path d="M85.038,31.42437C68.10852,14.95153,32.24647,7.83084,0,12.82517c5.17286,2.46877,9.11547,5.18579,9.58177,11.958C32.22342,19.84,66.7383,32.2933,81.39351,45.93643Q83.21545,38.53162,85.038,31.42437Z" style="fill:url(#linear-gradient-3)"/><path d="M34.25015,17.47856C38.40421,15.701,42.558,13.599,46.712,11.55338c-3.09466,6.17784-6.1892,12.38692-9.28374,18.47041Q35.83893,23.7764,34.25015,17.47856Z" style="fill:url(#linear-gradient-4)"/><polygon points="4.683 2.537 19.986 53.037 42.793 53.037 48.297 66.889 56.078 53.037 71.949 53.037 76.887 7.934 4.683 2.537" style="fill:url(#linear-gradient-5)"/><path d="M74.80289,27.0641C59.406,23.37134,40.98635,31.38436,30.48813,31.8314c-7.9645.33873-15.09383-3.04212-18.4553-4.95679l2.62909,8.6293,28.0578,17.5332h.07352l.0245.11755.14439.119A76.30142,76.30142,0,0,1,61.192,48.02131a24.36335,24.36335,0,0,1,11.21487.93771Z" style="opacity:0.14"/><polygon points="59.017 3.841 76.887 3.841 71.4 0 59.017 3.841" style="fill:url(#linear-gradient-6)"/><polygon points="45.615 65.768 43.285 62.241 40.481 63.417 45.615 65.768" style="fill:url(#linear-gradient-7)"/><path d="M39.69682,23.21246q.4248,4.103-3.39062,3.89551l-8.42773-.458q-3.83643-.208-4.26172-4.31152l-.77734-7.501a3.99313,3.99313,0,0,1,.60156-3.09033,3.62172,3.62172,0,0,1,2.94043-.79687l11.94141.64893.38965,3.76123-11.209-.60937.84082,8.12061,6.76758.36816-.2168-2.09424-2.08984-.11377-.33887-3.26953,6.70313.36426Z" style="fill:#fff"/><path d="M60.76127,12.81842,58.983,28.34039l-4.63477-.252-2.749-8.54248q-.09814-.32446-.65234-2.56445l-.668-.03613q-.041,1.03931-.124,2.522l-.97949,8.33984-4.65625-.25293L39.48686,11.66217l4.418.24023L45.816,18.76373a22.9749,22.9749,0,0,1,.55371,2.45264l.69043.0376q-.00146-1.678.07031-2.41846l.71875-6.71875,4.52637.24609,2.14941,6.87451q.29.95068.59668,2.45459l.668.03613q-.0293-1.31836.0498-2.41943l.50293-6.73047Z" style="fill:#fff"/><path d="M4.6701,30.833c26.789,17.25176,53.5784-16.66038,80.3679.59141Q83.21553,38.527,81.39351,45.93643C58.3636,37.75734,35.33382,63.95982,12.30426,59.53518,9.75955,50.37081,7.21469,40.8326,4.6701,30.833Z" style="fill:url(#linear-gradient-8)"/><path d="M34.69389,41.92633a1.89936,1.89936,0,0,1-.70312.939,3.57355,3.57355,0,0,1-1.3623.59814l-6.11133,1.40039.51953-1.6582,5.55273-1.27246.335-1.07227-3.125.71582a5.36062,5.36062,0,0,1-1.72461.22266q-.5083-.09961-.27734-.83594l.53418-1.70508a1.9932,1.9932,0,0,1,.8877-1.11133,6.03736,6.03736,0,0,1,1.86914-.68945l4.85547-1.1123-.51367,1.64063-4.92969,1.12988-.33887,1.08105,3.72754-.85449q1.74023-.39844,1.35059.84082Z" style="fill:#42210b"/><path d="M37.33256,42.38531l-2.34082.53613,1.55273-4.958,2.34082-.53613Zm1.8418-5.87988-2.34082.53613.30371-.96973,2.33984-.53613Z" style="fill:#42210b"/><path d="M43.5728,40.95465l-3.94141.90332a1.29045,1.29045,0,0,1-1.08984-.0874c-.2168-.17529-.25586-.48877-.11328-.94287l.68555-2.18945a2.44332,2.44332,0,0,1,.81055-1.15479A3.13812,3.13812,0,0,1,41.2603,36.814l3.88867-.8916-.48242,1.53809-3.38281.77539-.60937,1.94727,3.38281-.77539Z" style="fill:#42210b"/><path d="M56.27495,36.68561a2.56559,2.56559,0,0,1-.73242,1.18848,2.9604,2.9604,0,0,1-1.36914.65088l-6.28223,1.44043,2.14453-6.84961,6.30469-1.44531q.8584-.19629,1.14063.01611.2915.219.08105.88965l-.30957.9873a1.32184,1.32184,0,0,1-.32227.5498,7.8132,7.8132,0,0,1-.89844.7085c.34766.03418.55273.123.61426.26465a.88122.88122,0,0,1-.05273.5835Zm-2.248.334.38477-1.23047-3.29687.75537L50.73,37.775Zm.74121-2.36719.37109-1.18359-3.29687.75537-.37109,1.18359Z" style="fill:#42210b"/><path d="M63.42436,34.961a2.63963,2.63963,0,0,1-.86426,1.26123,3.55309,3.55309,0,0,1-1.50293.72559l-3.21094.73535a1.0206,1.0206,0,0,1-.96-.15137.93714.93714,0,0,1-.14258-1.04l.64551-2.05957a2.482,2.482,0,0,1,.75586-1.14209,2.845,2.845,0,0,1,1.24512-.63135l3.35059-.76807a1.443,1.443,0,0,1,1.18262.0752q.353.27246.14551.93555Zm-2.12891.49609.60938-1.94727-2.43945.55908L58.856,36.01617Z" style="fill:#42210b"/><path d="M40.024,48.7027q-.3501,1.11768-2.208,1.54395l-5.37012,1.23047.53125-1.69629,4.95117-1.13477.32422-1.03418-3.99512.916.4375-1.39746,3.99512-.916.32129-1.02539L34.0601,46.32379l.53125-1.69629,5.3916-1.23535q1.83545-.42114,1.48535.69727l-.3584,1.14648a1.7172,1.7172,0,0,1-.42187.71,4.47449,4.47449,0,0,1-1.05371.69238,1.38533,1.38533,0,0,1,.73633.28906.70148.70148,0,0,1,.01855.61035Z" style="fill:#42210b"/><path d="M49.23393,45.94293a3.15478,3.15478,0,0,1-2.47168,2.25293l-3.97266.91064q-1.90283.43579-1.333-1.38135l1.01855-3.252a3.16915,3.16915,0,0,1,.87109-1.44531,3.474,3.474,0,0,1,1.58887-.771l3.97266-.91064q.98877-.22632,1.30762.08887.32959.32373.03711,1.25586Zm-2.40039.72266,1.11816-3.56934-3.09375.70947-1.11816,3.56934Z" style="fill:#42210b"/><path d="M56.20561,45.07184a2.00635,2.00635,0,0,1-1.63379,1.334l-5.28516,1.21191.48438-1.54687,4.5332-1.03906.19043-.60547-3.29785.75586q-1.22461.28052-.85937-.88477l.19238-.61523a1.984,1.984,0,0,1,1.5791-1.38281l4.58594-1.05078-.48145,1.53711-3.80176.87109-.18945.60645,3.25488-.74609q1.30957-.29956.93555.89258Z" style="fill:#42210b"/></g></g></svg>