<svg xmlns="http://www.w3.org/2000/svg" xmlns:xlink="http://www.w3.org/1999/xlink" viewBox="0 0 85.038 66.88927"><defs><linearGradient id="linear-gradient" x1="60.92155" y1="54.49024" x2="69.94182" y2="56.78603" gradientUnits="userSpaceOnUse"><stop offset="0.0034" stop-color="#f9b500"/><stop offset="0.33765" stop-color="#faae06"/><stop offset="0.81965" stop-color="#fd9b16"/><stop offset="1" stop-color="#ff921e"/></linearGradient><linearGradient id="linear-gradient-2" x1="32.96454" y1="-289.58675" x2="102.61973" y2="-289.58675" gradientTransform="translate(-101.9078 316.00434) rotate(14.27665)" gradientUnits="userSpaceOnUse"><stop offset="0.0034" stop-color="#c38e00"/><stop offset="0.35843" stop-color="#c28705"/><stop offset="0.87034" stop-color="#bf7413"/><stop offset="1" stop-color="#be6e17"/></linearGradient><linearGradient id="linear-gradient-3" x1="-0.15147" y1="13.42031" x2="84.20493" y2="34.89019" xlink:href="#linear-gradient"/><linearGradient id="linear-gradient-4" x1="33.93469" y1="18.71801" x2="44.22207" y2="21.33629" gradientUnits="userSpaceOnUse"><stop offset="0.0034" stop-color="#ec1e79"/><stop offset="1" stop-color="#ae0663"/></linearGradient><linearGradient id="linear-gradient-5" x1="4.68339" y1="34.71303" x2="76.8867" y2="34.71303" gradientUnits="userSpaceOnUse"><stop offset="0.0034" stop-color="#d10272"/><stop offset="1" stop-color="#931668"/></linearGradient><linearGradient id="linear-gradient-6" x1="59.01707" y1="1.92028" x2="76.8867" y2="1.92028" xlink:href="#linear-gradient-5"/><linearGradient id="linear-gradient-7" x1="40.48118" y1="64.00469" x2="45.61475" y2="64.00469" gradientUnits="userSpaceOnUse"><stop offset="0" stop-color="#3fa8f4"/><stop offset="0.43052" stop-color="#2e99e5"/><stop offset="1" stop-color="#1180cb"/></linearGradient><linearGradient id="linear-gradient-8" x1="110.09337" y1="-316.25243" x2="46.59677" y2="-291.4204" gradientTransform="translate(-101.9078 316.00434) rotate(14.27665)" gradientUnits="userSpaceOnUse"><stop offset="0.0034" stop-color="#f9d14c"/><stop offset="0.27761" stop-color="#facd45"/><stop offset="0.67289" stop-color="#fcc332"/><stop offset="1" stop-color="#ffb81d"/></linearGradient></defs><title>江蘇骰寶_2</title><g id="圖層_2" data-name="圖層 2"><g id="圖層_1-2" data-name="圖層 1"><path d="M70.1728,55.8785a60.24181,60.24181,0,0,0-11.0266,5.58721c2.30512-4.52146,4.61-8.9078,6.915-13.09468Q68.11723,52.012,70.1728,55.8785Z" style="fill:url(#linear-gradient)"/><path d="M4.68339,30.78906C7.2236,40.80188,9.764,50.35473,12.30426,59.53518c19.28947,7.53429,38.57907-6.41783,57.86854-3.65668q-2.05588-3.87322-4.11163-7.50747C45.602,41.95515,25.14274,51.28779,4.68339,30.78906Z" style="fill:url(#linear-gradient-2)"/><path d="M85.038,31.42437C68.10852,14.95153,32.24647,7.83084,0,12.82517c5.17286,2.46877,9.11547,5.18579,9.58177,11.958C32.22342,19.84,66.7383,32.2933,81.39351,45.93643Q83.21545,38.53162,85.038,31.42437Z" style="fill:url(#linear-gradient-3)"/><path d="M34.25015,17.47856C38.40421,15.701,42.558,13.599,46.712,11.55338c-3.09466,6.17784-6.1892,12.38692-9.28374,18.47041Q35.83893,23.7764,34.25015,17.47856Z" style="fill:url(#linear-gradient-4)"/><polygon points="4.683 2.537 19.986 53.037 42.793 53.037 48.297 66.889 56.078 53.037 71.949 53.037 76.887 7.934 4.683 2.537" style="fill:url(#linear-gradient-5)"/><path d="M74.80289,27.0641C59.406,23.37134,40.98635,31.38436,30.48813,31.8314c-7.9645.33873-15.09383-3.04212-18.4553-4.95679l2.62909,8.6293,28.0578,17.5332h.07352l.0245.11755.14439.119A76.30142,76.30142,0,0,1,61.192,48.02131a24.36335,24.36335,0,0,1,11.21487.93771Z" style="opacity:0.14"/><polygon points="59.017 3.841 76.887 3.841 71.4 0 59.017 3.841" style="fill:url(#linear-gradient-6)"/><polygon points="45.615 65.768 43.285 62.241 40.481 63.417 45.615 65.768" style="fill:url(#linear-gradient-7)"/><path d="M4.6701,30.833c26.789,17.25176,53.5784-16.66038,80.3679.59141Q83.21553,38.527,81.39351,45.93643C58.3636,37.75734,35.33382,63.95982,12.30426,59.53518,9.75955,50.37081,7.21469,40.8326,4.6701,30.833Z" style="fill:url(#linear-gradient-8)"/><path d="M30.0637,48.32628a2.49065,2.49065,0,0,1-.9248,1.23535,4.67486,4.67486,0,0,1-1.793.78711l-8.03711,1.84277.68262-2.18164L27.29417,48.336l.44141-1.40918-4.11035.94238a7.07372,7.07372,0,0,1-2.26953.292q-.665-.13184-.36328-1.10059l.70313-2.24316a2.63117,2.63117,0,0,1,1.166-1.46191,7.94069,7.94069,0,0,1,2.46094-.90527l6.38379-1.46387-.67578,2.1582L24.54808,44.631l-.44531,1.42188,4.90039-1.124q2.28955-.52441,1.77832,1.10547Z" style="fill:#42210b"/><path d="M33.53343,48.93077l-3.08008.70605,2.042-6.52148,3.08008-.70605Zm2.42188-7.73437-3.08008.70605.39941-1.27539,3.08008-.70605Z" style="fill:#42210b"/><path d="M41.74046,47.04991l-5.18555,1.18848a1.69119,1.69119,0,0,1-1.43164-.11621q-.43066-.34424-.14941-1.24023l.90137-2.87891a3.22149,3.22149,0,0,1,1.06641-1.51855,4.13659,4.13659,0,0,1,1.75781-.88184l5.11328-1.17187-.63281,2.02246-4.45117,1.02051L37.927,46.03526l4.4502-1.02051Z" style="fill:#42210b"/><path d="M58.44554,41.43467a3.38724,3.38724,0,0,1-.96094,1.5625,3.90737,3.90737,0,0,1-1.80273.85742l-8.26367,1.89453,2.82129-9.00977,8.292-1.90039q1.13086-.25928,1.502.01953.38086.29.10547,1.1709l-.40625,1.29883a1.76438,1.76438,0,0,1-.42383.72363,10.29642,10.29642,0,0,1-1.18262.93066q.68555.07031.80762.34961a1.15025,1.15025,0,0,1-.06934.7666Zm-2.95605.43945.50684-1.61816-4.33691.99316-.50684,1.61816Zm.97461-3.11328.48828-1.55664-4.33691.99316L52.12718,39.754Z" style="fill:#42210b"/><path d="M67.84983,39.16612a3.48592,3.48592,0,0,1-1.13574,1.66016,4.70132,4.70132,0,0,1-1.97754.95313l-4.22266.96777a1.34165,1.34165,0,0,1-1.2627-.2002,1.22978,1.22978,0,0,1-.1875-1.36719l.84863-2.709a3.27629,3.27629,0,0,1,.99414-1.50293,3.76437,3.76437,0,0,1,1.6377-.83008L66.9514,35.128a1.90835,1.90835,0,0,1,1.55566.09863q.46436.36035.19043,1.23047Zm-2.80078.65234.80273-2.56152-3.207.73535L61.842,40.55381Z" style="fill:#42210b"/><path d="M23.55589,17.71788q.252,2.42432-2.02832,2.30078l-3.49023-.18945a2.48974,2.48974,0,0,1-2.53125-2.54883l-.17285-1.667,2.61133.14258.19141,1.84375,2.80176.15234-.72852-7.03418,2.63672.14355Z" style="fill:#fff"/><path d="M26.803,12.38194l-2.77539-.15039-.13574-1.31348,2.77539.15137Zm.8252,7.96875-2.77539-.15137-.69531-6.71777,2.77539.15137Z" style="fill:#fff"/><path d="M36.82444,20.84971l-1.5918-.08594a1.77177,1.77177,0,0,1-.94141-.27734,2.97015,2.97015,0,0,1-.80176-1.02344,1.71265,1.71265,0,0,1-.56152.94922,1.42956,1.42956,0,0,1-.90527.17676l-1.77051-.09668a1.97731,1.97731,0,0,1-2.04395-1.99414l-.31445-3.043q-.19482-1.88232,1.65234-1.78125l1.87207.10156a1.79426,1.79426,0,0,1,.98535.34277,3.94227,3.94227,0,0,1,.80273.77148l-.10645-1.02246,2.50879.13574.48926,4.72266.50977.02832Zm-3.23535-2.25977-.27344-2.63965L30.44944,15.795l.27344,2.63867Z" style="fill:#fff"/><path d="M46.27561,21.36338l-1.62988-.08887A1.77908,1.77908,0,0,1,43.51,20.82335a1.48217,1.48217,0,0,1-.50684-.98145l-.35059-3.38379-3.03125-.165.49023,4.73535-2.50977-.13672-.70605-6.81836,2.50977.13672.09766.94727a2.50046,2.50046,0,0,1,2.01563-.833l.99414.05469a2.904,2.904,0,0,1,2,.72363,3.21626,3.21626,0,0,1,.7207,1.94727l.22656,2.18457.59863.0332Z" style="fill:#fff"/><path d="M54.92893,21.14366a2.6147,2.6147,0,0,1-.30859,1.9043,2.07368,2.07368,0,0,1-1.7373.46973l-2.93066-.15918-.17285-1.666,2.71387.14746-.123-1.1875-.377-.0957a1.06739,1.06739,0,0,1-.43262.60449,1.761,1.761,0,0,1-.89746.127l-1.79687-.09766a1.95077,1.95077,0,0,1-2.03809-1.94434l-.29-2.80273q-.19189-1.85742,1.6543-1.75586l1.89941.10254a1.89584,1.89584,0,0,1,.98145.31738,4.89612,4.89612,0,0,1,.80371.78418l-.10449-1.00977,2.52148.13672Zm-2.69531-1.81738-.249-2.39941-2.8916-.15723.248,2.39941Z" style="fill:#fff"/><path d="M63.136,20.88585q.145,1.40186-1.40918,1.31738l-6.2666-.34082-.2168-2.0957,5.374.292-.085-.82129-3.91016-.21191a1.60494,1.60494,0,0,1-1.61523-1.6582l-.08691-.833q-.15381-1.48975,1.31055-1.41016l5.43945.2959.21582,2.083-4.50879-.24512.085.82129,3.85938.209a1.676,1.676,0,0,1,1.7207,1.70117Z" style="fill:#fff"/><path d="M72.68089,22.798l-2.50977-.13574-.09961-.96a2.50653,2.50653,0,0,1-2.01465.84473l-1.75781-.0957q-1.69336-.09229-1.90918-2.1748l-.27441-2.65234-.61133-.0332-.21582-2.083,1.56543.085a1.61429,1.61429,0,0,1,1.71,1.58691l.334,3.21973,3.05664.166-.48926-4.72266,2.50977.13672Z" style="fill:#fff"/></g></g></svg>