<svg xmlns="http://www.w3.org/2000/svg" xmlns:xlink="http://www.w3.org/1999/xlink" viewBox="0 0 85.038 66.88927"><defs><linearGradient id="linear-gradient" x1="60.92155" y1="54.49024" x2="69.94182" y2="56.78603" gradientUnits="userSpaceOnUse"><stop offset="0.0034" stop-color="#f9b500"/><stop offset="0.33765" stop-color="#faae06"/><stop offset="0.81965" stop-color="#fd9b16"/><stop offset="1" stop-color="#ff921e"/></linearGradient><linearGradient id="linear-gradient-2" x1="29.85188" y1="-314.45468" x2="99.50706" y2="-314.45468" gradientTransform="translate(-105.02375 340.87144) rotate(14.27665)" gradientUnits="userSpaceOnUse"><stop offset="0.0034" stop-color="#c38e00"/><stop offset="0.35843" stop-color="#c28705"/><stop offset="0.87034" stop-color="#bf7413"/><stop offset="1" stop-color="#be6e17"/></linearGradient><linearGradient id="linear-gradient-3" x1="-0.15147" y1="13.42031" x2="84.20493" y2="34.89019" xlink:href="#linear-gradient"/><linearGradient id="linear-gradient-4" x1="33.93469" y1="18.71801" x2="44.22207" y2="21.33629" gradientUnits="userSpaceOnUse"><stop offset="0.0034" stop-color="#ec1e79"/><stop offset="1" stop-color="#ae0663"/></linearGradient><linearGradient id="linear-gradient-5" x1="4.68339" y1="34.71303" x2="76.8867" y2="34.71303" gradientUnits="userSpaceOnUse"><stop offset="0.0034" stop-color="#d10272"/><stop offset="1" stop-color="#931668"/></linearGradient><linearGradient id="linear-gradient-6" x1="59.01707" y1="1.92028" x2="76.8867" y2="1.92028" xlink:href="#linear-gradient-5"/><linearGradient id="linear-gradient-7" x1="40.48118" y1="64.00469" x2="45.61475" y2="64.00469" gradientUnits="userSpaceOnUse"><stop offset="0" stop-color="#3fa8f4"/><stop offset="0.43052" stop-color="#2e99e5"/><stop offset="1" stop-color="#1180cb"/></linearGradient><linearGradient id="linear-gradient-8" x1="106.98071" y1="-341.12036" x2="43.4841" y2="-316.28833" gradientTransform="translate(-105.02375 340.87144) rotate(14.27665)" gradientUnits="userSpaceOnUse"><stop offset="0.0034" stop-color="#f9d14c"/><stop offset="0.27761" stop-color="#facd45"/><stop offset="0.67289" stop-color="#fcc332"/><stop offset="1" stop-color="#ffb81d"/></linearGradient></defs><title>北京骰寶_2</title><g id="圖層_2" data-name="圖層 2"><g id="圖層_1-2" data-name="圖層 1"><path d="M70.1728,55.8785a60.24181,60.24181,0,0,0-11.0266,5.58721c2.30512-4.52146,4.61-8.9078,6.915-13.09468Q68.11723,52.012,70.1728,55.8785Z" style="fill:url(#linear-gradient)"/><path d="M4.68339,30.78906C7.2236,40.80188,9.764,50.35473,12.30426,59.53518c19.28947,7.53429,38.57907-6.41783,57.86854-3.65668q-2.05588-3.87322-4.11163-7.50747C45.602,41.95515,25.14274,51.28779,4.68339,30.78906Z" style="fill:url(#linear-gradient-2)"/><path d="M85.038,31.42437C68.10852,14.95153,32.24647,7.83084,0,12.82517c5.17286,2.46877,9.11547,5.18579,9.58177,11.958C32.22342,19.84,66.7383,32.2933,81.39351,45.93643Q83.21545,38.53162,85.038,31.42437Z" style="fill:url(#linear-gradient-3)"/><path d="M34.25015,17.47856C38.40421,15.701,42.558,13.599,46.712,11.55338c-3.09466,6.17784-6.1892,12.38692-9.28374,18.47041Q35.83893,23.7764,34.25015,17.47856Z" style="fill:url(#linear-gradient-4)"/><polygon points="4.683 2.537 19.986 53.037 42.793 53.037 48.297 66.889 56.078 53.037 71.949 53.037 76.887 7.934 4.683 2.537" style="fill:url(#linear-gradient-5)"/><path d="M74.80289,27.0641C59.406,23.37134,40.98635,31.38436,30.48813,31.8314c-7.9645.33873-15.09383-3.04212-18.4553-4.95679l2.62909,8.6293,28.0578,17.5332h.07352l.0245.11755.14439.119A76.30142,76.30142,0,0,1,61.192,48.02131a24.36335,24.36335,0,0,1,11.21487.93771Z" style="opacity:0.14"/><polygon points="59.017 3.841 76.887 3.841 71.4 0 59.017 3.841" style="fill:url(#linear-gradient-6)"/><polygon points="45.615 65.768 43.285 62.241 40.481 63.417 45.615 65.768" style="fill:url(#linear-gradient-7)"/><path d="M4.6701,30.833c26.789,17.25176,53.5784-16.66038,80.3679.59141Q83.21553,38.527,81.39351,45.93643C58.3636,37.75734,35.33382,63.95982,12.30426,59.53518,9.75955,50.37081,7.21469,40.8326,4.6701,30.833Z" style="fill:url(#linear-gradient-8)"/><path d="M30.06374,48.32628a2.49065,2.49065,0,0,1-.9248,1.23535,4.67486,4.67486,0,0,1-1.793.78711l-8.03711,1.84277.68262-2.18164L27.29421,48.336l.44141-1.40918-4.11035.94238a7.07372,7.07372,0,0,1-2.26953.292q-.665-.13184-.36328-1.10059l.70313-2.24316a2.63117,2.63117,0,0,1,1.166-1.46191,7.94069,7.94069,0,0,1,2.46094-.90527l6.38379-1.46387-.67578,2.1582L24.54811,44.631l-.44531,1.42188,4.90039-1.124q2.28955-.52441,1.77832,1.10547Z" style="fill:#42210b"/><path d="M33.53347,48.93077l-3.08008.70605,2.042-6.52148,3.08008-.70605Zm2.42188-7.73437-3.08008.70605.39941-1.27539,3.08008-.70605Z" style="fill:#42210b"/><path d="M41.7405,47.04991,36.555,48.23838a1.69119,1.69119,0,0,1-1.43164-.11621q-.43066-.34424-.14941-1.24023l.90137-2.87891a3.22149,3.22149,0,0,1,1.06641-1.51855,4.13659,4.13659,0,0,1,1.75781-.88184l5.11328-1.17187L43.18,42.45323l-4.45117,1.02051L37.927,46.03526l4.4502-1.02051Z" style="fill:#42210b"/><path d="M58.44558,41.43467a3.38724,3.38724,0,0,1-.96094,1.5625,3.90737,3.90737,0,0,1-1.80273.85742l-8.26367,1.89453,2.82129-9.00977,8.292-1.90039q1.13086-.25928,1.502.01953.38086.29.10547,1.1709l-.40625,1.29883a1.76438,1.76438,0,0,1-.42383.72363,10.29642,10.29642,0,0,1-1.18262.93066q.68555.07031.80762.34961a1.15025,1.15025,0,0,1-.06934.7666Zm-2.95605.43945.50684-1.61816-4.33691.99316-.50684,1.61816Zm.97461-3.11328.48828-1.55664-4.33691.99316L52.12722,39.754Z" style="fill:#42210b"/><path d="M67.84987,39.16612a3.48592,3.48592,0,0,1-1.13574,1.66016,4.70132,4.70132,0,0,1-1.97754.95313l-4.22266.96777a1.34165,1.34165,0,0,1-1.2627-.2002,1.22978,1.22978,0,0,1-.1875-1.36719l.84863-2.709a3.27629,3.27629,0,0,1,.99414-1.50293,3.76437,3.76437,0,0,1,1.6377-.83008L66.95143,35.128a1.90835,1.90835,0,0,1,1.55566.09863q.46436.36035.19043,1.23047Zm-2.80078.65234.80273-2.56152-3.207.73535-.80273,2.56152Z" style="fill:#42210b"/><path d="M26.7903,19.14854a2.1438,2.1438,0,0,1-.35059,1.69043,1.94369,1.94369,0,0,1-1.66016.47461l-8.59766-.4668-1.10938-10.71,8.627.46875a2.81707,2.81707,0,0,1,1.7373.55859,2.30052,2.30052,0,0,1,.68848,1.55859l.16016,1.54395a1.18343,1.18343,0,0,1-.13672.79,4.00624,4.00624,0,0,1-.91309.79,2.41039,2.41039,0,0,1,1.10059.74121,2.0658,2.0658,0,0,1,.29.97168Zm-3.5752-4.17871-.19141-1.85059L18.512,12.87413l.19141,1.85059ZM23.5989,18.67l-.19922-1.92285L18.888,16.50206l.19922,1.92285Z" style="fill:#fff"/><path d="M36.34108,18.65342l-6.12891-.333.11035,1.06348,4.541.24609.23242,2.24414L29.8489,21.589a2.33438,2.33438,0,0,1-2.44727-2.32031L27.053,15.90245a1.92389,1.92389,0,0,1,.458-1.65527,2.12892,2.12892,0,0,1,1.66992-.51758l4.80566.26074q1.88086.10254,2.12109,2.4043Zm-2.79395-1.29687L33.429,16.21983l-3.4541-.1875L30.093,17.169Z" style="fill:#fff"/><path d="M39.83229,12.98936l-3.20508-.17383L36.47,11.29991l3.20508.17383Zm.95215,9.19434-3.20508-.1748-.80273-7.751,3.20508.17383Z" style="fill:#fff"/><path d="M44.386,13.22276l-3.11621-.16992-.15527-1.501,3.11621.16992Zm.92383,8.917q.15088,1.45605-.39062,1.877a4.3023,4.3023,0,0,1-2.52246.32617q-.36768-.02051-.72266-.05371L41.44167,22.045l.76367.042-.78711-7.60645,3.11621.16992Z" style="fill:#fff"/><path d="M48.79714,13.47667l-3.2041-.17383-.15723-1.51562,3.2041.17383Zm.95215,9.19434-3.2041-.1748-.80273-7.751,3.2041.17383Z" style="fill:#fff"/><path d="M60.96315,23.28038l-1.88086-.10254a2.06381,2.06381,0,0,1-1.31152-.52051,1.7129,1.7129,0,0,1-.584-1.13281l-.40527-3.90527-3.498-.18945.56641,5.46387-2.89551-.15723-.81543-7.86816,2.89551.15723.11328,1.09277a2.88654,2.88654,0,0,1,2.32617-.96l1.14746.06152a3.34472,3.34472,0,0,1,2.30664.83594,3.71264,3.71264,0,0,1,.832,2.24707l.26074,2.52051.69141.03809Z" style="fill:#fff"/><path d="M70.94655,23.02549a3.00608,3.00608,0,0,1-.35742,2.19727,2.38488,2.38488,0,0,1-2.00391.543l-3.37988-.18359-.19922-1.92285,3.12988.16992-.1416-1.37012-.43555-.11035a1.23281,1.23281,0,0,1-.49707.69727,2.0344,2.0344,0,0,1-1.03711.14648l-2.07227-.1123A2.25,2.25,0,0,1,61.60085,20.837l-.335-3.23437q-.22266-2.14307,1.90918-2.02637l2.18945.11914a2.193,2.193,0,0,1,1.13477.36621,5.60284,5.60284,0,0,1,.92578.9043l-.12109-1.165,2.91016.1582Zm-3.11133-2.0957-.28613-2.76855-3.33594-.18164.28613,2.76855Z" style="fill:#fff"/></g></g></svg>