<svg xmlns="http://www.w3.org/2000/svg" xmlns:xlink="http://www.w3.org/1999/xlink" viewBox="0 0 120 96.54812"><defs><linearGradient id="linear-gradient" x1="82.82685" y1="77.27208" x2="95.15321" y2="80.40931" gradientUnits="userSpaceOnUse"><stop offset="0.0034" stop-color="#f8b400"/><stop offset="0.33765" stop-color="#f9ad06"/><stop offset="0.81965" stop-color="#fd9a16"/><stop offset="1" stop-color="#ff911e"/></linearGradient><linearGradient id="linear-gradient-2" x1="-43.38957" y1="68.86674" x2="51.13635" y2="68.86674" gradientTransform="translate(61.14695 6.69031) rotate(14.27665)" gradientUnits="userSpaceOnUse"><stop offset="0.0034" stop-color="#c28d00"/><stop offset="0.36606" stop-color="#c18605"/><stop offset="0.88899" stop-color="#be7313"/><stop offset="1" stop-color="#bd6e17"/></linearGradient><linearGradient id="linear-gradient-3" x1="-0.03713" y1="22.4214" x2="114.49749" y2="51.57205" xlink:href="#linear-gradient"/><linearGradient id="未命名漸層_43" x1="28.94348" y1="12.16226" x2="90.82761" y2="74.04639" gradientUnits="userSpaceOnUse"><stop offset="0" stop-color="#14b4ee"/><stop offset="1" stop-color="#2e3192"/></linearGradient><linearGradient id="linear-gradient-4" x1="3454.11251" y1="761.42611" x2="3455.48237" y2="805.45637" gradientTransform="matrix(-0.8962, 0.0688, 0.1005, 0.8893, 3075.62931, -922.74073)" gradientUnits="userSpaceOnUse"><stop offset="0" stop-color="#fff"/><stop offset="1" stop-color="#fff" stop-opacity="0"/></linearGradient><linearGradient id="linear-gradient-5" x1="-387.5091" y1="-13.26451" x2="-389.08811" y2="-18.1051" gradientTransform="matrix(-0.9793, -0.2024, -0.2024, 0.9793, -279.66679, -35.32257)" gradientUnits="userSpaceOnUse"><stop offset="0" stop-color="#f16930"/><stop offset="0.03538" stop-color="#f26d31"/><stop offset="0.35301" stop-color="#f69139"/><stop offset="0.61219" stop-color="#f9a73e"/><stop offset="0.77903" stop-color="#faaf40"/><stop offset="1" stop-color="#ce5d29"/></linearGradient><linearGradient id="linear-gradient-6" x1="-388.03783" y1="-1.41263" x2="-393.54444" y2="-18.29355" gradientTransform="matrix(-0.9793, -0.2024, -0.2024, 0.9793, -279.66679, -35.32257)" gradientUnits="userSpaceOnUse"><stop offset="0" stop-color="#f16930"/><stop offset="0.02863" stop-color="#f26d31"/><stop offset="0.28561" stop-color="#f69139"/><stop offset="0.49531" stop-color="#f9a73e"/><stop offset="0.6303" stop-color="#faaf40"/><stop offset="1" stop-color="#ce5d29"/></linearGradient><linearGradient id="linear-gradient-7" x1="-388.03342" y1="-1.41827" x2="-393.54756" y2="-18.32228" xlink:href="#linear-gradient-6"/><linearGradient id="linear-gradient-8" x1="-388.03336" y1="-1.41828" x2="-393.54751" y2="-18.3223" xlink:href="#linear-gradient-6"/><radialGradient id="radial-gradient" cx="190.36951" cy="-5.05149" r="6.81139" gradientTransform="translate(-89.27164 4.02753) rotate(11.67725)" gradientUnits="userSpaceOnUse"><stop offset="0.57869" stop-color="#151515"/><stop offset="0.69697" stop-color="#151515"/><stop offset="0.84441" stop-color="#1f7481"/><stop offset="0.95083" stop-color="#26b3c9"/><stop offset="1" stop-color="#29cce5"/></radialGradient><radialGradient id="radial-gradient-2" cx="191.69794" cy="1.32798" r="14.95031" gradientTransform="translate(-89.27164 4.02753) rotate(11.67725)" gradientUnits="userSpaceOnUse"><stop offset="0.69697"/><stop offset="0.71562" stop-color="#030e0f"/><stop offset="0.85733" stop-color="#177381"/><stop offset="0.95493" stop-color="#24b3c9"/><stop offset="1" stop-color="#29cce5"/></radialGradient><radialGradient id="radial-gradient-3" cx="205.59541" cy="-18.2339" r="19.23115" xlink:href="#radial-gradient"/><radialGradient id="radial-gradient-4" cx="-230.34856" cy="20.30124" r="2.81327" gradientTransform="matrix(-0.92416, -0.50132, -0.56508, 1.02811, -105.2159, -103.48027)" gradientUnits="userSpaceOnUse"><stop offset="0" stop-color="#fff"/><stop offset="0.3598" stop-color="#eaeaef"/><stop offset="0.87273" stop-color="#cfcfda"/><stop offset="0.91643" stop-color="#c7cad3"/><stop offset="1" stop-color="#bcc3c8"/></radialGradient><radialGradient id="radial-gradient-5" cx="5080.3164" cy="986.87031" r="1.05624" gradientTransform="matrix(-0.99443, -0.31203, -0.31379, 0.99008, 5457.23812, 641.01614)" gradientUnits="userSpaceOnUse"><stop offset="0" stop-color="#f1f1f2"/><stop offset="0.26667" stop-color="#008da8"/><stop offset="0.5697" stop-color="#6cefef"/><stop offset="0.63215" stop-color="#68eced"/><stop offset="0.69878" stop-color="#5be5e7"/><stop offset="0.76738" stop-color="#46d7dd"/><stop offset="0.83688" stop-color="#28c5d0"/><stop offset="0.86061" stop-color="#1cbeca"/><stop offset="1" stop-color="#008da8"/></radialGradient><linearGradient id="linear-gradient-10" x1="6.35392" y1="62.40494" x2="115.70172" y2="62.40494" gradientUnits="userSpaceOnUse"><stop offset="0.0034" stop-color="#f8d04c"/><stop offset="0.27761" stop-color="#f9cc45"/><stop offset="0.67289" stop-color="#fcc232"/><stop offset="1" stop-color="#ffb71d"/></linearGradient><radialGradient id="鍊踑臇_蜸馯鳺艜_1805" cx="15.53066" cy="41.85886" r="7.52358" gradientTransform="translate(0.78338 -12.75679) scale(1.0928 1.0588)" gradientUnits="userSpaceOnUse"><stop offset="0" stop-color="#159e1f"/><stop offset="0.17508" stop-color="#12902b"/><stop offset="0.50418" stop-color="#0c6c4b"/><stop offset="0.949" stop-color="#01327e"/><stop offset="1" stop-color="#002b84"/></radialGradient><radialGradient id="鍊踑臇_蜸馯鳺艜_1805-2" cx="22.9571" cy="8.38117" r="17.6822" gradientTransform="matrix(1.0918, -0.0415, 0.0454, 0.9991, -9.28757, 31.15863)" xlink:href="#鍊踑臇_蜸馯鳺艜_1805"/><radialGradient id="鍊踑臇_蜸馯鳺艜_1804" cx="28.53454" cy="28.80424" r="23.85796" gradientTransform="translate(0.78338) scale(1.0928 1)" gradientUnits="userSpaceOnUse"><stop offset="0" stop-color="#ffff20"/><stop offset="1" stop-color="#0d0d0d"/></radialGradient><radialGradient id="鍊踑臇_蜸馯鳺艜_1805-3" cx="30.75764" cy="57.49813" r="5.48208" gradientTransform="translate(-9.46976 -28.83223) scale(1.1054 1.1316)" xlink:href="#鍊踑臇_蜸馯鳺艜_1805"/><radialGradient id="鍊踑臇_蜸馯鳺艜_1805-4" cx="-21.18113" cy="-37.79823" r="5.48206" gradientTransform="matrix(0.9786, -0.1512, 0.2125, 1.1516, 36.00326, 78.62197)" xlink:href="#鍊踑臇_蜸馯鳺艜_1805"/><radialGradient id="鍊踑臇_蜸馯鳺艜_1805-5" cx="20.32588" cy="41.22076" r="12.30384" gradientTransform="translate(0.78338) scale(1.0928 1)" xlink:href="#鍊踑臇_蜸馯鳺艜_1805"/><radialGradient id="鍊踑臇_蜸馯鳺艜_1805-6" cx="7.67585" cy="43.10103" r="13.52896" gradientTransform="translate(0.78338) scale(1.0928 1)" xlink:href="#鍊踑臇_蜸馯鳺艜_1805"/><radialGradient id="鍊踑臇_蜸馯鳺艜_1804-2" cx="32.81572" cy="35.67107" r="19.22021" xlink:href="#鍊踑臇_蜸馯鳺艜_1804"/><radialGradient id="鍊踑臇_蜸馯鳺艜_1804-3" cx="10.06962" cy="36.58633" r="14.35807" xlink:href="#鍊踑臇_蜸馯鳺艜_1804"/><radialGradient id="鍊踑臇_蜸馯鳺艜_1803" cx="10.36986" cy="34.28968" r="10.32333" gradientTransform="translate(0.78338) scale(1.0928 1)" gradientUnits="userSpaceOnUse"><stop offset="0.10303" stop-color="#89d82e"/><stop offset="1"/></radialGradient><radialGradient id="鍊踑臇_蜸馯鳺艜_1803-2" cx="18.33866" cy="39.13326" r="8.99315" xlink:href="#鍊踑臇_蜸馯鳺艜_1803"/><radialGradient id="鍊踑臇_蜸馯鳺艜_1803-3" cx="11.4696" cy="37.43586" r="15.33148" xlink:href="#鍊踑臇_蜸馯鳺艜_1803"/><linearGradient id="鍊踑臇_蜸馯鳺艜_1797" x1="13.14142" y1="34.84587" x2="22.36854" y2="34.84587" gradientUnits="userSpaceOnUse"><stop offset="0" stop-color="#89d82e"/><stop offset="1" stop-color="#0d0d0d"/></linearGradient><linearGradient id="鍊踑臇_蜸馯鳺艜_1797-2" x1="21.23702" y1="38.61185" x2="27.65565" y2="38.61185" xlink:href="#鍊踑臇_蜸馯鳺艜_1797"/><linearGradient id="鍊踑臇_蜸馯鳺艜_1797-3" x1="10.44655" y1="39.45854" x2="3.76221" y2="42.06283" xlink:href="#鍊踑臇_蜸馯鳺艜_1797"/><radialGradient id="鍊踑臇_蜸馯鳺艜_1802" cx="22.29935" cy="43.12838" r="21.16637" gradientTransform="translate(0.78338) scale(1.0928 1)" gradientUnits="userSpaceOnUse"><stop offset="0.71842"/><stop offset="0.7461" stop-color="#020c0e"/><stop offset="0.79819" stop-color="#082c32"/><stop offset="0.86915" stop-color="#11616d"/><stop offset="0.95529" stop-color="#1ea8bd"/><stop offset="1" stop-color="#25cfe9"/></radialGradient><radialGradient id="鍊踑臇_蜸馯鳺艜_1801" cx="10.38081" cy="40.5406" r="18.7917" gradientTransform="translate(0.78338) scale(1.0928 1)" gradientUnits="userSpaceOnUse"><stop offset="0.75189"/><stop offset="0.77628" stop-color="#020c0e"/><stop offset="0.82218" stop-color="#082c32"/><stop offset="0.8847" stop-color="#11616d"/><stop offset="0.96061" stop-color="#1ea8bd"/><stop offset="1" stop-color="#25cfe9"/></radialGradient><radialGradient id="鍊踑臇_蜸馯鳺艜_1800" cx="16.29548" cy="33.19805" r="26.416" gradientTransform="translate(0.78338) scale(1.0928 1)" gradientUnits="userSpaceOnUse"><stop offset="0.58653"/><stop offset="0.62719" stop-color="#020c0e"/><stop offset="0.70367" stop-color="#082c32"/><stop offset="0.80786" stop-color="#11616d"/><stop offset="0.93436" stop-color="#1ea8bd"/><stop offset="1" stop-color="#25cfe9"/></radialGradient><radialGradient id="鍊踑臇_蜸馯鳺艜_1799" cx="563.59931" cy="128.67097" r="1.2265" gradientTransform="matrix(3.085, -1.3816, 2.1752, 4.0674, -1996.03922, 299.70726)" gradientUnits="userSpaceOnUse"><stop offset="0" stop-color="#84d400"/><stop offset="0.09115" stop-color="#75bd00"/><stop offset="0.42188" stop-color="#446d00"/><stop offset="0.694" stop-color="#1f3200"/><stop offset="0.89381" stop-color="#090e00"/><stop offset="1"/></radialGradient><radialGradient id="鍊踑臇_蜸馯鳺艜_1798" cx="527.8328" cy="192.60057" r="1.2265" gradientTransform="translate(-1954.60734 -830.39152) scale(3.7238 4.5556)" gradientUnits="userSpaceOnUse"><stop offset="0" stop-color="#acef32"/><stop offset="0.17604" stop-color="#88bd27"/><stop offset="0.47564" stop-color="#4e6d17"/><stop offset="0.72249" stop-color="#24320a"/><stop offset="0.90369" stop-color="#0a0e03"/><stop offset="1"/></radialGradient><linearGradient id="鍊踑臇_蜸馯鳺艜_1797-4" x1="25.65537" y1="31.00231" x2="17.45628" y2="33.81513" xlink:href="#鍊踑臇_蜸馯鳺艜_1797"/><linearGradient id="鍊踑臇_蜸馯鳺艜_1797-5" x1="30.08856" y1="36.11482" x2="24.66503" y2="37.97544" xlink:href="#鍊踑臇_蜸馯鳺艜_1797"/><linearGradient id="鍊踑臇_蜸馯鳺艜_1797-6" x1="4.1801" y1="38.18509" x2="9.34337" y2="40.87897" xlink:href="#鍊踑臇_蜸馯鳺艜_1797"/><radialGradient id="鍊踑臇_蜸馯鳺艜_1796" cx="22.64782" cy="70.51002" r="6.6021" gradientTransform="translate(0.23137 -83.67311) scale(0.7321 1.8036)" gradientUnits="userSpaceOnUse"><stop offset="0" stop-color="#b4f838"/><stop offset="0.09675" stop-color="#a9ea35"/><stop offset="0.2811" stop-color="#8ec42d"/><stop offset="0.5339" stop-color="#618621"/><stop offset="0.84217" stop-color="#243310"/><stop offset="1" stop-color="#030507"/></radialGradient></defs><title>世彩30秒魚蝦蟹_越</title><g style="isolation:isolate"><g id="圖層_2" data-name="圖層 2"><g id="圖層_1-2" data-name="圖層 1"><path d="M95.47663,79.13857a82.964,82.964,0,0,0-15.003,7.37935c3.13629-5.97176,6.27262-11.765,9.40859-17.2949Q92.67946,74.03186,95.47663,79.13857Z" style="fill:url(#linear-gradient)"/><path d="M6.37216,46.00147C9.82866,59.226,13.28485,71.843,16.741,83.96816c26.24487,9.951,52.49038-8.4764,78.73559-4.82959Q92.679,74.023,89.88225,69.223C62.04532,60.74919,34.20872,73.07535,6.37216,46.00147Z" style="fill:url(#linear-gradient-2)"/><path d="M115.70172,46.84056C92.66816,25.08393,43.87449,15.67922,0,22.27552c6.79821,2.01863,13.03664,7.065,13.03664,7.065s-1.27981,2.95011-4.079,8.69511c30.806-6.52835,81.84572,9.95259,101.78546,27.97187Q113.22227,56.22753,115.70172,46.84056Z" style="fill:url(#linear-gradient-3)"/><path d="M104.29095,43.10549C104.29095,19.29866,84.4103,0,59.8862,0,35.36247,0,15.48145,19.29866,15.48145,43.10549c0,23.80581,19.881,43.1045,44.40475,43.1045.442,0,.88166-.00838,1.32065-.02094l5.015,10.35908,8.2791-12.7307C91.8446,77.95131,104.29095,61.94034,104.29095,43.10549Z" style="fill:url(#未命名漸層_43)"/><path d="M104.29095,43.10549q0-1.104-.05674-2.19351c-22.54846-4.69142-48.51,5.87769-62.75209,6.46618a40.32506,40.32506,0,0,1-25.46477-8.07444l-.42143.71379c-.074,1.01977-.11447,2.04888-.11447,3.088a41.912,41.912,0,0,0,2.122,13.19325l40.85033,19.4362a106.15832,106.15832,0,0,1,24.80346-6.95512,30.3557,30.3557,0,0,1,12.084.278A42.09454,42.09454,0,0,0,104.29095,43.10549Z" style="opacity:0.14"/><path d="M24.21051,35.399c1.82685,16.16876,19.28032,28.05119,38.98374,26.54035C82.89761,60.425,97.38937,46.09256,95.562,29.92456c-1.8266-16.16927-19.282-28.05048-38.98572-26.53837C36.87384,4.89753,22.38265,19.231,24.21051,35.399Z" style="fill:url(#linear-gradient-4)"/><path d="M103.62857,30.51541a7.16686,7.16686,0,0,1,1.66992,1.32568c.342.36659.95923.771.86024,1.32776a5.86861,5.86861,0,0,0,1.00159-1.93042c.45936-1.70907-.50016-3.11638-1.69145-4.25577a7.68544,7.68544,0,0,0-5.33156-2.27872c.68972,1.36616.94814,3.50259-.32267,4.692.33642-.3146,1.64558.19675,2.00757.32063A10.337,10.337,0,0,1,103.62857,30.51541Z" style="fill:url(#linear-gradient-5)"/><path d="M98.39966,29.50215c2.5142-.70092,5.163.71442,6.93342,2.4925,1.18143,1.18484,3.44727,4.522,5.12775,4.86556,1.07953.21848,1.87314-.85414,2.71392-1.64867a3.67929,3.67929,0,0,1,3.96746-1.06984c.448.11017,3.00677.31015,2.77722,1.09606-.12224.41712-1.36154.588-1.75256.81618a9.80752,9.80752,0,0,0-2.25127,1.758c-1.57652,1.67979-2.16864,4.17176-2.75354,6.32868-.12382.45817-.227,2.06829-.866,2.06044-.40988-.00495-.885-.79243-1.05826-1.10961a14.06914,14.06914,0,0,1-1.24633-2.70935,8.62185,8.62185,0,0,1-.18971-2.018c-.1209-1.82821-2.006-1.37833-3.16487-1.01979.23709.68145,1.23581,1.64537.30886,2.19435-.788.465-2.06511-.24051-2.77437-.58337-.74133-.35788-2.63347-1.15914-3.2075-.14383-.45879.81594.76158,1.82944.042,2.64753-.47941.54648-1.69174.38251-2.33118.28639a4.30743,4.30743,0,0,1-3.34564-2.76993c-.59061-1.24134-.85839-1.6425-2.1305-2.07562-.83252-.28244-1.71625-.60617-1.17159-1.63359.58731-1.113,1.08589-1.72066-.29786-2.55941-.72175-.43815-2.44013-1.12295-1.183-2.21635.64159-.55967,2.205-.47191,3.04473-.86416A31.65672,31.65672,0,0,1,98.39966,29.50215Z" style="fill:url(#linear-gradient-6)"/><path d="M98.39966,29.50215c2.5142-.70092,5.163.71442,6.93342,2.4925,1.18143,1.18484,3.44727,4.522,5.12775,4.86556,1.07953.21848,1.87314-.85414,2.71483-1.64927A4.79261,4.79261,0,0,1,120,35.08727c-1.41359-.16183-3.19733,1.78028-4.08439,2.7247-1.57652,1.67979-2.16864,4.17176-2.75354,6.32868-.12351.45666-.20127,1.89195-.72946,2.05489-.53084.16475-1.409-.87232-1.68646-1.25852-.9247-1.29052-.84445-3.068-.94417-4.57362-.12106-1.82746-2.00612-1.37758-3.165-1.019.23709.68145,1.23581,1.64537.30886,2.19435-.788.465-2.06511-.24051-2.77437-.58337-.74133-.35788-2.63347-1.15914-3.2075-.14383-.45879.81594.76158,1.82944.042,2.64753-.47941.54648-1.69174.38251-2.33118.28639a4.30743,4.30743,0,0,1-3.34564-2.76993c-.59061-1.24134-.85839-1.6425-2.1305-2.07562-.83252-.28244-1.71625-.60617-1.17159-1.63359.58731-1.113,1.08589-1.72066-.29786-2.55941-.72175-.43815-2.44013-1.12295-1.183-2.21635.64159-.55967,2.205-.47191,3.04473-.86416A31.65672,31.65672,0,0,1,98.39966,29.50215Z" style="fill:url(#linear-gradient-7)"/><path d="M98.43913,29.669a6.675,6.675,0,0,1,3.99542.13576,10.58209,10.58209,0,0,1,4.24014,3.47154c1.08025,1.32267,1.93248,3.20845,3.78615,3.58394,1.07953.21848,1.87314-.85414,2.71483-1.64927A4.79261,4.79261,0,0,1,120,35.08727c-1.41359-.16183-3.19733,1.78028-4.08439,2.7247-1.57652,1.67979-2.16864,4.17176-2.75354,6.32868-.12351.45666-.20127,1.89195-.72946,2.05489-.53084.16475-1.409-.87232-1.68646-1.25852-.9247-1.29052-.84445-3.068-.94417-4.57362-.12106-1.82746-2.00612-1.37758-3.165-1.019.23709.68145,1.23581,1.64537.30886,2.19435-.788.465-2.06511-.24051-2.77437-.58337-.74133-.35788-2.63347-1.15914-3.2075-.14383-.45879.81594.76158,1.82944.042,2.64753-.47941.54648-1.69174.38251-2.33118.28639a4.30743,4.30743,0,0,1-3.34564-2.76993c-.59061-1.24134-.85839-1.6425-2.1305-2.07562-.83252-.28244-1.71625-.60617-1.17159-1.63359.58731-1.113,1.08589-1.72066-.29786-2.55941-.72175-.43815-2.43938-1.12279-1.18387-2.21575.71137-.61889,2.13742-.72509,3.0256-.9847,1.266-.36852,2.39151-1.08278,3.641-1.48769C97.62839,29.884,98.03554,29.765,98.43913,29.669Z" style="fill:url(#linear-gradient-8)"/><path d="M98.43913,29.669a6.675,6.675,0,0,1,3.99542.13576,10.58209,10.58209,0,0,1,4.24014,3.47154c1.08025,1.32267,1.93248,3.20845,3.78615,3.58394,1.07953.21848,1.87314-.85414,2.71483-1.64927A4.79261,4.79261,0,0,1,120,35.08727c-1.41359-.16183-3.19733,1.78028-4.08439,2.7247-1.57652,1.67979-2.16864,4.17176-2.75354,6.32868-.12351.45666-.20127,1.89195-.72946,2.05489-.53084.16475-1.409-.87232-1.68646-1.25852-.9247-1.29052-.84445-3.068-.94417-4.57362-.12106-1.82746-2.00612-1.37758-3.165-1.019.23709.68145,1.23581,1.64537.30886,2.19435-.788.465-2.06511-.24051-2.77437-.58337-.74133-.35788-2.63347-1.15914-3.2075-.14383-.45879.81594.76158,1.82944.042,2.64753-.47941.54648-1.69174.38251-2.33118.28639a4.30743,4.30743,0,0,1-3.34564-2.76993c-.59061-1.24134-.85839-1.6425-2.1305-2.07562-.83252-.28244-1.71625-.60617-1.17159-1.63359.58731-1.113,1.08589-1.72066-.29786-2.55941-.72175-.43815-2.43938-1.12279-1.18387-2.21575.71137-.61889,2.13742-.72509,3.0256-.9847,1.266-.36852,2.39151-1.08278,3.641-1.48769C97.62839,29.884,98.03554,29.765,98.43913,29.669Z" style="fill:url(#linear-gradient-8)"/><g style="opacity:0.29;mix-blend-mode:multiply"><path d="M115.91561,37.812a18.74548,18.74548,0,0,1,1.761-1.70831c-1.40274.42536-2.81213,1.31325-4.09885,1.71886a9.42008,9.42008,0,0,1-4.56439.20591c-2.29619-.3243-4.61511-.526-6.8857-1.01142-2.08637-.44573-3.66348-.31171-4.998-2.26419-1.28725.78658-2.71637.377-4.02174-.19184-.12418-.054-.23743-.10889-.34068-.16391-1.51651-.81406-.82781-1.76274.57244-2.60643-.0631-.00464-.13247-.00822-.19791-.01256-.86492.22681-2.05513.24146-2.59556.71245-1.25717,1.0934.46121,1.77819,1.183,2.21635,1.38375.83876.88518,1.44643.29786,2.55941-.54466,1.02743.33907,1.35115,1.17159,1.63359,1.27211.43312,1.53989.83428,2.1305,2.07562a4.30743,4.30743,0,0,0,3.34564,2.76993c.63943.09612,1.85176.26009,2.33118-.28639.71957-.81809-.5008-1.8316-.042-2.64753.574-1.01531,2.46618-.21406,3.2075.14383.70926.34285,1.98638,1.0484,2.77437.58337.92695-.549-.07177-1.5129-.30886-2.19435,1.15891-.35855,3.044-.80842,3.165,1.019.09972,1.50565.01947,3.2831.94417,4.57362.27746.38621,1.15562,1.42327,1.68646,1.25852.52819-.16294.606-1.59822.72946-2.05489C113.747,41.98373,114.33909,39.49175,115.91561,37.812Z" style="fill:#c25d56"/></g><path d="M107.58391,34.51374c-.30367-.42617-.59672-.85548-.90921-1.23747a10.58209,10.58209,0,0,0-4.24014-3.47154c-3.72049-1.44205-5.79625.62985-8.86364,1.70169-.43527.127-.99957.21813-1.54513.35a6.06328,6.06328,0,0,0,1.75132-.12722c2.2059-.5277,4.46939-1.5695,6.78623-1.21714a10.89334,10.89334,0,0,1,4.70824,2.35307A16.61126,16.61126,0,0,0,107.58391,34.51374Z" style="fill:#ffce4d"/><path d="M113.17567,35.21094c-.84169.79513-1.6353,1.86775-2.71483,1.64927a4.757,4.757,0,0,1-2.05852-1.38763,8.63783,8.63783,0,0,0-4.11107-1.82566,16.81737,16.81737,0,0,0-5.82893.50424c-1.741.38686-3.94424.80709-5.23722-.82867.21718,1.14893.445,2.12977,1.5563,2.6431a4.06569,4.06569,0,0,0,2.69706.47161c1.47814-.29485,2.70637-1.0108,4.20873-1.15956a7.89418,7.89418,0,0,1,4.43878.56858c2.35845,1.05245,3.809,2.67547,6.66533,1.84217,1.714-.49983,5.02358-3.16233,7.17719-2.62828A4.791,4.791,0,0,0,113.17567,35.21094Z" style="fill:#ffd871"/><path d="M105.46887,26.98266a7.68437,7.68437,0,0,0-5.29872-2.27657c-.00889.00429-.01779.00629-.02684.01133a5.38859,5.38859,0,0,1,.3695.97032,5.4658,5.4658,0,0,1,2.51,1.1428c.27256.22269.56613.488.85927.7817a8.3086,8.3086,0,0,1,1.97766,2.84135,5.95436,5.95436,0,0,1,.60187,2.383,10.13554,10.13554,0,0,0,.69874-1.5982C107.61969,29.52936,106.66017,28.122,105.46887,26.98266Z" style="fill:#ffd871"/><g style="opacity:0.41000000000000003"><path d="M117.99648,35.528a27.04471,27.04471,0,0,0-3.80783,2.10026,10.13767,10.13767,0,0,1-5.39482,1.22876c-3.89356.10228-7.60837.35951-11.48035-.31575-1.763-.30762-4.372-.866-4.732-2.96366.12381.72171-.22139,1.05829-.55445,1.68863-.54466,1.02743.33907,1.35115,1.17159,1.63359a3.68761,3.68761,0,0,1,1.097.53652,1.85332,1.85332,0,0,1,1.22265.46427c.71368.6888.50947,1.99747,1.07721,2.79868a2.29915,2.29915,0,0,0,.259.28812,3.85641,3.85641,0,0,0,1.82022.758,3.78155,3.78155,0,0,0,2.087-.09921c.01613-.01119.03829-.02043.05444-.03169.00889-.00578.01508-.01368.02323-.01969a1.39159,1.39159,0,0,0,.18838-.16581c.56114-.68589-.17475-1.46361-.18534-2.18955a1.31349,1.31349,0,0,1,1.44793-1.21719,1.70285,1.70285,0,0,1,.82093.40346,9.74765,9.74765,0,0,0,1.06006.52958c.70926.34285,1.98638,1.0484,2.77437.58337.92695-.549-.07177-1.5129-.30886-2.19435.1756-.05423.36888-.11006.5691-.16069a1.59243,1.59243,0,0,1,1.06554-.16085,1.29305,1.29305,0,0,1,1.49181,1.05586,2.88972,2.88972,0,0,1,.51377,1.20708c.28809,1.88726.32305,3.76208,2.06341,4.91375l.02056-.00109c-1.36769-1.0631.35875-5.47888.95751-6.51734A9.63214,9.63214,0,0,1,117.99648,35.528Z" style="fill:#a51e33"/></g><path d="M104.05918,40.05584a4.72942,4.72942,0,0,0-2.51551-.16489,13.10165,13.10165,0,0,1-2.53514-.04561c-.33559-.02712-.67471-.04814-1.01495-.071a11.27293,11.27293,0,0,1-2.94539-.47764c-.7062-.24409-2.7755-1.16934-2.98442-2.09878-.01209.02356-.02434.04561-.03673.06832-.54466,1.02743.33907,1.35115,1.17159,1.63359,1.27211.43312,1.53989.83428,2.1305,2.07562A4.95647,4.95647,0,0,0,97.241,43.24671c-.88361-.80824-1.58267-2.473-.41722-2.86851a2.31025,2.31025,0,0,1,2.30826.51467,3.69788,3.69788,0,0,1,.692,1.372c-.02688-.42643-.17088-1.51957.55567-.9914a2.74259,2.74259,0,0,1,.84083,1.36206c-.10027-.61643-.57044-1.26637-.25665-1.824.574-1.01531,2.46618-.21406,3.2075.14383.70926.34285,1.98638,1.0484,2.77437.58337a.70983.70983,0,0,0,.36966-.4587C106.35283,41.32343,104.63709,40.34933,104.05918,40.05584Z" style="fill:#b01c19"/><path d="M116.953,36.36273c-.89241.35451-1.7778.82321-2.62434,1.178a6.22138,6.22138,0,0,1-1.802.9347,8.64042,8.64042,0,0,1-3.3868.46389,3.05819,3.05819,0,0,0-2.81547.62248.877.877,0,0,1,.32353-.19071l-.011-.02676c1.15891-.35855,3.044-.80842,3.165,1.019.09972,1.50565.01947,3.2831.94417,4.57362.27746.38621,1.15562,1.42327,1.68646,1.25852a.39479.39479,0,0,0,.14424-.09509,6.45358,6.45358,0,0,1-1.41453-2.39994,5.13277,5.13277,0,0,1,.73556-3.84083,6.91639,6.91639,0,0,1,1.15962-1.1817,2.92945,2.92945,0,0,0-.86913,1.52311,5.922,5.922,0,0,0-.144.94545,6.39736,6.39736,0,0,1,.07818.8718,5.85258,5.85258,0,0,1,.4928-1.37172A11.01854,11.01854,0,0,1,116.953,36.36273Z" style="fill:#b01c19"/><path d="M100.38907,43.80839a1.02244,1.02244,0,0,0,.64546-.40406c.465-.69045-.43719-2.03.02823-2.84459-1.46958,2.57206-5.09986.94005-6.47388-.95849.55242,1.82688,2.12527,3.84864,4.08589,4.14418A4.86235,4.86235,0,0,0,100.38907,43.80839Z" style="mix-blend-mode:screen;fill:url(#radial-gradient)"/><path d="M109.33558,36.39535c-.3773.26549-2.41536-2.81766-2.66089-3.11908a10.58209,10.58209,0,0,0-4.24014-3.47154,6.675,6.675,0,0,0-3.99542-.13576c-.40359.09605-.81074.215-1.22727.34976-1.24944.40492-2.37494,1.11917-3.641,1.48769-.88818.25961-2.31423.36581-3.0256.9847a1.19579,1.19579,0,0,0-.42583.6173,11.81734,11.81734,0,0,0,1.89261,1.21077c1.16719.73111,2.28654,1.53979,3.517,2.16512a18.98592,18.98592,0,0,0,5.30172,1.73518,9.083,9.083,0,0,0,3.51245.282,11.76342,11.76342,0,0,0,3.66416-1.32345C108.45363,36.92528,108.91614,36.69044,109.33558,36.39535Z" style="mix-blend-mode:screen;fill:url(#radial-gradient-2)"/><path d="M106.43581,32.839c-1.20261-1.41854-3.67894-2.33669-5.419-2.74993a10.09218,10.09218,0,0,0-6.13519.93844c2.08275-1.234,4.37412-2.29222,6.71593-1.54672A10.60442,10.60442,0,0,1,106.43581,32.839Z" style="fill:#fff;opacity:0.78"/><path d="M110.30534,36.75907c1.52817.78578,2.48768-1.32511,3.48531-2.09948a4.63239,4.63239,0,0,1,2.8493-.99429,5.3925,5.3925,0,0,1,3.08456,1.36581c-.618-.13464-1.102-.516-1.71351-.6677a6.08423,6.08423,0,0,0-2.56355-.03994c-1.43321.27422-2.1,1.334-3.16416,2.18579a2.02135,2.02135,0,0,1-1.94787.36412Z" style="fill:#fff;opacity:0.78"/><path d="M100.1667,24.73757a4.38367,4.38367,0,0,1-.35938,4.71048c1.00153-.72677,2.20908-2.502,1.70223-3.7866,1.0343-.09139,2.89728.25761,3.58773,1.09721a6.24955,6.24955,0,0,0-4.93057-2.02109Z" style="fill:#fff;opacity:0.78"/><path d="M109.802,40.36338c.09972,1.50565.01947,3.2831.94417,4.57362.25.34835.9854,1.21561,1.51744,1.26575a2.99892,2.99892,0,0,1-.732-.596,4.45368,4.45368,0,0,1-1.12033-2.95165c-.09152-1.00025.15708-2.95064-.78379-3.62885-.83044-.6002-2.17431.04129-3.00169.33489C107.7229,38.97151,109.69793,38.79317,109.802,40.36338Z" style="fill:#29cce5"/><path d="M101.13271,43.16477c-.9135,1.32073-4.09265-.13285-4.74192-1.09042-.45326-.66874-.78391-1.378-1.28569-2.01218a2.75233,2.75233,0,0,0-1.40452-.96654c.85169.37692,1.126.82459,1.62855,1.87987a5.16625,5.16625,0,0,0,2.33662,2.62734,4.01525,4.01525,0,0,0,2.418.34178c.49113-.15608,1.09612-.468,1.181-1.03087A1.20833,1.20833,0,0,1,101.13271,43.16477Z" style="fill:#29cce5"/><path d="M107.34852,41.04616c-.55735.91827-1.77489.24882-2.47633-.09084a4.998,4.998,0,0,0-3.397-.55488c1.372-.28609,2.53581.64138,3.75672,1.10686C106.09477,41.83589,106.82615,41.9065,107.34852,41.04616Z" style="fill:#29cce5"/><path d="M119.72254,35.36884c-1.54819.88063-3.06352,1.13474-4.22029,2.69049a17.25707,17.25707,0,0,0-2.08444,4.8162c-.35273,1.05563-.52326,2.22563-.80208,3.30957-2.23888-.48879-2.31673-3.271-1.97694-5.0799.496-2.643,3.22286-4.63234,5.58374-5.598a4.01821,4.01821,0,0,1,3.2716-.07743Z" style="mix-blend-mode:screen;fill:url(#radial-gradient-3)"/><path d="M100.11647,24.65433a5.01572,5.01572,0,0,1-.06089,4.56986c.45518-.55533,1.75659-4.9324.10621-4.3979Z" style="fill:#4ce8e8"/><path d="M93.28845,31.59525a14.10556,14.10556,0,0,0,2.59477-1.18875c1.8783-.92734,3.92959-1.714,6.0217-.99023a5.97486,5.97486,0,0,1,2.66194,1.74692c-3.94431-3.29844-8.00185-.181-12.00339.707-.82718.18326-2.82585.93633-2.117,2.10247.02081.03492.02276.03461.0043-.00217C89.63327,32.1577,91.85663,31.974,93.28845,31.59525Z" style="fill:#4ce8e8"/><path d="M97.7177,31.73329a2.16388,2.16388,0,0,0-2.164.18214c-.29875.18971-.6628.40817-.77206.72905-.21966.64915-.0798,1.3635-.28216,2.01631-.09318.30042-.35728.56937-.41045.81753a.89307.89307,0,0,0,.2728.80918,2.14075,2.14075,0,0,0,1.60548.673,3.0072,3.0072,0,0,0,2.34011-1.65378C99.06807,33.92441,98.80455,32.32282,97.7177,31.73329Z" style="fill:#ab1f2e;opacity:0.5;mix-blend-mode:multiply"/><path d="M94.445,32.59862a2.362,2.362,0,0,0,.76374,3.25447,2.395,2.395,0,0,0,3.17016-1.122,2.36333,2.36333,0,0,0-.76542-3.254A2.395,2.395,0,0,0,94.445,32.59862Z" style="fill:url(#radial-gradient-4)"/><g style="opacity:0.33;mix-blend-mode:multiply"><path d="M98.37888,34.73112a2.61054,2.61054,0,0,0,.255-1.92221c-.052.25909-.18561.568-.2301.75894a4.29066,4.29066,0,0,1-.34083,1.00754l-.042.0772a1.82161,1.82161,0,0,1-2.00058.90136,2.37057,2.37057,0,0,1-1.85368-2.20784,2.25906,2.25906,0,0,0,1.042,2.507A2.395,2.395,0,0,0,98.37888,34.73112Z" style="fill:#4fc6e7"/></g><path d="M98.06882,35.21675a2.57369,2.57369,0,0,0,.61673-2.06594,2.65132,2.65132,0,0,1-1.12041,2.96155,2.52867,2.52867,0,0,1-2.90807-.46144,1.92443,1.92443,0,0,1-.50811-1.57937,1.94773,1.94773,0,0,0,.49426,1.279,1.9042,1.9042,0,0,0,1.17583.70071A2.41255,2.41255,0,0,0,98.06882,35.21675Z" style="fill:#6d0c1b"/><path d="M96.00442,31.695c-.25768.54936.61589.37184.93624.44268A1.72667,1.72667,0,0,1,98.426,33.919c.026-.53743.25964-.68155.036-1.27826a1.76653,1.76653,0,0,0-.58453-.85139c-.40927-.3384-1.37746-.89885-1.81445-.20174A.88956.88956,0,0,0,96.00442,31.695Z" style="fill:#fff"/><path d="M98.77823,32.9284c.00327-.023.00564-.04554.00772-.0689A3.39667,3.39667,0,0,1,98.127,34.883c-.81646,1.13306-2.52652,1.56164-3.41935.27079.35247.50911,1.1797.39251,1.70753.38894a2.1074,2.1074,0,0,0,1.608-1.00472c.16206-.23335.2524-.49989.40091-.74366A2.36581,2.36581,0,0,0,98.77823,32.9284Z" style="fill:#6cefef;opacity:0.73"/><path d="M94.51606,32.56809A1.09161,1.09161,0,0,0,95.23378,33.94a1.09706,1.09706,0,1,0-.71773-1.37194Z" style="fill:url(#radial-gradient-5)"/><path d="M95.21719,33.99258a1.14924,1.14924,0,0,1-.75383-1.44229,1.15662,1.15662,0,1,1,1.14493,1.49556A1.12057,1.12057,0,0,1,95.21719,33.99258Zm-.64867-1.40752a1.042,1.042,0,0,0,.68207,1.30326,1.08559,1.08559,0,0,0,.35347.0462,1.04034,1.04034,0,0,0,.27617-2.03364,1.10906,1.10906,0,0,0-.34986-.04695A1.05174,1.05174,0,0,0,94.56852,32.58505Z" style="fill:#004a61"/><circle cx="95.40566" cy="32.69389" r="0.73868" transform="translate(35.62948 113.92159) rotate(-72.56603)" style="fill:#000f24"/><circle cx="95.159" cy="32.26207" r="0.33358" transform="translate(35.76522 113.30809) rotate(-72.49291)" style="fill:#fff"/><path d="M6.35392,46.05946c36.44949,22.78541,72.89831-22.00433,109.3478.78111q-2.47912,9.38085-4.95861,19.16693C79.40886,55.20489,48.07493,89.812,16.741,83.96816,13.27853,71.86424,9.81673,59.26656,6.35392,46.05946Z" style="fill:url(#linear-gradient-10)"/><path d="M27.54433,42.57933c-.02087-.3386-.07593-.97456-.136-1.31541a.49249.49249,0,0,0-.024-.51494.89.89,0,0,0-.41674-.25315,7.496,7.496,0,0,0-3.1613-.41651,10.852,10.852,0,0,0-1.27143.17418,27.11081,27.11081,0,0,0-.56307-3.255c.00459-.01032.01138-.01937.01575-.02982-.00538.00724-.0124.01284-.01791.01994-.0049-.02056-.00847-.04125-.01346-.06176a.24144.24144,0,0,0-.02572-.13341.53865.53865,0,0,0-.24516-.19769l-.02951-.01434a4.30835,4.30835,0,0,0-1.61259-.61571,12.22694,12.22694,0,0,0-4.17331-.21957c-.89581.07275-2.56544.22438-3.20268.95127a.72049.72049,0,0,0-.11757.15719l-.00207-.01218c.00031.00679-.00313.01553-.00349.02268a.45148.45148,0,0,0-.05921.20678l.00079.00459c-.03851.09137-.08435.18309-.10685.25332q-.08166.25491-.15009.51313-.12878.4866-.20859.98254A14.13765,14.13765,0,0,0,11.8613,40.76c-.02378,1.038-.04685,2.07662-.0146,3.11471.02241.72115.14978,1.42077.22438,2.1326-.01451-.00463-.02974-.0075-.04434-.012-.35082-.699-.74519-1.38247-1.16832-2.04944q-.19244-.30329-.39194-.60194-.10965-.16425-.2209-.32718l-.03472-.05934a.76279.76279,0,0,0-.16279-.384.56368.56368,0,0,1-.009.0949l-.02634-.044a.07668.07668,0,0,1,.00432.027.95342.95342,0,0,0-.52628-.35153,1.2285,1.2285,0,0,0-.27247-.07416,6.19244,6.19244,0,0,0-2.1814-.00746,7.27294,7.27294,0,0,0-1.35446.33829c-.27075.081-.53824.17126-.7984.2775-.27393.11188-.58271.29841-.566.57247a.35669.35669,0,0,0,.05166.16226.37323.37323,0,0,0,.00375.09384.37705.37705,0,0,0,.01513.045q-.00893.53841-.02757,1.081c-.00869.25668-.01774.51388-.02541.77122-.01531.51472-.02515,1.03006-.01553,1.54328.00481.25663.01451.51269.03079.76791a11.57982,11.57982,0,0,0,.1909,1.518q.08186.41228.181.82434c.03807.15763.0829.31434.12516.47144a10.27969,10.27969,0,0,0,.52487,1.62384,12.6231,12.6231,0,0,0,1.83591,3.319,11.71855,11.71855,0,0,0,4.17662,3.30918l.00309.00132c.1661.07893.34187.15547.5235.22985.06313.02585.12971.04985.19443.075.1226.04774.24547.095.3731.14007.081.02859.16372.05515.24635.08254.11563.03829.23122.07579.34954.11144.09207.02775.18437.05378.27768.07976.1121.03124.22416.061.33759.08947.09909.02488.19756.04871.29726.07129.10968.02488.219.04734.32885.06926.10244.02043.20409.04081.30631.0585.1084.01879.2156.03379.32329.04932.10191.01469.20374.03062.30463.04218.11246.01288.22209.02021.33274.029l.04209.00366c.37024.45481.74043.99582,1.44415,1.05552a1.69378,1.69378,0,0,0,1.27429-.65329c.05506-.05259.10928-.10469.16315-.15459a8.7787,8.7787,0,0,0,1.90482-2.59655c.36821-.21913.744-.41268,1.11477-.60962-.01937.01231-.03776.02621-.05722.03838.02453-.01535.04862-.03146.0731-.0469.088-.04681.17612-.09353.26334-.14135a7.15408,7.15408,0,0,0,1.34713-.90856,8.86523,8.86523,0,0,0,.93821-.97249,7.30422,7.30422,0,0,0,1.68684-2.6423,4.6532,4.6532,0,0,0,1.26754-4.73021,27.684,27.684,0,0,0,.41669-3.3454c.02912-.52632.0364-1.04.09-1.56366C27.5547,42.77764,27.55157,42.69642,27.54433,42.57933Zm-7.05627,14.979a.60708.60708,0,0,1-.05541.11793q.03759-.07888.07332-.15825l0,.00026Zm-6.12653.25606q-.06247-.14294-.11616-.28932c-.02074-.05625-.043-.11188-.06176-.16884-.01059-.03247-.01738-.06613-.02731-.09878.07429.19059.14118.383.22037.57238.02841.06794.06018.14166.09419.21865l-.00582-.01072C14.42819,57.96435,14.39462,57.88948,14.36153,57.8144Zm7.59265-20.8403-.00154-.00882.00168-.00507C21.954,36.96483,21.95471,36.96951,21.95418,36.97409ZM15.63234,60.06991l.03984.00349c.04769.05634.09653.11051.146.16332A1.23219,1.23219,0,0,1,15.63234,60.06991Z" style="fill:#1d4080;opacity:0.36;mix-blend-mode:multiply"/><ellipse cx="17.60901" cy="33.91192" rx="4.74316" ry="1.37674" style="fill:url(#鍊踑臇_蜸馯鳺艜_1805)"/><path d="M12.50149,43.47967a32.07438,32.07438,0,0,0,2.25618,11.19022c.51838,1.23931,1.98278,4.14362,3.7241,2.787a8.85373,8.85373,0,0,0,2.793-4.07815A38.48545,38.48545,0,0,0,22.99581,43.652a31.46625,31.46625,0,0,0-.66454-9.91222c.18653.76716-4.04859,1.31947-4.56159,1.33407a12.5614,12.5614,0,0,1-2.43821-.09119c-.57671-.11021-2.36113-.38241-2.40291-1.30024a1.87554,1.87554,0,0,1-.16879.48737q-.0816.25491-.15009.51309-.12878.4866-.20859.98259a14.14348,14.14348,0,0,0-.15878,1.93456c-.02378,1.038-.04685,2.07662-.0146,3.11466C12.25673,41.64812,12.46452,42.54473,12.50149,43.47967Z" style="fill:url(#鍊踑臇_蜸馯鳺艜_1805-2)"/><path d="M17.75953,52.09947a1.64567,1.64567,0,0,0,2.0876-1.42041,29.53654,29.53654,0,0,0,.59078-5.08549,14.86361,14.86361,0,0,1,.05638-2.73049,15.09,15.09,0,0,1,1.28343-2.53059,9.75454,9.75454,0,0,0,.77418-2.8361c.08475-.73271-.28491-1.44635-.17422-2.19437-.11678.80228-.42516,1.589-.52826,2.385a13.47766,13.47766,0,0,1-.27622,1.85687,2.63527,2.63527,0,0,1-.75724,1.40246c-.28637.23868-.801.34928-1.02238.05846-.17568-.23078-.04244-.54507.0941-.797q.2839-.52392.56784-1.04793a1.96547,1.96547,0,0,0,.32082-.95228.73441.73441,0,0,0-.62246-.72221c-1.54844-.1309-1.60862,2.3644-1.35437,3.15622.38449,1.19709,1.21716,2.11094.88827,3.462-.44431,1.82634-.756-.44109-1.75738.13628.1271,1.09169,1.55722,2.56906.20285,3.38581a1.56456,1.56456,0,0,1-2.26081-.80219c-.9259-2.26174,2.09016-4.02574,1.75085-6.126a5.03094,5.03094,0,0,1,.55544-3.5336,3.562,3.562,0,0,1,1.22047-1.23313,2.20229,2.20229,0,0,0,.67526-.43725c.10849-.12256.29943-.72547.39922-.7676-2.27263.56272-3.654.76782-5.37428.16871a6.8325,6.8325,0,0,0,.867,2.54647,5.04678,5.04678,0,0,1,.92052,2.24127c.0484.686-.03768,2.48674-1.28885,2.08549.19438-.39344,1.2015-2.0269.63944-2.33855-1.05693-.58588-1.00174,3.51177-2.00312,1.39341a8.19984,8.19984,0,0,1-.42653-2.54409,12.7767,12.7767,0,0,1,.06944-3.3743c-.084.566-.70624,1.21187-.816,1.86838-.343,2.05231.23232,3.9859.31447,6.0135.12049,2.97353-.20078,8.13331,3.81715,9.19818A4.58878,4.58878,0,0,0,17.75953,52.09947Z" style="opacity:0.41000000000000003;mix-blend-mode:screen;fill:url(#鍊踑臇_蜸馯鳺艜_1804)"/><ellipse cx="24.56705" cy="37.97321" rx="3.21783" ry="0.98674" style="fill:url(#鍊踑臇_蜸馯鳺艜_1805-3)"/><path d="M10.45188,39.62215c.10231.5546-1.09015,1.20124-2.66343,1.44432s-2.93166-.0094-3.034-.564,1.09015-1.20124,2.66343-1.44432S10.34952,39.06755,10.45188,39.62215Z" style="fill:url(#鍊踑臇_蜸馯鳺艜_1805-4)"/><path d="M25.86734,49.76092A15.61072,15.61072,0,0,0,27.134,46.05438a32.1163,32.1163,0,0,0,.70954-4.85228c.02912-.52632.0364-1.04.09-1.56371.01134-.11034-.12728-1.94241-.23422-1.75077-.87565,1.56944-5.68152,1.30178-6.42838-.14568A7.81886,7.81886,0,0,0,20.26572,43.362c.19249.93821.55875,1.83856.81318,2.76437a11.94347,11.94347,0,0,1,.33843,4.58881c-.08784.729-.31306,1.429-.429,2.1495-.05034.31284.06234,1.53975-.23815,1.72063a17.3949,17.3949,0,0,0,2.78413-1.69288A10.2363,10.2363,0,0,0,25.86734,49.76092Z" style="fill:url(#鍊踑臇_蜸馯鳺艜_1805-5)"/><path d="M7.58965,52.46745a11.71807,11.71807,0,0,0,4.17662,3.30918,12.13219,12.13219,0,0,0,5.0696,1.15734,4.83334,4.83334,0,0,1-2.50738-3.82425c-.17846-1.592-.27609-3.50762-.38784-5.10468-.21432-3.06349-1.747-5.92359-3.56091-8.50575.02051,1.411-5.24506,2.13763-5.60391.59793a31.42213,31.42213,0,0,0,.147,6.13169A14.61085,14.61085,0,0,0,7.58965,52.46745Z" style="fill:url(#鍊踑臇_蜸馯鳺艜_1805-6)"/><path d="M21.28069,46.36593q.0714.43471.17832.86369c.45807,1.8364,1.402,3.70853.85337,5.52406a8.36665,8.36665,0,0,0,3.40831-3.83537c1.27941-2.82441.95378-6.00124,2.00943-8.91459-1.09279-.04341-.94549,1.88157-1.204,2.57043-2.46552-1.16259-.63446,2.67737-.77387,3.70227-.09776.71771-.21935,1.95481-.95352,2.40009a1.33686,1.33686,0,0,1-2.00625-.67451c-.25954-1.0016,1.052-1.90782,1.93054-2.21956-2.38725-.77493-.90529-.45776.07456-1.62384.28359-.33754.73125-.78446-.12591-.95034-.477-.09229-.73019.48926-1.14613.67151.11537.3844-.08228.59021-.14757.94831-2.99519-.57909,1.00937-2.68165,1.74821-3.43068a1.25156,1.25156,0,0,1-1.12641-1.05882,1.20727,1.20727,0,0,1,.9274-1.20971q-1.40387-.13315-2.80774-.26625a3.81451,3.81451,0,0,1,.54291,2.16384,7.51846,7.51846,0,0,1-.262,1.41278q-.21335.84613-.42675,1.69222a1.6409,1.6409,0,0,1-.61447-1.7006A10.82561,10.82561,0,0,0,21.28069,46.36593Z" style="opacity:0.41000000000000003;mix-blend-mode:screen;fill:url(#鍊踑臇_蜸馯鳺艜_1804-2)"/><path d="M8.95933,53.04186c.50082.41682,1.10854.6491,1.61532,1.0421.49624.38484,1.24765.84287,1.6781,1.23022a3.2125,3.2125,0,0,1-.90746-2.1619,7.74258,7.74258,0,0,1,.64946-3.85827,8.056,8.056,0,0,0,.65246-1.60712,8.19868,8.19868,0,0,0-.82129-4.92415c-.23224-.44912-.88187-1.04806-.99-1.50446q.50168,2.118,1.00337,4.236c.12172.51393.12728,1.22312-.42371,1.37241-.53462.14484-.95665-.4211-1.142-.90225a10.45961,10.45961,0,0,1-.69834-3.483,8.691,8.691,0,0,0,.11435,2.17474,1.99648,1.99648,0,0,1-.82513,1.93654c-.04116-.39472-.167-3.81-1.523-3.025a1.75406,1.75406,0,0,1-.46262-.62987c.74029-.6679,2.22406-1.00729,2.6809-1.77159a8.04244,8.04244,0,0,0-2.36449.91072c-.35519.12953-.69953.28006-1.00743.04363a1.4521,1.4521,0,0,1-.35824-1.30624.49737.49737,0,0,0-.41263.08854.61769.61769,0,0,0-.13491.312A13.28376,13.28376,0,0,0,5.95351,48.527,10.73548,10.73548,0,0,0,8.95933,53.04186Z" style="opacity:0.41000000000000003;mix-blend-mode:screen;fill:url(#鍊踑臇_蜸馯鳺艜_1804-3)"/><path d="M14.07482,43.54929A3.26666,3.26666,0,0,0,15.30226,44.633a2.58454,2.58454,0,0,0,2.55768-.02916,4.5461,4.5461,0,0,0,1.514-2.25371,23.807,23.807,0,0,0,.9821-3.76191c.12728-.62713.23563-1.26.38515-1.883.09322-.38859.17237-.78825.30075-1.17079.09093-.27079.31751-1.07312.60759-1.21487a8.69708,8.69708,0,0,1-3.557.76478,11.652,11.652,0,0,1-3.45477-.22615c-.42869-.12185-1.81244-.63415-1.62582-1.22272C11.96758,36.92895,11.86166,40.563,14.07482,43.54929Z" style="opacity:0.88;mix-blend-mode:screen;fill:url(#鍊踑臇_蜸馯鳺艜_1803)"/><path d="M20.40941,42.7973A7.05283,7.05283,0,0,0,22.547,47.95113a2.67573,2.67573,0,0,0,2.04971.76368,2.77415,2.77415,0,0,0,1.96337-1.95935,17.05906,17.05906,0,0,0,.61187-8.33091,5.613,5.613,0,0,1-5.17663-.04707,1.3074,1.3074,0,0,1-.62621-.57935C20.38563,39.16434,20.34729,41.21555,20.40941,42.7973Z" style="opacity:0.88;mix-blend-mode:screen;fill:url(#鍊踑臇_蜸馯鳺艜_1803-2)"/><path d="M13.54324,48.50661a12.81308,12.81308,0,0,0-1.13709-5.05955c-.27088-.65179-.39-.89232-.75221-1.68269-.2895-.63172-.88782-1.68538-1.26027-2.30007.05687.09384-.19593.49425-.265.56643a1.8875,1.8875,0,0,1-.488.30331,6.68052,6.68052,0,0,1-4.0324.538A20.16563,20.16563,0,0,0,8.3262,52.10648C10.70476,56.26153,13.53469,50.90277,13.54324,48.50661Z" style="opacity:0.88;mix-blend-mode:screen;fill:url(#鍊踑臇_蜸馯鳺艜_1803-3)"/><path d="M19.94119,34.92146a3.76872,3.76872,0,0,0,2.42735-1.11274A3.02144,3.02144,0,0,1,20.525,35.224a10.6936,10.6936,0,0,1-3.7961.65859,5.63553,5.63553,0,0,1-2.49384-.50784,2.31848,2.31848,0,0,1-1.09368-.97566.08459.08459,0,0,1,.07368-.06093A10.35506,10.35506,0,0,0,19.94119,34.92146Z" style="mix-blend-mode:screen;fill:url(#鍊踑臇_蜸馯鳺艜_1797)"/><path d="M21.63914,38.26871a5.30375,5.30375,0,0,0,.96119.47475,6.03829,6.03829,0,0,0,2.01322.26069,5.895,5.895,0,0,0,2.08866-.26819c.46143-.17338.9094-.51053.95343-.96525a1.5703,1.5703,0,0,1-.88531,1.26177,3.95567,3.95567,0,0,1-1.63835.39913,9.69826,9.69826,0,0,1-2.5493-.16769c-.48781-.098-1.12222-.21609-1.30734-.70588a.5809.5809,0,0,1,.20647-.68647C21.32084,37.97709,21.43351,38.12475,21.63914,38.26871Z" style="mix-blend-mode:screen;fill:url(#鍊踑臇_蜸馯鳺艜_1797-2)"/><path d="M9.87923,40.95155a6.323,6.323,0,0,1-2.87819.37522,4.41106,4.41106,0,0,1-1.29728-.16368,1.52474,1.52474,0,0,1-.954-.77515c.09044.2115,1.00081.393,1.22343.44471a5.6705,5.6705,0,0,0,1.48337.14276A3.9332,3.9332,0,0,0,9.93318,40.179a1.10079,1.10079,0,0,0,.49588-.76557.8894.8894,0,0,1,.01434,1.03037A1.49873,1.49873,0,0,1,9.87923,40.95155Z" style="mix-blend-mode:screen;fill:url(#鍊踑臇_蜸馯鳺艜_1797-3)"/><path d="M16.23553,56.89479a3.64911,3.64911,0,0,1-.74074-1.04012,5.03122,5.03122,0,0,1-1.16629-2.745c-.17846-1.592-.27609-3.50762-.38784-5.10468-.21432-3.06349-1.74706-5.92359-3.56091-8.5058.02051,1.41106-5.24506,2.13768-5.60391.598a31.42221,31.42221,0,0,0,.147,6.13169,14.61068,14.61068,0,0,0,2.66687,6.2385,11.71772,11.71772,0,0,0,4.17658,3.30918,12.67237,12.67237,0,0,0,4.47583,1.15134Z" style="opacity:0.9500000000000001;mix-blend-mode:screen;fill:url(#鍊踑臇_蜸馯鳺艜_1802)"/><path d="M27.69937,37.88762c-.87565,1.56944-5.68152,1.30178-6.42838-.14572A7.81894,7.81894,0,0,0,20.26572,43.362c.19249.93825.55875,1.8386.81318,2.76437a11.84589,11.84589,0,0,1,.31456,1.64325,5.66612,5.66612,0,0,1,.55787,2.91132,15.37458,15.37458,0,0,1-1.08225,3.71749.3522.3522,0,0,1-.11894.18693,17.40046,17.40046,0,0,0,2.78418-1.69288,10.23687,10.23687,0,0,0,2.333-3.13152A15.61139,15.61139,0,0,0,27.134,46.05438a32.11071,32.11071,0,0,0,.70954-4.85228c.02912-.52637.0364-1.04.09-1.56371C27.94493,39.528,27.80631,37.696,27.69937,37.88762Z" style="opacity:0.9500000000000001;mix-blend-mode:screen;fill:url(#鍊踑臇_蜸馯鳺艜_1801)"/><path d="M12.50149,43.47967a32.07438,32.07438,0,0,0,2.25618,11.19022c.51838,1.23931,1.98278,4.14362,3.7241,2.787a8.85373,8.85373,0,0,0,2.793-4.07815A38.48545,38.48545,0,0,0,22.99581,43.652a31.46625,31.46625,0,0,0-.66454-9.91222c.18653.76716-4.04859,1.31947-4.56159,1.33407a12.5614,12.5614,0,0,1-2.43821-.09119c-.57671-.11021-2.36113-.38241-2.40291-1.30024a1.87554,1.87554,0,0,1-.16879.48737q-.0816.25491-.15009.51309-.12878.4866-.20859.98259a14.14348,14.14348,0,0,0-.15878,1.93456c-.02378,1.038-.04685,2.07662-.0146,3.11466C12.25673,41.64812,12.46452,42.54473,12.50149,43.47967Z" style="opacity:0.9500000000000001;mix-blend-mode:screen;fill:url(#鍊踑臇_蜸馯鳺艜_1800)"/><path d="M18.72517,57.31166a1.69392,1.69392,0,0,1-1.27429.65329c-.72212-.06128-1.0931-.62991-1.47322-1.0916a1.62378,1.62378,0,0,0,1.48354.4856c1.868-.29987,3.18066-2.95006,3.8985-4.32785A8.69984,8.69984,0,0,1,18.88832,57.157C18.83445,57.207,18.78023,57.259,18.72517,57.31166Z" style="fill:#15e0ff"/><path d="M6.50617,50.69269a11.15223,11.15223,0,0,0,7.098,5.70587,7.71881,7.71881,0,0,1-2.65032-1.5131c-3.19782-2.39166-5.87634-5.723-5.86721-9.65718A9.2505,9.2505,0,0,0,6.50617,50.69269Z" style="fill:#15e0ff"/><path d="M26.83912,46.899l.02356-.08078Q26.568,47.86907,26.27335,48.92c-.61385,2.18921-2.41293,3.811-4.42266,5.06934A12.71886,12.71886,0,0,0,26.83912,46.899Z" style="fill:#15e0ff"/><path d="M26.674,42.50926c1.585,2.96378,1.04762,6.18256-1.20031,7.18928s-5.35513-.57975-6.94015-3.54357-1.04762-6.18252,1.20031-7.18928S25.089,39.54543,26.674,42.50926Z" style="opacity:0.56;mix-blend-mode:screen;fill:url(#鍊踑臇_蜸馯鳺艜_1799)"/><ellipse cx="11.02166" cy="46.98487" rx="4.91308" ry="6.01052" style="opacity:0.45;mix-blend-mode:screen;fill:url(#鍊踑臇_蜸馯鳺艜_1798)"/><path d="M16.25083,32.58614a10.10787,10.10787,0,0,1,5.81541.84966.53809.53809,0,0,1,.24516.19769c.11479.21737-.12746.447-.35206.57375a5.47813,5.47813,0,0,1-1.80106.62938c1.25974-.20621.94628-1.3609-.02647-1.66134a11.92723,11.92723,0,0,0-6.25169.09349,1.36616,1.36616,0,0,0-.69415.38634.454.454,0,0,0,.075.67054.458.458,0,0,1-.30949-.66516C13.49873,32.82614,15.30619,32.6629,16.25083,32.58614Z" style="mix-blend-mode:screen;fill:url(#鍊踑臇_蜸馯鳺艜_1797-4)"/><path d="M27.34854,37.33593a.89025.89025,0,0,1,.41674.2531.53182.53182,0,0,1-.05038.64116,1.53351,1.53351,0,0,1-.596.40385,6.707,6.707,0,0,1-1.598.4841,2.4414,2.4414,0,0,0,1.15668-.42746A.78429.78429,0,0,0,26.9011,37.652a1.304,1.304,0,0,0-.86369-.38647,8.89374,8.89374,0,0,0-3.27022.09891,3.472,3.472,0,0,0-1.19541.47991c.08885-.68021,2.0156-.8764,2.61547-.925A7.49536,7.49536,0,0,1,27.34854,37.33593Z" style="mix-blend-mode:screen;fill:url(#鍊踑臇_蜸馯鳺艜_1797-5)"/><path d="M5.91879,39.733a1.75713,1.75713,0,0,1,.64924-.36176,5.61223,5.61223,0,0,1,3.55438-.05815.96743.96743,0,0,0-.704-.26885,9.06542,9.06542,0,0,0-4.15337.62974c-.27393.11188-.58271.29837-.566.57247.01456.23841.27265.39626.51194.49143a4.05383,4.05383,0,0,0,2.31247.21115C6.91712,40.9002,4.88859,40.74349,5.91879,39.733Z" style="mix-blend-mode:screen;fill:url(#鍊踑臇_蜸馯鳺艜_1797-6)"/><path d="M10.9602,44.37358a.44537.44537,0,0,0,.26568.05157c.17779-.03424.25244-.22575.28668-.389.12516-.59656.33379-2.49843-.97244-1.90385C9.59661,42.56171,10.21951,44.03,10.9602,44.37358Z" style="fill:#8ec93c;mix-blend-mode:screen"/><path d="M11.99463,45.92705a1.44136,1.44136,0,0,0-.17479.6165.52779.52779,0,0,0,.35982.50193.83622.83622,0,0,0-.06093-1.29044Z" style="fill:#8ec93c;mix-blend-mode:screen"/><path d="M14.53294,36.50392c.92215-1.58435-2.82027-.84229-1.43021.07024C13.52405,36.85068,14.25557,36.98048,14.53294,36.50392Z" style="fill:#8ec93c;mix-blend-mode:screen"/><path d="M15.29476,36.66089c-.26881.358.18966.64015.54591.4361C16.36647,36.79584,15.62555,36.22024,15.29476,36.66089Z" style="fill:#8ec93c;mix-blend-mode:screen"/><path d="M21.40188,39.59745a.89932.89932,0,0,0-.24657.25063c-.28857.45062.2344.967.75066.73526a.65343.65343,0,0,0,.38021-.8051C22.11023,39.36058,21.69976,39.39274,21.40188,39.59745Z" style="fill:#8ec93c;mix-blend-mode:screen"/><path d="M21.99747,40.96262a.36414.36414,0,0,0-.218.34143c.0236.36949.51393.37628.69671.1159C22.70966,41.0873,22.36413,40.77129,21.99747,40.96262Z" style="fill:#8ec93c;mix-blend-mode:screen"/><g style="mix-blend-mode:screen"><ellipse cx="16.47031" cy="44.19959" rx="5.08595" ry="12.52882" style="fill:url(#鍊踑臇_蜸馯鳺艜_1796)"/></g><path d="M52.23254,29.72474q-1.64648,5.37891-6.65723,5.38672l-11.06934.0166q-5.03906.00732-3.39258-5.37158L34.12316,19.924a8.17281,8.17281,0,0,1,2.47705-4.12012,6.9919,6.9919,0,0,1,4.37842-1.2666l15.68359-.02344-1.50928,4.93066-14.72168.022-3.2583,10.645,8.88965-.01318.83984-2.74512-2.74609.00391,1.3125-4.28613,8.80469-.01318Z" style="fill:#fff"/><path d="M86.132,14.46937,75.35656,35.06654l-6.08691.00928.92432-11.062q.04321-.41968.51025-3.333l-.877.00146q-.6189,1.37329-1.52979,3.33447L62.4757,35.08607l-6.11523.00928,1.83008-20.584,5.80371-.00879-1.14209,8.90674a28.67751,28.67751,0,0,1-.58105,3.19238l.90625-.001q.90308-2.21411,1.40137-3.19434l4.59619-8.91113,5.94434-.00928-.82959,8.90576q-.12231,1.23267-.52441,3.19287l.877-.00146q.67383-1.73657,1.374-3.19385l4.312-8.91113Z" style="fill:#fff"/><path d="M23.44836,61.22816a1.1418,1.1418,0,0,1,.9375.28711,1.02469,1.02469,0,0,1,.0249.92969,2.7869,2.7869,0,0,1-.91162,1.37207,5.65514,5.65514,0,0,1-1.82227.90039,4.783,4.783,0,0,1,1.40625-.05713.74585.74585,0,0,1,.63477.43213,1.59985,1.59985,0,0,1-.07178,1.01611,2.90233,2.90233,0,0,1-.77783,1.26123,4.67838,4.67838,0,0,1-1.46289.89648,15.33976,15.33976,0,0,1-2.37109.71094l-3.2627.748.06641-.21191.42725-.17676a.92336.92336,0,0,0,.23535-.123.35885.35885,0,0,0,.09814-.16992l1.99463-6.36719c.0249-.07812.0249-.12842.00146-.14941a.34159.34159,0,0,0-.18848-.02539l-.374.00684.06641-.21191,3.32715-.7627A10.10887,10.10887,0,0,1,23.44836,61.22816Zm-4.70459,7.52051.4873-.11182a2.80063,2.80063,0,0,0,2.18164-2.01611A1.756,1.756,0,0,0,21.49816,65.32q-.2146-.34424-1.10254-.14062l-.5752.13184Zm1.70752-3.87891a2.17679,2.17679,0,0,0,1.125-.63184,3.32555,3.32555,0,0,0,.70947-1.30566q.22192-.709.01123-.98242c-.1416-.18164-.43945-.21924-.89453-.11523l-.53125.12207L19.92,64.99183Z" style="fill:#42210b"/><path d="M27.65148,66.88929c-.05713-.0625-.05566-.18848.00391-.37988l.0166-.05273a4.99531,4.99531,0,0,1-2.28613,1.16406,1.24583,1.24583,0,0,1-1.00244-.06152q-.29736-.22119-.09131-.87988a2.48689,2.48689,0,0,1,.71777-1.12012,4.52442,4.52442,0,0,1,1.32031-.79492,15.72278,15.72278,0,0,1,2.07715-.65332l.24219-.77441q.186-.59619.0293-.7998c-.10449-.1377-.356-.15918-.75342-.06836a4.4155,4.4155,0,0,0-.96826.34424,7.74116,7.74116,0,0,0-.99658.59814l-.07764-.16895a8.36227,8.36227,0,0,1,1.43213-.86621,8.13153,8.13153,0,0,1,1.71045-.59277q1.22461-.28125,1.59766.07031.37207.35449.09326,1.24512L29.796,66.03773c-.0249.07813-.02588.12842-.00146.14941a.33049.33049,0,0,0,.189.02539l.35205-.002-.06006.19043-2.2334.51172C27.84,66.95912,27.71008,66.95082,27.65148,66.88929Zm.12744-.77246.53857-1.71973a4.33359,4.33359,0,0,0-.98047.39746,1.71556,1.71556,0,0,0-.55566.50635,2.85378,2.85378,0,0,0-.33984.74707.741.741,0,0,0-.03564.55127q.08862.14648.40381.07422A2.26416,2.26416,0,0,0,27.77892,66.11683Zm.48291-6.0708-.15332.1333a3.57018,3.57018,0,0,1-1.22363-.7832,1.76454,1.76454,0,0,1,.4082-.44873,1.52,1.52,0,0,1,.47949-.26709A6.87284,6.87284,0,0,0,28.26183,60.046Zm2.36328.55176-.16992.18652a4.87665,4.87665,0,0,1-1.37012-.28613,15.202,15.202,0,0,1-1.77344,1.00635l-.07031-.13135A19.71862,19.71862,0,0,0,29.047,59.78724l.56348-.12939A4.927,4.927,0,0,0,30.62512,60.59779Z" style="fill:#42210b"/><path d="M36.92785,60.53285a.31262.31262,0,0,0-.1875-.02588l-.35254.00146.06055-.19141,2.72266-.91895.18359-.04248L37.839,64.19447c-.0249.07813-.0249.12842-.00049.14893a.32219.32219,0,0,0,.188.02539l.35205-.00146-.06006.19043-2.20117.50439q-.31348.07178-.40723-.0293c-.0625-.06787-.06445-.19727-.00488-.38867l.03662-.11621a7.18172,7.18172,0,0,1-1.1626.78906,5.34376,5.34376,0,0,1-1.39551.53613q-1.00781.23145-1.31152-.0835-.30469-.31494-.04443-1.14307l.937-2.99219c.02441-.07812.02539-.127,0-.14746a.31137.31137,0,0,0-.1875-.02637l-.35254.002.06055-.19141,2.72266-.91943.18457-.042-1.25684,4.01172a.93758.93758,0,0,0-.05664.64355c.06348.10986.21875.13721.46387.08057a3.79734,3.79734,0,0,0,1.47852-.83105l1.10645-3.53418C36.95226,60.60219,36.95226,60.55336,36.92785,60.53285Z" style="fill:#42210b"/><path d="M49.52062,57.47914l-.56543,1.41992-.20605.04736a1.51142,1.51142,0,0,0-.2373-1.02393c-.17041-.19434-.49512-.23682-.97168-.12744a2.26462,2.26462,0,0,0-1.292.79834,5.07988,5.07988,0,0,0-.833,1.67822,6.11937,6.11937,0,0,0-.30371,1.38916.75241.75241,0,0,0,.251.707,1.24086,1.24086,0,0,0,.9541.04248,4.21573,4.21573,0,0,0,.97656-.35693,7.09774,7.09774,0,0,0,.96631-.61035l.07764.16895a8.50451,8.50451,0,0,1-1.333.86719,6.43878,6.43878,0,0,1-1.5498.562,2.62684,2.62684,0,0,1-2.16309-.145q-.63574-.49512-.2002-1.88477a4.40578,4.40578,0,0,1,1.50977-2.18359,7.05221,7.05221,0,0,1,2.83008-1.26367A4.2567,4.2567,0,0,1,49.52062,57.47914Z" style="fill:#42210b"/><path d="M55.05187,56.37855a.32184.32184,0,0,0-.18848-.02539l-.35254.002.06055-.19141,2.72363-.91992.18359-.042L55.963,60.04066c-.0249.07813-.02588.12793-.00049.14893a.325.325,0,0,0,.188.02588l.35205-.002-.06006.19043-2.20117.50439q-.31348.07178-.40723-.02881c-.0625-.06836-.06445-.19727-.00488-.38867l.03662-.11621a7.11744,7.11744,0,0,1-1.1626.78809,5.34515,5.34515,0,0,1-1.39551.53662q-1.00781.23071-1.3125-.0835-.30322-.31494-.04346-1.14307l.937-2.99219c.02441-.07812.02441-.127,0-.14795a.31389.31389,0,0,0-.1875-.02539l-.35254.002.06055-.19141,2.72266-.91992.18359-.042-1.25684,4.01172a.93541.93541,0,0,0-.05566.64355c.0625.10986.21875.13672.46387.08057a3.79858,3.79858,0,0,0,1.47754-.83057L55.0509,56.527C55.07531,56.44886,55.07629,56.39955,55.05187,56.37855Z" style="fill:#42210b"/><path d="M60.84289,59.28187c-.05713-.062-.05664-.18848.00293-.37988l.0166-.05273a4.97632,4.97632,0,0,1-2.28613,1.16406,1.24435,1.24435,0,0,1-1.00146-.061q-.29736-.22192-.09131-.88037a2.48277,2.48277,0,0,1,.71777-1.11963,4.51389,4.51389,0,0,1,1.32031-.79492,15.69564,15.69564,0,0,1,2.07617-.65381l.24219-.77441c.124-.39746.13525-.66309.03027-.7998-.10449-.13721-.35693-.15918-.75342-.06836a4.4171,4.4171,0,0,0-.96826.34473,7.79014,7.79014,0,0,0-.99658.59766l-.07861-.16895a8.37743,8.37743,0,0,1,1.43311-.86572,8.13247,8.13247,0,0,1,1.71045-.59326q1.22461-.28052,1.59766.0708.37207.35376.09229,1.24512l-.92041,2.93945c-.0249.07813-.0249.12842-.00049.14893a.32423.32423,0,0,0,.189.02539l.35107-.00146-.06006.19043-2.23242.51172C61.03137,59.35219,60.90148,59.3434,60.84289,59.28187Zm.12646-.77246.53857-1.71973a4.31818,4.31818,0,0,0-.97949.39795,1.70027,1.70027,0,0,0-.55566.50635,2.85378,2.85378,0,0,0-.33984.74707.74646.74646,0,0,0-.03662.55078q.09009.14722.40479.07422A2.25592,2.25592,0,0,0,60.96935,58.50941Z" style="fill:#42210b"/><path d="M74.62609,51.72523l-.56641,1.41992-.20508.04736a1.51142,1.51142,0,0,0-.2373-1.02393q-.25708-.2915-.97266-.12744a2.26462,2.26462,0,0,0-1.292.79834,5.07967,5.07967,0,0,0-.832,1.67822,6.18365,6.18365,0,0,0-.30469,1.38965.75224.75224,0,0,0,.252.70654,1.23829,1.23829,0,0,0,.95313.04248,4.19945,4.19945,0,0,0,.97656-.35693,6.889,6.889,0,0,0,.96631-.61035l.07764.16895a8.49594,8.49594,0,0,1-1.332.86719,6.46158,6.46158,0,0,1-1.55078.562,2.62684,2.62684,0,0,1-2.16309-.145q-.63574-.49512-.19922-1.88477a4.41014,4.41014,0,0,1,1.50879-2.18359,7.05673,7.05673,0,0,1,2.83105-1.26367A4.2567,4.2567,0,0,1,74.62609,51.72523Z" style="fill:#42210b"/><path d="M77.86144,55.38148c-.05615-.0625-.05566-.18848.00391-.37988l.0166-.05273a4.99531,4.99531,0,0,1-2.28613,1.16406,1.24381,1.24381,0,0,1-1.00244-.06152q-.29736-.22119-.09131-.87988a2.48689,2.48689,0,0,1,.71777-1.12012,4.5481,4.5481,0,0,1,1.32031-.79492,15.79627,15.79627,0,0,1,2.07715-.65332l.24219-.77441c.124-.39746.13428-.66309.0293-.7998-.10449-.1377-.356-.15918-.75342-.06836a4.4155,4.4155,0,0,0-.96826.34424,7.79732,7.79732,0,0,0-.99658.59814l-.07764-.16895A8.33,8.33,0,0,1,77.525,50.8683a8.10491,8.10491,0,0,1,1.71045-.59326q1.22461-.28052,1.59766.07031.37207.35449.09326,1.24512L80.006,54.52992c-.0249.07813-.02588.12842-.00146.14941a.33049.33049,0,0,0,.189.02539l.35205-.002-.06006.19043-2.2334.51172C78.04992,55.45179,77.92,55.443,77.86144,55.38148Zm.12744-.77246.53857-1.71973a4.30931,4.30931,0,0,0-.98047.39795,1.70484,1.70484,0,0,0-.55566.50635,2.84254,2.84254,0,0,0-.33984.74658.741.741,0,0,0-.03564.55127q.08862.14648.40381.07422A2.25864,2.25864,0,0,0,77.98889,54.609Zm2.54541-6.4541a.74944.74944,0,0,1,.01074.50928,14.37788,14.37788,0,0,1-1.31543.68115c-.52148.24023-.97168.43164-1.34961.56934l-.01855-.10352.50439-.39209c.082-.064.34033-.27.77783-.6167.43652-.3457.79883-.65332,1.083-.92285A.46273.46273,0,0,1,80.5343,48.15492Z" style="fill:#42210b"/><path d="M91.64465,47.82435l-.56641,1.42041-.20508.04736a1.51374,1.51374,0,0,0-.2373-1.02441q-.25708-.29077-.97168-.127a2.27019,2.27019,0,0,0-1.293.79834,5.07193,5.07193,0,0,0-.832,1.67773,6.18364,6.18364,0,0,0-.30469,1.38965.75318.75318,0,0,0,.252.707,1.23879,1.23879,0,0,0,.95313.042,4.17876,4.17876,0,0,0,.97754-.35693,6.9792,6.9792,0,0,0,.96533-.60986l.07861.16846a8.50747,8.50747,0,0,1-1.333.86768,6.46088,6.46088,0,0,1-1.55078.56152,2.62721,2.62721,0,0,1-2.16309-.14453q-.63428-.49512-.19922-1.88525a4.40885,4.40885,0,0,1,1.50879-2.18311A7.05624,7.05624,0,0,1,89.5548,47.9098,4.258,4.258,0,0,1,91.64465,47.82435Z" style="fill:#42210b"/><path d="M97.34387,50.52748a6.647,6.647,0,0,1-2.71973,1.24414,2.99048,2.99048,0,0,1-2.2998-.09375q-.66357-.468-.23535-1.83691a4.53875,4.53875,0,0,1,1.51172-2.23828,6.64876,6.64876,0,0,1,2.71875-1.24316,3.002,3.002,0,0,1,2.30078.09277q.66211.468.2334,1.83838A4.53558,4.53558,0,0,1,97.34387,50.52748Zm-3.95654,3.26611q-.1853-.14941-.06543-.53125a1.35537,1.35537,0,0,1,.43408-.64648,1.68048,1.68048,0,0,1,.71582-.356.679.679,0,0,1,.585.05811q.18457.14941.06494.53125a1.35789,1.35789,0,0,1-.43359.64648,1.68977,1.68977,0,0,1-.71533.356A.679.679,0,0,1,93.38732,53.79359Zm.59424-3.0376a.826.826,0,0,0,.09766.66748c.11035.11914.32031.144.63184.07275a1.67349,1.67349,0,0,0,.77832-.396,2.67213,2.67213,0,0,0,.5625-.81836,12.03048,12.03048,0,0,0,.54688-1.47461,9.84461,9.84461,0,0,0,.36377-1.43262.839.839,0,0,0-.09717-.668c-.11035-.11963-.32129-.14258-.63184-.07178a1.6675,1.6675,0,0,0-.77832.395,2.61973,2.61973,0,0,0-.563.81885,11.70178,11.70178,0,0,0-.54834,1.4751A9.59257,9.59257,0,0,0,93.98156,50.756Z" style="fill:#42210b"/><path d="M98.15637,52.8932l.40625-.17236a.93655.93655,0,0,0,.23438-.12256.36045.36045,0,0,0,.09863-.17041l2.00781-6.41016c.02441-.07812.02539-.12744.001-.14795a.31262.31262,0,0,0-.1875-.02588l-.35352.00244.06055-.19141,2.70117-.915.18457-.042-.19336.61523a5.07174,5.07174,0,0,1,2.05957-.9834,1.84309,1.84309,0,0,1,1.708.19824q.50537.47607.07715,1.84473a4.94591,4.94591,0,0,1-1.35645,2.24121,4.63629,4.63629,0,0,1-2.11719,1.10645q-1.2041.27539-1.64844-.26221l-.77441,2.47266c-.02441.07813-.0249.12646-.002.14795a.33344.33344,0,0,0,.18848.02588l.35352-.002-.05957.19141-3.44824.79053Zm4.88965-7.2876-1.09375,3.49121a.9272.9272,0,0,0,.42871.30127,1.10067,1.10067,0,0,0,.60986.0127,1.43861,1.43861,0,0,0,.68506-.37354,2.7581,2.7581,0,0,0,.54248-.79834,10.484,10.484,0,0,0,.50928-1.35449,4.17081,4.17081,0,0,0,.29-1.63184c-.05176-.30469-.27832-.40918-.6748-.31836A3.11838,3.11838,0,0,0,103.046,45.6056Z" style="fill:#42210b"/><path d="M52.33166,71.44691a3.68548,3.68548,0,0,0,.77441-1.44824,1.5415,1.5415,0,0,0,.021-1.22168q-.23877-.39258-1.02-.21387l-.44434.10156.1001-.31934.45508-.104a2.20311,2.20311,0,0,0,1.11328-.59863,2.98834,2.98834,0,0,0,.66992-1.2085q.23291-.74121-.01465-1.01123-.249-.26807-.97461-.10205a6.28067,6.28067,0,0,0-2.08105.98926l-.06641-.17187a10.32437,10.32437,0,0,1,1.57617-.95215,8.22466,8.22466,0,0,1,1.77051-.6123,2.59244,2.59244,0,0,1,1.75.03662q.56689.30762.29492,1.17871a2.87215,2.87215,0,0,1-.82764,1.21436,5.61006,5.61006,0,0,1-1.54443.99463,1.69339,1.69339,0,0,1,1.33984.28369,1.05827,1.05827,0,0,1,.15137,1.15771,3.3876,3.3876,0,0,1-1.38428,1.84912,8.36228,8.36228,0,0,1-2.76416,1.08105,8.67111,8.67111,0,0,1-1.40039.21289,2.693,2.693,0,0,1-.96875-.07324l.7041-1.79687.25-.05664a3.82154,3.82154,0,0,0,.07764.90723.794.794,0,0,0,.3667.51709,1.19282,1.19282,0,0,0,.86816.0376A2.35585,2.35585,0,0,0,52.33166,71.44691Z" style="fill:#42210b"/><path d="M63.5548,62.83656a1.3714,1.3714,0,0,1,.89941,1.00049,3.6719,3.6719,0,0,1-.18359,1.99707,7.05836,7.05836,0,0,1-1.13623,2.21582,6.84178,6.84178,0,0,1-1.71387,1.59912,6.239,6.239,0,0,1-2.00635.86426,3.12817,3.12817,0,0,1-1.73291-.00684,1.37041,1.37041,0,0,1-.89941-1.00049,3.67488,3.67488,0,0,1,.18213-1.99756,7.05863,7.05863,0,0,1,1.1377-2.21533A6.81632,6.81632,0,0,1,59.81555,63.694a6.21031,6.21031,0,0,1,2.00488-.86426A3.12435,3.12435,0,0,1,63.5548,62.83656Zm-2.78369,6.26709a13.87182,13.87182,0,0,0,1.104-2.72021,10.09667,10.09667,0,0,0,.56152-2.59717q.00293-.81226-.7124-.64893A2.0781,2.0781,0,0,0,60.465,64.23793a13.83522,13.83522,0,0,0-1.10449,2.72168,10.03094,10.03094,0,0,0-.561,2.5957c-.00342.543.23486.75879.71143.64941A2.077,2.077,0,0,0,60.77111,69.10365Z" style="fill:#42210b"/><path d="M67.41516,68.30531a1.07146,1.07146,0,0,0,.4082-.57715.46519.46519,0,0,0-.001-.38281.50266.50266,0,0,0-.32227-.19238q-.2417-.063-.79-.14453a2.42206,2.42206,0,0,1-1.25391-.42578q-.3208-.29663-.10059-.99707a2.54463,2.54463,0,0,1,.97754-1.32227,5.38892,5.38892,0,0,1,1.96387-.80957,6.17685,6.17685,0,0,1,1.19824-.16113,3.00215,3.00215,0,0,1,.85449.06445l-.5293,1.30273-.18457.04248a1.42509,1.42509,0,0,0-.36621-.91553c-.19922-.18115-.55762-.21191-1.0791-.09277a2.65691,2.65691,0,0,0-.81055.30957.9611.9611,0,0,0-.42236.54492.43555.43555,0,0,0,.00244.36426.51829.51829,0,0,0,.30273.18555c.15137.04443.40625.10107.76758.16992a6.78142,6.78142,0,0,1,1.1543.29639.81448.81448,0,0,1,.48926.43018,1.18128,1.18128,0,0,1-.042.77832,2.40249,2.40249,0,0,1-.98437,1.29395,5.87981,5.87981,0,0,1-1.98047.78418,8.37643,8.37643,0,0,1-1.34375.19434,3.52758,3.52758,0,0,1-.99121-.03418l.60352-1.47754.18457-.04248q-.06738.79321.313,1.05615a1.50393,1.50393,0,0,0,1.18311.07861A2.26291,2.26291,0,0,0,67.41516,68.30531Z" style="fill:#42210b"/></g></g></g></svg>