<svg xmlns="http://www.w3.org/2000/svg" xmlns:xlink="http://www.w3.org/1999/xlink" viewBox="0 0 85.038 66.88927"><defs><linearGradient id="linear-gradient" x1="60.92155" y1="54.49024" x2="69.94182" y2="56.78603" gradientUnits="userSpaceOnUse"><stop offset="0.0034" stop-color="#f9b500"/><stop offset="0.33765" stop-color="#faae06"/><stop offset="0.81965" stop-color="#fd9b16"/><stop offset="1" stop-color="#ff921e"/></linearGradient><linearGradient id="linear-gradient-2" x1="18.94648" y1="-397.27371" x2="88.60166" y2="-397.27371" gradientTransform="translate(-114.8785 423.82063) rotate(14.27665)" gradientUnits="userSpaceOnUse"><stop offset="0.0034" stop-color="#c38e00"/><stop offset="0.35843" stop-color="#c28705"/><stop offset="0.87034" stop-color="#bf7413"/><stop offset="1" stop-color="#be6e17"/></linearGradient><linearGradient id="linear-gradient-3" x1="-0.15147" y1="13.42031" x2="84.20493" y2="34.89019" xlink:href="#linear-gradient"/><linearGradient id="linear-gradient-4" x1="33.93469" y1="18.71801" x2="44.22207" y2="21.33629" gradientUnits="userSpaceOnUse"><stop offset="0.0034" stop-color="#ec1e79"/><stop offset="1" stop-color="#ae0663"/></linearGradient><linearGradient id="linear-gradient-5" x1="4.68339" y1="34.71303" x2="76.8867" y2="34.71303" gradientUnits="userSpaceOnUse"><stop offset="0.0034" stop-color="#d10272"/><stop offset="1" stop-color="#931668"/></linearGradient><linearGradient id="linear-gradient-6" x1="59.01707" y1="1.92028" x2="76.8867" y2="1.92028" xlink:href="#linear-gradient-5"/><linearGradient id="linear-gradient-7" x1="40.48118" y1="64.00469" x2="45.61475" y2="64.00469" gradientUnits="userSpaceOnUse"><stop offset="0" stop-color="#3fa8f4"/><stop offset="0.43052" stop-color="#2e99e5"/><stop offset="1" stop-color="#1180cb"/></linearGradient><linearGradient id="linear-gradient-8" x1="96.07531" y1="-423.93939" x2="32.5787" y2="-399.10736" gradientTransform="translate(-114.8785 423.82063) rotate(14.27665)" gradientUnits="userSpaceOnUse"><stop offset="0.0034" stop-color="#f9d14c"/><stop offset="0.27761" stop-color="#facd45"/><stop offset="0.67289" stop-color="#fcc332"/><stop offset="1" stop-color="#ffb81d"/></linearGradient></defs><title>廣西骰寶_2</title><g id="圖層_2" data-name="圖層 2"><g id="圖層_1-2" data-name="圖層 1"><path d="M70.1728,55.8785a60.24181,60.24181,0,0,0-11.0266,5.58721c2.30512-4.52146,4.61-8.9078,6.915-13.09468Q68.11723,52.012,70.1728,55.8785Z" style="fill:url(#linear-gradient)"/><path d="M4.68339,30.78906C7.2236,40.80188,9.764,50.35473,12.30426,59.53518c19.28947,7.53429,38.57907-6.41783,57.86854-3.65668q-2.05588-3.87322-4.11163-7.50747C45.602,41.95515,25.14274,51.28779,4.68339,30.78906Z" style="fill:url(#linear-gradient-2)"/><path d="M85.038,31.42437C68.10852,14.95153,32.24647,7.83084,0,12.82517c5.17286,2.46877,9.11547,5.18579,9.58177,11.958C32.22342,19.84,66.7383,32.2933,81.39351,45.93643Q83.21545,38.53162,85.038,31.42437Z" style="fill:url(#linear-gradient-3)"/><path d="M34.25015,17.47856C38.40421,15.701,42.558,13.599,46.712,11.55338c-3.09466,6.17784-6.1892,12.38692-9.28374,18.47041Q35.83893,23.7764,34.25015,17.47856Z" style="fill:url(#linear-gradient-4)"/><polygon points="4.683 2.537 19.986 53.037 42.793 53.037 48.297 66.889 56.078 53.037 71.949 53.037 76.887 7.934 4.683 2.537" style="fill:url(#linear-gradient-5)"/><path d="M74.80289,27.0641C59.406,23.37134,40.98635,31.38436,30.48813,31.8314c-7.9645.33873-15.09383-3.04212-18.4553-4.95679l2.62909,8.6293,28.0578,17.5332h.07352l.0245.11755.14439.119A76.30142,76.30142,0,0,1,61.192,48.02131a24.36335,24.36335,0,0,1,11.21487.93771Z" style="opacity:0.14"/><polygon points="59.017 3.841 76.887 3.841 71.4 0 59.017 3.841" style="fill:url(#linear-gradient-6)"/><polygon points="45.615 65.768 43.285 62.241 40.481 63.417 45.615 65.768" style="fill:url(#linear-gradient-7)"/><path d="M4.6701,30.833c26.789,17.25176,53.5784-16.66038,80.3679.59141Q83.21553,38.527,81.39351,45.93643C58.3636,37.75734,35.33382,63.95982,12.30426,59.53518,9.75955,50.37081,7.21469,40.8326,4.6701,30.833Z" style="fill:url(#linear-gradient-8)"/><path d="M30.06358,48.32638a2.49065,2.49065,0,0,1-.9248,1.23535,4.67486,4.67486,0,0,1-1.793.78711L19.3087,52.19162,19.99131,50.01,27.294,48.33615l.44141-1.40918-4.11035.94238a7.07372,7.07372,0,0,1-2.26953.292q-.665-.13184-.36328-1.10059l.70313-2.24316a2.63117,2.63117,0,0,1,1.166-1.46191,7.94069,7.94069,0,0,1,2.46094-.90527l6.38379-1.46387-.67578,2.1582L24.548,44.63107l-.44531,1.42188,4.90039-1.124q2.28955-.52441,1.77832,1.10547Z" style="fill:#42210b"/><path d="M33.53331,48.93087l-3.08008.70605,2.042-6.52148,3.08008-.70605Zm2.42188-7.73437-3.08008.70605.39941-1.27539,3.08008-.70605Z" style="fill:#42210b"/><path d="M41.74034,47.05l-5.18555,1.18848a1.69119,1.69119,0,0,1-1.43164-.11621q-.43066-.34424-.14941-1.24023l.90137-2.87891a3.22149,3.22149,0,0,1,1.06641-1.51855,4.13659,4.13659,0,0,1,1.75781-.88184l5.11328-1.17187-.63281,2.02246-4.45117,1.02051-.80176,2.56152,4.4502-1.02051Z" style="fill:#42210b"/><path d="M58.44542,41.43478a3.38724,3.38724,0,0,1-.96094,1.5625,3.90737,3.90737,0,0,1-1.80273.85742l-8.26367,1.89453,2.82129-9.00977,8.292-1.90039q1.13086-.25928,1.502.01953.38086.29.10547,1.1709l-.40625,1.29883a1.76438,1.76438,0,0,1-.42383.72363,10.29642,10.29642,0,0,1-1.18262.93066q.68555.07031.80762.34961a1.15025,1.15025,0,0,1-.06934.7666Zm-2.95605.43945.50684-1.61816-4.33691.99316-.50684,1.61816ZM56.464,38.761l.48828-1.55664-4.33691.99316-.48828,1.55664Z" style="fill:#42210b"/><path d="M67.84971,39.16622A3.48592,3.48592,0,0,1,66.714,40.82638a4.70132,4.70132,0,0,1-1.97754.95313l-4.22266.96777a1.34165,1.34165,0,0,1-1.2627-.2002,1.22978,1.22978,0,0,1-.1875-1.36719l.84863-2.709a3.27629,3.27629,0,0,1,.99414-1.50293,3.76437,3.76437,0,0,1,1.6377-.83008l4.40723-1.00977a1.90835,1.90835,0,0,1,1.55566.09863q.46436.36035.19043,1.23047Zm-2.80078.65234.80273-2.56152-3.207.73535-.80273,2.56152Z" style="fill:#42210b"/><path d="M24.46495,17.89376q.23145,2.23828-1.85059,2.125l-4.59668-.25a2.291,2.291,0,0,1-2.32422-2.35156l-.42383-4.0918a2.18233,2.18233,0,0,1,.32715-1.68555,1.97806,1.97806,0,0,1,1.60352-.43457l6.51367.35352.21289,2.05176-6.11426-.332.459,4.42969,3.69238.2002-.11816-1.14258-1.14062-.06152-.18555-1.7832,3.65723.19824Z" style="fill:#fff"/><path d="M33.56065,20.61349l-2.31641-.126-.0918-.88574a2.31227,2.31227,0,0,1-1.85937.7793l-1.623-.08789q-1.563-.085-1.7627-2.00781l-.25391-2.44824-.56445-.03027L24.88975,13.883l1.44531.0791a1.4918,1.4918,0,0,1,1.5791,1.46484l.30762,2.97168L31.044,18.552l-.45215-4.35937,2.31641.126Z" style="fill:#fff"/><path d="M42.04991,21.07443l-1.46973-.08008a1.61345,1.61345,0,0,1-.86816-.25586,2.74707,2.74707,0,0,1-.74121-.94434,1.58166,1.58166,0,0,1-.5166.876,1.32192,1.32192,0,0,1-.83789.16406l-1.63379-.08887a1.8259,1.8259,0,0,1-1.88574-1.8418l-.291-2.80859q-.18018-1.7373,1.52441-1.64453l1.72852.09375a1.657,1.657,0,0,1,.91016.31641,3.61716,3.61716,0,0,1,.74023.71191l-.09863-.94336,2.31641.126.45215,4.35937.4707.02539Zm-2.9873-2.08594L38.80967,16.552l-2.64453-.14355.25293,2.43652Z" style="fill:#fff"/><path d="M50.77354,21.549l-1.50488-.082a1.65,1.65,0,0,1-1.04883-.416,1.37484,1.37484,0,0,1-.46777-.90625l-.32422-3.124L44.63,16.86837l.45313,4.37109-2.31641-.126-.65234-6.29395,2.31641.126.09082.874a2.30712,2.30712,0,0,1,1.86035-.76855l.918.0498a2.6715,2.6715,0,0,1,1.8457.66895,2.96392,2.96392,0,0,1,.666,1.79688l.209,2.0166.55273.03027Z" style="fill:#fff"/><path d="M58.76085,21.34494a2.40266,2.40266,0,0,1-.28516,1.75781,1.90992,1.90992,0,0,1-1.60254.43457l-2.70508-.14648-.15918-1.53906,2.50488.13574-.11426-1.0957-.34863-.08789a.98178.98178,0,0,1-.39746.55762,1.6253,1.6253,0,0,1-.83008.11719l-1.6582-.08984a1.8,1.8,0,0,1-1.88086-1.79395L51.01573,17.007q-.17725-1.71387,1.52734-1.62109l1.752.09473a1.753,1.753,0,0,1,.90723.293,4.45073,4.45073,0,0,1,.74219.72461l-.09668-.93262,2.32715.126Zm-2.4873-1.67676L56.044,17.45333,53.3751,17.3088l.22949,2.21484Z" style="fill:#fff"/><path d="M67.65733,22.466l-2.54-.1377-1.36035-2.752-1.14062-.06152-.81445,2.63281L59.25108,22.009l1.124-3.25391L58.61045,15.716l2.59863.14063,1.35938,2.51953,1,.05469.84961-2.39941,2.5752.13965-1.12793,2.88281Z" style="fill:#fff"/><path d="M70.11729,15.28537l-2.56348-.13867-.126-1.21191,2.56348.13867Zm.76172,7.35547-2.56348-.13867L67.673,16.301l2.56348.13867Z" style="fill:#fff"/></g></g></svg>