<svg xmlns="http://www.w3.org/2000/svg" xmlns:xlink="http://www.w3.org/1999/xlink" viewBox="0 0 85.038 66.88927"><defs><linearGradient id="linear-gradient" x1="60.92155" y1="54.49024" x2="69.94182" y2="56.78603" gradientUnits="userSpaceOnUse"><stop offset="0.0034" stop-color="#f9b500"/><stop offset="0.33765" stop-color="#faae06"/><stop offset="0.81965" stop-color="#fd9b16"/><stop offset="1" stop-color="#ff921e"/></linearGradient><linearGradient id="linear-gradient-2" x1="26.63152" y1="-342.72116" x2="96.28671" y2="-342.72116" gradientTransform="translate(-108.87342 369.05862) rotate(14.27665)" gradientUnits="userSpaceOnUse"><stop offset="0.0034" stop-color="#c38e00"/><stop offset="0.35843" stop-color="#c28705"/><stop offset="0.87034" stop-color="#bf7413"/><stop offset="1" stop-color="#be6e17"/></linearGradient><linearGradient id="linear-gradient-3" x1="-0.15147" y1="13.42031" x2="84.20493" y2="34.89019" xlink:href="#linear-gradient"/><linearGradient id="linear-gradient-4" x1="33.93469" y1="18.71801" x2="44.22207" y2="21.33629" gradientUnits="userSpaceOnUse"><stop offset="0.0034" stop-color="#ec1e79"/><stop offset="1" stop-color="#ae0663"/></linearGradient><linearGradient id="linear-gradient-5" x1="4.68339" y1="34.71303" x2="76.8867" y2="34.71303" gradientUnits="userSpaceOnUse"><stop offset="0.0034" stop-color="#d10272"/><stop offset="1" stop-color="#931668"/></linearGradient><linearGradient id="linear-gradient-6" x1="59.01707" y1="1.92028" x2="76.8867" y2="1.92028" xlink:href="#linear-gradient-5"/><linearGradient id="linear-gradient-7" x1="40.48118" y1="64.00469" x2="45.61475" y2="64.00469" gradientUnits="userSpaceOnUse"><stop offset="0" stop-color="#3fa8f4"/><stop offset="0.43052" stop-color="#2e99e5"/><stop offset="1" stop-color="#1180cb"/></linearGradient><linearGradient id="linear-gradient-8" x1="103.76035" y1="-369.38684" x2="40.26375" y2="-344.55481" gradientTransform="translate(-108.87342 369.05862) rotate(14.27665)" gradientUnits="userSpaceOnUse"><stop offset="0.0034" stop-color="#f9d14c"/><stop offset="0.27761" stop-color="#facd45"/><stop offset="0.67289" stop-color="#fcc332"/><stop offset="1" stop-color="#ffb81d"/></linearGradient></defs><title>世彩1分骰寶_2</title><g id="圖層_2" data-name="圖層 2"><g id="圖層_1-2" data-name="圖層 1"><path d="M70.1728,55.8785a60.24181,60.24181,0,0,0-11.0266,5.58721c2.30512-4.52146,4.61-8.9078,6.915-13.09468Q68.11723,52.012,70.1728,55.8785Z" style="fill:url(#linear-gradient)"/><path d="M4.68339,30.78906C7.2236,40.80188,9.764,50.35473,12.30426,59.53518c19.28947,7.53429,38.57907-6.41783,57.86854-3.65668q-2.05588-3.87322-4.11163-7.50747C45.602,41.95515,25.14274,51.28779,4.68339,30.78906Z" style="fill:url(#linear-gradient-2)"/><path d="M85.038,31.42437C68.10852,14.95153,32.24647,7.83084,0,12.82517c5.17286,2.46877,9.11547,5.18579,9.58177,11.958C32.22342,19.84,66.7383,32.2933,81.39351,45.93643Q83.21545,38.53162,85.038,31.42437Z" style="fill:url(#linear-gradient-3)"/><path d="M34.25015,17.47856C38.40421,15.701,42.558,13.599,46.712,11.55338c-3.09466,6.17784-6.1892,12.38692-9.28374,18.47041Q35.83893,23.7764,34.25015,17.47856Z" style="fill:url(#linear-gradient-4)"/><polygon points="4.683 2.537 19.986 53.037 42.793 53.037 48.297 66.889 56.078 53.037 71.949 53.037 76.887 7.934 4.683 2.537" style="fill:url(#linear-gradient-5)"/><path d="M74.80289,27.0641C59.406,23.37134,40.98635,31.38436,30.48813,31.8314c-7.9645.33873-15.09383-3.04212-18.4553-4.95679l2.62909,8.6293,28.0578,17.5332h.07352l.0245.11755.14439.119A76.30142,76.30142,0,0,1,61.192,48.02131a24.36335,24.36335,0,0,1,11.21487.93771Z" style="opacity:0.14"/><polygon points="59.017 3.841 76.887 3.841 71.4 0 59.017 3.841" style="fill:url(#linear-gradient-6)"/><polygon points="45.615 65.768 43.285 62.241 40.481 63.417 45.615 65.768" style="fill:url(#linear-gradient-7)"/><path d="M39.69627,23.21217q.4248,4.103-3.39062,3.89551l-8.42773-.458q-3.835-.208-4.26172-4.31152l-.77734-7.501a3.996,3.996,0,0,1,.60156-3.08984,3.6218,3.6218,0,0,1,2.94141-.79687l11.94141.64844.38867,3.76172-11.209-.60937.8418,8.12012,6.76758.36816-.2168-2.09375-2.08984-.11426L32.4658,17.762l6.70313.36426Z" style="fill:#fff"/><path d="M60.76072,12.81862,58.98338,28.3401l-4.63477-.252-2.75-8.542q-.09668-.3252-.65234-2.56445l-.668-.03613q-.041,1.03857-.123,2.52148l-.98047,8.33984L44.51854,27.554l-5.03125-15.8916,4.418.24023,1.91016,6.86133a22.88755,22.88755,0,0,1,.55469,2.45215l.68945.03809q0-1.67871.07031-2.41895l.71875-6.71875,4.52734.24609,2.14844,6.875q.29.95068.59766,2.4541l.668.03613q-.0293-1.31836.04883-2.41895l.50391-6.73047Z" style="fill:#fff"/><path d="M4.6701,30.833c26.789,17.25176,53.5784-16.66038,80.3679.59141Q83.21553,38.527,81.39351,45.93643C58.3636,37.75734,35.33382,63.95982,12.30426,59.53518,9.75955,50.37081,7.21469,40.8326,4.6701,30.833Z" style="fill:url(#linear-gradient-8)"/><path d="M34.69432,41.927a1.89618,1.89618,0,0,1-.70312.93848,3.56652,3.56652,0,0,1-1.3623.59863l-6.11133,1.40039.51953-1.6582,5.55273-1.27246.335-1.07227-3.125.71582a5.37537,5.37537,0,0,1-1.72461.22266q-.5083-.09961-.27734-.83594L28.332,39.259a1.9932,1.9932,0,0,1,.8877-1.11133,6.03736,6.03736,0,0,1,1.86914-.68945l4.85547-1.1123-.51367,1.64063L30.501,39.11647l-.33887,1.08105,3.72754-.85449q1.74023-.39844,1.35059.84082Z" style="fill:#42210b"/><path d="M37.333,42.386l-2.34082.53613,1.55273-4.958,2.34082-.53613Zm1.8418-5.87988-2.34082.53613.30371-.96973,2.33984-.53613Z" style="fill:#42210b"/><path d="M43.57322,40.95534l-3.94141.90332a1.29194,1.29194,0,0,1-1.08984-.08789c-.2168-.1748-.25586-.48828-.11328-.94238l.68555-2.18945a2.44689,2.44689,0,0,1,.81055-1.15527,3.13165,3.13165,0,0,1,1.33594-.66895l3.88867-.8916L44.667,37.4612l-3.38281.77539-.60937,1.94727,3.38281-.77539Z" style="fill:#42210b"/><path d="M56.27537,36.68581a2.56309,2.56309,0,0,1-.73242,1.18848,2.9607,2.9607,0,0,1-1.36914.65137l-6.28223,1.44043,2.14453-6.84961,6.30469-1.44531q.8584-.19629,1.14063.01563.2915.21973.08105.88965l-.30957.9873a1.31877,1.31877,0,0,1-.32227.5498,7.80171,7.80171,0,0,1-.89844.709c.34766.03418.55273.123.61426.26465a.87982.87982,0,0,1-.05273.583Zm-2.248.334.38477-1.23047-3.29687.75586-.38477,1.23047Zm.74121-2.36719.37109-1.18359-3.29687.75586-.37109,1.18359Z" style="fill:#42210b"/><path d="M63.42479,34.9612a2.64094,2.64094,0,0,1-.86426,1.26172,3.55882,3.55882,0,0,1-1.50293.72559l-3.21094.73535a1.02192,1.02192,0,0,1-.96-.15137.93714.93714,0,0,1-.14258-1.04l.64551-2.05957a2.48589,2.48589,0,0,1,.75586-1.14258,2.84928,2.84928,0,0,1,1.24512-.63086l3.35059-.76855a1.447,1.447,0,0,1,1.18262.0752q.353.27246.14551.93555Zm-2.12891.49609L61.90526,33.51l-2.43945.55957-.60937,1.94727Z" style="fill:#42210b"/><path d="M34.13182,51.09108l-2.44824.56152,1.416-4.51953-.90234.207.26855-.85742L35.29,44.468l.9873-.22656Z" style="fill:#42210b"/><path d="M47.60154,48.00417l-1.12793.25879q-1.40771.32227-.97461-1.05664l.66211-2.11621-1.72949.39648L43.3369,48.98171l-2.05176.46973,1.09473-3.49512-1.77148.40625-1.09473,3.49512-2.07227.47559L39.01756,45.301l2.083-.47754-.21.6709a6.38931,6.38931,0,0,1,.87988-.71191,2.10809,2.10809,0,0,1,.65039-.26172l1.28906-.2959c.51563-.11816.80469.02344.86426.4248a2.76844,2.76844,0,0,1,.68457-.65918,2.52963,2.52963,0,0,1,.76074-.29492l1.332-.30469c.55762-.12793.90137-.126,1.02441.00684.13086.13281.1123.46777-.05664,1.00879l-.6748,2.15234.44141-.10156Z" style="fill:#42210b"/><path d="M50.59666,47.31764l-2.34082.53613,1.55273-4.958,2.34082-.53613Zm1.8418-5.88086-2.34082.53613.30371-.96875,2.34082-.53613Z" style="fill:#42210b"/><path d="M58.793,45.43971l-1.376.31445a.97086.97086,0,0,1-.832-.07715.52824.52824,0,0,1-.12207-.62891l.78223-2.498-2.55664.58594-1.09473,3.49512-2.11523.48438,1.57617-5.03223,2.11523-.48437-.21875.69922a4.75889,4.75889,0,0,1,2.001-1.1084l.83887-.19141q1.16016-.2666,1.49023.082.30762.31934-.00488,1.31543l-.50488,1.6123.50586-.11523Z" style="fill:#42210b"/></g></g></svg>