<svg xmlns="http://www.w3.org/2000/svg" xmlns:xlink="http://www.w3.org/1999/xlink" viewBox="0 0 85.038 66.88927"><defs><linearGradient id="linear-gradient" x1="60.92155" y1="54.49024" x2="69.94182" y2="56.78603" gradientUnits="userSpaceOnUse"><stop offset="0.0034" stop-color="#f9b500"/><stop offset="0.33765" stop-color="#faae06"/><stop offset="0.81965" stop-color="#fd9b16"/><stop offset="1" stop-color="#ff921e"/></linearGradient><linearGradient id="linear-gradient-2" x1="35.9918" y1="-264.70813" x2="105.64699" y2="-264.70813" gradientTransform="translate(-98.70645 291.14795) rotate(14.27665)" gradientUnits="userSpaceOnUse"><stop offset="0.0034" stop-color="#c38e00"/><stop offset="0.35843" stop-color="#c28705"/><stop offset="0.87034" stop-color="#bf7413"/><stop offset="1" stop-color="#be6e17"/></linearGradient><linearGradient id="linear-gradient-3" x1="-0.15147" y1="13.42031" x2="84.20493" y2="34.89019" xlink:href="#linear-gradient"/><linearGradient id="linear-gradient-4" x1="33.93469" y1="18.71801" x2="44.22207" y2="21.33629" gradientUnits="userSpaceOnUse"><stop offset="0.0034" stop-color="#ec1e79"/><stop offset="1" stop-color="#ae0663"/></linearGradient><linearGradient id="linear-gradient-5" x1="4.68339" y1="34.71303" x2="76.8867" y2="34.71303" gradientUnits="userSpaceOnUse"><stop offset="0.0034" stop-color="#d10272"/><stop offset="1" stop-color="#931668"/></linearGradient><linearGradient id="linear-gradient-6" x1="59.01707" y1="1.92028" x2="76.8867" y2="1.92028" xlink:href="#linear-gradient-5"/><linearGradient id="linear-gradient-7" x1="40.48118" y1="64.00469" x2="45.61475" y2="64.00469" gradientUnits="userSpaceOnUse"><stop offset="0" stop-color="#3fa8f4"/><stop offset="0.43052" stop-color="#2e99e5"/><stop offset="1" stop-color="#1180cb"/></linearGradient><linearGradient id="linear-gradient-8" x1="113.12063" y1="-291.3738" x2="49.62403" y2="-266.54177" gradientTransform="translate(-98.70645 291.14795) rotate(14.27665)" gradientUnits="userSpaceOnUse"><stop offset="0.0034" stop-color="#f9d14c"/><stop offset="0.27761" stop-color="#facd45"/><stop offset="0.67289" stop-color="#fcc332"/><stop offset="1" stop-color="#ffb81d"/></linearGradient></defs><title>安徽骰寶_2</title><g id="圖層_2" data-name="圖層 2"><g id="圖層_1-2" data-name="圖層 1"><path d="M70.1728,55.8785a60.24181,60.24181,0,0,0-11.0266,5.58721c2.30512-4.52146,4.61-8.9078,6.915-13.09468Q68.11723,52.012,70.1728,55.8785Z" style="fill:url(#linear-gradient)"/><path d="M4.68339,30.78906C7.2236,40.80188,9.764,50.35473,12.30426,59.53518c19.28947,7.53429,38.57907-6.41783,57.86854-3.65668q-2.05588-3.87322-4.11163-7.50747C45.602,41.95515,25.14274,51.28779,4.68339,30.78906Z" style="fill:url(#linear-gradient-2)"/><path d="M85.038,31.42437C68.10852,14.95153,32.24647,7.83084,0,12.82517c5.17286,2.46877,9.11547,5.18579,9.58177,11.958C32.22342,19.84,66.7383,32.2933,81.39351,45.93643Q83.21545,38.53162,85.038,31.42437Z" style="fill:url(#linear-gradient-3)"/><path d="M34.25015,17.47856C38.40421,15.701,42.558,13.599,46.712,11.55338c-3.09466,6.17784-6.1892,12.38692-9.28374,18.47041Q35.83893,23.7764,34.25015,17.47856Z" style="fill:url(#linear-gradient-4)"/><polygon points="4.683 2.537 19.986 53.037 42.793 53.037 48.297 66.889 56.078 53.037 71.949 53.037 76.887 7.934 4.683 2.537" style="fill:url(#linear-gradient-5)"/><path d="M74.80289,27.0641C59.406,23.37134,40.98635,31.38436,30.48813,31.8314c-7.9645.33873-15.09383-3.04212-18.4553-4.95679l2.62909,8.6293,28.0578,17.5332h.07352l.0245.11755.14439.119A76.30142,76.30142,0,0,1,61.192,48.02131a24.36335,24.36335,0,0,1,11.21487.93771Z" style="opacity:0.14"/><polygon points="59.017 3.841 76.887 3.841 71.4 0 59.017 3.841" style="fill:url(#linear-gradient-6)"/><polygon points="45.615 65.768 43.285 62.241 40.481 63.417 45.615 65.768" style="fill:url(#linear-gradient-7)"/><path d="M4.6701,30.833c26.789,17.25176,53.5784-16.66038,80.3679.59141Q83.21553,38.527,81.39351,45.93643C58.3636,37.75734,35.33382,63.95982,12.30426,59.53518,9.75955,50.37081,7.21469,40.8326,4.6701,30.833Z" style="fill:url(#linear-gradient-8)"/><path d="M30.06366,48.32688a2.49065,2.49065,0,0,1-.9248,1.23535,4.68966,4.68966,0,0,1-1.793.78711l-8.03711,1.84277.68262-2.18164,7.30273-1.67383.44141-1.40918-4.11035.94141a7.05568,7.05568,0,0,1-2.26953.293q-.665-.13184-.36328-1.10059l.70313-2.24316a2.63117,2.63117,0,0,1,1.166-1.46191,7.96326,7.96326,0,0,1,2.46094-.90625L31.70624,40.987l-.67578,2.1582L24.548,44.63157l-.44531,1.42188,4.90039-1.124q2.28955-.52441,1.77832,1.10547Z" style="fill:#42210b"/><path d="M33.53339,48.93138l-3.08008.70605,2.042-6.52148,3.08008-.70605ZM35.95526,41.197l-3.08008.70605.39941-1.27539,3.08008-.70605Z" style="fill:#42210b"/><path d="M41.74042,47.05052,36.55487,48.239a1.69477,1.69477,0,0,1-1.43164-.11621q-.43066-.34424-.14941-1.24023l.90137-2.87891a3.21681,3.21681,0,0,1,1.06641-1.51855,4.12552,4.12552,0,0,1,1.75781-.88184l5.11328-1.17187-.63281,2.02246L38.7287,43.47337l-.80176,2.56152,4.4502-1.01953Z" style="fill:#42210b"/><path d="M58.4455,41.43528a3.3923,3.3923,0,0,1-.96094,1.5625,3.90737,3.90737,0,0,1-1.80273.85742l-8.26367,1.89355L50.23944,36.739l8.292-1.90039q1.13086-.25928,1.502.02051.38086.28857.10547,1.1709l-.40625,1.29883a1.7544,1.7544,0,0,1-.42383.72266,10.16413,10.16413,0,0,1-1.18262.93164c.457.0459.72656.16309.80762.34961a1.15025,1.15025,0,0,1-.06934.7666Zm-2.95605.43848.50684-1.61816-4.33691.99414-.50684,1.61816Zm.97461-3.11328.48828-1.55664-4.33691.99414-.48828,1.55664Z" style="fill:#42210b"/><path d="M67.84979,39.16673a3.48329,3.48329,0,0,1-1.13574,1.65918,4.69123,4.69123,0,0,1-1.97754.9541l-4.22266.96777a1.3443,1.3443,0,0,1-1.2627-.2002,1.22978,1.22978,0,0,1-.1875-1.36719l.84863-2.709a3.27129,3.27129,0,0,1,.99414-1.50293,3.76437,3.76437,0,0,1,1.6377-.83008l4.40723-1.00977a1.90051,1.90051,0,0,1,1.55566.09863q.46436.36035.19043,1.23047Zm-2.80078.65234.80273-2.56152-3.207.73535L61.842,40.55442Z" style="fill:#42210b"/><path d="M28.90058,21.58274l-3.54785-.19238L24.83319,16.365l-4.96973-.26953.51953,5.02441-3.54883-.19238-.99316-9.5957a1.90212,1.90212,0,0,1,.51074-1.66406,2.55331,2.55331,0,0,1,1.91406-.50879l6.75293.36621a3.26226,3.26226,0,0,1,2.02539.72363,2.56248,2.56248,0,0,1,.86328,1.73828Zm-4.27246-7.19531-.21387-2.05859-4.96875-.26953.21289,2.05859Z" style="fill:#fff"/><path d="M40.9494,22.238l-2.09277-.11426a2.295,2.295,0,0,1-1.458-.5791,1.90844,1.90844,0,0,1-.65039-1.25977L36.299,15.94114l-3.8916-.21191.62891,6.07813-3.2207-.1748-.90625-8.75293,3.2207.1748.126,1.21582a3.20954,3.20954,0,0,1,2.58887-1.06738l1.27441.06836a3.73456,3.73456,0,0,1,2.56738.92969,4.14273,4.14273,0,0,1,.92578,2.5l.29,2.80469.76855.041Z" style="fill:#fff"/><path d="M53.424,22.91575l-2.09277-.11426a2.33612,2.33612,0,0,1-1.45605-.5625,1.88589,1.88589,0,0,1-.64844-1.24414l-.44336-4.2793-3.8916-.21094.61914,5.98145-3.2207-.17578L41.05683,10.3972l3.2207.1748.4668,4.50586a3.27617,3.27617,0,0,1,2.58887-1.06836l1.27441.06934a3.77115,3.77115,0,0,1,2.56543.91309,4.0695,4.0695,0,0,1,.92188,2.46777l.28711,2.77246.76855.041Z" style="fill:#fff"/><path d="M65.91522,23.59446l-3.2207-.1748-.127-1.23242a3.22159,3.22159,0,0,1-2.58691,1.085l-2.25586-.123q-2.17529-.11719-2.45117-2.793l-.35254-3.40332-.78516-.043-.27734-2.67383,2.01172.1084a2.07474,2.07474,0,0,1,2.19434,2.03809l.42773,4.13281,3.92383.21289-.62793-6.06152,3.2207.1748Z" style="fill:#fff"/><path d="M69.76093,13.63255l-3.56445-.19336-.1748-1.68555,3.56445.19336Zm1.05859,10.22852-3.56445-.19336-.89258-8.624,3.56445.19336Z" style="fill:#fff"/></g></g></svg>