<svg xmlns="http://www.w3.org/2000/svg" xmlns:xlink="http://www.w3.org/1999/xlink" viewBox="0 0 85.038 66.88927"><defs><linearGradient id="linear-gradient" x1="60.92155" y1="54.49024" x2="69.94182" y2="56.78603" gradientUnits="userSpaceOnUse"><stop offset="0.0034" stop-color="#f9b500"/><stop offset="0.33765" stop-color="#faae06"/><stop offset="0.81965" stop-color="#fd9b16"/><stop offset="1" stop-color="#ff921e"/></linearGradient><linearGradient id="linear-gradient-2" x1="22.76145" y1="-372.28695" x2="92.41664" y2="-372.28695" gradientTransform="translate(-112.41385 398.66519) rotate(14.27665)" gradientUnits="userSpaceOnUse"><stop offset="0.0034" stop-color="#c38e00"/><stop offset="0.35843" stop-color="#c28705"/><stop offset="0.87034" stop-color="#bf7413"/><stop offset="1" stop-color="#be6e17"/></linearGradient><linearGradient id="linear-gradient-3" x1="-0.15147" y1="13.42031" x2="84.20493" y2="34.89019" xlink:href="#linear-gradient"/><linearGradient id="linear-gradient-4" x1="33.93469" y1="18.71801" x2="44.22207" y2="21.33629" gradientUnits="userSpaceOnUse"><stop offset="0.0034" stop-color="#ec1e79"/><stop offset="1" stop-color="#ae0663"/></linearGradient><linearGradient id="linear-gradient-5" x1="4.68339" y1="34.71303" x2="76.8867" y2="34.71303" gradientUnits="userSpaceOnUse"><stop offset="0.0034" stop-color="#d10272"/><stop offset="1" stop-color="#931668"/></linearGradient><linearGradient id="linear-gradient-6" x1="59.01707" y1="1.92028" x2="76.8867" y2="1.92028" xlink:href="#linear-gradient-5"/><linearGradient id="linear-gradient-7" x1="40.48118" y1="64.00469" x2="45.61475" y2="64.00469" gradientUnits="userSpaceOnUse"><stop offset="0" stop-color="#3fa8f4"/><stop offset="0.43052" stop-color="#2e99e5"/><stop offset="1" stop-color="#1180cb"/></linearGradient><linearGradient id="linear-gradient-8" x1="99.89028" y1="-398.95263" x2="36.39367" y2="-374.1206" gradientTransform="translate(-112.41385 398.66519) rotate(14.27665)" gradientUnits="userSpaceOnUse"><stop offset="0.0034" stop-color="#f9d14c"/><stop offset="0.27761" stop-color="#facd45"/><stop offset="0.67289" stop-color="#fcc332"/><stop offset="1" stop-color="#ffb81d"/></linearGradient></defs><title>世彩30秒骰寶_2</title><g id="圖層_2" data-name="圖層 2"><g id="圖層_1-2" data-name="圖層 1"><path d="M70.1728,55.8785a60.24181,60.24181,0,0,0-11.0266,5.58721c2.30512-4.52146,4.61-8.9078,6.915-13.09468Q68.11723,52.012,70.1728,55.8785Z" style="fill:url(#linear-gradient)"/><path d="M4.68339,30.78906C7.2236,40.80188,9.764,50.35473,12.30426,59.53518c19.28947,7.53429,38.57907-6.41783,57.86854-3.65668q-2.05588-3.87322-4.11163-7.50747C45.602,41.95515,25.14274,51.28779,4.68339,30.78906Z" style="fill:url(#linear-gradient-2)"/><path d="M85.038,31.42437C68.10852,14.95153,32.24647,7.83084,0,12.82517c5.17286,2.46877,9.11547,5.18579,9.58177,11.958C32.22342,19.84,66.7383,32.2933,81.39351,45.93643Q83.21545,38.53162,85.038,31.42437Z" style="fill:url(#linear-gradient-3)"/><path d="M34.25015,17.47856C38.40421,15.701,42.558,13.599,46.712,11.55338c-3.09466,6.17784-6.1892,12.38692-9.28374,18.47041Q35.83893,23.7764,34.25015,17.47856Z" style="fill:url(#linear-gradient-4)"/><polygon points="4.683 2.537 19.986 53.037 42.793 53.037 48.297 66.889 56.078 53.037 71.949 53.037 76.887 7.934 4.683 2.537" style="fill:url(#linear-gradient-5)"/><path d="M74.80289,27.0641C59.406,23.37134,40.98635,31.38436,30.48813,31.8314c-7.9645.33873-15.09383-3.04212-18.4553-4.95679l2.62909,8.6293,28.0578,17.5332h.07352l.0245.11755.14439.119A76.30142,76.30142,0,0,1,61.192,48.02131a24.36335,24.36335,0,0,1,11.21487.93771Z" style="opacity:0.14"/><polygon points="59.017 3.841 76.887 3.841 71.4 0 59.017 3.841" style="fill:url(#linear-gradient-6)"/><polygon points="45.615 65.768 43.285 62.241 40.481 63.417 45.615 65.768" style="fill:url(#linear-gradient-7)"/><path d="M39.69655,23.21268q.4248,4.103-3.39062,3.89551l-8.42773-.458q-3.83643-.208-4.26172-4.31152l-.77734-7.501a3.9944,3.9944,0,0,1,.60156-3.09082A3.62519,3.62519,0,0,1,26.38112,10.95l11.94141.64941.38965,3.76074-11.209-.60937.84082,8.12109,6.76758.36816-.2168-2.09473L32.805,21.032l-.33887-3.26953,6.70313.36426Z" style="fill:#fff"/><path d="M60.761,12.81815,58.98269,28.34061l-4.63477-.252-2.749-8.543q-.09814-.32373-.65234-2.56445l-.668-.03613q-.041,1.04-.124,2.52246l-.97949,8.33984-4.65625-.25293L39.48659,11.6619l4.418.24023,1.91113,6.86133a23.01785,23.01785,0,0,1,.55371,2.45313l.69043.03711q-.00146-1.67725.07031-2.418L47.8489,12.117l4.52637.24609,2.14941,6.874q.29.95068.59668,2.45508l.668.03613q-.0293-1.31836.0498-2.41992l.50293-6.73047Z" style="fill:#fff"/><path d="M4.6701,30.833c26.789,17.25176,53.5784-16.66038,80.3679.59141Q83.21553,38.527,81.39351,45.93643C58.3636,37.75734,35.33382,63.95982,12.30426,59.53518,9.75955,50.37081,7.21469,40.8326,4.6701,30.833Z" style="fill:url(#linear-gradient-8)"/><path d="M34.69362,41.92655a1.89618,1.89618,0,0,1-.70312.93848,3.56652,3.56652,0,0,1-1.3623.59863L26.51687,44.864l.51953-1.6582,5.55273-1.27246.335-1.07227-3.125.71582a5.37537,5.37537,0,0,1-1.72461.22266q-.5083-.09961-.27734-.83594l.53418-1.70508a1.9932,1.9932,0,0,1,.8877-1.11133,6.03736,6.03736,0,0,1,1.86914-.68945l4.85547-1.1123L35.43,37.98612,30.50026,39.116l-.33887,1.08105,3.72754-.85449q1.74023-.39844,1.35059.84082Z" style="fill:#42210b"/><path d="M37.3323,42.38553l-2.34082.53613,1.55273-4.958,2.34082-.53613Zm1.8418-5.87988-2.34082.53613.30371-.96973,2.33984-.53613Z" style="fill:#42210b"/><path d="M43.57253,40.95487l-3.94141.90332a1.29194,1.29194,0,0,1-1.08984-.08789c-.2168-.1748-.25586-.48828-.11328-.94238l.68555-2.18945a2.44689,2.44689,0,0,1,.81055-1.15527A3.13165,3.13165,0,0,1,41.26,36.81424l3.88867-.8916-.48242,1.53809-3.38281.77539-.60937,1.94727,3.38281-.77539Z" style="fill:#42210b"/><path d="M56.27468,36.68533a2.56309,2.56309,0,0,1-.73242,1.18848,2.9607,2.9607,0,0,1-1.36914.65137l-6.28223,1.44043L50.03542,33.116l6.30469-1.44531q.8584-.19629,1.14063.01563.2915.21973.08105.88965l-.30957.9873a1.31877,1.31877,0,0,1-.32227.5498,7.80171,7.80171,0,0,1-.89844.709c.34766.03418.55273.123.61426.26465a.87982.87982,0,0,1-.05273.583Zm-2.248.334.38477-1.23047-3.29687.75586-.38477,1.23047Zm.74121-2.36719.37109-1.18359-3.29687.75586L51.471,35.408Z" style="fill:#42210b"/><path d="M63.42409,34.96072a2.64094,2.64094,0,0,1-.86426,1.26172,3.55882,3.55882,0,0,1-1.50293.72559l-3.21094.73535a1.02192,1.02192,0,0,1-.96-.15137.93714.93714,0,0,1-.14258-1.04l.64551-2.05957a2.48589,2.48589,0,0,1,.75586-1.14258,2.84929,2.84929,0,0,1,1.24512-.63086l3.35059-.76855a1.447,1.447,0,0,1,1.18262.0752q.353.27246.14551.93555Zm-2.12891.49609.60938-1.94727-2.43945.55957-.60937,1.94727Z" style="fill:#42210b"/><path d="M40.0237,48.70291q-.3501,1.11768-2.208,1.54395l-5.37012,1.23047.53125-1.69629L37.928,48.64627l.32422-1.03418-3.99512.916.4375-1.39746,3.99512-.916.32129-1.02539L34.05984,46.324l.53125-1.69629,5.3916-1.23535q1.83545-.42187,1.48535.69727l-.3584,1.14648a1.72032,1.72032,0,0,1-.42187.71,4.4898,4.4898,0,0,1-1.05371.69238,1.38134,1.38134,0,0,1,.73633.28906.70131.70131,0,0,1,.01855.61035Z" style="fill:#42210b"/><path d="M49.23366,45.94315A3.15553,3.15553,0,0,1,46.762,48.19608l-3.97266.91016q-1.90283.43652-1.333-1.38086l1.01855-3.252a3.16915,3.16915,0,0,1,.87109-1.44531,3.47444,3.47444,0,0,1,1.58887-.77148l3.97266-.91016q.98877-.22705,1.30762.08887.32959.32373.03711,1.25586Zm-2.40039.72266,1.11816-3.56934-3.09375.709-1.11816,3.56934Z" style="fill:#42210b"/><path d="M56.20534,45.07205a2.00714,2.00714,0,0,1-1.63379,1.334L49.2864,47.618l.48438-1.54687L54.304,45.032l.19043-.60547-3.29785.75586q-1.22461.27979-.85937-.88477l.19238-.61523a1.98322,1.98322,0,0,1,1.5791-1.38281l4.58594-1.05078-.48145,1.53711L52.4114,43.657l-.18945.60645,3.25488-.74609q1.30957-.30029.93555.89258Z" style="fill:#42210b"/></g></g></svg>