<svg xmlns="http://www.w3.org/2000/svg" xmlns:xlink="http://www.w3.org/1999/xlink" viewBox="0 0 141.001 122.50923"><defs><linearGradient id="linear-gradient" x1="101.0137" y1="98.3512" x2="115.9705" y2="102.15791" gradientUnits="userSpaceOnUse"><stop offset="0.0034" stop-color="#f8b400"/><stop offset="0.33765" stop-color="#f9ad06"/><stop offset="0.81965" stop-color="#fd9a16"/><stop offset="1" stop-color="#ff911e"/></linearGradient><linearGradient id="linear-gradient-2" x1="-109.4436" y1="-98.76405" x2="6.05165" y2="-98.76405" gradientTransform="translate(84.11119 202.8209) rotate(14.27665)" gradientUnits="userSpaceOnUse"><stop offset="0.0034" stop-color="#c28d00"/><stop offset="0.36606" stop-color="#c18605"/><stop offset="0.88899" stop-color="#be7313"/><stop offset="1" stop-color="#bd6e17"/></linearGradient><linearGradient id="linear-gradient-3" x1="-0.25114" y1="30.25335" x2="139.61975" y2="65.85244" xlink:href="#linear-gradient"/><clipPath id="clip-path"><path d="M127.74372,55.4115c0,29.88516-24.52037,54.11912-54.77429,54.11912-30.23651,0-54.75139-24.234-54.75139-54.11912,0-29.88327,24.51488-54.10984,54.75139-54.10984C103.22335,1.30166,127.74372,25.52823,127.74372,55.4115Z" style="fill:none"/></clipPath><radialGradient id="未命名漸層_18" cx="80.2995" cy="50.29572" fx="49.936441867884554" fy="32.24608410877717" r="66.69246" gradientUnits="userSpaceOnUse"><stop offset="0.56892" stop-color="#efffff" stop-opacity="0.2"/><stop offset="0.6925" stop-color="#a6b1b1" stop-opacity="0.13888"/><stop offset="1" stop-opacity="0"/></radialGradient><linearGradient id="未命名漸層_11" x1="72.0057" y1="-2.10939" x2="72.0057" y2="67.31984" gradientUnits="userSpaceOnUse"><stop offset="0" stop-color="#fff"/><stop offset="0.16806" stop-color="#fff" stop-opacity="0.77931"/><stop offset="0.39556" stop-color="#fff" stop-opacity="0.50546"/><stop offset="0.60083" stop-color="#fff" stop-opacity="0.28806"/><stop offset="0.77631" stop-color="#fff" stop-opacity="0.13141"/><stop offset="0.9151" stop-color="#fff" stop-opacity="0.03535"/><stop offset="1" stop-color="#fff" stop-opacity="0"/></linearGradient><linearGradient id="未命名漸層_7" x1="7.74326" y1="79.64551" x2="141.001" y2="79.64551" gradientUnits="userSpaceOnUse"><stop offset="0.0034" stop-color="#f8d04c"/><stop offset="0.18339" stop-color="#f9c948"/><stop offset="0.44353" stop-color="#fab63e"/><stop offset="0.7508" stop-color="#fd972d"/><stop offset="1" stop-color="#ff781d"/></linearGradient></defs><title>泰国彩-英</title><g id="圖層_2" data-name="圖層 2"><g id="圖層_1-2" data-name="圖層 1"><path d="M116.3535,100.65308A99.9092,99.9092,0,0,0,98.07,109.9172c3.82207-7.497,7.64418-14.77,11.46587-21.71221Q112.9447,94.24206,116.3535,100.65308Z" style="fill:url(#linear-gradient)"/><path d="M7.7655,59.05241c4.21229,16.60221,8.42421,32.44173,12.63613,47.66379,31.98357,12.49257,63.96791-10.64137,95.95188-6.06312q-3.4094-6.42216-6.81764-12.44809C75.61212,77.56685,41.68879,93.04125,7.7655,59.05241Z" style="fill:url(#linear-gradient-2)"/><path d="M141.001,60.10581C112.93094,32.7923,53.46807,20.98553,0,29.26659c8.28471,2.53421,15.88723,8.86946,15.88723,8.86946s-1.55965,3.7036-4.97091,10.91594c37.542-8.19576,99.74206,12.4946,124.04183,35.11619Q137.9794,71.89031,141.001,60.10581Z" style="fill:url(#linear-gradient-3)"/><path d="M127.09516,55.41676a54.11427,54.11427,0,1,0-54.11427,54.11386c.53863,0,1.07444-.01052,1.60943-.02629l6.1116,13.0049L90.79132,106.527A54.13333,54.13333,0,0,0,127.09516,55.41676Z" style="fill:#bf0013"/><g style="clip-path:url(#clip-path)"><path d="M127.61519,67.42039a326.7039,326.7039,0,0,1-109.265,0,55.63217,55.63217,0,0,1,0-24.01758,326.11846,326.11846,0,0,1,109.265,0A55.59691,55.59691,0,0,1,127.61519,67.42039Z" style="fill:#003187"/><path d="M127.61519,43.4028a326.11846,326.11846,0,0,0-109.265,0A73.1476,73.1476,0,0,1,23.63452,29.5435c32.48067-13.08109,66.21565-13.08109,98.68535,0A72.43851,72.43851,0,0,1,127.61519,43.4028Z" style="fill:#fff"/><path d="M122.31987,29.5435c-32.46969-13.08109-66.20467-13.08109-98.68535,0a102.3651,102.3651,0,0,1,9.14154-13.85741C44.26361,6.99565,57.3695.272,72.06079.00778c15.35933-.27184,29.14007,6.60888,41.12492,15.6783A101.28515,101.28515,0,0,1,122.31987,29.5435Z" style="fill:#bf0013"/><path d="M122.31987,81.289c-32.46969,13.07162-66.20467,13.07162-98.68535,0a73.38452,73.38452,0,0,1-5.28434-13.86858,326.7039,326.7039,0,0,0,109.265,0A72.67172,72.67172,0,0,1,122.31987,81.289Z" style="fill:#fff"/><path d="M113.18571,95.139c-11.98485,9.07869-25.76559,15.96661-41.12492,15.68019-14.69128-.26635-27.78525-6.98048-39.28472-15.68019a101.39856,101.39856,0,0,1-9.14154-13.85c32.48067,13.07162,66.21565,13.07162,98.68535,0A100.33833,100.33833,0,0,1,113.18571,95.139Z" style="fill:#bf0013"/></g><path d="M127.74372,55.4115c0,29.88516-24.52037,54.11912-54.77429,54.11912-30.23651,0-54.75139-24.234-54.75139-54.11912,0-29.88327,24.51488-54.10984,54.75139-54.10984C103.22335,1.30166,127.74372,25.52823,127.74372,55.4115Z" style="opacity:0.8;fill:url(#未命名漸層_18)"/><path d="M115.81718,36.99174c0,18.26453-19.60857,33.10537-43.81281,33.10537-24.19969,0-43.81016-14.84083-43.81016-33.10537,0-18.2776,19.61046-33.11294,43.81016-33.11294C96.20861,3.8788,115.81718,18.71415,115.81718,36.99174Z" style="fill:url(#未命名漸層_11)"/><path d="M127.09516,55.41676q0-1.386-.06915-2.75376c-27.47889-5.88966-59.11711,7.37892-76.47343,8.11771A48.28567,48.28567,0,0,1,19.51969,50.644l-.51358.8961c-.09014,1.28023-.1395,2.57219-.1395,3.87668a54.06529,54.06529,0,0,0,2.586,16.563L71.23523,96.38013a126.4698,126.4698,0,0,1,30.227-8.73153,35.936,35.936,0,0,1,14.72633.349A53.86686,53.86686,0,0,0,127.09516,55.41676Z" style="opacity:0.14"/><path d="M7.74326,59.1252c44.41952,28.605,88.83822-27.62448,133.25774.98061q-3.02121,11.77682-6.04286,24.06237c-38.18577-13.5617-76.37116,29.8845-114.55651,22.548C16.182,91.52081,11.96326,75.70555,7.74326,59.1252Z" style="fill:url(#未命名漸層_7)"/><path d="M34.23216,82.34756l-3.5332.81055-2.28418,7.293-3.459.791,2.28418-7.293-3.68555.8457.71973-2.29687,10.67773-2.44727Z" style="fill:#42210b"/><path d="M43.032,87.10049l-1.92578.44043a1.43033,1.43033,0,0,1-1.17187-.09375.73284.73284,0,0,1-.17187-.86914l1.07813-3.44434-3.58008.82031-1.50781,4.81445-2.96289.67871,3.00391-9.58984,2.96289-.67871-1.13574,3.627a6.79432,6.79432,0,0,1,2.80273-1.55078l1.17188-.26855q1.626-.37207,2.08984.10352.43213.44385.00293,1.81543L42.989,85.13565l.709-.16211Z" style="fill:#42210b"/><path d="M53.88548,84.61221l-1.88086.43066a1.6275,1.6275,0,0,1-1.00684.01367q-.34277-.15234-.50879-.82812a4.80742,4.80742,0,0,1-1.10059,1.19629,3.2702,3.2702,0,0,1-1.1709.4873l-2.0918.47852q-2.17676.49951-1.56641-1.457l.98535-3.14453a3.50191,3.50191,0,0,1,2.78809-2.44336l2.21094-.50781a1.52812,1.52812,0,0,1,1.03516.043,1.47413,1.47413,0,0,1,.62012.56055L52.53,78.38272l2.96094-.67773-1.52832,4.87891.60156-.1377Zm-2.88379-1.34863L51.8552,80.537l-3.38281.77539L47.61888,84.039Z" style="fill:#42210b"/><path d="M58.08274,83.6503l-3.2793.752,2.1748-6.94141,3.2793-.752Zm2.5791-8.23242-3.2793.752.4248-1.35742,3.2793-.752Z" style="fill:#42210b"/><path d="M73.78,80.05264l-9.33789,2.14063L67.446,72.60342l3.51953-.80664-2.27637,7.26758,5.81836-1.334Z" style="fill:#42210b"/><path d="M84.34153,75.60928a3.71448,3.71448,0,0,1-1.209,1.76758,4.99193,4.99193,0,0,1-2.10449,1.01465L76.532,79.42178a1.4259,1.4259,0,0,1-1.34375-.21289,1.31024,1.31024,0,0,1-.2002-1.45508l.90332-2.88477a3.47442,3.47442,0,0,1,1.05957-1.59766,4.00059,4.00059,0,0,1,1.74121-.88477l4.69141-1.0752a2.02953,2.02953,0,0,1,1.65723.10547q.49365.38232.2041,1.30957Zm-2.98047.69531.85352-2.72656-3.41406.7832L77.947,77.0878Z" style="fill:#42210b"/><path d="M91.58274,75.97256l-4.25586.97559q-1.30957.30029-1.64258-.14453c-.20605-.26758-.1748-.82422.08887-1.668l.87109-2.77832-.84375.19336.31836-1.01758.84375-.19336,1.083-3.458,3.082-.70605-1.083,3.458,3.39844-.77832L93.12474,70.873l-3.39844.77832-.93652,2.9873,3.459-.793Z" style="fill:#42210b"/><path d="M99.26634,74.21182l-4.25586.97559q-1.30957.29883-1.64258-.14453c-.20605-.26758-.1748-.82422.08887-1.668l.87109-2.77832-.84375.19336.31836-1.01758.84375-.19336,1.083-3.458,3.082-.707-1.083,3.459,3.39844-.7793-.31836,1.01758-3.39844.7793-.93652,2.98633,3.459-.792Z" style="fill:#42210b"/><path d="M109.83079,69.04092l-6.26953,1.4375-.29785.95117,4.64648-1.06445L107.28,72.3749l-5.36719,1.23047q-2.27344.52148-1.6543-1.44922l.94434-3.01562a3.48029,3.48029,0,0,1,1.12207-1.66016,4.609,4.609,0,0,1,1.94531-.95508l4.916-1.127q1.9248-.44238,1.27832,1.62012Zm-2.41309-.40332.31836-1.01758-3.5332.80957-.31836,1.01758Z" style="fill:#42210b"/><path d="M119.28587,66.48623l-2.82617.64844.47363-1.51367-2.52734.5791-1.53223,4.89258-3.05078.69922,2.207-7.0459,3.05078-.69922-.127.40527.374.01074a2.24033,2.24033,0,0,1,.69336-.55762,4.36591,4.36591,0,0,1,.87988-.27539l1.82031-.417c.64063-.14648,1.05078-.13086,1.22754.04492q.26807.25488.01563,1.0625Z" style="fill:#42210b"/><path d="M130.37181,60.54287l-6.42871,8.71484a4.10751,4.10751,0,0,1-1.14941,1.13672,5.14636,5.14636,0,0,1-1.36133.46875l-2.48047.56836.6123-1.957,2.3457-.53809-1.17676-6.18457,3.16016-.72461.30957,2.08594a4.70115,4.70115,0,0,1-.042,1.377l.4668-.10742a9.01914,9.01914,0,0,1,.89355-1.56055l1.83105-2.58789Z" style="fill:#42210b"/></g></g></svg>