<svg xmlns="http://www.w3.org/2000/svg" xmlns:xlink="http://www.w3.org/1999/xlink" viewBox="0 0 141 121.21"><defs><linearGradient id="linear-gradient" x1="101.01" y1="97.05" x2="115.97" y2="100.86" gradientUnits="userSpaceOnUse"><stop offset="0" stop-color="#f8b400"/><stop offset="0.34" stop-color="#f9ad06"/><stop offset="0.82" stop-color="#fd9a16"/><stop offset="1" stop-color="#ff911e"/></linearGradient><linearGradient id="linear-gradient-2" x1="-498.23" y1="-965.05" x2="-382.74" y2="-965.05" gradientTransform="translate(247.26 1136.91) rotate(14.28)" gradientUnits="userSpaceOnUse"><stop offset="0" stop-color="#c28d00"/><stop offset="0.37" stop-color="#c18605"/><stop offset="0.89" stop-color="#be7313"/><stop offset="1" stop-color="#bd6e17"/></linearGradient><linearGradient id="linear-gradient-3" x1="-0.25" y1="28.95" x2="139.62" y2="64.55" xlink:href="#linear-gradient"/><linearGradient id="未命名漸層_29" x1="34.72" y1="15.85" x2="111.24" y2="92.38" gradientUnits="userSpaceOnUse"><stop offset="0" stop-color="#e62c14"/><stop offset="1" stop-color="#c72c14"/></linearGradient><linearGradient id="linear-gradient-4" x1="7.74" y1="78.34" x2="141" y2="78.34" gradientUnits="userSpaceOnUse"><stop offset="0" stop-color="#f8d04c"/><stop offset="0.28" stop-color="#f9cc45"/><stop offset="0.67" stop-color="#fcc232"/><stop offset="1" stop-color="#ffb71d"/></linearGradient><linearGradient id="linear-gradient-5" x1="-6031.49" y1="989.88" x2="-6029.94" y2="1039.53" gradientTransform="matrix(-0.9, 0.07, 0.1, 0.89, -5435.65, -473.85)" gradientUnits="userSpaceOnUse"><stop offset="0" stop-color="#fff"/><stop offset="1" stop-color="#fff" stop-opacity="0"/></linearGradient></defs><title>越南彩_印尼文</title><g id="圖層_2" data-name="圖層 2"><g id="圖層_1-2" data-name="圖層 1"><path d="M116.35,99.35a99.91,99.91,0,0,0-18.28,9.26c3.82-7.5,7.64-14.77,11.47-21.71Q112.94,92.94,116.35,99.35Z" style="fill:url(#linear-gradient)"/><path d="M7.77,57.75C12,74.35,16.19,90.19,20.4,105.41c32,12.49,64-10.64,96-6.06q-3.41-6.42-6.82-12.45C75.61,76.27,41.69,91.74,7.77,57.75Z" style="fill:url(#linear-gradient-2)"/><path d="M141,58.8C112.93,31.49,53.47,19.68,0,28c8.28,2.53,15.89,8.87,15.89,8.87s-1.56,3.7-5,10.92c37.54-8.2,99.74,12.49,124,35.12Q138,70.59,141,58.8Z" style="fill:url(#linear-gradient-3)"/><path d="M127.1,54.12A54.11,54.11,0,1,0,73,108.23l1.61,0,6.11,13,10.09-16A54.13,54.13,0,0,0,127.1,54.12Z" style="fill:url(#未命名漸層_29)"/><path d="M127.1,54.12q0-1.39-.07-2.75c-27.48-5.89-59.12,7.38-76.47,8.12a48.29,48.29,0,0,1-31-10.14l-.51.9c-.09,1.28-.14,2.57-.14,3.88a54.07,54.07,0,0,0,2.59,16.56l49.78,24.4a126.47,126.47,0,0,1,30.23-8.73,35.94,35.94,0,0,1,14.73.35A53.87,53.87,0,0,0,127.1,54.12Z" style="opacity:0.14"/><path d="M7.74,57.82C52.16,86.43,96.58,30.2,141,58.8q-3,11.78-6,24.06C96.77,69.3,58.59,112.75,20.4,105.41,16.18,90.22,12,74.4,7.74,57.82Z" style="fill:url(#linear-gradient-4)"/><polygon points="71.69 12.19 76.37 26.56 91.48 26.56 79.26 35.45 83.93 49.83 71.69 40.94 59.47 49.83 64.14 35.45 51.91 26.56 67.03 26.56 71.69 12.19" style="fill:gold"/><path d="M32.75,40.38c2.06,18.23,21.74,31.63,44,29.93s38.56-17.87,36.5-36.1S91.47,2.58,69.25,4.28,30.69,22.15,32.75,40.38Z" style="fill:url(#linear-gradient-5)"/><path d="M32.74,77.69l-.82.26a.55.55,0,0,0-.38.35.38.38,0,0,0,0,.22l1.1,7,5.77-8.66a1.12,1.12,0,0,0,.13-.24c0-.12,0-.16-.21-.15l-.81.12.12-.38,3-.68-.12.38-.74.24a1,1,0,0,0-.37.19,2.68,2.68,0,0,0-.32.39l-9.3,13.88-.62.14L27.4,79.41a.64.64,0,0,0-.11-.3s-.14-.06-.29,0l-.7.09.12-.38,6.44-1.47Z" style="fill:#42210b"/><path d="M42.89,75.63a.57.57,0,0,0-.34,0h-.67l.12-.38,6.35-1.46-.12.38-.77.32a1.53,1.53,0,0,0-.42.22.66.66,0,0,0-.18.31L43.28,86.44c0,.14,0,.23,0,.27a.58.58,0,0,0,.34,0h.67l-.12.38-6.35,1.46.12-.38.77-.32a1.63,1.63,0,0,0,.42-.22.68.68,0,0,0,.18-.31L42.89,75.9C42.93,75.76,42.93,75.67,42.89,75.63Z" style="fill:#42210b"/><path d="M46.64,86.06a1.63,1.63,0,0,0,.42-.22.66.66,0,0,0,.18-.31l3.59-11.45c0-.14,0-.23,0-.27a.57.57,0,0,0-.34,0h-.67l.12-.38,12-2.75-1.17,3.72-.49.11a6.71,6.71,0,0,0-.18-1.69,1,1,0,0,0-.71-.73,3.48,3.48,0,0,0-1.71.09l-2.77.63-1.78,5.67,5-1.15-.18.57L53,79l-1.87,6,3-.68A6,6,0,0,0,56,83.56a5.55,5.55,0,0,0,1.35-1.23,19.55,19.55,0,0,0,1.38-2.07l.51-.12L58,83.94,45.75,86.76l.12-.38Z" style="fill:#42210b"/><path d="M69.11,80.78a.59.59,0,0,0,.34,0h.67L70,81.2l-6.35,1.46.12-.38.77-.32a1.55,1.55,0,0,0,.42-.22.66.66,0,0,0,.18-.31l3.72-11.87-.45.1a5.42,5.42,0,0,0-3.27,2q-.53.69-1.46,2.14l-.43.1,1.21-3.85,13.1-3-1.21,3.85-.43.1a9.65,9.65,0,0,0-.24-1.75A1.14,1.14,0,0,0,75,68.5a3,3,0,0,0-1.72,0l-.45.1L69.11,80.52C69.06,80.66,69.07,80.75,69.11,80.78Z" style="fill:#42210b"/><path d="M80,67.14a.58.58,0,0,0-.34,0h-.67l.12-.38,5.4-1.24,3.85,6.31L90.44,65c0-.14,0-.22,0-.26a.65.65,0,0,0-.32,0h-.65l.12-.38,3-.68-.12.38-.77.32a1.57,1.57,0,0,0-.42.22.66.66,0,0,0-.18.31L87.18,77.26l-.7.16-6-9.88L77,78.73c0,.14,0,.23,0,.26a.65.65,0,0,0,.32,0H78l-.12.38-3,.68L75,79.7l.77-.32a1.62,1.62,0,0,0,.42-.22.66.66,0,0,0,.18-.31L79.95,67.4C80,67.26,80,67.17,80,67.14Z" style="fill:#42210b"/><path d="M97.67,74.5l.86-.27a.48.48,0,0,0,.34-.27.55.55,0,0,0,0-.22l-.42-2.49-4.52,1-2,3.05a1,1,0,0,0-.13.24c0,.11,0,.16.21.15l.81-.12-.12.38-3,.68.12-.38.74-.24a.94.94,0,0,0,.37-.19,2.66,2.66,0,0,0,.32-.39l9.36-13.89.63-.14L103,72.79a.63.63,0,0,0,.11.29s.14.06.3,0l.7-.09-.12.38-6.43,1.47Zm.72-3.76-.68-4.08-3.36,5Z" style="fill:#42210b"/><path d="M107.43,71.75c0,.14,0,.23,0,.26a.64.64,0,0,0,.32,0h.66l-.12.38-3,.68.12-.38.77-.32a1.62,1.62,0,0,0,.42-.22.66.66,0,0,0,.18-.31l3.59-11.45c0-.14,0-.23,0-.27a.57.57,0,0,0-.34,0h-.67l.12-.38,5-1.14,1.36,7.57,6.25-9.31,5.15-1.18-.12.38-.77.32a1.58,1.58,0,0,0-.42.22.64.64,0,0,0-.18.31l-3.59,11.45c0,.14,0,.23,0,.27a.59.59,0,0,0,.34,0h.67l-.12.38-6.32,1.45.12-.38.75-.31a1.86,1.86,0,0,0,.4-.21.6.6,0,0,0,.17-.3l3.38-10.8-8.63,12.87-.58.13-1.7-10Z" style="fill:#42210b"/></g></g></svg>