<svg xmlns="http://www.w3.org/2000/svg" viewBox="0 0 23 35"><title>fruit</title><g id="圖層_1" data-name="圖層 1"><path d="M15.18,17.49A6.12,6.12,0,1,1,9.36,24,6.18,6.18,0,0,1,15.18,17.49Z" style="fill:#9f004c;fill-rule:evenodd"/><path d="M10,23.24a3.9,3.9,0,0,1,4.1,3.17,3.22,3.22,0,0,1-3.39,3.38,3.89,3.89,0,0,1-4.1-3.17A3.21,3.21,0,0,1,10,23.24Z" style="fill:#820039;fill-rule:evenodd"/><path d="M13.18,19.87c.44,0,.82.18.83.46s-.32.53-.76.56-.82-.17-.83-.46S12.74,19.9,13.18,19.87Z" style="fill:#75002a;fill-rule:evenodd"/><path d="M10.43,25.41a5.76,5.76,0,0,0,4.83,2.85c3.46.14,5.9-3.29,5.9-3.29s-.67,4.6-5.05,4.67S10.43,25.41,10.43,25.41Z" style="fill:#85003b;fill-rule:evenodd"/><path d="M6.3,22.34a6.12,6.12,0,1,1,.8,12.22,6.12,6.12,0,1,1-.8-12.22Z" style="fill:#bd0e48;fill-rule:evenodd"/><path d="M6.35,22.35a3.82,3.82,0,0,1,4.21,3.38,3.82,3.82,0,0,1-3.73,3.9,3.81,3.81,0,0,1-4.21-3.37A3.83,3.83,0,0,1,6.35,22.35Z" style="fill:#d81c5c;fill-rule:evenodd"/><path d="M5.63,24.17c.44,0,.8.1.82.27s-.34.35-.78.38-.81-.09-.82-.27S5.19,24.2,5.63,24.17Z" style="fill:#8d0035;fill-rule:evenodd"/><path d="M.73,30.22c-.42-1,.23-2.41.81-1,.37.94,2.56,3.43,4.19,3.5,3.46.14,7-2.91,7-2.91S12,33.5,7.34,34.33.73,30.22.73,30.22Z" style="fill:#ac266a;fill-rule:evenodd"/><path d="M5.41,24.64S2.49,20.43,4,13.15,8.64,2.61,8.65,2.6L9.21,2,9,2.79s-1,3-.21,9.12,4.61,8.3,4.62,8.3l-.19.34s-4-2.3-4.82-8.6a28.31,28.31,0,0,1,0-8.47,23.27,23.27,0,0,0-4.08,9.74c-1.42,7.13,1.4,11.19,1.41,11.2Z" style="fill:#3d001b"/><path d="M16.43,20.94a1.32,1.32,0,1,1-1.25,1.4A1.33,1.33,0,0,1,16.43,20.94Z" style="fill:#c90663;fill-rule:evenodd"/><path d="M8.63,26.68a1.32,1.32,0,1,1-1.25,1.4A1.32,1.32,0,0,1,8.63,26.68Z" style="fill:#ef4366;fill-rule:evenodd"/><path d="M9.11,2.36s1.4,5.72,6.17,5,6.88-6.15,6.88-6.15a23.58,23.58,0,0,1-7.6,2.27A9.54,9.54,0,0,1,9.11,2.36Z" style="fill:#006332;fill-rule:evenodd"/><path d="M9.11,2.36s2.36,4.72,6.82,3.94S22.53.43,22.53.43a25.16,25.16,0,0,1-7.86,2.28A18.78,18.78,0,0,1,9.11,2.36Z" style="fill:#008c5c;fill-rule:evenodd"/><path d="M1,30.18c-.37-1.07,0-2.37.57-.92.37.94,2.56,3.43,4.19,3.5,3.46.14,6.94-3,6.94-3S12,32.73,7.92,34,1.23,30.91,1,30.18Z" style="fill:#ad0e59;fill-rule:evenodd"/><path d="M6.69,26.22a.54.54,0,1,1-.51.57A.54.54,0,0,1,6.69,26.22Z" style="fill:#f79463;fill-rule:evenodd"/><path d="M15.64,21a.54.54,0,1,1,.07,1.07A.54.54,0,1,1,15.64,21Z" style="fill:#f16079;fill-rule:evenodd"/><path d="M10,2.8c4.71.62,7.86.91,9.3.63a2.91,2.91,0,0,0,2.21-1.52A7.18,7.18,0,0,0,22.24.75a13.21,13.21,0,0,1-4.47,1.7A46,46,0,0,1,10,2.8Z" style="fill:#66ac3e;fill-rule:evenodd"/><path d="M9.58,2.61a22.15,22.15,0,0,1,5.48,1.6,4,4,0,0,0,3.16.45,7,7,0,0,1-4.73.51A11.37,11.37,0,0,1,9.58,2.61Z" style="fill:#66ac3e;fill-rule:evenodd"/><path d="M1.38,28.85S2.54,31.85,7,32s5.72-4.54,5.72-4.54A4.84,4.84,0,0,1,12.62,30a6,6,0,0,1-5.53,3.1A6.35,6.35,0,0,1,1.38,28.85Z" style="fill:#a1073c;fill-rule:evenodd"/></g></svg>