<svg xmlns="http://www.w3.org/2000/svg" xmlns:xlink="http://www.w3.org/1999/xlink" viewBox="0 0 31 31"><defs><linearGradient id="linear-gradient" x1="-823.86" y1="1084.85" x2="-821.89" y2="1080.21" gradientTransform="matrix(-0.42, -0.91, -0.91, 0.42, 644.54, -1198.28)" gradientUnits="userSpaceOnUse"><stop offset="0.06" stop-color="#5b732c"/><stop offset="0.28" stop-color="#779020"/><stop offset="0.76" stop-color="#8ead25"/></linearGradient><linearGradient id="linear-gradient-2" x1="-822.2" y1="1082.34" x2="-824.71" y2="1085.32" gradientTransform="matrix(-0.42, -0.91, -0.91, 0.42, 644.54, -1198.28)" gradientUnits="userSpaceOnUse"><stop offset="0" stop-color="#779020"/><stop offset="1" stop-color="#fff" stop-opacity="0"/></linearGradient><linearGradient id="linear-gradient-3" x1="-822.37" y1="1082.21" x2="-822.19" y2="1081.78" xlink:href="#linear-gradient"/><linearGradient id="linear-gradient-4" x1="-2909.76" y1="-113.46" x2="-2909.58" y2="-113.89" gradientTransform="matrix(0.34, -0.94, -0.94, -0.34, 895.5, -2767.53)" xlink:href="#linear-gradient"/><linearGradient id="linear-gradient-5" x1="-2043.75" y1="775.04" x2="-2043.53" y2="774.52" gradientTransform="matrix(-0.06, -1, -1, 0.06, 649.14, -2084.37)" xlink:href="#linear-gradient"/><linearGradient id="linear-gradient-6" x1="-2616.54" y1="-142.76" x2="-2616.43" y2="-143.03" gradientTransform="matrix(0.26, -0.97, -0.97, -0.26, 545.73, -2561.22)" xlink:href="#linear-gradient"/><linearGradient id="linear-gradient-7" x1="-2617.49" y1="-145.58" x2="-2617.41" y2="-145.77" gradientTransform="matrix(0.26, -0.97, -0.97, -0.26, 545.73, -2561.22)" xlink:href="#linear-gradient"/><linearGradient id="linear-gradient-8" x1="-14.27" y1="1189.6" x2="-14.19" y2="1189.41" gradientTransform="matrix(-0.6, -0.8, -0.8, 0.6, 955.71, -716.37)" xlink:href="#linear-gradient"/><linearGradient id="linear-gradient-9" x1="-1847.66" y1="555.85" x2="-1847.58" y2="555.66" gradientTransform="matrix(0, -1, -1, 0, 560.97, -1843.79)" xlink:href="#linear-gradient"/><radialGradient id="radial-gradient" cx="-386.16" cy="747.8" r="4.74" gradientTransform="translate(565.22 -617.46) rotate(13.91)" gradientUnits="userSpaceOnUse"><stop offset="0.13" stop-color="#8f2850"/><stop offset="0.8" stop-color="#411e1f"/></radialGradient><linearGradient id="linear-gradient-10" x1="-391.72" y1="742.46" x2="-386.8" y2="748.43" gradientTransform="matrix(0.97, 0.24, -0.24, 0.97, 566.04, -617.38)" gradientUnits="userSpaceOnUse"><stop offset="0" stop-color="#fff"/><stop offset="1" stop-color="#fff" stop-opacity="0"/></linearGradient><linearGradient id="linear-gradient-11" x1="-387.51" y1="742.88" x2="-386.82" y2="744.86" gradientTransform="translate(565.22 -617.46) rotate(13.91)" xlink:href="#linear-gradient-10"/><linearGradient id="linear-gradient-12" x1="-198.65" y1="831.92" x2="-200.03" y2="838.39" gradientTransform="translate(640.37 -571.54) rotate(33.99)" gradientUnits="userSpaceOnUse"><stop offset="0.09" stop-color="#e1b663"/><stop offset="0.33" stop-color="#8c6239"/><stop offset="0.74" stop-color="#2d1900"/></linearGradient><radialGradient id="radial-gradient-2" cx="779.34" cy="-819.39" r="3.94" gradientTransform="matrix(0.95, -0.3, 0.26, 0.82, -510.09, 928.31)" xlink:href="#radial-gradient"/><linearGradient id="linear-gradient-13" x1="242.97" y1="-984.28" x2="248" y2="-982.73" gradientTransform="matrix(-0.5, -1.09, 0.94, -0.43, 1067.11, -123.59)" xlink:href="#linear-gradient-10"/><linearGradient id="linear-gradient-14" x1="1273.16" y1="-33.45" x2="1274.51" y2="-33.45" gradientTransform="matrix(-0.92, 0.4, -0.4, -0.92, 1177.74, -509.79)" xlink:href="#linear-gradient-10"/><linearGradient id="linear-gradient-15" x1="775.68" y1="-820.47" x2="776.66" y2="-820.47" gradientTransform="translate(1134.5 -187.65) rotate(-144.49)" xlink:href="#linear-gradient-10"/><radialGradient id="radial-gradient-3" cx="946.39" cy="514.8" r="3.83" gradientTransform="translate(175.5 1044.57) rotate(-123.42) scale(1 0.86)" xlink:href="#radial-gradient"/><linearGradient id="linear-gradient-16" x1="916.83" y1="58.08" x2="921.72" y2="59.58" gradientTransform="matrix(-0.91, 0.78, -0.67, -0.78, 901.83, -661.3)" xlink:href="#linear-gradient-10"/><linearGradient id="linear-gradient-17" x1="948.67" y1="514.61" x2="949.99" y2="514.61" gradientTransform="translate(822.69 -708.3) rotate(109.48)" xlink:href="#linear-gradient-10"/><linearGradient id="linear-gradient-18" x1="946.47" y1="515.23" x2="947.43" y2="515.23" gradientTransform="translate(822.69 -708.3) rotate(109.48)" xlink:href="#linear-gradient-10"/><radialGradient id="radial-gradient-4" cx="1053.95" cy="108.66" r="4.51" gradientTransform="matrix(-0.2, -0.98, 0.88, -0.18, 129.9, 1078.24)" xlink:href="#radial-gradient"/><linearGradient id="linear-gradient-19" x1="1053.22" y1="113.84" x2="1054.12" y2="108.84" gradientTransform="translate(999.96 -373.11) rotate(152.01)" xlink:href="#linear-gradient-10"/><radialGradient id="radial-gradient-5" cx="1200.28" cy="-253.85" r="3.94" gradientTransform="translate(-312.46 1193.22) rotate(-63.61) scale(1 0.86)" xlink:href="#radial-gradient"/><linearGradient id="linear-gradient-20" x1="780.42" y1="-712.89" x2="785.46" y2="-711.34" gradientTransform="matrix(-1.14, -0.4, 0.34, -0.97, 1157.86, -358.77)" xlink:href="#linear-gradient-10"/><linearGradient id="linear-gradient-21" x1="1005.5" y1="618.38" x2="1006.85" y2="618.38" gradientTransform="translate(956.22 -705.42) rotate(110.28)" xlink:href="#linear-gradient-10"/><linearGradient id="linear-gradient-22" x1="1196.61" y1="-254.94" x2="1197.6" y2="-254.94" gradientTransform="translate(1158.8 -450.72) rotate(169.3)" xlink:href="#linear-gradient-10"/><radialGradient id="radial-gradient-6" cx="-192.74" cy="829.83" r="4.7" gradientTransform="translate(1018.14 -102.17) rotate(72.65) scale(1 1.19)" xlink:href="#radial-gradient"/><linearGradient id="linear-gradient-23" x1="-421.99" y1="587.29" x2="-419.03" y2="595.31" gradientTransform="matrix(0.96, 0.29, -0.35, 1.14, 624.27, -541.04)" gradientUnits="userSpaceOnUse"><stop offset="0" stop-color="#fff" stop-opacity="0"/><stop offset="1" stop-color="#fff"/></linearGradient><radialGradient id="radial-gradient-7" cx="-182.92" cy="831.2" r="4.29" gradientTransform="matrix(0.83, 0.56, -0.56, 0.83, 640.14, -571.2)" xlink:href="#radial-gradient"/><linearGradient id="linear-gradient-24" x1="439" y1="770.63" x2="441.39" y2="763.39" gradientTransform="matrix(0.35, 1.09, -1.09, 0.35, 704.25, -735.9)" xlink:href="#linear-gradient-10"/><radialGradient id="radial-gradient-8" cx="-182.4" cy="838.86" r="4.4" gradientTransform="matrix(-0.07, 1, -0.97, -0.07, 817.98, 264.51)" xlink:href="#radial-gradient"/><linearGradient id="linear-gradient-25" x1="-123.83" y1="843.77" x2="-119.36" y2="847.37" gradientTransform="matrix(0.84, 0.63, -0.61, 0.81, 639.17, -589.27)" xlink:href="#linear-gradient-10"/><radialGradient id="radial-gradient-9" cx="-187.1" cy="844.82" r="4.31" gradientTransform="matrix(-1, 0.05, -0.04, -0.79, -139.04, 703.16)" xlink:href="#radial-gradient"/><linearGradient id="linear-gradient-26" x1="-117.33" y1="803.94" x2="-113.87" y2="800.64" gradientTransform="matrix(1, 0.68, -0.59, 0.88, 609.34, -605.7)" xlink:href="#linear-gradient-23"/><radialGradient id="radial-gradient-10" cx="-192.74" cy="844.73" r="4.52" gradientTransform="translate(640.37 -571.54) rotate(33.99)" xlink:href="#radial-gradient"/><linearGradient id="linear-gradient-27" x1="-196.65" y1="838.88" x2="-191.25" y2="845.42" gradientTransform="matrix(0.83, 0.56, -0.56, 0.83, 639.58, -571.63)" xlink:href="#linear-gradient-10"/><linearGradient id="linear-gradient-28" x1="-194.03" y1="840.03" x2="-193.37" y2="841.93" gradientTransform="translate(640.37 -571.54) rotate(33.99)" xlink:href="#linear-gradient-10"/><radialGradient id="radial-gradient-11" cx="-188.99" cy="836.9" r="4.61" gradientTransform="matrix(-0.95, 0.32, -0.28, -0.81, 69.12, 755.07)" xlink:href="#radial-gradient"/><linearGradient id="linear-gradient-29" x1="232.6" y1="879.9" x2="238.49" y2="881.71" gradientTransform="matrix(0.53, 1.08, -0.92, 0.45, 704.62, -636.98)" xlink:href="#linear-gradient-10"/><linearGradient id="linear-gradient-30" x1="-186.25" y1="836.66" x2="-184.67" y2="836.66" gradientTransform="translate(640.37 -571.54) rotate(33.99)" xlink:href="#linear-gradient-10"/><linearGradient id="linear-gradient-31" x1="-188.9" y1="837.42" x2="-187.75" y2="837.42" gradientTransform="translate(640.37 -571.54) rotate(33.99)" xlink:href="#linear-gradient-10"/><linearGradient id="linear-gradient-35" x1="-183.89" y1="844.55" x2="-183.15" y2="844.55" gradientTransform="translate(640.37 -571.54) rotate(33.99)" xlink:href="#linear-gradient-10"/><linearGradient id="linear-gradient-37" x1="-179.16" y1="836.49" x2="-177.38" y2="840.69" gradientTransform="translate(640.37 -571.54) rotate(33.99)" xlink:href="#linear-gradient-10"/><linearGradient id="linear-gradient-38" x1="-178.42" y1="837.18" x2="-179.13" y2="837.53" gradientTransform="translate(640.37 -571.54) rotate(33.99)" xlink:href="#linear-gradient-10"/><linearGradient id="linear-gradient-39" x1="-181.93" y1="830.59" x2="-178.74" y2="830.59" gradientTransform="translate(640.37 -571.54) rotate(33.99)" xlink:href="#linear-gradient-10"/><linearGradient id="linear-gradient-40" x1="-180.73" y1="831.83" x2="-179.42" y2="831.83" gradientTransform="translate(640.37 -571.54) rotate(33.99)" xlink:href="#linear-gradient-10"/><linearGradient id="linear-gradient-41" x1="-267.39" y1="803.69" x2="-265.56" y2="803.69" gradientTransform="matrix(0.87, 0.49, -0.49, 0.87, 644.09, -563.29)" xlink:href="#linear-gradient-10"/><linearGradient id="linear-gradient-42" x1="-205.8" y1="832.05" x2="-204.64" y2="832.05" gradientTransform="translate(640.37 -571.54) rotate(33.99)" gradientUnits="userSpaceOnUse"><stop offset="0.09" stop-color="#e1b663"/><stop offset="0.93" stop-color="#ffdd9f"/></linearGradient><linearGradient id="linear-gradient-43" x1="-197.37" y1="836.15" x2="-195.79" y2="836.95" xlink:href="#linear-gradient-12"/><radialGradient id="radial-gradient-13" cx="-199.77" cy="840.7" r="4.51" gradientTransform="matrix(-0.77, 0.63, -0.57, -0.7, 331.27, 726.48)" xlink:href="#radial-gradient"/><linearGradient id="linear-gradient-44" x1="-200.5" y1="845.88" x2="-199.6" y2="840.88" gradientTransform="translate(640.37 -571.54) rotate(33.99)" xlink:href="#linear-gradient-10"/><linearGradient id="linear-gradient-45" x1="-198.96" y1="841.52" x2="-197.95" y2="841.52" gradientTransform="translate(640.37 -571.54) rotate(33.99)" xlink:href="#linear-gradient-10"/><linearGradient id="linear-gradient-46" x1="-198.44" y1="838.66" x2="-195.62" y2="838.66" gradientTransform="translate(640.37 -571.54) rotate(33.99)" xlink:href="#linear-gradient-10"/><linearGradient id="linear-gradient-47" x1="-1238.79" y1="811.33" x2="-1235.96" y2="804.68" gradientTransform="matrix(0.31, -0.95, -0.95, -0.31, 1161.87, -925.53)" xlink:href="#linear-gradient"/><linearGradient id="linear-gradient-48" x1="-1236.38" y1="807.71" x2="-1240.02" y2="812.03" gradientTransform="matrix(0.31, -0.95, -0.95, -0.31, 1161.87, -925.53)" xlink:href="#linear-gradient-2"/><linearGradient id="linear-gradient-49" x1="-1236.62" y1="807.57" x2="-1236.36" y2="806.96" gradientTransform="matrix(0.31, -0.95, -0.95, -0.31, 1161.87, -925.53)" xlink:href="#linear-gradient"/><linearGradient id="linear-gradient-50" x1="-3010.14" y1="-601.22" x2="-3009.88" y2="-601.82" gradientTransform="matrix(0.89, -0.46, -0.46, -0.89, 2410.01, -1907.79)" xlink:href="#linear-gradient"/><linearGradient id="linear-gradient-51" x1="-2331.23" y1="370.21" x2="-2330.92" y2="369.49" gradientTransform="matrix(0.63, -0.78, -0.78, -0.63, 1766.76, -1573.07)" xlink:href="#linear-gradient"/><linearGradient id="linear-gradient-52" x1="-2758.35" y1="-618.51" x2="-2758.18" y2="-618.91" gradientTransform="matrix(0.85, -0.53, -0.53, -0.85, 2013.96, -1993.69)" xlink:href="#linear-gradient"/><linearGradient id="linear-gradient-53" x1="-2759.81" y1="-622.68" x2="-2759.69" y2="-622.95" gradientTransform="matrix(0.85, -0.53, -0.53, -0.85, 2013.96, -1993.69)" xlink:href="#linear-gradient"/><linearGradient id="linear-gradient-54" x1="-474.66" y1="1005.06" x2="-474.54" y2="1004.77" gradientTransform="matrix(0.11, -0.99, -0.99, -0.11, 1063.61, -359.58)" xlink:href="#linear-gradient"/><linearGradient id="linear-gradient-55" x1="-2108.27" y1="133.4" x2="-2108.16" y2="133.12" gradientTransform="matrix(0.68, -0.73, -0.73, -0.68, 1538, -1455.9)" xlink:href="#linear-gradient"/></defs><title>fruit</title><g style="isolation:isolate"><g id="圖層_1" data-name="圖層 1"><path d="M7.55,1A1.84,1.84,0,0,1,7,1.69,3.62,3.62,0,0,0,5.89,4.37C5.78,5.79,7.33,7.22,7.66,7.51l0,0,0,0,0,0,0,0A5.25,5.25,0,0,0,9.07,5.59a3.75,3.75,0,0,0-.26-3.32,6.85,6.85,0,0,0-1-1C7.69.7,7.55,1,7.55,1Z" style="fill:url(#linear-gradient)"/><path d="M7.55,1A1.84,1.84,0,0,1,7,1.69,3.62,3.62,0,0,0,5.89,4.37C5.78,5.79,7.33,7.22,7.66,7.51l0,0,0,0,0,0,0,0A5.25,5.25,0,0,0,9.07,5.59a3.75,3.75,0,0,0-.26-3.32,6.85,6.85,0,0,0-1-1C7.69.7,7.55,1,7.55,1Z" style="mix-blend-mode:overlay;fill:url(#linear-gradient-2)"/><path d="M7.55,1A1.84,1.84,0,0,1,7,1.69,3.62,3.62,0,0,0,5.89,4.37C5.78,5.79,7.33,7.22,7.66,7.51l0,0,0,0,0,0A57.69,57.69,0,0,1,7.67.93C7.6.9,7.55,1,7.55,1Z" style="fill:#fff;opacity:0.6000000000000001;mix-blend-mode:overlay"/><path d="M7.8,7.51A.8.8,0,0,0,8,7.36l0,0,0,0,0,0,0,0,0,0,.27-.36.12-.19.06-.1.06-.1,0,0,0,0,.05-.1.06-.1,0-.1,0,0,0,0L9,5.86a2,2,0,0,0,.1-.21l0-.05h0v0l0,0a.08.08,0,0,1,0,0l0-.11a.49.49,0,0,1,0-.11v0a0,0,0,0,0,0,0l0-.06v0s0,0,0-.06,0-.15,0-.22a3.57,3.57,0,0,0,0-.46,3.39,3.39,0,0,0,0-.45,3.5,3.5,0,0,0-.07-.45A3.6,3.6,0,0,0,9.17,3a.36.36,0,0,1,0-.11l0,0,0-.05V2.72l0-.05,0,0V2.57a1.28,1.28,0,0,0-.11-.2l0-.05,0,0h0v0l0,0,0,0a2.52,2.52,0,0,0-.3-.35l-.32-.32L8,1.36l-.17-.14h0v0a.06.06,0,0,1,0,0l0,0V1h0a0,0,0,0,1,0,0V1h0v.1h0v.06s0,0,0,0v0h0l.33.3.32.32,0,0a.08.08,0,0,1,0,0L8.6,2l.07.09.06.09,0,0,0,0h0l0,0s0,0,0,.05a1.24,1.24,0,0,1,.1.2v0l0,0,0,0,0,.05V2.8l0,.05,0,0,0,.11a3.45,3.45,0,0,1,.12.43,3.64,3.64,0,0,1,.07.44,3.39,3.39,0,0,1,0,.45,2.28,2.28,0,0,1,0,.45,1.7,1.7,0,0,1,0,.22v0l0,.06v0s0,0,0,0v0l0,.11,0,.1,0,.06,0,0,0,0,0,0,0,.1-.05.1-.05.11,0,0,0,0-.05.1,0,.1-.06.1,0,0,0,0-.06.1a.93.93,0,0,0-.05.1l-.12.19c-.09.13-.17.25-.27.37A1.87,1.87,0,0,1,7.8,7.51Z" style="fill:#9bcc50"/><path d="M8.42,2.42c-.09,0-.09.23,0,.42s.24.32.33.28.09-.24,0-.43S8.51,2.37,8.42,2.42Z" style="opacity:0.30000000000000004;mix-blend-mode:multiply;fill:url(#linear-gradient-3)"/><path d="M8.47,5.56c-.1,0-.23.1-.31.3s-.05.39,0,.42.23-.1.31-.3S8.56,5.59,8.47,5.56Z" style="opacity:0.30000000000000004;mix-blend-mode:multiply;fill:url(#linear-gradient-4)"/><path d="M6.26,4c-.12,0-.2.22-.19.48S6.2,5,6.32,5s.2-.22.19-.48S6.38,4,6.26,4Z" style="opacity:0.30000000000000004;mix-blend-mode:multiply;fill:url(#linear-gradient-5)"/><path d="M6.57,2.83c-.06,0-.14.08-.18.21s0,.26.05.28.15-.08.18-.22S6.64,2.85,6.57,2.83Z" style="opacity:0.30000000000000004;mix-blend-mode:multiply;fill:url(#linear-gradient-6)"/><path d="M9,4.55s-.1.06-.13.15,0,.18,0,.19.1,0,.12-.15S9.05,4.56,9,4.55Z" style="opacity:0.30000000000000004;mix-blend-mode:multiply;fill:url(#linear-gradient-7)"/><path d="M8.17,2.93s0,.11,0,.19.14.12.18.09,0-.11,0-.19S8.2,2.9,8.17,2.93Z" style="opacity:0.30000000000000004;mix-blend-mode:multiply;fill:url(#linear-gradient-8)"/><path d="M6.68,4.17s-.09.07-.09.17,0,.18.09.18.08-.08.08-.18S6.72,4.17,6.68,4.17Z" style="opacity:0.30000000000000004;mix-blend-mode:multiply;fill:url(#linear-gradient-9)"/><path d="M9,4s0,0-.05.07l-.08.1s-.06.08-.09.13l-.25.33-.07.09-.08.1L8.19,5,8,5.19,8,5.28l-.07.09-.25.29s0,0,0,0l0,0c.07-.09.14-.19.23-.29l.07-.1L8,5.14,8.13,5l.15-.18.08-.09.07-.09.27-.32.11-.12a.38.38,0,0,1,.09-.09L9,4,9,4Z" style="fill:#9bcc50"/><path d="M8.51,2.25l0,.07-.07.1-.1.14-.24.33L8,3l-.08.09a1.33,1.33,0,0,1-.14.19c0,.07-.11.13-.16.19l0,0a.17.17,0,0,0,0-.12l.12-.15L7.84,3l.08-.1L8,2.84l.27-.31.11-.13.08-.09.06-.06,0,0Z" style="fill:#9bcc50"/><path d="M9,4l-.05.07-.07.11-.1.13c-.07.1-.15.21-.25.33l-.07.09a.61.61,0,0,1-.07.1L8.23,5l-.15.18L8,5.28l-.08.09-.24.29v0l0,0c.06-.09.14-.18.22-.29L8,5.23,8,5.14,8.17,5l.15-.19.07-.09.08-.09.26-.32.11-.12L8.93,4,9,4,9,4Z" style="fill:#315c28"/><path d="M8.52,2.26l0,.07-.08.1-.09.14-.25.33L8,3l-.07.09-.15.19-.15.19,0,0a.25.25,0,0,0,0-.12l.11-.15L7.85,3l.08-.1L8,2.85l.27-.31.11-.13.08-.09.06-.06,0,0Z" style="fill:#315c28"/><path d="M6.69,2.74l0,0,0,0,0,0,0,.06a1.09,1.09,0,0,0,.08.15L7,3.25l.11.21a.47.47,0,0,0,0,.1l.05.12a2.14,2.14,0,0,1,.1.22c0,.08.07.16.11.23s0,.08,0,.11l0,.11a2.2,2.2,0,0,0,.09.21l.06.16v0a.34.34,0,0,0,0,.1l0-.07-.09-.18-.09-.21-.06-.11,0-.11-.1-.22c0-.08-.07-.16-.1-.23l0-.11L7,3.49l-.17-.4,0-.08,0-.07,0,0v0l0-.05s0-.06,0-.08l0,0Z" style="fill:#9bcc50"/><path d="M6.6,4.21l0,0,0,0,0,.06a.16.16,0,0,1,0,.06,1,1,0,0,1,.09.15,1.5,1.5,0,0,1,.09.18,1.24,1.24,0,0,1,.1.2L7.05,5a.54.54,0,0,0,0,.11c0,.07.07.15.1.23a1.6,1.6,0,0,1,.1.23.37.37,0,0,1,0,.11l.05.11A1.8,1.8,0,0,1,7.48,6c0,.07.06.13.08.19l.06.16,0,0,0,0,0-.06,0-.07,0-.08-.09-.19c0-.06-.06-.13-.1-.2a.54.54,0,0,0,0-.11.54.54,0,0,0,0-.11c0-.08-.07-.15-.1-.23A2.29,2.29,0,0,1,7,5.18a.54.54,0,0,1,0-.11A.54.54,0,0,1,6.93,5l-.17-.39,0-.08,0-.08,0,0v0l0-.06a.21.21,0,0,0,0-.07v0Z" style="fill:#9bcc50"/><path d="M7.56,1.27c-.07.29,0,4.86.1,6.24l0,0,0,0,0,0C7.71,6.18,7.53,2,7.64,1.23,7.64,1.23,7.63,1,7.56,1.27Z" style="fill:#6fa928"/><path d="M7.6,1.2c-.07.3,0,5.12.11,6.35l0,0,.07-.06c-.06-1.32-.24-5.59-.12-6.34C7.68,1.17,7.67.89,7.6,1.2Z" style="fill:#315c28"/><path d="M6.62,4.2l0,0,0,0,0,.05a.43.43,0,0,1,0,.07l.08.15.1.18.1.2A.54.54,0,0,0,7.07,5a1.17,1.17,0,0,1,0,.11c0,.07.07.15.11.23s.06.15.1.23l0,.11s0,.07,0,.11L7.51,6a1.46,1.46,0,0,1,.07.19.52.52,0,0,1,.06.16l0,0v0l0-.06a.25.25,0,0,1,0-.07.59.59,0,0,0,0-.08l-.09-.19-.09-.2a.54.54,0,0,1-.05-.11.54.54,0,0,1,0-.11L7.15,5.4c0-.08-.07-.15-.1-.23l0-.11L7,5l-.17-.39a.36.36,0,0,0,0-.09l0-.07s0,0,0,0l0,0,0-.06,0-.08,0,0Z" style="fill:#315c28"/><path d="M6.7,2.71l0,0a.05.05,0,0,1,0,0,.1.1,0,0,1,0,.05l0,.06L6.9,3,7,3.22a1.36,1.36,0,0,1,.1.21l.06.1a.37.37,0,0,0,0,.11c0,.08.07.16.1.23a2.29,2.29,0,0,1,.1.23l0,.11,0,.11.08.21.07.16v0a.34.34,0,0,0,0,.1l0-.07-.09-.18a2,2,0,0,0-.1-.21l0-.11,0-.11-.1-.22c0-.08-.07-.16-.1-.23l0-.11,0-.11c-.07-.15-.12-.28-.17-.4l0-.08,0-.07,0,0v0l0,0a.29.29,0,0,0,0-.08v0Z" style="fill:#315c28"/><path d="M13.13,20.1c-2.09,1.17-4.9.13-6.28-2.32s-.8-5.4,1.29-6.58,4.91-.13,6.29,2.33S15.23,18.93,13.13,20.1Z" style="fill:url(#radial-gradient)"/><path d="M11.73,17.67A3.45,3.45,0,0,1,7.18,16a3.46,3.46,0,0,1,.94-4.77,3.46,3.46,0,0,1,4.55,1.69A3.45,3.45,0,0,1,11.73,17.67Z" style="opacity:0.9;mix-blend-mode:overlay;fill:url(#linear-gradient-10)"/><path d="M10.66,11.8c.34.1,1.06.73,1.32.23s-.78-.88-1.14-.94a4.06,4.06,0,0,0-1.65.23C9.08,11.87,10.37,11.73,10.66,11.8Z" style="opacity:0.9;mix-blend-mode:overlay;fill:url(#linear-gradient-11)"/><path d="M13.3,19c.26.19.57-.3.33-.42S13.12,18.88,13.3,19Z" style="fill:#621c33"/><path d="M14.22,13.17a1.09,1.09,0,0,1-.88.5c-.33-.07-.69-.68-.92-.89-.64-.6-1.47-1-2.13-1.57-.31-.28-.45-.6-.8-.87a10.74,10.74,0,0,1-1.06-.78A8.76,8.76,0,0,1,7.25,7.49a8.12,8.12,0,0,0-1.51-1.8,7.75,7.75,0,0,1-1.34-2,1.14,1.14,0,0,1,.49-.25c.38,0,.63-.11.9.19A8,8,0,0,1,6.4,4.71,15.27,15.27,0,0,0,7.29,6,14.62,14.62,0,0,1,8.76,8a6.75,6.75,0,0,0,1.46,1.78c.78.74,1.92,2.13,3,2.27.54.18,1.36.08,1.19.81A1.3,1.3,0,0,1,14.22,13.17Z" style="fill:url(#linear-gradient-12)"/><path d="M22.4,22.79a4,4,0,0,1,5.08,2.29,4,4,0,0,1-1.6,5.33,4,4,0,0,1-5.08-2.29A4,4,0,0,1,22.4,22.79Z" style="fill:url(#radial-gradient-2)"/><path d="M23.07,24.26a3.2,3.2,0,0,1,4.1,1.85,3.19,3.19,0,0,1-1.29,4.3,3.2,3.2,0,0,1-4.1-1.85A3.2,3.2,0,0,1,23.07,24.26Z" style="opacity:0.9;mix-blend-mode:overlay;fill:url(#linear-gradient-13)"/><path d="M22.05,28.46c-.07-.35.28-.94.67-.76.23.11.26.43.34.63a4.37,4.37,0,0,0,.49.77c.11.17.55.6.55.81,0,.63-.9,0-1.11-.17A2.19,2.19,0,0,1,22.05,28.46Z" style="opacity:0.9;mix-blend-mode:overlay;fill:url(#linear-gradient-14)"/><path d="M26.1,28.89c-.27.12-.56.16-.58.52a.4.4,0,0,0,.5.44.89.89,0,0,0,.41-.21c.18-.15.39-.43.22-.65S26.3,28.81,26.1,28.89Z" style="opacity:0.9;mix-blend-mode:overlay;fill:url(#linear-gradient-15)"/><path d="M18.61,14.83a3.85,3.85,0,0,1,.78-5.36,3.83,3.83,0,0,1,5.41.06A3.83,3.83,0,0,1,24,14.88,3.85,3.85,0,0,1,18.61,14.83Z" style="fill:url(#radial-gradient-3)"/><path d="M19.81,13.8a3.1,3.1,0,0,1,.63-4.32,3.09,3.09,0,0,1,4.36,0,3.09,3.09,0,0,1-.62,4.32A3.1,3.1,0,0,1,19.81,13.8Z" style="opacity:0.9;mix-blend-mode:overlay;fill:url(#linear-gradient-16)"/><path d="M19.89,15.31c-.3-.18-.49-.83-.09-1,.22-.09.47.11.66.18a4.41,4.41,0,0,0,.88.17c.2,0,.79,0,.94.14.45.41-.63.61-.86.68A2.14,2.14,0,0,1,19.89,15.31Z" style="opacity:0.9;mix-blend-mode:overlay;fill:url(#linear-gradient-17)"/><path d="M20.41,12.75c.2-.12-.27-.46-.39-.17s.18.31.35.25" style="fill:#621c33"/><path d="M20.72,12.66c.18.23.29.49.64.41a.39.39,0,0,0,.27-.59.92.92,0,0,0-.3-.32c-.19-.13-.51-.25-.68,0A.39.39,0,0,0,20.72,12.66Z" style="opacity:0.9;mix-blend-mode:overlay;fill:url(#linear-gradient-18)"/><path d="M14.38,27.75a4.47,4.47,0,1,1,6.08,1.91A4.5,4.5,0,0,1,14.38,27.75Z" style="fill:url(#radial-gradient-4)"/><path d="M14.82,26.25a3.38,3.38,0,1,1,4.6,1.44A3.4,3.4,0,0,1,14.82,26.25Z" style="opacity:0.9;mix-blend-mode:overlay;fill:url(#linear-gradient-19)"/><path d="M17,23.88c-.37.33.49.51.5.21A.32.32,0,0,0,17,23.88Z" style="fill:#621c33"/><path d="M22.62,20.2a4,4,0,0,1,5.17-2.08A4,4,0,0,1,30.54,23a4,4,0,0,1-5.17,2.09A4,4,0,0,1,22.62,20.2Z" style="fill:url(#radial-gradient-5)"/><path d="M24.15,20.73a3.19,3.19,0,0,1,4.17-1.67A3.19,3.19,0,0,1,30.54,23a3.19,3.19,0,0,1-4.17,1.68A3.18,3.18,0,0,1,24.15,20.73Z" style="opacity:0.9;mix-blend-mode:overlay;fill:url(#linear-gradient-20)"/><path d="M26.47,24.39c-.29-.2-.48-.87-.07-1,.23-.09.48.11.68.19a4.5,4.5,0,0,0,.9.19c.2,0,.81,0,1,.15.46.43-.65.62-.89.69A2.24,2.24,0,0,1,26.47,24.39Z" style="opacity:0.9;mix-blend-mode:overlay;fill:url(#linear-gradient-21)"/><path d="M29.59,21.75c-.1.29-.27.52,0,.79a.42.42,0,0,0,.67-.06,1,1,0,0,0,.13-.44c0-.24,0-.58-.32-.62A.43.43,0,0,0,29.59,21.75Z" style="opacity:0.9;mix-blend-mode:overlay;fill:url(#linear-gradient-22)"/><path d="M20.58,9.94c-.85,2.77-3.27,4.49-5.42,3.83S12,10.34,12.79,7.57s3.27-4.49,5.42-3.83S21.42,7.17,20.58,9.94Z" style="fill:url(#radial-gradient-6)"/><path d="M19.89,10.43c-.74,2.42-2.86,3.91-4.73,3.34s-2.81-3-2.07-5.41S16,4.44,17.82,5,20.63,8,19.89,10.43Z" style="opacity:0.9;mix-blend-mode:overlay;fill:url(#linear-gradient-23)"/><path d="M25.23,19a6,6,0,0,1-1.07.23,4.09,4.09,0,0,1-4.59-2.42c-.65-2,.83-4.29,3.31-5.09a5,5,0,0,1,4.45.56,3.32,3.32,0,0,1,1.2,1.63C29.18,15.94,27.7,18.22,25.23,19Z" style="fill:url(#radial-gradient-7)"/><path d="M24.14,18.6c-2,.64-4-.15-4.57-1.77s.67-3.46,2.67-4.11,4,.15,4.56,1.77S26.13,18,24.14,18.6Z" style="opacity:0.9;mix-blend-mode:overlay;fill:url(#linear-gradient-24)"/><path d="M24.06,24.92A3.28,3.28,0,0,1,22.65,26a5,5,0,0,1-4.81-.84c-2.12-1.6-2.79-4.31-1.48-6s4.08-1.83,6.21-.22a5.55,5.55,0,0,1,1.8,2.28A3.78,3.78,0,0,1,24.06,24.92Z" style="fill:url(#radial-gradient-8)"/><path d="M23.66,23.33c-1,1.27-3,1.35-4.57.17S17,20.33,18,19.05s3-1.34,4.57-.16S24.62,22.06,23.66,23.33Z" style="opacity:0.9;mix-blend-mode:overlay;fill:url(#linear-gradient-25)"/><path d="M16.43,26.66A4.31,4.31,0,0,1,10.49,28a4.31,4.31,0,0,1-1-6,4.31,4.31,0,0,1,5.94-1.37A4.31,4.31,0,0,1,16.43,26.66Z" style="fill:url(#radial-gradient-9)"/><path d="M16.54,26.21a3.8,3.8,0,0,1-5.24,1.2,3.81,3.81,0,0,1-.84-5.3A3.81,3.81,0,0,1,15.7,20.9,3.82,3.82,0,0,1,16.54,26.21Z" style="opacity:0.9;mix-blend-mode:overlay;fill:url(#linear-gradient-26)"/><path d="M9.13,25.91c-2.26.37-4.44-1.48-4.87-4.14s1-5.09,3.31-5.46S12,17.8,12.44,20.45,11.39,25.55,9.13,25.91Z" style="fill:url(#radial-gradient-10)"/><path d="M8.87,24.31a3.78,3.78,0,0,1-4-3.45c-.36-2.21.87-4.25,2.75-4.55s3.7,1.24,4.06,3.45S10.75,24,8.87,24.31Z" style="opacity:0.9;mix-blend-mode:overlay;fill:url(#linear-gradient-27)"/><path d="M9.63,17.67c.27.19.71,1,1.11.64s-.41-1-.72-1.23a3.87,3.87,0,0,0-1.55-.32C8.2,17.21,9.4,17.51,9.63,17.67Z" style="opacity:0.9;mix-blend-mode:overlay;fill:url(#linear-gradient-28)"/><path d="M9.63,25c.17.26.61-.08.44-.27S9.51,24.82,9.63,25Z" style="fill:#621c33"/><path d="M18,21.12c-2.13,1-4.82-.09-6-2.53s-.43-5.24,1.7-6.29,4.82.09,6,2.52S20.12,20.07,18,21.12Z" style="fill:url(#radial-gradient-11)"/><path d="M17.16,19.41a3.74,3.74,0,0,1-4.85-2,3.75,3.75,0,0,1,1.37-5.08,3.73,3.73,0,0,1,4.85,2A3.73,3.73,0,0,1,17.16,19.41Z" style="opacity:0.9;mix-blend-mode:overlay;fill:url(#linear-gradient-29)"/><path d="M18.94,19.78c-.3.28-1.11.31-1.18-.2,0-.29.27-.51.41-.72a5.4,5.4,0,0,0,.46-1c.09-.22.25-.92.45-1.05.61-.4.52.91.53,1.2A2.58,2.58,0,0,1,18.94,19.78Z" style="opacity:0.9;mix-blend-mode:overlay;fill:url(#linear-gradient-30)"/><path d="M16.12,18.39c-.08-.27-.62.18-.32.41s.42-.12.39-.33" style="fill:#621c33"/><path d="M16.1,18c.33-.15.66-.2.67-.62a.47.47,0,0,0-.6-.5,1.09,1.09,0,0,0-.47.26c-.2.18-.44.51-.24.77A.47.47,0,0,0,16.1,18Z" style="opacity:0.9;mix-blend-mode:overlay;fill:url(#linear-gradient-31)"/><path d="M18,21.12c-2.13,1-4.82-.09-6-2.53s-.43-5.24,1.7-6.29,4.82.09,6,2.52S20.12,20.07,18,21.12Z" style="fill:url(#radial-gradient-11)"/><path d="M17.16,19.41a3.74,3.74,0,0,1-4.85-2,3.75,3.75,0,0,1,1.37-5.08,3.73,3.73,0,0,1,4.85,2A3.73,3.73,0,0,1,17.16,19.41Z" style="opacity:0.9;mix-blend-mode:overlay;fill:url(#linear-gradient-29)"/><path d="M18.94,19.78c-.3.28-1.11.31-1.18-.2,0-.29.27-.51.41-.72a5.4,5.4,0,0,0,.46-1c.09-.22.25-.92.45-1.05.61-.4.52.91.53,1.2A2.58,2.58,0,0,1,18.94,19.78Z" style="opacity:0.9;mix-blend-mode:overlay;fill:url(#linear-gradient-30)"/><path d="M16.12,18.39c-.08-.27-.62.18-.32.41s.42-.12.39-.33" style="fill:#621c33"/><path d="M16.1,18c.33-.15.66-.2.67-.62a.47.47,0,0,0-.6-.5,1.09,1.09,0,0,0-.47.26c-.2.18-.44.51-.24.77A.47.47,0,0,0,16.1,18Z" style="opacity:0.9;mix-blend-mode:overlay;fill:url(#linear-gradient-31)"/><path d="M15.74,27.2c.31-.13,1.25-2,.84-2.23,0,0,0,0,0,0a.27.27,0,0,1-.05.26c-.25-.2-.29.1-.39.33a3.5,3.5,0,0,1-.24.42c0,.07-.14.15-.16.23s.05.17.05.23S15.26,27.4,15.74,27.2Z" style="opacity:0.9;mix-blend-mode:overlay;fill:url(#linear-gradient-35)"/><path d="M15.74,27.2c.31-.13,1.25-2,.84-2.23,0,0,0,0,0,0a.27.27,0,0,1-.05.26c-.25-.2-.29.1-.39.33a3.5,3.5,0,0,1-.24.42c0,.07-.14.15-.16.23s.05.17.05.23S15.26,27.4,15.74,27.2Z" style="opacity:0.5;mix-blend-mode:overlay;fill:url(#linear-gradient-35)"/><path d="M24.06,24.92A3.28,3.28,0,0,1,22.65,26a.43.43,0,0,0,0-.07c.29-.47.73-.76.83-1.32,0-.14,0-.58.08-.67s.26,0,.39.11a2.66,2.66,0,0,0,0-1.48c0-.3-.42-1.35-.09-1.52.24.16.32.2.46.13A3.78,3.78,0,0,1,24.06,24.92Z" style="opacity:0.9;mix-blend-mode:overlay;fill:url(#linear-gradient-37)"/><path d="M23.73,22.55c0,.22.1.71.35.79s.38-.19.37-.41S23.82,21.82,23.73,22.55Z" style="opacity:0.9;mix-blend-mode:overlay;fill:url(#linear-gradient-38)"/><path d="M25.23,19a6,6,0,0,1-1.07.23c.13-.24.54-.43.76-.57a7,7,0,0,0,.86-.77,6.82,6.82,0,0,1,.62-.43,2.52,2.52,0,0,0,.5-.48,4.54,4.54,0,0,0,.79-1,2.78,2.78,0,0,0,.13-1.4c-.1-.6-.38-1.15-.46-1.76a1.79,1.79,0,0,1,0-.58,3.32,3.32,0,0,1,1.2,1.63C29.18,15.94,27.7,18.22,25.23,19Z" style="opacity:0.9;mix-blend-mode:overlay;fill:url(#linear-gradient-39)"/><path d="M25,18.22c.44.56,2.23-.7,2.17-1.3s-.8-.3-1.06-.1a3.44,3.44,0,0,0-1,1.06C25,18,24.8,18,25,18.22Z" style="opacity:0.9;mix-blend-mode:overlay;fill:url(#linear-gradient-40)"/><path d="M17.65,4.55a2,2,0,0,0-1.51-.06c-.14,0-1.14.69-1,.87a.87.87,0,0,0,.69.29,2.88,2.88,0,0,0,.78.11C17.11,5.65,17.43,4.94,17.65,4.55Z" style="opacity:0.9;mix-blend-mode:overlay;fill:url(#linear-gradient-41)"/><path d="M4.42,3.61a.91.91,0,0,1,.86-.25c.3,0,.71.18.36.42a1.22,1.22,0,0,1-1.26-.11c0-.06,0,0,0,0" style="fill:url(#linear-gradient-42)"/><path d="M9.44,12.56c-.24.16-.72.7-1,.51s-.21-.62-.1-.84.24-.16.45-.23a4,4,0,0,0,.68-.42,4.21,4.21,0,0,0,.55-.3c.12-.09.25-.25.39-.29s.85.12.71.42-.51.32-.69.45S9.79,12.34,9.44,12.56Z" style="fill:url(#linear-gradient-43)"/><path d="M8.49,16.34A4.5,4.5,0,0,1,2.24,17.6a4.54,4.54,0,1,1,6.25-1.26Z" style="fill:url(#radial-gradient-13)"/><path d="M7,16.65a3.38,3.38,0,1,1-5.6-3.78,3.41,3.41,0,0,1,4.72-1A3.42,3.42,0,0,1,7,16.65Z" style="opacity:0.9;mix-blend-mode:overlay;fill:url(#linear-gradient-44)"/><path d="M3.86,15.88c.47.17.23-.67,0-.54S3.64,15.81,3.86,15.88Z" style="fill:#621c33"/><path d="M5.15,15.79c.54.74,1.13-1.21.14-1.27A1.18,1.18,0,0,0,5.15,15.79Z" style="opacity:0.9;mix-blend-mode:overlay;fill:url(#linear-gradient-45)"/><path d="M8.44,14.5c0,.34-.26.5-.44.74s-.18.45.13.48a.89.89,0,0,0,.65-.4C9.14,14.83,9,14,9,13.41a2.84,2.84,0,0,0-.42-1.52.54.54,0,0,0-.6-.3c-.3.08-.21.43-.21.67,0,0-.26.09-.28.17a1.11,1.11,0,0,0,.08.44C7.78,13.46,8.42,13.82,8.44,14.5Z" style="opacity:0.9;mix-blend-mode:overlay;fill:url(#linear-gradient-46)"/><path d="M14.45.33a2.52,2.52,0,0,1-1.16.22c-2-.27-3.8,1.79-3.8,1.79C8,3.79,8.22,6.91,8.28,7.57a.34.34,0,0,1,0,.09v0h.13a7.37,7.37,0,0,0,3.18-.84,5.65,5.65,0,0,0,3-3.91,10.15,10.15,0,0,0,0-2.16C14.91.11,14.45.33,14.45.33Z" style="fill:url(#linear-gradient-47)"/><path d="M14.45.33a2.52,2.52,0,0,1-1.16.22c-2-.27-3.8,1.79-3.8,1.79C8,3.79,8.22,6.91,8.28,7.57a.34.34,0,0,1,0,.09v0h.13a7.37,7.37,0,0,0,3.18-.84,5.65,5.65,0,0,0,3-3.91,10.15,10.15,0,0,0,0-2.16C14.91.11,14.45.33,14.45.33Z" style="mix-blend-mode:overlay;fill:url(#linear-gradient-48)"/><path d="M14.45.33a2.52,2.52,0,0,1-1.16.22c-2-.27-3.8,1.79-3.8,1.79C8,3.79,8.22,6.91,8.28,7.57a.34.34,0,0,1,0,.09v0h0A88.45,88.45,0,0,1,14.67.34C14.63.25,14.45.33,14.45.33Z" style="fill:#fff;opacity:0.6000000000000001;mix-blend-mode:overlay"/><path d="M8.43,7.71h.64l.63-.12L10,7.48l.15,0,.16-.05.07,0,.08,0,.15,0,.16-.06.15-.05.08,0,.07,0,.15-.06.3-.12.08,0h0l0,0,.08,0,.07,0L12,6.73l.14-.09,0,0a.05.05,0,0,0,0,0l.07,0,.07,0,.07,0,.26-.2a4.16,4.16,0,0,0,.48-.46,5.17,5.17,0,0,0,.42-.51q.19-.29.36-.57c.11-.2.21-.4.3-.61L14.29,4l0-.08,0-.08,0,0v0l0-.08,0-.08V3.48a2,2,0,0,0,.09-.33s0,0,0-.08,0-.06,0-.08V2.82c0-.23,0-.45,0-.68s0-.45,0-.67l0-.34,0-.33h0l0-.05,0-.05a.14.14,0,0,0,0-.06l0,0a0,0,0,0,1,0,0V.47a0,0,0,0,0,0,0v0h0v0h0v0h0V.47s0,0,0,0a0,0,0,0,1,0,0s0,0,0,0v0s0,0,0,0l0,0a.14.14,0,0,1,0,.06l0,.05,0,.05h0c0,.22,0,.45.05.67s0,.45,0,.67v.17a1,1,0,0,1,0,.17.86.86,0,0,1,0,.16c0,.06,0,.11,0,.17l0,.08V3s0,0,0,.08a.19.19,0,0,0,0,.08l-.09.32,0,0v0l0,.08,0,.08v.07l0,.08,0,.08-.06.15q-.13.3-.3.6a6.49,6.49,0,0,1-.36.55,4,4,0,0,1-.41.51,4.08,4.08,0,0,1-.47.46l-.26.19-.07.05-.06,0-.07,0a.05.05,0,0,1,0,0l0,0L12,6.65l-.14.08-.07,0-.08,0-.07,0-.07,0-.15.06L11.22,7l-.15.06-.08,0-.07,0-.15.06-.15.06-.16,0-.07,0-.08,0-.15,0L10,7.44l-.3.09c-.21,0-.42.1-.63.13A2.76,2.76,0,0,1,8.43,7.71Z" style="fill:#9bcc50"/><path d="M14,2.73c-.13,0-.32.17-.41.47s-.06.58.07.63.32-.17.42-.47S14.15,2.78,14,2.73Z" style="opacity:0.30000000000000004;mix-blend-mode:multiply;fill:url(#linear-gradient-49)"/><path d="M11,6.23c-.06-.13-.33-.12-.6,0s-.44.37-.37.5.33.12.6,0S11.08,6.36,11,6.23Z" style="opacity:0.30000000000000004;mix-blend-mode:multiply;fill:url(#linear-gradient-50)"/><path d="M10.21,2.33c-.13-.12-.43,0-.66.33s-.31.63-.18.74.43,0,.66-.33S10.34,2.44,10.21,2.33Z" style="opacity:0.30000000000000004;mix-blend-mode:multiply;fill:url(#linear-gradient-51)"/><path d="M11.69,1.33c0-.08-.22-.06-.39,0s-.27.27-.22.35.23.06.4-.05S11.74,1.41,11.69,1.33Z" style="opacity:0.30000000000000004;mix-blend-mode:multiply;fill:url(#linear-gradient-52)"/><path d="M12.55,5.67c0-.06-.15,0-.27,0s-.19.18-.15.24.16,0,.27,0S12.59,5.73,12.55,5.67Z" style="opacity:0.30000000000000004;mix-blend-mode:multiply;fill:url(#linear-gradient-53)"/><path d="M13.25,3c-.06,0-.13.1-.14.25s0,.26.08.27.13-.1.15-.25S13.31,3.05,13.25,3Z" style="opacity:0.30000000000000004;mix-blend-mode:multiply;fill:url(#linear-gradient-54)"/><path d="M10.5,2.9s-.16,0-.25.11-.13.23-.09.28.17,0,.26-.11S10.55,3,10.5,2.9Z" style="opacity:0.30000000000000004;mix-blend-mode:multiply;fill:url(#linear-gradient-55)"/><path d="M13,5l-.11,0-.18,0-.23,0-.58.11-.16,0-.17,0-.34.06-.33.05-.17,0-.16,0-.54.07s0,0,0,0v0l.51-.1.16,0,.17,0,.34,0,.34-.05.16,0,.17,0,.58-.08.24,0,.18,0H13Z" style="fill:#9bcc50"/><path d="M14.27,2.64l-.12,0-.18,0-.23,0-.58.12-.16,0-.16,0L12.5,3l-.34,0h0a.23.23,0,0,0,.09-.14l.27,0,.34-.06.17,0,.16,0,.58-.08.24,0,.18,0h.12Z" style="fill:#9bcc50"/><path d="M13.08,5l-.11,0-.18,0-.23,0L12,5.26l-.16,0-.17,0-.34.06-.33,0-.17,0-.16,0-.54.08a.08.08,0,0,0,0,0v0l.51-.1.16,0,.17,0,.34-.06.34-.06.16,0,.16,0,.59-.08.23,0L13,5Z" style="fill:#315c28"/><path d="M14.27,2.66l-.12,0-.17,0-.23,0-.58.12-.16,0-.17,0L12.5,3l-.34,0h0a.3.3,0,0,0,.1-.14l.26,0,.34-.06.17,0,.16,0,.59-.08.23,0,.18,0Z" style="fill:#315c28"/><path d="M11.9,1.35a.11.11,0,0,1,0,0,.17.17,0,0,1,0,.07s0,.06,0,.09l0,.11c0,.07,0,.15-.05.25s0,.18-.08.29l-.09.32a1.54,1.54,0,0,0,0,.17l-.06.18c0,.12-.07.23-.11.35l-.12.36c0,.05,0,.11,0,.17l-.06.17-.12.31c0,.09-.06.16-.08.24h0l-.1.12a.76.76,0,0,1,0-.11c0-.09,0-.18.08-.29s.07-.21.1-.32,0-.11,0-.17l.06-.17c0-.12.07-.24.11-.35l.12-.36a1.09,1.09,0,0,0,.05-.17l.06-.17c.07-.22.14-.43.2-.6a.93.93,0,0,0,0-.13.56.56,0,0,0,0-.12l0,0V1.55l0-.08a.45.45,0,0,0,0-.13v0Z" style="fill:#9bcc50"/><path d="M10.38,2.87a.13.13,0,0,0,0,.06s0,0,0,.07,0,.06,0,.09a.36.36,0,0,1,0,.1l-.06.25c0,.09,0,.19-.08.3s-.06.21-.09.32a1.09,1.09,0,0,1-.05.17c0,.06,0,.12,0,.18a3.58,3.58,0,0,0-.11.35l-.12.35-.06.18-.06.16c0,.11-.08.22-.11.32s-.07.2-.11.28-.06.17-.09.24l0,.07h0l0-.09,0-.12s0-.08,0-.13.05-.19.09-.29l.09-.32.06-.17.05-.17.12-.36c0-.12.07-.23.11-.35l.06-.17A1.54,1.54,0,0,0,10,4c.08-.22.15-.43.21-.61s0-.08,0-.12a.56.56,0,0,1,0-.12V3.13l0,0,0-.08a.86.86,0,0,1,0-.13v0Z" style="fill:#9bcc50"/><path d="M14.23.61c-.35.25-4.75,5.31-6,7a.34.34,0,0,1,0,.09v0h.06c1.26-1.55,5.15-6.34,6-7C14.35.65,14.61.34,14.23.61Z" style="fill:#6fa928"/><path d="M14.33.57c-.36.26-5,5.6-6,7.09v0h.13c1.22-1.51,5.17-6.38,6-7.1C14.45.61,14.71.3,14.33.57Z" style="fill:#315c28"/><path d="M10.41,2.88a.13.13,0,0,1,0,.06.2.2,0,0,1,0,.07s0,.06,0,.09l0,.11c0,.07,0,.15,0,.25s-.05.18-.08.29l-.09.32a1.54,1.54,0,0,0-.05.17L10,4.42c0,.11-.07.23-.11.35l-.12.35a1.21,1.21,0,0,0,0,.18.85.85,0,0,0-.06.17l-.12.31c0,.1-.07.2-.1.29s-.07.16-.09.23l0,.07h0s0-.06,0-.09l0-.12A.93.93,0,0,1,9.4,6c0-.09,0-.18.08-.29s.06-.21.1-.32,0-.11.05-.17l.06-.17c0-.12.07-.24.11-.36l.12-.35L10,4.21,10,4c.07-.22.14-.43.2-.6a.93.93,0,0,0,0-.13.56.56,0,0,0,0-.12s0,0,0,0,0,0,0-.05l0-.08a.45.45,0,0,0,0-.13v0Z" style="fill:#315c28"/><path d="M11.94,1.32s0,0,0,.05,0,0,0,.08a.51.51,0,0,1,0,.09.44.44,0,0,1,0,.1,1.49,1.49,0,0,1-.06.25c0,.09,0,.19-.07.29l-.09.33-.06.17a1.09,1.09,0,0,1,0,.17c0,.12-.07.24-.11.36l-.12.35-.06.17-.06.17a3,3,0,0,1-.11.32L11,4.45l0,0a1.25,1.25,0,0,0-.09.12l0-.11L11,4.19c0-.1.06-.21.1-.32a.84.84,0,0,1,.05-.17l.06-.18c0-.11.07-.23.11-.35s.08-.24.11-.35l.06-.18.06-.17.2-.6,0-.13a.76.76,0,0,0,0-.11l0,0V1.53l0-.09a1,1,0,0,1,0-.12v0Z" style="fill:#315c28"/></g></g></svg>