<svg id="圖層_1" data-name="圖層 1" xmlns="http://www.w3.org/2000/svg" viewBox="0 0 36.27 20.36"><title>i_farm--19</title><g id="_群組_" data-name="&lt;群組&gt;"><g id="_群組_2" data-name="&lt;群組&gt;"><g id="_群組_3" data-name="&lt;群組&gt;"><path id="_路徑_" data-name="&lt;路徑&gt;" d="M33.3,20S30.8,9.8,28.1,5.4s-9.6-3-9.6-3S11.2.9,8.9,5.4,3.7,20.6,3.7,20.6s1-1.1,14.8-1.1h0v0C32.3,19.5,33.3,20,33.3,20Z" transform="translate(-0.38 -0.34)" style="fill:#1a222c"/><g id="_群組_4" data-name="&lt;群組&gt;"><path id="_路徑_2" data-name="&lt;路徑&gt;" d="M16.6,13.7s.6,2.5,1.9,2.5,1.8-2.5,1.8-2.5l-1.8-1.1Z" transform="translate(-0.38 -0.34)" style="fill:#f1695f"/><path id="_路徑_3" data-name="&lt;路徑&gt;" d="M22.8,8.3c-1.1-2.9-4.3-1.5-4.3-1.5s-3.3-1.4-4.3,1.5c-.5,1.4-3.8,2.7-2.3,5.3,1.2,2,5.6,1,6.6-1,1,2,5.5,3,6.6,1C26.6,11,23.3,9.7,22.8,8.3Z" transform="translate(-0.38 -0.34)" style="fill:#9a7b6d"/><g id="_群組_5" data-name="&lt;群組&gt;"><g id="_群組_6" data-name="&lt;群組&gt;"><g id="_群組_7" data-name="&lt;群組&gt;"><path id="_路徑_4" data-name="&lt;路徑&gt;" d="M22.7,13.3s-2.3,2.4-4.2-.8c-1.9,3.2-4.2.8-4.2.8-.7-.5-.6.2-.6.2a5.17,5.17,0,0,0,4.7,2.7,5.09,5.09,0,0,0,4.7-2.7C23.2,13.5,23.4,12.8,22.7,13.3Z" transform="translate(-0.38 -0.34)" style="fill:#1a222c"/><path id="_路徑_5" data-name="&lt;路徑&gt;" d="M18.5,8.7s-1.7-.1-1.7.3a2.05,2.05,0,0,0,1.7,1.5A2,2,0,0,0,20.2,9C20.2,8.7,18.5,8.7,18.5,8.7Z" transform="translate(-0.38 -0.34)" style="fill:#1a222c"/><path id="_路徑_6" data-name="&lt;路徑&gt;" d="M18.5,10.6" transform="translate(-0.38 -0.34)" style="fill:none;stroke:#4b4f50;stroke-linecap:round;stroke-linejoin:round;stroke-width:1.8423999547958374px"/><line id="_路徑_7" data-name="&lt;路徑&gt;" x1="18.12" y1="9.66" x2="18.12" y2="12.66" style="fill:none;stroke:#1a222c;stroke-linecap:round;stroke-linejoin:round;stroke-width:2.7636001110076904px"/><path id="_路徑_8" data-name="&lt;路徑&gt;" d="M17,14.6s.1-.9,1.5-.9,1.5.9,1.5.9Z" transform="translate(-0.38 -0.34)" style="fill:#c0534c"/><path id="_路徑_9" data-name="&lt;路徑&gt;" d="M20,14.6a2.5,2.5,0,0,0-3,0c-1,3.7,1.5,3,1.5,3S21,18.3,20,14.6Z" transform="translate(-0.38 -0.34)" style="fill:#f1695f"/></g><g id="_群組_8" data-name="&lt;群組&gt;"><path d="M18.5,14.5a2.85,2.85,0,0,1,.8.7,1.85,1.85,0,0,1,.2.7,1.85,1.85,0,0,1-.2.7,2.85,2.85,0,0,1-.8.7,2.85,2.85,0,0,1-.8-.7,1.85,1.85,0,0,1-.2-.7,1.59,1.59,0,0,1,1-1.4Z" transform="translate(-0.38 -0.34)" style="fill:#c0534c"/></g></g><g id="_群組_9" data-name="&lt;群組&gt;"><path d="M17.3,9.3a1.35,1.35,0,0,1,.5-.9,1.14,1.14,0,0,1,.8-.3,1.34,1.34,0,0,1,1.3,1.1c-.3.3-.6.4-.8.6a1.27,1.27,0,0,1-.6.1c-.2,0-.3-.1-.5-.2S17.6,9.5,17.3,9.3Z" transform="translate(-0.38 -0.34)" style="fill:#d7c8a6"/></g></g><g id="_群組_10" data-name="&lt;群組&gt;"><g id="_群組_11" data-name="&lt;群組&gt;"><path id="_路徑_10" data-name="&lt;路徑&gt;" d="M14.5,10.2a.3.3,0,1,0-.3.3C14.3,10.4,14.5,10.3,14.5,10.2Z" transform="translate(-0.38 -0.34)" style="fill:#d7c8a6"/><path id="_路徑_11" data-name="&lt;路徑&gt;" d="M16,10.5a.3.3,0,1,0-.3.3A.27.27,0,0,0,16,10.5Z" transform="translate(-0.38 -0.34)" style="fill:#d7c8a6"/><path id="_路徑_12" data-name="&lt;路徑&gt;" d="M15.1,11.2a.3.3,0,1,0-.3.3A.27.27,0,0,0,15.1,11.2Z" transform="translate(-0.38 -0.34)" style="fill:#d7c8a6"/><path id="_路徑_13" data-name="&lt;路徑&gt;" d="M16.4,11.8a.3.3,0,1,0-.3.3Q16.4,12,16.4,11.8Z" transform="translate(-0.38 -0.34)" style="fill:#d7c8a6"/><path id="_路徑_14" data-name="&lt;路徑&gt;" d="M15.1,12.5a.3.3,0,1,0-.3.3A.27.27,0,0,0,15.1,12.5Z" transform="translate(-0.38 -0.34)" style="fill:#d7c8a6"/><path id="_路徑_15" data-name="&lt;路徑&gt;" d="M13.8,11.5a.3.3,0,1,0-.3.3A.45.45,0,0,0,13.8,11.5Z" transform="translate(-0.38 -0.34)" style="fill:#d7c8a6"/></g><g id="_群組_12" data-name="&lt;群組&gt;"><path id="_路徑_16" data-name="&lt;路徑&gt;" d="M22.5,10.2a.3.3,0,1,1,.3.3Q22.5,10.35,22.5,10.2Z" transform="translate(-0.38 -0.34)" style="fill:#d7c8a6"/><path id="_路徑_17" data-name="&lt;路徑&gt;" d="M21,10.5a.3.3,0,1,1,.3.3A.27.27,0,0,1,21,10.5Z" transform="translate(-0.38 -0.34)" style="fill:#d7c8a6"/><path id="_路徑_18" data-name="&lt;路徑&gt;" d="M21.9,11.2a.3.3,0,1,1,.3.3A.27.27,0,0,1,21.9,11.2Z" transform="translate(-0.38 -0.34)" style="fill:#d7c8a6"/><path id="_路徑_19" data-name="&lt;路徑&gt;" d="M20.5,11.8a.3.3,0,1,1,.3.3C20.7,12,20.5,11.9,20.5,11.8Z" transform="translate(-0.38 -0.34)" style="fill:#d7c8a6"/><path id="_路徑_20" data-name="&lt;路徑&gt;" d="M21.9,12.5a.3.3,0,1,1,.3.3A.27.27,0,0,1,21.9,12.5Z" transform="translate(-0.38 -0.34)" style="fill:#d7c8a6"/><path id="_路徑_21" data-name="&lt;路徑&gt;" d="M23.2,11.5a.3.3,0,1,1,.3.3A.32.32,0,0,1,23.2,11.5Z" transform="translate(-0.38 -0.34)" style="fill:#d7c8a6"/></g></g><g id="_群組_13" data-name="&lt;群組&gt;"><path id="_路徑_22" data-name="&lt;路徑&gt;" d="M14,6.7a1.6,1.6,0,1,0-1.6,1.6A1.64,1.64,0,0,0,14,6.7Z" transform="translate(-0.38 -0.34)" style="fill:#fff"/><path id="_路徑_23" data-name="&lt;路徑&gt;" d="M13.7,6.7A1.3,1.3,0,1,0,12.4,8,1.32,1.32,0,0,0,13.7,6.7Z" transform="translate(-0.38 -0.34)" style="fill:#9a7b6d"/><path id="_路徑_24" data-name="&lt;路徑&gt;" d="M13.3,6.7a.9.9,0,1,0-.9.9A.9.9,0,0,0,13.3,6.7Z" transform="translate(-0.38 -0.34)" style="fill:#1a222c"/><g id="_群組_14" data-name="&lt;群組&gt;"><path id="_路徑_25" data-name="&lt;路徑&gt;" d="M13.4,6.3a.4.4,0,1,0-.4.4A.43.43,0,0,0,13.4,6.3Z" transform="translate(-0.38 -0.34)" style="fill:#fff"/></g></g><g id="_群組_15" data-name="&lt;群組&gt;"><path id="_路徑_26" data-name="&lt;路徑&gt;" d="M26.2,6.7a1.6,1.6,0,1,0-1.6,1.6A1.64,1.64,0,0,0,26.2,6.7Z" transform="translate(-0.38 -0.34)" style="fill:#fff"/><path id="_路徑_27" data-name="&lt;路徑&gt;" d="M25.9,6.7A1.3,1.3,0,1,0,24.6,8,1.32,1.32,0,0,0,25.9,6.7Z" transform="translate(-0.38 -0.34)" style="fill:#9a7b6d"/><path id="_路徑_28" data-name="&lt;路徑&gt;" d="M25.6,6.7a1,1,0,1,0-1,1A1.17,1.17,0,0,0,25.6,6.7Z" transform="translate(-0.38 -0.34)" style="fill:#1a222c"/><g id="_群組_16" data-name="&lt;群組&gt;"><path id="_路徑_29" data-name="&lt;路徑&gt;" d="M25.6,6.3a.4.4,0,1,0-.4.4A.43.43,0,0,0,25.6,6.3Z" transform="translate(-0.38 -0.34)" style="fill:#fff"/></g></g></g><path id="_路徑_30" data-name="&lt;路徑&gt;" d="M25.6,3.4s2-3.9,4.8-2.9,7.1,4.3,6.1,6.1-6,2.7-7.9-3.1c0,0-.9-1.6-2,.7Z" transform="translate(-0.38 -0.34)" style="fill:#1a222c"/><path id="_路徑_31" data-name="&lt;路徑&gt;" d="M11.4,3.4S9.4-.5,6.6.5c-2.8.8-7,4.2-6.1,6s6,2.7,7.9-3.1c0,0,.9-1.6,2,.7Z" transform="translate(-0.38 -0.34)" style="fill:#1a222c"/></g></g></g><polygon points="3.32 20.36 33.02 20.36 32.42 17.76 4.12 17.76 3.22 20.36 3.32 20.36" style="fill:#1a222c"/></svg>