<svg xmlns="http://www.w3.org/2000/svg" xmlns:xlink="http://www.w3.org/1999/xlink" viewBox="0 0 26 33"><defs><linearGradient id="未命名漸層_22" x1="0.17" y1="21.24" x2="25.84" y2="21.24" gradientUnits="userSpaceOnUse"><stop offset="0" stop-color="#ffe9ba"/><stop offset="0.02" stop-color="#ffe4b7"/><stop offset="0.16" stop-color="#ffc6aa"/><stop offset="0.31" stop-color="#ffaf9f"/><stop offset="0.47" stop-color="#ff9f98"/><stop offset="0.65" stop-color="#ff9593"/><stop offset="0.88" stop-color="#ff9292"/></linearGradient></defs><title>fruit</title><g id="圖層_1" data-name="圖層 1"><path d="M14.55,3.07s-1.79-.42-2.43,2.06a37.86,37.86,0,0,0-.51,7.53l1.47-.53a9.81,9.81,0,0,1,1.8-6.87S17.84,3.14,14.55,3.07Z" style="fill:#55320a"/><path d="M14.55,3.07s1.53,0,1.55.68c0,0,.27.4-1.22,1.51,0,0-1.8,1.82-1.76,5.73v1.36H12S11.77,7.05,14.55,3.07Z" style="fill:#683b11"/><path d="M9.5.37S7.14,5.31,12.18,7.49C12.18,7.49,14.15,2.6,9.5.37Z" style="fill:#8cb712"/><path d="M11.68,10.23S2.85,7.4.37,17.65c0,0-2.47,8.83,9.9,14.84a4.48,4.48,0,0,0,3.59-.74,4.42,4.42,0,0,0,3.15.71c1.68-.35,10.12-3.49,8.66-15.36-2.48-11.09-14-5.77-14-5.77Z" style="fill:url(#未命名漸層_22)"/><path d="M9.15,14.56S5.26,18.05,7.69,25.19a9.29,9.29,0,0,0,6.19,6.3S5.24,24.75,9.15,14.56Z" style="fill:#f88"/><path d="M16.76,10.08s.28,1.59,3.35,2.58,5.38,6.16,5.33,10.76C25.44,23.42,28.64,9.27,16.76,10.08Z" style="fill:#f28181"/><path d="M.19,18.87s.65,11,13.67,12.88a4.06,4.06,0,0,1-3.59.74S-.48,28.26.19,18.87Z" style="fill:#ffa1a1"/><path d="M9.5.37l2.68,7.12S14.08,2.43,9.5.37Z" style="fill:#c1d22e"/></g></svg>