<svg xmlns="http://www.w3.org/2000/svg" viewBox="0 0 31 26"><title>fruit</title><g id="圖層_1" data-name="圖層 1"><path d="M4.06,6.31a1,1,0,0,1,.25-.06A1,1,0,0,0,4.06,6.31Z" style="fill:none;stroke:#666;stroke-linecap:round;stroke-linejoin:round;stroke-width:1.5px"/><path d="M4.38,6.23c.21,0,.42-.05.64-.06C4.8,6.18,4.59,6.2,4.38,6.23Z" style="fill:none;stroke:#666;stroke-linecap:round;stroke-linejoin:round;stroke-width:1.5px"/><path d="M5.07,6.17c.23,0,.46,0,.68,0A5.06,5.06,0,0,0,5.07,6.17Z" style="fill:none;stroke:#666;stroke-linecap:round;stroke-linejoin:round;stroke-width:1.5px"/><path d="M1.55,8.31l.36-.41Z" style="fill:none;stroke:#666;stroke-linecap:round;stroke-linejoin:round;stroke-width:1.5px"/><path d="M1.91,7.9c.12-.14.25-.27.38-.4C2.16,7.63,2,7.76,1.91,7.9Z" style="fill:none;stroke:#666;stroke-linecap:round;stroke-linejoin:round;stroke-width:1.5px"/><path d="M2.29,7.5l.39-.37Z" style="fill:none;stroke:#666;stroke-linecap:round;stroke-linejoin:round;stroke-width:1.5px"/><path d="M2.69,7.13l.4-.34Z" style="fill:none;stroke:#666;stroke-linecap:round;stroke-linejoin:round;stroke-width:1.5px"/><path d="M3.42,6.57l.23-.12Z" style="fill:none;stroke:#666;stroke-linecap:round;stroke-linejoin:round;stroke-width:1.5px"/><path d="M3.71,6.43,4,6.32Z" style="fill:none;stroke:#666;stroke-linecap:round;stroke-linejoin:round;stroke-width:1.5px"/><path d="M3.09,6.79l.26-.18Z" style="fill:none;stroke:#666;stroke-linecap:round;stroke-linejoin:round;stroke-width:1.5px"/><path d="M4,8.84a4.3,4.3,0,0,1,1.81-.69l-.12.21a11.71,11.71,0,0,1,1.52-2A1.54,1.54,0,0,1,7,6.5a8,8,0,0,0-1.24-.28A6.25,6.25,0,0,1,4,8.84Z" style="fill:none;stroke:#666;stroke-linecap:round;stroke-linejoin:round;stroke-width:1.5px"/><path d="M3.39,9.24A4.85,4.85,0,0,1,4,8.84a6.34,6.34,0,0,0,1.8-2.63H5a4.49,4.49,0,0,0-.64,0H4.31l-.25,0L4,6.33l-.29.1-.06,0-.23.11-.07,0-.26.18-.4.34h0l-.39.37h0c-.13.13-.26.26-.38.4h0l-.36.41h0A2.73,2.73,0,0,0,3.39,9.24Z" style="fill:none;stroke:#666;stroke-linecap:round;stroke-linejoin:round;stroke-width:1.5px"/><path d="M4,8.84a4.85,4.85,0,0,0-.56.4A6.86,6.86,0,0,0,2.2,10.53s-.58,1,2.33.41a.84.84,0,0,1,0-.17.75.75,0,0,1,0-.16c0-.1.07-.21.11-.32l.06-.18c0-.11.08-.21.13-.32L5,9.64l.18-.4.1-.2.12-.24c0-.07.07-.14.11-.2l.14-.24.12-.21A4.3,4.3,0,0,0,4,8.84Z" style="fill:none;stroke:#666;stroke-linecap:round;stroke-linejoin:round;stroke-width:1.5px"/><path d="M27.91,6.79a4.19,4.19,0,0,0-3.78-.33,12.7,12.7,0,0,1,1.28,1.71,5.42,5.42,0,0,1,3.39,2.36s.56,1-2.16.45a12.41,12.41,0,0,1,.28,1.24,12.08,12.08,0,0,0,1.8,0C32.31,11.91,30.06,8.5,27.91,6.79Z" style="fill:none;stroke:#666;stroke-linecap:round;stroke-linejoin:round;stroke-width:1.5px"/><path d="M28.8,10.53a5.42,5.42,0,0,0-3.39-2.36A11.58,11.58,0,0,1,26.64,11C29.36,11.51,28.8,10.53,28.8,10.53Z" style="fill:none;stroke:#666;stroke-linecap:round;stroke-linejoin:round;stroke-width:1.5px"/><path d="M23.9,6.22a5.23,5.23,0,0,0,2.36-3C26.9.83,26.25.12,25.68,0s-1.54,3.61-3.94,4.45A11.47,11.47,0,0,1,23.9,6.22Z" style="fill:none;stroke:#666;stroke-linecap:round;stroke-linejoin:round;stroke-width:1.5px"/><path d="M4.34,16.55c0-.15-.06-.31-.09-.46C4.28,16.24,4.3,16.4,4.34,16.55Z" style="fill:none;stroke:#666;stroke-linecap:round;stroke-linejoin:round;stroke-width:1.5px"/><path d="M4.22,16l-.06-.44Z" style="fill:none;stroke:#666;stroke-linecap:round;stroke-linejoin:round;stroke-width:1.5px"/><path d="M4.09,13.59c0-.05,0-.1,0-.15S4.09,13.54,4.09,13.59Z" style="fill:none;stroke:#666;stroke-linecap:round;stroke-linejoin:round;stroke-width:1.5px"/><path d="M4.13,13.05c0-.05,0-.1,0-.14S4.13,13,4.13,13.05Z" style="fill:none;stroke:#666;stroke-linecap:round;stroke-linejoin:round;stroke-width:1.5px"/><path d="M4.21,12.4s0-.06,0-.09S4.21,12.37,4.21,12.4Z" style="fill:none;stroke:#666;stroke-linecap:round;stroke-linejoin:round;stroke-width:1.5px"/><path d="M4.09,14.73c0-.2,0-.4,0-.61C4.08,14.33,4.08,14.53,4.09,14.73Z" style="fill:none;stroke:#666;stroke-linecap:round;stroke-linejoin:round;stroke-width:1.5px"/><path d="M4.66,17.73a4.91,4.91,0,0,1-.15-.51C4.55,17.39,4.61,17.56,4.66,17.73Z" style="fill:none;stroke:#666;stroke-linecap:round;stroke-linejoin:round;stroke-width:1.5px"/><path d="M4.48,17.14l-.12-.48Z" style="fill:none;stroke:#666;stroke-linecap:round;stroke-linejoin:round;stroke-width:1.5px"/><path d="M20.37,3.79a11.45,11.45,0,0,0-9.6-.07c.78,2.92-.89,6.58-1.91,9.18a16.62,16.62,0,0,1-3.75,6,11.09,11.09,0,0,0,1.57,2.52,11.75,11.75,0,0,0,.9,1c-.31-4.51,4.27-4.85,7.82-4.85s8.27.35,7.81,5.05a12.21,12.21,0,0,0,1.11-1.17,11.29,11.29,0,0,0,1.62-2.63,16.9,16.9,0,0,1-3.65-5.85C21.28,10.32,19.63,6.69,20.37,3.79ZM12,15.84a1.81,1.81,0,1,1,1.88-1.75A1.81,1.81,0,0,1,12,15.84Zm5.1-1.75A1.81,1.81,0,1,1,19,15.84,1.81,1.81,0,0,1,17.11,14.09Z" style="fill:none;stroke:#666;stroke-linecap:round;stroke-linejoin:round;stroke-width:1.5px"/><path d="M4.87,18.3c-.07-.17-.13-.35-.19-.52C4.74,18,4.8,18.13,4.87,18.3Z" style="fill:none;stroke:#666;stroke-linecap:round;stroke-linejoin:round;stroke-width:1.5px"/><path d="M5.11,18.86c-.08-.18-.16-.36-.23-.54C5,18.5,5,18.68,5.11,18.86Z" style="fill:none;stroke:#666;stroke-linecap:round;stroke-linejoin:round;stroke-width:1.5px"/><path d="M4.14,15.34l0-.45Z" style="fill:none;stroke:#666;stroke-linecap:round;stroke-linejoin:round;stroke-width:1.5px"/><path d="M4.53,10.94c-2.91.61-2.33-.41-2.33-.41A6.86,6.86,0,0,1,3.39,9.24a2.73,2.73,0,0,1-1.84-.92C.18,10-.41,12,2.28,12.21a10.58,10.58,0,0,0,2,0A10.48,10.48,0,0,1,4.53,10.94Z" style="fill:none;stroke:#666;stroke-linecap:round;stroke-linejoin:round;stroke-width:1.5px"/><path d="M4.8,10.11l-.06.18Z" style="fill:none;stroke:#666;stroke-linecap:round;stroke-linejoin:round;stroke-width:1.5px"/><path d="M4.63,10.61a.75.75,0,0,0,0,.16A.75.75,0,0,1,4.63,10.61Z" style="fill:none;stroke:#666;stroke-linecap:round;stroke-linejoin:round;stroke-width:1.5px"/><path d="M5,9.64l-.06.15Z" style="fill:none;stroke:#666;stroke-linecap:round;stroke-linejoin:round;stroke-width:1.5px"/><path d="M5.5,8.6c0,.06-.07.13-.11.2S5.46,8.66,5.5,8.6Z" style="fill:none;stroke:#666;stroke-linecap:round;stroke-linejoin:round;stroke-width:1.5px"/><path d="M5.27,9l-.1.2Z" style="fill:none;stroke:#666;stroke-linecap:round;stroke-linejoin:round;stroke-width:1.5px"/><path d="M10.76,3.73a12.63,12.63,0,0,0-1.4.76C6.89,3.72,5.81-.09,5.32,0S4.1.83,4.74,3.19A5.27,5.27,0,0,0,7.2,6.28,11.33,11.33,0,0,1,10.76,3.73Z" style="fill:none;stroke:#666;stroke-linecap:round;stroke-linejoin:round;stroke-width:1.5px"/><path d="M10.77,3.72h0A11.33,11.33,0,0,0,7.2,6.28l0,0A11.71,11.71,0,0,0,5.64,8.36L5.5,8.6c0,.06-.07.13-.11.2L5.27,9l-.1.2L5,9.64l-.06.15c0,.11-.09.21-.13.32l-.06.18c0,.11-.08.22-.11.32a.75.75,0,0,0,0,.16.84.84,0,0,0,0,.17,10.48,10.48,0,0,0-.29,1.26s0,.07,0,.11,0,.06,0,.09,0,.34-.07.51,0,.09,0,.14l0,.39c0,.05,0,.1,0,.15s0,.35,0,.53,0,.41,0,.61,0,.11,0,.16l0,.45a1,1,0,0,1,0,.17l.06.44,0,.14c0,.15,0,.31.09.46s0,.07,0,.11l.12.48,0,.08a4.91,4.91,0,0,0,.15.51l0,.05c.06.17.12.35.19.52v0c.07.18.15.36.23.54h0a16.62,16.62,0,0,0,3.75-6C9.88,10.3,11.55,6.64,10.77,3.72Z" style="fill:none;stroke:#666;stroke-linecap:round;stroke-linejoin:round;stroke-width:1.5px"/><path d="M25.41,8.17a12.7,12.7,0,0,0-1.28-1.71l-.23-.24a11.47,11.47,0,0,0-2.16-1.76,12.54,12.54,0,0,0-1.35-.74.64.64,0,0,1,0,.07c-.74,2.9.91,6.53,1.92,9.11a16.9,16.9,0,0,0,3.65,5.85l.11.11a11.36,11.36,0,0,0,1-4.74,11.88,11.88,0,0,0-.16-1.9A12.41,12.41,0,0,0,26.64,11,11.58,11.58,0,0,0,25.41,8.17Z" style="fill:none;stroke:#666;stroke-linecap:round;stroke-linejoin:round;stroke-width:1.5px"/><path d="M20.73,14a1.81,1.81,0,0,0-3.62.13A1.81,1.81,0,1,0,20.73,14Zm-1.82-.54a.65.65,0,0,1,.62.67.57.57,0,0,1-.1.31.79.79,0,0,0-.73-.54.61.61,0,0,0-.46.15A.65.65,0,0,1,18.91,13.42Z" style="fill:none;stroke:#666;stroke-linecap:round;stroke-linejoin:round;stroke-width:1.5px"/><path d="M19.43,14.4a.57.57,0,0,0,.1-.31A.65.65,0,0,0,18.24,14a.61.61,0,0,1,.46-.15A.79.79,0,0,1,19.43,14.4Z" style="fill:none;stroke:#666;stroke-linecap:round;stroke-linejoin:round;stroke-width:1.5px"/><path d="M13.89,14.09A1.81,1.81,0,1,0,12,15.84,1.81,1.81,0,0,0,13.89,14.09Zm-1.8-.67a.65.65,0,0,1,.67.59.61.61,0,0,0-.46-.15.79.79,0,0,0-.73.54.57.57,0,0,1-.1-.31A.65.65,0,0,1,12.09,13.42Z" style="fill:none;stroke:#666;stroke-linecap:round;stroke-linejoin:round;stroke-width:1.5px"/><path d="M12.3,13.86a.61.61,0,0,1,.46.15.65.65,0,0,0-1.29.08.57.57,0,0,0,.1.31A.79.79,0,0,1,12.3,13.86Z" style="fill:none;stroke:#666;stroke-linecap:round;stroke-linejoin:round;stroke-width:1.5px"/><path d="M8.54,25.25c1.71,2,5.15-.61,6.86-.61a8.07,8.07,0,0,1,2.37.68l.56.2c1.63.57,3.36.94,4.28-.77a5.17,5.17,0,0,0,.52-1.56c0-.22.06-.44.08-.64.46-4.7-4.2-5.05-7.81-5.05s-8.13.34-7.82,4.85c0,.26,0,.54.1.84A4.31,4.31,0,0,0,8.54,25.25Zm11.33-4.74a.86.86,0,1,1-.87.86A.87.87,0,0,1,19.87,20.51Zm-9.37,0a.86.86,0,1,1-.86.86A.86.86,0,0,1,10.5,20.51Z" style="fill:none;stroke:#666;stroke-linecap:round;stroke-linejoin:round;stroke-width:1.5px"/><path d="M4.06,6.31a1,1,0,0,1,.25-.06A1,1,0,0,0,4.06,6.31Z" style="fill:#fff"/><path d="M4.38,6.23c.21,0,.42-.05.64-.06C4.8,6.18,4.59,6.2,4.38,6.23Z" style="fill:#fff"/><path d="M5.07,6.17c.23,0,.46,0,.68,0A5.06,5.06,0,0,0,5.07,6.17Z" style="fill:#fff"/><path d="M1.55,8.31l.36-.41Z" style="fill:#fff"/><path d="M1.91,7.9c.12-.14.25-.27.38-.4C2.16,7.63,2,7.76,1.91,7.9Z" style="fill:#fff"/><path d="M2.29,7.5l.39-.37Z" style="fill:#fff"/><path d="M2.69,7.13l.4-.34Z" style="fill:#fff"/><path d="M3.42,6.57l.23-.12Z" style="fill:#fff"/><path d="M3.71,6.43,4,6.32Z" style="fill:#fff"/><path d="M3.09,6.79l.26-.18Z" style="fill:#fff"/><path d="M4,8.84a4.3,4.3,0,0,1,1.81-.69l-.12.21a11.71,11.71,0,0,1,1.52-2A1.54,1.54,0,0,1,7,6.5a8,8,0,0,0-1.24-.28A6.25,6.25,0,0,1,4,8.84Z" style="fill:#fff"/><path d="M3.39,9.24A4.85,4.85,0,0,1,4,8.84a6.34,6.34,0,0,0,1.8-2.63H5a4.49,4.49,0,0,0-.64,0H4.31l-.25,0L4,6.33l-.29.1-.06,0-.23.11-.07,0-.26.18-.4.34h0l-.39.37h0c-.13.13-.26.26-.38.4h0l-.36.41h0A2.73,2.73,0,0,0,3.39,9.24Z" style="fill:#404040"/><path d="M4,8.84a4.85,4.85,0,0,0-.56.4A6.86,6.86,0,0,0,2.2,10.53s-.58,1,2.33.41a.84.84,0,0,1,0-.17.75.75,0,0,1,0-.16c0-.1.07-.21.11-.32l.06-.18c0-.11.08-.21.13-.32L5,9.64l.18-.4.1-.2.12-.24c0-.07.07-.14.11-.2l.14-.24.12-.21A4.3,4.3,0,0,0,4,8.84Z" style="fill:#ffd6bc"/><path d="M27.91,6.79a4.19,4.19,0,0,0-3.78-.33,12.7,12.7,0,0,1,1.28,1.71,5.42,5.42,0,0,1,3.39,2.36s.56,1-2.16.45a12.41,12.41,0,0,1,.28,1.24,12.08,12.08,0,0,0,1.8,0C32.31,11.91,30.06,8.5,27.91,6.79Z" style="fill:#fff"/><path d="M28.8,10.53a5.42,5.42,0,0,0-3.39-2.36A11.58,11.58,0,0,1,26.64,11C29.36,11.51,28.8,10.53,28.8,10.53Z" style="fill:#ffd6bc"/><path d="M23.9,6.22a5.23,5.23,0,0,0,2.36-3C26.9.83,26.25.12,25.68,0s-1.54,3.61-3.94,4.45A11.47,11.47,0,0,1,23.9,6.22Z" style="fill:#fff"/><path d="M4.34,16.55c0-.15-.06-.31-.09-.46C4.28,16.24,4.3,16.4,4.34,16.55Z" style="fill:#fff"/><path d="M4.22,16l-.06-.44Z" style="fill:#fff"/><path d="M4.09,13.59c0-.05,0-.1,0-.15S4.09,13.54,4.09,13.59Z" style="fill:#fff"/><path d="M4.13,13.05c0-.05,0-.1,0-.14S4.13,13,4.13,13.05Z" style="fill:#fff"/><path d="M4.21,12.4s0-.06,0-.09S4.21,12.37,4.21,12.4Z" style="fill:#fff"/><path d="M4.09,14.73c0-.2,0-.4,0-.61C4.08,14.33,4.08,14.53,4.09,14.73Z" style="fill:#fff"/><path d="M4.66,17.73a4.91,4.91,0,0,1-.15-.51C4.55,17.39,4.61,17.56,4.66,17.73Z" style="fill:#fff"/><path d="M4.48,17.14l-.12-.48Z" style="fill:#fff"/><path d="M20.37,3.79a11.45,11.45,0,0,0-9.6-.07c.78,2.92-.89,6.58-1.91,9.18a16.62,16.62,0,0,1-3.75,6,11.09,11.09,0,0,0,1.57,2.52,11.75,11.75,0,0,0,.9,1c-.31-4.51,4.27-4.85,7.82-4.85s8.27.35,7.81,5.05a12.21,12.21,0,0,0,1.11-1.17,11.29,11.29,0,0,0,1.62-2.63,16.9,16.9,0,0,1-3.65-5.85C21.28,10.32,19.63,6.69,20.37,3.79ZM12,15.84a1.81,1.81,0,1,1,1.88-1.75A1.81,1.81,0,0,1,12,15.84Zm5.1-1.75A1.81,1.81,0,1,1,19,15.84,1.81,1.81,0,0,1,17.11,14.09Z" style="fill:#fff"/><path d="M4.87,18.3c-.07-.17-.13-.35-.19-.52C4.74,18,4.8,18.13,4.87,18.3Z" style="fill:#fff"/><path d="M5.11,18.86c-.08-.18-.16-.36-.23-.54C5,18.5,5,18.68,5.11,18.86Z" style="fill:#fff"/><path d="M4.14,15.34l0-.45Z" style="fill:#fff"/><path d="M4.53,10.94c-2.91.61-2.33-.41-2.33-.41A6.86,6.86,0,0,1,3.39,9.24a2.73,2.73,0,0,1-1.84-.92C.18,10-.41,12,2.28,12.21a10.58,10.58,0,0,0,2,0A10.48,10.48,0,0,1,4.53,10.94Z" style="fill:#fff"/><path d="M4.8,10.11l-.06.18Z" style="fill:#fff"/><path d="M4.63,10.61a.75.75,0,0,0,0,.16A.75.75,0,0,1,4.63,10.61Z" style="fill:#fff"/><path d="M5,9.64l-.06.15Z" style="fill:#fff"/><path d="M5.5,8.6c0,.06-.07.13-.11.2S5.46,8.66,5.5,8.6Z" style="fill:#fff"/><path d="M5.27,9l-.1.2Z" style="fill:#fff"/><path d="M10.76,3.73a12.63,12.63,0,0,0-1.4.76C6.89,3.72,5.81-.09,5.32,0S4.1.83,4.74,3.19A5.27,5.27,0,0,0,7.2,6.28,11.33,11.33,0,0,1,10.76,3.73Z" style="fill:#fff"/><path d="M10.77,3.72h0A11.33,11.33,0,0,0,7.2,6.28l0,0A11.71,11.71,0,0,0,5.64,8.36L5.5,8.6c0,.06-.07.13-.11.2L5.27,9l-.1.2L5,9.64l-.06.15c0,.11-.09.21-.13.32l-.06.18c0,.11-.08.22-.11.32a.75.75,0,0,0,0,.16.84.84,0,0,0,0,.17,10.48,10.48,0,0,0-.29,1.26s0,.07,0,.11,0,.06,0,.09,0,.34-.07.51,0,.09,0,.14l0,.39c0,.05,0,.1,0,.15s0,.35,0,.53,0,.41,0,.61,0,.11,0,.16l0,.45a1,1,0,0,1,0,.17l.06.44,0,.14c0,.15,0,.31.09.46s0,.07,0,.11l.12.48,0,.08a4.91,4.91,0,0,0,.15.51l0,.05c.06.17.12.35.19.52v0c.07.18.15.36.23.54h0a16.62,16.62,0,0,0,3.75-6C9.88,10.3,11.55,6.64,10.77,3.72Z" style="fill:#404040"/><path d="M25.41,8.17a12.7,12.7,0,0,0-1.28-1.71l-.23-.24a11.47,11.47,0,0,0-2.16-1.76,12.54,12.54,0,0,0-1.35-.74.64.64,0,0,1,0,.07c-.74,2.9.91,6.53,1.92,9.11a16.9,16.9,0,0,0,3.65,5.85l.11.11a11.36,11.36,0,0,0,1-4.74,11.88,11.88,0,0,0-.16-1.9A12.41,12.41,0,0,0,26.64,11,11.58,11.58,0,0,0,25.41,8.17Z" style="fill:#404040"/><path d="M20.73,14a1.81,1.81,0,0,0-3.62.13A1.81,1.81,0,1,0,20.73,14Zm-1.82-.54a.65.65,0,0,1,.62.67.57.57,0,0,1-.1.31.79.79,0,0,0-.73-.54.61.61,0,0,0-.46.15A.65.65,0,0,1,18.91,13.42Z" style="fill:#404040"/><path d="M19.43,14.4a.57.57,0,0,0,.1-.31A.65.65,0,0,0,18.24,14a.61.61,0,0,1,.46-.15A.79.79,0,0,1,19.43,14.4Z" style="fill:#fff"/><path d="M13.89,14.09A1.81,1.81,0,1,0,12,15.84,1.81,1.81,0,0,0,13.89,14.09Zm-1.8-.67a.65.65,0,0,1,.67.59.61.61,0,0,0-.46-.15.79.79,0,0,0-.73.54.57.57,0,0,1-.1-.31A.65.65,0,0,1,12.09,13.42Z" style="fill:#404040"/><path d="M12.3,13.86a.61.61,0,0,1,.46.15.65.65,0,0,0-1.29.08.57.57,0,0,0,.1.31A.79.79,0,0,1,12.3,13.86Z" style="fill:#fff"/><path d="M8.54,25.25c1.71,2,5.15-.61,6.86-.61a8.07,8.07,0,0,1,2.37.68l.56.2c1.63.57,3.36.94,4.28-.77a5.17,5.17,0,0,0,.52-1.56c0-.22.06-.44.08-.64.46-4.7-4.2-5.05-7.81-5.05s-8.13.34-7.82,4.85c0,.26,0,.54.1.84A4.31,4.31,0,0,0,8.54,25.25Zm11.33-4.74a.86.86,0,1,1-.87.86A.87.87,0,0,1,19.87,20.51Zm-9.37,0a.86.86,0,1,1-.86.86A.86.86,0,0,1,10.5,20.51Z" style="fill:#ffd6bc"/></g></svg>