<svg xmlns="http://www.w3.org/2000/svg" viewBox="0 0 33 34"><title>fruit</title><g id="圖層_1" data-name="圖層 1"><path d="M18.58,14c4.13,3.53,4.09,10.36-.09,15.25s-10.91,6-15,2.46S-.64,21.4,3.54,16.51,14.45,10.51,18.58,14Z" style="fill:#fcc44b;fill-rule:evenodd"/><path d="M16.5,14.29a4.57,4.57,0,0,1,.85-.31,3.84,3.84,0,0,1,.91-.14h.07l.25.2.25.22s0,.06,0,.09h0a4.17,4.17,0,0,1,0,.93,3.38,3.38,0,0,1-.2.86,1.2,1.2,0,0,1-.18.31.92.92,0,0,1-.28.24,3.66,3.66,0,0,1-.85.33,3.93,3.93,0,0,1-.92.13h0A.55.55,0,0,1,16,17a.62.62,0,0,1-.18-.39,5.29,5.29,0,0,1,0-.89,3.24,3.24,0,0,1,.2-.9,1.5,1.5,0,0,1,.19-.32,1,1,0,0,1,.28-.23Zm1,.32a4.06,4.06,0,0,0-.73.28l-.06,0a.53.53,0,0,0-.08.15,2.16,2.16,0,0,0-.16.7,4.24,4.24,0,0,0,0,.71,3.81,3.81,0,0,0,.7-.1,3.44,3.44,0,0,0,.69-.28l.09-.07a.61.61,0,0,0,.07-.14,2.5,2.5,0,0,0,.16-.68,3,3,0,0,0,0-.73A5.07,5.07,0,0,0,17.52,14.61Z" style="fill:#ffae00;fill-rule:evenodd"/><path d="M14.39,16.77a4.24,4.24,0,0,1,.84-.31,3.93,3.93,0,0,1,.91-.14.52.52,0,0,1,.41.14.62.62,0,0,1,.18.37h0a4.27,4.27,0,0,1,0,.94,3.48,3.48,0,0,1-.2.86,1,1,0,0,1-.18.31.92.92,0,0,1-.28.24,3.58,3.58,0,0,1-.84.33,4.09,4.09,0,0,1-.93.13h0a.57.57,0,0,1-.41-.14.62.62,0,0,1-.18-.39,5.29,5.29,0,0,1,0-.89,3.26,3.26,0,0,1,.21-.9A1.14,1.14,0,0,1,14.1,17a1,1,0,0,1,.29-.23Zm1,.32a4.06,4.06,0,0,0-.73.28l-.06.05a.53.53,0,0,0-.08.15,2.45,2.45,0,0,0-.16.7,4.24,4.24,0,0,0,0,.71,3.81,3.81,0,0,0,.7-.1,3.44,3.44,0,0,0,.69-.28l.09-.07a.61.61,0,0,0,.07-.14,2.61,2.61,0,0,0,.17-.68,3.62,3.62,0,0,0,0-.73A5.07,5.07,0,0,0,15.4,17.09Z" style="fill:#ffae00;fill-rule:evenodd"/><path d="M12.27,19.25a4.24,4.24,0,0,1,.84-.31A4,4,0,0,1,14,18.8a.55.55,0,0,1,.42.14h0a.67.67,0,0,1,.17.37,3.73,3.73,0,0,1,0,.94,3.48,3.48,0,0,1-.2.86,1,1,0,0,1-.18.31.92.92,0,0,1-.28.24,3.76,3.76,0,0,1-1.77.46h0a.53.53,0,0,1-.58-.53,4.42,4.42,0,0,1,0-.89,2.8,2.8,0,0,1,.2-.9,1.14,1.14,0,0,1,.18-.32,1.09,1.09,0,0,1,.29-.23Zm1,.32a3.7,3.7,0,0,0-.72.28.1.1,0,0,0-.07,0,.53.53,0,0,0-.08.15,2.45,2.45,0,0,0-.16.7,3.41,3.41,0,0,0,0,.71,3.23,3.23,0,0,0,1.39-.38l.08-.07a.64.64,0,0,0,.08-.14,3.06,3.06,0,0,0,.16-.68,3,3,0,0,0,0-.73A5.07,5.07,0,0,0,13.28,19.57Z" style="fill:#ffae00;fill-rule:evenodd"/><path d="M10.15,21.73a4.24,4.24,0,0,1,.84-.31,4,4,0,0,1,.91-.14.54.54,0,0,1,.42.14.61.61,0,0,1,.17.37h0a4.3,4.3,0,0,1,0,.94,3.49,3.49,0,0,1-.21.86,1,1,0,0,1-.18.31,1,1,0,0,1-.27.24,3.66,3.66,0,0,1-.85.33,4.09,4.09,0,0,1-.93.13h0a.57.57,0,0,1-.41-.14.64.64,0,0,1-.17-.39,4.42,4.42,0,0,1,0-.89h0a2.92,2.92,0,0,1,.2-.9A1.18,1.18,0,0,1,9.87,22a.91.91,0,0,1,.28-.23Zm1,.32a4.44,4.44,0,0,0-.72.27.17.17,0,0,0-.06.06.38.38,0,0,0-.09.15,2.38,2.38,0,0,0-.16.7h0a5.72,5.72,0,0,0,0,.71,3.82,3.82,0,0,0,.69-.11,2.82,2.82,0,0,0,.7-.27.2.2,0,0,0,.08-.08.41.41,0,0,0,.08-.13,3,3,0,0,0,.16-.69,2.94,2.94,0,0,0,0-.72A5.07,5.07,0,0,0,11.16,22.05Z" style="fill:#ffae00;fill-rule:evenodd"/><path d="M8,24.21a4.33,4.33,0,0,1,.85-.31,3.84,3.84,0,0,1,.9-.14.54.54,0,0,1,.42.14.58.58,0,0,1,.17.37h0a3.74,3.74,0,0,1,0,.94,3.48,3.48,0,0,1-.2.86,1.23,1.23,0,0,1-.19.31.88.88,0,0,1-.27.24,3.66,3.66,0,0,1-.85.33,4.09,4.09,0,0,1-.93.13H8a.59.59,0,0,1-.41-.14.64.64,0,0,1-.17-.39,5.29,5.29,0,0,1,0-.89,2.8,2.8,0,0,1,.2-.9,1.5,1.5,0,0,1,.19-.32A.89.89,0,0,1,8,24.21Zm1,.32a4.55,4.55,0,0,0-.73.27.17.17,0,0,0-.06.06.54.54,0,0,0-.09.15,2.14,2.14,0,0,0-.15.7,4.11,4.11,0,0,0,0,.7,3.19,3.19,0,0,0,.7-.1A2.91,2.91,0,0,0,9.42,26,.2.2,0,0,0,9.5,26a.41.41,0,0,0,.08-.13,2.58,2.58,0,0,0,.16-.69,3.5,3.5,0,0,0,0-.72A4.83,4.83,0,0,0,9.05,24.53Z" style="fill:#ffae00;fill-rule:evenodd"/><path d="M5.91,26.69a5.47,5.47,0,0,1,.85-.32,4.44,4.44,0,0,1,.9-.13.5.5,0,0,1,.42.14.58.58,0,0,1,.17.37,3.74,3.74,0,0,1,0,.94,3.48,3.48,0,0,1-.2.86,1.23,1.23,0,0,1-.19.31.88.88,0,0,1-.27.24,4.16,4.16,0,0,1-.85.33,3.93,3.93,0,0,1-.92.13h0a.55.55,0,0,1-.41-.14A.6.6,0,0,1,5.26,29a5.32,5.32,0,0,1,0-.89h0a2.8,2.8,0,0,1,.2-.9,1.5,1.5,0,0,1,.19-.32.77.77,0,0,1,.28-.23Zm1,.32a4.93,4.93,0,0,0-.73.27.17.17,0,0,0-.06.06l-.09.15a2.37,2.37,0,0,0-.15.7h0a4.11,4.11,0,0,0,0,.7,3.11,3.11,0,0,0,.7-.1,2.91,2.91,0,0,0,.69-.27.2.2,0,0,0,.08-.08.29.29,0,0,0,.08-.13,2.67,2.67,0,0,0,.16-.69,2.91,2.91,0,0,0,0-.72A3.71,3.71,0,0,0,6.93,27Z" style="fill:#ffae00;fill-rule:evenodd"/><path d="M3.79,29.17a5.47,5.47,0,0,1,.85-.32,4.44,4.44,0,0,1,.91-.13.48.48,0,0,1,.41.14H6a.65.65,0,0,1,.18.37,4.26,4.26,0,0,1,0,.94A3.48,3.48,0,0,1,6,31a1.2,1.2,0,0,1-.18.31.92.92,0,0,1-.28.24,4,4,0,0,1-.85.33A4.58,4.58,0,0,1,3.8,32l-.35-.29-.31-.28a4.83,4.83,0,0,1,0-.85,3.45,3.45,0,0,1,.2-.9,1.5,1.5,0,0,1,.19-.32.77.77,0,0,1,.28-.23Zm1,.32a4.93,4.93,0,0,0-.73.27.17.17,0,0,0-.06.06.53.53,0,0,0-.08.15,2.1,2.1,0,0,0-.16.7,4.11,4.11,0,0,0,0,.7,3.11,3.11,0,0,0,.7-.1A2.91,2.91,0,0,0,5.18,31a.32.32,0,0,0,.09-.08.4.4,0,0,0,.07-.13,2.67,2.67,0,0,0,.16-.69,2.91,2.91,0,0,0,0-.72A3.86,3.86,0,0,0,4.81,29.49Z" style="fill:#ffae00;fill-rule:evenodd"/><path d="M16.72,16.58a5,5,0,0,1,.84-.32,4.64,4.64,0,0,1,.91-.13.5.5,0,0,1,.42.14h0a.56.56,0,0,1,.17.37,3.73,3.73,0,0,1,0,.94,3.08,3.08,0,0,1-.2.86,1,1,0,0,1-.18.31,1,1,0,0,1-.27.24,4.16,4.16,0,0,1-.85.33,4.09,4.09,0,0,1-.93.13h0a.57.57,0,0,1-.41-.14.59.59,0,0,1-.17-.39,4.42,4.42,0,0,1,0-.89h0a2.8,2.8,0,0,1,.2-.9,1.18,1.18,0,0,1,.19-.32.7.7,0,0,1,.28-.23Zm1,.32a4.44,4.44,0,0,0-.72.27.17.17,0,0,0-.06.06.38.38,0,0,0-.09.15,2.38,2.38,0,0,0-.16.7h0a5.51,5.51,0,0,0,0,.7,3,3,0,0,0,.69-.1,2.82,2.82,0,0,0,.7-.27.3.3,0,0,0,.08-.08.41.41,0,0,0,.08-.13,3.15,3.15,0,0,0,.16-.69,2.93,2.93,0,0,0,0-.72A3.86,3.86,0,0,0,17.73,16.9Z" style="fill:#ffae00;fill-rule:evenodd"/><path d="M14.6,19.06a4.8,4.8,0,0,1,.85-.32,4.44,4.44,0,0,1,.9-.13.5.5,0,0,1,.42.14h0a.56.56,0,0,1,.17.37,3.74,3.74,0,0,1,0,.94,3.48,3.48,0,0,1-.2.86,1.23,1.23,0,0,1-.19.31.74.74,0,0,1-.27.23,3.68,3.68,0,0,1-.85.34,4.09,4.09,0,0,1-.93.13h0a.59.59,0,0,1-.41-.14A.64.64,0,0,1,14,21.4a5.32,5.32,0,0,1,0-.89,2.8,2.8,0,0,1,.2-.9,1.5,1.5,0,0,1,.19-.32.7.7,0,0,1,.28-.23Zm1,.32a4.82,4.82,0,0,0-.72.27.17.17,0,0,0-.06.06.38.38,0,0,0-.09.15,2.09,2.09,0,0,0-.15.7,4.12,4.12,0,0,0,0,.7,3.19,3.19,0,0,0,.7-.1,2.91,2.91,0,0,0,.69-.27.3.3,0,0,0,.08-.08.41.41,0,0,0,.08-.13,2.67,2.67,0,0,0,.16-.69,3.48,3.48,0,0,0,0-.72A3.82,3.82,0,0,0,15.61,19.38Z" style="fill:#ffae00;fill-rule:evenodd"/><path d="M12.48,21.54a5.47,5.47,0,0,1,.85-.32,5.28,5.28,0,0,1,.9-.14.54.54,0,0,1,.42.15h0a.56.56,0,0,1,.17.37,3.74,3.74,0,0,1,0,.94,3.48,3.48,0,0,1-.2.86,1.23,1.23,0,0,1-.19.31.74.74,0,0,1-.27.23,3.68,3.68,0,0,1-.85.34,3.93,3.93,0,0,1-.92.13h0a.56.56,0,0,1-.41-.15.55.55,0,0,1-.18-.38,5.32,5.32,0,0,1,0-.89h0a2.8,2.8,0,0,1,.2-.9,1.5,1.5,0,0,1,.19-.32.77.77,0,0,1,.28-.23Zm1,.32a4.93,4.93,0,0,0-.73.27.17.17,0,0,0-.06.06,1,1,0,0,0-.09.15,2.37,2.37,0,0,0-.15.7h0a4.11,4.11,0,0,0,0,.7,3.11,3.11,0,0,0,.7-.1,2.91,2.91,0,0,0,.69-.27.3.3,0,0,0,.08-.08.35.35,0,0,0,.08-.13,2.67,2.67,0,0,0,.16-.69,3.48,3.48,0,0,0,0-.72A3,3,0,0,0,13.5,21.86Z" style="fill:#ffae00;fill-rule:evenodd"/><path d="M10.36,24a5.47,5.47,0,0,1,.85-.32,5.24,5.24,0,0,1,.91-.14.52.52,0,0,1,.41.15h0a.62.62,0,0,1,.18.37,4.26,4.26,0,0,1,0,.94,3.48,3.48,0,0,1-.2.86,1.2,1.2,0,0,1-.18.31.89.89,0,0,1-.28.23,3.51,3.51,0,0,1-.85.34,3.93,3.93,0,0,1-.92.13h0a.53.53,0,0,1-.41-.14.59.59,0,0,1-.18-.38,5.32,5.32,0,0,1,0-.89h0a3.09,3.09,0,0,1,.2-.9,1.5,1.5,0,0,1,.19-.32.77.77,0,0,1,.28-.23Zm1,.32a4.93,4.93,0,0,0-.73.27.17.17,0,0,0-.06.06.53.53,0,0,0-.08.15,2.38,2.38,0,0,0-.16.7h0a4.12,4.12,0,0,0,0,.7,3.11,3.11,0,0,0,.7-.1,2.91,2.91,0,0,0,.69-.27l.09-.08a.54.54,0,0,0,.07-.13,2.67,2.67,0,0,0,.16-.69,2.9,2.9,0,0,0,0-.72A3.11,3.11,0,0,0,11.38,24.34Z" style="fill:#ffae00;fill-rule:evenodd"/><path d="M8.25,26.5a5,5,0,0,1,.84-.32A4.54,4.54,0,0,1,10,26a.56.56,0,0,1,.42.15.67.67,0,0,1,.17.37,4.26,4.26,0,0,1,0,.94,3.59,3.59,0,0,1-.2.86,1.09,1.09,0,0,1-.18.31.89.89,0,0,1-.28.23,3.61,3.61,0,0,1-.84.34,4.09,4.09,0,0,1-.93.13h0a.53.53,0,0,1-.41-.14.59.59,0,0,1-.18-.38,5.32,5.32,0,0,1,0-.89,3.11,3.11,0,0,1,.21-.9A1,1,0,0,1,8,26.73a.73.73,0,0,1,.29-.23Zm1,.32a4.93,4.93,0,0,0-.73.27l-.06.06a.53.53,0,0,0-.08.15,2.38,2.38,0,0,0-.16.7,4.12,4.12,0,0,0,0,.7,3.11,3.11,0,0,0,.7-.1,2.57,2.57,0,0,0,.69-.28.28.28,0,0,0,.09-.07.54.54,0,0,0,.07-.13,2.68,2.68,0,0,0,.17-.69,3.51,3.51,0,0,0,0-.72A3.11,3.11,0,0,0,9.26,26.82Z" style="fill:#ffae00;fill-rule:evenodd"/><path d="M6.13,29A5,5,0,0,1,7,28.66a4.66,4.66,0,0,1,.91-.14.56.56,0,0,1,.42.15.61.61,0,0,1,.17.37,3.73,3.73,0,0,1,0,.94,3.4,3.4,0,0,1-.2.85,1,1,0,0,1-.18.32.89.89,0,0,1-.28.23,3.44,3.44,0,0,1-.84.34,3.59,3.59,0,0,1-.93.12h0a.53.53,0,0,1-.41-.14.54.54,0,0,1-.17-.38,4.43,4.43,0,0,1,0-.89,2.8,2.8,0,0,1,.2-.9,1,1,0,0,1,.18-.32A.8.8,0,0,1,6.13,29Zm1,.32a4.44,4.44,0,0,0-.72.27.19.19,0,0,0-.07.06.53.53,0,0,0-.08.15,2.38,2.38,0,0,0-.16.7,4.15,4.15,0,0,0,0,.7,3.1,3.1,0,0,0,.69-.1,2.63,2.63,0,0,0,.7-.28s.05,0,.08-.07a.57.57,0,0,0,.08-.13,3.15,3.15,0,0,0,.16-.69,2.92,2.92,0,0,0,0-.72A3.11,3.11,0,0,0,7.14,29.3Z" style="fill:#ffae00;fill-rule:evenodd"/><path d="M4,31.46a4.27,4.27,0,0,1,.84-.32A4.66,4.66,0,0,1,5.76,31a.54.54,0,0,1,.42.15h0a.56.56,0,0,1,.17.37,3.74,3.74,0,0,1,0,.94,3.4,3.4,0,0,1-.2.85,6.62,6.62,0,0,1-.62-.24,2.94,2.94,0,0,0,.16-.68,3.48,3.48,0,0,0,0-.72,3.11,3.11,0,0,0-.69.11,3.93,3.93,0,0,0-.72.27l-.06.06a.42.42,0,0,0-.09.14v0l-.54-.4a1.27,1.27,0,0,1,.13-.19A.7.7,0,0,1,4,31.46Z" style="fill:#ffae00;fill-rule:evenodd"/><path d="M20.53,16.47a3.85,3.85,0,0,1-.76.29,4.09,4.09,0,0,1-.93.13h0a.53.53,0,0,1-.41-.14.54.54,0,0,1-.17-.38,4.43,4.43,0,0,1,0-.89,2.8,2.8,0,0,1,.2-.9,1,1,0,0,1,.18-.32.76.76,0,0,1,.09-.09c.16.14.32.3.48.46a.13.13,0,0,0-.06.05.53.53,0,0,0-.08.15,2.38,2.38,0,0,0-.16.7,4.15,4.15,0,0,0,0,.7,3.1,3.1,0,0,0,.69-.1,3.07,3.07,0,0,0,.6-.22A5.3,5.3,0,0,1,20.53,16.47Z" style="fill:#ffae00;fill-rule:evenodd"/><path d="M14.19,14.41A5,5,0,0,1,15,14.1a3.93,3.93,0,0,1,.91-.14.52.52,0,0,1,.41.14h0a.74.74,0,0,1,.17.38,4.26,4.26,0,0,1,0,.94,3.4,3.4,0,0,1-.2.85,1.14,1.14,0,0,1-.18.32,1,1,0,0,1-.28.23,3.61,3.61,0,0,1-.84.34,4.08,4.08,0,0,1-.93.12h0a.57.57,0,0,1-.41-.14.6.6,0,0,1-.18-.39,5.27,5.27,0,0,1,0-.89h0a3.12,3.12,0,0,1,.21-.89,1.06,1.06,0,0,1,.18-.33,1,1,0,0,1,.29-.23Zm1,.33a3.39,3.39,0,0,0-.73.27l-.06.05a.71.71,0,0,0-.08.15,2.45,2.45,0,0,0-.16.7h0a4.22,4.22,0,0,0,0,.71,3.81,3.81,0,0,0,.7-.1,2.94,2.94,0,0,0,.69-.28.28.28,0,0,0,.09-.07.46.46,0,0,0,.07-.14,2.18,2.18,0,0,0,.16-.68,2.9,2.9,0,0,0,0-.72A3.11,3.11,0,0,0,15.2,14.74Z" style="fill:#ffae00;fill-rule:evenodd"/><path d="M12.07,16.89a5,5,0,0,1,.84-.31,4,4,0,0,1,.91-.14.55.55,0,0,1,.42.14h0a.67.67,0,0,1,.17.38,3.73,3.73,0,0,1,0,.94,3.4,3.4,0,0,1-.2.85,1.14,1.14,0,0,1-.18.32,1,1,0,0,1-.28.23,3.44,3.44,0,0,1-.84.34,4.08,4.08,0,0,1-.93.12h0a.53.53,0,0,1-.58-.53,4.39,4.39,0,0,1,0-.89,3.12,3.12,0,0,1,.21-.89,1.06,1.06,0,0,1,.18-.33,1.09,1.09,0,0,1,.29-.23Zm1,.33a3.13,3.13,0,0,0-.72.27.18.18,0,0,0-.07.05.71.71,0,0,0-.08.15,2.45,2.45,0,0,0-.16.7,3.39,3.39,0,0,0,0,.71,3.82,3.82,0,0,0,.69-.1,2.94,2.94,0,0,0,.69-.28.28.28,0,0,0,.09-.07.37.37,0,0,0,.07-.14,2.51,2.51,0,0,0,.17-.68,2.92,2.92,0,0,0,0-.72A3.11,3.11,0,0,0,13.08,17.22Z" style="fill:#ffae00;fill-rule:evenodd"/><path d="M10,19.37a5,5,0,0,1,.84-.31,4,4,0,0,1,.91-.14.54.54,0,0,1,.42.14h0a.61.61,0,0,1,.17.38,3.73,3.73,0,0,1,0,.94,3,3,0,0,1-.2.85,1.14,1.14,0,0,1-.18.32,1.18,1.18,0,0,1-.27.23,3.68,3.68,0,0,1-.85.34,4.73,4.73,0,0,1-.93.12h0a.53.53,0,0,1-.58-.53,4.42,4.42,0,0,1,0-.89h0a2.92,2.92,0,0,1,.2-.9,1.18,1.18,0,0,1,.19-.32.91.91,0,0,1,.28-.23Zm1,.33a3.13,3.13,0,0,0-.72.27l-.07.05a.71.71,0,0,0-.08.15,2.45,2.45,0,0,0-.16.7h0a5.67,5.67,0,0,0,0,.71,3.82,3.82,0,0,0,.69-.1,3.3,3.3,0,0,0,.7-.28.27.27,0,0,0,.08-.07A.64.64,0,0,0,11.5,21a2.94,2.94,0,0,0,.16-.68,3,3,0,0,0,0-.73A3.87,3.87,0,0,0,11,19.7Z" style="fill:#ffae00;fill-rule:evenodd"/><path d="M7.83,21.85a4.11,4.11,0,0,1,.85-.31,3.84,3.84,0,0,1,.9-.14.54.54,0,0,1,.42.14h0a.61.61,0,0,1,.17.38,3.73,3.73,0,0,1,0,.94,3,3,0,0,1-.21.85,1.14,1.14,0,0,1-.18.32,1.18,1.18,0,0,1-.27.23,3.26,3.26,0,0,1-.85.33,4.09,4.09,0,0,1-.93.13h0a.57.57,0,0,1-.41-.14.61.61,0,0,1-.17-.39,5.27,5.27,0,0,1,0-.89h0a2.92,2.92,0,0,1,.2-.9,1.5,1.5,0,0,1,.19-.32.91.91,0,0,1,.28-.23Zm1,.33a3.31,3.31,0,0,0-.72.27l-.06.05a.46.46,0,0,0-.09.15,2.14,2.14,0,0,0-.15.7h0a4.22,4.22,0,0,0,0,.71,3.94,3.94,0,0,0,.7-.1,3.44,3.44,0,0,0,.69-.28.27.27,0,0,0,.08-.07.64.64,0,0,0,.08-.14,2.5,2.5,0,0,0,.16-.68,3.59,3.59,0,0,0,0-.73A3.82,3.82,0,0,0,8.84,22.18Z" style="fill:#ffae00;fill-rule:evenodd"/><path d="M5.71,24.33A4.57,4.57,0,0,1,6.56,24a3.84,3.84,0,0,1,.9-.14.54.54,0,0,1,.42.14.61.61,0,0,1,.17.37,3.76,3.76,0,0,1,0,.94,3.38,3.38,0,0,1-.2.86,1.5,1.5,0,0,1-.19.32,1,1,0,0,1-.27.23,3.26,3.26,0,0,1-.85.33,3.93,3.93,0,0,1-.92.13h0a.55.55,0,0,1-.41-.14.57.57,0,0,1-.18-.39,5.27,5.27,0,0,1,0-.89,2.92,2.92,0,0,1,.2-.9,1.5,1.5,0,0,1,.19-.32,1,1,0,0,1,.28-.23Zm1,.33a3.39,3.39,0,0,0-.73.27L5.94,25a.75.75,0,0,0-.09.15,2.43,2.43,0,0,0-.15.7,4.22,4.22,0,0,0,0,.71,3.81,3.81,0,0,0,.7-.1,3.44,3.44,0,0,0,.69-.28.27.27,0,0,0,.08-.07A.64.64,0,0,0,7.26,26a2.5,2.5,0,0,0,.16-.68,3.59,3.59,0,0,0,0-.73A3.71,3.71,0,0,0,6.73,24.66Z" style="fill:#ffae00;fill-rule:evenodd"/><path d="M3.59,26.81a4.57,4.57,0,0,1,.85-.31,3.84,3.84,0,0,1,.91-.14.53.53,0,0,1,.41.14.61.61,0,0,1,.17.37,3.76,3.76,0,0,1,0,.94,3.38,3.38,0,0,1-.2.86,1.2,1.2,0,0,1-.18.31.92.92,0,0,1-.28.24,3.66,3.66,0,0,1-.85.33,3.93,3.93,0,0,1-.92.13h0a.55.55,0,0,1-.41-.14.62.62,0,0,1-.18-.39,5.29,5.29,0,0,1,0-.89,3.24,3.24,0,0,1,.2-.9A1.5,1.5,0,0,1,3.31,27a1,1,0,0,1,.28-.23Zm1,.33a3.39,3.39,0,0,0-.73.27l-.06.05a.53.53,0,0,0-.08.15,2.16,2.16,0,0,0-.16.7,4.22,4.22,0,0,0,0,.71,3.81,3.81,0,0,0,.7-.1A3.44,3.44,0,0,0,5,28.64l.09-.07a.61.61,0,0,0,.07-.14,2.5,2.5,0,0,0,.16-.68,3,3,0,0,0,0-.73A3.71,3.71,0,0,0,4.61,27.14Z" style="fill:#ffae00;fill-rule:evenodd"/><path d="M1.48,29.29A4.24,4.24,0,0,1,2.32,29a3.93,3.93,0,0,1,.91-.14.52.52,0,0,1,.41.14h0a.75.75,0,0,1,.17.37,4.27,4.27,0,0,1,0,.94,3.48,3.48,0,0,1-.2.86,1,1,0,0,1-.18.31l-.16.16c-.17-.15-.33-.31-.49-.47l0,0L3,31.05A.61.61,0,0,0,3,30.91a2.61,2.61,0,0,0,.17-.68,3.62,3.62,0,0,0,0-.73,5.07,5.07,0,0,0-.68.11,5.54,5.54,0,0,0-.68.25A5.3,5.3,0,0,1,1.48,29.29Z" style="fill:#ffae00;fill-rule:evenodd"/><path d="M18.43,13.92l-.07.11a1,1,0,0,1-.28.23,3.26,3.26,0,0,1-.85.33,3.93,3.93,0,0,1-.92.13h0a.57.57,0,0,1-.41-.14.62.62,0,0,1-.18-.39,5.27,5.27,0,0,1,0-.89,2.86,2.86,0,0,1,.17-.81c.21.07.41.15.62.24a1.91,1.91,0,0,0-.13.62,4.22,4.22,0,0,0,0,.71,3.81,3.81,0,0,0,.7-.1,3.44,3.44,0,0,0,.69-.28l.09-.07,0-.09C18.08,13.65,18.26,13.78,18.43,13.92Z" style="fill:#ffae00;fill-rule:evenodd"/><path d="M14,12.16l.18-.08a8.94,8.94,0,0,1,1.36.31,3.26,3.26,0,0,0-.53.09,4.44,4.44,0,0,0-.72.27.17.17,0,0,0-.06.06.38.38,0,0,0-.09.15,2.45,2.45,0,0,0-.16.7,5.72,5.72,0,0,0,0,.71,3.11,3.11,0,0,0,.69-.11,2.82,2.82,0,0,0,.7-.27.27.27,0,0,0,.08-.07.64.64,0,0,0,.08-.14,3.06,3.06,0,0,0,.16-.68,2.93,2.93,0,0,0,0-.66c.23.07.46.16.68.25a3.65,3.65,0,0,1,0,.47,3.49,3.49,0,0,1-.21.86,1,1,0,0,1-.18.31,1,1,0,0,1-.27.24,3.66,3.66,0,0,1-.85.33,4.09,4.09,0,0,1-.93.13h0a.57.57,0,0,1-.41-.14.61.61,0,0,1-.17-.39,4.42,4.42,0,0,1,0-.89,2.8,2.8,0,0,1,.2-.9,1.18,1.18,0,0,1,.19-.32A.91.91,0,0,1,14,12.16Z" style="fill:#ffae00;fill-rule:evenodd"/><path d="M11.89,14.64a4.33,4.33,0,0,1,.85-.31,3.84,3.84,0,0,1,.9-.14.54.54,0,0,1,.42.14.61.61,0,0,1,.17.37h0a3.76,3.76,0,0,1,0,.94,3.48,3.48,0,0,1-.2.86,1.23,1.23,0,0,1-.19.31.88.88,0,0,1-.27.24,3.66,3.66,0,0,1-.85.33,4.09,4.09,0,0,1-.93.13h0a.54.54,0,0,1-.4-.14.6.6,0,0,1-.18-.39,5.29,5.29,0,0,1,0-.89,2.8,2.8,0,0,1,.2-.9,1.5,1.5,0,0,1,.19-.32.89.89,0,0,1,.28-.23Zm1,.32a4.55,4.55,0,0,0-.73.27l-.06.06a.54.54,0,0,0-.09.15,2.14,2.14,0,0,0-.15.7,4.24,4.24,0,0,0,0,.71,3.93,3.93,0,0,0,.7-.11,2.91,2.91,0,0,0,.69-.27.2.2,0,0,0,.08-.08.41.41,0,0,0,.08-.13,2.58,2.58,0,0,0,.16-.69,3.5,3.5,0,0,0,0-.72A4.83,4.83,0,0,0,12.91,15Z" style="fill:#ffae00;fill-rule:evenodd"/><path d="M9.77,17.12a4.57,4.57,0,0,1,.85-.31,3.84,3.84,0,0,1,.9-.14.54.54,0,0,1,.42.14h0a.58.58,0,0,1,.17.37,3.74,3.74,0,0,1,0,.94,3.48,3.48,0,0,1-.2.86,1.23,1.23,0,0,1-.19.31.88.88,0,0,1-.27.24A3.91,3.91,0,0,1,9.71,20h0a.55.55,0,0,1-.41-.14.6.6,0,0,1-.18-.39,5.29,5.29,0,0,1,0-.89,2.8,2.8,0,0,1,.2-.9,1.5,1.5,0,0,1,.19-.32.89.89,0,0,1,.28-.23Zm1,.32a4.93,4.93,0,0,0-.73.27.17.17,0,0,0-.06.06,1,1,0,0,0-.09.15,2.37,2.37,0,0,0-.15.7,4.11,4.11,0,0,0,0,.7A3.09,3.09,0,0,0,11.16,19a.2.2,0,0,0,.08-.08.29.29,0,0,0,.08-.13,2.58,2.58,0,0,0,.16-.69,2.91,2.91,0,0,0,0-.72A3.71,3.71,0,0,0,10.79,17.44Z" style="fill:#ffae00;fill-rule:evenodd"/><path d="M7.65,19.6a5.47,5.47,0,0,1,.85-.32,4.44,4.44,0,0,1,.91-.13.48.48,0,0,1,.41.14.65.65,0,0,1,.18.37h0a4.26,4.26,0,0,1,0,.94,3.48,3.48,0,0,1-.2.86,1.2,1.2,0,0,1-.18.31.92.92,0,0,1-.28.24,3.92,3.92,0,0,1-1.77.46h0a.57.57,0,0,1-.41-.14A.65.65,0,0,1,7,21.94a5.29,5.29,0,0,1,0-.89H7a3.09,3.09,0,0,1,.2-.9,1.5,1.5,0,0,1,.19-.32.77.77,0,0,1,.28-.23Zm1,.32a4.93,4.93,0,0,0-.73.27.17.17,0,0,0-.06.06.53.53,0,0,0-.08.15,2.38,2.38,0,0,0-.16.7h0a4.11,4.11,0,0,0,0,.7,3.11,3.11,0,0,0,.7-.1A2.91,2.91,0,0,0,9,21.43a.32.32,0,0,0,.09-.08.4.4,0,0,0,.07-.13,2.67,2.67,0,0,0,.16-.69,2.91,2.91,0,0,0,0-.72A3.86,3.86,0,0,0,8.67,19.92Z" style="fill:#ffae00;fill-rule:evenodd"/><path d="M5.54,22.08a5,5,0,0,1,.84-.32,4.54,4.54,0,0,1,.91-.13.52.52,0,0,1,.42.14.64.64,0,0,1,.17.37h0a4.26,4.26,0,0,1,0,.94,3.48,3.48,0,0,1-.2.86,1,1,0,0,1-.18.31.92.92,0,0,1-.28.24A3.92,3.92,0,0,1,5.47,25h0a.57.57,0,0,1-.41-.14.59.59,0,0,1-.17-.39,4.42,4.42,0,0,1,0-.89,3.11,3.11,0,0,1,.21-.9,1.14,1.14,0,0,1,.18-.32.73.73,0,0,1,.29-.23Zm1,.32a4.44,4.44,0,0,0-.72.27.13.13,0,0,0-.07.06.53.53,0,0,0-.08.15,2.38,2.38,0,0,0-.16.7,3.3,3.3,0,0,0,0,.7,3.1,3.1,0,0,0,.69-.1,2.91,2.91,0,0,0,.69-.27L7,23.83a.4.4,0,0,0,.07-.13A2.68,2.68,0,0,0,7.25,23a3.52,3.52,0,0,0,0-.72A3.86,3.86,0,0,0,6.55,22.4Z" style="fill:#ffae00;fill-rule:evenodd"/><path d="M3.42,24.56a5,5,0,0,1,.84-.32,4.64,4.64,0,0,1,.91-.13.52.52,0,0,1,.42.14.61.61,0,0,1,.17.37,3.73,3.73,0,0,1,0,.94,3.08,3.08,0,0,1-.2.86,1,1,0,0,1-.18.31.77.77,0,0,1-.28.23,3.44,3.44,0,0,1-.84.34,4.09,4.09,0,0,1-.93.13h0a.57.57,0,0,1-.41-.14.59.59,0,0,1-.17-.39,5.33,5.33,0,0,1,0-.89h0a2.8,2.8,0,0,1,.2-.9,1.14,1.14,0,0,1,.18-.32.8.8,0,0,1,.29-.23Zm1,.32a4.44,4.44,0,0,0-.72.27.19.19,0,0,0-.07.06.53.53,0,0,0-.08.15,2.38,2.38,0,0,0-.16.7h0a4.12,4.12,0,0,0,0,.7,3.1,3.1,0,0,0,.69-.1,3,3,0,0,0,.7-.27.6.6,0,0,0,.08-.08A.41.41,0,0,0,5,26.18a3.15,3.15,0,0,0,.16-.69,2.92,2.92,0,0,0,0-.72A3.86,3.86,0,0,0,4.43,24.88Z" style="fill:#ffae00;fill-rule:evenodd"/><path d="M1.3,27a5,5,0,0,1,.84-.32,5.56,5.56,0,0,1,.91-.14.54.54,0,0,1,.42.15h0a.56.56,0,0,1,.17.37,3.74,3.74,0,0,1,0,.94,3.1,3.1,0,0,1-.21.86,1,1,0,0,1-.18.31.83.83,0,0,1-.27.23,3.68,3.68,0,0,1-.85.34,2.17,2.17,0,0,1-.35.07,6.27,6.27,0,0,1-.36-.62A2.34,2.34,0,0,0,2,29.14a2.82,2.82,0,0,0,.7-.27.3.3,0,0,0,.08-.08.41.41,0,0,0,.08-.13A3.15,3.15,0,0,0,3,28a3.48,3.48,0,0,0,0-.72,3.82,3.82,0,0,0-.69.11,4.82,4.82,0,0,0-.72.27.17.17,0,0,0-.06.06.38.38,0,0,0-.09.15,2.38,2.38,0,0,0-.16.7c0,.11,0,.23,0,.35A8.84,8.84,0,0,1,.8,27.65l0-.06A1.18,1.18,0,0,1,1,27.27.7.7,0,0,1,1.3,27Z" style="fill:#ffae00;fill-rule:evenodd"/><path d="M11.69,12.28a5.82,5.82,0,0,1,.79-.3,11.4,11.4,0,0,1,1.44.06.76.76,0,0,1,.11.31,3.73,3.73,0,0,1,0,.94,3.4,3.4,0,0,1-.2.85,1.5,1.5,0,0,1-.19.32,1,1,0,0,1-.27.23,3.68,3.68,0,0,1-.85.34,4.73,4.73,0,0,1-.93.12h0a.57.57,0,0,1-.41-.14.61.61,0,0,1-.17-.39,5.27,5.27,0,0,1,0-.89h0a2.92,2.92,0,0,1,.2-.9,1.5,1.5,0,0,1,.19-.32.91.91,0,0,1,.28-.23Zm1,.33a3.31,3.31,0,0,0-.72.27l-.06,0a.46.46,0,0,0-.09.15,2.14,2.14,0,0,0-.15.7h0a4.22,4.22,0,0,0,0,.71,3.94,3.94,0,0,0,.7-.1,3.44,3.44,0,0,0,.69-.28.27.27,0,0,0,.08-.07.64.64,0,0,0,.08-.14,2.5,2.5,0,0,0,.16-.68,3.59,3.59,0,0,0,0-.73A3.82,3.82,0,0,0,12.7,12.61Z" style="fill:#ffae00;fill-rule:evenodd"/><path d="M9.57,14.76a4.57,4.57,0,0,1,.85-.31,3.84,3.84,0,0,1,.9-.14.54.54,0,0,1,.42.14h0a.61.61,0,0,1,.17.37,3.76,3.76,0,0,1,0,.94,3.38,3.38,0,0,1-.2.86,1.5,1.5,0,0,1-.19.32,1,1,0,0,1-.27.23,3.26,3.26,0,0,1-.85.33,4,4,0,0,1-.92.13h0a.55.55,0,0,1-.41-.14.57.57,0,0,1-.18-.39,5.27,5.27,0,0,1,0-.89,2.92,2.92,0,0,1,.2-.9A1.5,1.5,0,0,1,9.29,15a1,1,0,0,1,.28-.23Zm1,.33a3.39,3.39,0,0,0-.73.27l-.06.05s-.06.1-.09.15a2.43,2.43,0,0,0-.15.7,4.22,4.22,0,0,0,0,.71,3.81,3.81,0,0,0,.7-.1,3.44,3.44,0,0,0,.69-.28.27.27,0,0,0,.08-.07.64.64,0,0,0,.08-.14,2.5,2.5,0,0,0,.16-.68,3.59,3.59,0,0,0,0-.73A3.71,3.71,0,0,0,10.59,15.09Z" style="fill:#ffae00;fill-rule:evenodd"/><path d="M7.45,17.24a4.57,4.57,0,0,1,.85-.31,3.84,3.84,0,0,1,.91-.14.52.52,0,0,1,.41.14h0a.68.68,0,0,1,.18.37,4.27,4.27,0,0,1,0,.94,3.38,3.38,0,0,1-.2.86,1.45,1.45,0,0,1-.18.32,1,1,0,0,1-.28.23,3.13,3.13,0,0,1-.85.33,3.93,3.93,0,0,1-.92.13h0A.55.55,0,0,1,7,20a.62.62,0,0,1-.18-.39,5.29,5.29,0,0,1,0-.89h0a3.64,3.64,0,0,1,.2-.9,1.5,1.5,0,0,1,.19-.32,1,1,0,0,1,.28-.23Zm1,.33a3.39,3.39,0,0,0-.73.27l-.06.05A.71.71,0,0,0,7.6,18a2.16,2.16,0,0,0-.16.7h0a4.22,4.22,0,0,0,0,.71,3.81,3.81,0,0,0,.7-.1,3.44,3.44,0,0,0,.69-.28L8.93,19A.61.61,0,0,0,9,18.86a2.5,2.5,0,0,0,.16-.68,3,3,0,0,0,0-.73A3.87,3.87,0,0,0,8.47,17.57Z" style="fill:#ffae00;fill-rule:evenodd"/><path d="M5.34,19.72a4.24,4.24,0,0,1,.84-.31,3.93,3.93,0,0,1,.91-.14.55.55,0,0,1,.42.14h0a.75.75,0,0,1,.17.37,4.27,4.27,0,0,1,0,.94,3.48,3.48,0,0,1-.2.86,1,1,0,0,1-.18.31.92.92,0,0,1-.28.24,3.58,3.58,0,0,1-.84.33,4.09,4.09,0,0,1-.93.13h0a.57.57,0,0,1-.41-.14.62.62,0,0,1-.18-.39,5.27,5.27,0,0,1,0-.89h0a3.26,3.26,0,0,1,.21-.9A1.14,1.14,0,0,1,5.05,20a1,1,0,0,1,.29-.23Zm1,.32a4.06,4.06,0,0,0-.73.28l-.06.05a.53.53,0,0,0-.08.15,2.38,2.38,0,0,0-.16.7h0a4.24,4.24,0,0,0,0,.71,3.81,3.81,0,0,0,.7-.1,3.44,3.44,0,0,0,.69-.28l.09-.07a.61.61,0,0,0,.07-.14,2.51,2.51,0,0,0,.17-.68,3.62,3.62,0,0,0,0-.73A5.07,5.07,0,0,0,6.35,20Z" style="fill:#ffae00;fill-rule:evenodd"/><path d="M3.22,22.2a4.24,4.24,0,0,1,.84-.31A4,4,0,0,1,5,21.75a.55.55,0,0,1,.42.14.67.67,0,0,1,.17.37,3.73,3.73,0,0,1,0,.94,3.48,3.48,0,0,1-.2.86,1,1,0,0,1-.18.31.92.92,0,0,1-.28.24,3.42,3.42,0,0,1-.84.33,4.09,4.09,0,0,1-.93.13h0a.53.53,0,0,1-.58-.53,4.42,4.42,0,0,1,0-.89,2.92,2.92,0,0,1,.2-.9,1.14,1.14,0,0,1,.18-.32,1.09,1.09,0,0,1,.29-.23Zm1,.32a3.7,3.7,0,0,0-.72.28l-.07.05a.53.53,0,0,0-.08.15,2.45,2.45,0,0,0-.16.7,3.41,3.41,0,0,0,0,.71,3.82,3.82,0,0,0,.69-.1,3.53,3.53,0,0,0,.7-.28L4.69,24a.64.64,0,0,0,.08-.14,3.06,3.06,0,0,0,.16-.68,3,3,0,0,0,0-.73A5.07,5.07,0,0,0,4.23,22.52Z" style="fill:#ffae00;fill-rule:evenodd"/><path d="M1.1,24.68a4.24,4.24,0,0,1,.84-.31,4,4,0,0,1,.91-.14.54.54,0,0,1,.42.14.58.58,0,0,1,.17.37,3.76,3.76,0,0,1,0,.94,3.49,3.49,0,0,1-.21.86,1,1,0,0,1-.18.31,1,1,0,0,1-.27.24,3.66,3.66,0,0,1-.85.33,4.09,4.09,0,0,1-.93.13H1a.76.76,0,0,1-.27-.05,9.28,9.28,0,0,1-.31-1.57,2.88,2.88,0,0,1,.18-.7,1.18,1.18,0,0,1,.19-.32.91.91,0,0,1,.28-.23Zm1,.32a4.44,4.44,0,0,0-.72.27l-.06.06a.38.38,0,0,0-.09.15,2.45,2.45,0,0,0-.16.7,5.72,5.72,0,0,0,0,.71,3.7,3.7,0,0,0,.69-.1,3.3,3.3,0,0,0,.7-.28.27.27,0,0,0,.08-.07.64.64,0,0,0,.08-.14,3.06,3.06,0,0,0,.16-.68,3.59,3.59,0,0,0,0-.73A5,5,0,0,0,2.11,25Z" style="fill:#ffae00;fill-rule:evenodd"/><path d="M.57,26.72H.73a.54.54,0,0,1,.42.14h0a.58.58,0,0,1,.17.37,3.74,3.74,0,0,1,0,.94,3.09,3.09,0,0,1-.12.62A9.17,9.17,0,0,1,.57,26.72Z" style="fill:#ffae00;fill-rule:evenodd"/><path d="M15.24,12.3a4.16,4.16,0,0,1-.5.16,4.09,4.09,0,0,1-.93.13h0a.57.57,0,0,1-.41-.14.61.61,0,0,1-.17-.39V12A9,9,0,0,1,15.24,12.3Z" style="fill:#ffae00;fill-rule:evenodd"/><path d="M13.62,12a1.22,1.22,0,0,1-.12.19.92.92,0,0,1-.28.24,4,4,0,0,1-1.77.46h0a.57.57,0,0,1-.41-.14.65.65,0,0,1-.18-.39,1.49,1.49,0,0,0,0-.21l.66-.1c0,.06,0,.12,0,.17a3.11,3.11,0,0,0,.7-.1l.45-.15Z" style="fill:#ffae00;fill-rule:evenodd"/><path d="M11.36,12.08a.45.45,0,0,1,.21.12.64.64,0,0,1,.17.37h0a4.26,4.26,0,0,1,0,.94,3.48,3.48,0,0,1-.2.86,1,1,0,0,1-.18.31.92.92,0,0,1-.28.24,3.87,3.87,0,0,1-.84.33,4.09,4.09,0,0,1-.93.13h0a.57.57,0,0,1-.41-.14.59.59,0,0,1-.17-.39,4.42,4.42,0,0,1,0-.89,3.11,3.11,0,0,1,.21-.9,1.14,1.14,0,0,1,.18-.32,1.12,1.12,0,0,1,.2-.18,10.69,10.69,0,0,1,2-.48Zm-.95.75a4.44,4.44,0,0,0-.72.27.13.13,0,0,0-.07.06.53.53,0,0,0-.08.15,2.38,2.38,0,0,0-.16.7,3.3,3.3,0,0,0,0,.7,3.1,3.1,0,0,0,.69-.1,2.91,2.91,0,0,0,.69-.27.32.32,0,0,0,.09-.08.4.4,0,0,0,.07-.13,2.68,2.68,0,0,0,.17-.69,3.52,3.52,0,0,0,0-.72A3.86,3.86,0,0,0,10.41,12.83Z" style="fill:#ffae00;fill-rule:evenodd"/><path d="M7.28,15a5,5,0,0,1,.84-.32A4.64,4.64,0,0,1,9,14.54a.52.52,0,0,1,.42.14h0a.64.64,0,0,1,.17.37,3.73,3.73,0,0,1,0,.94,3.08,3.08,0,0,1-.2.86,1,1,0,0,1-.18.31.77.77,0,0,1-.28.23,3.76,3.76,0,0,1-1.77.47h0a.57.57,0,0,1-.41-.14.59.59,0,0,1-.17-.39,4.42,4.42,0,0,1,0-.89,2.8,2.8,0,0,1,.2-.9A1.14,1.14,0,0,1,7,15.22.8.8,0,0,1,7.28,15Zm1,.32a4.44,4.44,0,0,0-.72.27.19.19,0,0,0-.07.06.53.53,0,0,0-.08.15,2.38,2.38,0,0,0-.16.7,4.15,4.15,0,0,0,0,.7,3.09,3.09,0,0,0,1.39-.37.6.6,0,0,0,.08-.08.41.41,0,0,0,.08-.13A3.15,3.15,0,0,0,9,15.92a2.93,2.93,0,0,0,0-.72A3.86,3.86,0,0,0,8.29,15.31Z" style="fill:#ffae00;fill-rule:evenodd"/><path d="M5.16,17.47A5,5,0,0,1,6,17.15,4.64,4.64,0,0,1,6.91,17a.5.5,0,0,1,.42.14.56.56,0,0,1,.17.37h0a3.74,3.74,0,0,1,0,.94,3.1,3.1,0,0,1-.21.86,1,1,0,0,1-.18.31.83.83,0,0,1-.27.23,3.68,3.68,0,0,1-.85.34,4.09,4.09,0,0,1-.93.13h0a.57.57,0,0,1-.41-.14.64.64,0,0,1-.17-.39,4.42,4.42,0,0,1,0-.89h0a2.8,2.8,0,0,1,.2-.9,1.18,1.18,0,0,1,.19-.32.7.7,0,0,1,.28-.23Zm1,.32a4.82,4.82,0,0,0-.72.27.17.17,0,0,0-.06.06.38.38,0,0,0-.09.15,2.09,2.09,0,0,0-.15.7h0a5.56,5.56,0,0,0,0,.7,3,3,0,0,0,.69-.1,2.82,2.82,0,0,0,.7-.27.3.3,0,0,0,.08-.08.41.41,0,0,0,.08-.13,2.67,2.67,0,0,0,.16-.69,3.48,3.48,0,0,0,0-.72A3.82,3.82,0,0,0,6.17,17.79Z" style="fill:#ffae00;fill-rule:evenodd"/><path d="M3,20a5.12,5.12,0,0,1,.85-.32,5.28,5.28,0,0,1,.9-.14.54.54,0,0,1,.42.15.56.56,0,0,1,.17.37h0a3.74,3.74,0,0,1,0,.94,3.48,3.48,0,0,1-.2.86,1.23,1.23,0,0,1-.19.31.74.74,0,0,1-.27.23,3.68,3.68,0,0,1-.85.34,4,4,0,0,1-.93.13H3a.56.56,0,0,1-.58-.53,5.32,5.32,0,0,1,0-.89,2.8,2.8,0,0,1,.2-.9,1.5,1.5,0,0,1,.19-.32A.77.77,0,0,1,3,20Zm1,.32a4.93,4.93,0,0,0-.73.27.17.17,0,0,0-.06.06.54.54,0,0,0-.09.15,2.09,2.09,0,0,0-.15.7,4.12,4.12,0,0,0,0,.7,3.11,3.11,0,0,0,.7-.1,2.91,2.91,0,0,0,.69-.27.3.3,0,0,0,.08-.08.41.41,0,0,0,.08-.13,2.67,2.67,0,0,0,.16-.69,3.48,3.48,0,0,0,0-.72A3,3,0,0,0,4.06,20.27Z" style="fill:#ffae00;fill-rule:evenodd"/><path d="M.92,22.43a5.47,5.47,0,0,1,.85-.32,5.28,5.28,0,0,1,.9-.14.54.54,0,0,1,.42.15.56.56,0,0,1,.17.37,3.74,3.74,0,0,1,0,.94,3.48,3.48,0,0,1-.2.86,1.2,1.2,0,0,1-.18.31.77.77,0,0,1-.28.23,3.68,3.68,0,0,1-.85.34,3.93,3.93,0,0,1-.92.13h0a.52.52,0,0,1-.41-.14.17.17,0,0,1-.06-.06A11.11,11.11,0,0,1,.54,22.8a.71.71,0,0,1,.1-.14.77.77,0,0,1,.28-.23Zm1,.32a4.93,4.93,0,0,0-.73.27l-.06.06a.53.53,0,0,0-.08.15,2.1,2.1,0,0,0-.16.7h0a4.11,4.11,0,0,0,0,.7,3.11,3.11,0,0,0,.7-.1,2.91,2.91,0,0,0,.69-.27l.09-.08a.54.54,0,0,0,.07-.13,2.67,2.67,0,0,0,.16-.69,2.9,2.9,0,0,0,0-.72A3,3,0,0,0,1.94,22.75Z" style="fill:#ffae00;fill-rule:evenodd"/><path d="M.38,24.47l.18,0A.56.56,0,0,1,1,24.6H1a.67.67,0,0,1,.17.37,4.26,4.26,0,0,1,0,.94,3.3,3.3,0,0,1-.2.85,1.26,1.26,0,0,1-.18.32,1.14,1.14,0,0,1-.11.11,9.63,9.63,0,0,1-.21-1.07,1.35,1.35,0,0,0,0-.28,2.9,2.9,0,0,0,0-.72H.39C.38,24.91.38,24.69.38,24.47Z" style="fill:#ffae00;fill-rule:evenodd"/><path d="M11.33,12.08a1,1,0,0,1-.15.24.92.92,0,0,1-.28.24,3.58,3.58,0,0,1-.84.33,4.09,4.09,0,0,1-.93.13h0a.57.57,0,0,1-.41-.14l-.07-.08A11.83,11.83,0,0,1,11.33,12.08Z" style="fill:#ffae00;fill-rule:evenodd"/><path d="M9.38,12.53a.94.94,0,0,1,0,.16,3.73,3.73,0,0,1,0,.94,3.08,3.08,0,0,1-.2.86,1,1,0,0,1-.18.31.92.92,0,0,1-.28.24,3.42,3.42,0,0,1-.84.33A4.09,4.09,0,0,1,7,15.5H7A.53.53,0,0,1,6.43,15a4.42,4.42,0,0,1,0-.89.37.37,0,0,1,0-.11,8.81,8.81,0,0,1,.77-.47,2.61,2.61,0,0,0-.13.63,4.27,4.27,0,0,0,0,.71,3.82,3.82,0,0,0,.69-.1,3.53,3.53,0,0,0,.7-.28l.08-.07a.64.64,0,0,0,.08-.14,3.06,3.06,0,0,0,.16-.68,3,3,0,0,0,0-.73l-.31,0C8.77,12.75,9.07,12.64,9.38,12.53Z" style="fill:#ffae00;fill-rule:evenodd"/><path d="M5,15.11a4.24,4.24,0,0,1,.84-.31,4,4,0,0,1,.91-.14.54.54,0,0,1,.42.14h0a.61.61,0,0,1,.17.37,3.76,3.76,0,0,1,0,.94,3.49,3.49,0,0,1-.21.86,1,1,0,0,1-.18.31,1,1,0,0,1-.27.24,3.66,3.66,0,0,1-.85.33,4.09,4.09,0,0,1-.93.13h0a.57.57,0,0,1-.41-.14.61.61,0,0,1-.17-.39,4.43,4.43,0,0,1,0-.89h0a2.8,2.8,0,0,1,.2-.9,1.18,1.18,0,0,1,.19-.32A.91.91,0,0,1,5,15.11Zm1,.32a4,4,0,0,0-.72.28.13.13,0,0,0-.06,0,.38.38,0,0,0-.09.15,2.45,2.45,0,0,0-.16.7H5a4.22,4.22,0,0,0,0,.71,3.7,3.7,0,0,0,.69-.1,3.3,3.3,0,0,0,.7-.28.27.27,0,0,0,.08-.07.64.64,0,0,0,.08-.14,3.06,3.06,0,0,0,.16-.68,3.59,3.59,0,0,0,0-.73A5,5,0,0,0,6,15.43Z" style="fill:#ffae00;fill-rule:evenodd"/><path d="M2.84,17.59a4.33,4.33,0,0,1,.85-.31,3.84,3.84,0,0,1,.9-.14.54.54,0,0,1,.42.14H5a.58.58,0,0,1,.17.37,3.76,3.76,0,0,1,0,.94,3.48,3.48,0,0,1-.2.86,1.23,1.23,0,0,1-.19.31.88.88,0,0,1-.27.24,3.66,3.66,0,0,1-.85.33,4.09,4.09,0,0,1-.93.13h0a.54.54,0,0,1-.4-.14.57.57,0,0,1-.18-.39,5.29,5.29,0,0,1,0-.89h0a2.92,2.92,0,0,1,.2-.9,1.5,1.5,0,0,1,.19-.32,1,1,0,0,1,.28-.23Zm1,.32a4.93,4.93,0,0,0-.73.27l-.06.06a.54.54,0,0,0-.09.15,2.37,2.37,0,0,0-.15.7h0a4.24,4.24,0,0,0,0,.71,3.1,3.1,0,0,0,.7-.11,2.91,2.91,0,0,0,.69-.27.27.27,0,0,0,.08-.07.64.64,0,0,0,.08-.14,2.59,2.59,0,0,0,.16-.68,3.59,3.59,0,0,0,0-.73A4.83,4.83,0,0,0,3.86,17.91Z" style="fill:#ffae00;fill-rule:evenodd"/><path d="M1.46,19.79a.45.45,0,0,1,.11,0,3.84,3.84,0,0,1,.9-.14.54.54,0,0,1,.42.14.58.58,0,0,1,.17.37,3.74,3.74,0,0,1,0,.94,3.48,3.48,0,0,1-.2.86,1.23,1.23,0,0,1-.19.31.88.88,0,0,1-.27.24,4.16,4.16,0,0,1-.85.33,3.93,3.93,0,0,1-.92.13H.52c0-.31.11-.62.18-.92,0,.08,0,.17,0,.26a3.11,3.11,0,0,0,.7-.1,2.91,2.91,0,0,0,.69-.27.32.32,0,0,0,.09-.08.4.4,0,0,0,.07-.13A2.58,2.58,0,0,0,2.43,21a2.91,2.91,0,0,0,0-.72,4.83,4.83,0,0,0-.68.11,4.57,4.57,0,0,0-.62.22C1.23,20.33,1.34,20.06,1.46,19.79Z" style="fill:#ffae00;fill-rule:evenodd"/><path d="M.67,22.16a.39.39,0,0,1,.1.08.65.65,0,0,1,.18.37,4.26,4.26,0,0,1,0,.94,3.48,3.48,0,0,1-.2.86,1.2,1.2,0,0,1-.18.31.76.76,0,0,1-.21.19A11.29,11.29,0,0,1,.67,22.16Z" style="fill:#ffae00;fill-rule:evenodd"/><path d="M7.17,13.51c0,.12,0,.24,0,.35a3.48,3.48,0,0,1-.2.86,1.2,1.2,0,0,1-.18.31.77.77,0,0,1-.28.23,3.8,3.8,0,0,1-1.77.47h0a.53.53,0,0,1-.36-.09c.2-.2.41-.4.63-.58a3.32,3.32,0,0,0,1.18-.36l.09-.08a.54.54,0,0,0,.07-.13,2.64,2.64,0,0,0,.15-.55A7.92,7.92,0,0,1,7.17,13.51Z" style="fill:#ffae00;fill-rule:evenodd"/><path d="M4.91,15.12a.77.77,0,0,1,.1.28H5a4.26,4.26,0,0,1,0,.94,3.48,3.48,0,0,1-.2.86,1.09,1.09,0,0,1-.18.31.89.89,0,0,1-.28.23,3.61,3.61,0,0,1-.84.34,4.09,4.09,0,0,1-.93.13h0a.59.59,0,0,1-.27,0c.13-.21.27-.42.41-.62a4,4,0,0,0,.62-.1,2.91,2.91,0,0,0,.69-.27l.09-.08A.54.54,0,0,0,4.21,17a2.31,2.31,0,0,0,.16-.69,2.82,2.82,0,0,0,0-.65Z" style="fill:#ffae00;fill-rule:evenodd"/><path d="M2.74,17.53a.66.66,0,0,1,.15.35h0a3.73,3.73,0,0,1,0,.94,3.4,3.4,0,0,1-.2.85,1,1,0,0,1-.18.32.89.89,0,0,1-.28.23,3.44,3.44,0,0,1-.84.34l-.29.06q.13-.37.3-.75a2.34,2.34,0,0,0,.51-.23s.06,0,.09-.07a.33.33,0,0,0,.07-.13,2.68,2.68,0,0,0,.17-.69,2.67,2.67,0,0,0,0-.49C2.42,18,2.57,17.77,2.74,17.53Z" style="fill:#ffae00;fill-rule:evenodd"/><path d="M18.94,16.37a5,5,0,0,1,.84-.32c.15,0,.3-.07.46-.09.12.2.24.41.35.62a4.5,4.5,0,0,0-.64.11,4.44,4.44,0,0,0-.72.27.13.13,0,0,0-.07.06.53.53,0,0,0-.08.15,2.38,2.38,0,0,0-.16.7,3.3,3.3,0,0,0,0,.7,3.1,3.1,0,0,0,.69-.1,2.91,2.91,0,0,0,.69-.27.32.32,0,0,0,.09-.08.4.4,0,0,0,.07-.13,2.59,2.59,0,0,0,.16-1.31A8.8,8.8,0,0,1,21.18,18a2.25,2.25,0,0,1-.08.24,1,1,0,0,1-.18.31.92.92,0,0,1-.28.24,3.92,3.92,0,0,1-1.77.46h0a.57.57,0,0,1-.41-.14.65.65,0,0,1-.18-.39,5.29,5.29,0,0,1,0-.89,3.11,3.11,0,0,1,.21-.9,1.14,1.14,0,0,1,.18-.32A.73.73,0,0,1,18.94,16.37Z" style="fill:#ffae00;fill-rule:evenodd"/><path d="M16.82,18.85a5,5,0,0,1,.84-.32,4.64,4.64,0,0,1,.91-.13.52.52,0,0,1,.42.14.58.58,0,0,1,.17.37h0a3.73,3.73,0,0,1,0,.94,3.08,3.08,0,0,1-.2.86,1,1,0,0,1-.18.31.92.92,0,0,1-.28.24,3.87,3.87,0,0,1-.84.33,4.09,4.09,0,0,1-.93.13h0a.57.57,0,0,1-.41-.14.59.59,0,0,1-.17-.39,4.42,4.42,0,0,1,0-.89,2.8,2.8,0,0,1,.2-.9,1.14,1.14,0,0,1,.18-.32.8.8,0,0,1,.29-.23Zm1,.32a4.44,4.44,0,0,0-.72.27.19.19,0,0,0-.07.06.53.53,0,0,0-.08.15,2.38,2.38,0,0,0-.16.7,4.12,4.12,0,0,0,0,.7,3.1,3.1,0,0,0,.69-.1,3,3,0,0,0,.7-.27.3.3,0,0,0,.08-.08.41.41,0,0,0,.08-.13,3.15,3.15,0,0,0,.16-.69,2.93,2.93,0,0,0,0-.72A3.86,3.86,0,0,0,17.83,19.17Z" style="fill:#ffae00;fill-rule:evenodd"/><path d="M14.7,21.33a5,5,0,0,1,.84-.32,4.64,4.64,0,0,1,.91-.13.5.5,0,0,1,.42.14h0a.58.58,0,0,1,.17.37,3.74,3.74,0,0,1,0,.94,3.49,3.49,0,0,1-.21.86,1,1,0,0,1-.18.31,1,1,0,0,1-.27.24,4,4,0,0,1-1.78.46h0a.57.57,0,0,1-.41-.14.64.64,0,0,1-.17-.39,4.42,4.42,0,0,1,0-.89,2.8,2.8,0,0,1,.2-.9,1.18,1.18,0,0,1,.19-.32.7.7,0,0,1,.28-.23Zm1,.32a4.82,4.82,0,0,0-.72.27.17.17,0,0,0-.06.06.38.38,0,0,0-.09.15,2.38,2.38,0,0,0-.16.7,5.51,5.51,0,0,0,0,.7,3.09,3.09,0,0,0,1.39-.37.3.3,0,0,0,.08-.08.41.41,0,0,0,.08-.13,3.15,3.15,0,0,0,.16-.69,3.49,3.49,0,0,0,0-.72A3.82,3.82,0,0,0,15.71,21.65Z" style="fill:#ffae00;fill-rule:evenodd"/><path d="M12.58,23.81a5.12,5.12,0,0,1,.85-.32,4.44,4.44,0,0,1,.9-.13.5.5,0,0,1,.42.14.58.58,0,0,1,.17.37h0a3.74,3.74,0,0,1,0,.94,3.48,3.48,0,0,1-.2.86,1.23,1.23,0,0,1-.19.31.74.74,0,0,1-.27.23,3.68,3.68,0,0,1-.85.34,4.09,4.09,0,0,1-.93.13h0a.54.54,0,0,1-.4-.14.6.6,0,0,1-.18-.39,5.29,5.29,0,0,1,0-.89h0a2.8,2.8,0,0,1,.2-.9A1.5,1.5,0,0,1,12.3,24a.77.77,0,0,1,.28-.23Zm1,.32a4.93,4.93,0,0,0-.73.27.17.17,0,0,0-.06.06.54.54,0,0,0-.09.15,2.37,2.37,0,0,0-.15.7h0a4.12,4.12,0,0,0,0,.7,3.11,3.11,0,0,0,.7-.1,2.91,2.91,0,0,0,.69-.27.3.3,0,0,0,.08-.08.41.41,0,0,0,.08-.13,2.67,2.67,0,0,0,.16-.69,3.48,3.48,0,0,0,0-.72A3.71,3.71,0,0,0,13.6,24.13Z" style="fill:#ffae00;fill-rule:evenodd"/><path d="M10.46,26.29a5.47,5.47,0,0,1,.85-.32,5.28,5.28,0,0,1,.9-.14.54.54,0,0,1,.42.15.56.56,0,0,1,.17.37h0a3.74,3.74,0,0,1,0,.94,3.48,3.48,0,0,1-.2.86,1.23,1.23,0,0,1-.19.31.74.74,0,0,1-.27.23,3.68,3.68,0,0,1-.85.34,3.93,3.93,0,0,1-.92.13h0A.56.56,0,0,1,10,29a.55.55,0,0,1-.18-.38,5.32,5.32,0,0,1,0-.89,3.09,3.09,0,0,1,.2-.9,1.5,1.5,0,0,1,.19-.32.77.77,0,0,1,.28-.23Zm1,.32a4.93,4.93,0,0,0-.73.27l-.06.06-.09.15a2.37,2.37,0,0,0-.15.7,4.12,4.12,0,0,0,0,.7,3.11,3.11,0,0,0,.7-.1,2.91,2.91,0,0,0,.69-.27l.09-.08a.4.4,0,0,0,.07-.13,2.67,2.67,0,0,0,.16-.69,2.9,2.9,0,0,0,0-.72A3,3,0,0,0,11.48,26.61Z" style="fill:#ffae00;fill-rule:evenodd"/><path d="M8.35,28.77a5,5,0,0,1,.84-.32,5.4,5.4,0,0,1,.91-.14.52.52,0,0,1,.41.15.62.62,0,0,1,.18.37,4.26,4.26,0,0,1,0,.94,3.48,3.48,0,0,1-.2.86,1.2,1.2,0,0,1-.18.31.77.77,0,0,1-.28.23,3.61,3.61,0,0,1-.84.34,4.09,4.09,0,0,1-.93.13h0a.53.53,0,0,1-.41-.14.59.59,0,0,1-.18-.38,5.32,5.32,0,0,1,0-.89h0a3.45,3.45,0,0,1,.2-.9A1.5,1.5,0,0,1,8.06,29a.73.73,0,0,1,.29-.23Zm1,.32a4.93,4.93,0,0,0-.73.27.17.17,0,0,0-.06.06.53.53,0,0,0-.08.15,2.38,2.38,0,0,0-.16.7h0a4.11,4.11,0,0,0,0,.7,3.11,3.11,0,0,0,.7-.1,2.91,2.91,0,0,0,.69-.27l.09-.08a.54.54,0,0,0,.07-.13,2.31,2.31,0,0,0,.16-.69A2.9,2.9,0,0,0,10,29,3.11,3.11,0,0,0,9.36,29.09Z" style="fill:#ffae00;fill-rule:evenodd"/><path d="M6.23,31.25a5,5,0,0,1,.84-.32A4.54,4.54,0,0,1,8,30.79a.56.56,0,0,1,.42.15h0a.67.67,0,0,1,.17.37,3.73,3.73,0,0,1,0,.94,3.48,3.48,0,0,1-.2.86,1.09,1.09,0,0,1-.18.31.89.89,0,0,1-.28.23l-.11.06a9.25,9.25,0,0,1-1.29-.28l.39-.08a2.91,2.91,0,0,0,.69-.27L7.7,33a.33.33,0,0,0,.07-.13,2.68,2.68,0,0,0,.17-.69,2.92,2.92,0,0,0,0-.72,3.11,3.11,0,0,0-.68.11,4.44,4.44,0,0,0-.72.27.13.13,0,0,0-.07.06.53.53,0,0,0-.08.15,2.38,2.38,0,0,0-.16.7,5.42,5.42,0,0,0,0,.57,6.16,6.16,0,0,1-.67-.26c0-.12,0-.24,0-.36a3.11,3.11,0,0,1,.21-.9,1,1,0,0,1,.18-.32A.8.8,0,0,1,6.23,31.25Z" style="fill:#ffae00;fill-rule:evenodd"/><path d="M19.15,18.66a5.12,5.12,0,0,1,.85-.32,4.45,4.45,0,0,1,.9-.14.56.56,0,0,1,.37.11,9.17,9.17,0,0,1,.26,1.18c0,.06,0,.11,0,.17a3.4,3.4,0,0,1-.2.85,1.29,1.29,0,0,1-.19.32,1,1,0,0,1-.27.23,3.68,3.68,0,0,1-.85.34,3.59,3.59,0,0,1-.93.12h0a.51.51,0,0,1-.4-.14A.55.55,0,0,1,18.5,21a5.32,5.32,0,0,1,0-.89h0a2.8,2.8,0,0,1,.2-.9,1.29,1.29,0,0,1,.19-.32.77.77,0,0,1,.28-.23Zm1,.32a4.93,4.93,0,0,0-.73.27l-.06.06a.54.54,0,0,0-.09.15,2.3,2.3,0,0,0-.15.7h0a4.12,4.12,0,0,0,0,.7,3.11,3.11,0,0,0,.7-.1,2.57,2.57,0,0,0,.69-.28.18.18,0,0,0,.08-.07.57.57,0,0,0,.08-.13,2.67,2.67,0,0,0,.16-.69,3.48,3.48,0,0,0,0-.72A3,3,0,0,0,20.17,19Z" style="fill:#ffae00;fill-rule:evenodd"/><path d="M17,21.14a4.62,4.62,0,0,1,.85-.32,4.45,4.45,0,0,1,.9-.14.54.54,0,0,1,.42.15h0a.56.56,0,0,1,.17.37,3.74,3.74,0,0,1,0,.94,3.4,3.4,0,0,1-.2.85,1.29,1.29,0,0,1-.19.32,1,1,0,0,1-.27.23,3.68,3.68,0,0,1-.85.34A3.46,3.46,0,0,1,17,24h0a.52.52,0,0,1-.41-.14.55.55,0,0,1-.18-.39,5.27,5.27,0,0,1,0-.89,2.8,2.8,0,0,1,.2-.89,1.29,1.29,0,0,1,.19-.32.77.77,0,0,1,.28-.23Zm1,.32a4,4,0,0,0-.73.27.17.17,0,0,0-.06.06,1,1,0,0,0-.09.15,2.37,2.37,0,0,0-.15.7,4.12,4.12,0,0,0,0,.7,3.11,3.11,0,0,0,.7-.1,2.57,2.57,0,0,0,.69-.28.28.28,0,0,0,.09-.07.54.54,0,0,0,.07-.13,2.67,2.67,0,0,0,.16-.69,2.9,2.9,0,0,0,0-.72A3,3,0,0,0,18.05,21.46Z" style="fill:#ffae00;fill-rule:evenodd"/><path d="M14.92,23.62a4.27,4.27,0,0,1,.84-.32,4.44,4.44,0,0,1,.91-.14.49.49,0,0,1,.41.15h0a.62.62,0,0,1,.18.37,4.26,4.26,0,0,1,0,.94,3.4,3.4,0,0,1-.2.85,1.26,1.26,0,0,1-.18.32,1,1,0,0,1-.28.23,3.61,3.61,0,0,1-1.77.46h0a.53.53,0,0,1-.41-.14.6.6,0,0,1-.18-.39,5.18,5.18,0,0,1,0-.88h0a3.47,3.47,0,0,1,.2-.89,1.29,1.29,0,0,1,.19-.32.73.73,0,0,1,.29-.23Zm1,.32a4,4,0,0,0-.73.27l-.06.05a1.09,1.09,0,0,0-.08.15,2.45,2.45,0,0,0-.16.7h0a4.22,4.22,0,0,0,0,.71,3.11,3.11,0,0,0,.7-.1,2.57,2.57,0,0,0,.69-.28.28.28,0,0,0,.09-.07.54.54,0,0,0,.07-.13,2.31,2.31,0,0,0,.16-.69,2.9,2.9,0,0,0,0-.72A3.11,3.11,0,0,0,15.93,23.94Z" style="fill:#ffae00;fill-rule:evenodd"/><path d="M12.8,26.1a4.27,4.27,0,0,1,.84-.32,4.54,4.54,0,0,1,.91-.14.52.52,0,0,1,.42.15h0a.61.61,0,0,1,.17.37,3.73,3.73,0,0,1,0,.94A3.4,3.4,0,0,1,15,28a1.14,1.14,0,0,1-.18.32,1,1,0,0,1-.28.23,3.44,3.44,0,0,1-.84.34,4.08,4.08,0,0,1-.93.12h0a.53.53,0,0,1-.41-.14.55.55,0,0,1-.17-.39,4.32,4.32,0,0,1,0-.88h0a3.12,3.12,0,0,1,.21-.89,1,1,0,0,1,.18-.32.73.73,0,0,1,.29-.23Zm1,.32a3.67,3.67,0,0,0-.72.27.18.18,0,0,0-.07,0,1.09,1.09,0,0,0-.08.15,2.45,2.45,0,0,0-.16.7h0a3.32,3.32,0,0,0,0,.7,3.1,3.1,0,0,0,.69-.1,2.94,2.94,0,0,0,.69-.28.28.28,0,0,0,.09-.07.54.54,0,0,0,.07-.13,2.68,2.68,0,0,0,.17-.69,2.92,2.92,0,0,0,0-.72A3.11,3.11,0,0,0,13.81,26.42Z" style="fill:#ffae00;fill-rule:evenodd"/><path d="M10.68,28.58a4.27,4.27,0,0,1,.84-.32,4.66,4.66,0,0,1,.91-.14.55.55,0,0,1,.42.14.67.67,0,0,1,.17.38,3.73,3.73,0,0,1,0,.94,3,3,0,0,1-.2.85,1.14,1.14,0,0,1-.18.32,1,1,0,0,1-.28.23,3.44,3.44,0,0,1-.84.34,4.08,4.08,0,0,1-.93.12h0a.53.53,0,0,1-.41-.14.55.55,0,0,1-.17-.39A4.4,4.4,0,0,1,10,30a2.8,2.8,0,0,1,.2-.89,1.26,1.26,0,0,1,.18-.32.8.8,0,0,1,.29-.23Zm1,.32a3.13,3.13,0,0,0-.72.27l-.07,0a.71.71,0,0,0-.08.15,2.45,2.45,0,0,0-.16.7,4.24,4.24,0,0,0,0,.71,3.1,3.1,0,0,0,.69-.1,3,3,0,0,0,.7-.28s0,0,.08-.07a.57.57,0,0,0,.08-.13,3.15,3.15,0,0,0,.16-.69,2.92,2.92,0,0,0,0-.72A3.11,3.11,0,0,0,11.69,28.9Z" style="fill:#ffae00;fill-rule:evenodd"/><path d="M8.56,31.05a4.78,4.78,0,0,1,.85-.31,3.84,3.84,0,0,1,.9-.14.54.54,0,0,1,.42.14.61.61,0,0,1,.17.38,3.74,3.74,0,0,1,0,.94,3,3,0,0,1-.21.85,1.14,1.14,0,0,1-.18.32,1.18,1.18,0,0,1-.27.23,3.68,3.68,0,0,1-.85.34l-.08,0a9.21,9.21,0,0,1-1.29-.08.56.56,0,0,1-.14-.35,4.4,4.4,0,0,1,0-.89,2.8,2.8,0,0,1,.2-.89,1.09,1.09,0,0,1,.19-.33.91.91,0,0,1,.28-.23Zm1,.33a3.31,3.31,0,0,0-.72.27l-.06.05a.46.46,0,0,0-.09.15,2.45,2.45,0,0,0-.16.7,5.67,5.67,0,0,0,0,.71,3.19,3.19,0,0,0,.7-.1,2.94,2.94,0,0,0,.69-.28.18.18,0,0,0,.08-.07.47.47,0,0,0,.08-.14,2.5,2.5,0,0,0,.16-.68,3.48,3.48,0,0,0,0-.72A3.11,3.11,0,0,0,9.57,31.38Z" style="fill:#ffae00;fill-rule:evenodd"/><path d="M6.62,33.45a5.3,5.3,0,0,1,.67-.23,3.84,3.84,0,0,1,.9-.14.54.54,0,0,1,.42.14h0a.61.61,0,0,1,.17.38l0,.21c-.23,0-.45,0-.67-.06H8.09A9.12,9.12,0,0,1,6.62,33.45Z" style="fill:#ffae00;fill-rule:evenodd"/><path d="M21.43,19h-.16a.53.53,0,0,1-.41-.14.59.59,0,0,1-.17-.39,5.27,5.27,0,0,1,0-.89,3.13,3.13,0,0,1,.1-.6A8.85,8.85,0,0,1,21.43,19Z" style="fill:#ffae00;fill-rule:evenodd"/><path d="M21.65,21.29l-.35,0h0a.53.53,0,0,1-.41-.14.54.54,0,0,1-.17-.38,4.43,4.43,0,0,1,0-.89,2.8,2.8,0,0,1,.2-.9,1.45,1.45,0,0,1,.18-.32,1.21,1.21,0,0,1,.24-.21q.11.41.18.81a2.24,2.24,0,0,0-.15.67,4.15,4.15,0,0,0,0,.7l.27,0C21.65,20.85,21.65,21.07,21.65,21.29Z" style="fill:#ffae00;fill-rule:evenodd"/><path d="M19.25,20.93a4.8,4.8,0,0,1,.85-.32,5.28,5.28,0,0,1,.9-.14.54.54,0,0,1,.42.15.56.56,0,0,1,.17.37h0a3.74,3.74,0,0,1,0,.94,3.1,3.1,0,0,1-.21.86,1.09,1.09,0,0,1-.18.31,1,1,0,0,1-.27.23,3.68,3.68,0,0,1-.85.34,4.09,4.09,0,0,1-.93.13h0a.53.53,0,0,1-.41-.14.59.59,0,0,1-.17-.38,5.32,5.32,0,0,1,0-.89,2.8,2.8,0,0,1,.2-.9,1.5,1.5,0,0,1,.19-.32.7.7,0,0,1,.28-.23Zm1,.32a4.82,4.82,0,0,0-.72.27l-.06.06a.38.38,0,0,0-.09.15,2.38,2.38,0,0,0-.16.7,5.56,5.56,0,0,0,0,.7A3.19,3.19,0,0,0,20,23a2.91,2.91,0,0,0,.69-.27.3.3,0,0,0,.08-.08.57.57,0,0,0,.08-.13,2.67,2.67,0,0,0,.16-.69,3.48,3.48,0,0,0,0-.72A3.11,3.11,0,0,0,20.26,21.25Z" style="fill:#ffae00;fill-rule:evenodd"/><path d="M17.13,23.41a4.36,4.36,0,0,1,.85-.32,4.45,4.45,0,0,1,.9-.14.54.54,0,0,1,.42.15h0a.56.56,0,0,1,.17.37,3.74,3.74,0,0,1,0,.94,3.4,3.4,0,0,1-.2.85,1.29,1.29,0,0,1-.19.32.85.85,0,0,1-.27.23,3.7,3.7,0,0,1-1.77.46h0a.52.52,0,0,1-.41-.14.55.55,0,0,1-.18-.38,5.32,5.32,0,0,1,0-.89,2.8,2.8,0,0,1,.2-.9,1.29,1.29,0,0,1,.19-.32.77.77,0,0,1,.28-.23Zm1,.32a4.93,4.93,0,0,0-.73.27.17.17,0,0,0-.06.06.54.54,0,0,0-.09.15,2.37,2.37,0,0,0-.15.7,4.12,4.12,0,0,0,0,.7,3.1,3.1,0,0,0,1.39-.38.18.18,0,0,0,.08-.07.57.57,0,0,0,.08-.13,2.67,2.67,0,0,0,.16-.69,3.48,3.48,0,0,0,0-.72A3,3,0,0,0,18.15,23.73Z" style="fill:#ffae00;fill-rule:evenodd"/><path d="M15,25.89a4.62,4.62,0,0,1,.85-.32,4.44,4.44,0,0,1,.91-.14.54.54,0,0,1,.41.15.62.62,0,0,1,.18.37h0a3.74,3.74,0,0,1,0,.94,3.4,3.4,0,0,1-.2.85,1.26,1.26,0,0,1-.18.32,1,1,0,0,1-.28.23,3.68,3.68,0,0,1-.85.34,3.46,3.46,0,0,1-.92.12h0a.52.52,0,0,1-.41-.14.55.55,0,0,1-.18-.39,5.18,5.18,0,0,1,0-.88h0a2.8,2.8,0,0,1,.2-.9,1.29,1.29,0,0,1,.19-.32.77.77,0,0,1,.28-.23Zm1,.32a4.93,4.93,0,0,0-.73.27.17.17,0,0,0-.06.06.64.64,0,0,0-.08.14,2.16,2.16,0,0,0-.16.71h0a4.12,4.12,0,0,0,0,.7,3.11,3.11,0,0,0,.7-.1,2.57,2.57,0,0,0,.69-.28.28.28,0,0,0,.09-.07.54.54,0,0,0,.07-.13,2.67,2.67,0,0,0,.16-.69,2.9,2.9,0,0,0,0-.72A3,3,0,0,0,16,26.21Z" style="fill:#ffae00;fill-rule:evenodd"/><path d="M12.9,28.37a4.27,4.27,0,0,1,.84-.32,4.54,4.54,0,0,1,.91-.14.52.52,0,0,1,.41.15.62.62,0,0,1,.18.37h0a4.26,4.26,0,0,1,0,.94,3.4,3.4,0,0,1-.2.85,1.14,1.14,0,0,1-.18.32,1,1,0,0,1-.28.23,3.61,3.61,0,0,1-1.77.46h0a.53.53,0,0,1-.41-.14.6.6,0,0,1-.18-.39,5.27,5.27,0,0,1,0-.89,3.12,3.12,0,0,1,.21-.89,1,1,0,0,1,.18-.32.73.73,0,0,1,.29-.23Zm1,.32a4,4,0,0,0-.73.27l-.06.05a1.09,1.09,0,0,0-.08.15,2.52,2.52,0,0,0-.16.71,4.12,4.12,0,0,0,0,.7,3.11,3.11,0,0,0,.7-.1,2.57,2.57,0,0,0,.69-.28.28.28,0,0,0,.09-.07.54.54,0,0,0,.07-.13,2.31,2.31,0,0,0,.16-.69,2.9,2.9,0,0,0,0-.72A3.11,3.11,0,0,0,13.91,28.69Z" style="fill:#ffae00;fill-rule:evenodd"/><path d="M10.78,30.85a4.27,4.27,0,0,1,.84-.32,4.66,4.66,0,0,1,.91-.14.52.52,0,0,1,.42.15.61.61,0,0,1,.17.37,3.73,3.73,0,0,1,0,.94,3.4,3.4,0,0,1-.2.85,1.14,1.14,0,0,1-.18.32,1,1,0,0,1-.28.23l-.31.16a12.61,12.61,0,0,1-1.46.3h0a.53.53,0,0,1-.41-.14.55.55,0,0,1-.17-.39,4.32,4.32,0,0,1,0-.88h0a3.12,3.12,0,0,1,.21-.89,1,1,0,0,1,.18-.32.8.8,0,0,1,.29-.23Zm1,.32a3.67,3.67,0,0,0-.72.27l-.07,0a1.09,1.09,0,0,0-.08.15,2.45,2.45,0,0,0-.16.7h0a4.24,4.24,0,0,0,0,.71,3.1,3.1,0,0,0,.69-.1,3.2,3.2,0,0,0,.7-.28l.08-.07a.33.33,0,0,0,.07-.13,2.68,2.68,0,0,0,.17-.69,2.92,2.92,0,0,0,0-.72A3.11,3.11,0,0,0,11.79,31.17Z" style="fill:#ffae00;fill-rule:evenodd"/><path d="M8.66,33.33A4.27,4.27,0,0,1,9.5,33a4.66,4.66,0,0,1,.91-.14.51.51,0,0,1,.42.15h0a.56.56,0,0,1,.17.37l0,.27-.65.09,0-.21a3.11,3.11,0,0,0-.68.11,2.84,2.84,0,0,0-.49.17c-.32,0-.63,0-.94,0a.77.77,0,0,1,.14-.21A.7.7,0,0,1,8.66,33.33Z" style="fill:#ffae00;fill-rule:evenodd"/><path d="M21.58,20.73l.06,0a8.86,8.86,0,0,1,0,1.15c0,.12,0,.25-.05.37h0a2.81,2.81,0,0,0,0,.29c0,.36-.11.72-.19,1.07a.5.5,0,0,1-.26-.13.55.55,0,0,1-.18-.39,5.27,5.27,0,0,1,0-.89h0a2.8,2.8,0,0,1,.2-.89A1.35,1.35,0,0,1,21.3,21,1,1,0,0,1,21.58,20.73Z" style="fill:#ffae00;fill-rule:evenodd"/><path d="M19.47,23.21a5,5,0,0,1,.84-.31,3.93,3.93,0,0,1,.91-.14.6.6,0,0,1,.3.06,12.65,12.65,0,0,1-.88,3l-.31.1a4.08,4.08,0,0,1-.93.12h0a.57.57,0,0,1-.41-.14.62.62,0,0,1-.18-.39,5.27,5.27,0,0,1,0-.89,3.12,3.12,0,0,1,.21-.89,1.06,1.06,0,0,1,.18-.33,1,1,0,0,1,.29-.23Zm1,.33a3.39,3.39,0,0,0-.73.27l-.06.05a.71.71,0,0,0-.08.15,2.45,2.45,0,0,0-.16.7,4.22,4.22,0,0,0,0,.71,3.11,3.11,0,0,0,.7-.1,2.94,2.94,0,0,0,.69-.28.28.28,0,0,0,.09-.07.61.61,0,0,0,.07-.14,2.18,2.18,0,0,0,.16-.68,2.9,2.9,0,0,0,0-.72A3.11,3.11,0,0,0,20.48,23.54Z" style="fill:#ffae00;fill-rule:evenodd"/><path d="M17.35,25.69a5,5,0,0,1,.84-.31,4,4,0,0,1,.91-.14.55.55,0,0,1,.42.14h0a.67.67,0,0,1,.17.38,3.73,3.73,0,0,1,0,.94,3.4,3.4,0,0,1-.2.85,1.14,1.14,0,0,1-.18.32,1,1,0,0,1-.28.23,3.44,3.44,0,0,1-.84.34,4.73,4.73,0,0,1-.93.12h0A.53.53,0,0,1,16.7,28a5.3,5.3,0,0,1,0-.89h0a3.12,3.12,0,0,1,.21-.89,1.06,1.06,0,0,1,.18-.33,1.09,1.09,0,0,1,.29-.23Zm1,.33a3.13,3.13,0,0,0-.72.27l-.07.05a.71.71,0,0,0-.08.15,2.45,2.45,0,0,0-.16.7h0a3.39,3.39,0,0,0,0,.71,3.82,3.82,0,0,0,.69-.1,3.44,3.44,0,0,0,.69-.28.31.31,0,0,0,.09-.07.37.37,0,0,0,.07-.14,2.51,2.51,0,0,0,.17-.68,3,3,0,0,0,0-.73A3.87,3.87,0,0,0,18.36,26Z" style="fill:#ffae00;fill-rule:evenodd"/><path d="M15.23,28.17a5,5,0,0,1,.84-.31,4,4,0,0,1,.91-.14.54.54,0,0,1,.42.14h0a.61.61,0,0,1,.17.38,3.73,3.73,0,0,1,0,.94,3,3,0,0,1-.2.85,1.14,1.14,0,0,1-.18.32,1.18,1.18,0,0,1-.27.23,3.68,3.68,0,0,1-.85.34,4.73,4.73,0,0,1-.93.12h0a.53.53,0,0,1-.58-.53,4.4,4.4,0,0,1,0-.89h0a2.92,2.92,0,0,1,.2-.9A1.18,1.18,0,0,1,15,28.4a.91.91,0,0,1,.28-.23Zm1,.33a3.13,3.13,0,0,0-.72.27l-.07.05a.71.71,0,0,0-.08.15,2.45,2.45,0,0,0-.16.7h0a5.67,5.67,0,0,0,0,.71,3.82,3.82,0,0,0,.69-.1,3.3,3.3,0,0,0,.7-.28.27.27,0,0,0,.08-.07.64.64,0,0,0,.08-.14,2.94,2.94,0,0,0,.16-.68,3,3,0,0,0,0-.73A3.87,3.87,0,0,0,16.24,28.5Z" style="fill:#ffae00;fill-rule:evenodd"/><path d="M13.11,30.65a4.11,4.11,0,0,1,.85-.31,3.84,3.84,0,0,1,.9-.14.54.54,0,0,1,.42.14.61.61,0,0,1,.17.38,3.67,3.67,0,0,1,0,.93,2.5,2.5,0,0,1-.05.29,10.53,10.53,0,0,1-1,.59l.1-.05a.27.27,0,0,0,.08-.07.64.64,0,0,0,.08-.14,2.5,2.5,0,0,0,.16-.68,3.59,3.59,0,0,0,0-.73,3.82,3.82,0,0,0-.69.12,3.31,3.31,0,0,0-.72.27l-.06.05a.46.46,0,0,0-.09.15,2.14,2.14,0,0,0-.15.7,4.22,4.22,0,0,0,0,.71,3.94,3.94,0,0,0,.7-.1,3.66,3.66,0,0,0,.58-.22,13,13,0,0,1-1.83.75.56.56,0,0,1-.1-.3,5.27,5.27,0,0,1,0-.89,2.92,2.92,0,0,1,.2-.9,1.5,1.5,0,0,1,.19-.32A.91.91,0,0,1,13.11,30.65Z" style="fill:#ffae00;fill-rule:evenodd"/><path d="M11,33.13a4.57,4.57,0,0,1,.85-.31,3.84,3.84,0,0,1,.9-.14.54.54,0,0,1,.42.14.57.57,0,0,1,.13.21,11.22,11.22,0,0,1-2.79.71l0-.06a1.5,1.5,0,0,1,.19-.32A1,1,0,0,1,11,33.13Z" style="fill:#ffae00;fill-rule:evenodd"/><path d="M21,24.92c0-.16,0-.31,0-.47a2.8,2.8,0,0,1,.2-.89,1.29,1.29,0,0,1,.19-.32l.06-.07A12.55,12.55,0,0,1,21,24.92Z" style="fill:#ffae00;fill-rule:evenodd"/><path d="M19.56,25.48a5.42,5.42,0,0,1,.85-.31,5.17,5.17,0,0,1,.54-.11c-.09.25-.18.49-.28.72l-.09,0a3.39,3.39,0,0,0-.73.27l-.06.05a.71.71,0,0,0-.08.15,2.16,2.16,0,0,0-.16.7,4.22,4.22,0,0,0,0,.71h.11a6.9,6.9,0,0,1-.42.63.39.39,0,0,1-.16-.1.6.6,0,0,1-.18-.39,5.27,5.27,0,0,1,0-.89,3.47,3.47,0,0,1,.2-.89,1.35,1.35,0,0,1,.19-.33A1,1,0,0,1,19.56,25.48Z" style="fill:#ffae00;fill-rule:evenodd"/><path d="M17.45,28a5,5,0,0,1,.84-.31,3.93,3.93,0,0,1,.91-.14.55.55,0,0,1,.42.14l0,.05c-.16.25-.32.49-.49.73l0-.25a3.11,3.11,0,0,0-.68.11,3.39,3.39,0,0,0-.73.27l-.06.05a.71.71,0,0,0-.08.15,2.45,2.45,0,0,0-.16.7h0a4.22,4.22,0,0,0,0,.71l.25,0c-.21.21-.43.41-.65.6L17,30.69a.6.6,0,0,1-.18-.39,5.27,5.27,0,0,1,0-.89h0a3.12,3.12,0,0,1,.21-.89,1.06,1.06,0,0,1,.18-.33A1,1,0,0,1,17.45,28Z" style="fill:#ffae00;fill-rule:evenodd"/><path d="M15.33,30.44a5,5,0,0,1,.84-.31,4,4,0,0,1,.91-.14.55.55,0,0,1,.42.14l.09.12-.56.51a.31.31,0,0,0,0-.1,3.68,3.68,0,0,0-1.4.38l-.07.05a.71.71,0,0,0-.08.15,2.45,2.45,0,0,0-.16.7V32c-.22.14-.44.26-.66.38a2.9,2.9,0,0,1,0-.51,2.8,2.8,0,0,1,.2-.89,1.06,1.06,0,0,1,.18-.33A1.09,1.09,0,0,1,15.33,30.44Z" style="fill:#ffae00;fill-rule:evenodd"/><path d="M13.21,32.92a5,5,0,0,1,.84-.31l.35-.08a12.15,12.15,0,0,1-1.49.64l0,0A.91.91,0,0,1,13.21,32.92Z" style="fill:#ffae00;fill-rule:evenodd"/><path d="M19.62,15.1c3.05,3.72,2.66,9.75-1.13,14.19-4.18,4.89-10.91,6-15,2.46A8.6,8.6,0,0,1,.89,27.93a8.67,8.67,0,0,0,1,1.06c4.13,3.53,10.86,2.42,15-2.47A12,12,0,0,0,19.62,15.1Z" style="fill-rule:evenodd;opacity:0.1"/><path d="M18.8.18c1.63,2.68,2,11.31,0,14C22.71,12.38,23.47,2.94,18.8.18Z" style="fill:#6e8a08;fill-rule:evenodd"/><path d="M32.62,12c-2.9-1.19-11.47-.2-13.83,2.19C20,10,29.17,7.81,32.62,12Z" style="fill:#6e8a08;fill-rule:evenodd"/><path d="M30.22,5.9c-5,1.34-8.31,4.68-11.43,8.28C20.67,9.53,23.89,4.69,30.22,5.9Z" style="fill:#8bac13;fill-rule:evenodd"/><path d="M10.72,9.53c2-.19,7.34,2.74,8.07,4.65C19.49,11.38,14.28,6.9,10.72,9.53Z" style="fill:#6e8a08;fill-rule:evenodd"/><path d="M10.5,14.16c1.7-1.14,6.73-1.31,8.29,0C18.07,11.38,12.37,10.15,10.5,14.16Z" style="fill:#8bac13;fill-rule:evenodd"/><path d="M24.65,21.43c-.13-2-3.85-6.82-5.86-7.25C21.46,13.06,26.7,17.51,24.65,21.43Z" style="fill:#6e8a08;fill-rule:evenodd"/><path d="M20.11,22.37c.86-1.86.25-6.85-1.32-8.19C21.67,14.46,23.78,19.9,20.11,22.37Z" style="fill:#8bac13;fill-rule:evenodd"/><path d="M13.53,4c2.69,1.62,5.77,6.92,5.26,10.23C21.42,10.77,19,4.23,13.53,4Z" style="fill:#8bac13;fill-rule:evenodd"/><path d="M29.72,17.78c-2-2.4-7.73-4.62-10.93-3.6C21.76,11.06,28.6,12.48,29.72,17.78Z" style="fill:#8bac13;fill-rule:evenodd"/><path d="M16.33,20c1.18-.73,2.84-4.44,2.46-5.77C20.3,15.41,19.31,19.93,16.33,20Z" style="fill:#6e8a08;fill-rule:evenodd"/><path d="M13.49,17.51c.53-1.27,3.93-3.49,5.3-3.33C17.35,12.88,13,14.57,13.49,17.51Z" style="fill:#6e8a08;fill-rule:evenodd"/><path d="M13.77,17.91c1.93-.55,4.16-2.77,5.13-3.85C18.52,16.81,16.51,18.44,13.77,17.91Z" style="fill:#8bac13;fill-rule:evenodd"/></g></svg>