<svg xmlns="http://www.w3.org/2000/svg" viewBox="0 0 32 24"><title>fruit</title><g id="圖層_1" data-name="圖層 1"><g id="_群組_" data-name="&lt;群組&gt;"><g id="_群組_2" data-name="&lt;群組&gt;"><path id="_路徑_" data-name="&lt;路徑&gt;" d="M14,6a2.78,2.78,0,0,1-.16-1.69A10.82,10.82,0,0,1,14.89,1,.79.79,0,0,1,15.24.6a.7.7,0,0,1,.38,0L16.7.74a57.2,57.2,0,0,0-.64,7.15" style="fill:#157532"/><g id="_群組_3" data-name="&lt;群組&gt;"><path id="_路徑_2" data-name="&lt;路徑&gt;" d="M14.1,6a10.74,10.74,0,0,1,.35-2.82A5.44,5.44,0,0,1,15,1.65c.43-.62.79-.61,1.57-.5L16.31.63C15.71,2.89,15,5.69,15.66,8a.42.42,0,0,0,.8,0c.8-2.22.57-4.93.66-7.27A.43.43,0,0,0,16.7.32C14.94.08,14.65.28,14,2c-.42,1.17-1,3-.12,4.07A.12.12,0,0,0,14.1,6Z" style="fill:#157532"/></g></g><path id="_路徑_3" data-name="&lt;路徑&gt;" d="M27.38,6.55c-3.3-2.12-7.52-1.85-11.21-1.27A20.61,20.61,0,0,0,9.71,6.44c-3.2,1.08-6.78,3-8.52,6.13a6.76,6.76,0,0,0,2.07,8.58c3,2.32,7.39,2.68,11,2.61,5.65-.11,16.74-1.93,17.31-9.48A8.86,8.86,0,0,0,27.38,6.55Z" style="fill:#ff7400"/><g id="_群組_4" data-name="&lt;群組&gt;"><path id="_路徑_4" data-name="&lt;路徑&gt;" d="M8.49,13.67a18.51,18.51,0,0,1,3-6.21c.82-1.11,1.92-2.2,3.27-2.21,1.58,0,2.79,1.39,3.67,2.74A35.94,35.94,0,0,1,21,12.79" style="fill:#ff7400"/><g id="_群組_5" data-name="&lt;群組&gt;"><path id="_路徑_5" data-name="&lt;路徑&gt;" d="M8.92,13.93c1.5-2,3-7.92,6.19-7.37,2.66.45,3.74,4.89,5.46,6.71a.67.67,0,0,0,1.13-.48c-.37-3.18-3.32-8.67-6.95-8.65S7.76,10.3,8,13.67a.5.5,0,0,0,.93.26Z" style="fill:#ff7400"/></g></g><g id="_群組_6" data-name="&lt;群組&gt;"><path id="_路徑_6" data-name="&lt;路徑&gt;" d="M16,5.54a6.32,6.32,0,0,1,5.67,0c2.26,1.14,3.64,3.52,4.9,5.77" style="fill:#ff7400"/><g id="_群組_7" data-name="&lt;群組&gt;"><path id="_路徑_7" data-name="&lt;路徑&gt;" d="M16,5.9c2.49-.32,4.69-.11,6.52,1.87,1.33,1.45,1.92,3.22,3.56,4.39a1,1,0,0,0,1.46-.86c-.43-5.21-7.45-9.71-11.79-6-.22.19-.05.66.25.62Z" style="fill:#ff7400"/></g></g><g id="_群組_8" data-name="&lt;群組&gt;"><path id="_路徑_8" data-name="&lt;路徑&gt;" d="M5.77,14a12.76,12.76,0,0,1,.86-3.72A5.82,5.82,0,0,1,8.29,7.77c1.4-1.11,3.35-1,5.12-.93" style="fill:#ff7400"/><g id="_群組_9" data-name="&lt;群組&gt;"><path id="_路徑_9" data-name="&lt;路徑&gt;" d="M6,14.2a4.7,4.7,0,0,0,1-2.15,8.55,8.55,0,0,1,1.47-2.9c1.57-1.83,3.64-.56,5.38-1.61a.83.83,0,0,0,0-1.4c-1.72-1.33-5.22-.25-6.63,1.2s-2.87,5-1.67,6.79A.3.3,0,0,0,6,14.2Z" style="fill:#ff7400"/></g></g><g id="_群組_10" data-name="&lt;群組&gt;"><path id="_路徑_10" data-name="&lt;路徑&gt;" d="M6.89,8.05C3.36,12,3,20.32,8.8,22.36c.2.07.33-.25.15-.35-5.3-2.9-4.51-9.31-2-13.92,0,0,0-.07-.05,0Z" style="fill:#c95805"/></g><g id="_群組_11" data-name="&lt;群組&gt;"><path id="_路徑_11" data-name="&lt;路徑&gt;" d="M11.47,6.53c-3.1,5.31-2.8,13,2.54,16.8.2.14.4-.17.25-.34a15,15,0,0,1-4-7.54c-.55-3.2.27-5.92,1.39-8.85,0-.1-.1-.15-.15-.07Z" style="fill:#c95805"/></g><g id="_群組_12" data-name="&lt;群組&gt;"><path id="_路徑_12" data-name="&lt;路徑&gt;" d="M17.48,5.79c2.05,5.1,3.56,12.05.37,17-.08.13.11.29.21.17,3.42-4.4,2.6-12.84-.43-17.27-.05-.07-.19,0-.15.07Z" style="fill:#c95805"/></g><g id="_群組_13" data-name="&lt;群組&gt;"><path id="_路徑_13" data-name="&lt;路徑&gt;" d="M23.34,6.17c1.11,2.66,2.41,4.88,2.34,7.91a15.41,15.41,0,0,1-2.63,7.79.13.13,0,0,0,.2.16C27,18.17,28,9.84,23.54,6a.13.13,0,0,0-.2.15Z" style="fill:#c95805"/></g><g id="_群組_14" data-name="&lt;群組&gt;"><path id="_路徑_14" data-name="&lt;路徑&gt;" d="M2.79,11.36c-2,.83-3.37,4.74-1.28,6.18a.48.48,0,0,0,.7-.3,22.38,22.38,0,0,0,0-2.59,7.87,7.87,0,0,1,1-2.82c.1-.22-.07-.59-.35-.47Z" style="fill:#f9954b"/></g><g id="_群組_15" data-name="&lt;群組&gt;"><path id="_路徑_15" data-name="&lt;路徑&gt;" d="M12.14,7c-1.56,2.43-3.2,7.9-.61,10.19a.53.53,0,0,0,.89-.38c.08-1.52-.4-3-.36-4.56,0-1.73.42-3.45.38-5.17a.16.16,0,0,0-.3-.08Z" style="fill:#f9954b"/></g><g id="_群組_16" data-name="&lt;群組&gt;"><path id="_路徑_16" data-name="&lt;路徑&gt;" d="M22.69,8.05a17.22,17.22,0,0,1,.93,5.37,32.3,32.3,0,0,1-1.18,5.31c-.08.35.37.67.63.37,2.44-2.82,2.1-8.32-.21-11.15-.06-.09-.19,0-.17.1Z" style="fill:#f9954b"/></g><g id="_群組_17" data-name="&lt;群組&gt;"><path id="_路徑_17" data-name="&lt;路徑&gt;" d="M29.55,10.48c-.12,1.2.5,2.35.52,3.57a7.59,7.59,0,0,1-.67,3c-.11.27.25.39.41.25,1.83-1.48,1.51-5.35,0-6.95a.17.17,0,0,0-.28.12Z" style="fill:#f9954b"/></g></g></g></svg>