<svg xmlns="http://www.w3.org/2000/svg" xmlns:xlink="http://www.w3.org/1999/xlink" viewBox="0 0 25 28"><defs><clipPath id="clip-path"><path d="M22.89,11.2a9.66,9.66,0,0,1,1.25,2.26,10.3,10.3,0,0,1-5.89,13.32,21,21,0,0,1-8.67,1.07A9.93,9.93,0,0,1,.45,20.57C-.7,16.15,1.73,12,5.28,9.26c2.31-1.79,7-2.72,10-2.43A10.6,10.6,0,0,1,22.89,11.2Z" style="fill:none"/></clipPath><linearGradient id="linear-gradient" x1="-41.32" y1="18.56" x2="-14.84" y2="18.56" gradientTransform="matrix(-0.99, 0.15, 0.15, 0.99, -18.45, 4.3)" gradientUnits="userSpaceOnUse"><stop offset="0" stop-color="#f03100"/><stop offset="1" stop-color="#ff5c40"/></linearGradient><linearGradient id="linear-gradient-2" x1="-27.85" y1="18.2" x2="-23.43" y2="10.62" gradientTransform="matrix(-0.99, 0.15, 0.15, 0.99, -18.45, 4.3)" gradientUnits="userSpaceOnUse"><stop offset="0" stop-color="#fff" stop-opacity="0"/><stop offset="0.03" stop-color="#fdf9f8" stop-opacity="0.04"/><stop offset="0.29" stop-color="#efc5c4" stop-opacity="0.38"/><stop offset="0.53" stop-color="#e39c9a" stop-opacity="0.65"/><stop offset="0.73" stop-color="#db7f7b" stop-opacity="0.84"/><stop offset="0.89" stop-color="#d66d69" stop-opacity="0.96"/><stop offset="0.99" stop-color="#d46662"/></linearGradient><linearGradient id="linear-gradient-3" x1="-28.73" y1="14.04" x2="-28.39" y2="9.99" xlink:href="#linear-gradient-2"/><linearGradient id="linear-gradient-4" x1="-41.15" y1="22.58" x2="-14.83" y2="22.58" xlink:href="#linear-gradient-2"/><linearGradient id="linear-gradient-5" x1="-26.95" y1="5" x2="-28.94" y2="8.98" gradientTransform="matrix(-0.99, 0.15, 0.15, 0.99, -18.45, 4.3)" gradientUnits="userSpaceOnUse"><stop offset="0" stop-color="#fff" stop-opacity="0"/><stop offset="0.15" stop-color="#d5ebdd" stop-opacity="0.3"/><stop offset="0.31" stop-color="#abd6bb" stop-opacity="0.6"/><stop offset="0.46" stop-color="#8dc7a3" stop-opacity="0.82"/><stop offset="0.57" stop-color="#7abe94" stop-opacity="0.95"/><stop offset="0.64" stop-color="#73bb8e"/></linearGradient></defs><title>fruit</title><g style="isolation:isolate"><g id="圖層_1" data-name="圖層 1"><g style="clip-path:url(#clip-path)"><path d="M-.91,20.5c.86,5.37,3.78,8.19,9.49,8.76a31.37,31.37,0,0,0,5.25-.41A38.71,38.71,0,0,0,18.09,28c4.8-1.66,7.22-4.39,7.37-8.66a13.94,13.94,0,0,0-.19-2.76c-.72-4.51-3.16-8.15-7.63-9.49-2-.59-4.9.86-7.1,1.2C7.83,8.66,4.68,8.38,2.8,10A11.07,11.07,0,0,0-1,18.61h0A10.89,10.89,0,0,0-.91,20.5Z" style="fill:url(#linear-gradient)"/><path d="M-.91,20.5c.86,5.37,3.78,8.19,9.49,8.76a31.37,31.37,0,0,0,5.25-.41A38.71,38.71,0,0,0,18.09,28c4.8-1.66,7.22-4.39,7.37-8.66a13.94,13.94,0,0,0-.19-2.76c-.72-4.51-3.16-8.15-7.63-9.49a4.9,4.9,0,0,0-1-.19C15,6.72,12.37,8,10.54,8.25,7.83,8.66,4.68,8.38,2.8,10A12.84,12.84,0,0,0,.58,12.35,10.63,10.63,0,0,0-1,18.61h0A10.89,10.89,0,0,0-.91,20.5Z" style="mix-blend-mode:multiply;fill:url(#linear-gradient-2)"/><path d="M3.8,10.24l1.06.23a3.56,3.56,0,0,0,2.73-.33,7.4,7.4,0,0,1,0,1.56,10.2,10.2,0,0,0,3-.89.86.86,0,0,1,.51-.12.6.6,0,0,1,.32.2L12.49,12a18.18,18.18,0,0,0,2-2.36,8.54,8.54,0,0,0,3.15.34L16.28,8.49a2.39,2.39,0,0,0,1.79-.77A10,10,0,0,1,15,6.4,20.32,20.32,0,0,0,11,7C9,7.31,7,7.45,5.53,8.56A9.86,9.86,0,0,0,3.8,10.24Z" style="mix-blend-mode:multiply;fill:url(#linear-gradient-3)"/><path d="M-.81,21.13c1.24,5.36,3.93,7.52,9.65,8.09a30.42,30.42,0,0,0,5.25-.41,41.53,41.53,0,0,0,4.25-.88c4.8-1.66,7-4.78,7.13-9A24.84,24.84,0,0,1,23,21.5a9.64,9.64,0,0,1-2.26,1.36c-3.17,1.21-6.6-.24-9.81,1C6.2,25.69,0,22.77-1.1,17.72A24.39,24.39,0,0,0-.81,21.13Z" style="mix-blend-mode:multiply;fill:url(#linear-gradient-4)"/></g><path d="M8.21,8.13a9.77,9.77,0,0,1-.73,3.74,5.69,5.69,0,0,0,2.91-3.34A16.52,16.52,0,0,1,12,11.78,8.41,8.41,0,0,0,12.91,8,14.41,14.41,0,0,0,17,9.58L14,7.45c.68.49,3.74.25,4.61.13a21.79,21.79,0,0,1-3.74-1.5,4.94,4.94,0,0,0-2.8-.36l-.52.08a5.4,5.4,0,0,0,0-.66,7.87,7.87,0,0,0-.63-2.29C10.34,1.76,9.51.11,9.51.11S8.84,0,7.87,1C7.87,1,9,2.71,9.75,3.9a5,5,0,0,1,.64,1.65c0,.15.06.29.07.4a7.07,7.07,0,0,0-3,.94A10.44,10.44,0,0,0,6,8.23c-.68.69-1.3,1.45-1.9,2.12A6,6,0,0,0,8.21,8.13Z" style="fill:#64c318"/><path d="M9.37,6.91a5.75,5.75,0,0,1,.2,1.94l.89-1.65c-.05.79,1.56.93,1.63,1.72a5.93,5.93,0,0,1,.47-2.44A4.46,4.46,0,0,1,13.92,7a1.81,1.81,0,0,0-.41-.86c.44,0,.89-.06,1.34-.06a4.94,4.94,0,0,0-2.8-.36l-.52.08a5.4,5.4,0,0,0,0-.66,8,8,0,0,1-1.1.41c0,.15.06.29.07.4a7.07,7.07,0,0,0-3,.94A10.44,10.44,0,0,0,6,8.23a5,5,0,0,0,1.3-.39A20.47,20.47,0,0,1,9.37,6.91Z" style="mix-blend-mode:multiply;fill:url(#linear-gradient-5)"/></g></g></svg>