<svg xmlns="http://www.w3.org/2000/svg" viewBox="0 0 23 32"><title>fruit</title><g id="圖層_1" data-name="圖層 1"><path d="M11.76,9.81a.67.67,0,0,1-1.19-.63C12,6.5,11.6,4,9.38,1.5,8.84.8,10.65-.43,11.2.27A8.48,8.48,0,0,1,11.76,9.81Z" style="fill:#914d0e;fill-rule:evenodd"/><path d="M16.61,6.28c-4.92-.13-7.6,6.61-5,8.19S19,10.61,16.61,6.28Z" style="fill:#8bac13;fill-rule:evenodd"/><path d="M16.61,6.28c-4.92-.13-7.6,6.61-5,8.19A21,21,0,0,0,16.61,6.28Z" style="fill:#6e8a08;fill-rule:evenodd"/><path d="M20,9.89c-4.19-2.57-9.88,1.93-8.45,4.58S19.9,14.82,20,9.89Z" style="fill:#8bac13;fill-rule:evenodd"/><path d="M20,9.89c-4.19-2.57-9.88,1.93-8.45,4.58A21.24,21.24,0,0,0,20,9.89Z" style="fill:#6e8a08;fill-rule:evenodd"/><path d="M7,6c-2.58,4.2,1.92,9.88,4.57,8.45S11.93,6.16,7,6Z" style="fill:#8bac13;fill-rule:evenodd"/><path d="M7,6c-2.58,4.2,1.92,9.88,4.57,8.45A21.09,21.09,0,0,0,7,6Z" style="fill:#6e8a08;fill-rule:evenodd"/><path d="M3.4,9.44c-.13,4.92,6.61,7.6,8.18,5S7.73,7.1,3.4,9.44Z" style="fill:#8bac13;fill-rule:evenodd"/><path d="M3.4,9.44c-.13,4.92,6.61,7.6,8.18,5A21,21,0,0,0,3.4,9.44Z" style="fill:#6e8a08;fill-rule:evenodd"/><path d="M11.85,4.86c-4.33,2.35-3.28,9.53-.27,9.61S16,7.44,11.85,4.86Z" style="fill:#8bac13;fill-rule:evenodd"/><path d="M11.85,4.86c-4.33,2.35-3.28,9.53-.27,9.61A21.09,21.09,0,0,0,11.85,4.86Z" style="fill:#6e8a08;fill-rule:evenodd"/><path d="M11.7,10.26c3.82.11,9.29.62,10.76,5.44,2,6.49-7.22,16.35-11.35,16.24S-1.69,21.72.65,15.1C2.33,10.36,7.88,10.16,11.7,10.26Z" style="fill:#c34650;fill-rule:evenodd"/><path d="M11.7,10.26c2.89.08,6.73.39,9.06,2.63a7.52,7.52,0,0,1,.37.95c2,6.5-7.23,16.35-11.36,16.24C7.93,30,5.17,28,2.9,25.14c-2.07-3.21-3.32-7-2.25-10C2.33,10.36,7.88,10.16,11.7,10.26Z" style="fill:#e6535f;fill-rule:evenodd"/><path d="M9.41,13.84c.31,0,.55.59.53,1.29s-.29,1.28-.6,1.27-.54-.59-.52-1.3S9.1,13.83,9.41,13.84Z" style="fill:#c34650;fill-rule:evenodd"/><path d="M12.5,13.92c.31,0,.54.59.53,1.3s-.29,1.27-.6,1.27-.54-.59-.52-1.3S12.19,13.91,12.5,13.92Z" style="fill:#c34650;fill-rule:evenodd"/><path d="M15.59,14c.31,0,.54.59.52,1.3s-.28,1.28-.59,1.27S15,16,15,15.27,15.28,14,15.59,14Z" style="fill:#c34650;fill-rule:evenodd"/><path d="M7.78,17c.31,0,.55.59.53,1.3s-.29,1.27-.6,1.26-.54-.59-.52-1.29S7.47,17,7.78,17Z" style="fill:#c34650;fill-rule:evenodd"/><path d="M10.87,17.09c.31,0,.54.59.52,1.3s-.28,1.28-.59,1.27-.54-.59-.52-1.3S10.56,17.08,10.87,17.09Z" style="fill:#c34650;fill-rule:evenodd"/><path d="M14,17.18c.31,0,.54.59.52,1.29s-.28,1.28-.59,1.27-.55-.59-.53-1.3S13.65,17.17,14,17.18Z" style="fill:#c34650;fill-rule:evenodd"/><path d="M17.05,17.26c.3,0,.54.59.52,1.3s-.29,1.27-.59,1.27-.55-.59-.53-1.3S16.74,17.25,17.05,17.26Z" style="fill:#c34650;fill-rule:evenodd"/><path d="M6.14,20.41c.31,0,.55.59.53,1.3S6.38,23,6.07,23s-.54-.59-.52-1.3S5.83,20.41,6.14,20.41Z" style="fill:#c34650;fill-rule:evenodd"/><path d="M9.23,20.5c.31,0,.55.59.53,1.3s-.29,1.27-.6,1.26-.54-.58-.52-1.29S8.92,20.49,9.23,20.5Z" style="fill:#c34650;fill-rule:evenodd"/><path d="M12.32,20.58c.31,0,.54.59.52,1.3s-.28,1.28-.59,1.27-.54-.59-.52-1.3S12,20.58,12.32,20.58Z" style="fill:#c34650;fill-rule:evenodd"/><path d="M15.41,20.67c.31,0,.54.59.52,1.3s-.28,1.27-.59,1.26-.55-.59-.53-1.3S15.1,20.66,15.41,20.67Z" style="fill:#c34650;fill-rule:evenodd"/><path d="M7.6,23.67c.31,0,.54.59.52,1.3s-.28,1.28-.59,1.27S7,25.65,7,24.94,7.29,23.66,7.6,23.67Z" style="fill:#c34650;fill-rule:evenodd"/><path d="M10.69,23.76c.31,0,.54.59.52,1.29s-.28,1.28-.59,1.27-.55-.59-.53-1.3S10.38,23.75,10.69,23.76Z" style="fill:#c34650;fill-rule:evenodd"/><path d="M13.78,23.84c.3,0,.54.59.52,1.3s-.29,1.27-.59,1.27-.55-.59-.53-1.3S13.47,23.83,13.78,23.84Z" style="fill:#c34650;fill-rule:evenodd"/><path d="M3.66,16.34a1,1,0,1,1-2-.46,4.23,4.23,0,0,1,1.18-2.1,4.28,4.28,0,0,1,2.13-1.13,1.05,1.05,0,0,1,1.23.82,1,1,0,0,1-.82,1.23,2.19,2.19,0,0,0-1.08.58A2.05,2.05,0,0,0,3.66,16.34Z" style="fill:#f0787c;fill-rule:evenodd"/></g></svg>