<svg xmlns="http://www.w3.org/2000/svg" xmlns:xlink="http://www.w3.org/1999/xlink" viewBox="0 0 34 19"><defs><clipPath id="clip-path"><path id="_剪裁路徑_" data-name="&lt;剪裁路徑&gt;" d="M.19.28,33.81,7.47S29.2,20.93,14.87,18.4C-.24,15.74.19.28.19.28Z" style="fill:none"/></clipPath></defs><title>fruit</title><g id="圖層_1" data-name="圖層 1"><g id="_群組_" data-name="&lt;群組&gt;"><g id="_剪裁群組_" data-name="&lt;剪裁群組&gt;"><g style="clip-path:url(#clip-path)"><path id="_路徑_" data-name="&lt;路徑&gt;" d="M.19.28,33.81,7.47S29.2,20.93,14.87,18.4C-.24,15.74.19.28.19.28Z" style="fill:#157532"/><path id="_路徑_2" data-name="&lt;路徑&gt;" d="M1.08-3.09,34.7,4.1S30.08,17.56,15.76,15C.65,12.37,1.08-3.09,1.08-3.09Z" style="fill:#ff4c00"/></g></g><g id="_群組_2" data-name="&lt;群組&gt;"><path id="_路徑_3" data-name="&lt;路徑&gt;" d="M7.17,4.82l0-.14" style="fill:#a03712"/><g id="_群組_3" data-name="&lt;群組&gt;"><path id="_路徑_4" data-name="&lt;路徑&gt;" d="M7.74,4.91l0-.07a.58.58,0,0,0-1.12-.32v.07a.58.58,0,0,0,1.11.32Z" style="fill:#a03712"/></g></g><g id="_群組_4" data-name="&lt;群組&gt;"><path id="_路徑_5" data-name="&lt;路徑&gt;" d="M13.85,5.82l0,.13" style="fill:#a03712"/><g id="_群組_5" data-name="&lt;群組&gt;"><path id="_路徑_6" data-name="&lt;路徑&gt;" d="M13.82,6.94a1,1,0,0,0,.95-1,1,1,0,1,0-.95,1Z" style="fill:#a03712"/></g></g><g id="_群組_6" data-name="&lt;群組&gt;"><g id="_群組_7" data-name="&lt;群組&gt;"><path id="_路徑_7" data-name="&lt;路徑&gt;" d="M21.1,8.53a.69.69,0,0,0,0-1.37.69.69,0,0,0,0,1.37Z" style="fill:#a03712"/></g></g><g id="_群組_8" data-name="&lt;群組&gt;"><path id="_路徑_8" data-name="&lt;路徑&gt;" d="M27.88,9l.13,0" style="fill:#a03712"/><g id="_群組_9" data-name="&lt;群組&gt;"><path id="_路徑_9" data-name="&lt;路徑&gt;" d="M27.88,9.8A.78.78,0,1,0,27.13,9a.78.78,0,0,0,.75.78Z" style="fill:#a03712"/></g></g><g id="_群組_10" data-name="&lt;群組&gt;"><path id="_路徑_10" data-name="&lt;路徑&gt;" d="M24.66,10.69l.1.17" style="fill:#a03712"/><g id="_群組_11" data-name="&lt;群組&gt;"><path id="_路徑_11" data-name="&lt;路徑&gt;" d="M24.71,11.47a.69.69,0,1,0-.67-.69.69.69,0,0,0,.67.69Z" style="fill:#a03712"/></g></g><g id="_群組_12" data-name="&lt;群組&gt;"><g id="_群組_13" data-name="&lt;群組&gt;"><path id="_路徑_12" data-name="&lt;路徑&gt;" d="M17.19,10.87a.83.83,0,0,0,0-1.65.83.83,0,0,0,0,1.65Z" style="fill:#a03712"/></g></g><g id="_群組_14" data-name="&lt;群組&gt;"><path id="_路徑_13" data-name="&lt;路徑&gt;" d="M10.07,8.06l.13,0" style="fill:#a03712"/><g id="_群組_15" data-name="&lt;群組&gt;"><path id="_路徑_14" data-name="&lt;路徑&gt;" d="M10.13,8.78a.71.71,0,1,0-.69-.71.71.71,0,0,0,.69.71Z" style="fill:#a03712"/></g></g><g id="_群組_16" data-name="&lt;群組&gt;"><path id="_路徑_15" data-name="&lt;路徑&gt;" d="M1.29,3.47c.69,6.75,5.18,12.5,11.8,14a.29.29,0,0,0,.15-.56,19.44,19.44,0,0,1-7.82-5.09c-2.16-2.46-3.07-5.22-4-8.31,0,0-.09,0-.08,0Z" style="fill:#268c40"/></g></g></g></svg>