<svg xmlns="http://www.w3.org/2000/svg" xmlns:xlink="http://www.w3.org/1999/xlink" viewBox="0 0 19 34"><defs><linearGradient id="linear-gradient" x1="257.43" y1="-38.2" x2="261.67" y2="-38.2" gradientTransform="translate(-250.33 -27.19) rotate(15.52)" gradientUnits="userSpaceOnUse"><stop offset="0" stop-color="#fff" stop-opacity="0"/><stop offset="0.03" stop-color="#fdf9f8" stop-opacity="0.04"/><stop offset="0.29" stop-color="#efc5c4" stop-opacity="0.38"/><stop offset="0.53" stop-color="#e39c9a" stop-opacity="0.65"/><stop offset="0.73" stop-color="#db7f7b" stop-opacity="0.84"/><stop offset="0.89" stop-color="#d66d69" stop-opacity="0.96"/><stop offset="0.99" stop-color="#d46662"/></linearGradient><linearGradient id="未命名漸層_36" x1="259.3" y1="-32.06" x2="267.15" y2="-12.17" gradientTransform="translate(-250.33 -27.19) rotate(15.52)" gradientUnits="userSpaceOnUse"><stop offset="0" stop-color="#fcee21" stop-opacity="0.5"/><stop offset="0.24" stop-color="#eed71e" stop-opacity="0.67"/><stop offset="0.55" stop-color="#e0be1b" stop-opacity="0.85"/><stop offset="0.81" stop-color="#d7af1a" stop-opacity="0.96"/><stop offset="1" stop-color="#d4aa19"/></linearGradient><linearGradient id="linear-gradient-2" x1="265.22" y1="-42.39" x2="263" y2="-37.21" gradientTransform="translate(-250.33 -27.19) rotate(15.52)" gradientUnits="userSpaceOnUse"><stop offset="0" stop-color="#fff" stop-opacity="0"/><stop offset="0.15" stop-color="#d5ebdd" stop-opacity="0.3"/><stop offset="0.31" stop-color="#abd6bb" stop-opacity="0.6"/><stop offset="0.46" stop-color="#8dc7a3" stop-opacity="0.82"/><stop offset="0.57" stop-color="#7abe94" stop-opacity="0.95"/><stop offset="0.64" stop-color="#73bb8e"/></linearGradient><linearGradient id="linear-gradient-3" x1="260.76" y1="-38.87" x2="266.98" y2="-38.87" xlink:href="#linear-gradient-2"/><linearGradient id="linear-gradient-4" x1="255.89" y1="-29.35" x2="269.24" y2="-40.42" gradientTransform="translate(-250.33 -27.19) rotate(15.52)" gradientUnits="userSpaceOnUse"><stop offset="0" stop-color="#fff" stop-opacity="0"/><stop offset="0.03" stop-color="#fdfbf5" stop-opacity="0.04"/><stop offset="0.3" stop-color="#efdfa8" stop-opacity="0.38"/><stop offset="0.54" stop-color="#e3c86a" stop-opacity="0.65"/><stop offset="0.74" stop-color="#dbb83e" stop-opacity="0.84"/><stop offset="0.9" stop-color="#d6ae23" stop-opacity="0.96"/><stop offset="1" stop-color="#d4aa19"/></linearGradient><linearGradient id="linear-gradient-5" x1="260.19" y1="-23.58" x2="273.97" y2="-10.14" xlink:href="#linear-gradient-4"/></defs><title>fruit</title><g style="isolation:isolate"><g id="圖層_1" data-name="圖層 1"><path d="M9.84,2.62A3.18,3.18,0,0,0,9,1c.3-.2.52-.55.87-.62a.87.87,0,0,1,.89.48,2.62,2.62,0,0,1,.26,1c.13,1.32.25,2.63.38,4a10.13,10.13,0,0,1,.07,1.09,7.25,7.25,0,0,1-1.08,3.82,13,13,0,0,1,0-3.23A20.74,20.74,0,0,0,9.84,2.62Z" style="fill:#642e18;mix-blend-mode:multiply"/><path d="M9.84,2.62A3.18,3.18,0,0,0,9,1c.3-.2.52-.55.87-.62a.87.87,0,0,1,.89.48,2.62,2.62,0,0,1,.26,1c.13,1.32.25,2.63.38,4a10.13,10.13,0,0,1,.07,1.09,7.25,7.25,0,0,1-1.08,3.82,13,13,0,0,1,0-3.23A20.74,20.74,0,0,0,9.84,2.62Z" style="mix-blend-mode:multiply;fill:url(#linear-gradient)"/><path d="M3.84,16.71c-.67,1.38-1.75,2.53-2.47,3.89A9,9,0,0,0,2.27,30a9.71,9.71,0,0,0,8.87,3.54,8.84,8.84,0,0,0,7.24-6.89c.66-3.3-.45-4.78-1.73-7.42a16.52,16.52,0,0,1-1-5.38c-.4-3.6-2.33-6.63-6.39-5.75S5.28,13.76,3.84,16.71Z" style="fill:#fef261"/><path d="M11.14,33.57A9.71,9.71,0,0,1,2.27,30a8.65,8.65,0,0,1-1.4-2.65,8.87,8.87,0,0,1,.5-6.78c.72-1.36,1.8-2.51,2.47-3.89,1.44-3,1.43-7.71,5.39-8.58.22-.05.44-.08.65-.11a4.49,4.49,0,0,1,4.83,2.62,9.46,9.46,0,0,1,.91,3.24,24.9,24.9,0,0,0,.61,4.24,7.79,7.79,0,0,0,.42,1.14c1.28,2.64,2.39,4.12,1.73,7.42A8.84,8.84,0,0,1,11.14,33.57Z" style="mix-blend-mode:multiply;fill:url(#未命名漸層_36)"/><path d="M14.81,3.45c1.08-.33,3.42-.85,3.42-.85a5.73,5.73,0,0,1-.71,2.86,6,6,0,0,1-3.83,2.85c-1.47.34-3.22.1-2.85-1.45C11.3,4.92,12.89,4,14.81,3.45Z" style="fill:#64c318"/><path d="M17.52,5.46A6,6,0,0,1,13.69,8.3c-1.47.35-3.22.11-2.85-1.44l0-.13c.5-1.85,2.06-2.71,3.94-3.28,1.08-.33,3.42-.85,3.42-.85a5.76,5.76,0,0,1-.13,1.34A5.34,5.34,0,0,1,17.52,5.46Z" style="mix-blend-mode:multiply;fill:url(#linear-gradient-2)"/><path d="M17.52,5.46A6,6,0,0,1,13.69,8.3c-1.47.35-3.22.11-2.85-1.44l0-.13a23.81,23.81,0,0,0,3.56-1.52,6.65,6.65,0,0,1-2.12,2.07A7.37,7.37,0,0,0,18.1,3.94,5.34,5.34,0,0,1,17.52,5.46Z" style="mix-blend-mode:multiply;fill:url(#linear-gradient-3)"/><path d="M10.93,9.36A4.1,4.1,0,0,1,9.88,8a4.49,4.49,0,0,1,4.83,2.62c-.39-.11-.8-.16-1.2-.24A5.58,5.58,0,0,1,10.93,9.36Z" style="mix-blend-mode:multiply;fill:url(#linear-gradient-4)"/><path d="M11.14,33.57A9.71,9.71,0,0,1,2.27,30a8.65,8.65,0,0,1-1.4-2.65,12.52,12.52,0,0,0,3.37,1.54,6.13,6.13,0,0,0,4.34-.36c1.3-.68,2.21-1.92,3.33-2.87s2.54-1.69,3.22-3A9,9,0,0,0,15.8,20c.12-.62.27-1.26.43-1.89a7.79,7.79,0,0,0,.42,1.14c1.28,2.64,2.39,4.12,1.73,7.42A8.84,8.84,0,0,1,11.14,33.57Z" style="mix-blend-mode:multiply;fill:url(#linear-gradient-5)"/></g></g></svg>