<svg xmlns="http://www.w3.org/2000/svg" viewBox="0 0 19 35"><title>fruit</title><g id="圖層_1" data-name="圖層 1"><g id="_群組_" data-name="&lt;群組&gt;"><g id="_群組_2" data-name="&lt;群組&gt;"><path id="_路徑_" data-name="&lt;路徑&gt;" d="M8.33,11.9c-1.28.6-3.62,2-2.57,6.22.76,3.07,10,17.38,12.26,16.61,2.68-.93-.9-18.49-3.52-21.43A4.91,4.91,0,0,0,8.33,11.9Z" style="fill:#ff7400"/></g><g id="_群組_3" data-name="&lt;群組&gt;"><path id="_路徑_2" data-name="&lt;路徑&gt;" d="M11.44,11.43a5.16,5.16,0,0,0-3.11.47,5.69,5.69,0,0,0-1.48.95A5.22,5.22,0,0,0,11.44,11.43Z" style="fill:#ff9b00"/></g><g id="_群組_4" data-name="&lt;群組&gt;"><g id="_群組_5" data-name="&lt;群組&gt;"><path id="_路徑_3" data-name="&lt;路徑&gt;" d="M9,12.31H9a.41.41,0,0,1-.52-.22C8.35,11.78,6.37,4.35,9.94.41A.52.52,0,0,1,10.56.3a.3.3,0,0,1,.07.49c-3.32,3.66-1.36,11-1.34,11.08A.38.38,0,0,1,9,12.31Z" style="fill:#157532"/></g></g><g id="_群組_6" data-name="&lt;群組&gt;"><g id="_群組_7" data-name="&lt;群組&gt;"><path id="_路徑_4" data-name="&lt;路徑&gt;" d="M8.87,11.76l0,0a.41.41,0,0,1-.52-.23c0-.07-1.87-6.71-6.84-7.16-.24,0-.39-.19-.34-.39a.49.49,0,0,1,.52-.32c5.53.5,7.44,7.36,7.52,7.65A.38.38,0,0,1,8.87,11.76Z" style="fill:#157532"/></g></g><g id="_群組_8" data-name="&lt;群組&gt;"><g id="_群組_9" data-name="&lt;群組&gt;"><path id="_路徑_5" data-name="&lt;路徑&gt;" d="M9,12.31l-.08,0a.39.39,0,0,1-.49-.26c0-.22-.93-5.39,3.44-7.49a.46.46,0,0,1,.58.12.34.34,0,0,1-.2.49c-3.8,1.82-3,6.66-3,6.71A.38.38,0,0,1,9,12.31Z" style="fill:#157532"/></g></g><g id="_群組_10" data-name="&lt;群組&gt;"><g id="_群組_11" data-name="&lt;群組&gt;"><path id="_路徑_6" data-name="&lt;路徑&gt;" d="M9,12.31H9a.42.42,0,0,1-.53-.21C8.37,11.9,6.7,7,.48,7.69A.38.38,0,0,1,0,7.38.43.43,0,0,1,.46,7c6.92-.75,8.81,4.82,8.83,4.88A.39.39,0,0,1,9,12.31Z" style="fill:#157532"/></g></g><g id="_群組_12" data-name="&lt;群組&gt;"><g id="_群組_13" data-name="&lt;群組&gt;"><path id="_路徑_7" data-name="&lt;路徑&gt;" d="M9.35,2.63a.44.44,0,0,1-.54-.16A.36.36,0,0,1,9.05,2l2.19-.9a.44.44,0,0,1,.57.15.36.36,0,0,1-.24.48l-2.19.9Z" style="fill:#157532"/></g></g><g id="_群組_14" data-name="&lt;群組&gt;"><g id="_群組_15" data-name="&lt;群組&gt;"><path id="_路徑_8" data-name="&lt;路徑&gt;" d="M8.74,4.28a.46.46,0,0,1-.53-.13L7.12,2.52A.35.35,0,0,1,7.31,2a.47.47,0,0,1,.59.1L9,3.76a.34.34,0,0,1-.19.49Z" style="fill:#157532"/></g></g><g id="_群組_16" data-name="&lt;群組&gt;"><g id="_群組_17" data-name="&lt;群組&gt;"><path id="_路徑_9" data-name="&lt;路徑&gt;" d="M11,6l-.1,0a.38.38,0,0,1-.47-.28l-.24-1.86a.43.43,0,0,1,.39-.42c.25,0,.46.08.48.27l.24,1.86A.4.4,0,0,1,11,6Z" style="fill:#157532"/></g></g><g id="_群組_18" data-name="&lt;群組&gt;"><g id="_群組_19" data-name="&lt;群組&gt;"><path id="_路徑_10" data-name="&lt;路徑&gt;" d="M12.13,7.35a.28.28,0,0,1-.13,0l-2.43.23a.36.36,0,0,1-.44-.31c0-.19.19-.37.43-.4L12,6.67c.24,0,.44.12.44.31A.4.4,0,0,1,12.13,7.35Z" style="fill:#157532"/></g></g><g id="_群組_20" data-name="&lt;群組&gt;"><g id="_群組_21" data-name="&lt;群組&gt;"><path id="_路徑_11" data-name="&lt;路徑&gt;" d="M3.28,4.66h0a.42.42,0,0,1-.54-.19l-.52-1.4A.38.38,0,0,1,2.5,2.6a.43.43,0,0,1,.55.2l.52,1.4C3.64,4.38,3.51,4.58,3.28,4.66Z" style="fill:#157532"/></g></g><g id="_群組_22" data-name="&lt;群組&gt;"><g id="_群組_23" data-name="&lt;群組&gt;"><path id="_路徑_12" data-name="&lt;路徑&gt;" d="M4.91,5.62l-.09,0L3.31,5.9a.39.39,0,0,1-.49-.27.43.43,0,0,1,.39-.42l1.52-.27a.38.38,0,0,1,.48.28A.41.41,0,0,1,4.91,5.62Z" style="fill:#157532"/></g></g><g id="_群組_24" data-name="&lt;群組&gt;"><g id="_群組_25" data-name="&lt;群組&gt;"><path id="_路徑_13" data-name="&lt;路徑&gt;" d="M3,7.63a.49.49,0,0,1-.47-.08L.92,6.07A.33.33,0,0,1,1,5.56a.51.51,0,0,1,.62,0L3.24,7.05a.32.32,0,0,1-.06.5A.71.71,0,0,1,3,7.63Z" style="fill:#157532"/></g></g><g id="_群組_26" data-name="&lt;群組&gt;"><g id="_群組_27" data-name="&lt;群組&gt;"><path id="_路徑_14" data-name="&lt;路徑&gt;" d="M3.77,9.4a.48.48,0,0,1-.51-.11.33.33,0,0,1,.14-.5l1.69-1a.48.48,0,0,1,.6.07.33.33,0,0,1-.14.5l-1.69,1Z" style="fill:#157532"/></g></g><g id="_群組_28" data-name="&lt;群組&gt;"><g id="_群組_29" data-name="&lt;群組&gt;"><path id="_路徑_15" data-name="&lt;路徑&gt;" d="M12.39,29.34c.13.18.26.36.4.53l2.75-1.26Z" style="fill:#ff9b00"/></g><g id="_群組_30" data-name="&lt;群組&gt;"><path id="_路徑_16" data-name="&lt;路徑&gt;" d="M15.09,24.42l3.05-.23L18,23.42Z" style="fill:#ff9b00"/></g><g id="_群組_31" data-name="&lt;群組&gt;"><path id="_路徑_17" data-name="&lt;路徑&gt;" d="M12.25,19.43l4.47-1.07c-.1-.33-.21-.66-.31-1Z" style="fill:#ff9b00"/></g><g id="_群組_32" data-name="&lt;群組&gt;"><path id="_路徑_18" data-name="&lt;路徑&gt;" d="M6.11,19.08l5-2.16-5.34,1.2A6.2,6.2,0,0,0,6.11,19.08Z" style="fill:#ff9b00"/></g><g id="_群組_33" data-name="&lt;群組&gt;"><path id="_路徑_19" data-name="&lt;路徑&gt;" d="M8.57,23.62l3.34-1.52-3.77.8Z" style="fill:#ff9b00"/></g></g></g></g></svg>