<svg xmlns="http://www.w3.org/2000/svg" xmlns:xlink="http://www.w3.org/1999/xlink" viewBox="0 0 34 21"><defs><clipPath id="clip-path"><path d="M30.8,12.34c-2,4.38-7.23,6.78-9.54,7.35C15.87,21,4,23.38.72,13.05-.37,9.58.42,6.37,2,4.81a3.3,3.3,0,0,1,1.79-1c2.84-.43,5.7,1.44,8.55,1.6a16.68,16.68,0,0,0,7.33-1.32c.37-.15.73-.32,1.09-.49,2.89-1.39,8-4.59,10.15,1.06A9.59,9.59,0,0,1,30.8,12.34Z" style="fill:none"/></clipPath><linearGradient id="linear-gradient" x1="807.39" y1="1195.49" x2="812.37" y2="1209.58" gradientTransform="matrix(0.84, 0.54, -0.54, 0.84, -12.61, -1430.54)" gradientUnits="userSpaceOnUse"><stop offset="0" stop-color="#fff" stop-opacity="0"/><stop offset="0.14" stop-color="#d6ebd8" stop-opacity="0.29"/><stop offset="0.31" stop-color="#abd5b0" stop-opacity="0.59"/><stop offset="0.45" stop-color="#8cc693" stop-opacity="0.81"/><stop offset="0.57" stop-color="#79bc81" stop-opacity="0.95"/><stop offset="0.64" stop-color="#72b97a"/></linearGradient><linearGradient id="linear-gradient-2" x1="792.34" y1="1193.54" x2="821.92" y2="1193.54" xlink:href="#linear-gradient"/></defs><title>fruit</title><g style="isolation:isolate"><g id="圖層_1" data-name="圖層 1"><path d="M31.71,3.69a18.55,18.55,0,0,0,.8-2.42,3,3,0,0,1,.36-1c.29-.39.76-.18.92.4-.48,1.2-.85,2.54-1.3,3.78a7.11,7.11,0,0,1-1.79,3c.3-.24.13-1.68.22-2.1A8.13,8.13,0,0,1,31.71,3.69Z" style="fill:#34872b"/><g style="clip-path:url(#clip-path)"><path d="M19.66,4.13a16.68,16.68,0,0,1-7.33,1.32c-2.85-.16-5.71-2-8.55-1.59C1.16,4.25-.74,8.42.72,13.05,4,23.38,15.87,21,21.26,19.69c3.42-.83,13.11-5.66,9.64-15C28.79-.95,23.65,2.25,20.75,3.64,20.39,3.81,20,4,19.66,4.13Z" style="fill:#77b91b;mix-blend-mode:multiply"/><path d="M31.63,5.92c.05-.31-.21-.56-.3-.25a23.14,23.14,0,0,1-1.06,3.39,12.09,12.09,0,0,1-1.79,2.78,18.73,18.73,0,0,1-3.9,3.7c-2.8,1.91-5.89,2.42-8.86,2.77a14.93,14.93,0,0,1-8.67-1.15,17.43,17.43,0,0,1-4-2.81,15.06,15.06,0,0,1-2-1.88A12.53,12.53,0,0,1-.26,8.88c-.13-.4-.47-.09-.36.32a20.88,20.88,0,0,0,.94,3.25,6.49,6.49,0,0,0,1.77,2,21.55,21.55,0,0,0,4.16,3.28,15.22,15.22,0,0,0,9.61,1.56c3.1-.36,6.23-.91,9.13-3A15.24,15.24,0,0,0,31.63,5.92Z" style="fill:#fff;opacity:0.37"/><path d="M30.8,12.34c-2,4.38-7.23,6.78-9.54,7.35C15.87,21,4,23.38.72,13.05-.37,9.58.42,6.37,2,4.81a3.3,3.3,0,0,1,1.79-1c2.84-.43,5.7,1.44,8.55,1.6a16.68,16.68,0,0,0,7.33-1.32c.37-.15.73-.32,1.09-.49,2.89-1.39,8-4.59,10.15,1.06A9.59,9.59,0,0,1,30.8,12.34Z" style="fill:#90c419"/><path d="M30.8,12.34c-2,4.38-7.23,6.78-9.54,7.35C15.87,21,4,23.38.72,13.05-.37,9.58.42,6.37,2,4.81a3.3,3.3,0,0,1,1.79-1c2.84-.43,5.7,1.44,8.55,1.6a16.68,16.68,0,0,0,7.33-1.32c.37-.15.73-.32,1.09-.49,2.89-1.39,8-4.59,10.15,1.06A9.59,9.59,0,0,1,30.8,12.34Z" style="mix-blend-mode:multiply;fill:url(#linear-gradient)"/><path d="M30.9,4.7c3.79-2.39,2.1,6,2.29,6-2,4.39-9.62,8.41-11.93,9C15.87,21,4,23.38.72,13.05-.37,9.58.42,6.37,2,4.81c.09.58.19,1.15.31,1.68a11,11,0,0,0,4,6.26c3.69,2.9,7.88,2.8,11.91,2.4C29.21,14.07,28,6.56,30.9,4.7Z" style="mix-blend-mode:multiply;fill:url(#linear-gradient-2)"/></g><path d="M23.92,5.05c-.5,1,1.78-.18,2.13-1.09S24.88,3.05,23.92,5.05Z" style="fill:#fff;opacity:0.37"/><path d="M22.72,5.72s.93-.24.33.55-2.27,2.82-7.12,3a19,19,0,0,1-6.6-1.12C6.71,7,5.53,6.27,5.45,5.45c0,0-.07-.45.24-.3s0,.66,1.56,1.56a16.43,16.43,0,0,0,8.68,1.85,11.87,11.87,0,0,0,5.32-1.73Z" style="fill:#fff;opacity:0.37"/></g></g></svg>