<svg xmlns="http://www.w3.org/2000/svg" viewBox="0 0 25 26"><title>fruit</title><g id="圖層_1" data-name="圖層 1"><path d="M13.3,8.12a.53.53,0,0,1-.74,0,.52.52,0,0,1,0-.74,6.36,6.36,0,0,0,1.77-2.9,5.29,5.29,0,0,0-.18-3.16.52.52,0,0,1,.31-.67.53.53,0,0,1,.68.31,6.36,6.36,0,0,1,.2,3.78A7.28,7.28,0,0,1,13.3,8.12Z" style="fill:#914d0e;fill-rule:evenodd"/><path d="M7.62,1.17c.72,3.75,6.27,4.65,7,2.44S10.51-1.32,7.62,1.17Z" style="fill:#8bac13;fill-rule:evenodd"/><path d="M7.62,1.17c.72,3.75,6.27,4.65,7,2.44A16.43,16.43,0,0,0,7.62,1.17Z" style="fill:#6e8a08;fill-rule:evenodd"/><path d="M9.61,24.71c.6.13,1.58.62,2.62.94,5.91,1.84,15.92-12.08,11-16.89-3.72-3.63-8.76-1.82-9.61-2S9,2.78,4.05,4.49c-6.49,2.26-3.35,19,2.68,20C7.84,24.61,9,24.56,9.61,24.71Z" style="fill:#d60000;fill-rule:evenodd"/><path d="M4,9.91a1.09,1.09,0,0,1-1.43.55A1.08,1.08,0,0,1,2,9,6.27,6.27,0,0,1,7.68,5.32a1.09,1.09,0,0,1,0,2.17,4.06,4.06,0,0,0-2.21.66A4.13,4.13,0,0,0,4,9.91Z" style="fill:#fff;fill-rule:evenodd;opacity:0.5"/><path d="M9.61,24.71c.6.13,1.58.62,2.62.94,5.15,1.6,13.43-8.78,12.19-14.65-.55,5.94-7.67,14.11-12.28,12.68-1.05-.32-2-.81-2.62-.95s-1.77-.09-2.88-.27C3.37,21.94,1,16.78.46,11.81.41,17.29,3,23.84,6.73,24.44,7.84,24.61,9,24.56,9.61,24.71Z" style="fill-rule:evenodd;opacity:0.15"/></g></svg>