<svg xmlns="http://www.w3.org/2000/svg" viewBox="0 0 27 34"><title>fruit</title><g id="圖層_1" data-name="圖層 1"><path d="M8.56,7.14C15.41,3.76,23.17,5.49,25.9,11s-.62,12.73-7.46,16.12S3.83,28.77,1.1,23.26,1.72,10.53,8.56,7.14Z" style="fill:#ed8a00;fill-rule:evenodd"/><path d="M8.56,7.14a15.21,15.21,0,0,1,11.62-1,9.31,9.31,0,0,1,3.08,3.53C26,15.18,22.64,22.4,15.8,25.78a15.17,15.17,0,0,1-11.62,1A9.38,9.38,0,0,1,1.1,23.26C-1.62,17.74,1.72,10.53,8.56,7.14Z" style="fill:#fc9200;fill-rule:evenodd"/><polygon points="9.12 8.05 10.67 8.92 13.62 7.46 11.63 9.45 13.19 10.3 10.41 10.67 8.44 12.65 8.7 10.89 5.92 11.26 8.86 9.81 9.12 8.05" style="fill:#cf7602;fill-rule:evenodd"/><path d="M4.83,21a1.09,1.09,0,0,1-2,.86A8.56,8.56,0,0,1,4.38,12.7a1.09,1.09,0,0,1,1.54-.06A1.08,1.08,0,0,1,6,14.17,6.42,6.42,0,0,0,4.83,21Z" style="fill:#ffb042;fill-rule:evenodd"/><path d="M11.47,9.74A9.86,9.86,0,0,0,5.13,6.12c-.73-.07-1,.73-.61.75,1.43.07,4.89.93,6,3.4A.7.7,0,0,1,11.47,9.74Z" style="fill:#6e8a08;fill-rule:evenodd"/><path d="M24.65,11.67c-6.19-9.58-13.11-6.53-16.4-3.8C10,10.5,12.39,12.25,15.59,12S20.27,14.34,24.65,11.67Z" style="fill:#8bac13;fill-rule:evenodd"/><path d="M8.35,8C12.31,6.74,19,7.82,23,11.09,19.7,7.16,12.73,6.48,8.61,7.58l-.36.29Z" style="fill:#6e8a08;fill-rule:evenodd"/></g></svg>