<svg xmlns="http://www.w3.org/2000/svg" xmlns:xlink="http://www.w3.org/1999/xlink" viewBox="0 0 26 30"><defs><clipPath id="clip-path"><path d="M23.3,19.65c-.55-2.44-2.2-4.1-2.73-7.2a35.4,35.4,0,0,0-.78-4.94,5.4,5.4,0,0,0-5.64-3.12c-.81.06-2.44.43-5.09,4.56-.82,1.27-2.35,1.78-3.61,2.59a11.6,11.6,0,0,0-4.79,5.9,7.84,7.84,0,0,0,.61,7.19c2,2.75,5.07,3.86,7.55,4.56a16.19,16.19,0,0,0,9.45.11A7.08,7.08,0,0,0,22,26.42,10.15,10.15,0,0,0,23.3,19.65Z" style="fill:#bed800"/></clipPath><radialGradient id="radial-gradient" cx="-32.71" cy="458.7" r="9.66" gradientTransform="matrix(0.98, 0.21, -0.21, 0.98, 147.3, -430.68)" gradientUnits="userSpaceOnUse"><stop offset="0" stop-color="#ffc830"/><stop offset="0.25" stop-color="#f5cb28"/><stop offset="0.67" stop-color="#d8d114"/><stop offset="1" stop-color="#bed800"/></radialGradient></defs><title>fruit</title><g id="圖層_1" data-name="圖層 1"><path d="M23.3,19.65c-.55-2.44-2.2-4.1-2.73-7.2a35.4,35.4,0,0,0-.78-4.94,5.4,5.4,0,0,0-5.64-3.12c-.81.06-2.44.43-5.09,4.56-.82,1.27-2.35,1.78-3.61,2.59a11.6,11.6,0,0,0-4.79,5.9,7.84,7.84,0,0,0,.61,7.19c2,2.75,5.07,3.86,7.55,4.56a16.19,16.19,0,0,0,9.45.11A7.08,7.08,0,0,0,22,26.42,10.15,10.15,0,0,0,23.3,19.65Z" style="fill:#bed800"/><g style="clip-path:url(#clip-path)"><path d="M28.34,12.94A9.66,9.66,0,1,1,20.93,1.47,9.66,9.66,0,0,1,28.34,12.94Z" style="fill:url(#radial-gradient)"/></g><path d="M20.58,26.67c-1.89.31-3.48-.41-5.17-1.18A9.2,9.2,0,0,0,12,24.58c-1,0-2,0-3-.1a7,7,0,0,1-6.45-6.16,7.5,7.5,0,0,1,1.81-5.93A11.19,11.19,0,0,0,.66,17.44a7.84,7.84,0,0,0,.61,7.19c2,2.75,5.07,3.86,7.55,4.56a16.19,16.19,0,0,0,9.45.11A7.08,7.08,0,0,0,22,26.42l.19-.3A4.75,4.75,0,0,1,20.58,26.67Z" style="fill:#afbc00"/><path d="M13.87,29.25a27.59,27.59,0,0,1-4.24-.61,18.06,18.06,0,0,1-4.54-2,8,8,0,0,1-4.35-7.5,14.39,14.39,0,0,1,.7-3.45,10.28,10.28,0,0,0-.78,1.72,7.84,7.84,0,0,0,.61,7.19c2,2.75,5.07,3.86,7.55,4.56a16.19,16.19,0,0,0,9.45.11,7.09,7.09,0,0,0,.9-.37A21.91,21.91,0,0,1,13.87,29.25Z" style="fill:#838c00;opacity:0.30000000000000004"/><path d="M2.85,23.18A11.64,11.64,0,0,0,2.34,22a4.81,4.81,0,0,1-.27-1.18,10.09,10.09,0,0,0-.15-2.52.32.32,0,0,0-.53-.12c-1.2,1.24-.95,4.57.45,5.61a.62.62,0,0,0,.75.06l.13-.1A.64.64,0,0,0,2.85,23.18Z" style="fill:#fff;opacity:0.2"/><path d="M3.48,24.41l-.15-.12a.45.45,0,0,0-.19-.11H3c-.15,0-.23.14-.23.26a.38.38,0,0,0,.07.27l.11.15a.35.35,0,1,0,.53-.45Z" style="fill:#fff;opacity:0.2"/><path d="M17.87.32c0-.15-1.09-.23-1.13-.07-.27,1-.49,2-.71,3-.1.49-.73,2.88-.51,3.31a.2.2,0,0,0,.27.06A15.08,15.08,0,0,0,17,3.71,11.37,11.37,0,0,0,17.87.32Z" style="fill:#705e4c"/><path d="M17.18,6.15c-.38-.3-.58,0-1.35-.1-.47-.09-.73-.46-1.15-.64a.29.29,0,0,0-.39.33c.07.41.64.82,1.24,1s1.52.25,1.74-.29A.26.26,0,0,0,17.18,6.15Z" style="fill:#a6bd00"/><path d="M19.56,9.28a2,2,0,0,0-.07-.35,2.8,2.8,0,0,0-.15-.3.77.77,0,0,0-1.21-.1A1.49,1.49,0,0,0,17.82,10a.89.89,0,0,0,.89.61.92.92,0,0,0,.82-.7A1.42,1.42,0,0,0,19.56,9.28Z" style="fill:#fff;opacity:0.4"/><path d="M21.9,18a1.09,1.09,0,0,0-.49-.55.59.59,0,0,0-.83.39.39.39,0,0,0,0,.15.76.76,0,0,0,0,.3l0,.18a.81.81,0,0,0,.16.43A.69.69,0,0,0,22,18.69,1.05,1.05,0,0,0,21.9,18Z" style="fill:#fff;opacity:0.4"/><path d="M22.34,20.11a.8.8,0,0,0-1.36.18,9.81,9.81,0,0,0-.33,2.16c-.12.79-.69,1.45-.59,2.26a.78.78,0,0,0,.9.67c1-.26,1.41-1.24,1.67-2.17A3.55,3.55,0,0,0,22.34,20.11Z" style="fill:#fff;opacity:0.4"/><path d="M5.35,12.87a.72.72,0,0,0-.27.15,1.68,1.68,0,0,0-.29.24,1.58,1.58,0,0,0-.34.55.4.4,0,0,0,.41.49A1.74,1.74,0,0,0,5.45,14a.9.9,0,0,0,.19-.15,1.3,1.3,0,0,0,.3-.32A.5.5,0,0,0,5.35,12.87Z" style="fill:#fff;opacity:0.4"/><path d="M1.91,16.8a.09.09,0,0,0-.15.08h0a0,0,0,0,1,0,0,.19.19,0,0,1,0,.07.21.21,0,0,0,0,.2.11.11,0,0,0,.15,0A.27.27,0,0,0,1.91,16.8Z" style="fill:#b8c600"/><polygon points="1.76 16.88 1.75 16.89 1.76 16.89 1.76 16.88" style="fill:#b8c600"/><path d="M4.34,16.39c0-.14-.21-.18-.26-.06a.41.41,0,0,0,0,.21.18.18,0,0,0,.11.17c.06,0,.1,0,.14-.08A.35.35,0,0,0,4.34,16.39Z" style="fill:#b8c600"/><path d="M3.51,17.78c0-.09-.14-.12-.19,0a.34.34,0,0,0,0,.17.1.1,0,0,0,.19,0A.31.31,0,0,0,3.51,17.78Z" style="fill:#b8c600"/><path d="M3.44,15.42h0a.11.11,0,0,0-.19,0h0a.27.27,0,0,0-.07.28.09.09,0,0,0,0,.07.15.15,0,0,0,.13,0l.06,0A.28.28,0,0,0,3.44,15.42Z" style="fill:#b8c600"/><path d="M7.45,15.53v0a.15.15,0,0,0-.23-.11h0c-.16.08-.29.35-.09.46a.23.23,0,0,0,.3-.14.45.45,0,0,0,0-.11A.17.17,0,0,0,7.45,15.53Z" style="fill:#b8c600"/><path d="M6.08,15.24a.13.13,0,0,0-.21-.05c-.11.1-.17.42,0,.46S6.13,15.37,6.08,15.24Z" style="fill:#b8c600"/><path d="M8,13.28a.14.14,0,0,0-.17-.06l-.06,0,0,0h0l0,0-.06,0c-.15.07,0,.3.1.29A.33.33,0,0,0,8,13.55.22.22,0,0,0,8,13.28Z" style="fill:#b8c600"/><path d="M5.49,14.11A.11.11,0,0,0,5.42,14c-.13-.06-.22,0-.32.11a.15.15,0,0,0,.16.24C5.37,14.3,5.49,14.25,5.49,14.11Z" style="fill:#b8c600"/><path d="M5.61,13.2a.16.16,0,0,0-.12-.14c-.15-.05-.3.12-.29.26a.16.16,0,0,0,.27.1l0,0s0,0,0,0A.19.19,0,0,0,5.61,13.2Z" style="fill:#b8c600"/><path d="M3.83,14c-.07-.07-.19,0-.26,0a.63.63,0,0,0-.14.24.1.1,0,0,0,.15.1C3.68,14.33,4,14.11,3.83,14Z" style="fill:#b8c600"/><path d="M7.12,11.82a.37.37,0,0,0-.38.24.11.11,0,0,0,.16.15A2.9,2.9,0,0,0,7.19,12,.13.13,0,0,0,7.12,11.82Z" style="fill:#b8c600"/><path d="M6.76,13.21a.32.32,0,0,0-.33.09l-.15.2a.13.13,0,0,0,.13.2.7.7,0,0,0,.21-.11c.08-.05.19-.15.2-.24A.12.12,0,0,0,6.76,13.21Z" style="fill:#b8c600"/><path d="M9.28,11.73c0-.11-.17-.15-.21-.05s-.15.27,0,.31a.17.17,0,0,0,.17-.08A.38.38,0,0,0,9.28,11.73Z" style="fill:#b8c600"/><path d="M8.56,11a.2.2,0,0,0,0-.07h0v0c0-.12-.2-.17-.24-.05a.17.17,0,0,0,.07.25A.12.12,0,0,0,8.56,11Z" style="fill:#b8c600"/><path d="M10.33,9.16a.14.14,0,0,1,0-.06c0-.17-.23-.16-.28,0a.37.37,0,0,0,0,.18.21.21,0,0,0,.19.15c.07,0,.1-.06.11-.13A.17.17,0,0,0,10.33,9.16Z" style="fill:#b8c600"/><path d="M12.5,9c-.07-.08-.17,0-.24,0a.2.2,0,0,0,.05.3.1.1,0,0,0,.12,0c.05,0,.05-.1.07-.16S12.54,9,12.5,9Z" style="fill:#b8c600"/><path d="M11.35,10.29a.08.08,0,0,0,0-.08.12.12,0,0,0-.09-.13c-.14,0-.26.14-.24.27a.14.14,0,0,0,.27.06.42.42,0,0,0,0-.12Z" style="fill:#b8c600"/><path d="M11.43,8.65V8.6a.14.14,0,0,0-.24-.13.3.3,0,0,0-.08.32.16.16,0,0,0,.17.11.16.16,0,0,0,.16-.13A.49.49,0,0,0,11.43,8.65Z" style="fill:#b8c600"/><path d="M11,7.41a.11.11,0,0,0-.21,0,.37.37,0,0,0-.05.18.13.13,0,0,0,.24,0A.37.37,0,0,0,11,7.41Z" style="fill:#b8c600"/><path d="M12.19,6.14a.11.11,0,0,0-.2,0,.5.5,0,0,0-.07.39.11.11,0,0,0,.18,0A.51.51,0,0,0,12.19,6.14Z" style="fill:#b8c600"/><path d="M14.45,7.83a.13.13,0,0,0-.26-.06.46.46,0,0,0,0,.2.13.13,0,0,0,.24,0A.32.32,0,0,0,14.45,7.83Z" style="fill:#b8c600"/><path d="M13.22,6.07c-.16,0-.32.2-.34.35a.12.12,0,0,0,.16.13.63.63,0,0,0,.18-.12.36.36,0,0,0,.14-.18A.14.14,0,0,0,13.22,6.07Z" style="fill:#b8c600"/><path d="M10.65,14.51a.19.19,0,0,1,0-.07.25.25,0,0,0,0-.1.11.11,0,0,0-.18,0h0l0,0a.16.16,0,0,0-.05.09.27.27,0,0,0,0,.18A.15.15,0,0,0,10.65,14.51Z" style="fill:#b8c600"/><path d="M9.23,14.71a.09.09,0,0,0-.17.06c0,.1,0,.19,0,.28a.14.14,0,0,0,.27,0A.47.47,0,0,0,9.23,14.71Z" style="fill:#b8c600"/><path d="M10.07,13.18A.51.51,0,0,0,9.79,13c-.12,0-.18.11-.14.2a.55.55,0,0,0,.26.24.14.14,0,0,0,.14,0A.15.15,0,0,0,10.07,13.18Z" style="fill:#b8c600"/><path d="M13,12.45a.11.11,0,0,0-.21,0,1.23,1.23,0,0,0,0,.27.12.12,0,0,0,.22.05A.41.41,0,0,0,13,12.45Z" style="fill:#b8c600"/><path d="M12.21,15.93A.11.11,0,0,0,12,16c0,.15-.07.36.09.44s.08,0,.11,0A.45.45,0,0,0,12.21,15.93Z" style="fill:#b8c600"/><path d="M10.47,16.93a.14.14,0,0,0-.23.15.48.48,0,0,0,.14.25c.06,0,.18.05.21,0A.3.3,0,0,0,10.47,16.93Z" style="fill:#b8c600"/><path d="M16.18,16.28a.15.15,0,0,0-.3-.07c0,.1-.05.29.09.32S16.17,16.38,16.18,16.28Z" style="fill:#b8c600"/><path d="M14.82,18.23a.43.43,0,0,0-.26.11.12.12,0,0,0-.05.14.13.13,0,0,0,.16.08c.08,0,.19,0,.25-.13A.12.12,0,0,0,14.82,18.23Z" style="fill:#b8c600"/><path d="M14.34,15.33c-.11,0-.15.17-.05.21l.16.07c.06,0,.19,0,.2,0S14.47,15.33,14.34,15.33Z" style="fill:#b8c600"/><path d="M17.15,14.08a.33.33,0,0,0,0-.14.2.2,0,0,0-.13-.08.14.14,0,0,0-.12.24v0l0,0a.15.15,0,0,0,.16.06A.14.14,0,0,0,17.15,14.08Z" style="fill:#b8c600"/><path d="M19.31,14.06a.12.12,0,0,0-.23-.05c0,.11-.06.21,0,.31a.09.09,0,0,0,.11,0C19.28,14.28,19.29,14.17,19.31,14.06Z" style="fill:#b8c600"/><path d="M5.44,17.28l0,0s0-.06,0-.05a.14.14,0,0,0-.07-.06h0a.17.17,0,0,0-.28.09.37.37,0,0,0,.11.28.19.19,0,0,0,.19,0,.17.17,0,0,0,.11-.09A.18.18,0,0,0,5.44,17.28Z" style="fill:#b8c600"/><path d="M5.38,17.21h0Z" style="fill:#b8c600"/><path d="M5.33,17.16Z" style="fill:#b8c600"/><path d="M6.55,17.11a.17.17,0,0,0,0-.07h0c0-.15-.22-.21-.24-.05a.65.65,0,0,0,0,.24.12.12,0,0,0,.21,0A.19.19,0,0,0,6.55,17.11Z" style="fill:#b8c600"/><path d="M7.28,17.17a.12.12,0,0,0-.22-.05.38.38,0,0,0-.06.23.13.13,0,0,0,.25,0A.3.3,0,0,0,7.28,17.17Z" style="fill:#b8c600"/><path d="M6.87,18.73a.09.09,0,0,0-.17,0c0,.08-.07.17,0,.24a.09.09,0,0,0,.12,0C6.87,18.91,6.86,18.81,6.87,18.73Z" style="fill:#b8c600"/><path d="M3.8,19a.11.11,0,0,0-.2,0c-.05.12-.12.32,0,.4a.06.06,0,0,0,.08,0C3.82,19.22,3.8,19.09,3.8,19Z" style="fill:#b8c600"/><path d="M2.7,20.49c-.1,0-.18.16-.08.23l0,0s0,0,0,0a.34.34,0,0,0,.09.15A.13.13,0,0,0,3,20.86.3.3,0,0,0,2.7,20.49Z" style="fill:#b8c600"/><path d="M1.63,21.73a.36.36,0,0,0-.38-.18.13.13,0,0,0-.06.25,1.37,1.37,0,0,1,.2.13.17.17,0,0,0,.2,0A.16.16,0,0,0,1.63,21.73Z" style="fill:#b8c600"/><path d="M1.54,20.1A.47.47,0,0,0,1.29,20a.31.31,0,0,0-.21.06.11.11,0,0,0,.1.2s0,0,0,0l.06,0,.17,0A.14.14,0,0,0,1.54,20.1Z" style="fill:#b8c600"/><path d="M2.16,19.56a.61.61,0,0,0,0-.13.16.16,0,0,1,0-.09c0-.12-.17-.12-.2,0a.23.23,0,0,0,.2.29A.06.06,0,0,0,2.16,19.56Z" style="fill:#b8c600"/><path d="M3.38,23a.38.38,0,0,0-.23-.16c-.15,0-.24.2-.09.26a.28.28,0,0,1,.11.08C3.29,23.32,3.48,23.17,3.38,23Z" style="fill:#b8c600"/><path d="M4.69,22.73a.65.65,0,0,0-.27-.34.11.11,0,0,0-.15,0,.14.14,0,0,0,0,.18c.08.08.13.19.22.27A.13.13,0,0,0,4.69,22.73Z" style="fill:#b8c600"/><path d="M4.34,24.17c-.09,0-.15.12-.06.16l0,.05a.19.19,0,0,0,.08.1.07.07,0,0,0,.08,0A.2.2,0,0,0,4.34,24.17Z" style="fill:#b8c600"/><path d="M4.14,26l0-.06h0a.14.14,0,0,0-.23,0,.24.24,0,0,0,.12.38.17.17,0,0,0,.19-.12A.18.18,0,0,0,4.14,26Z" style="fill:#b8c600"/><path d="M5.44,25.39a.46.46,0,0,0-.33-.26c-.11,0-.17.1-.12.18a.44.44,0,0,0,.3.25A.14.14,0,0,0,5.44,25.39Z" style="fill:#b8c600"/><path d="M7,23.45a.3.3,0,0,0-.38,0,.12.12,0,0,0,0,.14.13.13,0,0,0,.16.08A2.33,2.33,0,0,0,7,23.63.12.12,0,0,0,7,23.45Z" style="fill:#b8c600"/><path d="M6.23,22.33H6.09l-.09,0a.11.11,0,0,0,0,.2c.07.05.15,0,.23,0A.13.13,0,0,0,6.23,22.33Z" style="fill:#b8c600"/><path d="M7.8,21.7a.36.36,0,0,0-.33-.18.13.13,0,0,0,0,.25c.06,0,.1.11.18.14A.15.15,0,0,0,7.8,21.7Z" style="fill:#b8c600"/><path d="M8.65,21.66c-.09-.12-.3,0-.24.11s0,.31.15.27S8.73,21.77,8.65,21.66Z" style="fill:#b8c600"/><path d="M8.31,23.46l0,0c-.1-.18-.4,0-.27.17l0,0A.16.16,0,0,0,8.31,23.46Z" style="fill:#b8c600"/><path d="M7.64,24.73a.14.14,0,0,0-.2.09.13.13,0,0,0,.1.16.11.11,0,0,0,.18,0A.16.16,0,0,0,7.64,24.73Z" style="fill:#b8c600"/><path d="M7.09,25.88,7,25.81a.12.12,0,0,0-.2.13.26.26,0,0,0,.29.11A.1.1,0,0,0,7.09,25.88Z" style="fill:#b8c600"/><path d="M6.79,27.22a.33.33,0,0,0-.48.11.15.15,0,0,0,.21.19h0a.41.41,0,0,0,.22,0c.05,0,.09-.07.11-.12A.18.18,0,0,0,6.79,27.22Z" style="fill:#b8c600"/><path d="M10.07,27a.3.3,0,0,0-.28-.11.27.27,0,0,0-.24.15.15.15,0,0,0,.21.19s0,0,0,0h.05a.41.41,0,0,0,.22,0A.13.13,0,0,0,10.07,27Z" style="fill:#b8c600"/><path d="M9.45,25.82a.19.19,0,0,0-.13-.07l-.16,0a.45.45,0,0,0-.17.08c-.11.06,0,.2.06.21h.16l.14,0,.07,0a.1.1,0,0,0,0-.05s0,0,0,0A.09.09,0,0,0,9.45,25.82Z" style="fill:#b8c600"/><path d="M10.15,24.54c0-.11-.15-.13-.25-.14a.72.72,0,0,0-.28.07c-.11.06,0,.22.07.22H10C10.05,24.68,10.18,24.63,10.15,24.54Z" style="fill:#b8c600"/><path d="M12,24.79a.34.34,0,0,0-.33-.24.15.15,0,0,0-.06.29c.08,0,.13.12.23.13A.14.14,0,0,0,12,24.79Z" style="fill:#b8c600"/><path d="M14.25,24.44h0a.15.15,0,0,0-.05-.14.91.91,0,0,0-.23-.15c-.1,0-.24.07-.16.18l.09.11s.07,0,.1.08a.17.17,0,0,0,.17,0S14.26,24.49,14.25,24.44Z" style="fill:#b8c600"/><path d="M14.84,22.74c0-.08,0-.15,0-.22s-.16-.14-.19,0a.35.35,0,0,0,0,.3A.12.12,0,0,0,14.84,22.74Z" style="fill:#b8c600"/><path d="M10.05,23a.2.2,0,0,0-.34-.08s0,.05,0,.08a.14.14,0,0,0,.12.15h0s0,0,.07,0A.15.15,0,0,0,10.05,23Z" style="fill:#b8c600"/><path d="M9.39,20.23a.23.23,0,0,0-.24-.16.13.13,0,0,0-.08.22c.07.07.14.14.24.1A.12.12,0,0,0,9.39,20.23Z" style="fill:#b8c600"/><path d="M10.46,19.88a.53.53,0,0,0,0-.12c0-.12-.17-.12-.2,0s0,.28.14.29a.08.08,0,0,0,.07,0A.32.32,0,0,0,10.46,19.88Z" style="fill:#b8c600"/><path d="M12.34,20.38a.37.37,0,0,0-.25-.07.13.13,0,0,0-.06.25.36.36,0,0,0,.27,0A.13.13,0,0,0,12.34,20.38Z" style="fill:#b8c600"/><path d="M11.76,19.26a.1.1,0,0,0-.19,0,.33.33,0,0,0,0,.27.1.1,0,0,0,.14,0A.3.3,0,0,0,11.76,19.26Z" style="fill:#b8c600"/><path d="M13.2,19.9a.43.43,0,0,0,0-.16.09.09,0,0,0-.16,0,.3.3,0,0,0,0,.21.14.14,0,0,0,.11.07C13.16,20,13.19,20,13.2,19.9Z" style="fill:#b8c600"/><path d="M14.42,20.71c0-.13-.21-.17-.25-.05a.34.34,0,0,0,0,.14.12.12,0,0,0,.23.05A.74.74,0,0,0,14.42,20.71Z" style="fill:#b8c600"/><path d="M16.5,26.51c-.13-.1-.32,0-.43.08a.12.12,0,1,0,.13.2c.1-.05.27-.07.32-.19A.08.08,0,0,0,16.5,26.51Z" style="fill:#b8c600"/><path d="M13.51,28.16a.78.78,0,0,0-.41.26.13.13,0,0,0,.14.21.82.82,0,0,0,.4-.26A.14.14,0,0,0,13.51,28.16Z" style="fill:#b8c600"/><path d="M12.87,27s0-.08-.08-.11a.32.32,0,0,0-.19-.05.42.42,0,0,0-.16,0l-.06,0a.08.08,0,0,0,0,0s0,0,0,0a.1.1,0,0,0,.07.18h.06l.17,0C12.73,27.14,12.86,27.1,12.87,27Z" style="fill:#b8c600"/><path d="M13.71,26a.14.14,0,0,0-.23.15c0,.11.15.25.29.25a.13.13,0,0,0,.12-.1C13.92,26.16,13.8,26.08,13.71,26Z" style="fill:#b8c600"/><path d="M10.71,28.67a.24.24,0,0,0-.21-.1.14.14,0,0,0-.13.11.16.16,0,0,0,0,.13s0,.06,0,.09a.17.17,0,0,0,.3,0A.3.3,0,0,0,10.71,28.67Z" style="fill:#b8c600"/><path d="M16.23,28.63a.72.72,0,0,0-.53.13.12.12,0,0,0,.07.23L16,29a.93.93,0,0,0,.23,0A.15.15,0,0,0,16.23,28.63Z" style="fill:#b8c600"/><path d="M17.68,28.12c-.07-.12-.22-.25-.35-.14a.13.13,0,0,0-.06.15.14.14,0,0,0,.11.09l.05.06A.15.15,0,0,0,17.68,28.12Z" style="fill:#b8c600"/><path d="M19,27.05a.16.16,0,0,0-.11.25v.05a.19.19,0,0,0,.37,0A.26.26,0,0,0,19,27.05Z" style="fill:#b8c600"/><path d="M17,25.23a.15.15,0,0,0-.29-.06.32.32,0,0,0,0,.17c0,.08.06.16.14.16a.16.16,0,0,0,.18-.12Z" style="fill:#b8c600"/><path d="M15.61,24.43a.45.45,0,0,0-.16.28.13.13,0,0,0,.25.06.94.94,0,0,1,.06-.24A.09.09,0,0,0,15.61,24.43Z" style="fill:#b8c600"/><path d="M16.44,23.8a.1.1,0,0,0-.17.11c0,.06.07.12.16.13a.08.08,0,0,0,.06,0A.21.21,0,0,0,16.44,23.8Z" style="fill:#b8c600"/><path d="M18.32,25.73h0a.16.16,0,0,0,0-.15,1,1,0,0,0-.13-.27c-.07-.15-.31-.06-.3.1a.72.72,0,0,0,.11.32.18.18,0,0,0,.16.08c-.06,0,0,0,.05,0a.17.17,0,0,0,.08-.06v0Z" style="fill:#b8c600"/><path d="M19.76,26.1a.17.17,0,0,0-.33-.07s0,.08,0,.12a.49.49,0,0,0,0,.17.16.16,0,0,0,.27.06l.06-.11A.32.32,0,0,0,19.76,26.1Z" style="fill:#b8c600"/><path d="M1.28,17.93A.17.17,0,0,0,1,17.87a.33.33,0,0,0,0,.38.18.18,0,0,0,.32-.06A.76.76,0,0,0,1.28,17.93Z" style="fill:#929600"/><path d="M2.08,15.87a.09.09,0,0,0-.16.08s0,.09,0,.12a.32.32,0,0,0,0,.17.08.08,0,0,0,.12,0A.3.3,0,0,0,2.08,15.87Z" style="fill:#929600"/><path d="M2.14,17.81a.14.14,0,0,0-.25.12c0,.07,0,.22.16.2S2.22,17.92,2.14,17.81Z" style="fill:#929600"/><path d="M1.53,19.25a.14.14,0,0,0-.27-.05.37.37,0,0,0-.05.11.27.27,0,0,0,0,.17.12.12,0,0,0,.16,0,.35.35,0,0,0,.1-.11A.41.41,0,0,0,1.53,19.25Z" style="fill:#929600"/><path d="M.74,21.22a.37.37,0,0,0-.12-.13L.5,21c-.09-.06-.18.05-.16.13a.36.36,0,0,0,.23.26C.68,21.47.84,21.33.74,21.22Z" style="fill:#929600"/><path d="M2.66,20.52H2.54l0,0h0l0,0h0s0,0,0,0l0,0v0a0,0,0,0,0,0,0h0s0,0,0,0h0l0,0h0l.09,0A.14.14,0,0,0,2.66,20.52Z" style="fill:#929600"/><path d="M3.53,19.85h0a.08.08,0,0,1,0,0h0a0,0,0,0,0,0,0h0l0,0H3.37a.11.11,0,0,0-.07.06.29.29,0,0,0,0,.27.12.12,0,0,0,.16,0A.27.27,0,0,0,3.53,19.85Z" style="fill:#929600"/><path d="M2.88,19c0-.12-.17-.15-.22,0a.55.55,0,0,0-.06.22.13.13,0,0,0,.25.05A.53.53,0,0,0,2.88,19Z" style="fill:#929600"/><path d="M3.48,17a.1.1,0,0,0-.19,0c-.06.08-.13.2-.06.29a.14.14,0,0,0,.18,0C3.51,17.27,3.49,17.14,3.48,17Z" style="fill:#929600"/><path d="M2.78,16.69a.06.06,0,0,0-.11,0,.17.17,0,0,0-.07.14.09.09,0,0,0,.18,0A.22.22,0,0,0,2.78,16.69Z" style="fill:#929600"/><path d="M5.5,15.71a.12.12,0,0,0-.23-.05c0,.09-.08.21,0,.29a.09.09,0,0,0,.13,0C5.48,15.93,5.49,15.81,5.5,15.71Z" style="fill:#929600"/><path d="M4.17,15.53h0a.1.1,0,0,0,0-.18h0a.13.13,0,0,0-.09,0,.17.17,0,0,0,0,.33s.07,0,.09-.06v0S4.18,15.51,4.17,15.53Z" style="fill:#929600"/><path d="M4.16,15.6Z" style="fill:#929600"/><path d="M4.17,15.57Z" style="fill:#929600"/><path d="M3.45,14.28a.1.1,0,0,0-.19,0,.36.36,0,0,0,0,.23.13.13,0,0,0,.21,0A.27.27,0,0,0,3.45,14.28Z" style="fill:#929600"/><path d="M5.44,12.49c0-.05,0-.11,0-.17a.11.11,0,0,0-.2,0,.46.46,0,0,0-.06.23c0,.09.08.2.19.2a.07.07,0,0,0,.06,0C5.45,12.61,5.43,12.55,5.44,12.49Z" style="fill:#929600"/><path d="M8.16,12.71a.13.13,0,0,0-.25-.06l0,.07a.5.5,0,0,0,0,.12A.12.12,0,0,0,8,13,.24.24,0,0,0,8.16,12.71Z" style="fill:#929600"/><path d="M2.21,23.35a.17.17,0,0,0-.06-.12s0-.07,0,0c-.07-.15-.31-.12-.29.05a.28.28,0,0,0,.17.23A.16.16,0,0,0,2.21,23.35Z" style="fill:#929600"/><path d="M2.92,22.08A.27.27,0,0,0,2.73,22c-.11,0-.12.14,0,.18l.05.07c0,.05.07.1.13.11a.08.08,0,0,0,.08,0C3,22.27,3,22.15,2.92,22.08Z" style="fill:#929600"/><path d="M4.61,22s0-.09,0-.11a.12.12,0,0,0-.23,0,.26.26,0,0,0,0,.15s0,.06,0,.09l0,0a.06.06,0,0,0,.08,0s.08-.05,0,0S4.62,22.1,4.61,22Z" style="fill:#929600"/><path d="M4.29,24.09a1.14,1.14,0,0,0-.1-.19c-.05-.07-.2-.07-.21,0s0,.35.15.39a.12.12,0,0,0,.14,0A.22.22,0,0,0,4.29,24.09Z" style="fill:#929600"/><path d="M5.75,23.94s0,0,0,0Z" style="fill:#929600"/><path d="M5.75,23.94h0Z" style="fill:#929600"/><path d="M5.75,23.87s0-.07,0,0a.11.11,0,0,0-.21,0,.13.13,0,0,0,0,.12.08.08,0,0,0,0,.05h0a.08.08,0,0,0,.1,0s0,0,0,0S5.77,23.89,5.75,23.87Z" style="fill:#929600"/><path d="M3.47,25.55a.48.48,0,0,0-.48,0,.1.1,0,0,0,0,.18,1.21,1.21,0,0,0,.38.06A.14.14,0,0,0,3.47,25.55Z" style="fill:#929600"/><path d="M5,25.77a.28.28,0,0,0-.22-.11c-.11,0-.19.16-.07.21a.72.72,0,0,1,.15.11.14.14,0,0,0,.19,0C5.11,25.88,5.06,25.82,5,25.77Z" style="fill:#929600"/><path d="M7.38,24.1c0-.08-.14-.12-.17,0s0,.37.12.31a.12.12,0,0,0,.07-.07A1.36,1.36,0,0,0,7.38,24.1Z" style="fill:#929600"/><path d="M6.66,25.48a.28.28,0,0,0-.22-.14.1.1,0,0,0-.07.19s.09.09.14.11a.12.12,0,0,0,.16-.05A.11.11,0,0,0,6.66,25.48Z" style="fill:#929600"/><path d="M8.56,25.51a.1.1,0,0,0-.2-.05l0,.21s0,.14.08.15.11,0,.13-.08A.93.93,0,0,0,8.56,25.51Z" style="fill:#929600"/><path d="M7,27.45c-.1-.22-.35-.13-.51-.05s-.05.25.08.25.31,0,.4-.08A.14.14,0,0,0,7,27.45Z" style="fill:#929600"/><path d="M8,27a.27.27,0,0,0-.14-.14.13.13,0,0,0-.08,0,.09.09,0,0,0-.07,0h0c-.07,0-.12.11-.06.16a.44.44,0,0,0,.14.16.14.14,0,0,0,.16,0A.14.14,0,0,0,8,27Z" style="fill:#929600"/><path d="M8.59,28.39a.33.33,0,0,0-.07-.21.46.46,0,0,0-.07-.07.21.21,0,0,0-.1,0c-.07,0-.11.06-.09.12v0s0,0,0,.05a.14.14,0,0,1,0,.07.31.31,0,0,0,.06.16.12.12,0,0,0,.21-.1Z" style="fill:#929600"/><path d="M11,26.63s0-.08,0-.12a.11.11,0,0,0-.18,0,.24.24,0,0,0,0,.27C10.86,26.86,11,26.76,11,26.63Z" style="fill:#929600"/><path d="M9.84,25.82a.25.25,0,0,0-.22.08l-.06.1s0,.06,0,.08,0,.07,0,0,.12.16.17.06l0,0,0,0A.52.52,0,0,0,9.9,26,.12.12,0,0,0,9.84,25.82Z" style="fill:#929600"/><path d="M10.51,25.22a.31.31,0,0,0-.1-.13l-.08,0c-.08-.08-.24,0-.19.12a.28.28,0,0,0,.27.19C10.48,25.37,10.53,25.28,10.51,25.22Z" style="fill:#929600"/><path d="M14.86,27.38a.25.25,0,0,0,0-.15.16.16,0,0,0-.3.1.25.25,0,0,0,.06.14A.16.16,0,0,0,14.86,27.38Z" style="fill:#929600"/><path d="M11.49,28.21a.42.42,0,0,0-.39-.09.15.15,0,0,0-.06.25c.15.11.41.14.48-.07A.1.1,0,0,0,11.49,28.21Z" style="fill:#929600"/><path d="M12.5,26.1a.35.35,0,0,0-.14-.27.11.11,0,0,0-.18.12.62.62,0,0,0,.1.22A.12.12,0,0,0,12.5,26.1Z" style="fill:#929600"/><path d="M12.79,27.72a.23.23,0,0,0-.18-.06c-.14,0-.18.21-.06.26l.09,0s-.06,0,0,0h0v0a.1.1,0,0,0,.12,0,.14.14,0,0,0,.06-.12A.15.15,0,0,0,12.79,27.72Z" style="fill:#929600"/><path d="M13.71,28.94a.2.2,0,0,0-.32,0,.09.09,0,0,0,.15.09h0a.21.21,0,0,0,.11,0A.08.08,0,0,0,13.71,28.94Z" style="fill:#929600"/><path d="M16.82,27.82a.58.58,0,0,0-.31.13c-.07.07,0,.18.1.15l.25-.07C17,28,16.94,27.8,16.82,27.82Z" style="fill:#929600"/><path d="M13.5,24.61a.15.15,0,0,0-.26,0c-.05.11-.08.33,0,.41a.18.18,0,0,0,.21,0C13.61,25,13.58,24.73,13.5,24.61Z" style="fill:#929600"/><path d="M7.32,22.4a.26.26,0,0,0-.23-.18c-.12,0-.18.19-.07.25l0,0,0,.05C7.19,22.65,7.38,22.53,7.32,22.4Z" style="fill:#929600"/><path d="M8.65,21.73a.12.12,0,0,0-.22,0,.31.31,0,0,0,0,.21,0,0,0,0,1,0,0,.11.11,0,0,0,.18,0l0,0A.26.26,0,0,0,8.65,21.73Z" style="fill:#929600"/><path d="M8.38,16.32a.12.12,0,0,0-.14-.07h0a.08.08,0,0,0-.05.13s0,0,0,0,0,.07,0,0l0,.07a.1.1,0,0,0,.19,0A.18.18,0,0,0,8.38,16.32Z" style="fill:#929600"/><path d="M11.39,13.75a.11.11,0,0,0-.21-.05.37.37,0,0,0,0,.18c0,.12.17.15.22,0A.38.38,0,0,0,11.39,13.75Z" style="fill:#929600"/><path d="M10.18,13.17a.16.16,0,0,0-.21,0,.18.18,0,0,0-.09.08.08.08,0,0,0,0,0v0h0a0,0,0,0,0,0,.06H10l.1,0C10.14,13.34,10.23,13.25,10.18,13.17Z" style="fill:#929600"/><path d="M9.84,10.51l0-.06a.12.12,0,0,0-.23,0c0,.11,0,.16.12.22S9.89,10.6,9.84,10.51Z" style="fill:#929600"/><path d="M10.42,8.56a.07.07,0,0,0,0,.12s0,.12.12.12a.07.07,0,0,0,.06,0A.14.14,0,0,0,10.42,8.56Z" style="fill:#929600"/><path d="M13.33,7.83s-.06-.06-.08,0a.2.2,0,0,0,0,.11s0,0,0,0A.21.21,0,0,0,13.33,7.83Z" style="fill:#929600"/><path d="M12.35,10.22a.08.08,0,0,0-.15,0,.74.74,0,0,0,0,.26s.07.05.09,0A.26.26,0,0,0,12.35,10.22Z" style="fill:#929600"/><polygon points="18.88 19.09 18.87 19.09 18.87 19.09 18.88 19.09" style="fill:#929600"/><path d="M18.89,19.13a.05.05,0,0,0,0,0s0,0,0,0,0,0,0,0,0,0,0,0v0a.12.12,0,0,0-.23-.05.19.19,0,0,0,0,.24A.13.13,0,0,0,18.89,19.13Z" style="fill:#929600"/><path d="M20.71,16a.14.14,0,0,0-.26-.06.88.88,0,0,0-.05.15.15.15,0,0,0,.3.07A.92.92,0,0,0,20.71,16Z" style="fill:#929600"/><path d="M18.55,12.56a.08.08,0,0,0,0-.05.08.08,0,0,0,0,0h0c0-.08-.17-.09-.18,0s.07.21.17.16A.08.08,0,0,0,18.55,12.56Z" style="fill:#929600"/><path d="M19.47,10.92c0-.05-.13,0-.11.05s0,.1.05.14,0,0,.05,0A.18.18,0,0,0,19.47,10.92Z" style="fill:#929600"/><path d="M21.09,26.2a.18.18,0,0,0-.19-.07.39.39,0,0,0-.21.21c0,.08,0,.21.07.24h0a.07.07,0,0,0,.11,0l0,0,.06,0a.38.38,0,0,0,.13-.15A.18.18,0,0,0,21.09,26.2Z" style="fill:#929600"/><path d="M3.19,21.42l0-.07h0c0-.1-.15-.12-.2,0a.28.28,0,0,0,.07.3.11.11,0,0,0,.18-.06A.49.49,0,0,0,3.19,21.42Z" style="fill:#f6f98f;opacity:0.4"/><path d="M4.68,19.12c0-.06,0-.13,0-.2s0-.06-.06-.06a.17.17,0,0,0-.17.07.27.27,0,0,0,0,.25C4.43,19.34,4.69,19.28,4.68,19.12Z" style="fill:#f6f98f;opacity:0.4"/><path d="M4.45,17.3s0,0,0,0l0,0h0a.12.12,0,0,0-.21,0,.27.27,0,0,0,0,.12.77.77,0,0,0,0,.15.13.13,0,0,0,.24,0A.21.21,0,0,0,4.45,17.3Z" style="fill:#f6f98f;opacity:0.4"/><path d="M4.53,14.9c-.08-.09-.21,0-.18.12a.13.13,0,0,1,0,.05.21.21,0,0,0,0,.15c0,.08.14.06.19,0A.23.23,0,0,0,4.53,14.9Z" style="fill:#f6f98f;opacity:0.4"/><path d="M3.84,13.77a.35.35,0,0,0-.1-.21c-.07-.07-.2,0-.17.11s0,.33.17.28A.18.18,0,0,0,3.84,13.77Z" style="fill:#f6f98f;opacity:0.4"/><path d="M7.43,14a.12.12,0,0,0-.23,0,.63.63,0,0,0-.1.27.13.13,0,0,0,.16.11A.32.32,0,0,0,7.43,14Z" style="fill:#f6f98f;opacity:0.4"/><path d="M6.63,12.71a.06.06,0,0,1,0,0l0,0a.12.12,0,0,0-.19-.1.16.16,0,0,0-.07.17.23.23,0,0,0,.13.17A.12.12,0,0,0,6.63,12.71Z" style="fill:#f6f98f;opacity:0.4"/><path d="M8.13,11.48c0-.13-.2-.17-.24-.06a.5.5,0,0,0,0,.21c0,.07.06.18.14.18S8.12,11.58,8.13,11.48Z" style="fill:#f6f98f;opacity:0.4"/><path d="M2.07,19A.83.83,0,0,0,2,18.81a.1.1,0,0,0-.18,0,.26.26,0,0,0,.06.32A.11.11,0,0,0,2.07,19Z" style="fill:#f6f98f;opacity:0.4"/><path d="M1.92,21.07a.11.11,0,0,0-.13.15,1,1,0,0,0,.08.14.34.34,0,0,0,.09.12c.06,0,.16.05.19,0A.3.3,0,0,0,1.92,21.07Z" style="fill:#f6f98f;opacity:0.4"/><path d="M3.65,20.86a.18.18,0,0,0-.17-.12c-.09,0-.11.13,0,.18s0,0,0,0a.19.19,0,0,0,0,.1.08.08,0,0,0,.1,0A.16.16,0,0,0,3.65,20.86Z" style="fill:#f6f98f;opacity:0.4"/><path d="M2,22.25a.09.09,0,0,0-.14.09.58.58,0,0,0,.15.29.1.1,0,0,0,.16-.05C2.16,22.46,2.05,22.32,2,22.25Z" style="fill:#f6f98f;opacity:0.4"/><path d="M2.26,24.76A.4.4,0,0,0,2,24.65c-.09,0-.16.14-.07.21l.11.08a.23.23,0,0,0,.22.06C2.32,25,2.32,24.83,2.26,24.76Z" style="fill:#f6f98f;opacity:0.4"/><path d="M3.63,24a.28.28,0,0,0-.25-.23.13.13,0,0,0-.12.14h0a.12.12,0,0,0,.1.12l0,0a.26.26,0,0,0,.12.05A.11.11,0,0,0,3.63,24Z" style="fill:#f6f98f;opacity:0.4"/><path d="M5.36,23c0-.08-.09-.1-.16-.15a.09.09,0,0,0-.15.1.42.42,0,0,0,.1.17.17.17,0,0,0,.18,0A.12.12,0,0,0,5.36,23Z" style="fill:#f6f98f;opacity:0.4"/><path d="M6.39,21.47c-.07-.07-.19,0-.16.11a.59.59,0,0,1,0,.14.31.31,0,0,0,.08.13,0,0,0,0,0,.07,0C6.55,21.77,6.49,21.57,6.39,21.47Z" style="fill:#f6f98f;opacity:0.4"/><path d="M6.22,24.7c-.11-.08-.21.09-.13.17l.1.15a.28.28,0,0,0,.13.11.06.06,0,0,0,.08,0C6.5,24.94,6.34,24.78,6.22,24.7Z" style="fill:#f6f98f;opacity:0.4"/><path d="M5.57,26.41a.4.4,0,0,0-.18-.07.14.14,0,0,0-.06.28.41.41,0,0,0,.19,0A.13.13,0,0,0,5.57,26.41Z" style="fill:#f6f98f;opacity:0.4"/><path d="M8.05,26.24A1.49,1.49,0,0,0,7.92,26a.12.12,0,0,0-.12-.08.12.12,0,0,0-.11.13.5.5,0,0,0,.15.34A.13.13,0,0,0,8.05,26.24Z" style="fill:#f6f98f;opacity:0.4"/><path d="M8.67,24.37h0Z" style="fill:#f6f98f;opacity:0.4"/><path d="M8.7,24.2A.3.3,0,0,0,8.48,24c-.14,0-.23.18-.09.25a.65.65,0,0,1,.15.1.17.17,0,0,0,.12,0l0,0A.12.12,0,0,0,8.7,24.2Z" style="fill:#f6f98f;opacity:0.4"/><path d="M9.88,23.74l-.07-.14c-.05-.12-.27-.1-.24,0s.07.31.24.34a.09.09,0,0,0,.09-.06A.25.25,0,0,0,9.88,23.74Z" style="fill:#f6f98f;opacity:0.4"/><path d="M11.35,25.17a.29.29,0,0,0-.32,0,.15.15,0,0,0-.06.16.15.15,0,0,0,.13.1h0a.3.3,0,0,0,.09.13.14.14,0,0,0,.22,0A.26.26,0,0,0,11.35,25.17Z" style="fill:#f6f98f;opacity:0.4"/><path d="M10,27.91a.46.46,0,0,0-.38-.12.14.14,0,0,0-.05.27.45.45,0,0,0,.39,0A.14.14,0,0,0,10,27.91Z" style="fill:#f6f98f;opacity:0.4"/><path d="M11.7,26.79c-.07-.08-.17,0-.13.11s.11.19.22.21a.08.08,0,0,0,.09-.06C11.9,26.92,11.78,26.87,11.7,26.79Z" style="fill:#f6f98f;opacity:0.4"/><path d="M14.79,26.35h0a.15.15,0,0,0-.15-.17.23.23,0,0,0-.21.13.26.26,0,0,0,0,.21.36.36,0,0,0,0,.09.13.13,0,0,0,.19,0s0,0,.06-.05a.25.25,0,0,0,.08-.14h0A.15.15,0,0,0,14.79,26.35Z" style="fill:#f6f98f;opacity:0.4"/><path d="M14.09,27.65a.31.31,0,0,0,0-.13L14,27.4a.76.76,0,0,0-.2-.2.11.11,0,0,0-.16.1.61.61,0,0,0,.14.29c.07.1.18.19.31.13A.07.07,0,0,0,14.09,27.65Z" style="fill:#f6f98f;opacity:0.4"/><path d="M14.67,28.33a.12.12,0,0,0-.2.12c0,.13.12.3.26.32a.1.1,0,0,0,.12-.08C14.89,28.55,14.77,28.41,14.67,28.33Z" style="fill:#f6f98f;opacity:0.4"/><path d="M15.56,24.69a2.26,2.26,0,0,1,0-.26.1.1,0,0,0-.2,0c-.08.14-.14.5.09.53S15.57,24.77,15.56,24.69Z" style="fill:#f6f98f;opacity:0.4"/><path d="M7.08,18.35c0-.07-.07-.12-.09-.18s-.12-.1-.16,0a.28.28,0,0,0,0,.37A.14.14,0,0,0,7.08,18.35Z" style="fill:#f6f98f;opacity:0.4"/><path d="M6.64,16.19a.14.14,0,0,0,0,.27A.14.14,0,0,0,6.64,16.19Z" style="fill:#f6f98f;opacity:0.4"/><path d="M6.7,14.9a1.27,1.27,0,0,0-.13-.19.13.13,0,0,0-.22.13.38.38,0,0,0,.22.21A.12.12,0,0,0,6.7,14.9Z" style="fill:#f6f98f;opacity:0.4"/><path d="M8.27,14.88a.77.77,0,0,1,0-.15.1.1,0,0,0-.2-.05c0,.1-.08.34.08.35a.08.08,0,0,0,.09,0A.21.21,0,0,0,8.27,14.88Z" style="fill:#f6f98f;opacity:0.4"/><path d="M10,11.82a.14.14,0,0,0-.26-.06.26.26,0,0,0,0,.19.14.14,0,0,0,.26.06A.22.22,0,0,0,10,11.82Z" style="fill:#f6f98f;opacity:0.4"/><path d="M8.9,9.84a.14.14,0,0,0-.12.1.13.13,0,0,0,.07.14s0,0,0,0,0,0,0,.05a.13.13,0,0,0,.23,0A.21.21,0,0,0,8.9,9.84Z" style="fill:#f6f98f;opacity:0.4"/><path d="M6.86,11.24c-.22,0-.61.26-.46.51a.11.11,0,0,0,.12,0l.2-.08A.83.83,0,0,0,7,11.52.17.17,0,0,0,6.86,11.24Z" style="fill:#f6f98f;opacity:0.4"/><path d="M11.34,11.86c-.18-.13-.39.08-.43.25a.13.13,0,0,0,.2.14.64.64,0,0,0,.13-.1.31.31,0,0,0,.13-.17A.13.13,0,0,0,11.34,11.86Z" style="fill:#f6f98f;opacity:0.4"/><path d="M25.91,2.29C25.58.78,22.42-.15,20.73.08c-2.07.27-4.19,1.74-4.09,3.3.07,1.06,3.05,2.1,4.93,2C24.39,5.27,26.09,3.14,25.91,2.29Z" style="fill:#a2b800"/><path d="M22.2,2.41a17.69,17.69,0,0,0,2.63-.11,5,5,0,0,0,1-.24c-.58-1.38-3.5-2.2-5.1-2-1.92.25-3.88,1.53-4.07,3A33.22,33.22,0,0,1,22.2,2.41Z" style="fill:#9aa600"/><path d="M23.11,1.2a.62.62,0,0,0-.35-.54,2.74,2.74,0,0,0-2.34,0,.54.54,0,0,0,.18,1,4,4,0,0,0,.85.12,4.61,4.61,0,0,0,1.05.08.68.68,0,0,0,.6-.51A.49.49,0,0,0,23.11,1.2Z" style="fill:#afc700"/><path d="M24.54,1.57a.36.36,0,0,0-.26-.22.2.2,0,0,0-.11,0,.46.46,0,0,0-.3.06.29.29,0,0,0-.09.41.41.41,0,0,0,.17.15l.11,0c-.1,0,0,0,0,0a.35.35,0,0,0,.47-.14A.36.36,0,0,0,24.54,1.57Z" style="fill:#afc700"/><path d="M17.75,3.51a1.25,1.25,0,0,0-.15-.28c-.08-.09-.24-.06-.23.07a1.12,1.12,0,0,0,.1.31c0,.09.11.21.22.23a.1.1,0,0,0,.1,0A.33.33,0,0,0,17.75,3.51Z" style="fill:#9aa600"/><path d="M19.32,4.6a2.81,2.81,0,0,0-.47-.8c-.14-.23-.31-.6-.59-.67a.05.05,0,0,0-.07.06c0,.27.27.55.4.77s.32.63.61.74A.09.09,0,0,0,19.32,4.6Z" style="fill:#9aa600"/><path d="M20.81,5c-.07-.37-.49-.74-.71-1a3.52,3.52,0,0,0-.88-1,.07.07,0,0,0-.1.08,6,6,0,0,0,.77,1.18c.21.3.45.75.81.86C20.78,5.14,20.83,5.05,20.81,5Z" style="fill:#9aa600"/><path d="M21.17,3.62a1.91,1.91,0,0,0-.89-.75c-.06,0-.11.06-.07.1.25.35.55.68.79,1s.36.7.7.8c.06,0,.11,0,.11-.1C21.81,4.34,21.39,3.91,21.17,3.62Z" style="fill:#9aa600"/><path d="M23.34,4.51a2.74,2.74,0,0,0-.78-.92,5.78,5.78,0,0,0-.94-.91.11.11,0,0,0-.15.13,3.4,3.4,0,0,0,.73,1c.27.29.59.75,1,.89A.13.13,0,0,0,23.34,4.51Z" style="fill:#9aa600"/><path d="M24.14,4c-.07-.29-.39-.51-.59-.71s-.49-.56-.82-.6c-.06,0-.13,0-.1.11a2.43,2.43,0,0,0,.59.69c.22.22.46.6.79.66A.12.12,0,0,0,24.14,4Z" style="fill:#9aa600"/><path d="M24.74,3.46c0-.19-.21-.33-.33-.45a1.44,1.44,0,0,0-.48-.38.09.09,0,0,0-.1.11,1.59,1.59,0,0,0,.36.5c.12.13.27.33.47.31A.08.08,0,0,0,24.74,3.46Z" style="fill:#9aa600"/><path d="M25.15,3A.54.54,0,0,0,25,2.72a1.05,1.05,0,0,0-.25-.18c-.09,0-.21,0-.17.14a1.5,1.5,0,0,0,.19.25.61.61,0,0,0,.24.18A.12.12,0,0,0,25.15,3Z" style="fill:#9aa600"/><path d="M12.27,22.33s0,0,0-.08-.05,0-.05,0,0,.06.06.07S12.28,22.34,12.27,22.33Z" style="fill:#fff;opacity:0.4"/></g></svg>