<svg xmlns="http://www.w3.org/2000/svg" xmlns:xlink="http://www.w3.org/1999/xlink" viewBox="0 0 29 29"><defs><clipPath id="clip-path"><path id="_剪裁路徑_" data-name="&lt;剪裁路徑&gt;" d="M11.45,2.51C8.75,1.91,5.48,2.28,4,5a4.2,4.2,0,0,0,.77,5,24,24,0,0,0,2,2.45c1.15,1.31,2.38,2.56,3.41,4,1.19,1.65,2.07,3.5,3.09,5.26,2.37,4.06,7.21,9,12.07,5.72a8,8,0,0,0,3.32-6.91c-.18-3-2.28-5.55-3.87-7.87C21.59,7.94,17.1,3.77,11.45,2.51Z" style="fill:none"/></clipPath></defs><title>fruit</title><g style="isolation:isolate"><g id="圖層_1" data-name="圖層 1"><g id="_群組_" data-name="&lt;群組&gt;"><g id="_剪裁群組_" data-name="&lt;剪裁群組&gt;"><g style="clip-path:url(#clip-path)"><g id="_群組_2" data-name="&lt;群組&gt;"><path id="_路徑_" data-name="&lt;路徑&gt;" d="M11.45,2.51C8.75,1.91,5.48,2.28,4,5a4.2,4.2,0,0,0,.77,5,24,24,0,0,0,2,2.45c1.15,1.31,2.38,2.56,3.41,4,1.19,1.65,2.07,3.5,3.09,5.26,2.37,4.06,7.21,9,12.07,5.72a8,8,0,0,0,3.32-6.91c-.18-3-2.28-5.55-3.87-7.87C21.59,7.94,17.1,3.77,11.45,2.51Z" style="fill:#843e7c"/></g><g id="_群組_3" data-name="&lt;群組&gt;" style="opacity:0.15;mix-blend-mode:multiply"><g id="_群組_4" data-name="&lt;群組&gt;"><path id="_路徑_2" data-name="&lt;路徑&gt;" d="M9.16-3.18l-5,8.08,6.93,6.42s12,14.91,22.14,2.31c0,0-.44,20.31-1.18,20.65s-18.4-.35-18.51-.6-1-12-1-12L0,1.58Z" style="fill:#7f3b78"/></g></g></g></g><g id="_群組_5" data-name="&lt;群組&gt;"><g id="_群組_6" data-name="&lt;群組&gt;"><path id="_路徑_3" data-name="&lt;路徑&gt;" d="M3.8,5.36a10.48,10.48,0,0,0,1.45,6.5A6.69,6.69,0,0,0,3.86,6" style="fill:#00a953"/></g><g id="_群組_7" data-name="&lt;群組&gt;"><g id="_群組_8" data-name="&lt;群組&gt;"><path id="_路徑_4" data-name="&lt;路徑&gt;" d="M3.78,5.35c-.59.8-.26,2.33-.08,3.23A11.51,11.51,0,0,0,5,12c.13.23.43.06.47-.14A7,7,0,0,0,4.06,5.81a.26.26,0,0,0-.4.33A6.66,6.66,0,0,1,5,11.82l.48-.13A10.43,10.43,0,0,1,4.14,8.14c-.15-.87.06-2-.33-2.79Z" style="fill:#00a953"/></g></g></g><g id="_群組_9" data-name="&lt;群組&gt;"><g id="_群組_10" data-name="&lt;群組&gt;"><path id="_路徑_5" data-name="&lt;路徑&gt;" d="M4,5.31c-.06.16.09.33.24.41,1.15.68,2.58-.13,3.61-1,1.21-1,2.45-2.47,2.09-4C8.5,2.75,5.07,2.59,3.85,4.81" style="fill:#00a953"/></g><g id="_群組_11" data-name="&lt;群組&gt;"><g id="_群組_12" data-name="&lt;群組&gt;"><path id="_路徑_6" data-name="&lt;路徑&gt;" d="M4,5.31c-.2,1.51,2.65.46,3.14.16,1.6-1,3.33-2.73,3-4.81a.2.2,0,0,0-.36-.1c-1.69,2-4.71,1.83-6.15,4.09-.18.29.24.61.42.32C5.48,2.75,8.56,2.91,10.11.81L9.75.72C10,2.27,9,3.52,7.89,4.46,7.18,5.08,4.8,6.8,4,5.3c0,0,0,0,0,0Z" style="fill:#00a953"/></g></g></g><g id="_群組_13" data-name="&lt;群組&gt;"><g id="_群組_14" data-name="&lt;群組&gt;"><path id="_路徑_7" data-name="&lt;路徑&gt;" d="M4.11,5.28A6.31,6.31,0,0,0,8.7,9.88c-.65-.62-.7-1.63-1-2.46A3.6,3.6,0,0,0,5.53,5.36" style="fill:#00a953"/></g><g id="_群組_15" data-name="&lt;群組&gt;"><g id="_群組_16" data-name="&lt;群組&gt;"><path id="_路徑_8" data-name="&lt;路徑&gt;" d="M4.06,5.29A6.27,6.27,0,0,0,8.65,10c.12,0,.26-.1.16-.22-.73-.87-.71-2-1.28-3a3.23,3.23,0,0,0-2-1.52.09.09,0,0,0-.07.17A4.23,4.23,0,0,1,7.71,8,5,5,0,0,0,8.59,10l.16-.23a6.6,6.6,0,0,1-4.6-4.48,0,0,0,0,0-.09,0Z" style="fill:#00a953"/></g></g></g><g id="_群組_17" data-name="&lt;群組&gt;"><g id="_群組_18" data-name="&lt;群組&gt;"><path id="_路徑_9" data-name="&lt;路徑&gt;" d="M4.78,5.21a.32.32,0,0,0-.23.34.66.66,0,0,0-.3-.63l0,.72" style="fill:#00a953"/></g><g id="_群組_19" data-name="&lt;群組&gt;"><g id="_群組_20" data-name="&lt;群組&gt;"><path id="_路徑_10" data-name="&lt;路徑&gt;" d="M4.78,5.17l-.12,0-.13,0a.43.43,0,0,0-.15.29c0,.21.27.28.34.09a.82.82,0,0,0-.35-.87A.21.21,0,0,0,4,4.89C4,5,4,5.13,4,5.25a2.31,2.31,0,0,0,0,.37.27.27,0,0,0,.53,0,4.34,4.34,0,0,0,0-.72l-.32.2a.52.52,0,0,1,.19.2,2.47,2.47,0,0,1,.06.29l.34-.1a.2.2,0,0,1,0-.13s0,0,0-.06a.26.26,0,0,1,.09,0s0-.08,0-.07Z" style="fill:#00a953"/></g></g></g><g id="_群組_21" data-name="&lt;群組&gt;"><g id="_群組_22" data-name="&lt;群組&gt;"><path id="_路徑_11" data-name="&lt;路徑&gt;" d="M5.06,5.83a.48.48,0,0,0-.18.65,1.13,1.13,0,0,0,0-1.14.71.71,0,0,0-.46.49.23.23,0,0,0,.11-.38l0,.63,0-.79A1.17,1.17,0,0,0,4.68,6" style="fill:#00a953"/></g><g id="_群組_23" data-name="&lt;群組&gt;"><g id="_群組_24" data-name="&lt;群組&gt;"><path id="_路徑_12" data-name="&lt;路徑&gt;" d="M5.06,5.81a.54.54,0,0,0-.31.73.14.14,0,0,0,.24,0A1.22,1.22,0,0,0,5,5.28a.15.15,0,0,0-.21-.09.92.92,0,0,0-.58.56c-.05.14.06.33.21.29a.45.45,0,0,0,.25-.72.21.21,0,0,0-.37.11c0,.21-.05.41-.08.62l.51.06a4.17,4.17,0,0,0,0-.79.23.23,0,1,0-.46-.06,1.25,1.25,0,0,0,.07.81c.18.35.71.13.55-.23a1.21,1.21,0,0,1-.16-.52L4.3,5.26a4.15,4.15,0,0,0-.06.86c0,.34.54.26.51-.08s0-.37,0-.56l-.37.11s0,0,0,0l.27.27a.54.54,0,0,1,.33-.41l-.19,0a1.06,1.06,0,0,1,0,1l.24,0a.39.39,0,0,1,.09-.54s0,0,0,0Z" style="fill:#00a953"/></g></g></g><g id="_群組_25" data-name="&lt;群組&gt;"><g id="_群組_26" data-name="&lt;群組&gt;"><path id="_路徑_13" data-name="&lt;路徑&gt;" d="M.94,5.05A5.93,5.93,0,0,1,5.4,6.13" style="fill:#00a953"/></g><g id="_群組_27" data-name="&lt;群組&gt;"><g id="_群組_28" data-name="&lt;群組&gt;"><path id="_路徑_14" data-name="&lt;路徑&gt;" d="M1,5.74a5.37,5.37,0,0,1,4,1,.69.69,0,0,0,.8-1.13A6.8,6.8,0,0,0,.85,4.35.7.7,0,0,0,1,5.74Z" style="fill:#00a953"/></g></g></g><g id="_群組_29" data-name="&lt;群組&gt;"><g id="_群組_30" data-name="&lt;群組&gt;"><path id="_路徑_15" data-name="&lt;路徑&gt;" d="M11.62,4A28.44,28.44,0,0,1,26.68,20.19a.08.08,0,0,0,.14-.06A26.57,26.57,0,0,0,11.7,3.76c-.13-.06-.22.16-.08.22Z" style="fill:#fff"/></g></g></g></g></g></svg>