<svg xmlns="http://www.w3.org/2000/svg" viewBox="0 0 44.42 34.52"><title>win</title><g id="圖層_2" data-name="圖層 2"><g id="示例"><circle cx="17.26" cy="17.26" r="16.51" transform="translate(-4.93 7.08) rotate(-20.35)" style="fill:none;stroke:#d4145a;stroke-miterlimit:10;stroke-width:1.5px"/><path d="M15.11,14.3l.19,8.6A1,1,0,0,1,14.61,24a1,1,0,0,1-1.28-.53l-3.11-5.92.33,6.72a.92.92,0,0,1-.72,1,1,1,0,0,1-1.2-.53L4.13,16.84q-.56-1-.57-1a.89.89,0,0,1,.11-.68.88.88,0,0,1,.56-.43.87.87,0,0,1,.77.08,2.38,2.38,0,0,1,.63.84l3.1,5.82-.38-6.9a1.76,1.76,0,0,1,.11-.79A.79.79,0,0,1,9,13.37a1,1,0,0,1,1.26.62L13.5,20.1l-.32-6.69q-.06-1.18.69-1.39a1,1,0,0,1,.76.08.92.92,0,0,1,.44.55S15.09,13.24,15.11,14.3Z" style="fill:#d4145a"/><path d="M19.81,22.54q-.86.24-1.15-.81L16.11,12.5q-.29-1,.57-1.27a.92.92,0,0,1,1.26.76l2.56,9.25A.92.92,0,0,1,19.81,22.54Z" style="fill:#d4145a"/><path d="M30.23,19.7a1.19,1.19,0,0,1-1.1-.29l-7.29-5.81,1.87,6.75a.92.92,0,0,1-.69,1.3q-.88.24-1.17-.8l-2.56-9.23q-.29-1,.6-1.27A1.19,1.19,0,0,1,21,10.6l7.17,5.71L26.35,9.67q-.29-1,.58-1.27a.93.93,0,0,1,1.27.76l2.56,9.25Q31.06,19.47,30.23,19.7Z" style="fill:#d4145a"/><polygon points="41.59 11.49 44.42 8.66 41.23 7.81 40.38 4.62 37.55 7.45 38.24 10.04 28.64 19.64 27.27 16.93 26.39 20.23 25.5 23.54 28.81 22.66 32.12 21.77 29.4 20.41 39.01 10.8 41.59 11.49" style="fill:#1695a4"/><polygon points="41.23 7.81 40.38 4.62 37.55 7.45 38.24 10.04 28.64 19.64 27.27 16.93 26.39 20.23 25.5 23.54 41.23 7.81" style="fill:#15b0bf"/></g></g></svg>