<svg xmlns="http://www.w3.org/2000/svg" viewBox="0 0 44.42 34.52"><title>win_Thai</title><g id="圖層_2" data-name="圖層 2"><g id="示例"><circle cx="17.26" cy="17.26" r="16.51" transform="translate(-4.93 7.08) rotate(-20.35)" style="fill:none;stroke:#d4145a;stroke-miterlimit:10;stroke-width:1.5px"/><path d="M5.8,15a4.18,4.18,0,0,1,1.27-.17,2.59,2.59,0,0,1,1,.23,2.19,2.19,0,0,1,.74.57,3.56,3.56,0,0,1,.52.84,2.19,2.19,0,0,0-.92,1.35,4.09,4.09,0,0,0,.11,2.05l.66,2.4,1.88-.52a1,1,0,0,0,.7-.55,1.41,1.41,0,0,0,0-1l-.89-3.22a2.53,2.53,0,0,0-.23-.57,2.06,2.06,0,0,0-.31-.43,1.48,1.48,0,0,0-.36-.28,1,1,0,0,0-.38-.13L9.48,15a2.12,2.12,0,0,0,.83-.85,2.23,2.23,0,0,0,.22-1.1l1.22-.34a2,2,0,0,1-.07.71,2.47,2.47,0,0,1-.28.63,3.19,3.19,0,0,1-.43.53,3.59,3.59,0,0,1-.5.42,1.21,1.21,0,0,1,.46.1,1.56,1.56,0,0,1,.46.29,2.12,2.12,0,0,1,.4.49,2.8,2.8,0,0,1,.29.7l.91,3.3a3.66,3.66,0,0,1,.13.85,2.05,2.05,0,0,1-.14.83,1.92,1.92,0,0,1-.51.71,2.42,2.42,0,0,1-1,.49l-3.16.88-1-3.54a4,4,0,0,1-.12-2,2.5,2.5,0,0,1,.92-1.39,1.41,1.41,0,0,0-.23-.37,1.22,1.22,0,0,0-.4-.31,1.55,1.55,0,0,0-.61-.14A2.7,2.7,0,0,0,6,16a2.78,2.78,0,0,0-.95.45,1.24,1.24,0,0,0-.49.66l.11-.06.14,0a1.37,1.37,0,0,1,.57,0,1.34,1.34,0,0,1,.51.18,1.44,1.44,0,0,1,.41.38,1.74,1.74,0,0,1,.32,1.15,1.51,1.51,0,0,1-.15.54,1.3,1.3,0,0,1-.34.42A1.47,1.47,0,0,1,5,20a1.32,1.32,0,0,1-.56-.26A1.8,1.8,0,0,1,4,19.18a3.07,3.07,0,0,1-.3-.72,3.33,3.33,0,0,1-.11-1,2.53,2.53,0,0,1,.24-1,2.58,2.58,0,0,1,.7-.89A3.29,3.29,0,0,1,5.8,15Zm.08,3.35a.68.68,0,0,0-.31-.41.59.59,0,0,0-.48-.07.56.56,0,0,0-.22.12.62.62,0,0,0-.15.19.67.67,0,0,0-.07.25.74.74,0,0,0,0,.27.67.67,0,0,0,.3.41.58.58,0,0,0,.48.07A.6.6,0,0,0,5.66,19a.62.62,0,0,0,.16-.19.67.67,0,0,0,.07-.24A.69.69,0,0,0,5.87,18.32Z" style="fill:#d4145a"/><path d="M17.66,19.49a3.49,3.49,0,0,1,.5-.78,6.06,6.06,0,0,1,.66-.68,5.69,5.69,0,0,1,.73-.55,6.77,6.77,0,0,1,.72-.39l-1.53-5.53,1.17-.33,1.52,5.5a2.87,2.87,0,0,1,.78,0,2.18,2.18,0,0,1,.72.19,1.73,1.73,0,0,1,.57.43,1.67,1.67,0,0,1,.36.68,1.5,1.5,0,0,1-.08,1.14,1.53,1.53,0,0,1-1,.7,2.31,2.31,0,0,1-.79.1,1.32,1.32,0,0,1-.59-.18,1.24,1.24,0,0,1-.41-.43,2.64,2.64,0,0,1-.27-.65l-.2-.74a3.66,3.66,0,0,0-.71.5,6.52,6.52,0,0,0-1.34,1.64,3.63,3.63,0,0,0-.38.91l-1.17.32-1.6-5.79-.09,0-.09,0A1.35,1.35,0,0,1,14,15.43a1.47,1.47,0,0,1-.41-.38,1.73,1.73,0,0,1-.32-1.15,1.49,1.49,0,0,1,.15-.54,1.32,1.32,0,0,1,.34-.42,1.37,1.37,0,0,1,1.59-.11,1.46,1.46,0,0,1,.41.38,1.64,1.64,0,0,1,.26.55Zm-3.54-5.19a.68.68,0,0,0,.31.41.59.59,0,0,0,.48.07.57.57,0,0,0,.22-.12.61.61,0,0,0,.15-.19.66.66,0,0,0,.07-.24.73.73,0,0,0,0-.27.67.67,0,0,0-.3-.41.59.59,0,0,0-.48-.07.62.62,0,0,0-.38.31.69.69,0,0,0-.07.24A.7.7,0,0,0,14.11,14.29Zm7.81,4.24a.63.63,0,0,0,.26.41.44.44,0,0,0,.35,0,.43.43,0,0,0,.27-.22.65.65,0,0,0,0-.49,1,1,0,0,0-.16-.33.9.9,0,0,0-.26-.24,1.07,1.07,0,0,0-.34-.13,1.12,1.12,0,0,0-.39,0Z" style="fill:#d4145a"/><path d="M25.85,11.52a1.52,1.52,0,0,1,0,.29.72.72,0,0,1,0,.31,2.84,2.84,0,0,0,.59-.45A4.62,4.62,0,0,0,27,11a5.11,5.11,0,0,0,.46-.81,3.78,3.78,0,0,0,.28-.87l.39,1.41a4.49,4.49,0,0,1-.38.72,4.26,4.26,0,0,1-.58.72,4.34,4.34,0,0,1-.8.62,3.92,3.92,0,0,1-1,.44,2.24,2.24,0,0,1-.75.09,1.52,1.52,0,0,1-.61-.16,1.33,1.33,0,0,1-.44-.37,1.59,1.59,0,0,1-.26-.54,1.56,1.56,0,0,1-.05-.57,1.42,1.42,0,0,1,.15-.51,1.27,1.27,0,0,1,.32-.4,1.34,1.34,0,0,1,1-.28,1.32,1.32,0,0,1,.49.18,1.42,1.42,0,0,1,.39.36A1.55,1.55,0,0,1,25.85,11.52ZM24,12a.62.62,0,0,0,.27.38.54.54,0,0,0,.44.06.53.53,0,0,0,.34-.27.62.62,0,0,0,0-.46.6.6,0,0,0-.27-.37.52.52,0,0,0-.43-.06.53.53,0,0,0-.34.28A.6.6,0,0,0,24,12ZM27.08,16a1.49,1.49,0,0,1,0,.28.71.71,0,0,1,0,.31,2.83,2.83,0,0,0,.59-.45,4.56,4.56,0,0,0,.56-.68,5,5,0,0,0,.46-.81,3.77,3.77,0,0,0,.28-.87l.39,1.41a4.45,4.45,0,0,1-.38.72,4.23,4.23,0,0,1-.58.72,4.35,4.35,0,0,1-.8.62,3.93,3.93,0,0,1-1,.44,2.21,2.21,0,0,1-.75.09,1.53,1.53,0,0,1-.6-.16,1.32,1.32,0,0,1-.44-.37,1.57,1.57,0,0,1-.26-.54,1.54,1.54,0,0,1-.05-.57,1.45,1.45,0,0,1,.15-.51,1.23,1.23,0,0,1,.32-.4,1.33,1.33,0,0,1,1-.28,1.28,1.28,0,0,1,.49.18,1.41,1.41,0,0,1,.39.36A1.54,1.54,0,0,1,27.08,16Zm-1.83.5a.61.61,0,0,0,.27.38.53.53,0,0,0,.44.06.52.52,0,0,0,.34-.27.61.61,0,0,0,0-.46.6.6,0,0,0-.27-.37.52.52,0,0,0-.43-.06.53.53,0,0,0-.35.28A.6.6,0,0,0,25.25,16.45Z" style="fill:#d4145a"/><polygon points="41.59 11.49 44.42 8.66 41.23 7.81 40.38 4.62 37.55 7.45 38.24 10.04 28.64 19.64 27.27 16.93 26.39 20.23 25.5 23.54 28.81 22.66 32.12 21.77 29.4 20.41 39.01 10.8 41.59 11.49" style="fill:#1695a4"/><polygon points="41.23 7.81 40.38 4.62 37.55 7.45 38.24 10.04 28.64 19.64 27.27 16.93 26.39 20.23 25.5 23.54 41.23 7.81" style="fill:#15b0bf"/></g></g></svg>