<svg id="圖層_1" data-name="圖層 1" xmlns="http://www.w3.org/2000/svg" viewBox="0 0 46.73 46.73"><title>未命名-1</title><circle cx="18.4" cy="18.29" r="16.51" transform="translate(-5.21 7.54) rotate(-20.35)" style="fill:none;stroke:#c61e57;stroke-miterlimit:10;stroke-width:1.5px"/><polygon points="42.73 12.52 45.56 9.69 42.38 8.84 41.52 5.65 38.69 8.48 39.38 11.07 29.78 20.68 28.41 17.96 27.53 21.27 26.64 24.57 29.95 23.69 33.26 22.8 30.54 21.44 40.15 11.83 42.73 12.52" style="fill:#1f8f9d"/><polygon points="42.38 8.84 41.52 5.65 38.69 8.48 39.39 11.07 29.78 20.68 28.41 17.96 27.53 21.27 26.64 24.57 42.38 8.84" style="fill:#28a7b4"/><path d="M10.25,15l5.44-2-1-2.65a.71.71,0,0,1,.48-1Q16,9,16.3,9.74l1,2.65,5.44-2a1.82,1.82,0,0,1,2.67,1.16l2,5.52a1.82,1.82,0,0,1-1.26,2.64l-5.44,2,1.77,4.76q.27.74-.56,1a.7.7,0,0,1-1-.46l-1.77-4.76-5.44,2a1.79,1.79,0,0,1-2.6-1.21l-2-5.52A1.78,1.78,0,0,1,10.25,15Zm8.34,5.79-2.33-6.29-5.06,1.88q-.68.25-.4,1l1.77,4.76q.29.77,1,.52Zm6.65-2.47a.72.72,0,0,0,.47-1.06l-1.77-4.76a.71.71,0,0,0-1-.48L17.84,13.9l2.33,6.29Z" style="fill:#c61e57"/></svg>