<svg xmlns="http://www.w3.org/2000/svg" xmlns:xlink="http://www.w3.org/1999/xlink" viewBox="0 0 141.001 121.20757"><defs><linearGradient id="linear-gradient" x1="101.0137" y1="97.04954" x2="115.9705" y2="100.85626" gradientUnits="userSpaceOnUse"><stop offset="0.0034" stop-color="#f8b400"/><stop offset="0.33765" stop-color="#f9ad06"/><stop offset="0.81965" stop-color="#fd9a16"/><stop offset="1" stop-color="#ff911e"/></linearGradient><linearGradient id="linear-gradient-2" x1="-65.28301" y1="303.17678" x2="50.21224" y2="303.17678" gradientTransform="translate(140.43377 -198.89161) rotate(14.27665)" gradientUnits="userSpaceOnUse"><stop offset="0.0034" stop-color="#c28d00"/><stop offset="0.36606" stop-color="#c18605"/><stop offset="0.88899" stop-color="#be7313"/><stop offset="1" stop-color="#bd6e17"/></linearGradient><linearGradient id="linear-gradient-3" x1="-0.25114" y1="28.95169" x2="139.61975" y2="64.55079" xlink:href="#linear-gradient"/><linearGradient id="未命名漸層_29" x1="34.71634" y1="15.84992" x2="111.24375" y2="92.37733" gradientUnits="userSpaceOnUse"><stop offset="0" stop-color="#e62c14"/><stop offset="1" stop-color="#c72c14"/></linearGradient><linearGradient id="linear-gradient-4" x1="7.74326" y1="78.34385" x2="141.001" y2="78.34385" gradientUnits="userSpaceOnUse"><stop offset="0.0034" stop-color="#f8d04c"/><stop offset="0.27761" stop-color="#f9cc45"/><stop offset="0.67289" stop-color="#fcc232"/><stop offset="1" stop-color="#ffb71d"/></linearGradient><linearGradient id="linear-gradient-5" x1="5225.59642" y1="663.72176" x2="5227.14107" y2="713.37013" gradientTransform="matrix(-0.8962, 0.0688, 0.1005, 0.8893, 4685.72494, -958.28233)" gradientUnits="userSpaceOnUse"><stop offset="0" stop-color="#fff"/><stop offset="1" stop-color="#fff" stop-opacity="0"/></linearGradient></defs><title>越南5分彩-中</title><g id="圖層_2" data-name="圖層 2"><g id="圖層_1-2" data-name="圖層 1"><path d="M116.3535,99.35143A99.9092,99.9092,0,0,0,98.07,108.61554c3.82207-7.497,7.64418-14.77,11.46587-21.71221Q112.9447,92.94041,116.3535,99.35143Z" style="fill:url(#linear-gradient)"/><path d="M7.7655,57.75075c4.21229,16.60221,8.42421,32.44173,12.63613,47.66379,31.98357,12.49257,63.96791-10.64137,95.95188-6.06312q-3.4094-6.42216-6.81764-12.44809C75.61212,76.2652,41.68879,91.73959,7.7655,57.75075Z" style="fill:url(#linear-gradient-2)"/><path d="M141.001,58.80416C112.93094,31.49065,53.46807,19.68387,0,27.96493c8.28471,2.53421,15.88723,8.86946,15.88723,8.86946s-1.55965,3.7036-4.97091,10.91594c37.542-8.19576,99.74206,12.4946,124.04183,35.11619Q137.9794,70.58866,141.001,58.80416Z" style="fill:url(#linear-gradient-3)"/><path d="M127.09516,54.1151A54.11427,54.11427,0,1,0,72.98089,108.229c.53863,0,1.07444-.01052,1.60943-.02629l6.1116,13.0049,10.08941-15.98226A54.13333,54.13333,0,0,0,127.09516,54.1151Z" style="fill:url(#未命名漸層_29)"/><path d="M127.09516,54.1151q0-1.386-.06915-2.75376c-27.47889-5.88966-59.11711,7.37892-76.47343,8.11771A48.28567,48.28567,0,0,1,19.51969,49.34232l-.51358.8961c-.09014,1.28023-.1395,2.57219-.1395,3.87668a54.06529,54.06529,0,0,0,2.586,16.563L71.23523,95.07848a126.4698,126.4698,0,0,1,30.227-8.73153,35.936,35.936,0,0,1,14.72633.349A53.86686,53.86686,0,0,0,127.09516,54.1151Z" style="opacity:0.14"/><path d="M7.74326,57.82355c44.41952,28.605,88.83822-27.62448,133.25774.98061q-3.02121,11.77682-6.04286,24.06237C96.77237,69.30482,58.587,112.751,20.40162,105.41455,16.182,90.21915,11.96326,74.40389,7.74326,57.82355Z" style="fill:url(#linear-gradient-4)"/><path d="M38.91117,89.93532a14.79162,14.79162,0,0,0-.46289-6.95117l1.125-.22852A28.45636,28.45636,0,0,1,40.17288,85.74a5.79788,5.79788,0,0,0,2.00586,1.54785L40.6182,81.38063l-3.66016.9668-.293-1.10742,3.17969-.83887-.623-2.35937-2.61719.69043-.293-1.10742,2.61719-.69043-.61523-2.32812,1.123-.29687.61523,2.32813,2.47168-.65332.292,1.10742-2.4707.65332.623,2.35938,2.72852-.7207.292,1.10742-2.24707.59277.66992,2.53613,2.05469-.542.293,1.10742-2.05469.542.7793,2.95313a7.05973,7.05973,0,0,0,2.88965-.17969q3.73682-.93457,8.31348-2.26465-.09814.7998-.11523,1.38672-4.55859,1.2041-8.23047,2.123-3.81738.94922-6.01172-1.374a10.18582,10.18582,0,0,1-.39258,3.71777A10.65627,10.65627,0,0,0,38.91117,89.93532ZM47.21878,85.699a20.79847,20.79847,0,0,0,1.79395-3.64258,25.90079,25.90079,0,0,1-2.2959-5.30859l-1.88574.498,1.44141,5.458q.55811-.81738,1.252-1.89355.26221.59912.55469,1.124-.73535,1.05176-1.45605,2.22266a8.12962,8.12962,0,0,0-.53027,1.04883l-1.01953-.60547a2.55846,2.55846,0,0,0,.08789-1.68945L43.46,76.47438l2.92188-.77148q-.44385-1.481-.8584-3.05273l1.0918-.28809q.37061,1.46484.8584,3.05273L51.43851,74.367l.2793,1.05957-3.90918,1.0332A23.74839,23.74839,0,0,0,49.5,80.58864a17.72322,17.72322,0,0,0,.61621-3.55469l1.19336.167a23.46336,23.46336,0,0,1-1.01562,4.6709,7.97553,7.97553,0,0,0,1.11133,1.27832c.27734.27051.50684.38086.68848.333.16016-.042.22168-.27051.18066-.68262q-.12744-1.06641-.37988-2.54395.80859.07764,1.21387.10938.28418,1.7959.35352,2.70508.123,1.44287-.85547,1.70313a1.90559,1.90559,0,0,1-1.74609-.501,6.77422,6.77422,0,0,1-1.05469-1.07031,20.19845,20.19845,0,0,1-1.52051,3.02148A4.29974,4.29974,0,0,0,47.21878,85.699Zm.43652-12.9082.67383-.83105q.88916.57275,2.085,1.459l-.77344.9082Q48.51712,73.38649,47.65531,72.79079Z" style="fill:#42210b"/><path d="M52.14456,73.01344l7.207-1.90332-.47852-1.81445,1.31543-.34766.47852,1.81445L67.6973,68.905l.30176,1.13965-7.03125,1.85742.43262,1.63672,6.14746-1.624,2.4043,9.10059a1.72661,1.72661,0,0,1-1.36133,2.38574q-1.05469.2959-2.66113.65137-.25342-.56836-.58887-1.25293,1.61426-.32227,2.44922-.543,1.05908-.28125.81445-1.21094l-2.02734-7.67187L55.46976,76.30739l2.624,9.93457-1.26758.335-2.9209-11.05859L60.085,73.88649l-.43164-1.63672-7.207,1.90332Zm5.39258,8.58594,4.30176-1.13574-.46191-1.75-3.78809,1.001L57.3096,78.655,62.34867,77.324q.46582-1.35937.8877-2.94727l1.3623.34473q-.50391,1.28174-.93359,2.25488l2.47266-.65332.2793,1.05957-3.78809,1.001.46191,1.749,4.30176-1.13672.28027,1.05957-4.30176,1.13672.81348,3.08105-1.252.33105-.81348-3.082-4.30176,1.13672Zm.33105-5.11816.77832-.89258q1.06641.731,1.97949,1.45117l-.88574.93848Q58.85257,77.21657,57.8682,76.48121Z" style="fill:#42210b"/><path d="M78.6973,74.40407a3.94182,3.94182,0,0,1-.43164,3.25684,4.75191,4.75191,0,0,1-2.95215,1.97266,5.31131,5.31131,0,0,1-2.74609.168l-.42383-1.60547a4.83176,4.83176,0,0,0,2.78516.13965,3.124,3.124,0,0,0,1.9082-1.27246,2.51889,2.51889,0,0,0,.29492-2.11523,2.30806,2.30806,0,0,0-1.31836-1.63184,3.80965,3.80965,0,0,0-2.52344-.042,19.92831,19.92831,0,0,0-2.082.66211l-1.209-6.42871L75.8096,65.9734l.36426,1.37988-4.48633,1.18457.67383,3.58984,1.11914-.3457a4.725,4.725,0,0,1,3.3623.16309A3.581,3.581,0,0,1,78.6973,74.40407Z" style="fill:#42210b"/><path d="M79.14261,70.79371a20.58324,20.58324,0,0,0,3.96289-7.88086l1.30469.32422a23.08039,23.08039,0,0,1-4.04883,8.40137A7.9672,7.9672,0,0,0,79.14261,70.79371Zm2.32227-.04785,10.6748-2.81934q.63867,2.74951,1.166,5.39258.60205,3.05273-2.05176,3.73535-1.29639.36035-2.7666.64453c-.18359-.43262-.377-.86621-.585-1.30469a21.88592,21.88592,0,0,0,2.81152-.53711q1.61426-.39111,1.26953-2.34277-.32812-1.76953-.86328-4.04883L86.1846,70.77028a10.65574,10.65574,0,0,1,.02539,4.6123,8.1797,8.1797,0,0,1-3.21484,4.40234c-.375-.28906-.77539-.56836-1.19922-.833a7.57,7.57,0,0,0,3.07324-3.90234,8.41608,8.41608,0,0,0-.001-3.93164l-3.08984.81543Zm4.88184-8.43262,1.02344-.80273a12.51546,12.51546,0,0,0,7.89648,4.80078,10.895,10.895,0,0,0-.7207,1.49512A14.90617,14.90617,0,0,1,86.34671,62.31325Z" style="fill:#42210b"/><path d="M95.14554,62.01539c-.1709-.34473-.36914-.71-.59766-1.09473q4.64355-1.46924,8.33789-2.75293l.59473,1.08008Q100.4263,60.29225,95.14554,62.01539Zm.33691,1.40527.82324-.78516q1.08545,1.05469,2.127,2.13477l-.8877.87012Q96.64993,64.58864,95.48245,63.42067Zm7.03809,4.80273q1.70215.69141,3.53125,1.47168l-.53223,1.23926q-1.61719-.86133-3.44434-1.666l1.31836,4.99023-1.1875.31445-1.4375-5.44043a19.56405,19.56405,0,0,1-2.125,4.69922q-.38379-.22412-1.18652-.5957a15.17232,15.17232,0,0,0,2.65137-5.62891l-3.27441.86523-.31348-1.1875,3.51562-.92871-.33105-1.252,1.1875-.31445.33105,1.252,3.28906-.86914.31445,1.1875-3.29.86914.52539,1.99023Zm-4.24219-6.17676.84375-.77246q1.13525,1.1748,2.123,2.25488l-.92578.84668A30.2668,30.2668,0,0,0,98.27835,62.04664Zm3.53125,2.05566q.48633-1.67578.90332-3.86133l1.22754.293q-.35449,1.4502-1.00391,3.80273Zm7.54395-6.80176a20.135,20.135,0,0,1-4.42871,5.8584q-.60937-.49219-1.07715-.832a14.76039,14.76039,0,0,0,4.249-5.43164Zm-4.17383,15.33691a17.40379,17.40379,0,0,0,6.124-7.4375l1.19922.57617a19.55706,19.55706,0,0,1-6.2041,7.71582A12.08973,12.08973,0,0,0,105.17972,72.63746Zm5.69336-11.01562a20.32317,20.32317,0,0,1-4.47754,5.80176q-.41162-.38965-1.02246-.87988a15.22767,15.22767,0,0,0,4.28027-5.44141Z" style="fill:#42210b"/><polygon points="71.695 12.193 76.368 26.563 91.484 26.563 79.258 35.449 83.926 49.829 71.695 40.943 59.469 49.829 64.142 35.449 51.911 26.563 67.027 26.563 71.695 12.193" style="fill:gold"/><path d="M32.7531,40.37965C34.813,58.6115,54.49353,72.01008,76.711,70.30647c22.21745-1.70756,38.55831-17.86876,36.49773-36.09975C111.1491,15.9743,91.46639,2.57709,69.24859,4.28213,47.03223,5.98632,30.692,22.14866,32.7531,40.37965Z" style="fill:url(#linear-gradient-5)"/></g></g></svg>