<svg xmlns="http://www.w3.org/2000/svg" xmlns:xlink="http://www.w3.org/1999/xlink" viewBox="0 0 141 121.21"><defs><linearGradient id="linear-gradient" x1="101.01" y1="97.05" x2="115.97" y2="100.86" gradientUnits="userSpaceOnUse"><stop offset="0" stop-color="#f8b400"/><stop offset="0.34" stop-color="#f9ad06"/><stop offset="0.82" stop-color="#fd9a16"/><stop offset="1" stop-color="#ff911e"/></linearGradient><linearGradient id="linear-gradient-2" x1="-494.29" y1="-919.73" x2="-378.79" y2="-919.73" gradientTransform="translate(254.61 1092.02) rotate(14.28)" gradientUnits="userSpaceOnUse"><stop offset="0" stop-color="#c28d00"/><stop offset="0.37" stop-color="#c18605"/><stop offset="0.89" stop-color="#be7313"/><stop offset="1" stop-color="#bd6e17"/></linearGradient><linearGradient id="linear-gradient-3" x1="-0.25" y1="28.95" x2="139.62" y2="64.55" xlink:href="#linear-gradient"/><linearGradient id="未命名漸層_29" x1="34.72" y1="15.85" x2="111.24" y2="92.38" gradientUnits="userSpaceOnUse"><stop offset="0" stop-color="#e62c14"/><stop offset="1" stop-color="#c72c14"/></linearGradient><linearGradient id="linear-gradient-4" x1="7.74" y1="78.34" x2="141" y2="78.34" gradientUnits="userSpaceOnUse"><stop offset="0" stop-color="#f8d04c"/><stop offset="0.28" stop-color="#f9cc45"/><stop offset="0.67" stop-color="#fcc232"/><stop offset="1" stop-color="#ffb71d"/></linearGradient><linearGradient id="linear-gradient-5" x1="-5647.15" y1="973.44" x2="-5645.61" y2="1023.09" gradientTransform="matrix(-0.9, 0.07, 0.1, 0.89, -5089.56, -485.67)" gradientUnits="userSpaceOnUse"><stop offset="0" stop-color="#fff"/><stop offset="1" stop-color="#fff" stop-opacity="0"/></linearGradient></defs><title>泰文</title><g id="圖層_2" data-name="圖層 2"><g id="圖層_1-2" data-name="圖層 1"><path d="M116.35,99.35a99.91,99.91,0,0,0-18.28,9.26c3.82-7.5,7.64-14.77,11.47-21.71Q112.94,92.94,116.35,99.35Z" style="fill:url(#linear-gradient)"/><path d="M7.77,57.75C12,74.35,16.19,90.19,20.4,105.41c32,12.49,64-10.64,96-6.06q-3.41-6.42-6.82-12.45C75.61,76.27,41.69,91.74,7.77,57.75Z" style="fill:url(#linear-gradient-2)"/><path d="M141,58.8C112.93,31.49,53.47,19.68,0,28c8.28,2.53,15.89,8.87,15.89,8.87s-1.56,3.7-5,10.92c37.54-8.2,99.74,12.49,124,35.12Q138,70.59,141,58.8Z" style="fill:url(#linear-gradient-3)"/><path d="M127.1,54.12A54.11,54.11,0,1,0,73,108.23l1.61,0,6.11,13,10.09-16A54.13,54.13,0,0,0,127.1,54.12Z" style="fill:url(#未命名漸層_29)"/><path d="M127.1,54.12q0-1.39-.07-2.75c-27.48-5.89-59.12,7.38-76.47,8.12a48.29,48.29,0,0,1-31-10.14l-.51.9c-.09,1.28-.14,2.57-.14,3.88a54.07,54.07,0,0,0,2.59,16.56l49.78,24.4a126.47,126.47,0,0,1,30.23-8.73,35.94,35.94,0,0,1,14.73.35A53.87,53.87,0,0,0,127.1,54.12Z" style="opacity:0.14"/><path d="M7.74,57.82C52.16,86.43,96.58,30.2,141,58.8q-3,11.78-6,24.06C96.77,69.3,58.59,112.75,20.4,105.41,16.18,90.22,12,74.4,7.74,57.82Z" style="fill:url(#linear-gradient-4)"/><polygon points="71.69 12.19 76.37 26.56 91.48 26.56 79.26 35.45 83.93 49.83 71.69 40.94 59.47 49.83 64.14 35.45 51.91 26.56 67.03 26.56 71.69 12.19" style="fill:gold"/><path d="M32.75,40.38c2.06,18.23,21.74,31.63,44,29.93s38.56-17.87,36.5-36.1S91.47,2.58,69.25,4.28,30.69,22.15,32.75,40.38Z" style="fill:url(#linear-gradient-5)"/><path d="M31.91,84.42a2.29,2.29,0,0,0,1-.75,4.37,4.37,0,0,0,.63-1.33,1.3,1.3,0,0,0,0-.67,7.88,7.88,0,0,1,.81-.37,6.12,6.12,0,0,1,.89-.28q.81-.18,1,.06c.15.16.16.46,0,.89a3.14,3.14,0,0,1-1,1.38A6.62,6.62,0,0,1,33,84.5a5.26,5.26,0,0,1,1.41-.06.67.67,0,0,1,.6.42,1.9,1.9,0,0,1-.11,1.08L34.28,88c0,.11,0,.17,0,.2a.44.44,0,0,0,.26,0l.46,0-.09.29-3,.69c-.52.12-.69-.09-.52-.64L32,86.42a2.41,2.41,0,0,0,.17-1.12c-.05-.22-.25-.31-.6-.27a17.29,17.29,0,0,0-1.71.34l-1.24,4c0,.11,0,.17,0,.2a.43.43,0,0,0,.25,0l.43,0-.09.29-4.59,1.05.09-.29.51-.2a1.2,1.2,0,0,0,.32-.17.49.49,0,0,0,.13-.23l1.93-6.17c0-.1,0-.17,0-.2a.44.44,0,0,0-.25,0l-.46,0,.1-.3,3.62-1.23L31,82,30,84.94A14.21,14.21,0,0,0,31.91,84.42Z" style="fill:#42210b"/><path d="M43.32,85.84a10.08,10.08,0,0,1-3.92,1.8,7.18,7.18,0,0,1-1.45.19,3.68,3.68,0,0,1-1.07-.11l.83-2.13.28-.06A2.13,2.13,0,0,0,38.26,87q.35.43,1.21.23A3.1,3.1,0,0,0,41.24,86a9.69,9.69,0,0,0,1.36-2.9,3.86,3.86,0,0,0,.24-2.43c-.21-.45-.73-.58-1.57-.39a8.39,8.39,0,0,0-2.82,1.28l-.15-.31a15.33,15.33,0,0,1,1.93-1.11,11.17,11.17,0,0,1,2.3-.77q2.12-.49,3,.23t.22,2.69A6.91,6.91,0,0,1,43.32,85.84Z" style="fill:#42210b"/><path d="M50.75,80.7a.57.57,0,0,0,.51.06l1.64-.37-.13.43-1.64.38a1.23,1.23,0,0,0-.91.93l-.34,1.09a3.89,3.89,0,0,0-.22,1.07.42.42,0,0,0,.28.44,1.92,1.92,0,0,0,.91-.05,3.24,3.24,0,0,0,1-.38,1.93,1.93,0,0,0,.63-.66,5.51,5.51,0,0,0,.46-1.12l1.76-5.62,2.93-1,.13,0L56,81.39a4.24,4.24,0,0,1-.87,1.56,5.43,5.43,0,0,1-1.68,1.21,12.69,12.69,0,0,1-2.76.92,8.84,8.84,0,0,1-2.53.31c-.57,0-.93-.23-1.06-.53a1.76,1.76,0,0,1,0-1.24,3.77,3.77,0,0,1,2.6-2.38A1.61,1.61,0,0,1,48.51,81q-.33-.33-.09-1.12a3.11,3.11,0,0,1,1.18-1.59,5.48,5.48,0,0,1,2-.92,3.08,3.08,0,0,1,1.06-.1,1.73,1.73,0,0,1,.71.28l-.36.36a.87.87,0,0,0-.35-.15.91.91,0,0,0-.42,0,1.4,1.4,0,0,0-.8.46,3,3,0,0,0-.48,1l-.31,1C50.63,80.43,50.64,80.61,50.75,80.7Z" style="fill:#42210b"/><path d="M67.82,73.58l.31-.07-2.21,7.07c0,.15-.05.25,0,.29s.14,0,.31,0l.52-.07-.1.33a12.07,12.07,0,0,1-1.85.61,4.1,4.1,0,0,1-1.24.14c-.27,0-.43-.14-.47-.33a1.72,1.72,0,0,1,.11-.84l2-6.24Z" style="fill:#42210b"/><path d="M75,78.57a10.08,10.08,0,0,1-3.92,1.8,7.12,7.12,0,0,1-1.45.19,3.71,3.71,0,0,1-1.07-.11l.83-2.13.28-.06A2.13,2.13,0,0,0,70,79.74q.35.43,1.21.23A3.11,3.11,0,0,0,73,78.72a9.73,9.73,0,0,0,1.36-2.9,3.85,3.85,0,0,0,.24-2.42c-.21-.45-.73-.58-1.57-.39a8.39,8.39,0,0,0-2.82,1.28L70,74A15.32,15.32,0,0,1,72,72.87a11.23,11.23,0,0,1,2.3-.77q2.12-.49,3,.23T77.44,75A6.9,6.9,0,0,1,75,78.57Z" style="fill:#42210b"/><path d="M71.19,70.92a3.86,3.86,0,0,1,1-.92,5.8,5.8,0,0,1,1.48-.68l3.33.37.54-1.7,2.19-.5L79,69.77l-8,1.84Z" style="fill:#42210b"/><path d="M82.84,73.34a.57.57,0,0,0,.51.06L85,73l-.13.43-1.64.38a1.23,1.23,0,0,0-.91.93L82,75.84a3.9,3.9,0,0,0-.22,1.07.42.42,0,0,0,.28.44,1.91,1.91,0,0,0,.91-.05,3.24,3.24,0,0,0,1-.38,1.92,1.92,0,0,0,.63-.65A5.56,5.56,0,0,0,85,75.14l1.76-5.62,2.93-1,.13,0L88.12,74a4.24,4.24,0,0,1-.87,1.56,5.42,5.42,0,0,1-1.68,1.21,12.79,12.79,0,0,1-2.76.92,8.83,8.83,0,0,1-2.53.31q-.86-.07-1.06-.53a1.76,1.76,0,0,1,0-1.24,3.77,3.77,0,0,1,2.6-2.38,1.61,1.61,0,0,1-1.25-.27q-.33-.33-.09-1.12a3.1,3.1,0,0,1,1.18-1.59,5.47,5.47,0,0,1,2-.92,3.08,3.08,0,0,1,1.06-.1,1.71,1.71,0,0,1,.71.27l-.36.36a.87.87,0,0,0-.35-.15.91.91,0,0,0-.42,0,1.41,1.41,0,0,0-.8.46,3,3,0,0,0-.48,1l-.31,1C82.72,73.07,82.73,73.25,82.84,73.34Z" style="fill:#42210b"/><path d="M95.43,74l.07.3a5.9,5.9,0,0,1-.93.55,5.72,5.72,0,0,1-1.19.4q-3.76.86-2.6-2.85a7.54,7.54,0,0,1,2.38-3.66,9.31,9.31,0,0,1,3.91-1.89q2.44-.56,3.23-.1t.36,1.8l-1.43,4.58c0,.11,0,.17,0,.2a.44.44,0,0,0,.26,0l.46,0-.09.29-3,.69q-.78.18-.52-.64l1.57-5c.21-.66.25-1.09.13-1.29s-.44-.24-.94-.13a2.94,2.94,0,0,0-1.44.77,4.58,4.58,0,0,0-.95,1.35A15.14,15.14,0,0,0,94,71.31a8.13,8.13,0,0,0-.48,2.52c0,.58.35.8,1,.66A2.69,2.69,0,0,0,95.43,74Z" style="fill:#42210b"/><path d="M107.79,71.41l.15-.49A8,8,0,0,1,106.49,72a6.32,6.32,0,0,1-1.78.71q-1.59.36-2.08-.08T102.53,71L104,66.35c0-.1,0-.17,0-.2a.43.43,0,0,0-.26,0l-.46,0,.1-.3L107,64.61l.31-.07-1.86,5.93a1.93,1.93,0,0,0-.14,1.1c.08.18.33.22.75.13a3.11,3.11,0,0,0,1-.45,8.1,8.1,0,0,0,1-.8l1.7-5.42c0-.1,0-.17,0-.2a.44.44,0,0,0-.25,0l-.46,0,.1-.3,3.62-1.23.31-.07-2.28,7.29c0,.1,0,.17,0,.2a.43.43,0,0,0,.25,0l.46,0-.09.3-3.28.75Q107.65,71.87,107.79,71.41Z" style="fill:#42210b"/><path d="M115.26,69.85l.57-.21a.92.92,0,0,0,.31-.16.56.56,0,0,0,.14-.25l1.55-5c.2-.63.22-1,.09-1.21s-.46-.21-1-.09a6.71,6.71,0,0,0-2.33,1.14l-.14-.3a11,11,0,0,1,4-1.85c1.07-.25,1.77-.21,2.1.1s.36.92.08,1.82l-1.47,4.68c0,.1,0,.17,0,.2a.43.43,0,0,0,.25,0l.46,0-.09.3-4.68,1.07Z" style="fill:#42210b"/><path d="M126,66.84a1.57,1.57,0,0,0,1,0,1.48,1.48,0,0,0,.84-.47,3.65,3.65,0,0,0,.54-1.17l1.5-4.79c0-.11,0-.17,0-.2a.45.45,0,0,0-.26,0l-.46,0,.1-.3,3.62-1.23.3-.07-1.8,5.75a4.21,4.21,0,0,1-1.24,2,5.59,5.59,0,0,1-2.45,1.11,3,3,0,0,1-1.59,0,1.66,1.66,0,0,1-.9-.62,2.17,2.17,0,0,1-.48.84,1.5,1.5,0,0,1-.78.46l-2.84.65.09-.3.51-.2a1.17,1.17,0,0,0,.32-.17.49.49,0,0,0,.13-.23L124,61.75c0-.1,0-.17,0-.2a.43.43,0,0,0-.25,0l-.46,0,.1-.3L127,60l.31-.07-2,6.43A1.93,1.93,0,0,0,126,66.84Z" style="fill:#42210b"/></g></g></svg>