<svg xmlns="http://www.w3.org/2000/svg" xmlns:xlink="http://www.w3.org/1999/xlink" viewBox="0 0 141 121.21"><defs><linearGradient id="linear-gradient" x1="101.01" y1="97.05" x2="115.97" y2="100.86" gradientUnits="userSpaceOnUse"><stop offset="0" stop-color="#f8b400"/><stop offset="0.34" stop-color="#f9ad06"/><stop offset="0.82" stop-color="#fd9a16"/><stop offset="1" stop-color="#ff911e"/></linearGradient><linearGradient id="linear-gradient-2" x1="-477.96" y1="-797.35" x2="-362.47" y2="-797.35" gradientTransform="translate(268.97 969.4) rotate(14.28)" gradientUnits="userSpaceOnUse"><stop offset="0" stop-color="#c28d00"/><stop offset="0.37" stop-color="#c18605"/><stop offset="0.89" stop-color="#be7313"/><stop offset="1" stop-color="#bd6e17"/></linearGradient><linearGradient id="linear-gradient-3" x1="-0.25" y1="28.95" x2="139.62" y2="64.55" xlink:href="#linear-gradient"/><linearGradient id="未命名漸層_29" x1="34.72" y1="15.85" x2="111.24" y2="92.38" gradientUnits="userSpaceOnUse"><stop offset="0" stop-color="#e62c14"/><stop offset="1" stop-color="#c72c14"/></linearGradient><linearGradient id="linear-gradient-4" x1="7.74" y1="78.34" x2="141" y2="78.34" gradientUnits="userSpaceOnUse"><stop offset="0" stop-color="#f8d04c"/><stop offset="0.28" stop-color="#f9cc45"/><stop offset="0.67" stop-color="#fcc232"/><stop offset="1" stop-color="#ffb71d"/></linearGradient><linearGradient id="linear-gradient-5" x1="-4600.36" y1="931.39" x2="-4598.82" y2="981.03" gradientTransform="matrix(-0.9, 0.07, 0.1, 0.89, -4147.2, -520.29)" gradientUnits="userSpaceOnUse"><stop offset="0" stop-color="#fff"/><stop offset="1" stop-color="#fff" stop-opacity="0"/></linearGradient></defs><title>英文</title><g id="圖層_2" data-name="圖層 2"><g id="圖層_1-2" data-name="圖層 1"><path d="M116.35,99.35a99.91,99.91,0,0,0-18.28,9.26c3.82-7.5,7.64-14.77,11.47-21.71Q112.94,92.94,116.35,99.35Z" style="fill:url(#linear-gradient)"/><path d="M7.77,57.75C12,74.35,16.19,90.19,20.4,105.41c32,12.49,64-10.64,96-6.06q-3.41-6.42-6.82-12.45C75.61,76.27,41.69,91.74,7.77,57.75Z" style="fill:url(#linear-gradient-2)"/><path d="M141,58.8C112.93,31.49,53.47,19.68,0,28c8.28,2.53,15.89,8.87,15.89,8.87s-1.56,3.7-5,10.92c37.54-8.2,99.74,12.49,124,35.12Q138,70.59,141,58.8Z" style="fill:url(#linear-gradient-3)"/><path d="M127.1,54.12A54.11,54.11,0,1,0,73,108.23l1.61,0,6.11,13,10.09-16A54.13,54.13,0,0,0,127.1,54.12Z" style="fill:url(#未命名漸層_29)"/><path d="M127.1,54.12q0-1.39-.07-2.75c-27.48-5.89-59.12,7.38-76.47,8.12a48.29,48.29,0,0,1-31-10.14l-.51.9c-.09,1.28-.14,2.57-.14,3.88a54.07,54.07,0,0,0,2.59,16.56l49.78,24.4a126.47,126.47,0,0,1,30.23-8.73,35.94,35.94,0,0,1,14.73.35A53.87,53.87,0,0,0,127.1,54.12Z" style="opacity:0.14"/><path d="M7.74,57.82C52.16,86.43,96.58,30.2,141,58.8q-3,11.78-6,24.06C96.77,69.3,58.59,112.75,20.4,105.41,16.18,90.22,12,74.4,7.74,57.82Z" style="fill:url(#linear-gradient-4)"/><polygon points="71.69 12.19 76.37 26.56 91.48 26.56 79.26 35.45 83.93 49.83 71.69 40.94 59.47 49.83 64.14 35.45 51.91 26.56 67.03 26.56 71.69 12.19" style="fill:gold"/><path d="M32.75,40.38c2.06,18.23,21.74,31.63,44,29.93s38.56-17.87,36.5-36.1S91.47,2.58,69.25,4.28,30.69,22.15,32.75,40.38Z" style="fill:url(#linear-gradient-5)"/><path d="M53.45,68.83l-6.69,9.92-3.56.87-1.34-8L45,70.88l.55,4.38a8.61,8.61,0,0,1,0,1.18l.4-.1q.46-.86.8-1.38l3.47-5.36Z" style="fill:#42210b"/><path d="M54.89,76.77l-3.33.81,2.67-8.94,3.33-.81Z" style="fill:#42210b"/><path d="M66.94,67.52l-5.83,1.42-.43,1.45L66.48,69,66,70.72l-5.8,1.41-.43,1.45,5.79-1.41-.65,2.17L56,76.49l2.67-8.94,8.88-2.16Z" style="fill:#42210b"/><path d="M77.31,65l-3.27.8-2,6.8-3.2.78,2-6.8-3.41.83.64-2.14,9.88-2.41Z" style="fill:#42210b"/><path d="M86.41,69.08l-3,.72-2.16-3.92a6.15,6.15,0,0,1-.38-1.06l-.43.22a7.48,7.48,0,0,1-.32,1.68l-1.25,4.18-2.85.7,2.67-8.94,3.91-1,1.56,2.94a8.91,8.91,0,0,1,.39,1l.42-.2a8.25,8.25,0,0,1,.34-1.71l.88-2.94,2.85-.7Z" style="fill:#42210b"/><path d="M97.46,66.39l-3,.74,1.12-3.77-4.23,1-1.12,3.77-3,.74,2.15-7.2a3,3,0,0,1,1-1.42,4.47,4.47,0,0,1,1.82-.87L97.87,58a1.94,1.94,0,0,1,1.53.05q.45.32.2,1.13ZM96,61.87l.46-1.55-4.23,1-.46,1.55Z" style="fill:#42210b"/><path d="M110.6,63.19l-2.83.69,1.32-4.42a16.21,16.21,0,0,1,.85-2.17l-.54.13-3.81,7-2.35.57.07-6.08-.52.13a11.13,11.13,0,0,1-.39,2.06l-1.32,4.42-2.84.69,2.67-8.94,4.38-1.07-.08,4.29q0,.35-.17,1.44l.45-.11q.45-1,.74-1.58l2.65-4.92,4.38-1.07Z" style="fill:#42210b"/><path d="M45.5,92.92,36.86,95l2.67-8.94,3.26-.79-2,6.78,5.39-1.31Z" style="fill:#42210b"/><path d="M56.91,88a4.07,4.07,0,0,1-3.16,2.94l-5.13,1.25q-2.48.6-1.78-1.73l1.27-4.27a4.08,4.08,0,0,1,3.17-2.94L56.42,82q1.28-.31,1.71.11t.06,1.62Zm-3.07.91,1.38-4.63-4,1-1.38,4.63Z" style="fill:#42210b"/><path d="M68.75,80.94l-3.27.8-2,6.8-3.2.78,2-6.8-3.41.83.64-2.14,9.88-2.41Z" style="fill:#42210b"/><path d="M79.05,78.43l-3.27.8-2,6.8-3.2.78,2-6.8-3.41.83.64-2.14,9.88-2.41Z" style="fill:#42210b"/><path d="M88.71,76.08,82.88,77.5l-.43,1.45,5.8-1.41-.52,1.74-5.8,1.41-.43,1.45,5.79-1.41-.65,2.17L77.8,85l2.67-8.94,8.88-2.16Z" style="fill:#42210b"/><path d="M97.51,80.24l-3,.72,1-3.48-4,1-1,3.48-3,.73,2.67-8.94,7.59-1.85a2.49,2.49,0,0,1,1.7,0q.45.26.18,1.16l-.35,1.17a2.09,2.09,0,0,1-.6,1,7.4,7.4,0,0,1-1.65,1,2.36,2.36,0,0,1,1.29.32q.22.22,0,.8Zm-1.44-4.48.47-1.59-4,1-.48,1.59Z" style="fill:#42210b"/><path d="M112.16,68.38l-5.87,6.71-1,3.25-3.17.77,1-3.25-2.44-4.69,3.54-.86,1.08,3.21,3.33-4.29Z" style="fill:#42210b"/></g></g></svg>