<svg xmlns="http://www.w3.org/2000/svg" xmlns:xlink="http://www.w3.org/1999/xlink" viewBox="0 0 85.038 66.88927"><defs><linearGradient id="linear-gradient" x1="60.92155" y1="54.49024" x2="69.94182" y2="56.78603" gradientUnits="userSpaceOnUse"><stop offset="0.0034" stop-color="#f9b500"/><stop offset="0.33765" stop-color="#faae06"/><stop offset="0.81965" stop-color="#fd9b16"/><stop offset="1" stop-color="#ff921e"/></linearGradient><linearGradient id="linear-gradient-2" x1="107.27208" y1="-353.39962" x2="176.92727" y2="-353.39962" gradientTransform="translate(-189.6555 359.52116) rotate(14.27665)" gradientUnits="userSpaceOnUse"><stop offset="0.0034" stop-color="#c38e00"/><stop offset="0.35843" stop-color="#c28705"/><stop offset="0.87034" stop-color="#bf7413"/><stop offset="1" stop-color="#be6e17"/></linearGradient><linearGradient id="linear-gradient-3" x1="-0.15147" y1="13.42031" x2="84.20493" y2="34.89019" xlink:href="#linear-gradient"/><linearGradient id="linear-gradient-4" x1="33.93469" y1="18.71801" x2="44.22207" y2="21.33629" gradientUnits="userSpaceOnUse"><stop offset="0.0034" stop-color="#ec1e79"/><stop offset="1" stop-color="#ae0663"/></linearGradient><linearGradient id="linear-gradient-5" x1="4.68339" y1="34.71303" x2="76.8867" y2="34.71303" gradientUnits="userSpaceOnUse"><stop offset="0.0034" stop-color="#d10272"/><stop offset="1" stop-color="#931668"/></linearGradient><linearGradient id="linear-gradient-6" x1="59.01707" y1="1.92028" x2="76.8867" y2="1.92028" xlink:href="#linear-gradient-5"/><linearGradient id="linear-gradient-7" x1="40.48118" y1="64.00469" x2="45.61475" y2="64.00469" gradientUnits="userSpaceOnUse"><stop offset="0" stop-color="#3fa8f4"/><stop offset="0.43052" stop-color="#2e99e5"/><stop offset="1" stop-color="#1180cb"/></linearGradient><linearGradient id="linear-gradient-8" x1="184.40091" y1="-380.0653" x2="120.90431" y2="-355.23327" gradientTransform="translate(-189.6555 359.52116) rotate(14.27665)" gradientUnits="userSpaceOnUse"><stop offset="0.0034" stop-color="#f9d14c"/><stop offset="0.27761" stop-color="#facd45"/><stop offset="0.67289" stop-color="#fcc332"/><stop offset="1" stop-color="#ffb81d"/></linearGradient></defs><title>世彩1分骰寶_3</title><g id="圖層_2" data-name="圖層 2"><g id="圖層_1-2" data-name="圖層 1"><path d="M70.1728,55.8785a60.24181,60.24181,0,0,0-11.0266,5.58721c2.30512-4.52146,4.61-8.9078,6.915-13.09468Q68.11723,52.012,70.1728,55.8785Z" style="fill:url(#linear-gradient)"/><path d="M4.68339,30.78906C7.2236,40.80188,9.764,50.35473,12.30426,59.53518c19.28947,7.53429,38.57907-6.41783,57.86854-3.65668q-2.05588-3.87322-4.11163-7.50747C45.602,41.95515,25.14274,51.28779,4.68339,30.78906Z" style="fill:url(#linear-gradient-2)"/><path d="M85.038,31.42437C68.10852,14.95153,32.24647,7.83084,0,12.82517c5.17286,2.46877,9.11547,5.18579,9.58177,11.958C32.22342,19.84,66.7383,32.2933,81.39351,45.93643Q83.21545,38.53162,85.038,31.42437Z" style="fill:url(#linear-gradient-3)"/><path d="M34.25015,17.47856C38.40421,15.701,42.558,13.599,46.712,11.55338c-3.09466,6.17784-6.1892,12.38692-9.28374,18.47041Q35.83893,23.7764,34.25015,17.47856Z" style="fill:url(#linear-gradient-4)"/><polygon points="4.683 2.537 19.986 53.037 42.793 53.037 48.297 66.889 56.078 53.037 71.949 53.037 76.887 7.934 4.683 2.537" style="fill:url(#linear-gradient-5)"/><path d="M74.80289,27.0641C59.406,23.37134,40.98635,31.38436,30.48813,31.8314c-7.9645.33873-15.09383-3.04212-18.4553-4.95679l2.62909,8.6293,28.0578,17.5332h.07352l.0245.11755.14439.119A76.30142,76.30142,0,0,1,61.192,48.02131a24.36335,24.36335,0,0,1,11.21487.93771Z" style="opacity:0.14"/><polygon points="59.017 3.841 76.887 3.841 71.4 0 59.017 3.841" style="fill:url(#linear-gradient-6)"/><polygon points="45.615 65.768 43.285 62.241 40.481 63.417 45.615 65.768" style="fill:url(#linear-gradient-7)"/><path d="M39.69716,23.21234q.4248,4.103-3.39062,3.89551l-8.42773-.458q-3.83643-.208-4.26172-4.31152l-.77734-7.501a3.9944,3.9944,0,0,1,.60156-3.09082,3.62519,3.62519,0,0,1,2.94043-.79687l11.94141.64941.38965,3.76074-11.209-.60937.84082,8.12109,6.76758.36816L34.8954,21.145l-2.08984-.11328-.33887-3.26953,6.70313.36426Z" style="fill:#fff"/><path d="M60.76161,12.81781,58.98329,28.34027l-4.63477-.252-2.749-8.543q-.09814-.32373-.65234-2.56445l-.668-.03613q-.041,1.04-.124,2.52246l-.97949,8.33984-4.65625-.25293L39.4872,11.66156l4.418.24023,1.91113,6.86133A23.01785,23.01785,0,0,1,46.37,21.21625l.69043.03711q-.00146-1.67725.07031-2.418l.71875-6.71875,4.52637.24609,2.14941,6.874q.29.95068.59668,2.45508l.668.03613q-.0293-1.31836.0498-2.41992l.50293-6.73047Z" style="fill:#fff"/><path d="M4.6701,30.833c26.789,17.25176,53.5784-16.66038,80.3679.59141Q83.21553,38.527,81.39351,45.93643C58.3636,37.75734,35.33382,63.95982,12.30426,59.53518,9.75955,50.37081,7.21469,40.8326,4.6701,30.833Z" style="fill:url(#linear-gradient-8)"/><path d="M34.69423,41.92621a1.90255,1.90255,0,0,1-.70312.93945,3.58061,3.58061,0,0,1-1.3623.59766l-6.11133,1.40039.51953-1.6582L32.58974,41.933l.335-1.07227-3.125.71582a5.346,5.346,0,0,1-1.72461.22266q-.5083-.09961-.27734-.83594l.53418-1.70508a1.9932,1.9932,0,0,1,.8877-1.11133,6.03736,6.03736,0,0,1,1.86914-.68945l4.85547-1.1123-.51367,1.64063-4.92969,1.12988L30.162,40.19672l3.72754-.85449q1.74023-.39844,1.35059.84082Z" style="fill:#42210b"/><path d="M37.3329,42.38519l-2.34082.53613,1.55273-4.958,2.34082-.53613Zm1.8418-5.87988-2.34082.53613.30371-.96973,2.33984-.53613Z" style="fill:#42210b"/><path d="M43.57313,40.95453l-3.94141.90332a1.289,1.289,0,0,1-1.08984-.08691c-.2168-.17578-.25586-.48926-.11328-.94336l.68555-2.18945a2.43975,2.43975,0,0,1,.81055-1.1543,3.14461,3.14461,0,0,1,1.33594-.66992l3.88867-.8916-.48242,1.53809-3.38281.77539L40.6747,40.183l3.38281-.77539Z" style="fill:#42210b"/><path d="M56.27528,36.686a2.56809,2.56809,0,0,1-.73242,1.18848,2.9601,2.9601,0,0,1-1.36914.65039l-6.28223,1.44043L50.036,33.11566l6.30469-1.44531q.8584-.19629,1.14063.0166.2915.21826.08105.88965l-.30957.9873a1.32492,1.32492,0,0,1-.32227.5498,7.82475,7.82475,0,0,1-.89844.708c.34766.03418.55273.123.61426.26465a.88261.88261,0,0,1-.05273.584Zm-2.248.334.38477-1.23047-3.29687.75488-.38477,1.23047Zm.74121-2.36719.37109-1.18359-3.29687.75488-.37109,1.18359Z" style="fill:#42210b"/><path d="M63.4247,34.96137a2.63832,2.63832,0,0,1-.86426,1.26074,3.54738,3.54738,0,0,1-1.50293.72559l-3.21094.73535a1.01928,1.01928,0,0,1-.96-.15137.93714.93714,0,0,1-.14258-1.04l.64551-2.05957a2.4781,2.4781,0,0,1,.75586-1.1416,2.84072,2.84072,0,0,1,1.24512-.63184l3.35059-.76758a1.43917,1.43917,0,0,1,1.18262.0752q.353.27246.14551.93555Zm-2.12891.49609.60938-1.94727-2.43945.55859-.60937,1.94727Z" style="fill:#42210b"/><path d="M34.13173,51.09125l-2.44824.56055,1.416-4.51953-.90234.207.26855-.85742,2.82422-2.01465.9873-.22559Z" style="fill:#42210b"/><path d="M47.60145,48.00336l-1.12793.25879q-1.40771.32227-.97461-1.05664L46.161,45.0893l-1.72949.39648L43.33681,48.9809l-2.05176.4707,1.09473-3.49512-1.77148.40625-1.09473,3.49512-2.07227.47461,1.57617-5.03223,2.083-.47754-.21.6709a6.46455,6.46455,0,0,1,.87988-.71191,2.10809,2.10809,0,0,1,.65039-.26172l1.28906-.29492c.51563-.11816.80469.02344.86426.42383a2.745,2.745,0,0,1,.68457-.6582,2.50415,2.50415,0,0,1,.76074-.29492l1.332-.30566c.55762-.12793.90137-.126,1.02441.00684.13086.13281.1123.46777-.05664,1.00879l-.6748,2.15234.44141-.10156Z" style="fill:#42210b"/><path d="M50.59657,47.31683l-2.34082.53711,1.55273-4.958,2.34082-.53711Zm1.8418-5.88086-2.34082.53711.30371-.96875,2.34082-.53711Z" style="fill:#42210b"/><path d="M58.79286,45.4389l-1.376.31543a.97383.97383,0,0,1-.832-.07812.52824.52824,0,0,1-.12207-.62891l.78223-2.498-2.55664.58594-1.09473,3.49512-2.11523.48535,1.57617-5.03223,2.11523-.48535-.21875.69922a4.75584,4.75584,0,0,1,2.001-1.10742l.83887-.19238q1.16016-.2666,1.49023.082.30762.31934-.00488,1.31641l-.50488,1.6123.50586-.11621Z" style="fill:#42210b"/></g></g></svg>