<svg xmlns="http://www.w3.org/2000/svg" xmlns:xlink="http://www.w3.org/1999/xlink" viewBox="0 0 85.038 66.88927"><defs><linearGradient id="linear-gradient" x1="60.92155" y1="54.49024" x2="69.94182" y2="56.78603" gradientUnits="userSpaceOnUse"><stop offset="0.0034" stop-color="#f9b500"/><stop offset="0.33765" stop-color="#faae06"/><stop offset="0.81965" stop-color="#fd9b16"/><stop offset="1" stop-color="#ff921e"/></linearGradient><linearGradient id="linear-gradient-2" x1="117.85282" y1="-273.85917" x2="187.50801" y2="-273.85917" gradientTransform="translate(-180.29462 279.8293) rotate(14.27665)" gradientUnits="userSpaceOnUse"><stop offset="0.0034" stop-color="#c38e00"/><stop offset="0.35843" stop-color="#c28705"/><stop offset="0.87034" stop-color="#bf7413"/><stop offset="1" stop-color="#be6e17"/></linearGradient><linearGradient id="linear-gradient-3" x1="-0.15147" y1="13.42031" x2="84.20493" y2="34.89019" xlink:href="#linear-gradient"/><linearGradient id="linear-gradient-4" x1="33.93469" y1="18.71801" x2="44.22207" y2="21.33629" gradientUnits="userSpaceOnUse"><stop offset="0.0034" stop-color="#ec1e79"/><stop offset="1" stop-color="#ae0663"/></linearGradient><linearGradient id="linear-gradient-5" x1="4.68339" y1="34.71303" x2="76.8867" y2="34.71303" gradientUnits="userSpaceOnUse"><stop offset="0.0034" stop-color="#d10272"/><stop offset="1" stop-color="#931668"/></linearGradient><linearGradient id="linear-gradient-6" x1="59.01707" y1="1.92028" x2="76.8867" y2="1.92028" xlink:href="#linear-gradient-5"/><linearGradient id="linear-gradient-7" x1="40.48118" y1="64.00469" x2="45.61475" y2="64.00469" gradientUnits="userSpaceOnUse"><stop offset="0" stop-color="#3fa8f4"/><stop offset="0.43052" stop-color="#2e99e5"/><stop offset="1" stop-color="#1180cb"/></linearGradient><linearGradient id="linear-gradient-8" x1="194.98166" y1="-300.52485" x2="131.48505" y2="-275.69282" gradientTransform="translate(-180.29462 279.8293) rotate(14.27665)" gradientUnits="userSpaceOnUse"><stop offset="0.0034" stop-color="#f9d14c"/><stop offset="0.27761" stop-color="#facd45"/><stop offset="0.67289" stop-color="#fcc332"/><stop offset="1" stop-color="#ffb81d"/></linearGradient></defs><title>安徽骰寶_3</title><g id="圖層_2" data-name="圖層 2"><g id="圖層_1-2" data-name="圖層 1"><path d="M70.1728,55.8785a60.24181,60.24181,0,0,0-11.0266,5.58721c2.30512-4.52146,4.61-8.9078,6.915-13.09468Q68.11723,52.012,70.1728,55.8785Z" style="fill:url(#linear-gradient)"/><path d="M4.68339,30.78906C7.2236,40.80188,9.764,50.35473,12.30426,59.53518c19.28947,7.53429,38.57907-6.41783,57.86854-3.65668q-2.05588-3.87322-4.11163-7.50747C45.602,41.95515,25.14274,51.28779,4.68339,30.78906Z" style="fill:url(#linear-gradient-2)"/><path d="M85.038,31.42437C68.10852,14.95153,32.24647,7.83084,0,12.82517c5.17286,2.46877,9.11547,5.18579,9.58177,11.958C32.22342,19.84,66.7383,32.2933,81.39351,45.93643Q83.21545,38.53162,85.038,31.42437Z" style="fill:url(#linear-gradient-3)"/><path d="M34.25015,17.47856C38.40421,15.701,42.558,13.599,46.712,11.55338c-3.09466,6.17784-6.1892,12.38692-9.28374,18.47041Q35.83893,23.7764,34.25015,17.47856Z" style="fill:url(#linear-gradient-4)"/><polygon points="4.683 2.537 19.986 53.037 42.793 53.037 48.297 66.889 56.078 53.037 71.949 53.037 76.887 7.934 4.683 2.537" style="fill:url(#linear-gradient-5)"/><path d="M74.80289,27.0641C59.406,23.37134,40.98635,31.38436,30.48813,31.8314c-7.9645.33873-15.09383-3.04212-18.4553-4.95679l2.62909,8.6293,28.0578,17.5332h.07352l.0245.11755.14439.119A76.30142,76.30142,0,0,1,61.192,48.02131a24.36335,24.36335,0,0,1,11.21487.93771Z" style="opacity:0.14"/><polygon points="59.017 3.841 76.887 3.841 71.4 0 59.017 3.841" style="fill:url(#linear-gradient-6)"/><polygon points="45.615 65.768 43.285 62.241 40.481 63.417 45.615 65.768" style="fill:url(#linear-gradient-7)"/><path d="M4.6701,30.833c26.789,17.25176,53.5784-16.66038,80.3679.59141Q83.21553,38.527,81.39351,45.93643C58.3636,37.75734,35.33382,63.95982,12.30426,59.53518,9.75955,50.37081,7.21469,40.8326,4.6701,30.833Z" style="fill:url(#linear-gradient-8)"/><path d="M30.06361,48.32608a2.49065,2.49065,0,0,1-.9248,1.23535,4.67486,4.67486,0,0,1-1.793.78711l-8.03711,1.84277.68262-2.18164,7.30273-1.67383.44141-1.40918-4.11035.94238a7.07372,7.07372,0,0,1-2.26953.292q-.665-.13184-.36328-1.10059l.70313-2.24316a2.63117,2.63117,0,0,1,1.166-1.46191,7.94069,7.94069,0,0,1,2.46094-.90527l6.38379-1.46387-.67578,2.1582L24.548,44.63077l-.44531,1.42188,4.90039-1.124q2.28955-.52441,1.77832,1.10547Z" style="fill:#42210b"/><path d="M33.53334,48.93057l-3.08008.70605,2.042-6.52148,3.08008-.70605Zm2.42188-7.73437-3.08008.70605.39941-1.27539,3.08008-.70605Z" style="fill:#42210b"/><path d="M41.74037,47.04971l-5.18555,1.18848a1.69119,1.69119,0,0,1-1.43164-.11621q-.43066-.34424-.14941-1.24023l.90137-2.87891a3.22149,3.22149,0,0,1,1.06641-1.51855,4.13659,4.13659,0,0,1,1.75781-.88184l5.11328-1.17187L43.17982,42.453l-4.45117,1.02051-.80176,2.56152,4.4502-1.02051Z" style="fill:#42210b"/><path d="M58.44545,41.43448a3.38724,3.38724,0,0,1-.96094,1.5625,3.90737,3.90737,0,0,1-1.80273.85742l-8.26367,1.89453,2.82129-9.00977,8.292-1.90039q1.13086-.25928,1.502.01953.38086.29.10547,1.1709L59.73256,37.328a1.76438,1.76438,0,0,1-.42383.72363,10.29642,10.29642,0,0,1-1.18262.93066q.68555.07031.80762.34961a1.15025,1.15025,0,0,1-.06934.7666Zm-2.95605.43945.50684-1.61816-4.33691.99316-.50684,1.61816Zm.97461-3.11328.48828-1.55664-4.33691.99316-.48828,1.55664Z" style="fill:#42210b"/><path d="M67.84975,39.16593A3.48592,3.48592,0,0,1,66.714,40.82608a4.70132,4.70132,0,0,1-1.97754.95313l-4.22266.96777a1.34165,1.34165,0,0,1-1.2627-.2002,1.22978,1.22978,0,0,1-.1875-1.36719l.84863-2.709a3.27629,3.27629,0,0,1,.99414-1.50293,3.76437,3.76437,0,0,1,1.6377-.83008l4.40723-1.00977a1.90835,1.90835,0,0,1,1.55566.09863q.46436.36035.19043,1.23047Zm-2.80078.65234.80273-2.56152-3.207.73535-.80273,2.56152Z" style="fill:#42210b"/><path d="M28.90053,21.58292l-3.54785-.19336-.51953-5.02441-4.96973-.27051L20.38295,21.12l-3.54883-.19336L15.841,11.331A1.90212,1.90212,0,0,1,16.3517,9.6669a2.56167,2.56167,0,0,1,1.91406-.50879l6.75293.36719a3.256,3.256,0,0,1,2.02539.72266,2.56478,2.56478,0,0,1,.86328,1.73926Zm-4.27246-7.19531L24.4142,12.329l-4.96875-.27051.21289,2.05859Z" style="fill:#fff"/><path d="M40.94936,22.23721l-2.09277-.11328a2.30028,2.30028,0,0,1-1.458-.5791,1.91067,1.91067,0,0,1-.65039-1.26074L36.299,15.94034l-3.8916-.21191.62891,6.0791-3.2207-.1748-.90625-8.75293,3.2207.1748.126,1.21484a3.21259,3.21259,0,0,1,2.58887-1.06738l1.27441.06934a3.72535,3.72535,0,0,1,2.56738.92969,4.13953,4.13953,0,0,1,.92578,2.499l.29,2.80469.76855.042Z" style="fill:#fff"/><path d="M53.424,22.91495l-2.09277-.11328a2.33612,2.33612,0,0,1-1.45605-.5625A1.88806,1.88806,0,0,1,49.2267,20.995l-.44336-4.2793-3.8916-.21191.61914,5.98145-3.2207-.1748-1.2334-11.91406,3.2207.17578.4668,4.50586a3.27617,3.27617,0,0,1,2.58887-1.06836l1.27441.06934a3.7664,3.7664,0,0,1,2.56543.91309,4.06442,4.06442,0,0,1,.92188,2.46777l.28711,2.77148.76855.042Z" style="fill:#fff"/><path d="M65.91518,23.59366l-3.2207-.1748-.127-1.23242a3.21853,3.21853,0,0,1-2.58691,1.085l-2.25586-.12207q-2.17529-.11865-2.45117-2.793l-.35254-3.4043-.78516-.042-.27734-2.6748,2.01172.10938a2.074,2.074,0,0,1,2.19434,2.03711l.42773,4.13281,3.92383.21387-.62793-6.0625,3.2207.1748Z" style="fill:#fff"/><path d="M69.76088,13.63272l-3.56445-.19336-.1748-1.68555,3.56445.19336Zm1.05859,10.22754L67.255,23.6669l-.89258-8.623,3.56445.19336Z" style="fill:#fff"/></g></g></svg>