<svg xmlns="http://www.w3.org/2000/svg" xmlns:xlink="http://www.w3.org/1999/xlink" viewBox="0 0 85.038 66.88927"><defs><linearGradient id="linear-gradient" x1="60.92155" y1="54.49024" x2="69.94182" y2="56.78603" gradientUnits="userSpaceOnUse"><stop offset="0.0034" stop-color="#f9b500"/><stop offset="0.33765" stop-color="#faae06"/><stop offset="0.81965" stop-color="#fd9b16"/><stop offset="1" stop-color="#ff921e"/></linearGradient><linearGradient id="linear-gradient-2" x1="111.7129" y1="-323.60573" x2="181.36809" y2="-323.60573" gradientTransform="translate(-186.61192 329.55279) rotate(14.27665)" gradientUnits="userSpaceOnUse"><stop offset="0.0034" stop-color="#c38e00"/><stop offset="0.35843" stop-color="#c28705"/><stop offset="0.87034" stop-color="#bf7413"/><stop offset="1" stop-color="#be6e17"/></linearGradient><linearGradient id="linear-gradient-3" x1="-0.15147" y1="13.42031" x2="84.20493" y2="34.89019" xlink:href="#linear-gradient"/><linearGradient id="linear-gradient-4" x1="33.93469" y1="18.71801" x2="44.22207" y2="21.33629" gradientUnits="userSpaceOnUse"><stop offset="0.0034" stop-color="#ec1e79"/><stop offset="1" stop-color="#ae0663"/></linearGradient><linearGradient id="linear-gradient-5" x1="4.68339" y1="34.71303" x2="76.8867" y2="34.71303" gradientUnits="userSpaceOnUse"><stop offset="0.0034" stop-color="#d10272"/><stop offset="1" stop-color="#931668"/></linearGradient><linearGradient id="linear-gradient-6" x1="59.01707" y1="1.92028" x2="76.8867" y2="1.92028" xlink:href="#linear-gradient-5"/><linearGradient id="linear-gradient-7" x1="40.48118" y1="64.00469" x2="45.61475" y2="64.00469" gradientUnits="userSpaceOnUse"><stop offset="0" stop-color="#3fa8f4"/><stop offset="0.43052" stop-color="#2e99e5"/><stop offset="1" stop-color="#1180cb"/></linearGradient><linearGradient id="linear-gradient-8" x1="188.84173" y1="-350.27141" x2="125.34513" y2="-325.43938" gradientTransform="translate(-186.61192 329.55279) rotate(14.27665)" gradientUnits="userSpaceOnUse"><stop offset="0.0034" stop-color="#f9d14c"/><stop offset="0.27761" stop-color="#facd45"/><stop offset="0.67289" stop-color="#fcc332"/><stop offset="1" stop-color="#ffb81d"/></linearGradient></defs><title>北京骰寶_3</title><g id="圖層_2" data-name="圖層 2"><g id="圖層_1-2" data-name="圖層 1"><path d="M70.1728,55.8785a60.24181,60.24181,0,0,0-11.0266,5.58721c2.30512-4.52146,4.61-8.9078,6.915-13.09468Q68.11723,52.012,70.1728,55.8785Z" style="fill:url(#linear-gradient)"/><path d="M4.68339,30.78906C7.2236,40.80188,9.764,50.35473,12.30426,59.53518c19.28947,7.53429,38.57907-6.41783,57.86854-3.65668q-2.05588-3.87322-4.11163-7.50747C45.602,41.95515,25.14274,51.28779,4.68339,30.78906Z" style="fill:url(#linear-gradient-2)"/><path d="M85.038,31.42437C68.10852,14.95153,32.24647,7.83084,0,12.82517c5.17286,2.46877,9.11547,5.18579,9.58177,11.958C32.22342,19.84,66.7383,32.2933,81.39351,45.93643Q83.21545,38.53162,85.038,31.42437Z" style="fill:url(#linear-gradient-3)"/><path d="M34.25015,17.47856C38.40421,15.701,42.558,13.599,46.712,11.55338c-3.09466,6.17784-6.1892,12.38692-9.28374,18.47041Q35.83893,23.7764,34.25015,17.47856Z" style="fill:url(#linear-gradient-4)"/><polygon points="4.683 2.537 19.986 53.037 42.793 53.037 48.297 66.889 56.078 53.037 71.949 53.037 76.887 7.934 4.683 2.537" style="fill:url(#linear-gradient-5)"/><path d="M74.80289,27.0641C59.406,23.37134,40.98635,31.38436,30.48813,31.8314c-7.9645.33873-15.09383-3.04212-18.4553-4.95679l2.62909,8.6293,28.0578,17.5332h.07352l.0245.11755.14439.119A76.30142,76.30142,0,0,1,61.192,48.02131a24.36335,24.36335,0,0,1,11.21487.93771Z" style="opacity:0.14"/><polygon points="59.017 3.841 76.887 3.841 71.4 0 59.017 3.841" style="fill:url(#linear-gradient-6)"/><polygon points="45.615 65.768 43.285 62.241 40.481 63.417 45.615 65.768" style="fill:url(#linear-gradient-7)"/><path d="M4.6701,30.833c26.789,17.25176,53.5784-16.66038,80.3679.59141Q83.21553,38.527,81.39351,45.93643C58.3636,37.75734,35.33382,63.95982,12.30426,59.53518,9.75955,50.37081,7.21469,40.8326,4.6701,30.833Z" style="fill:url(#linear-gradient-8)"/><path d="M30.06369,48.32645a2.49065,2.49065,0,0,1-.9248,1.23535,4.68966,4.68966,0,0,1-1.793.78711l-8.03711,1.84277L19.99143,50.01l7.30273-1.67383.44141-1.40918-4.11035.94141a7.05568,7.05568,0,0,1-2.26953.293q-.665-.13184-.36328-1.10059l.70313-2.24316a2.63117,2.63117,0,0,1,1.166-1.46191,7.96326,7.96326,0,0,1,2.46094-.90625l6.38379-1.46289-.67578,2.1582-6.48242,1.48633L24.10275,46.053l4.90039-1.124q2.28955-.52441,1.77832,1.10547Z" style="fill:#42210b"/><path d="M33.53342,48.93094l-3.08008.70605,2.042-6.52148,3.08008-.70605Zm2.42188-7.73437-3.08008.70605.39941-1.27539,3.08008-.70605Z" style="fill:#42210b"/><path d="M41.74045,47.05008,36.5549,48.23856a1.69477,1.69477,0,0,1-1.43164-.11621q-.43066-.34424-.14941-1.24023l.90137-2.87891a3.21681,3.21681,0,0,1,1.06641-1.51855,4.12552,4.12552,0,0,1,1.75781-.88184l5.11328-1.17187L43.1799,42.4534l-4.45117,1.01953L37.927,46.03446l4.4502-1.01953Z" style="fill:#42210b"/><path d="M58.44553,41.43485a3.3923,3.3923,0,0,1-.96094,1.5625,3.90737,3.90737,0,0,1-1.80273.85742l-8.26367,1.89355,2.82129-9.00977,8.292-1.90039q1.13086-.25928,1.502.02051.38086.28857.10547,1.1709l-.40625,1.29883a1.7544,1.7544,0,0,1-.42383.72266,10.16413,10.16413,0,0,1-1.18262.93164c.457.0459.72656.16309.80762.34961a1.15025,1.15025,0,0,1-.06934.7666Zm-2.95605.43848.50684-1.61816-4.33691.99414-.50684,1.61816ZM56.46408,38.76l.48828-1.55664-4.33691.99414-.48828,1.55664Z" style="fill:#42210b"/><path d="M67.84982,39.16629a3.48329,3.48329,0,0,1-1.13574,1.65918,4.69123,4.69123,0,0,1-1.97754.9541l-4.22266.96777a1.3443,1.3443,0,0,1-1.2627-.2002,1.22978,1.22978,0,0,1-.1875-1.36719l.84863-2.709a3.27129,3.27129,0,0,1,.99414-1.50293,3.76437,3.76437,0,0,1,1.6377-.83008l4.40723-1.00977a1.90051,1.90051,0,0,1,1.55566.09863q.46436.36035.19043,1.23047Zm-2.80078.65234.80273-2.56152-3.207.73535L61.842,40.554Z" style="fill:#42210b"/><path d="M26.79025,19.14774a2.14275,2.14275,0,0,1-.35059,1.69043,1.94672,1.94672,0,0,1-1.66016.47559L16.18186,20.846,15.07248,10.137l8.627.46875a2.82328,2.82328,0,0,1,1.7373.55762,2.30261,2.30261,0,0,1,.68848,1.55859l.16016,1.54492a1.18467,1.18467,0,0,1-.13672.79,4.05565,4.05565,0,0,1-.91309.79,2.4029,2.4029,0,0,1,1.10059.74121,2.062,2.062,0,0,1,.29.97168ZM23.21506,14.97l-.19141-1.85059-4.51172-.24609.19141,1.85059Zm.38379,3.7002-.19922-1.92285-4.51172-.24609.19922,1.92383Z" style="fill:#fff"/><path d="M36.341,18.65262l-6.12891-.333.11035,1.06348,4.541.24707.23242,2.24414-5.24707-.28516a2.33516,2.33516,0,0,1-2.44727-2.32129l-.34863-3.36523a1.927,1.927,0,0,1,.458-1.65625,2.12892,2.12892,0,0,1,1.66992-.51758l4.80566.26074q1.88086.10254,2.12109,2.40527Zm-2.79395-1.2959L33.42893,16.22l-3.4541-.1875.11816,1.13672Z" style="fill:#fff"/><path d="M39.83225,12.98954l-3.20508-.17383-.15723-1.51562,3.20508.17383Zm.95215,9.19336-3.20508-.17383-.80273-7.751,3.20508.17383Z" style="fill:#fff"/><path d="M44.386,13.222,41.26975,13.053l-.15527-1.501,3.11621.16895Zm.92383,8.917q.15088,1.45752-.39062,1.877a4.3,4.3,0,0,1-2.52246.32715c-.24512-.01367-.48633-.03125-.72266-.05469l-.23242-2.24316.76367.041-.78711-7.60547,3.11621.16895Z" style="fill:#fff"/><path d="M48.79709,13.47684,45.593,13.302l-.15723-1.51562,3.2041.1748Zm.95215,9.19336-3.2041-.17383-.80273-7.752,3.2041.1748Z" style="fill:#fff"/><path d="M60.96311,23.27957,59.08225,23.178a2.06912,2.06912,0,0,1-1.31152-.52051,1.713,1.713,0,0,1-.584-1.13379l-.40527-3.9043-3.498-.19043.56641,5.46387-2.89551-.15723-.81543-7.86816,2.89551.15723.11328,1.09277a2.8896,2.8896,0,0,1,2.32617-.96l1.14746.0625a3.34912,3.34912,0,0,1,2.30664.835,3.71584,3.71584,0,0,1,.832,2.248l.26074,2.52051.69141.03711Z" style="fill:#fff"/><path d="M70.9465,23.02567a3.00608,3.00608,0,0,1-.35742,2.19727,2.3881,2.3881,0,0,1-2.00391.543l-3.37988-.18359-.19922-1.92383,3.12988.16992-.1416-1.36914-.43555-.11035a1.23618,1.23618,0,0,1-.49707.69727,2.0344,2.0344,0,0,1-1.03711.14648l-2.07227-.1123a2.2502,2.2502,0,0,1-2.35156-2.24414l-.335-3.23437q-.22266-2.1416,1.90918-2.02539l2.18945.11816a2.193,2.193,0,0,1,1.13477.36621,5.65881,5.65881,0,0,1,.92578.90527l-.12109-1.166,2.91016.1582ZM67.83518,20.929,67.549,18.16043l-3.33594-.18066.28613,2.76855Z" style="fill:#fff"/></g></g></svg>