<svg xmlns="http://www.w3.org/2000/svg" xmlns:xlink="http://www.w3.org/1999/xlink" viewBox="0 0 85.038 66.88927"><defs><linearGradient id="linear-gradient" x1="60.92155" y1="54.49024" x2="69.94182" y2="56.78603" gradientUnits="userSpaceOnUse"><stop offset="0.0034" stop-color="#f9b500"/><stop offset="0.33765" stop-color="#faae06"/><stop offset="0.81965" stop-color="#fd9b16"/><stop offset="1" stop-color="#ff921e"/></linearGradient><linearGradient id="linear-gradient-2" x1="121.39953" y1="-247.37694" x2="191.05472" y2="-247.37694" gradientTransform="translate(-177.20121 253.29075) rotate(14.27665)" gradientUnits="userSpaceOnUse"><stop offset="0.0034" stop-color="#c38e00"/><stop offset="0.35843" stop-color="#c28705"/><stop offset="0.87034" stop-color="#bf7413"/><stop offset="1" stop-color="#be6e17"/></linearGradient><linearGradient id="linear-gradient-3" x1="-0.15147" y1="13.42031" x2="84.20493" y2="34.89019" xlink:href="#linear-gradient"/><linearGradient id="linear-gradient-4" x1="33.93469" y1="18.71801" x2="44.22207" y2="21.33629" gradientUnits="userSpaceOnUse"><stop offset="0.0034" stop-color="#ec1e79"/><stop offset="1" stop-color="#ae0663"/></linearGradient><linearGradient id="linear-gradient-5" x1="4.68339" y1="34.71303" x2="76.8867" y2="34.71303" gradientUnits="userSpaceOnUse"><stop offset="0.0034" stop-color="#d10272"/><stop offset="1" stop-color="#931668"/></linearGradient><linearGradient id="linear-gradient-6" x1="59.01707" y1="1.92028" x2="76.8867" y2="1.92028" xlink:href="#linear-gradient-5"/><linearGradient id="linear-gradient-7" x1="40.48118" y1="64.00469" x2="45.61475" y2="64.00469" gradientUnits="userSpaceOnUse"><stop offset="0" stop-color="#3fa8f4"/><stop offset="0.43052" stop-color="#2e99e5"/><stop offset="1" stop-color="#1180cb"/></linearGradient><linearGradient id="linear-gradient-8" x1="198.52836" y1="-274.04262" x2="135.03176" y2="-249.21059" gradientTransform="translate(-177.20121 253.29075) rotate(14.27665)" gradientUnits="userSpaceOnUse"><stop offset="0.0034" stop-color="#f9d14c"/><stop offset="0.27761" stop-color="#facd45"/><stop offset="0.67289" stop-color="#fcc332"/><stop offset="1" stop-color="#ffb81d"/></linearGradient></defs><title>湖北骰寶_3</title><g id="圖層_2" data-name="圖層 2"><g id="圖層_1-2" data-name="圖層 1"><path d="M70.1728,55.8785a60.24181,60.24181,0,0,0-11.0266,5.58721c2.30512-4.52146,4.61-8.9078,6.915-13.09468Q68.11723,52.012,70.1728,55.8785Z" style="fill:url(#linear-gradient)"/><path d="M4.68339,30.78906C7.2236,40.80188,9.764,50.35473,12.30426,59.53518c19.28947,7.53429,38.57907-6.41783,57.86854-3.65668q-2.05588-3.87322-4.11163-7.50747C45.602,41.95515,25.14274,51.28779,4.68339,30.78906Z" style="fill:url(#linear-gradient-2)"/><path d="M85.038,31.42437C68.10852,14.95153,32.24647,7.83084,0,12.82517c5.17286,2.46877,9.11547,5.18579,9.58177,11.958C32.22342,19.84,66.7383,32.2933,81.39351,45.93643Q83.21545,38.53162,85.038,31.42437Z" style="fill:url(#linear-gradient-3)"/><path d="M34.25015,17.47856C38.40421,15.701,42.558,13.599,46.712,11.55338c-3.09466,6.17784-6.1892,12.38692-9.28374,18.47041Q35.83893,23.7764,34.25015,17.47856Z" style="fill:url(#linear-gradient-4)"/><polygon points="4.683 2.537 19.986 53.037 42.793 53.037 48.297 66.889 56.078 53.037 71.949 53.037 76.887 7.934 4.683 2.537" style="fill:url(#linear-gradient-5)"/><path d="M74.80289,27.0641C59.406,23.37134,40.98635,31.38436,30.48813,31.8314c-7.9645.33873-15.09383-3.04212-18.4553-4.95679l2.62909,8.6293,28.0578,17.5332h.07352l.0245.11755.14439.119A76.30142,76.30142,0,0,1,61.192,48.02131a24.36335,24.36335,0,0,1,11.21487.93771Z" style="opacity:0.14"/><polygon points="59.017 3.841 76.887 3.841 71.4 0 59.017 3.841" style="fill:url(#linear-gradient-6)"/><polygon points="45.615 65.768 43.285 62.241 40.481 63.417 45.615 65.768" style="fill:url(#linear-gradient-7)"/><path d="M4.6701,30.833c26.789,17.25176,53.5784-16.66038,80.3679.59141Q83.21553,38.527,81.39351,45.93643C58.3636,37.75734,35.33382,63.95982,12.30426,59.53518,9.75955,50.37081,7.21469,40.8326,4.6701,30.833Z" style="fill:url(#linear-gradient-8)"/><path d="M30.06339,48.32665a2.49065,2.49065,0,0,1-.9248,1.23535,4.68966,4.68966,0,0,1-1.793.78711l-8.03711,1.84277.68262-2.18164,7.30273-1.67383.44141-1.40918-4.11035.94141a7.05568,7.05568,0,0,1-2.26953.293q-.665-.13184-.36328-1.10059l.70313-2.24316a2.63117,2.63117,0,0,1,1.166-1.46191,7.96326,7.96326,0,0,1,2.46094-.90625L31.706,40.98681l-.67578,2.1582-6.48242,1.48633-.44531,1.42188,4.90039-1.124q2.28955-.52441,1.77832,1.10547Z" style="fill:#42210b"/><path d="M33.53312,48.93114,30.453,49.6372l2.042-6.52148,3.08008-.70605ZM35.955,41.19677l-3.08008.70605.39941-1.27539,3.08008-.70605Z" style="fill:#42210b"/><path d="M41.74015,47.05028,36.5546,48.23876a1.69477,1.69477,0,0,1-1.43164-.11621q-.43066-.34424-.14941-1.24023l.90137-2.87891a3.21681,3.21681,0,0,1,1.06641-1.51855,4.12552,4.12552,0,0,1,1.75781-.88184l5.11328-1.17187L43.1796,42.4536l-4.45117,1.01953-.80176,2.56152,4.4502-1.01953Z" style="fill:#42210b"/><path d="M58.44523,41.43505a3.3923,3.3923,0,0,1-.96094,1.5625,3.90737,3.90737,0,0,1-1.80273.85742l-8.26367,1.89355,2.82129-9.00977,8.292-1.90039q1.13086-.25928,1.502.02051.38086.28857.10547,1.1709l-.40625,1.29883a1.7544,1.7544,0,0,1-.42383.72266,10.16413,10.16413,0,0,1-1.18262.93164c.457.0459.72656.16309.80762.34961a1.15025,1.15025,0,0,1-.06934.7666Zm-2.95605.43848.50684-1.61816-4.33691.99414-.50684,1.61816Zm.97461-3.11328.48828-1.55664-4.33691.99414-.48828,1.55664Z" style="fill:#42210b"/><path d="M67.84953,39.1665a3.48329,3.48329,0,0,1-1.13574,1.65918,4.69123,4.69123,0,0,1-1.97754.9541l-4.22266.96777a1.3443,1.3443,0,0,1-1.2627-.2002,1.22978,1.22978,0,0,1-.1875-1.36719l.84863-2.709a3.27129,3.27129,0,0,1,.99414-1.50293,3.76437,3.76437,0,0,1,1.6377-.83008l4.40723-1.00977a1.90051,1.90051,0,0,1,1.55566.09863q.46436.36035.19043,1.23047Zm-2.80078.65234.80273-2.56152-3.207.73535-.80273,2.56152Z" style="fill:#42210b"/><path d="M29.47257,21.61376l-3.61328-.19629-.5166-4.99219-5.00293-.27246.5166,4.99316-3.59668-.19531L16.02628,9.03661l3.59668.19531.47852,4.62012,5.00293.27148-.47852-4.61914,3.61328.19629Z" style="fill:#fff"/><path d="M41.96281,22.29247l-3.2207-.1748-.127-1.23242a3.21853,3.21853,0,0,1-2.58691,1.085l-2.25586-.123q-2.17529-.11719-2.45117-2.793l-.35254-3.40332-.78516-.043-.27734-2.67383,2.01172.10938a2.074,2.074,0,0,1,2.19434,2.03711L34.54,19.21337l3.92383.21289-.62793-6.06152,3.2207.1748Z" style="fill:#fff"/><path d="M53.84855,20.56884q.24609,2.38184-2.124,2.25391l-2.28906-.124a2.2919,2.2919,0,0,1-1.22266-.35645,3.36036,3.36036,0,0,1-.94824-1.293,2.5373,2.5373,0,0,1-.78418,1.19824,1.81976,1.81976,0,0,1-1.14941.22852l-2.02734-.11035-.27344-2.64258.6377.03516-.96-9.27148,3.20508.17383.47461,4.58691a4.26189,4.26189,0,0,1,.85156-.88867,1.843,1.843,0,0,1,1.18848-.29l2.4043.13086A2.51973,2.51973,0,0,1,53.45011,16.728Zm-3.29687-.43652-.3457-3.33984-3.67871-.19922.3457,3.33887Z" style="fill:#fff"/><path d="M64.455,19.85595l-6.81738-.37012.123,1.18262,5.05273.27441.25781,2.49707-5.83789-.31738a2.59779,2.59779,0,0,1-2.72168-2.582l-.3877-3.74414a2.14929,2.14929,0,0,1,.50781-1.8418,2.37193,2.37193,0,0,1,1.85938-.57617l5.3457.29q2.09326.11426,2.3584,2.6748Zm-3.1084-1.44238-.13086-1.26367-3.8418-.209.13086,1.26465Z" style="fill:#fff"/><path d="M68.33781,13.55517l-3.56445-.19336-.1748-1.68555,3.56445.19336ZM69.3964,23.78368l-3.56445-.19434-.89258-8.623,3.56445.19336Z" style="fill:#fff"/></g></g></svg>