<svg xmlns="http://www.w3.org/2000/svg" xmlns:xlink="http://www.w3.org/1999/xlink" viewBox="0 0 141.001 122.50923"><defs><linearGradient id="linear-gradient" x1="101.0137" y1="98.3512" x2="115.9705" y2="102.15791" gradientUnits="userSpaceOnUse"><stop offset="0.0034" stop-color="#f8b400"/><stop offset="0.33765" stop-color="#f9ad06"/><stop offset="0.81965" stop-color="#fd9a16"/><stop offset="1" stop-color="#ff911e"/></linearGradient><linearGradient id="linear-gradient-2" x1="-121.53373" y1="-195.35546" x2="-6.03848" y2="-195.35546" gradientTransform="translate(72.00829 299.40907) rotate(14.27665)" gradientUnits="userSpaceOnUse"><stop offset="0.0034" stop-color="#c28d00"/><stop offset="0.36606" stop-color="#c18605"/><stop offset="0.88899" stop-color="#be7313"/><stop offset="1" stop-color="#bd6e17"/></linearGradient><linearGradient id="linear-gradient-3" x1="-0.25114" y1="30.25335" x2="139.61975" y2="65.85244" xlink:href="#linear-gradient"/><clipPath id="clip-path"><path d="M127.74372,55.4115c0,29.88516-24.52037,54.11912-54.77429,54.11912-30.23651,0-54.75139-24.234-54.75139-54.11912,0-29.88327,24.51488-54.10984,54.75139-54.10984C103.22335,1.30166,127.74372,25.52823,127.74372,55.4115Z" style="fill:none"/></clipPath><radialGradient id="未命名漸層_18" cx="80.2995" cy="50.29572" fx="49.93644186788683" fy="32.24608410877744" r="66.69246" gradientUnits="userSpaceOnUse"><stop offset="0.56892" stop-color="#efffff" stop-opacity="0.2"/><stop offset="0.6925" stop-color="#a6b1b1" stop-opacity="0.13888"/><stop offset="1" stop-opacity="0"/></radialGradient><linearGradient id="未命名漸層_11" x1="72.0057" y1="-2.10939" x2="72.0057" y2="67.31984" gradientUnits="userSpaceOnUse"><stop offset="0" stop-color="#fff"/><stop offset="0.16806" stop-color="#fff" stop-opacity="0.77931"/><stop offset="0.39556" stop-color="#fff" stop-opacity="0.50546"/><stop offset="0.60083" stop-color="#fff" stop-opacity="0.28806"/><stop offset="0.77631" stop-color="#fff" stop-opacity="0.13141"/><stop offset="0.9151" stop-color="#fff" stop-opacity="0.03535"/><stop offset="1" stop-color="#fff" stop-opacity="0"/></linearGradient><linearGradient id="未命名漸層_7" x1="7.74326" y1="79.64551" x2="141.001" y2="79.64551" gradientUnits="userSpaceOnUse"><stop offset="0.0034" stop-color="#f8d04c"/><stop offset="0.18339" stop-color="#f9c948"/><stop offset="0.44353" stop-color="#fab63e"/><stop offset="0.7508" stop-color="#fd972d"/><stop offset="1" stop-color="#ff781d"/></linearGradient></defs><title>泰国彩-越</title><g id="圖層_2" data-name="圖層 2"><g id="圖層_1-2" data-name="圖層 1"><path d="M116.3535,100.65308A99.9092,99.9092,0,0,0,98.07,109.9172c3.82207-7.497,7.64418-14.77,11.46587-21.71221Q112.9447,94.24206,116.3535,100.65308Z" style="fill:url(#linear-gradient)"/><path d="M7.7655,59.05241c4.21229,16.60221,8.42421,32.44173,12.63613,47.66379,31.98357,12.49257,63.96791-10.64137,95.95188-6.06312q-3.4094-6.42216-6.81764-12.44809C75.61212,77.56685,41.68879,93.04125,7.7655,59.05241Z" style="fill:url(#linear-gradient-2)"/><path d="M141.001,60.10581C112.93094,32.7923,53.46807,20.98553,0,29.26659c8.28471,2.53421,15.88723,8.86946,15.88723,8.86946s-1.55965,3.7036-4.97091,10.91594c37.542-8.19576,99.74206,12.4946,124.04183,35.11619Q137.9794,71.89031,141.001,60.10581Z" style="fill:url(#linear-gradient-3)"/><path d="M127.09516,55.41676a54.11427,54.11427,0,1,0-54.11427,54.11386c.53863,0,1.07444-.01052,1.60943-.02629l6.1116,13.0049L90.79132,106.527A54.13333,54.13333,0,0,0,127.09516,55.41676Z" style="fill:#bf0013"/><g style="clip-path:url(#clip-path)"><path d="M127.61519,67.42039a326.7039,326.7039,0,0,1-109.265,0,55.63217,55.63217,0,0,1,0-24.01758,326.11846,326.11846,0,0,1,109.265,0A55.59691,55.59691,0,0,1,127.61519,67.42039Z" style="fill:#003187"/><path d="M127.61519,43.4028a326.11846,326.11846,0,0,0-109.265,0A73.1476,73.1476,0,0,1,23.63452,29.5435c32.48067-13.08109,66.21565-13.08109,98.68535,0A72.43851,72.43851,0,0,1,127.61519,43.4028Z" style="fill:#fff"/><path d="M122.31987,29.5435c-32.46969-13.08109-66.20467-13.08109-98.68535,0a102.3651,102.3651,0,0,1,9.14154-13.85741C44.26361,6.99565,57.3695.272,72.06079.00778c15.35933-.27184,29.14007,6.60888,41.12492,15.6783A101.28515,101.28515,0,0,1,122.31987,29.5435Z" style="fill:#bf0013"/><path d="M122.31987,81.289c-32.46969,13.07162-66.20467,13.07162-98.68535,0a73.38452,73.38452,0,0,1-5.28434-13.86858,326.7039,326.7039,0,0,0,109.265,0A72.67172,72.67172,0,0,1,122.31987,81.289Z" style="fill:#fff"/><path d="M113.18571,95.139c-11.98485,9.07869-25.76559,15.96661-41.12492,15.68019-14.69128-.26635-27.78525-6.98048-39.28472-15.68019a101.39856,101.39856,0,0,1-9.14154-13.85c32.48067,13.07162,66.21565,13.07162,98.68535,0A100.33833,100.33833,0,0,1,113.18571,95.139Z" style="fill:#bf0013"/></g><path d="M127.74372,55.4115c0,29.88516-24.52037,54.11912-54.77429,54.11912-30.23651,0-54.75139-24.234-54.75139-54.11912,0-29.88327,24.51488-54.10984,54.75139-54.10984C103.22335,1.30166,127.74372,25.52823,127.74372,55.4115Z" style="opacity:0.8;fill:url(#未命名漸層_18)"/><path d="M115.81718,36.99174c0,18.26453-19.60857,33.10537-43.81281,33.10537-24.19969,0-43.81016-14.84083-43.81016-33.10537,0-18.2776,19.61046-33.11294,43.81016-33.11294C96.20861,3.8788,115.81718,18.71415,115.81718,36.99174Z" style="fill:url(#未命名漸層_11)"/><path d="M127.09516,55.41676q0-1.386-.06915-2.75376c-27.47889-5.88966-59.11711,7.37892-76.47343,8.11771A48.28567,48.28567,0,0,1,19.51969,50.644l-.51358.8961c-.09014,1.28023-.1395,2.57219-.1395,3.87668a54.06529,54.06529,0,0,0,2.586,16.563L71.23523,96.38013a126.4698,126.4698,0,0,1,30.227-8.73153,35.936,35.936,0,0,1,14.72633.349A53.86686,53.86686,0,0,0,127.09516,55.41676Z" style="opacity:0.14"/><path d="M7.74326,59.1252c44.41952,28.605,88.83822-27.62448,133.25774.98061q-3.02121,11.77682-6.04286,24.06237c-38.18577-13.5617-76.37116,29.8845-114.55651,22.548C16.182,91.52081,11.96326,75.70555,7.74326,59.1252Z" style="fill:url(#未命名漸層_7)"/><path d="M35.55657,88.65713a1.95718,1.95718,0,0,0,.79492-1.01172.94741.94741,0,0,0,.00977-.72754.95876.95876,0,0,0-.543-.40527,7.68406,7.68406,0,0,0-1.23535-.293,9.83172,9.83172,0,0,1-1.60547-.38574,1.268,1.268,0,0,1-.75586-.65625,1.825,1.825,0,0,1,.0498-1.28418,3.88058,3.88058,0,0,1,1.53418-2.01562A9.27906,9.27906,0,0,1,37.082,80.56924a10.18228,10.18228,0,0,1,1.77246-.25684,5.45257,5.45257,0,0,1,1.35156.07031l-.93848,1.97754-.38477.08789a3.47789,3.47789,0,0,0-.18848-1.07324.84374.84374,0,0,0-.57715-.50781,2.61552,2.61552,0,0,0-1.25391.0625q-1.88818.43213-2.22168,1.5a.823.823,0,0,0,.00293.667.90339.90339,0,0,0,.52539.35742c.25781.084.69043.19336,1.30469.32813l.25.04688a12.74282,12.74282,0,0,1,1.68262.45508,1.28635,1.28635,0,0,1,.7373.63086,1.7446,1.7446,0,0,1-.0459,1.249,3.98027,3.98027,0,0,1-1.625,2.07715,10.20869,10.20869,0,0,1-3.49023,1.375,12.92086,12.92086,0,0,1-1.94043.2832,6.06078,6.06078,0,0,1-1.5625-.0332l1.07031-2.27246.37109-.085a2.66577,2.66577,0,0,0,.08789,1.374.874.874,0,0,0,.69824.52539,3.61927,3.61927,0,0,0,1.30762-.11035A4.35556,4.35556,0,0,0,35.55657,88.65713Z" style="fill:#42210b"/><path d="M51.90618,78.15615q1.11035.72949.36914,3.09863a7.48106,7.48106,0,0,1-2.51758,3.76172,10.52034,10.52034,0,0,1-4.19336,1.94531q-2.417.55371-3.52734-.17578-1.11328-.72949-.37012-3.09961a7.4677,7.4677,0,0,1,2.52344-3.75684,10.48878,10.48878,0,0,1,4.1875-1.94922Q50.79338,77.42666,51.90618,78.15615Zm-4.76367,7.72949a4.44384,4.44384,0,0,0,1.04-1.43555,18.3798,18.3798,0,0,0,.93359-2.4707,14.815,14.815,0,0,0,.58984-2.3916,1.301,1.301,0,0,0-.23145-1.14551,1.36723,1.36723,0,0,0-1.209-.10254,3.31173,3.31173,0,0,0-1.46484.71582,4.43593,4.43593,0,0,0-1.041,1.43652,18.42661,18.42661,0,0,0-.93262,2.46973,14.8709,14.8709,0,0,0-.59082,2.39258,1.29456,1.29456,0,0,0,.23242,1.14453,1.36987,1.36987,0,0,0,1.209.10352A3.313,3.313,0,0,0,47.14251,85.88565Zm3.79688-9.21875-.21582.22266a7.34021,7.34021,0,0,1-1.83594-.28125,20.69316,20.69316,0,0,1-2.31055,1.23242l-.09863-.15137A24.853,24.853,0,0,0,48.79876,75.787l.74316-.16992A6.51822,6.51822,0,0,0,50.93938,76.6669Zm1.96-3.26953a.43977.43977,0,0,1,.23828.35938,22.06076,22.06076,0,0,1-2.50684,1.81836l-.11914-.08691Q51.7304,74.183,52.39641,73.328A.80569.80569,0,0,1,52.89934,73.39737Z" style="fill:#42210b"/><path d="M66.207,81.18252a13.55991,13.55991,0,0,1-4.88281,2.02832l-4.375,1.00293.07813-.24707.55957-.22168a1.20228,1.20228,0,0,0,.30664-.15039.40486.40486,0,0,0,.12207-.20117L59.08,79.995l-.87207.2002.10938-.34766.87207-.2002,1.1582-3.69727c.02832-.08984.02637-.14844-.00684-.16992a.49653.49653,0,0,0-.252-.02441l-.49707.02246.07715-.248,4.375-1.00293q3.00293-.687,4.26855-.06836,1.26709.61963.51953,3.001A6.979,6.979,0,0,1,66.207,81.18252Zm-4.21-1.85547-1.1416,3.64746.58594-.13477a5.69717,5.69717,0,0,0,1.94336-.78516,4.23,4.23,0,0,0,1.28027-1.417,12.45569,12.45569,0,0,0,1.00781-2.45312,8.95928,8.95928,0,0,0,.49219-2.334.95234.95234,0,0,0-.52246-1.00391,3.07248,3.07248,0,0,0-1.71484.05273l-.58594.13477L62.10637,78.9794l1.959-.44922-.10937.34766Z" style="fill:#42210b"/><path d="M69.63958,80.9833a1.23622,1.23622,0,0,0,.30664-.15039.40935.40935,0,0,0,.12207-.20117l2.332-7.44336c.02832-.09082.02637-.14844-.00684-.1709a.49653.49653,0,0,0-.252-.02441l-.49707.02246.07715-.248,8.80664-2.01855-.75684,2.41992-.35645.08105a3.945,3.945,0,0,0-.18555-1.08594.73061.73061,0,0,0-.541-.45117,2.93228,2.93228,0,0,0-1.26367.09375l-2.03027.46484L74.24016,75.956l3.68848-.8457-.11621.373L74.124,76.328l-1.21582,3.88379,2.17285-.498a4.81672,4.81672,0,0,0,1.39941-.52832,3.89021,3.89021,0,0,0,.96582-.82031,12.51947,12.51947,0,0,0,.96484-1.36133l.37109-.085-.77344,2.46875-9.00684,2.06348L69.08,81.204Zm6.49316-11.36719-.19531.1582a5.00286,5.00286,0,0,1-1.668-.86133,2.29931,2.29931,0,0,1,1.14551-.86035A7.382,7.382,0,0,0,76.13274,69.61612Zm3.17285.5498-.21582.22266a7.282,7.282,0,0,1-1.83594-.28223,20.69316,20.69316,0,0,1-2.31055,1.23242l-.09863-.15039A25.0099,25.0099,0,0,0,77.165,69.286l.74316-.16992A6.55044,6.55044,0,0,0,79.30559,70.16592Z" style="fill:#42210b"/><path d="M90.62,76.09463a.47074.47074,0,0,0,.251.02148l.498-.02051-.07812.24707L86.62981,77.411l.07813-.24707.56055-.22168a1.23622,1.23622,0,0,0,.30664-.15039.404.404,0,0,0,.12109-.20117l2.417-7.7168-.32812.07617a4.48052,4.48052,0,0,0-1.42969.55859,3.96638,3.96638,0,0,0-.93066.81152q-.375.45557-1.01855,1.4082l-.31348.07129.78418-2.50586,9.60742-2.20117-.78418,2.50586-.31445.07227a5.76452,5.76452,0,0,0-.22559-1.123.8002.8002,0,0,0-.52832-.47754,2.50829,2.50829,0,0,0-1.27246.06055l-.3291.0752-2.417,7.7168C90.58489,76.01358,90.58684,76.07119,90.62,76.09463Z" style="fill:#42210b"/><path d="M98.84563,74.04776c-.02832.09082-.02637.14648.00781.165a.53436.53436,0,0,0,.23926.01953l.48438-.01758-.07812.24707-4.63184,1.06152.07813-.24707.55859-.22168a1.1909,1.1909,0,0,0,.30664-.14941.41393.41393,0,0,0,.12207-.20117l2.332-7.44336c.02832-.0918.02637-.14844-.00684-.1709a.49453.49453,0,0,0-.252-.02441l-.49609.02246.07715-.248,4.63184-1.06152-.07715.248-.54687.2168a1.03793,1.03793,0,0,0-.28711.13574.399.399,0,0,0-.123.20117l-1.08008,3.44824,3.74512-.8584,1.08008-3.44824c.0293-.0918.02734-.14844-.00488-.17187a.43381.43381,0,0,0-.24121-.01465l-.4834.01953.07715-.248,4.63281-1.06152-.07715.248-.56055.21973a1.26544,1.26544,0,0,0-.30664.15137.40048.40048,0,0,0-.12207.20117l-2.332,7.44336c-.02832.08984-.02637.14746.00684.1709a.48194.48194,0,0,0,.252.02246l.498-.02148-.07812.248-4.63281,1.06152.07813-.24707.5459-.21875a1.26889,1.26889,0,0,0,.28906-.14062.3641.3641,0,0,0,.12012-.19434l1.14258-3.64746-3.74512.8584Z" style="fill:#42210b"/><path d="M113.00188,71.1376l.62988-.19043c.13867-.04687.21973-.1084.24316-.18262a.27784.27784,0,0,0,.00391-.13965l-.377-1.59375-3.31641.75977-1.42578,2.00684a.60841.60841,0,0,0-.08887.16016c-.02344.07422.02832.10449.15723.08984l.59863-.09082-.07812.24707-2.17285.498.07813-.24707.54492-.1709a.73916.73916,0,0,0,.26563-.12988,1.741,1.741,0,0,0,.22754-.25977l6.53613-9.13281.458-.10547,1.61328,7.26562a.38353.38353,0,0,0,.08691.1875c.03418.03027.10742.03613.21973.01855l.51367-.07129-.07812.24707-4.71777,1.08105Zm.43164-2.4375-.61621-2.60937-2.34375,3.28809Zm5.05762-8.68945a.766.766,0,0,1,.04.58984q-.69287.38818-1.71484.83594-1.02246.44678-1.76953.71094l-.02832-.12012.65234-.47168q.15527-.11719,1.00293-.74219.84521-.62549,1.39551-1.10937A.60507.60507,0,0,1,118.49114,60.01065Z" style="fill:#42210b"/><path d="M122.07708,61.62979a.48721.48721,0,0,0-.252-.02344l-.49707.02246.07715-.248,4.66016-1.06836-.07715.248-.56055.21973a1.27193,1.27193,0,0,0-.30469.15234.40154.40154,0,0,0-.12207.2002l-2.332,7.44336c-.02832.09082-.02637.14844.00684.17188a.4733.4733,0,0,0,.25.02246l.498-.02148-.07812.24707-4.66016,1.06836.07813-.24707.55957-.22168a1.22434,1.22434,0,0,0,.30664-.14941.41393.41393,0,0,0,.12207-.20117l2.332-7.44336C122.11223,61.70987,122.11028,61.65322,122.07708,61.62979Z" style="fill:#42210b"/></g></g></svg>