<?xml version="1.0" encoding="UTF-8"?>
<svg viewBox="0 0 141 123" version="1.1" xmlns="http://www.w3.org/2000/svg" xmlns:xlink="http://www.w3.org/1999/xlink">
    <title>泰文</title>
    <defs>
        <linearGradient x1="25.9615561%" y1="46.7304342%" x2="83.9698325%" y2="64.2630115%" id="linearGradient-1">
            <stop stop-color="#F8B400" offset="0.34%"></stop>
            <stop stop-color="#F9AD06" offset="33.765%"></stop>
            <stop stop-color="#FD9A16" offset="81.965%"></stop>
            <stop stop-color="#FF911E" offset="100%"></stop>
        </linearGradient>
        <linearGradient x1="-4.93873766%" y1="47.9791621%" x2="98.1373948%" y2="60.3972624%" id="linearGradient-2">
            <stop stop-color="#C28D00" offset="0.34%"></stop>
            <stop stop-color="#C18605" offset="36.606%"></stop>
            <stop stop-color="#BE7313" offset="88.899%"></stop>
            <stop stop-color="#BD6E17" offset="100%"></stop>
        </linearGradient>
        <linearGradient x1="-0.178112212%" y1="42.7219734%" x2="99.020397%" y2="53.018462%" id="linearGradient-3">
            <stop stop-color="#F8B400" offset="0.34%"></stop>
            <stop stop-color="#F9AD06" offset="33.765%"></stop>
            <stop stop-color="#FD9A16" offset="81.965%"></stop>
            <stop stop-color="#FF911E" offset="100%"></stop>
        </linearGradient>
        <radialGradient cx="56.6821041%" cy="45.2689003%" fx="56.6821041%" fy="45.2689003%" r="61.6216399%" gradientTransform="translate(0.566821,0.452689),scale(0.988161,1.000000),translate(-0.566821,-0.452689)" id="radialGradient-4">
            <stop stop-color="#EFFFFF" stop-opacity="0.2" offset="56.892%"></stop>
            <stop stop-color="#A6B1B1" stop-opacity="0.13888" offset="69.25%"></stop>
            <stop stop-color="#000000" stop-opacity="0" offset="100%"></stop>
        </radialGradient>
        <linearGradient x1="50.0000057%" y1="-9.04310303%" x2="50.0000057%" y2="95.8058881%" id="linearGradient-5">
            <stop stop-color="#FFFFFF" offset="0%"></stop>
            <stop stop-color="#FFFFFF" stop-opacity="0.77931" offset="16.806%"></stop>
            <stop stop-color="#FFFFFF" stop-opacity="0.50546" offset="39.556%"></stop>
            <stop stop-color="#FFFFFF" stop-opacity="0.28806" offset="60.083%"></stop>
            <stop stop-color="#FFFFFF" stop-opacity="0.13141" offset="77.631%"></stop>
            <stop stop-color="#FFFFFF" stop-opacity="0.03535" offset="91.51%"></stop>
            <stop stop-color="#FFFFFF" stop-opacity="0" offset="100%"></stop>
        </linearGradient>
        <linearGradient x1="0%" y1="50.0000302%" x2="100%" y2="50.0000302%" id="linearGradient-6">
            <stop stop-color="#F8D04C" offset="0.34%"></stop>
            <stop stop-color="#F9C948" offset="18.339%"></stop>
            <stop stop-color="#FAB63E" offset="44.353%"></stop>
            <stop stop-color="#FD972D" offset="75.08%"></stop>
            <stop stop-color="#FF781D" offset="100%"></stop>
        </linearGradient>
    </defs>
    <g id="问答推广" stroke="none" stroke-width="1" fill="none" fill-rule="evenodd">
        <g id="泰文" fill-rule="nonzero">
            <path d="M116.3535,100.65308 C109.95752,103.106151 103.830787,106.210523 98.07,109.9172 C101.89207,102.4202 105.71418,95.1472 109.53587,88.20499 C111.808423,92.2297033 114.080967,96.3790667 116.3535,100.65308 Z" id="路径" fill="url(#linearGradient-1)"></path>
            <path d="M7.7655,59.05241 C11.97779,75.65462 16.18971,91.49414 20.40163,106.7162 C52.3852,119.20877 84.36954,96.07483 116.35351,100.65308 C114.080577,96.37164 111.80803,92.2222767 109.53587,88.20499 C75.61212,77.56685 41.68879,93.04125 7.7655,59.05241 Z" id="路径" fill="url(#linearGradient-2)"></path>
            <path d="M141.001,60.10581 C112.93094,32.7923 53.46807,20.98553 0,29.26659 C8.28471,31.8008 15.88723,38.13605 15.88723,38.13605 C15.88723,38.13605 14.32758,41.83965 10.91632,49.05199 C48.45832,40.85623 110.65838,61.54659 134.95815,84.16818 C136.972317,75.9829333 138.9866,67.9621433 141.001,60.10581 Z" id="路径" fill="url(#linearGradient-3)"></path>
            <path d="M127.09516,55.41676 C127.09516,33.5295436 113.910912,13.7973912 93.6898087,5.42140121 C73.468705,-2.95458881 50.1931255,1.67509724 34.7164677,17.1516378 C19.2398099,32.6281783 14.6099475,55.9037227 22.9857843,76.1248899 C31.3616211,96.346057 51.0936736,109.53062 72.98089,109.53062 C73.51952,109.53062 74.05533,109.5201 74.59032,109.50433 L80.70192,122.50923 L90.79132,106.527 C112.530148,98.9439368 127.094036,78.4402152 127.09516,55.41676 Z" id="路径" fill="#BF0013"></path>
            <g id="编组" transform="translate(17.000000, 0.000000)">
                <path d="M110.61519,67.42039 C74.4517673,73.5541252 37.5136127,73.5541252 1.35019,67.42039 C-0.39857347,59.510028 -0.39857347,51.313172 1.35019,43.40281 C37.5126713,37.2579059 74.4527087,37.2579059 110.61519,43.40281 C112.365089,51.3130479 112.365089,59.5101521 110.61519,67.42039 L110.61519,67.42039 Z" id="路径" fill="#003187"></path>
                <path d="M110.61519,43.4028 C74.4527087,37.2578959 37.5126713,37.2578959 1.35019,43.4028 C2.6374855,38.6159168 4.40802903,33.9722829 6.63452,29.5435 C39.11519,16.46241 72.85017,16.46241 105.31987,29.5435 C107.554669,33.9698544 109.32908,38.6139732 110.61519,43.4028 L110.61519,43.4028 Z" id="路径" fill="#FFFFFF"></path>
                <path d="M105.31987,29.5435 C72.85018,16.46241 39.1152,16.46241 6.63452,29.5435 C9.3015023,24.6844854 12.3587333,20.0501128 15.77606,15.68609 C27.26361,6.99565 40.3695,0.272 55.06079,0.00778 C70.42012,-0.26406 84.20086,6.61666 96.18571,15.68608 C99.6043963,20.0475615 102.65937,24.6822576 105.31987,29.5435 Z" id="路径" fill="#BF0013"></path>
                <path d="M105.31987,81.289 C72.85018,94.36062 39.1152,94.36062 6.63452,81.289 C4.40893666,76.8565925 2.63843812,72.2099762 1.35018,67.42042 C37.5136027,73.5541552 74.4517573,73.5541552 110.61518,67.42042 C109.328113,72.2119173 107.553755,76.8590172 105.31987,81.289 L105.31987,81.289 Z" id="路径" fill="#FFFFFF"></path>
                <path d="M96.18571,95.139 C84.20086,104.21769 70.42012,111.10561 55.06079,110.81919 C40.36951,110.55284 27.27554,103.83871 15.77607,95.139 C12.3555919,90.7798573 9.29817542,86.1476817 6.63453,81.289 C39.1152,94.36062 72.85018,94.36062 105.31988,81.289 C102.662712,86.1499032 99.6075475,90.7824016 96.18571,95.139 L96.18571,95.139 Z" id="路径" fill="#BF0013"></path>
            </g>
            <path d="M127.74372,55.4115 C127.74372,85.29666 103.22335,109.53062 72.96943,109.53062 C42.73292,109.53062 18.21804,85.29662 18.21804,55.4115 C18.21804,25.52823 42.73292,1.30166 72.96943,1.30166 C103.22335,1.30166 127.74372,25.52823 127.74372,55.4115 Z" id="路径" fill="url(#radialGradient-4)" opacity="0.8"></path>
            <path d="M115.81718,36.99174 C115.81718,55.25627 96.20861,70.09711 72.00437,70.09711 C47.80468,70.09711 28.19421,55.25628 28.19421,36.99174 C28.19421,18.71414 47.80467,3.8788 72.00437,3.8788 C96.20861,3.8788 115.81718,18.71415 115.81718,36.99174 Z" id="路径" fill="url(#linearGradient-5)"></path>
            <path d="M127.095225,55.41676 C127.095225,54.49276 127.07211,53.57484 127.02601,52.663 C99.54712,46.77334 67.9089,60.04192 50.55258,60.78071 C39.3451216,61.1072975 28.3733449,57.5234316 19.51969,50.644 L19.00611,51.5401 C18.91597,52.82033 18.8665936,54.11229 18.8665936,55.41678 C18.8622318,61.0386513 19.7347172,66.6268089 21.45261,71.97978 L71.23523,96.38013 C80.9081719,92.2227803 91.0623957,89.2895779 101.46223,87.6486 C106.342444,86.7468179 111.356544,86.8656473 116.18856,87.9976 C123.282988,78.6189734 127.113445,67.1764031 127.095225,55.41676 Z" id="路径" fill="#000000" opacity="0.14"></path>
            <path d="M7.74326,59.1252 C52.16278,87.7302 96.58148,31.50072 141.001,60.10581 C138.98686,67.9570233 136.972573,75.9778133 134.95814,84.16818 C96.77237,70.60648 58.58698,114.05268 20.40163,106.71618 C16.182,91.52081 11.96326,75.70555 7.74326,59.1252 Z" id="路径" fill="url(#linearGradient-6)"></path>
            <path d="M54.0297506,81.6695886 C54.1630839,80.0945886 54.5839172,78.7758386 55.2922506,77.7133386 C56.0464172,76.5800053 56.6318339,76.0133386 57.0485006,76.0133386 C57.1568339,76.0133386 57.2537089,76.0675053 57.3391256,76.1758386 C57.4245422,76.284172 57.4672506,76.396672 57.4672506,76.5133386 L57.4672506,76.5133386 L57.4672506,81.6695886 L58.9860006,81.6695886 L58.9860006,76.5133386 C58.9860006,76.3175053 58.9162089,76.124797 58.7766256,75.9352136 C58.6370422,75.7456303 58.4880839,75.6258386 58.3297506,75.5758386 C58.6130839,75.5258386 58.8505839,75.3550053 59.0422506,75.0633386 C59.2255839,74.7925053 59.3172506,74.5070886 59.3172506,74.2070886 C59.3172506,73.727922 59.1693339,73.3352136 58.8735006,73.0289636 C58.5776672,72.7227136 58.1901672,72.5695886 57.7110006,72.5695886 C57.2568339,72.5695886 56.8651672,72.718547 56.5360006,73.0164636 C56.2068339,73.3143803 56.0422506,73.6883386 56.0422506,74.1383386 L56.0422506,74.1383386 L56.0422506,74.2008386 C56.0422506,74.234172 56.0547506,74.3383386 56.0797506,74.5133386 C56.1130839,74.7758386 56.2610006,75.002922 56.5235006,75.1945886 C56.3443339,75.1945886 56.1307922,75.277922 55.8828756,75.4445886 C55.6349589,75.6112553 55.2630839,75.9945886 54.7672506,76.5945886 C54.2380839,77.240422 53.9735006,77.6695886 53.9735006,77.8820886 L53.9735006,77.8820886 L53.9735006,74.4633386 C53.9735006,73.946672 53.7964172,73.496672 53.4422506,73.1133386 C53.1464172,72.784172 52.7276672,72.6195886 52.1860006,72.6195886 C52.0860006,72.6195886 51.9089172,72.634172 51.6547506,72.6633386 C51.3297506,72.7050053 51.0443339,72.890422 50.7985006,73.2195886 C50.5776672,73.527922 50.4672506,73.8508386 50.4672506,74.1883386 C50.4672506,74.6175053 50.6214172,74.977922 50.9297506,75.2695886 C51.2380839,75.5612553 51.6068339,75.7070886 52.0360006,75.7070886 C52.1610006,75.7070886 52.3130839,75.6945886 52.4922506,75.6695886 L52.4922506,75.6695886 L52.4922506,81.6695886 L54.0297506,81.6695886 Z M57.6922506,74.8633386 C57.4964172,74.8633386 57.3287089,74.793547 57.1891256,74.6539636 C57.0495422,74.5143803 56.9797506,74.346672 56.9797506,74.1508386 C56.9797506,73.9633386 57.0505839,73.8018803 57.1922506,73.6664636 C57.3339172,73.531047 57.5005839,73.4633386 57.6922506,73.4633386 C57.8880839,73.4633386 58.0557922,73.5300053 58.1953756,73.6633386 C58.3349589,73.796672 58.4047506,73.959172 58.4047506,74.1508386 C58.4047506,74.346672 58.3349589,74.5143803 58.1953756,74.6539636 C58.0557922,74.793547 57.8880839,74.8633386 57.6922506,74.8633386 Z M52.0360006,74.8633386 C51.8526672,74.8633386 51.6943339,74.7956303 51.5610006,74.6602136 C51.4276672,74.524797 51.3610006,74.3675053 51.3610006,74.1883386 C51.3610006,73.996672 51.4255839,73.8331303 51.5547506,73.6977136 C51.6839172,73.562297 51.8443339,73.4945886 52.0360006,73.4945886 C52.2235006,73.4945886 52.3828756,73.562297 52.5141256,73.6977136 C52.6453756,73.8331303 52.7110006,73.996672 52.7110006,74.1883386 C52.7110006,74.371672 52.6443339,74.5300053 52.5110006,74.6633386 C52.3776672,74.796672 52.2193339,74.8633386 52.0360006,74.8633386 Z M65.4485006,81.8008386 C65.9401672,81.8008386 66.3464172,81.627922 66.6672506,81.2820886 C67.0214172,80.8987553 67.1985006,80.4550053 67.1985006,79.9508386 L67.1985006,79.9508386 L67.1985006,75.5195886 C67.1985006,74.540422 66.8985006,73.809172 66.2985006,73.3258386 C65.6693339,72.821672 64.8360006,72.5695886 63.7985006,72.5695886 C62.7651672,72.5695886 61.9880839,72.7883386 61.4672506,73.2258386 C60.9714172,73.6425053 60.6193339,74.1425053 60.4110006,74.7258386 L60.4110006,74.7258386 L61.2297506,75.2508386 C61.3547506,74.846672 61.5672506,74.502922 61.8672506,74.2195886 C62.3339172,73.777922 62.9610006,73.5570886 63.7485006,73.5570886 C64.5485006,73.5570886 65.1089172,73.7987553 65.4297506,74.2820886 C65.6214172,74.5695886 65.7172506,75.0633386 65.7172506,75.7633386 L65.7172506,75.7633386 L65.7172506,78.7508386 C65.5839172,78.7175053 65.4318339,78.7008386 65.2610006,78.7008386 C64.8276672,78.7008386 64.4578756,78.8477136 64.1516256,79.1414636 C63.8453756,79.4352136 63.6922506,79.7987553 63.6922506,80.2320886 C63.6922506,80.640422 63.8276672,80.9883386 64.0985006,81.2758386 C64.3693339,81.5633386 64.7089172,81.7258386 65.1172506,81.7633386 C65.2380839,81.7883386 65.3485006,81.8008386 65.4485006,81.8008386 Z M65.2610006,80.9195886 C65.0693339,80.9195886 64.9057922,80.8518803 64.7703756,80.7164636 C64.6349589,80.581047 64.5672506,80.4195886 64.5672506,80.2320886 C64.5672506,80.0445886 64.6360006,79.884172 64.7735006,79.7508386 C64.9110006,79.6175053 65.0735006,79.5508386 65.2610006,79.5508386 C65.4526672,79.5508386 65.6130839,79.6164636 65.7422506,79.7477136 C65.8714172,79.8789636 65.9360006,80.040422 65.9360006,80.2320886 C65.9360006,80.690422 65.7110006,80.9195886 65.2610006,80.9195886 Z M75.1547506,81.6695886 C75.8089172,81.6695886 76.2693339,81.4945886 76.5360006,81.1445886 C76.7693339,80.8362553 76.8860006,80.4570886 76.8860006,80.0070886 L76.8860006,80.0070886 L76.8860006,72.7320886 L75.3860006,72.7320886 L75.3860006,79.7758386 C75.3860006,80.0008386 75.3360006,80.177922 75.2360006,80.3070886 C75.1193339,80.4612553 74.9589172,80.5383386 74.7547506,80.5383386 L74.7547506,80.5383386 L71.7047506,80.5383386 L71.7047506,78.9695886 C71.7047506,78.4695886 71.8589172,78.0800053 72.1672506,77.8008386 C72.4130839,77.584172 72.7755839,77.4758386 73.2547506,77.4758386 L73.2547506,77.4758386 L73.9485006,77.4758386 L73.9485006,76.4570886 L73.2922506,76.4570886 C72.9589172,76.4570886 72.6214172,76.4320886 72.2797506,76.3820886 C71.2422506,76.240422 70.7235006,75.7300053 70.7235006,74.8508386 C70.7235006,74.7008386 70.7672506,74.5362553 70.8547506,74.3570886 C70.9589172,74.152922 71.0776672,74.0425053 71.2110006,74.0258386 C71.1818339,74.096672 71.1672506,74.2133386 71.1672506,74.3758386 C71.1672506,74.5508386 71.2005839,74.7258386 71.2672506,74.9008386 C71.4589172,75.434172 71.9214172,75.7008386 72.6547506,75.7008386 C72.9880839,75.7008386 73.2880839,75.6175053 73.5547506,75.4508386 C73.9589172,75.1925053 74.1610006,74.777922 74.1610006,74.2070886 C74.1610006,73.6862553 73.9860006,73.2800053 73.6360006,72.9883386 C73.3068339,72.721672 72.8776672,72.5883386 72.3485006,72.5883386 C71.5526672,72.5883386 70.8922506,72.7883386 70.3672506,73.1883386 C69.7880839,73.6383386 69.4985006,74.246672 69.4985006,75.0133386 C69.4985006,75.621672 69.6891256,76.1081303 70.0703756,76.4727136 C70.4516256,76.837297 70.9485006,77.0195886 71.5610006,77.0195886 C71.1526672,77.0862553 70.8089172,77.3112553 70.5297506,77.6945886 C70.2922506,78.0237553 70.1735006,78.4675053 70.1735006,79.0258386 L70.1735006,79.0258386 L70.1735006,80.5383386 L69.5735006,80.5383386 L69.5735006,81.6695886 L75.1547506,81.6695886 Z M72.6360006,74.8883386 C72.4526672,74.8883386 72.2912089,74.821672 72.1516256,74.6883386 C72.0120422,74.5550053 71.9422506,74.3945886 71.9422506,74.2070886 C71.9422506,74.0195886 72.0110006,73.8602136 72.1485006,73.7289636 C72.2860006,73.5977136 72.4485006,73.5320886 72.6360006,73.5320886 C73.0985006,73.5320886 73.3297506,73.7570886 73.3297506,74.2070886 C73.3297506,74.390422 73.2599589,74.549797 73.1203756,74.6852136 C72.9807922,74.8206303 72.8193339,74.8883386 72.6360006,74.8883386 Z M86.6797506,67.3695886 L86.6797506,64.7633386 L85.3297506,64.7633386 L85.3297506,67.3695886 L86.6797506,67.3695886 Z M86.7485006,71.6383386 L86.6735006,71.4570886 L86.6735006,68.1195886 L85.1985006,68.1195886 L85.1985006,69.4820886 L84.9672506,69.2695886 C84.4422506,68.8820886 83.7589172,68.6883386 82.9172506,68.6883386 C81.9880839,68.6883386 81.2630839,68.8925053 80.7422506,69.3008386 C79.9922506,69.8925053 79.5568339,70.6425053 79.4360006,71.5508386 C80.5943339,71.3425053 81.7547506,71.2383386 82.9172506,71.2383386 C84.0422506,71.2383386 85.0297506,71.3175053 85.8797506,71.4758386 L85.8797506,71.4758386 L86.7485006,71.6383386 Z M85.1985006,70.7445886 C84.4485006,70.5987553 83.7547506,70.5258386 83.1172506,70.5258386 C82.5422506,70.5258386 81.8672506,70.5445886 81.0922506,70.5820886 C81.2547506,70.152922 81.4662089,69.8539636 81.7266256,69.6852136 C81.9870422,69.5164636 82.3526672,69.4320886 82.8235006,69.4320886 C83.7068339,69.4320886 84.4214172,69.759172 84.9672506,70.4133386 C85.0464172,70.5258386 85.1235006,70.6362553 85.1985006,70.7445886 Z M84.9297506,81.6695886 C85.5839172,81.6695886 86.0443339,81.4945886 86.3110006,81.1445886 C86.5443339,80.8362553 86.6610006,80.4570886 86.6610006,80.0070886 L86.6610006,80.0070886 L86.6610006,72.7320886 L85.1610006,72.7320886 L85.1610006,79.7758386 C85.1610006,80.0008386 85.1110006,80.177922 85.0110006,80.3070886 C84.8943339,80.4612553 84.7339172,80.5383386 84.5297506,80.5383386 L84.5297506,80.5383386 L81.4797506,80.5383386 L81.4797506,78.9695886 C81.4797506,78.4695886 81.6339172,78.0800053 81.9422506,77.8008386 C82.1880839,77.584172 82.5505839,77.4758386 83.0297506,77.4758386 L83.0297506,77.4758386 L83.7235006,77.4758386 L83.7235006,76.4570886 L83.0672506,76.4570886 C82.7339172,76.4570886 82.3964172,76.4320886 82.0547506,76.3820886 C81.0172506,76.240422 80.4985006,75.7300053 80.4985006,74.8508386 C80.4985006,74.7008386 80.5422506,74.5362553 80.6297506,74.3570886 C80.7339172,74.152922 80.8526672,74.0425053 80.9860006,74.0258386 C80.9568339,74.096672 80.9422506,74.2133386 80.9422506,74.3758386 C80.9422506,74.5508386 80.9755839,74.7258386 81.0422506,74.9008386 C81.2339172,75.434172 81.6964172,75.7008386 82.4297506,75.7008386 C82.7630839,75.7008386 83.0630839,75.6175053 83.3297506,75.4508386 C83.7339172,75.1925053 83.9360006,74.777922 83.9360006,74.2070886 C83.9360006,73.6862553 83.7610006,73.2800053 83.4110006,72.9883386 C83.0818339,72.721672 82.6526672,72.5883386 82.1235006,72.5883386 C81.3276672,72.5883386 80.6672506,72.7883386 80.1422506,73.1883386 C79.5630839,73.6383386 79.2735006,74.246672 79.2735006,75.0133386 C79.2735006,75.621672 79.4641256,76.1081303 79.8453756,76.4727136 C80.2266256,76.837297 80.7235006,77.0195886 81.3360006,77.0195886 C80.9276672,77.0862553 80.5839172,77.3112553 80.3047506,77.6945886 C80.0672506,78.0237553 79.9485006,78.4675053 79.9485006,79.0258386 L79.9485006,79.0258386 L79.9485006,80.5383386 L79.3485006,80.5383386 L79.3485006,81.6695886 L84.9297506,81.6695886 Z M82.4110006,74.8883386 C82.2276672,74.8883386 82.0662089,74.821672 81.9266256,74.6883386 C81.7870422,74.5550053 81.7172506,74.3945886 81.7172506,74.2070886 C81.7172506,74.0195886 81.7860006,73.8602136 81.9235006,73.7289636 C82.0610006,73.5977136 82.2235006,73.5320886 82.4110006,73.5320886 C82.8735006,73.5320886 83.1047506,73.7570886 83.1047506,74.2070886 C83.1047506,74.390422 83.0349589,74.549797 82.8953756,74.6852136 C82.7557922,74.8206303 82.5943339,74.8883386 82.4110006,74.8883386 Z M96.3610006,71.3258386 L96.2860006,71.1445886 L96.2860006,67.8070886 L94.8110006,67.8070886 L94.8110006,69.1695886 L94.5797506,68.9570886 C94.0547506,68.5695886 93.3714172,68.3758386 92.5297506,68.3758386 C91.6005839,68.3758386 90.8755839,68.5800053 90.3547506,68.9883386 C89.6047506,69.5800053 89.1693339,70.3300053 89.0485006,71.2383386 C90.2068339,71.0300053 91.3672506,70.9258386 92.5297506,70.9258386 C93.6547506,70.9258386 94.6422506,71.0050053 95.4922506,71.1633386 L95.4922506,71.1633386 L96.3610006,71.3258386 Z M94.8110006,70.4320886 C94.0610006,70.2862553 93.3672506,70.2133386 92.7297506,70.2133386 C92.1547506,70.2133386 91.4797506,70.2320886 90.7047506,70.2695886 C90.8672506,69.840422 91.0787089,69.5414636 91.3391256,69.3727136 C91.5995422,69.2039636 91.9651672,69.1195886 92.4360006,69.1195886 C93.3193339,69.1195886 94.0339172,69.446672 94.5797506,70.1008386 C94.6589172,70.2133386 94.7360006,70.3237553 94.8110006,70.4320886 Z M90.7922506,81.6695886 L90.7922506,77.0508386 C90.7922506,76.6258386 90.9318339,76.2987553 91.2110006,76.0695886 C91.3651672,75.9112553 91.5985006,75.8320886 91.9110006,75.8320886 L91.9110006,75.8320886 L92.0172506,75.1195886 L89.7360006,74.7695886 C89.8360006,74.6737553 89.9630839,74.5508386 90.1172506,74.4008386 C90.2422506,74.284172 90.4547506,74.1425053 90.7547506,73.9758386 C91.0172506,73.8258386 91.2630839,73.721672 91.4922506,73.6633386 C91.7630839,73.5925053 92.0693339,73.5570886 92.4110006,73.5570886 C93.3276672,73.5570886 93.9630839,73.7737553 94.3172506,74.2070886 C94.5922506,74.5612553 94.7297506,75.052922 94.7297506,75.6820886 L94.7297506,75.6820886 L94.7297506,81.6695886 L96.2110006,81.6695886 L96.2110006,75.6320886 C96.2110006,75.340422 96.1922506,75.0800053 96.1547506,74.8508386 C96.1214172,74.6550053 96.0485006,74.4487553 95.9360006,74.2320886 C95.7776672,73.9320886 95.5839172,73.6758386 95.3547506,73.4633386 C95.1047506,73.2258386 94.8235006,73.040422 94.5110006,72.9070886 C93.9818339,72.6820886 93.2818339,72.5695886 92.4110006,72.5695886 C91.6943339,72.5695886 91.0724589,72.7112553 90.5453756,72.9945886 C90.0182922,73.277922 89.5839172,73.6070886 89.2422506,73.9820886 C88.9880839,74.2612553 88.7693339,74.4383386 88.5860006,74.5133386 L88.5860006,74.5133386 L88.4922506,75.4695886 L90.2860006,75.6820886 C90.2693339,75.740422 90.2235006,75.7737553 90.1485006,75.7820886 C89.9526672,75.8112553 89.7568339,75.946672 89.5610006,76.1883386 C89.3985006,76.4008386 89.3172506,76.6883386 89.3172506,77.0508386 L89.3172506,77.0508386 L89.3172506,81.6695886 L90.7922506,81.6695886 Z" id="หวยยก" fill="#000000" transform="translate(73.414126, 73.282089) rotate(-16.000000) translate(-73.414126, -73.282089) "></path>
        </g>
    </g>
</svg>