<svg xmlns="http://www.w3.org/2000/svg" xmlns:xlink="http://www.w3.org/1999/xlink" viewBox="0 0 141.001 122.50923"><defs><linearGradient id="linear-gradient" x1="101.0137" y1="98.3512" x2="115.9705" y2="102.15791" gradientUnits="userSpaceOnUse"><stop offset="0.0034" stop-color="#f8b400"/><stop offset="0.33765" stop-color="#f9ad06"/><stop offset="0.81965" stop-color="#fd9a16"/><stop offset="1" stop-color="#ff911e"/></linearGradient><linearGradient id="linear-gradient-2" x1="-103.39853" y1="-50.46834" x2="12.09671" y2="-50.46834" gradientTransform="translate(90.16264 154.52682) rotate(14.27665)" gradientUnits="userSpaceOnUse"><stop offset="0.0034" stop-color="#c28d00"/><stop offset="0.36606" stop-color="#c18605"/><stop offset="0.88899" stop-color="#be7313"/><stop offset="1" stop-color="#bd6e17"/></linearGradient><linearGradient id="linear-gradient-3" x1="-0.25114" y1="30.25335" x2="139.61975" y2="65.85244" xlink:href="#linear-gradient"/><clipPath id="clip-path"><path d="M127.74372,55.4115c0,29.88516-24.52037,54.11912-54.77429,54.11912-30.23651,0-54.75139-24.234-54.75139-54.11912,0-29.88327,24.51488-54.10984,54.75139-54.10984C103.22335,1.30166,127.74372,25.52823,127.74372,55.4115Z" style="fill:none"/></clipPath><radialGradient id="未命名漸層_18" cx="80.2995" cy="50.29572" fx="49.93644186788683" fy="32.24608410877744" r="66.69246" gradientUnits="userSpaceOnUse"><stop offset="0.56892" stop-color="#efffff" stop-opacity="0.2"/><stop offset="0.6925" stop-color="#a6b1b1" stop-opacity="0.13888"/><stop offset="1" stop-opacity="0"/></radialGradient><linearGradient id="未命名漸層_11" x1="72.0057" y1="-2.10939" x2="72.0057" y2="67.31984" gradientUnits="userSpaceOnUse"><stop offset="0" stop-color="#fff"/><stop offset="0.16806" stop-color="#fff" stop-opacity="0.77931"/><stop offset="0.39556" stop-color="#fff" stop-opacity="0.50546"/><stop offset="0.60083" stop-color="#fff" stop-opacity="0.28806"/><stop offset="0.77631" stop-color="#fff" stop-opacity="0.13141"/><stop offset="0.9151" stop-color="#fff" stop-opacity="0.03535"/><stop offset="1" stop-color="#fff" stop-opacity="0"/></linearGradient><linearGradient id="未命名漸層_7" x1="7.74326" y1="79.64551" x2="141.001" y2="79.64551" gradientUnits="userSpaceOnUse"><stop offset="0.0034" stop-color="#f8d04c"/><stop offset="0.18339" stop-color="#f9c948"/><stop offset="0.44353" stop-color="#fab63e"/><stop offset="0.7508" stop-color="#fd972d"/><stop offset="1" stop-color="#ff781d"/></linearGradient></defs><title>泰国彩-中</title><g id="圖層_2" data-name="圖層 2"><g id="圖層_1-2" data-name="圖層 1"><path d="M116.3535,100.65308A99.9092,99.9092,0,0,0,98.07,109.9172c3.82207-7.497,7.64418-14.77,11.46587-21.71221Q112.9447,94.24206,116.3535,100.65308Z" style="fill:url(#linear-gradient)"/><path d="M7.7655,59.05241c4.21229,16.60221,8.42421,32.44173,12.63613,47.66379,31.98357,12.49257,63.96791-10.64137,95.95188-6.06312q-3.4094-6.42216-6.81764-12.44809C75.61212,77.56685,41.68879,93.04125,7.7655,59.05241Z" style="fill:url(#linear-gradient-2)"/><path d="M141.001,60.10581C112.93094,32.7923,53.46807,20.98553,0,29.26659c8.28471,2.53421,15.88723,8.86946,15.88723,8.86946s-1.55965,3.7036-4.97091,10.91594c37.542-8.19576,99.74206,12.4946,124.04183,35.11619Q137.9794,71.89031,141.001,60.10581Z" style="fill:url(#linear-gradient-3)"/><path d="M127.09516,55.41676a54.11427,54.11427,0,1,0-54.11427,54.11386c.53863,0,1.07444-.01052,1.60943-.02629l6.1116,13.0049L90.79132,106.527A54.13333,54.13333,0,0,0,127.09516,55.41676Z" style="fill:#bf0013"/><g style="clip-path:url(#clip-path)"><path d="M127.61519,67.42039a326.7039,326.7039,0,0,1-109.265,0,55.63217,55.63217,0,0,1,0-24.01758,326.11846,326.11846,0,0,1,109.265,0A55.59691,55.59691,0,0,1,127.61519,67.42039Z" style="fill:#003187"/><path d="M127.61519,43.4028a326.11846,326.11846,0,0,0-109.265,0A73.1476,73.1476,0,0,1,23.63452,29.5435c32.48067-13.08109,66.21565-13.08109,98.68535,0A72.43851,72.43851,0,0,1,127.61519,43.4028Z" style="fill:#fff"/><path d="M122.31987,29.5435c-32.46969-13.08109-66.20467-13.08109-98.68535,0a102.3651,102.3651,0,0,1,9.14154-13.85741C44.26361,6.99565,57.3695.272,72.06079.00778c15.35933-.27184,29.14007,6.60888,41.12492,15.6783A101.28515,101.28515,0,0,1,122.31987,29.5435Z" style="fill:#bf0013"/><path d="M122.31987,81.289c-32.46969,13.07162-66.20467,13.07162-98.68535,0a73.38452,73.38452,0,0,1-5.28434-13.86858,326.7039,326.7039,0,0,0,109.265,0A72.67172,72.67172,0,0,1,122.31987,81.289Z" style="fill:#fff"/><path d="M113.18571,95.139c-11.98485,9.07869-25.76559,15.96661-41.12492,15.68019-14.69128-.26635-27.78525-6.98048-39.28472-15.68019a101.39856,101.39856,0,0,1-9.14154-13.85c32.48067,13.07162,66.21565,13.07162,98.68535,0A100.33833,100.33833,0,0,1,113.18571,95.139Z" style="fill:#bf0013"/></g><path d="M127.74372,55.4115c0,29.88516-24.52037,54.11912-54.77429,54.11912-30.23651,0-54.75139-24.234-54.75139-54.11912,0-29.88327,24.51488-54.10984,54.75139-54.10984C103.22335,1.30166,127.74372,25.52823,127.74372,55.4115Z" style="opacity:0.8;fill:url(#未命名漸層_18)"/><path d="M115.81718,36.99174c0,18.26453-19.60857,33.10537-43.81281,33.10537-24.19969,0-43.81016-14.84083-43.81016-33.10537,0-18.2776,19.61046-33.11294,43.81016-33.11294C96.20861,3.8788,115.81718,18.71415,115.81718,36.99174Z" style="fill:url(#未命名漸層_11)"/><path d="M127.09516,55.41676q0-1.386-.06915-2.75376c-27.47889-5.88966-59.11711,7.37892-76.47343,8.11771A48.28567,48.28567,0,0,1,19.51969,50.644l-.51358.8961c-.09014,1.28023-.1395,2.57219-.1395,3.87668a54.06529,54.06529,0,0,0,2.586,16.563L71.23523,96.38013a126.4698,126.4698,0,0,1,30.227-8.73153,35.936,35.936,0,0,1,14.72633.349A53.86686,53.86686,0,0,0,127.09516,55.41676Z" style="opacity:0.14"/><path d="M7.74326,59.1252c44.41952,28.605,88.83822-27.62448,133.25774.98061q-3.02121,11.77682-6.04286,24.06237c-38.18577-13.5617-76.37116,29.8845-114.55651,22.548C16.182,91.52081,11.96326,75.70555,7.74326,59.1252Z" style="fill:url(#未命名漸層_7)"/><path d="M62.67737,81.21377a21.98453,21.98453,0,0,0,1.82812-1.72852,8.638,8.638,0,0,1-1.917-1.40723l-4.11816,1.08691A13.8216,13.8216,0,0,1,57.319,81.30752q1.28467.3457,2.54395.75293l-.51172,1.18262q-1.30664-.48926-2.73047-.93652a21.46453,21.46453,0,0,1-2.2793,2.5166q-.457-.4292-1.06641-.91992a14.683,14.683,0,0,0,3.56641-4.30762l-4.07617,1.07715-.27148-1.02734,4.91113-1.29785a10.52446,10.52446,0,0,0,.51563-1.78418L53.28968,77.786l-.27148-1.02734,5.06348-1.33789a14.1836,14.1836,0,0,0,.06641-1.44141L52.08948,75.579,51.818,74.55166l6.292-1.66211q-.04248-.74414-.1543-1.55469l1.34766-.167q.063.728.09766,1.38086l6.7666-1.78711.27148,1.02734-6.999,1.84863q.01172.78662-.0332,1.43359l6.83789-1.80566.27148,1.02734L59.29359,76.2001a11.48091,11.48091,0,0,1-.37988,1.749l9.21387-2.43359.27148,1.02734-4.49512,1.1875A9.36767,9.36767,0,0,0,69.441,79.32412q-.2666.80859-.46191,1.49609a13.66786,13.66786,0,0,1-3.36621-.81055q-.87012.93164-2.02637,1.97754C63.35706,81.77237,63.0553,81.51358,62.67737,81.21377Zm-2.22656,1.8418a9.8495,9.8495,0,0,0,.55664,1.00391Q57.96058,85.911,55.91566,87.206l-.707-1.04883Q57.48792,84.90176,60.45081,83.05557Zm-.1709-3.50977,1.252-.33008,1.4541,5.50488a1.75508,1.75508,0,0,1-1.46289,2.39551q-.81738.21533-1.96582.48438-.20947-.52734-.5459-1.28125a19.6399,19.6399,0,0,0,1.97656-.38477q.91553-.2417.69141-1.0918Zm2.6123,3.91211.24023-1.11133q3.12012.12012,5.95215.36914l-.26074,1.35449Q65.91614,83.6542,62.89222,83.45791Z" style="fill:#42210b"/><path d="M68.26917,69.55459l14.04492-3.71,3.95508,14.97461-1.23633.32617-.21191-.80273L73.24866,83.4003l.2168.81836-1.23633.32617Zm13.10938-2.24316L69.80628,70.36807l3.1416,11.89258L84.52015,79.204ZM72.94886,79.27334l4.42969-1.16992-.83984-3.17773-3.86816,1.02148-.28809-1.0918,3.86816-1.02148-.56836-2.15039L71.50941,72.786l-.28809-1.0918,9.56641-2.52734.28809,1.0918L76.87073,71.37l.56836,2.15039L81.32288,72.494l.28809,1.0918-3.88379,1.02637.83984,3.17773,4.46191-1.17871L83.317,77.703,73.23694,80.36514Zm5.88379-3.85449.72168-.91211a23.30228,23.30228,0,0,1,1.96191,1.31836l-.75586.97363A18.90171,18.90171,0,0,0,78.83265,75.41885Z" style="fill:#42210b"/><path d="M84.71058,66.7919c-.1709-.34473-.37109-.71-.59766-1.0957q4.64209-1.46777,8.33789-2.752l.59473,1.0791Q89.99134,65.06924,84.71058,66.7919Zm.33691,1.4043.82324-.78418q1.08545,1.05322,2.125,2.13477l-.88574.86914Q86.215,69.36416,85.04749,68.19619Zm7.03809,4.80273q1.70215.69141,3.53125,1.47168l-.53223,1.23926q-1.61719-.86133-3.44434-1.665l1.31836,4.99023-1.1875.31348-1.4375-5.44043a19.56405,19.56405,0,0,1-2.125,4.69922q-.38379-.22412-1.18652-.59473a15.17634,15.17634,0,0,0,2.65137-5.62988l-3.27441.86523-.31348-1.1875,3.51563-.92871-.33105-1.252,1.1875-.31348.33105,1.252,3.28906-.86914.31445,1.1875-3.29.86914.52539,1.99023Zm-4.24219-6.17578.84375-.77246q1.13379,1.1748,2.123,2.25391l-.92578.84668A30.47431,30.47431,0,0,0,87.84339,66.82315Zm3.53125,2.05469q.4834-1.67432.90332-3.86133l1.22754.293q-.35449,1.4502-1.00391,3.80273Zm7.54395-6.80176a20.12221,20.12221,0,0,1-4.42871,5.8584q-.60937-.49219-1.07812-.832a14.75351,14.75351,0,0,0,4.25-5.43164ZM94.74476,77.413a17.39819,17.39819,0,0,0,6.124-7.4375l1.19922.57617a19.55033,19.55033,0,0,1-6.2041,7.71582A12.08973,12.08973,0,0,0,94.74476,77.413Zm5.69336-11.01562a20.30988,20.30988,0,0,1-4.47754,5.80176c-.27441-.25879-.61621-.55371-1.02246-.87988a15.23037,15.23037,0,0,0,4.28027-5.44141Z" style="fill:#42210b"/></g></g></svg>