<svg xmlns="http://www.w3.org/2000/svg" xmlns:xlink="http://www.w3.org/1999/xlink" viewBox="0 0 141.001 121.20757"><defs><linearGradient id="linear-gradient" x1="101.0137" y1="97.04954" x2="115.9705" y2="100.85626" gradientUnits="userSpaceOnUse"><stop offset="0.0034" stop-color="#f8b400"/><stop offset="0.33765" stop-color="#f9ad06"/><stop offset="0.81965" stop-color="#fd9a16"/><stop offset="1" stop-color="#ff911e"/></linearGradient><linearGradient id="linear-gradient-2" x1="11.60342" y1="145.02324" x2="127.09866" y2="145.02324" gradientTransform="translate(26.92247 -64.58521) rotate(14.27665)" gradientUnits="userSpaceOnUse"><stop offset="0.0034" stop-color="#c28d00"/><stop offset="0.36606" stop-color="#c18605"/><stop offset="0.88899" stop-color="#be7313"/><stop offset="1" stop-color="#bd6e17"/></linearGradient><linearGradient id="linear-gradient-3" x1="-0.25114" y1="28.95169" x2="139.61975" y2="64.55079" xlink:href="#linear-gradient"/><linearGradient id="未命名漸層_29" x1="34.71634" y1="15.84992" x2="111.24375" y2="92.37733" gradientUnits="userSpaceOnUse"><stop offset="0" stop-color="#e62c14"/><stop offset="1" stop-color="#c72c14"/></linearGradient><linearGradient id="linear-gradient-4" x1="7.74326" y1="78.34385" x2="141.001" y2="78.34385" gradientUnits="userSpaceOnUse"><stop offset="0.0034" stop-color="#f8d04c"/><stop offset="0.27761" stop-color="#f9cc45"/><stop offset="0.67289" stop-color="#fcc232"/><stop offset="1" stop-color="#ffb71d"/></linearGradient><linearGradient id="linear-gradient-5" x1="4024.86061" y1="758.78802" x2="4026.40526" y2="808.43639" gradientTransform="matrix(-0.8962, 0.0688, 0.1005, 0.8893, 3600.07134, -960.21413)" gradientUnits="userSpaceOnUse"><stop offset="0" stop-color="#fff"/><stop offset="1" stop-color="#fff" stop-opacity="0"/></linearGradient></defs><title>英</title><g id="圖層_2" data-name="圖層 2"><g id="圖層_1-2" data-name="圖層 1"><path d="M116.3535,99.35143A99.9092,99.9092,0,0,0,98.07,108.61554c3.82207-7.497,7.64418-14.77,11.46587-21.71221Q112.9447,92.94041,116.3535,99.35143Z" style="fill:url(#linear-gradient)"/><path d="M7.7655,57.75075c4.21229,16.60221,8.42421,32.44173,12.63613,47.66379,31.98357,12.49257,63.96791-10.64137,95.95188-6.06312q-3.4094-6.42216-6.81764-12.44809C75.61212,76.2652,41.68879,91.73959,7.7655,57.75075Z" style="fill:url(#linear-gradient-2)"/><path d="M141.001,58.80416C112.93094,31.49065,53.46807,19.68387,0,27.96493c8.28471,2.53421,15.88723,8.86946,15.88723,8.86946s-1.55965,3.7036-4.97091,10.91594c37.542-8.19576,99.74206,12.4946,124.04183,35.11619Q137.9794,70.58866,141.001,58.80416Z" style="fill:url(#linear-gradient-3)"/><path d="M127.09516,54.1151A54.11427,54.11427,0,1,0,72.98089,108.229c.53863,0,1.07444-.01052,1.60943-.02629l6.1116,13.0049,10.08941-15.98226A54.13333,54.13333,0,0,0,127.09516,54.1151Z" style="fill:url(#未命名漸層_29)"/><path d="M127.09516,54.1151q0-1.386-.06915-2.75376c-27.47889-5.88966-59.11711,7.37892-76.47343,8.11771A48.28567,48.28567,0,0,1,19.51969,49.34232l-.51358.8961c-.09014,1.28023-.1395,2.57219-.1395,3.87668a54.06529,54.06529,0,0,0,2.586,16.563L71.23523,95.07848a126.4698,126.4698,0,0,1,30.227-8.73153,35.936,35.936,0,0,1,14.72633.349A53.86686,53.86686,0,0,0,127.09516,54.1151Z" style="opacity:0.14"/><path d="M7.74326,57.82355c44.41952,28.605,88.83822-27.62448,133.25774.98061q-3.02121,11.77682-6.04286,24.06237C96.77237,69.30482,58.587,112.751,20.40162,105.41455,16.182,90.21915,11.96326,74.40389,7.74326,57.82355Z" style="fill:url(#linear-gradient-4)"/><polygon points="71.695 12.193 76.368 26.563 91.484 26.563 79.258 35.449 83.926 49.829 71.695 40.943 59.469 49.829 64.142 35.449 51.911 26.563 67.027 26.563 71.695 12.193" style="fill:gold"/><path d="M32.7531,40.37965C34.813,58.6115,54.49353,72.01008,76.711,70.30647c22.21745-1.70756,38.55831-17.86876,36.49773-36.09975C111.1491,15.9743,91.46639,2.57709,69.24859,4.28213,47.03223,5.98632,30.692,22.14866,32.7531,40.37965Z" style="fill:url(#linear-gradient-5)"/><path d="M49.17728,73.40114a6.38744,6.38744,0,0,1-2.03955,1.33008,19.0874,19.0874,0,0,1-3.26025,1.00684l-.37988.08691-1.01807,3.25c-.03223.10449-.03223.1709-.00049.19824a.425.425,0,0,0,.25244.03613l.58887-.01562-.08984.28613L38.376,80.69215l.08984-.28613.57813-.23828a1.2407,1.2407,0,0,0,.31543-.166.48933.48933,0,0,0,.13379-.22949l2.68945-8.58887c.0332-.10449.0332-.1709.001-.19922a.43146.43146,0,0,0-.25293-.03516l-.50586.00879.08984-.28613,4.25488-.97461a14.36542,14.36542,0,0,1,3.085-.44727,1.68253,1.68253,0,0,1,1.457.5293,1.99065,1.99065,0,0,1-.00488,1.68164A4.74086,4.74086,0,0,1,49.17728,73.40114Zm-5.54541,1.99414.51172-.11719a4.471,4.471,0,0,0,1.43359-.56738,3.26443,3.26443,0,0,0,.96436-.97852,6.41591,6.41591,0,0,0,.69482-1.56836,4.135,4.135,0,0,0,.25586-1.46582.68778.68778,0,0,0-.45361-.6543,2.46238,2.46238,0,0,0-1.272.05273l-.51172.11719Z" style="fill:#42210b"/><path d="M54.76663,76.782c-.07812-.083-.07617-.25488.00488-.51172L54.794,76.199a6.74054,6.74054,0,0,1-3.085,1.57129,1.68549,1.68549,0,0,1-1.35156-.083q-.40137-.30029-.12207-1.1875a3.34758,3.34758,0,0,1,.9668-1.51074,6.10757,6.10757,0,0,1,1.78223-1.07324,21.1,21.1,0,0,1,2.7998-.87988l.32764-1.0459q.25122-.80127.03857-1.07715-.21094-.27832-1.0166-.09277a5.98028,5.98028,0,0,0-1.30469.46484,10.42141,10.42141,0,0,0-1.34473.80664l-.10547-.22852a11.32943,11.32943,0,0,1,1.93262-1.167,10.91271,10.91271,0,0,1,2.30713-.80078q1.65234-.37793,2.15479.0957.50244.47754.125,1.67969l-1.2417,3.96582c-.03271.10547-.03369.1709-.00049.19824a.4234.4234,0,0,0,.25342.03516l.47607-.002-.08105.25684-3.0127.69043C55.01956,76.8777,54.84378,76.86793,54.76663,76.782Zm.17041-1.041.72656-2.31934a5.73632,5.73632,0,0,0-1.3208.53613,2.30968,2.30968,0,0,0-.751.68262,3.87787,3.87787,0,0,0-.458,1.00879,1.01331,1.01331,0,0,0-.04932.74219c.08105.13184.2627.166.5459.10059A3.05016,3.05016,0,0,0,54.937,75.741Z" style="fill:#42210b"/><path d="M61.34671,69.3152l.1167-.37207a3.14461,3.14461,0,0,0,.69434-.22559,2.66141,2.66141,0,0,0,.52-.35742l3.31982-2.88672.13184-.03027-.82031,2.61914,1.88574-.43262-.1167.37207-1.88574.43262-1.50635,4.80957a1.82982,1.82982,0,0,0-.13477.92871q.0813.24023.48975.14648a1.87432,1.87432,0,0,0,.61084-.26074,4.46737,4.46737,0,0,0,.68018-.56738l.14893.21875a6.21068,6.21068,0,0,1-3.03369,1.625c-.80957.18555-1.33594.15137-1.583-.10156q-.36914-.38086-.03809-1.44043l1.4707-4.69531Z" style="fill:#42210b"/><path d="M74.76566,65.77614a1.84293,1.84293,0,0,1,.72461-.06055l-.91895,2.2832-.10254.02344-2.7959.043-1.47021,4.69531c-.03271.10547-.03467.17383-.00439.207.03076.0332.11035.04688.2373.04492l.46582-.0127-.08105.25684L66.2012,74.3152l.08105-.25684.54639-.23242a1.19176,1.19176,0,0,0,.31689-.166.485.485,0,0,0,.1333-.22949l1.69482-5.41016c.03271-.10547.03271-.17187.001-.2002a.42606.42606,0,0,0-.25391-.03418l-.4751.002.08105-.25781,3.64209-1.23242.249-.05762-.43945,1.40234A7.00054,7.00054,0,0,1,74.76566,65.77614Z" style="fill:#42210b"/><path d="M74.57034,72.15895l.54834-.23242a1.22835,1.22835,0,0,0,.31592-.166.48272.48272,0,0,0,.13428-.22949l1.69482-5.41113q.04907-.1582,0-.19922a.4215.4215,0,0,0-.25293-.03516l-.47705.00293.08105-.25781,3.644-1.2334.27832-.06348L78.49271,70.8611c-.03271.10547-.03369.1709-.00146.19824a.4234.4234,0,0,0,.25342.03516l.47607-.002-.08105.25684-4.65039,1.06641ZM78.335,63.781q-.31348-.21387-.12891-.80078a2.0092,2.0092,0,0,1,.68945-.98926,2.94856,2.94856,0,0,1,1.19336-.55762,1.3,1.3,0,0,1,1,.05566c.207.14355.251.41016.12891.80078a2.01366,2.01366,0,0,1-.68945.98828,2.93955,2.93955,0,0,1-1.19336.56055A1.284,1.284,0,0,1,78.335,63.781Z" style="fill:#42210b"/><path d="M88.791,68.46071a8.96363,8.96363,0,0,1-3.667,1.67676q-2.20752.50684-3.10254-.125-.895-.63281-.31543-2.47852a6.12256,6.12256,0,0,1,2.03711-3.01953,8.97471,8.97471,0,0,1,3.66748-1.67676q2.20752-.50537,3.10205.125.89355.63428.31738,2.47949A6.13289,6.13289,0,0,1,88.791,68.46071Zm-4.53418.30762a1.11889,1.11889,0,0,0,.13232.89941c.14795.16113.43262.19434.85156.09766a2.24636,2.24636,0,0,0,1.04883-.5332,3.54851,3.54851,0,0,0,.76025-1.10449,16.21183,16.21183,0,0,0,.73828-1.98828,13.33116,13.33116,0,0,0,.49023-1.93359,1.11739,1.11739,0,0,0-.13281-.89941q-.22412-.24023-.85156-.09766a2.2574,2.2574,0,0,0-1.04883.5332,3.58812,3.58812,0,0,0-.75977,1.10449,15.82344,15.82344,0,0,0-.73828,1.99023A13.00414,13.00414,0,0,0,84.25687,68.76832Z" style="fill:#42210b"/><path d="M93.22074,62.01051l.1167-.37207a3.19732,3.19732,0,0,0,.69434-.22559,2.71018,2.71018,0,0,0,.519-.3584l3.31982-2.88672.13281-.03027-.82031,2.61914,1.88574-.43164-.1167.37109-1.88574.43262-1.50635,4.80957a1.83414,1.83414,0,0,0-.13574.92871c.0542.16113.21729.209.49072.14648a1.89231,1.89231,0,0,0,.61084-.26074,4.51072,4.51072,0,0,0,.68018-.56641l.14795.21875a6.21116,6.21116,0,0,1-3.03271,1.625q-1.21436.27832-1.583-.10254-.36914-.37939-.03809-1.43945l1.4707-4.69531Z" style="fill:#42210b"/><path d="M98.18363,66.74684l.54736-.23242a1.21113,1.21113,0,0,0,.31592-.166.48272.48272,0,0,0,.13428-.22949l1.69482-5.41113q.04907-.1582,0-.19922a.41443.41443,0,0,0-.25293-.03418l-.47607.002.08105-.25781,3.64307-1.2334.27832-.06348L102.105,65.449c-.03271.10547-.03369.1709-.00146.19922a.43341.43341,0,0,0,.25342.03516l.47607-.002-.08105.25684-4.64941,1.06543Zm3.76367-8.377q-.31348-.21387-.12891-.80078a2.01606,2.01606,0,0,1,.68945-.99023,2.97434,2.97434,0,0,1,1.19336-.55762,1.3,1.3,0,0,1,1,.05566q.312.21533.12891.80176a2.01173,2.01173,0,0,1-.68945.98828,2.93808,2.93808,0,0,1-1.19336.55957A1.28482,1.28482,0,0,1,101.9473,58.36989Z" style="fill:#42210b"/><path d="M114.01663,57.27125l-.76318,1.915-.27734.06445a2.04125,2.04125,0,0,0-.3208-1.38281q-.34424-.39258-1.31055-.1709a3.06039,3.06039,0,0,0-1.74219,1.07715,6.81572,6.81572,0,0,0-1.12207,2.26367,8.24654,8.24654,0,0,0-.41064,1.874,1.01171,1.01171,0,0,0,.33936.95215,1.66542,1.66542,0,0,0,1.28516.05664,5.59376,5.59376,0,0,0,1.31738-.48047A9.4628,9.4628,0,0,0,112.315,62.617l.104.22754a11.18271,11.18271,0,0,1-1.79736,1.16992,8.691,8.691,0,0,1-2.09033.75879q-2.061.47168-2.9165-.19531-.85693-.6665-.26953-2.543a5.93136,5.93136,0,0,1,2.03516-2.94336,9.48164,9.48164,0,0,1,3.81836-1.70605A5.725,5.725,0,0,1,114.01663,57.27125Z" style="fill:#42210b"/><path d="M44.15286,95.074l.54736-.23145a1.2389,1.2389,0,0,0,.31689-.166.489.489,0,0,0,.13232-.23047l2.7085-8.64648c.03271-.10449.03369-.16992.00146-.19824a.43151.43151,0,0,0-.25342-.03516l-.47607.002.08105-.25684L50.854,84.07692l.27832-.06348-3.05811,9.7627c-.03271.10547-.0332.17188-.00146.2002a.4488.4488,0,0,0,.25342.03516l.47607-.00293-.08057.25684L44.0723,95.33082Z" style="fill:#42210b"/><path d="M58.34378,91.38258a8.954,8.954,0,0,1-3.667,1.67676q-2.20752.50684-3.10254-.125-.89355-.63135-.31592-2.47852a6.12276,6.12276,0,0,1,2.0376-3.01855,8.96089,8.96089,0,0,1,3.667-1.67773q2.20752-.50537,3.10254.126.895.63281.31689,2.47852A6.11809,6.11809,0,0,1,58.34378,91.38258Zm-4.53418.30859a1.121,1.121,0,0,0,.13184.89941c.14941.16016.43262.19336.85156.09668a2.25522,2.25522,0,0,0,1.0498-.53223,3.5945,3.5945,0,0,0,.75977-1.10352,16.13051,16.13051,0,0,0,.73877-1.99023,13.12521,13.12521,0,0,0,.48975-1.93359,1.12288,1.12288,0,0,0-.13184-.89941c-.14941-.15918-.43359-.19238-.85254-.09668a2.27,2.27,0,0,0-1.04883.53223,3.60008,3.60008,0,0,0-.75977,1.10449,16.01234,16.01234,0,0,0-.73779,1.99023A13.05771,13.05771,0,0,0,53.8096,91.69118Z" style="fill:#42210b"/><path d="M62.77249,84.93239l.11621-.37109a3.158,3.158,0,0,0,.69531-.22656,2.57621,2.57621,0,0,0,.51953-.35742l3.31982-2.88672.13184-.03125-.8208,2.62109,1.88574-.43262-.11621.37109-1.88574.43262-1.50635,4.81055a1.81008,1.81008,0,0,0-.13477.92676c.0542.16113.21729.21.49072.14746a1.89475,1.89475,0,0,0,.60938-.25977,4.562,4.562,0,0,0,.68066-.56738l.14844.21777a6.21487,6.21487,0,0,1-3.0332,1.625q-1.21289.27832-1.5835-.10156-.36694-.38086-.0376-1.44043l1.4707-4.69531Z" style="fill:#42210b"/><path d="M69.66019,83.35426l.11621-.37109a3.12921,3.12921,0,0,0,.69434-.22656,2.61716,2.61716,0,0,0,.51953-.35742l3.31982-2.8877.13281-.03027-.8208,2.62012,1.88477-.43262-.11621.37109-1.88477.43262L71.99954,87.283a1.81859,1.81859,0,0,0-.13574.92773c.0542.16113.21729.209.49072.14648a1.88734,1.88734,0,0,0,.61035-.25977,4.61187,4.61187,0,0,0,.67969-.56738l.14844.21875a6.21487,6.21487,0,0,1-3.0332,1.625q-1.21289.27832-1.5835-.10156c-.24463-.25488-.2583-.7334-.0376-1.44043l1.4707-4.69531Z" style="fill:#42210b"/><path d="M78.81253,86.21364q.24609.71338,1.63477.39551a5.05134,5.05134,0,0,0,1.2832-.47949,11.58538,11.58538,0,0,0,1.2832-.82617l.10449.22754a9.40074,9.40074,0,0,1-3.93652,1.91211,3.439,3.439,0,0,1-2.88281-.22168q-.86279-.68555-.29-2.51953a5.98688,5.98688,0,0,1,2.01416-2.918,8.75873,8.75873,0,0,1,3.605-1.67773,4.30716,4.30716,0,0,1,1.93066-.09668,1.22344,1.22344,0,0,1,.92383.71191,1.929,1.929,0,0,1-.0293,1.28906,4.76838,4.76838,0,0,1-.29785.73242l-5.10352,1.16992A4.149,4.149,0,0,0,78.81253,86.21364Zm1.31836-4.834a8.57132,8.57132,0,0,0-.96191,2.16016l2.457-.56348.33594-1.07324a2.65236,2.65236,0,0,0,.18652-1.22461c-.05859-.23437-.2959-.30469-.71484-.209A2.11587,2.11587,0,0,0,80.13089,81.37965Z" style="fill:#42210b"/><path d="M93.063,77.52614a1.84481,1.84481,0,0,1,.7251-.06055l-.91943,2.28418-.10156.02344-2.79639.042L88.5,84.51051c-.03271.10547-.0332.17383-.00293.207.02979.0332.10938.04688.23633.04492l.46533-.0127-.08057.25684L84.49906,86.0652l.08057-.25684.54639-.23145a1.24954,1.24954,0,0,0,.31787-.166.4841.4841,0,0,0,.13232-.23047l1.69531-5.41016c.03271-.10547.03369-.17187.002-.2002a.43174.43174,0,0,0-.25488-.03418l-.4751.00293.08057-.25879,3.64355-1.23242.248-.05762-.43945,1.40332A7.00469,7.00469,0,0,1,93.063,77.52614Z" style="fill:#42210b"/><path d="M98.76273,76.61891c-.23975.09863-.37939.21484-.4209.34863a.39465.39465,0,0,0,.001.21094l.65088,2.94727,2.73242-4.001a.57885.57885,0,0,0,.08887-.15332q.0271-.085-.15918-.05566l-.36621.043.06689-.21387,1.68164-.38574-.06689.21387-.39795.14453a1.33962,1.33962,0,0,0-.27148.12988.93088.93088,0,0,0-.209.2334l-4.85938,7.06543q-1.00269,1.46631-1.57031,2.1748a7.04728,7.04728,0,0,1-1.13379,1.15039,6.43948,6.43948,0,0,1-1.39941.80469L93.02249,85.282a10.82052,10.82052,0,0,0,1.98633-.75586,11.31442,11.31442,0,0,0,1.75732-1.05957l-1.46094-5.77734a.21841.21841,0,0,0-.10986-.14844.5095.5095,0,0,0-.21387-.0293l-.40381-.01465.06689-.21387,4.5918-1.05176-.06689.21387Z" style="fill:#42210b"/></g></g></svg>