<svg xmlns="http://www.w3.org/2000/svg" xmlns:xlink="http://www.w3.org/1999/xlink" viewBox="0 0 141 121.21"><defs><linearGradient id="linear-gradient" x1="101.01" y1="97.05" x2="115.97" y2="100.86" gradientUnits="userSpaceOnUse"><stop offset="0" stop-color="#f8b400"/><stop offset="0.34" stop-color="#f9ad06"/><stop offset="0.82" stop-color="#fd9a16"/><stop offset="1" stop-color="#ff911e"/></linearGradient><linearGradient id="linear-gradient-2" x1="-492.41" y1="-924.25" x2="-376.92" y2="-924.25" gradientTransform="translate(251.68 1095.94) rotate(14.28)" gradientUnits="userSpaceOnUse"><stop offset="0" stop-color="#c28d00"/><stop offset="0.37" stop-color="#c18605"/><stop offset="0.89" stop-color="#be7313"/><stop offset="1" stop-color="#bd6e17"/></linearGradient><linearGradient id="linear-gradient-3" x1="-0.25" y1="28.95" x2="139.62" y2="64.55" xlink:href="#linear-gradient"/><linearGradient id="未命名漸層_29" x1="34.72" y1="15.85" x2="111.24" y2="92.38" gradientUnits="userSpaceOnUse"><stop offset="0" stop-color="#e62c14"/><stop offset="1" stop-color="#c72c14"/></linearGradient><linearGradient id="linear-gradient-4" x1="7.74" y1="78.34" x2="141" y2="78.34" gradientUnits="userSpaceOnUse"><stop offset="0" stop-color="#f8d04c"/><stop offset="0.28" stop-color="#f9cc45"/><stop offset="0.67" stop-color="#fcc232"/><stop offset="1" stop-color="#ffb71d"/></linearGradient><linearGradient id="linear-gradient-5" x1="-5681.95" y1="976.02" x2="-5680.41" y2="1025.67" gradientTransform="matrix(-0.9, 0.07, 0.1, 0.89, -5121.01, -485.57)" gradientUnits="userSpaceOnUse"><stop offset="0" stop-color="#fff"/><stop offset="1" stop-color="#fff" stop-opacity="0"/></linearGradient></defs><title>越南彩_泰文</title><g id="圖層_2" data-name="圖層 2"><g id="圖層_1-2" data-name="圖層 1"><path d="M116.35,99.35a99.91,99.91,0,0,0-18.28,9.26c3.82-7.5,7.64-14.77,11.47-21.71Q112.94,92.94,116.35,99.35Z" style="fill:url(#linear-gradient)"/><path d="M7.77,57.75C12,74.35,16.19,90.19,20.4,105.41c32,12.49,64-10.64,96-6.06q-3.41-6.42-6.82-12.45C75.61,76.27,41.69,91.74,7.77,57.75Z" style="fill:url(#linear-gradient-2)"/><path d="M141,58.8C112.93,31.49,53.47,19.68,0,28c8.28,2.53,15.89,8.87,15.89,8.87s-1.56,3.7-5,10.92c37.54-8.2,99.74,12.49,124,35.12Q138,70.59,141,58.8Z" style="fill:url(#linear-gradient-3)"/><path d="M127.1,54.12A54.11,54.11,0,1,0,73,108.23l1.61,0,6.11,13,10.09-16A54.13,54.13,0,0,0,127.1,54.12Z" style="fill:url(#未命名漸層_29)"/><path d="M127.1,54.12q0-1.39-.07-2.75c-27.48-5.89-59.12,7.38-76.47,8.12a48.29,48.29,0,0,1-31-10.14l-.51.9c-.09,1.28-.14,2.57-.14,3.88a54.07,54.07,0,0,0,2.59,16.56l49.78,24.4a126.47,126.47,0,0,1,30.23-8.73,35.94,35.94,0,0,1,14.73.35A53.87,53.87,0,0,0,127.1,54.12Z" style="opacity:0.14"/><path d="M7.74,57.82C52.16,86.43,96.58,30.2,141,58.8q-3,11.78-6,24.06C96.77,69.3,58.59,112.75,20.4,105.41,16.18,90.22,12,74.4,7.74,57.82Z" style="fill:url(#linear-gradient-4)"/><polygon points="71.69 12.19 76.37 26.56 91.48 26.56 79.26 35.45 83.93 49.83 71.69 40.94 59.47 49.83 64.14 35.45 51.91 26.56 67.03 26.56 71.69 12.19" style="fill:gold"/><path d="M32.75,40.38c2.06,18.23,21.74,31.63,44,29.93s38.56-17.87,36.5-36.1S91.47,2.58,69.25,4.28,30.69,22.15,32.75,40.38Z" style="fill:url(#linear-gradient-5)"/><path d="M33.88,79.41l.41-.09-3,9.43c-.06.2-.07.33,0,.39s.19.07.41,0l.7-.09-.14.44a16.08,16.08,0,0,1-2.46.81,5.45,5.45,0,0,1-1.65.19c-.36,0-.57-.19-.63-.44A2.3,2.3,0,0,1,27.69,89l2.61-8.32Z" style="fill:#42210b"/><path d="M43.52,86.06a13.45,13.45,0,0,1-5.23,2.4,9.54,9.54,0,0,1-1.93.26,5,5,0,0,1-1.43-.14L36,85.74l.37-.08a2.85,2.85,0,0,0,.37,2q.46.57,1.61.3a4.13,4.13,0,0,0,2.37-1.67,12.88,12.88,0,0,0,1.81-3.86q.73-2.33.32-3.24t-2.09-.52A11.25,11.25,0,0,0,37,80.35l-.2-.42a20.5,20.5,0,0,1,2.57-1.47,14.89,14.89,0,0,1,3.06-1q2.83-.65,3.95.31t.3,3.59A9.23,9.23,0,0,1,43.52,86.06Z" style="fill:#42210b"/><path d="M38.38,75.86a5.07,5.07,0,0,1,1.34-1.23,7.65,7.65,0,0,1,2-.91l4.44.49.71-2.27,2.92-.67-1,3.05L38.09,76.78Z" style="fill:#42210b"/><path d="M53.9,79.09a.78.78,0,0,0,.68.07l2.18-.5-.18.57-2.18.5A1.65,1.65,0,0,0,53.19,81l-.46,1.45a5.07,5.07,0,0,0-.29,1.42.55.55,0,0,0,.38.59A2.52,2.52,0,0,0,54,84.36a4.35,4.35,0,0,0,1.35-.51,2.54,2.54,0,0,0,.83-.87,7.21,7.21,0,0,0,.62-1.49L59.18,74l3.9-1.3.18,0L60.95,80a5.63,5.63,0,0,1-1.17,2.08,7.18,7.18,0,0,1-2.24,1.61,17.05,17.05,0,0,1-3.69,1.23,11.82,11.82,0,0,1-3.37.41q-1.15-.1-1.42-.7A2.36,2.36,0,0,1,49.12,83a5,5,0,0,1,3.47-3.17,2.15,2.15,0,0,1-1.67-.36c-.3-.3-.34-.8-.12-1.5a4.15,4.15,0,0,1,1.58-2.12,7.28,7.28,0,0,1,2.73-1.23,4.07,4.07,0,0,1,1.42-.13,2.3,2.3,0,0,1,1,.37l-.48.48a1.17,1.17,0,0,0-.46-.2,1.22,1.22,0,0,0-.56,0,1.86,1.86,0,0,0-1.07.61,4,4,0,0,0-.64,1.33l-.41,1.32Q53.69,78.91,53.9,79.09Z" style="fill:#42210b"/><path d="M70.69,80l.09.41A7.33,7.33,0,0,1,68,81.66q-5,1.15-3.46-3.8A10,10,0,0,1,67.66,73a12.38,12.38,0,0,1,5.21-2.51q3.25-.75,4.3-.14t.49,2.4l-1.91,6.11c0,.14,0,.23,0,.27a.56.56,0,0,0,.34,0l.61,0-.12.38-4,.92q-1,.24-.69-.85L74,72.9q.41-1.32.17-1.72T72.87,71a3.92,3.92,0,0,0-1.92,1,6.2,6.2,0,0,0-1.26,1.8,20.24,20.24,0,0,0-1,2.55,10.69,10.69,0,0,0-.64,3.36q0,1.17,1.28.88A3.59,3.59,0,0,0,70.69,80Z" style="fill:#42210b"/><path d="M87.17,76.51l.2-.65a10.74,10.74,0,0,1-1.94,1.42,8.37,8.37,0,0,1-2.37,1q-2.12.49-2.77-.1t-.14-2.21l1.93-6.16c0-.14,0-.23,0-.27a.57.57,0,0,0-.34,0l-.61,0,.13-.4,4.82-1.64.41-.09L84,75.25a2.57,2.57,0,0,0-.19,1.47q.16.36,1,.17a4.17,4.17,0,0,0,1.38-.61,10.57,10.57,0,0,0,1.34-1.06L89.81,68c0-.14,0-.23,0-.27a.57.57,0,0,0-.34,0l-.61,0,.13-.4,4.82-1.64.41-.09-3,9.71q-.07.21,0,.27a.59.59,0,0,0,.34,0l.61,0L92,76l-4.37,1Q87,77.12,87.17,76.51Z" style="fill:#42210b"/><path d="M97.13,74.43l.76-.28a1.3,1.3,0,0,0,.41-.21.71.71,0,0,0,.2-.34l2.07-6.6q.39-1.26.12-1.61t-1.29-.12a8.91,8.91,0,0,0-3.1,1.53l-.18-.4a14.59,14.59,0,0,1,5.37-2.47q2.14-.49,2.81.14t.1,2.42l-2,6.24c0,.14,0,.23,0,.27a.6.6,0,0,0,.34,0l.61,0-.12.4L97,74.83Z" style="fill:#42210b"/><path d="M111.44,70.42a2.06,2.06,0,0,0,1.27,0,2,2,0,0,0,1.12-.63,4.84,4.84,0,0,0,.72-1.57l2-6.39c0-.14,0-.23,0-.27a.57.57,0,0,0-.34,0l-.61,0,.13-.4,4.82-1.64.41-.09-2.4,7.67a5.61,5.61,0,0,1-1.65,2.62,7.46,7.46,0,0,1-3.27,1.48,4,4,0,0,1-2.12,0,2.19,2.19,0,0,1-1.2-.82,2.91,2.91,0,0,1-.64,1.12,2,2,0,0,1-1,.61l-3.78.87.13-.4.68-.26a1.69,1.69,0,0,0,.42-.22.66.66,0,0,0,.18-.31l2.57-8.21c0-.14,0-.23,0-.27a.57.57,0,0,0-.34,0l-.61,0,.13-.4,4.82-1.64.41-.09-2.68,8.57A2.55,2.55,0,0,0,111.44,70.42Z" style="fill:#42210b"/></g></g></svg>