<svg id="圖層_1" data-name="圖層 1" xmlns="http://www.w3.org/2000/svg" xmlns:xlink="http://www.w3.org/1999/xlink" viewBox="0 0 141 121"><defs><clipPath id="clip-path"><circle cx="-91.76157" cy="53.90766" r="54.15614" style="fill:none"/></clipPath><linearGradient id="linear-gradient" x1="101.01298" y1="96.84214" x2="115.96968" y2="100.64883" gradientUnits="userSpaceOnUse"><stop offset="0.0034" stop-color="#f8b400"/><stop offset="0.33765" stop-color="#f9ad06"/><stop offset="0.81965" stop-color="#fd9a16"/><stop offset="1" stop-color="#ff911e"/></linearGradient><linearGradient id="linear-gradient-2" x1="-208.37194" y1="71.87585" x2="-92.87751" y2="71.87585" gradientTransform="translate(222.06242 60.34057) rotate(14.27665)" gradientUnits="userSpaceOnUse"><stop offset="0.0034" stop-color="#c28d00"/><stop offset="0.36606" stop-color="#c18605"/><stop offset="0.88899" stop-color="#be7313"/><stop offset="1" stop-color="#bd6e17"/></linearGradient><linearGradient id="linear-gradient-3" x1="-0.25114" y1="28.74478" x2="139.61876" y2="64.34362" xlink:href="#linear-gradient"/><clipPath id="clip-path-2"><circle cx="72.98037" cy="53.90766" r="54.15614" style="fill:none"/></clipPath><linearGradient id="未命名漸層_34" x1="34.68619" y1="15.61348" x2="111.27454" y2="92.20183" gradientUnits="userSpaceOnUse"><stop offset="0.0034" stop-color="#fff" stop-opacity="0"/><stop offset="1" stop-opacity="0.4"/></linearGradient><linearGradient id="linear-gradient-4" x1="7.74321" y1="78.13658" x2="141" y2="78.13658" gradientUnits="userSpaceOnUse"><stop offset="0.0034" stop-color="#f8d04c"/><stop offset="0.27761" stop-color="#f9cc45"/><stop offset="0.67289" stop-color="#fcc232"/><stop offset="1" stop-color="#ffb71d"/></linearGradient><linearGradient id="linear-gradient-5" x1="3074.73123" y1="696.22034" x2="3076.27587" y2="745.86836" gradientTransform="matrix(-0.8962, 0.0688, 0.1005, 0.8893, 2754.85295, -839.45221)" gradientUnits="userSpaceOnUse"><stop offset="0" stop-color="#fff"/><stop offset="1" stop-color="#fff" stop-opacity="0"/></linearGradient></defs><title>馬來西亞-泰</title><g style="clip-path:url(#clip-path)"><rect x="-147.20825" y="-0.24848" width="210.23753" height="8.75992" style="fill:#d80031"/><rect x="-147.20825" y="8.51144" width="210.23753" height="8.75979" style="fill:#fff"/><rect x="-147.20825" y="17.27123" width="210.23753" height="8.75928" style="fill:#d80031"/><rect x="-147.20825" y="26.03051" width="210.23753" height="8.76664" style="fill:#fff"/><rect x="-147.20825" y="34.79715" width="210.23753" height="8.75295" style="fill:#d80031"/><rect x="-147.20825" y="43.55009" width="210.23753" height="8.76613" style="fill:#fff"/><rect x="-147.20825" y="52.31622" width="210.23753" height="8.75295" style="fill:#d80031"/><rect x="-147.20825" y="61.06917" width="210.23753" height="8.76613" style="fill:#fff"/><rect x="-147.20825" y="69.8353" width="210.23753" height="8.75358" style="fill:#d80031"/><rect x="-147.20825" y="78.58888" width="210.23753" height="8.76613" style="fill:#fff"/><rect x="-147.20825" y="87.35501" width="210.23753" height="8.76043" style="fill:#d80031"/><rect x="-147.20825" y="96.11544" width="210.23753" height="8.75865" style="fill:#fff"/><rect x="-147.20825" y="104.87409" width="210.23753" height="8.76043" style="fill:#d80031"/><rect x="-147.20825" y="113.63451" width="210.23753" height="8.75979" style="fill:#fff"/><rect x="-147.20825" y="-0.24848" width="210.23753" height="122.64279" style="fill:none"/><rect x="-147.20825" y="-0.24848" width="210.23753" height="122.64279" style="fill:none"/></g><path d="M116.35268,99.144a99.90849,99.90849,0,0,0-18.28338,9.264c3.822-7.497,7.64413-14.76987,11.46579-21.71206Q112.9439,92.733,116.35268,99.144Z" style="fill:url(#linear-gradient)"/><path d="M7.76544,57.54363c4.21226,16.60209,8.42415,32.4415,12.636,47.66345,31.98334,12.49248,63.96745-10.64129,95.9512-6.06307q-3.40938-6.42212-6.81759-12.448C75.61158,76.05795,41.68849,91.53223,7.76544,57.54363Z" style="fill:url(#linear-gradient-2)"/><path d="M141,58.597C112.93013,31.28371,53.46769,19.477,0,27.758c8.28465,2.5342,15.88711,8.8694,15.88711,8.8694S14.32747,40.331,10.91623,47.54328C48.458,39.34758,110.65759,60.03779,134.95718,82.65923Q137.97842,70.38145,141,58.597Z" style="fill:url(#linear-gradient-3)"/><path d="M127.09426,53.908a54.11389,54.11389,0,1,0-54.11389,54.11348c.53863,0,1.07444-.01052,1.60942-.02629L80.70134,121l10.08933-15.98214A54.13294,54.13294,0,0,0,127.09426,53.908Z" style="fill:#9d1333"/><g style="clip-path:url(#clip-path-2)"><rect x="17.53368" y="-0.24848" width="210.23753" height="8.75992" style="fill:#d80031"/><rect x="17.53368" y="8.51144" width="210.23753" height="8.75979" style="fill:#fff"/><rect x="17.53368" y="17.27123" width="210.23753" height="8.75928" style="fill:#d80031"/><rect x="17.53368" y="26.03051" width="210.23753" height="8.76664" style="fill:#fff"/><rect x="17.53368" y="34.79715" width="210.23753" height="8.75295" style="fill:#d80031"/><rect x="17.53368" y="43.55009" width="210.23753" height="8.76613" style="fill:#fff"/><rect x="17.53368" y="52.31622" width="210.23753" height="8.75295" style="fill:#d80031"/><rect x="17.53368" y="61.06917" width="210.23753" height="8.76613" style="fill:#fff"/><rect x="17.53368" y="69.8353" width="210.23753" height="8.75358" style="fill:#d80031"/><rect x="17.53368" y="78.58888" width="210.23753" height="8.76613" style="fill:#fff"/><rect x="17.53368" y="87.35501" width="210.23753" height="8.76043" style="fill:#d80031"/><rect x="17.53368" y="96.11544" width="210.23753" height="8.75865" style="fill:#fff"/><rect x="17.53368" y="104.87409" width="210.23753" height="8.76043" style="fill:#d80031"/><rect x="17.53368" y="113.63451" width="210.23753" height="8.75979" style="fill:#fff"/><rect x="17.53368" y="-0.24848" width="64.65558" height="52.56471" style="fill:#2530a9"/><path d="M36.9252,29.90172a12.72149,12.72149,0,0,1,19.38-10.84807,14.54047,14.54047,0,1,0,0,21.69228,12.72622,12.72622,0,0,1-19.38-10.84421" style="fill:#f5d028"/><polygon points="66.014 29.902 72.98 27.202 65.533 27.796 70.641 22.343 64.186 26.107 66.422 18.98 62.244 25.174 61.164 17.781 60.391 23.076 60.171 24.603 60.086 25.174 55.906 18.98 58.143 26.107 51.691 22.343 56.797 27.796 49.35 27.202 56.319 29.902 49.35 32.597 56.797 32.003 51.691 37.456 58.143 33.689 55.906 40.819 60.086 34.626 60.171 35.197 60.391 36.724 61.164 42.018 62.244 34.626 66.422 40.819 64.186 33.689 70.641 37.456 65.533 32.003 72.98 32.597 66.014 29.902" style="fill:#f5d028"/><rect x="17.53368" y="-0.24848" width="210.23753" height="122.64279" style="fill:none"/><rect x="17.53368" y="-0.24848" width="210.23753" height="122.64279" style="fill:none"/></g><circle cx="72.98037" cy="53.90766" r="54.15614" style="fill:url(#未命名漸層_34)"/><path d="M127.09426,53.908q0-1.386-.06915-2.75374c-27.4787-5.88962-59.11669,7.37887-76.47289,8.11765A48.28533,48.28533,0,0,1,19.51955,49.13526l-.51357.89609c-.09014,1.28022-.1395,2.57217-.1395,3.87666a54.0649,54.0649,0,0,0,2.586,16.56284L71.23473,94.87109a126.4689,126.4689,0,0,1,30.22676-8.73147,35.93571,35.93571,0,0,1,14.72622.349A53.86648,53.86648,0,0,0,127.09426,53.908Z" style="opacity:0.14"/><path d="M7.74321,57.61643C52.16242,86.22127,96.58079,29.99214,141,58.597q-3.02119,11.77674-6.04282,24.0622c-38.1855-13.56161-76.37062,29.88428-114.5557,22.54786C16.18189,90.0118,11.96317,74.19665,7.74321,57.61643Z" style="fill:url(#linear-gradient-4)"/><path d="M32.75287,40.13088C34.8128,58.3626,54.49314,71.76109,76.71049,70.05748c22.21729-1.70755,38.558-17.86863,36.49747-36.09949C111.14831,15.7257,91.46574,2.32858,69.2481,4.03362,47.03189,5.73779,30.69178,21.9,32.75287,40.13088Z" style="fill:url(#linear-gradient-5)"/><path d="M34.49035,81.88618a2.76617,2.76617,0,0,0,1.22266-.89551,5.26131,5.26131,0,0,0,.7627-1.60254,1.61191,1.61191,0,0,0,.05859-.80859,9.05144,9.05144,0,0,1,.96875-.44531,7.16561,7.16561,0,0,1,1.07031-.3418q.96387-.22119,1.23828.0752c.18066.19629.19043.55371.0293,1.06934a3.741,3.741,0,0,1-1.209,1.65625,7.97017,7.97017,0,0,1-2.791,1.39648,6.31307,6.31307,0,0,1,1.69336-.07617.80111.80111,0,0,1,.71387.50488,2.27594,2.27594,0,0,1-.13086,1.29785l-.791,2.52539c-.04.127-.041.20605-.001.24023a.52371.52371,0,0,0,.30469.041l.5459-.0293-.1084.34375-3.61523.82813q-.92871.21387-.62012-.7666l.81738-2.61035a2.852,2.852,0,0,0,.19727-1.33789c-.06445-.26074-.30469-.37012-.71777-.33008q-.45264.041-2.05078.4082L30.588,87.78461c-.04.127-.03906.207-.001.24121a.53741.53741,0,0,0,.30469.042l.51074-.02246-.1084.34375L25.7843,89.6518l.1084-.34375.61426-.23535a1.47651,1.47651,0,0,0,.377-.19824.59591.59591,0,0,0,.16113-.27734l2.31934-7.40332c.03906-.125.03809-.2041,0-.23828a.49482.49482,0,0,0-.30273-.042l-.54883.0293.1123-.36035L32.964,79.10981l.36719-.085-1.0918,3.48828A17.3142,17.3142,0,0,0,34.49035,81.88618Z" style="fill:#42210b"/><path d="M48.17883,83.59516a12.06842,12.06842,0,0,1-4.707,2.16309,8.59163,8.59163,0,0,1-1.74316.23145,4.4642,4.4642,0,0,1-1.28613-.127l.99609-2.55664.334-.07617a2.54755,2.54755,0,0,0,.33105,1.77344q.416.51123,1.45313.27344a3.72176,3.72176,0,0,0,2.13086-1.502,11.58161,11.58161,0,0,0,1.625-3.47461,4.61733,4.61733,0,0,0,.28418-2.91016q-.36914-.81738-1.87988-.4707a10.13217,10.13217,0,0,0-3.38086,1.542l-.17676-.375a18.21975,18.21975,0,0,1,2.31445-1.32715,13.28721,13.28721,0,0,1,2.75391-.918q2.543-.583,3.55371.27734,1.00635.86133.2666,3.23047A8.30141,8.30141,0,0,1,48.17883,83.59516Z" style="fill:#42210b"/><path d="M57.09,77.42329a.69331.69331,0,0,0,.61328.06641l1.96484-.4502-.16113.51563-1.96484.4502a1.4834,1.4834,0,0,0-1.09766,1.11133l-.4082,1.30664a4.561,4.561,0,0,0-.26367,1.2793.496.496,0,0,0,.34082.52734,2.27043,2.27043,0,0,0,1.08887-.06543,3.91378,3.91378,0,0,0,1.208-.46,2.26431,2.26431,0,0,0,.752-.78711,6.47875,6.47875,0,0,0,.55762-1.33984l2.11426-6.75,3.51074-1.1709.1582-.03613L63.4259,78.25141a5.10886,5.10886,0,0,1-1.05176,1.875,6.5176,6.5176,0,0,1-2.0166,1.45117,15.43045,15.43045,0,0,1-3.31738,1.10254,10.59976,10.59976,0,0,1-3.03125.36719q-1.03125-.08936-1.27637-.63184a2.12041,2.12041,0,0,1,.0498-1.48633,4.539,4.539,0,0,1,3.126-2.85352,1.93449,1.93449,0,0,1-1.50293-.3252q-.4043-.3999-.10742-1.3457a3.72708,3.72708,0,0,1,1.41992-1.9043A6.54541,6.54541,0,0,1,58.171,73.39692a3.66668,3.66668,0,0,1,1.27539-.11816,2.06659,2.06659,0,0,1,.85742.33105l-.42969.43262a1.01114,1.01114,0,0,0-.41309-.18359,1.08981,1.08981,0,0,0-.50488-.00391,1.6672,1.6672,0,0,0-.96191.54688,3.62755,3.62755,0,0,0-.57617,1.19336L57.047,76.77876C56.94641,77.101,56.96008,77.31489,57.09,77.42329Z" style="fill:#42210b"/><path d="M70.81555,78.34223a1.86737,1.86737,0,0,0,1.1416.02637,1.76651,1.76651,0,0,0,1.00684-.56641,4.36715,4.36715,0,0,0,.65234-1.4082l1.80273-5.75586c.03906-.125.04-.20508.002-.23828a.52045.52045,0,0,0-.30664-.041l-.54492.02832.1123-.36035,4.33691-1.47266.36914-.084-2.16211,6.9043a5.0314,5.0314,0,0,1-1.48926,2.3584A6.69613,6.69613,0,0,1,72.796,79.06879a3.62289,3.62289,0,0,1-1.9043.02246,1.97559,1.97559,0,0,1-1.08105-.74219,2.59934,2.59934,0,0,1-.5752,1.00977,1.8082,1.8082,0,0,1-.93945.5498l-3.4043.78027.11328-.36035.61523-.2373a1.45444,1.45444,0,0,0,.377-.19727.59656.59656,0,0,0,.16016-.27637L68.4718,72.2309c.03906-.125.03809-.20508,0-.23926a.50508.50508,0,0,0-.30273-.041l-.54883.0293.1123-.36035,4.33887-1.47363.36719-.084-2.415,7.71289A2.29892,2.29892,0,0,0,70.81555,78.34223Z" style="fill:#42210b"/><path d="M81.95422,76.44379l.68359-.25293a1.11106,1.11106,0,0,0,.36621-.1875.64219.64219,0,0,0,.17676-.30371l1.86133-5.94238c.23633-.75586.27246-1.24023.10449-1.45117-.167-.21094-.55469-.248-1.16211-.1084a8.04589,8.04589,0,0,0-2.793,1.374l-.16211-.3623a13.0948,13.0948,0,0,1,4.833-2.22363q1.92773-.44238,2.52539.123t.0918,2.17969l-1.75977,5.61621c-.03906.126-.03906.20605-.002.23926a.53456.53456,0,0,0,.30469.043l.54688-.0293-.11328.35938-5.61523,1.28711Z" style="fill:#42210b"/><path d="M96.07336,64.64594l.36719-.085-2.65723,8.48535c-.05762.18359-.0625.29883-.01855.34766.04492.04785.16895.05957.37207.03418l.627-.0791-.124.39453a14.41556,14.41556,0,0,1-2.21582.73047,4.861,4.861,0,0,1-1.48633.17383c-.32324-.03711-.51465-.16992-.56836-.39648a2.0918,2.0918,0,0,1,.12793-1.00977l2.3457-7.48828Z" style="fill:#42210b"/><path d="M102.34875,67.7768a4.02422,4.02422,0,0,0-1.15137,1.09863,5.89314,5.89314,0,0,0-.71387,1.55176c-.32617,1.041-.11719,1.47656.63281,1.30469a1.73434,1.73434,0,0,0,.67773-.3457l.09863.3125a6.94346,6.94346,0,0,1-2.87012,1.35938q-2.8916.66211-2.15039-1.707a4.75693,4.75693,0,0,1,1.24219-1.99219,8.77174,8.77174,0,0,1,2.4375-1.59473,25.44694,25.44694,0,0,1,3.88086-1.36816l.36035-1.15039q.33838-1.08105-.0293-1.41113c-.24707-.21973-.71387-.251-1.40527-.09277a9.77315,9.77315,0,0,0-1.84375.61328,13.65486,13.65486,0,0,0-1.78125.98242l-.17676-.375a15.22754,15.22754,0,0,1,5.376-2.34766,4.624,4.624,0,0,1,2.98828-.02344q.84961.46875.30859,2.18555l-1.75391,5.59961c-.03906.127-.041.207,0,.24023a.51685.51685,0,0,0,.30273.042l.54688-.0293-.11328.36035-3.61328.82813q-.93164.21387-.61914-.7832l1.291-4.123A8.01494,8.01494,0,0,0,102.34875,67.7768Z" style="fill:#42210b"/><path d="M114.35754,64.29731a.68978.68978,0,0,0,.61328.06738l1.96484-.45117-.16113.51563-1.96484.45117a1.479,1.479,0,0,0-1.09766,1.11133l-.4082,1.30566a4.56612,4.56612,0,0,0-.26367,1.28027.49669.49669,0,0,0,.34082.52734,2.26139,2.26139,0,0,0,1.08887-.06641,3.88929,3.88929,0,0,0,1.208-.46,2.27032,2.27032,0,0,0,.752-.78613,6.47875,6.47875,0,0,0,.55762-1.33984l2.11426-6.75,3.51074-1.17187.1582-.03516-2.07715,6.63086a5.10478,5.10478,0,0,1-1.05176,1.874,6.48607,6.48607,0,0,1-2.0166,1.45117,15.41361,15.41361,0,0,1-3.31738,1.10254,10.573,10.573,0,0,1-3.03125.36816q-1.03125-.08936-1.27637-.63184a2.12041,2.12041,0,0,1,.0498-1.48633,4.539,4.539,0,0,1,3.126-2.85352,1.93449,1.93449,0,0,1-1.50293-.3252q-.4043-.3999-.10742-1.3457a3.7293,3.7293,0,0,1,1.41992-1.90527,6.57616,6.57616,0,0,1,2.45313-1.10352,3.68573,3.68573,0,0,1,1.27539-.11719,2.03525,2.03525,0,0,1,.85547.33105l-.42773.43262a1.00834,1.00834,0,0,0-.415-.18359,1.08179,1.08179,0,0,0-.50293-.00488,1.67348,1.67348,0,0,0-.96191.54785,3.62123,3.62123,0,0,0-.57617,1.19238l-.37109,1.18457C114.214,63.975,114.22766,64.18891,114.35754,64.29731Z" style="fill:#42210b"/><path d="M121.42688,57.4311a1.941,1.941,0,0,1-1.44922-.02637c-.25391-.18066-.31445-.47754-.18555-.88965a2.47229,2.47229,0,0,1,.63086-1.0293,5.19624,5.19624,0,0,1,1.01953-.78418c.37988-.22363.91211-.5127,1.5957-.86035q.791-.38672,1.32813-.67773c.35938-.19531.71777-.40723,1.07129-.63672l.16895.34375a13.3868,13.3868,0,0,0-2.10449,1.62109,3.60919,3.60919,0,0,0-.93457,1.41895.80945.80945,0,0,0-.04687.52148c.04688.0957.16895.12012.36621.0752a1.7988,1.7988,0,0,0,.43848-.14844c.10449-.05469.17578-.09375.21484-.11328l.01855.41016A9.70556,9.70556,0,0,1,121.42688,57.4311Z" style="fill:#42210b"/></svg>