<svg xmlns="http://www.w3.org/2000/svg" xmlns:xlink="http://www.w3.org/1999/xlink" viewBox="0 0 141.001 122.50923"><defs><linearGradient id="linear-gradient" x1="101.0137" y1="98.3512" x2="115.9705" y2="102.15791" gradientUnits="userSpaceOnUse"><stop offset="0.0034" stop-color="#f8b400"/><stop offset="0.33765" stop-color="#f9ad06"/><stop offset="0.81965" stop-color="#fd9a16"/><stop offset="1" stop-color="#ff911e"/></linearGradient><linearGradient id="linear-gradient-2" x1="-127.52521" y1="-243.22306" x2="-12.02996" y2="-243.22306" gradientTransform="translate(66.01049 347.27506) rotate(14.27665)" gradientUnits="userSpaceOnUse"><stop offset="0.0034" stop-color="#c28d00"/><stop offset="0.36606" stop-color="#c18605"/><stop offset="0.88899" stop-color="#be7313"/><stop offset="1" stop-color="#bd6e17"/></linearGradient><linearGradient id="linear-gradient-3" x1="-0.25114" y1="30.25335" x2="139.61975" y2="65.85244" xlink:href="#linear-gradient"/><clipPath id="clip-path"><path d="M127.74372,55.4115c0,29.88516-24.52037,54.11912-54.77429,54.11912-30.23651,0-54.75139-24.234-54.75139-54.11912,0-29.88327,24.51488-54.10984,54.75139-54.10984C103.22335,1.30166,127.74372,25.52823,127.74372,55.4115Z" style="fill:none"/></clipPath><radialGradient id="未命名漸層_18" cx="80.2995" cy="50.29572" fx="49.93644186788683" fy="32.24608410877744" r="66.69246" gradientUnits="userSpaceOnUse"><stop offset="0.56892" stop-color="#efffff" stop-opacity="0.2"/><stop offset="0.6925" stop-color="#a6b1b1" stop-opacity="0.13888"/><stop offset="1" stop-opacity="0"/></radialGradient><linearGradient id="未命名漸層_11" x1="72.0057" y1="-2.10939" x2="72.0057" y2="67.31984" gradientUnits="userSpaceOnUse"><stop offset="0" stop-color="#fff"/><stop offset="0.16806" stop-color="#fff" stop-opacity="0.77931"/><stop offset="0.39556" stop-color="#fff" stop-opacity="0.50546"/><stop offset="0.60083" stop-color="#fff" stop-opacity="0.28806"/><stop offset="0.77631" stop-color="#fff" stop-opacity="0.13141"/><stop offset="0.9151" stop-color="#fff" stop-opacity="0.03535"/><stop offset="1" stop-color="#fff" stop-opacity="0"/></linearGradient><linearGradient id="未命名漸層_7" x1="7.74326" y1="79.64551" x2="141.001" y2="79.64551" gradientUnits="userSpaceOnUse"><stop offset="0.0034" stop-color="#f8d04c"/><stop offset="0.18339" stop-color="#f9c948"/><stop offset="0.44353" stop-color="#fab63e"/><stop offset="0.7508" stop-color="#fd972d"/><stop offset="1" stop-color="#ff781d"/></linearGradient></defs><title>泰国彩-泰</title><g id="圖層_2" data-name="圖層 2"><g id="圖層_1-2" data-name="圖層 1"><path d="M116.3535,100.65308A99.9092,99.9092,0,0,0,98.07,109.9172c3.82207-7.497,7.64418-14.77,11.46587-21.71221Q112.9447,94.24206,116.3535,100.65308Z" style="fill:url(#linear-gradient)"/><path d="M7.7655,59.05241c4.21229,16.60221,8.42421,32.44173,12.63613,47.66379,31.98357,12.49257,63.96791-10.64137,95.95188-6.06312q-3.4094-6.42216-6.81764-12.44809C75.61212,77.56685,41.68879,93.04125,7.7655,59.05241Z" style="fill:url(#linear-gradient-2)"/><path d="M141.001,60.10581C112.93094,32.7923,53.46807,20.98553,0,29.26659c8.28471,2.53421,15.88723,8.86946,15.88723,8.86946s-1.55965,3.7036-4.97091,10.91594c37.542-8.19576,99.74206,12.4946,124.04183,35.11619Q137.9794,71.89031,141.001,60.10581Z" style="fill:url(#linear-gradient-3)"/><path d="M127.09516,55.41676a54.11427,54.11427,0,1,0-54.11427,54.11386c.53863,0,1.07444-.01052,1.60943-.02629l6.1116,13.0049L90.79132,106.527A54.13333,54.13333,0,0,0,127.09516,55.41676Z" style="fill:#bf0013"/><g style="clip-path:url(#clip-path)"><path d="M127.61519,67.42039a326.7039,326.7039,0,0,1-109.265,0,55.63217,55.63217,0,0,1,0-24.01758,326.11846,326.11846,0,0,1,109.265,0A55.59691,55.59691,0,0,1,127.61519,67.42039Z" style="fill:#003187"/><path d="M127.61519,43.4028a326.11846,326.11846,0,0,0-109.265,0A73.1476,73.1476,0,0,1,23.63452,29.5435c32.48067-13.08109,66.21565-13.08109,98.68535,0A72.43851,72.43851,0,0,1,127.61519,43.4028Z" style="fill:#fff"/><path d="M122.31987,29.5435c-32.46969-13.08109-66.20467-13.08109-98.68535,0a102.3651,102.3651,0,0,1,9.14154-13.85741C44.26361,6.99565,57.3695.272,72.06079.00778c15.35933-.27184,29.14007,6.60888,41.12492,15.6783A101.28515,101.28515,0,0,1,122.31987,29.5435Z" style="fill:#bf0013"/><path d="M122.31987,81.289c-32.46969,13.07162-66.20467,13.07162-98.68535,0a73.38452,73.38452,0,0,1-5.28434-13.86858,326.7039,326.7039,0,0,0,109.265,0A72.67172,72.67172,0,0,1,122.31987,81.289Z" style="fill:#fff"/><path d="M113.18571,95.139c-11.98485,9.07869-25.76559,15.96661-41.12492,15.68019-14.69128-.26635-27.78525-6.98048-39.28472-15.68019a101.39856,101.39856,0,0,1-9.14154-13.85c32.48067,13.07162,66.21565,13.07162,98.68535,0A100.33833,100.33833,0,0,1,113.18571,95.139Z" style="fill:#bf0013"/></g><path d="M127.74372,55.4115c0,29.88516-24.52037,54.11912-54.77429,54.11912-30.23651,0-54.75139-24.234-54.75139-54.11912,0-29.88327,24.51488-54.10984,54.75139-54.10984C103.22335,1.30166,127.74372,25.52823,127.74372,55.4115Z" style="opacity:0.8;fill:url(#未命名漸層_18)"/><path d="M115.81718,36.99174c0,18.26453-19.60857,33.10537-43.81281,33.10537-24.19969,0-43.81016-14.84083-43.81016-33.10537,0-18.2776,19.61046-33.11294,43.81016-33.11294C96.20861,3.8788,115.81718,18.71415,115.81718,36.99174Z" style="fill:url(#未命名漸層_11)"/><path d="M127.09516,55.41676q0-1.386-.06915-2.75376c-27.47889-5.88966-59.11711,7.37892-76.47343,8.11771A48.28567,48.28567,0,0,1,19.51969,50.644l-.51358.8961c-.09014,1.28023-.1395,2.57219-.1395,3.87668a54.06529,54.06529,0,0,0,2.586,16.563L71.23523,96.38013a126.4698,126.4698,0,0,1,30.227-8.73153,35.936,35.936,0,0,1,14.72633.349A53.86686,53.86686,0,0,0,127.09516,55.41676Z" style="opacity:0.14"/><path d="M7.74326,59.1252c44.41952,28.605,88.83822-27.62448,133.25774.98061q-3.02121,11.77682-6.04286,24.06237c-38.18577-13.5617-76.37116,29.8845-114.55651,22.548C16.182,91.52081,11.96326,75.70555,7.74326,59.1252Z" style="fill:url(#未命名漸層_7)"/><path d="M29.09928,82.9418l.34766-.0791-2.50977,8.01367q-.082.26074-.01758.32813c.03906.0459.1582.05664.34961.0332l.59375-.07617-.11719.373A13.63453,13.63453,0,0,1,25.652,92.224a4.56025,4.56025,0,0,1-1.4043.16406c-.30859-.03418-.48633-.15918-.53711-.373a1.96866,1.96866,0,0,1,.123-.95312L26.0485,83.9877Zm5.79883-1.3291.34766-.08008L32.736,89.54824c-.05469.17188-.06055.28223-.01758.32715q.06152.06885.35156.03223l.59375-.07617-.11719.373a13.64823,13.64823,0,0,1-2.09375.69043,4.56571,4.56571,0,0,1-1.4043.16406c-.30859-.03418-.48828-.15918-.53711-.374a1.94781,1.94781,0,0,1,.123-.95312l2.21484-7.07324Z" style="fill:#42210b"/><path d="M43.57194,80.0541a8.12845,8.12845,0,0,1,2.48047-.998q2.71582-.62109,1.96484,1.7793l-1.83984,5.87109c-.03711.11914-.03906.19531-.002.22852a.51386.51386,0,0,0,.28711.03906l.51563-.02832-.10156.32422-3.41406.78223q-.876.20215-.58691-.72363l1.89551-6.05078c.14258-.45508.168-.751.08008-.8916-.09082-.14062-.29-.1748-.59863-.10449a4.25958,4.25958,0,0,0-1.44824.69336A12.82684,12.82684,0,0,0,41.36,82.14981l-1.91113,6.09961c-.03711.11914-.03711.19336,0,.22656a.49224.49224,0,0,0,.28711.03906l.48242-.01953-.10156.32422-5.20312,1.19238.10156-.32422.57813-.22363a1.38572,1.38572,0,0,0,.35742-.1875.54512.54512,0,0,0,.15039-.26074l2.19043-6.99121c.03711-.11914.03906-.19434.002-.22656a.48768.48768,0,0,0-.28711-.03906l-.5166.02734.10742-.33984,4.0957-1.3916.31445-.07129-.50293,1.60547A14.73042,14.73042,0,0,1,43.57194,80.0541Z" style="fill:#42210b"/><path d="M59.8317,76.94473c.43652.59766.4375,1.60449-.00684,3.02051a10.21306,10.21306,0,0,1-1.39746,2.93262,6.76746,6.76746,0,0,1-2.06445,1.9043,10.28881,10.28881,0,0,1-2.959,1.123,11.66215,11.66215,0,0,1-1.81836.28027,4.4199,4.4199,0,0,1-1.35156-.08105l-.09473-5.29395,3.04785-1.33105.02148,5.97363.19727-.0459a2.54222,2.54222,0,0,0,1.56738-1.32227,16.37029,16.37029,0,0,0,1.333-3.27246,7.13775,7.13775,0,0,0,.48047-2.73828q-.11719-.82178-1.01172-.61816a3.2339,3.2339,0,0,0-1.07715.4873l-.11328-.42578a6.94368,6.94368,0,0,1,1.11621-.56543,9.11681,9.11681,0,0,1,1.45117-.46Q59.1735,76.04776,59.8317,76.94473Z" style="fill:#42210b"/><path d="M68.35123,76.89688a2.61162,2.61162,0,0,0,1.1582-.84473,5.01111,5.01111,0,0,0,.71875-1.5127,1.53973,1.53973,0,0,0,.05664-.76465,8.93544,8.93544,0,0,1,.917-.42187,6.77259,6.77259,0,0,1,1.00684-.32129c.60547-.13965.99707-.11523,1.16895.07129.17188.18555.18457.52246.03223,1.00879a3.54469,3.54469,0,0,1-1.14453,1.56445,7.52008,7.52008,0,0,1-2.63574,1.31934,6.02439,6.02439,0,0,1,1.59863-.07227.75155.75155,0,0,1,.67285.47852,2.12521,2.12521,0,0,1-.12109,1.22461l-.74707,2.38477c-.03711.11914-.03906.19336-.002.22656a.49608.49608,0,0,0,.28711.03906l.51563-.02734-.10156.32422-3.41406.78223c-.58594.13379-.7793-.10742-.58691-.72363l.77246-2.46582a2.71708,2.71708,0,0,0,.18652-1.2627c-.05957-.248-.28613-.35059-.67773-.3125q-.4292.03955-1.93652.38477l-1.4082,4.49316c-.03711.11914-.03516.19434,0,.22656a.48133.48133,0,0,0,.28711.04l.48242-.02051-.10156.32422-5.20312,1.19238.10156-.32422.57813-.22266a1.40666,1.40666,0,0,0,.35938-.1875.5702.5702,0,0,0,.15039-.26172l2.19043-6.99023c.03711-.11914.03711-.19531.002-.22754a.48983.48983,0,0,0-.28906-.03809l-.5166.02637.10742-.33984,4.09766-1.3916.3457-.0791-1.03125,3.293A15.958,15.958,0,0,0,68.35123,76.89688Z" style="fill:#42210b"/><path d="M81.28092,78.51113a11.41132,11.41132,0,0,1-4.44531,2.043,8.06147,8.06147,0,0,1-1.64746.21875,4.19775,4.19775,0,0,1-1.21484-.12012l.94336-2.41406.3125-.07129a2.43377,2.43377,0,0,0,.3125,1.67383q.39551.4834,1.376.25781a3.51726,3.51726,0,0,0,2.01172-1.417,10.9896,10.9896,0,0,0,1.53516-3.28125,4.35371,4.35371,0,0,0,.26758-2.749q-.35156-.77051-1.77539-.44434a9.55258,9.55258,0,0,0-3.19238,1.45508l-.167-.35352a17.38761,17.38761,0,0,1,2.18359-1.25293,12.5521,12.5521,0,0,1,2.60352-.86914q2.40234-.54932,3.35449.26367.95361.813.25,3.05273A7.84023,7.84023,0,0,1,81.28092,78.51113Z" style="fill:#42210b"/><path d="M89.69889,72.682a.654.654,0,0,0,.57813.06348l1.85742-.42578-.15234.48633-1.85742.42578a1.39592,1.39592,0,0,0-1.03418,1.05078L88.70475,75.515a4.30184,4.30184,0,0,0-.248,1.209.46389.46389,0,0,0,.32031.498,2.12235,2.12235,0,0,0,1.02539-.06152,3.6881,3.6881,0,0,0,1.14453-.43652,2.14453,2.14453,0,0,0,.709-.74121,6.14189,6.14189,0,0,0,.52734-1.26465l1.99609-6.377,3.31641-1.10547.14844-.0332-1.96094,6.26172a4.81941,4.81941,0,0,1-.99316,1.77051,6.13176,6.13176,0,0,1-1.90723,1.37012,14.39975,14.39975,0,0,1-3.13281,1.042,10.0006,10.0006,0,0,1-2.86035.34766q-.97412-.08643-1.20508-.59668a1.99425,1.99425,0,0,1,.0459-1.4043,4.28272,4.28272,0,0,1,2.95215-2.69531,1.82309,1.82309,0,0,1-1.41895-.30664c-.25293-.252-.28906-.67578-.10254-1.27148A3.52252,3.52252,0,0,1,88.402,69.92324,6.18828,6.18828,0,0,1,90.7194,68.8793a3.47553,3.47553,0,0,1,1.20605-.11035,1.93862,1.93862,0,0,1,.80859.31152l-.40332.4082a1.00326,1.00326,0,0,0-.39355-.17285,1.0304,1.0304,0,0,0-.47559-.00391,1.5765,1.5765,0,0,0-.90723.5166,3.38743,3.38743,0,0,0-.54687,1.127l-.35059,1.11914C89.56217,72.37735,89.57682,72.57949,89.69889,72.682Z" style="fill:#42210b"/><path d="M102.48209,73.88613c.041.04492.1582.05664.34961.0332l.59375-.07617-.11719.373a13.6873,13.6873,0,0,1-2.0918.68945,4.57119,4.57119,0,0,1-1.4043.16406c-.30859-.03516-.48828-.15918-.53711-.373a1.94946,1.94946,0,0,1,.123-.9541l2.22461-7.10645a3.57257,3.57257,0,0,1,.48047-.998,3.98181,3.98181,0,0,1,.70117-.7627c.26465-.22168.61719-.4834,1.06152-.78613l3.03027-2.06445a5.42966,5.42966,0,0,0,.54883-.42676.87826.87826,0,0,0,.25586-.375.28884.28884,0,0,0-.2002-.39062,1.38157,1.38157,0,0,0-.66992-.07324,2.90485,2.90485,0,0,0-.7002.31836c-.30078.17578-.71484.43262-1.24121.77441-.66895.43555-1.2334.78223-1.68848,1.042a4.47544,4.47544,0,0,1-1.16406.501l-2.10449-1.38574.35156-.38184,1.14746.65723a3.11017,3.11017,0,0,0,.50488-.23633c.21191-.12012.4375-.25781.68457-.41406.53711-.34375,1.0293-.63477,1.4707-.87109a5.33269,5.33269,0,0,1,1.3291-.50781,3.96845,3.96845,0,0,1,1.95605-.03516,1.55138,1.55138,0,0,1,1.0957.94531l-.15723.50391-1.97656,1.251a1.86823,1.86823,0,0,0-.58691.59277,3.99274,3.99274,0,0,0-.377.86328l-2.875,9.18164Q102.41764,73.81875,102.48209,73.88613Z" style="fill:#42210b"/><path d="M113.49577,64.02676a8.16559,8.16559,0,0,1,2.48047-.99609q2.71582-.624,1.96484,1.77832l-1.83984,5.87207c-.03711.11914-.03711.19434-.002.22656a.50793.50793,0,0,0,.28906.03906l.51563-.02734-.10156.32422-3.41406.7832q-.876.19922-.58691-.72461l1.89551-6.05078c.14258-.45508.168-.751.08008-.89258-.09082-.13867-.29-.17383-.59863-.10352a4.24134,4.24134,0,0,0-1.44824.69336,12.82684,12.82684,0,0,0-1.44434,1.1748L109.37467,72.223c-.03711.11914-.03711.19434,0,.22656a.48549.48549,0,0,0,.28516.04l.48438-.02148-.10156.32422-5.20312,1.19336.10156-.32422.57617-.22266a1.37227,1.37227,0,0,0,.35938-.1875.5702.5702,0,0,0,.15039-.26172l2.19043-6.99121c.03711-.11914.03711-.19434.002-.22754a.48888.48888,0,0,0-.28906-.03711l-.51465.02637.10742-.33984,4.0957-1.3916.31445-.07227-.50293,1.60742A14.762,14.762,0,0,1,113.49577,64.02676Z" style="fill:#42210b"/><path d="M123.55241,64.92324a.64965.64965,0,0,0,.57813.06348l1.85547-.42578-.15234.48633-1.85547.42578a1.39984,1.39984,0,0,0-1.03613,1.0498l-.38574,1.23438a4.36142,4.36142,0,0,0-.248,1.209.46748.46748,0,0,0,.32031.49707,2.14309,2.14309,0,0,0,1.02734-.06152,3.71345,3.71345,0,0,0,1.14453-.43555,2.17419,2.17419,0,0,0,.709-.74219,6.1068,6.1068,0,0,0,.52734-1.26562l1.99609-6.375,3.31641-1.10645.14844-.03418-1.96094,6.26172a4.8001,4.8001,0,0,1-.99316,1.77148,6.16473,6.16473,0,0,1-1.90723,1.37109,14.54624,14.54624,0,0,1-3.13281,1.041,10.00556,10.00556,0,0,1-2.8623.34766q-.97119-.085-1.20508-.59766a2.00718,2.00718,0,0,1,.04785-1.4043,4.28445,4.28445,0,0,1,2.95215-2.69336,1.8267,1.8267,0,0,1-1.41895-.30762q-.38232-.37793-.10254-1.27051a3.527,3.527,0,0,1,1.34082-1.79883,6.20206,6.20206,0,0,1,2.31738-1.043,3.49419,3.49419,0,0,1,1.2041-.11133,1.92,1.92,0,0,1,.80859.3125l-.40332.4082a1.008,1.008,0,0,0-.3916-.17285,1.04439,1.04439,0,0,0-.47559-.00488,1.59367,1.59367,0,0,0-.90918.51758,3.427,3.427,0,0,0-.54492,1.127l-.35059,1.11914C123.41569,64.61856,123.43034,64.82071,123.55241,64.92324Z" style="fill:#42210b"/></g></g></svg>