<svg xmlns="http://www.w3.org/2000/svg" xmlns:xlink="http://www.w3.org/1999/xlink" viewBox="0 0 141.001 122.50923"><defs><linearGradient id="linear-gradient" x1="101.0137" y1="98.3512" x2="115.9705" y2="102.15791" gradientUnits="userSpaceOnUse"><stop offset="0.0034" stop-color="#f8b400"/><stop offset="0.33765" stop-color="#f9ad06"/><stop offset="0.81965" stop-color="#fd9a16"/><stop offset="1" stop-color="#ff911e"/></linearGradient><linearGradient id="linear-gradient-2" x1="-70.76621" y1="204.59036" x2="44.72903" y2="204.59036" gradientTransform="translate(121.43613 -100.6977) rotate(14.27665)" gradientUnits="userSpaceOnUse"><stop offset="0.0034" stop-color="#c28d00"/><stop offset="0.36606" stop-color="#c18605"/><stop offset="0.88899" stop-color="#be7313"/><stop offset="1" stop-color="#bd6e17"/></linearGradient><linearGradient id="linear-gradient-3" x1="-0.25114" y1="30.25335" x2="139.61975" y2="65.85244" xlink:href="#linear-gradient"/><clipPath id="clip-path"><path d="M127.74372,55.4115c0,29.88516-24.52037,54.11912-54.77429,54.11912-30.23651,0-54.75139-24.234-54.75139-54.11912,0-29.88327,24.51488-54.10984,54.75139-54.10984C103.22335,1.30166,127.74372,25.52823,127.74372,55.4115Z" style="fill:none"/></clipPath><radialGradient id="未命名漸層_18" cx="80.2995" cy="50.29572" fx="49.936441867884554" fy="32.24608410877535" r="66.69246" gradientUnits="userSpaceOnUse"><stop offset="0.56892" stop-color="#efffff" stop-opacity="0.2"/><stop offset="0.6925" stop-color="#a6b1b1" stop-opacity="0.13888"/><stop offset="1" stop-opacity="0"/></radialGradient><linearGradient id="未命名漸層_11" x1="72.0057" y1="-2.10939" x2="72.0057" y2="67.31984" gradientUnits="userSpaceOnUse"><stop offset="0" stop-color="#fff"/><stop offset="0.16806" stop-color="#fff" stop-opacity="0.77931"/><stop offset="0.39556" stop-color="#fff" stop-opacity="0.50546"/><stop offset="0.60083" stop-color="#fff" stop-opacity="0.28806"/><stop offset="0.77631" stop-color="#fff" stop-opacity="0.13141"/><stop offset="0.9151" stop-color="#fff" stop-opacity="0.03535"/><stop offset="1" stop-color="#fff" stop-opacity="0"/></linearGradient><linearGradient id="未命名漸層_7" x1="7.74326" y1="79.64551" x2="141.001" y2="79.64551" gradientUnits="userSpaceOnUse"><stop offset="0.0034" stop-color="#f8d04c"/><stop offset="0.18339" stop-color="#f9c948"/><stop offset="0.44353" stop-color="#fab63e"/><stop offset="0.7508" stop-color="#fd972d"/><stop offset="1" stop-color="#ff781d"/></linearGradient></defs><title>泰国5分彩-中</title><g id="圖層_2" data-name="圖層 2"><g id="圖層_1-2" data-name="圖層 1"><path d="M116.3535,100.65308A99.9092,99.9092,0,0,0,98.07,109.9172c3.82207-7.497,7.64418-14.77,11.46587-21.71221Q112.9447,94.24206,116.3535,100.65308Z" style="fill:url(#linear-gradient)"/><path d="M7.7655,59.05241c4.21229,16.60221,8.42421,32.44173,12.63613,47.66379,31.98357,12.49257,63.96791-10.64137,95.95188-6.06312q-3.4094-6.42216-6.81764-12.44809C75.61212,77.56685,41.68879,93.04125,7.7655,59.05241Z" style="fill:url(#linear-gradient-2)"/><path d="M141.001,60.10581C112.93094,32.7923,53.46807,20.98553,0,29.26659c8.28471,2.53421,15.88723,8.86946,15.88723,8.86946s-1.55965,3.7036-4.97091,10.91594c37.542-8.19576,99.74206,12.4946,124.04183,35.11619Q137.9794,71.89031,141.001,60.10581Z" style="fill:url(#linear-gradient-3)"/><path d="M127.09516,55.41676a54.11427,54.11427,0,1,0-54.11427,54.11386c.53863,0,1.07444-.01052,1.60943-.02629l6.1116,13.0049L90.79132,106.527A54.13333,54.13333,0,0,0,127.09516,55.41676Z" style="fill:#bf0013"/><g style="clip-path:url(#clip-path)"><path d="M127.61519,67.42039a326.7039,326.7039,0,0,1-109.265,0,55.63217,55.63217,0,0,1,0-24.01758,326.11846,326.11846,0,0,1,109.265,0A55.59691,55.59691,0,0,1,127.61519,67.42039Z" style="fill:#003187"/><path d="M127.61519,43.4028a326.11846,326.11846,0,0,0-109.265,0A73.1476,73.1476,0,0,1,23.63452,29.5435c32.48067-13.08109,66.21565-13.08109,98.68535,0A72.43851,72.43851,0,0,1,127.61519,43.4028Z" style="fill:#fff"/><path d="M122.31987,29.5435c-32.46969-13.08109-66.20467-13.08109-98.68535,0a102.3651,102.3651,0,0,1,9.14154-13.85741C44.26361,6.99565,57.3695.272,72.06079.00778c15.35933-.27184,29.14007,6.60888,41.12492,15.6783A101.28515,101.28515,0,0,1,122.31987,29.5435Z" style="fill:#bf0013"/><path d="M122.31987,81.289c-32.46969,13.07162-66.20467,13.07162-98.68535,0a73.38452,73.38452,0,0,1-5.28434-13.86858,326.7039,326.7039,0,0,0,109.265,0A72.67172,72.67172,0,0,1,122.31987,81.289Z" style="fill:#fff"/><path d="M113.18571,95.139c-11.98485,9.07869-25.76559,15.96661-41.12492,15.68019-14.69128-.26635-27.78525-6.98048-39.28472-15.68019a101.39856,101.39856,0,0,1-9.14154-13.85c32.48067,13.07162,66.21565,13.07162,98.68535,0A100.33833,100.33833,0,0,1,113.18571,95.139Z" style="fill:#bf0013"/></g><path d="M127.74372,55.4115c0,29.88516-24.52037,54.11912-54.77429,54.11912-30.23651,0-54.75139-24.234-54.75139-54.11912,0-29.88327,24.51488-54.10984,54.75139-54.10984C103.22335,1.30166,127.74372,25.52823,127.74372,55.4115Z" style="opacity:0.8;fill:url(#未命名漸層_18)"/><path d="M115.81718,36.99174c0,18.26453-19.60857,33.10537-43.81281,33.10537-24.19969,0-43.81016-14.84083-43.81016-33.10537,0-18.2776,19.61046-33.11294,43.81016-33.11294C96.20861,3.8788,115.81718,18.71415,115.81718,36.99174Z" style="fill:url(#未命名漸層_11)"/><path d="M127.09516,55.41676q0-1.386-.06915-2.75376c-27.47889-5.88966-59.11711,7.37892-76.47343,8.11771A48.28567,48.28567,0,0,1,19.51969,50.644l-.51358.8961c-.09014,1.28023-.1395,2.57219-.1395,3.87668a54.06529,54.06529,0,0,0,2.586,16.563L71.23523,96.38013a126.4698,126.4698,0,0,1,30.227-8.73153,35.936,35.936,0,0,1,14.72633.349A53.86686,53.86686,0,0,0,127.09516,55.41676Z" style="opacity:0.14"/><path d="M7.74326,59.1252c44.41952,28.605,88.83822-27.62448,133.25774.98061q-3.02121,11.77682-6.04286,24.06237c-38.18577-13.5617-76.37116,29.8845-114.55651,22.548C16.182,91.52081,11.96326,75.70555,7.74326,59.1252Z" style="fill:url(#未命名漸層_7)"/><path d="M49.7729,83.76875A21.82367,21.82367,0,0,0,51.601,82.04024a8.6358,8.6358,0,0,1-1.918-1.40723L45.56587,81.7209a13.94869,13.94869,0,0,1-1.15234,2.1416q1.28613.34717,2.54492.75293l-.51172,1.18262q-1.30664-.48779-2.73047-.93652a21.46453,21.46453,0,0,1-2.2793,2.5166c-.30469-.28516-.66016-.59277-1.06641-.91895A14.69866,14.69866,0,0,0,43.937,82.15059l-4.07715,1.07715-.27148-1.02734,4.91211-1.29687a10.5611,10.5611,0,0,0,.51563-1.78516L40.3852,80.341l-.27148-1.02734,5.06348-1.33691a14.21653,14.21653,0,0,0,.06641-1.44238L39.185,78.135l-.27148-1.02734,6.292-1.66211c-.02832-.49609-.08008-1.01562-.1543-1.55566l1.34668-.167q.06445.72949.09863,1.38184l6.7666-1.78711.27148,1.02734-6.999,1.84766c.00781.52539-.00391,1.002-.0332,1.43359l6.83789-1.80566.27148,1.02734-7.22363,1.9082a11.41159,11.41159,0,0,1-.37891,1.749l9.21289-2.43359.27148,1.02734-4.49414,1.18652a9.36553,9.36553,0,0,0,5.53711,1.59375q-.2666.81006-.46289,1.49707a13.70343,13.70343,0,0,1-3.36523-.81152q-.87012.93164-2.02637,1.97754C50.45259,84.32735,50.15083,84.06954,49.7729,83.76875Zm-2.22656,1.8418a9.8495,9.8495,0,0,0,.55664,1.00391q-3.04687,1.85156-5.0918,3.14648l-.707-1.04883Q44.58345,87.45674,47.54634,85.61055Zm-.1709-3.50879,1.252-.33105,1.4541,5.50488A1.75508,1.75508,0,0,1,48.6186,89.6711q-.81738.21533-1.96582.48438-.20947-.52734-.5459-1.28125a19.42126,19.42126,0,0,0,1.97656-.38477q.91553-.2417.69141-1.09082Zm2.6123,3.91113.24023-1.11035q3.12012.12012,5.95117.36816l-.25977,1.35547Q53.01167,86.2087,49.98774,86.0129Z" style="fill:#42210b"/><path d="M55.3647,72.10958l14.04492-3.71L73.3647,83.37422l-1.23633.32715-.21191-.80273L60.34419,85.95528l.2168.81836-1.23633.32617Zm13.10937-2.24316L56.90181,72.92305l3.1416,11.89258L71.61567,81.759ZM60.04438,81.82833l4.42969-1.16992-.83984-3.17773-3.86816,1.02246-.28809-1.0918,3.86816-1.02246-.56836-2.15039L58.60493,75.341l-.28809-1.0918,9.56641-2.52734.28809,1.0918L63.96528,73.925l.56836,2.15039L68.41841,75.049l.28809,1.0918-3.88477,1.02637.83984,3.17773,4.46289-1.17871.28809,1.0918L60.33247,82.92012Zm5.88379-3.85449.72168-.91211a23.06212,23.06212,0,0,1,1.96191,1.31934l-.75586.97266A19.055,19.055,0,0,0,65.92817,77.97383Z" style="fill:#42210b"/><path d="M81.43208,74.84786a3.94182,3.94182,0,0,1-.43164,3.25684,4.75191,4.75191,0,0,1-2.95215,1.97266,5.31131,5.31131,0,0,1-2.74609.168l-.42383-1.60547a4.83176,4.83176,0,0,0,2.78516.13965,3.124,3.124,0,0,0,1.9082-1.27246,2.51889,2.51889,0,0,0,.29492-2.11523A2.30806,2.30806,0,0,0,78.54829,73.76a3.80965,3.80965,0,0,0-2.52344-.042,19.92832,19.92832,0,0,0-2.082.66211l-1.209-6.42871,5.81055-1.53418.36426,1.37988-4.48633,1.18457.67383,3.58984,1.11914-.3457a4.725,4.725,0,0,1,3.3623.16309A3.581,3.581,0,0,1,81.43208,74.84786Z" style="fill:#42210b"/><path d="M81.87739,71.2375a20.58324,20.58324,0,0,0,3.96289-7.88086l1.30469.32422a23.08039,23.08039,0,0,1-4.04883,8.40137A7.9672,7.9672,0,0,0,81.87739,71.2375Zm2.32227-.04785,10.6748-2.81934q.63867,2.74951,1.166,5.39258.60205,3.05273-2.05176,3.73535-1.29639.36035-2.7666.64453c-.18359-.43262-.377-.86621-.585-1.30469a21.88592,21.88592,0,0,0,2.81152-.53711q1.61426-.39111,1.26953-2.34277-.32812-1.76953-.86328-4.04883l-4.93555,1.30469a10.65574,10.65574,0,0,1,.02539,4.6123,8.1797,8.1797,0,0,1-3.21484,4.40234c-.375-.28906-.77539-.56836-1.19922-.833A7.57,7.57,0,0,0,87.604,75.49336a8.41608,8.41608,0,0,0-.001-3.93164l-3.08984.81543ZM89.08149,62.757l1.02344-.80273a12.51546,12.51546,0,0,0,7.89648,4.80078,10.895,10.895,0,0,0-.7207,1.49512A14.90617,14.90617,0,0,1,89.08149,62.757Z" style="fill:#42210b"/><path d="M97.88032,62.45918c-.1709-.34473-.36914-.71-.59766-1.09473q4.64355-1.46924,8.33789-2.75293l.59473,1.08008Q103.16108,60.736,97.88032,62.45918Zm.33691,1.40527.82324-.78516q1.08545,1.05469,2.127,2.13477l-.8877.87012Q99.38472,65.03243,98.21724,63.86446Zm7.03809,4.80273q1.70215.69141,3.53125,1.47168l-.53223,1.23926q-1.61719-.86133-3.44434-1.666l1.31836,4.99023-1.1875.31445-1.4375-5.44043a19.56406,19.56406,0,0,1-2.125,4.69922q-.38379-.22412-1.18652-.5957a15.17232,15.17232,0,0,0,2.65137-5.62891l-3.27441.86523-.31348-1.1875L102.77095,66.8l-.33105-1.252,1.1875-.31445.33105,1.252,3.28906-.86914.31445,1.1875-3.29.86914.52539,1.99023Zm-4.24219-6.17676.84375-.77246q1.13525,1.1748,2.123,2.25488l-.92578.84668A30.26677,30.26677,0,0,0,101.01313,62.49043Zm3.53125,2.05566q.48633-1.67578.90332-3.86133l1.22754.293q-.35449,1.4502-1.00391,3.80273Zm7.54395-6.80176a20.135,20.135,0,0,1-4.42871,5.8584q-.60937-.49219-1.07715-.832a14.76039,14.76039,0,0,0,4.249-5.43164ZM107.9145,73.08125a17.40379,17.40379,0,0,0,6.124-7.4375l1.19922.57617a19.55706,19.55706,0,0,1-6.2041,7.71582A12.08973,12.08973,0,0,0,107.9145,73.08125Zm5.69336-11.01563a20.32317,20.32317,0,0,1-4.47754,5.80176q-.41162-.38965-1.02246-.87988a15.22768,15.22768,0,0,0,4.28027-5.44141Z" style="fill:#42210b"/></g></g></svg>