<svg xmlns="http://www.w3.org/2000/svg" xmlns:xlink="http://www.w3.org/1999/xlink" viewBox="0 0 141.001 121.20757"><defs><linearGradient id="linear-gradient" x1="101.0137" y1="97.04954" x2="115.9705" y2="100.85626" gradientUnits="userSpaceOnUse"><stop offset="0.0034" stop-color="#f8b400"/><stop offset="0.33765" stop-color="#f9ad06"/><stop offset="0.81965" stop-color="#fd9a16"/><stop offset="1" stop-color="#ff911e"/></linearGradient><linearGradient id="linear-gradient-2" x1="1.87985" y1="65.33789" x2="117.3751" y2="65.33789" gradientTransform="translate(16.69517 15.03569) rotate(14.27665)" gradientUnits="userSpaceOnUse"><stop offset="0.0034" stop-color="#c28d00"/><stop offset="0.36606" stop-color="#c18605"/><stop offset="0.88899" stop-color="#be7313"/><stop offset="1" stop-color="#bd6e17"/></linearGradient><linearGradient id="linear-gradient-3" x1="-0.25114" y1="28.95169" x2="139.61975" y2="64.55079" xlink:href="#linear-gradient"/><linearGradient id="未命名漸層_29" x1="34.71634" y1="15.84992" x2="111.24375" y2="92.37733" gradientUnits="userSpaceOnUse"><stop offset="0" stop-color="#e62c14"/><stop offset="1" stop-color="#c72c14"/></linearGradient><linearGradient id="linear-gradient-4" x1="7.74326" y1="78.34385" x2="141.001" y2="78.34385" gradientUnits="userSpaceOnUse"><stop offset="0.0034" stop-color="#f8d04c"/><stop offset="0.27761" stop-color="#f9cc45"/><stop offset="0.67289" stop-color="#fcc232"/><stop offset="1" stop-color="#ffb71d"/></linearGradient><linearGradient id="linear-gradient-5" x1="3344.67489" y1="786.54589" x2="3346.21955" y2="836.19426" gradientTransform="matrix(-0.8962, 0.0688, 0.1005, 0.8893, 2987.69924, -938.10243)" gradientUnits="userSpaceOnUse"><stop offset="0" stop-color="#fff"/><stop offset="1" stop-color="#fff" stop-opacity="0"/></linearGradient></defs><title>越</title><g id="圖層_2" data-name="圖層 2"><g id="圖層_1-2" data-name="圖層 1"><path d="M116.3535,99.35143A99.9092,99.9092,0,0,0,98.07,108.61554c3.82207-7.497,7.64418-14.77,11.46587-21.71221Q112.9447,92.94041,116.3535,99.35143Z" style="fill:url(#linear-gradient)"/><path d="M7.7655,57.75075c4.21229,16.60221,8.42421,32.44173,12.63613,47.66379,31.98357,12.49257,63.96791-10.64137,95.95188-6.06312q-3.4094-6.42216-6.81764-12.44809C75.61212,76.2652,41.68879,91.73959,7.7655,57.75075Z" style="fill:url(#linear-gradient-2)"/><path d="M141.001,58.80416C112.93094,31.49065,53.46807,19.68387,0,27.96493c8.28471,2.53421,15.88723,8.86946,15.88723,8.86946s-1.55965,3.7036-4.97091,10.91594c37.542-8.19576,99.74206,12.4946,124.04183,35.11619Q137.9794,70.58866,141.001,58.80416Z" style="fill:url(#linear-gradient-3)"/><path d="M127.09516,54.1151A54.11427,54.11427,0,1,0,72.98089,108.229c.53863,0,1.07444-.01052,1.60943-.02629l6.1116,13.0049,10.08941-15.98226A54.13333,54.13333,0,0,0,127.09516,54.1151Z" style="fill:url(#未命名漸層_29)"/><path d="M127.09516,54.1151q0-1.386-.06915-2.75376c-27.47889-5.88966-59.11711,7.37892-76.47343,8.11771A48.28567,48.28567,0,0,1,19.51969,49.34232l-.51358.8961c-.09014,1.28023-.1395,2.57219-.1395,3.87668a54.06529,54.06529,0,0,0,2.586,16.563L71.23523,95.07848a126.4698,126.4698,0,0,1,30.227-8.73153,35.936,35.936,0,0,1,14.72633.349A53.86686,53.86686,0,0,0,127.09516,54.1151Z" style="opacity:0.14"/><path d="M7.74326,57.82355c44.41952,28.605,88.83822-27.62448,133.25774.98061q-3.02121,11.77682-6.04286,24.06237C96.77237,69.30482,58.587,112.751,20.40162,105.41455,16.182,90.21915,11.96326,74.40389,7.74326,57.82355Z" style="fill:url(#linear-gradient-4)"/><polygon points="71.695 12.193 76.368 26.563 91.484 26.563 79.258 35.449 83.926 49.829 71.695 40.943 59.469 49.829 64.142 35.449 51.911 26.563 67.027 26.563 71.695 12.193" style="fill:gold"/><path d="M32.7531,40.37965C34.813,58.6115,54.49353,72.01008,76.711,70.30647c22.21745-1.70756,38.55831-17.86876,36.49773-36.09975C111.1491,15.9743,91.46639,2.57709,69.24859,4.28213,47.03223,5.98632,30.692,22.14866,32.7531,40.37965Z" style="fill:url(#linear-gradient-5)"/><path d="M58.37308,74.323a1.97294,1.97294,0,0,0,.73535-.998,1.0831,1.0831,0,0,0,.03613-.73242.86152.86152,0,0,0-.46094-.42383,5.88352,5.88352,0,0,0-1.07324-.33008,7.70862,7.70862,0,0,1-1.39258-.43457,1.17983,1.17983,0,0,1-.63965-.68262,2.117,2.117,0,0,1,.09375-1.29492,3.94525,3.94525,0,0,1,1.4248-1.99023,7.64761,7.64761,0,0,1,2.9248-1.22852,7.79746,7.79746,0,0,1,1.56445-.209,4.21406,4.21406,0,0,1,1.18359.10742L61.87113,68.075l-.34277.07813a3.86106,3.86106,0,0,0-.123-1.08789.78467.78467,0,0,0-.4873-.52734,2.01857,2.01857,0,0,0-1.10254.02734q-1.67285.38379-2.00781,1.45117a.9362.9362,0,0,0-.02148.67188.78448.78448,0,0,0,.44531.377c.22266.0918.60059.21289,1.13281.36719l.21875.05273a10.21243,10.21243,0,0,1,1.458.50781,1.18245,1.18245,0,0,1,.624.6582A2.00635,2.00635,0,0,1,61.5762,71.908a4.00754,4.00754,0,0,1-1.50684,2.0498,8.355,8.355,0,0,1-3.11426,1.29,9.85555,9.85555,0,0,1-1.71387.23047,4.613,4.613,0,0,1-1.37012-.07715l1.02637-2.26172.33008-.07617a3.081,3.081,0,0,0,.02344,1.38867.78091.78091,0,0,0,.59277.54883,2.76027,2.76027,0,0,0,1.15234-.07422A3.598,3.598,0,0,0,58.37308,74.323Z" style="fill:#42210b"/><path d="M73.12015,64.1902q.94922.76758.20508,3.13672a7.72793,7.72793,0,0,1-2.35449,3.72461,8.80134,8.80134,0,0,1-3.75293,1.84375q-2.1416.49219-3.08887-.27539-.94629-.76758-.20605-3.13867a7.74317,7.74317,0,0,1,2.35938-3.71875,8.81785,8.81785,0,0,1,3.749-1.84961Q72.17288,63.4236,73.12015,64.1902Zm-4.47559,7.66406a4.5867,4.5867,0,0,0,.96777-1.41895,20.62637,20.62637,0,0,0,.91406-2.46582,16.81512,16.81512,0,0,0,.6084-2.39746,1.45454,1.45454,0,0,0-.15918-1.16113c-.18945-.21094-.543-.25586-1.05664-.13672a2.7855,2.7855,0,0,0-1.3125.67969,4.52732,4.52732,0,0,0-.96875,1.41992,20.71565,20.71565,0,0,0-.91406,2.4668,16.976,16.976,0,0,0-.60937,2.39648,1.44275,1.44275,0,0,0,.16113,1.16016q.28271.31494,1.05566.13867A2.82336,2.82336,0,0,0,68.64456,71.85426Zm3.68457-9.19336-.19824.21875a5.68,5.68,0,0,1-1.60059-.33594,17.52581,17.52581,0,0,1-2.07324,1.17773l-.08105-.1543a23.50775,23.50775,0,0,0,2.10938-1.85352l.6582-.15039A5.79356,5.79356,0,0,0,72.32913,62.6609Zm1.84473-3.24316a.4491.4491,0,0,1,.19629.36914,20.10712,20.10712,0,0,1-2.27051,1.76465L72,61.45875q1.11768-1.28174,1.73535-2.126A.611.611,0,0,1,74.17386,59.41774Z" style="fill:#42210b"/><path d="M85.55277,67.64528a11.21436,11.21436,0,0,1-4.36133,1.9082l-3.87793.88965.07813-.248.5-.208a.98709.98709,0,0,0,.27344-.14258.41292.41292,0,0,0,.11621-.19922l1.06445-3.39844-.77344.17676.1084-.34766.77344-.17676,1.1582-3.69727c.02832-.08984.02832-.14844.001-.17187a.36525.36525,0,0,0-.21875-.03125l-.43848.00879.07715-.248,3.87793-.88965q2.66016-.60937,3.748.05078,1.08691.66064.3418,3.043A7.17457,7.17457,0,0,1,85.55277,67.64528ZM81.9307,65.65309l-1.14258,3.64844.51953-.11914a4.7069,4.7069,0,0,0,1.73633-.73828,4.15534,4.15534,0,0,0,1.17773-1.3916,13.808,13.808,0,0,0,.97852-2.44629,10.20434,10.20434,0,0,0,.52051-2.3418c.02441-.5293-.11523-.87012-.41895-1.02734a2.37333,2.37333,0,0,0-1.50684.00586l-.51953.11914-1.23535,3.94336,1.73633-.39648-.10937.34766Z" style="fill:#42210b"/><path d="M88.57327,67.53981a1.03066,1.03066,0,0,0,.27344-.14258.42191.42191,0,0,0,.11523-.19922L91.293,59.75465c.02832-.0918.0293-.14844.002-.17187-.02832-.02637-.10059-.03516-.21973-.03223l-.4375.00879.07715-.248,7.80566-1.78906-.75781,2.418-.31641.07227a4.4739,4.4739,0,0,0-.12012-1.09961.6684.6684,0,0,0-.458-.4707,2.26582,2.26582,0,0,0-1.1123.05859l-1.79883.41309-1.1543,3.68457,3.26855-.75-.11719.373-3.26758.749-1.2168,3.88281,1.92578-.44141a3.91475,3.91475,0,0,0,1.248-.49316,3.58577,3.58577,0,0,0,.87988-.80078,13.12088,13.12088,0,0,0,.89941-1.3457l.3291-.07617-.77344,2.46875-7.9834,1.83008.07813-.248Zm6.13379-11.28516-.17871.15625a4.20028,4.20028,0,0,1-1.42969-.916,2.04139,2.04139,0,0,1,.47461-.52344,1.8183,1.8183,0,0,1,.56348-.31445A7.83556,7.83556,0,0,0,94.70706,56.25465Zm2.76074.64453-.19629.21875a5.67222,5.67222,0,0,1-1.60059-.33594,17.56566,17.56566,0,0,1-2.0752,1.17773l-.08105-.1543a23.1094,23.1094,0,0,0,2.10938-1.85352l.66016-.15137A5.78278,5.78278,0,0,0,97.46781,56.89918Z" style="fill:#42210b"/><path d="M32.8887,93.87965c-.02832.08984-.02832.14551.001.166a.403.403,0,0,0,.209.02637l.4248-.00488-.07715.248-4.10547.94141.07715-.248.501-.207a1.05111,1.05111,0,0,0,.27344-.14453.42.42,0,0,0,.11523-.19922l2.332-7.44336c.02832-.08984.02832-.14844,0-.17187a.36525.36525,0,0,0-.21875-.03125l-.43848.00977.07715-.248,4.10547-.94141-.07715.248-.4873.20313a.887.887,0,0,0-.25781.12793.43389.43389,0,0,0-.11523.2002l-1.08008,3.44922,3.32031-.76172,1.08008-3.44922c.0293-.08984.0293-.14844.002-.17383a.34034.34034,0,0,0-.21191-.01953l-.4248.00586.07813-.248,4.10547-.94141-.07812.248-.5.207a1.01567,1.01567,0,0,0-.27441.14453.42252.42252,0,0,0-.11523.19727l-2.33105,7.44336c-.0293.0918-.0293.15039-.001.17383a.36438.36438,0,0,0,.21973.0293l.4375-.00781-.07812.248-4.10547.94141.07813-.248.4873-.20508a1.13634,1.13634,0,0,0,.25879-.13281.39743.39743,0,0,0,.11426-.19336l1.14258-3.64648-3.32031.75977Z" style="fill:#42210b"/><path d="M47.74124,90.45192a7.7816,7.7816,0,0,1-3.17773,1.4541,3.50539,3.50539,0,0,1-2.68945-.11035q-.77344-.54639-.27344-2.14844A5.30776,5.30776,0,0,1,43.36624,87.032,7.78493,7.78493,0,0,1,46.545,85.57887a3.49984,3.49984,0,0,1,2.68848.10938q.7749.54639.27344,2.14844A5.30137,5.30137,0,0,1,47.74124,90.45192Zm-3.92969.2666a.96343.96343,0,0,0,.11523.78027c.12793.13867.373.168.7373.084a1.95436,1.95436,0,0,0,.90918-.46094,3.09865,3.09865,0,0,0,.6582-.957,13.7223,13.7223,0,0,0,.63965-1.72461,11.1642,11.1642,0,0,0,.4248-1.67578.96909.96909,0,0,0-.11426-.7793c-.12891-.13867-.376-.167-.73828-.084a1.93059,1.93059,0,0,0-.9082.46289,3.0887,3.0887,0,0,0-.65918.95508,13.85673,13.85673,0,0,0-.64062,1.72461A11.40627,11.40627,0,0,0,43.81156,90.71852ZM46.08206,83.45l-.17773.15625a4.17787,4.17787,0,0,1-1.43066-.91406,2.03554,2.03554,0,0,1,.47559-.52539,1.78208,1.78208,0,0,1,.56348-.31348A7.817,7.817,0,0,0,46.08206,83.45Zm2.76172.64551-.19824.21777a5.64585,5.64585,0,0,1-1.59961-.33594A17.33163,17.33163,0,0,1,44.97171,85.155l-.082-.15332A23.20318,23.20318,0,0,0,47.001,83.14918l.6582-.15234A5.79121,5.79121,0,0,0,48.84378,84.09547Z" style="fill:#42210b"/><path d="M62.6221,82.35426,61.96,84.01442l-.24023.05469a1.76324,1.76324,0,0,0-.27832-1.19727c-.19824-.22656-.57812-.27539-1.13574-.14844a2.64849,2.64849,0,0,0-1.50781.93359,5.86054,5.86054,0,0,0-.97461,1.96289,7.10446,7.10446,0,0,0-.35547,1.625.87339.87339,0,0,0,.29395.82422,1.45111,1.45111,0,0,0,1.11328.04883,4.90556,4.90556,0,0,0,1.1416-.416,8.13627,8.13627,0,0,0,1.13086-.71484l.08984.19727A9.6529,9.6529,0,0,1,59.67972,88.198a7.4273,7.4273,0,0,1-1.81152.6582,3.06641,3.06641,0,0,1-2.5293-.16992q-.74121-.57568-.23242-2.20312a5.14686,5.14686,0,0,1,1.7627-2.55078,8.24734,8.24734,0,0,1,3.31055-1.47852A4.96562,4.96562,0,0,1,62.6221,82.35426Z" style="fill:#42210b"/><path d="M70.544,85.43239a.38186.38186,0,0,0,.21875.03125l.41211-.00391-.07031.22461-2.63477.60352c-.22852.05273-.374.0332-.44043-.06055A.5923.5923,0,0,1,68.041,85.742l1.18164-3.77148a1.08056,1.08056,0,0,0,.06348-.751c-.07129-.13086-.25293-.16211-.53906-.0957a4.58567,4.58567,0,0,0-1.75391.97656l-1.33984,4.28125c-.0293.0918-.0293.15039-.00293.17773.02637.0293.09375.043.2041.03906l.4043-.01172-.07031.22461-4.00391.918.06934-.22461.47461-.19922a1.09971,1.09971,0,0,0,.27539-.14453.41942.41942,0,0,0,.11426-.19922l2.34766-7.49219c.02832-.0918.0293-.15039.001-.17383a.37446.37446,0,0,0-.2207-.0293l-.41211.002.06934-.22266,3.1582-1.07031.24121-.05469-1.18945,3.79688a8.97821,8.97821,0,0,1,1.37012-.91992,6.20186,6.20186,0,0,1,1.61719-.61719c.78613-.17969,1.29688-.14844,1.53418.09766q.35449.36621.05176,1.334L70.544,85.25954C70.51566,85.35133,70.51663,85.40895,70.544,85.43239Z" style="fill:#42210b"/><path d="M72.10062,85.24879l.47461-.20117a1.11869,1.11869,0,0,0,.27441-.14258.44313.44313,0,0,0,.11621-.2002l1.46875-4.68945q.041-.13477,0-.17285a.37242.37242,0,0,0-.21973-.0293l-.41211.002.06934-.22461,3.1582-1.06836.24121-.05469-1.77246,5.65625c-.02832.0918-.0293.14844-.001.17383a.39589.39589,0,0,0,.21973.03027l.41211-.00293-.07031.22363-4.0293.92285Zm6.334-9.10937a.8778.8778,0,0,1,.01465.5957,16.51525,16.51525,0,0,1-1.53809.79492c-.60937.2832-1.13574.50391-1.57812.667l-.02148-.12207.59082-.457c.09277-.0752.39648-.31445.9082-.7207.50977-.4043.93262-.76562,1.26563-1.07812A.52816.52816,0,0,1,78.4346,76.13942Z" style="fill:#42210b"/><path d="M87.24808,76.46364a6.06756,6.06756,0,0,1,1.49219-.55469q1.57178-.36035,1.71387.459a8.89927,8.89927,0,0,1,1.376-.91992,6.25861,6.25861,0,0,1,1.623-.62012q1.18066-.271,1.53516.09668t.05078,1.33594L93.89749,79.907c-.0293.0918-.0293.14941-.001.17383a.398.398,0,0,0,.21973.03027l.41211-.00293-.07031.22266-2.63477.60547q-.34277.07764-.44043-.06055c-.06543-.09375-.06055-.25391.01172-.48633l1.18164-3.77148a1.08335,1.08335,0,0,0,.06348-.752c-.07227-.12891-.25293-.16113-.54-.0957a4.56584,4.56584,0,0,0-1.62891.88086,3.03561,3.03561,0,0,1-.14551.68945l-1.14258,3.64648c-.02832.0918-.02734.15039,0,.17383a.395.395,0,0,0,.21973.03125l.41309-.00391-.07031.22363-2.63477.60449c-.22852.05273-.376.03223-.44043-.06055a.5857.5857,0,0,1,.01074-.48633L87.86234,77.698a1.0974,1.0974,0,0,0,.06445-.752c-.07324-.12891-.25391-.16016-.541-.0957a4.24492,4.24492,0,0,0-1.53613.81348l-1.37988,4.4043q-.04248.1377-.00293.17871c.02637.0293.09473.043.20508.03906l.40332-.01172-.07031.22461-4.00391.918.07031-.22461.47461-.19922a1.08879,1.08879,0,0,0,.27441-.14453.42871.42871,0,0,0,.11621-.19922l1.46875-4.68945c.02734-.08984.02734-.14844,0-.17383a.38771.38771,0,0,0-.21973-.0293l-.41211.002.06934-.22266,3.1582-1.06836.21582-.05078-.27246.86914A9.27416,9.27416,0,0,1,87.24808,76.46364Z" style="fill:#42210b"/><path d="M95.45316,79.89625l.47461-.2002a1.11841,1.11841,0,0,0,.27539-.14453.41942.41942,0,0,0,.11426-.19922l1.46875-4.68945c.0293-.08984.0293-.14844.002-.17383a.39382.39382,0,0,0-.2207-.0293l-.41211.00293.07031-.22363,3.15723-1.06836.24121-.05469-1.77148,5.65625c-.0293.0918-.0293.14844-.002.17383a.38971.38971,0,0,0,.21973.0293l.41211-.002-.06934.22266-4.0293.92383Zm3.26172-7.25879c-.18066-.123-.21777-.35547-.11133-.69531a1.73712,1.73712,0,0,1,.59668-.85547,2.54582,2.54582,0,0,1,1.03418-.48535,1.12621,1.12621,0,0,1,.86621.04883c.18164.124.21875.35645.11328.69434a1.74785,1.74785,0,0,1-.59863.85645,2.56525,2.56525,0,0,1-1.03418.48535A1.11788,1.11788,0,0,1,98.71488,72.63746Z" style="fill:#42210b"/><path d="M108.72269,76.68239a.38388.38388,0,0,0,.21973.03125l.41211-.00391-.07031.22461-2.63477.60352q-.34277.0791-.44043-.06055a.59353.59353,0,0,1,.01074-.48633l1.18164-3.77148a1.08549,1.08549,0,0,0,.06445-.752c-.07227-.12891-.25293-.16016-.54-.09473a4.59366,4.59366,0,0,0-1.75293.97754l-1.33984,4.2793c-.0293.0918-.03027.15234-.00391.17969.02637.0293.09473.043.20508.03906l.40332-.01172-.06934.22461-4.00391.917.06934-.22363.47461-.2002a1.11291,1.11291,0,0,0,.27441-.14355.417.417,0,0,0,.11523-.19922l1.46875-4.68945c.0293-.08984.0293-.14844.001-.17383a.38085.38085,0,0,0-.21973-.0293l-.41211.002.07031-.22363L105.36331,72.03l.21582-.05078-.31445,1.00391a9.27916,9.27916,0,0,1,1.38477-.92676,6.20637,6.20637,0,0,1,1.63086-.626q1.17773-.271,1.5332.0957.35449.36914.05273,1.33594l-1.14258,3.64648C108.69534,76.60036,108.69437,76.65895,108.72269,76.68239Z" style="fill:#42210b"/><path d="M118.542,74.43239a.39589.39589,0,0,0,.21973.03027l.41211-.00293-.06934.22266-2.63672.60547c-.22656.05078-.373.03125-.43945-.06055a.58985.58985,0,0,1,.01074-.48633l1.18164-3.77148a1.08549,1.08549,0,0,0,.06445-.752c-.07227-.12891-.25293-.16113-.54-.0957a4.61842,4.61842,0,0,0-1.75293.97852l-1.34082,4.2793c-.02832.0918-.0293.15039-.00293.17969.02637.02832.09473.041.20508.03906l.4043-.01172-.06934.22266-4.00586.918.07031-.22266.47461-.20117a1.111,1.111,0,0,0,.27539-.14258.43389.43389,0,0,0,.11523-.2002l2.3457-7.49219c.0293-.0918.03027-.14941.002-.17285a.36919.36919,0,0,0-.2207-.03125l-.41211.002.07031-.22266,3.15723-1.07031.24121-.05469-1.18945,3.79688a8.85389,8.85389,0,0,1,1.37012-.918,6.207,6.207,0,0,1,1.61719-.61914q1.17773-.26953,1.5332.09766.35449.36768.05273,1.33594l-1.1416,3.64648C118.51468,74.35036,118.51468,74.407,118.542,74.43239Z" style="fill:#42210b"/></g></g></svg>