<?xml version="1.0" encoding="UTF-8"?>
<svg viewBox="0 0 141 123" version="1.1" xmlns="http://www.w3.org/2000/svg" xmlns:xlink="http://www.w3.org/1999/xlink">
    <title>英文</title>
    <defs>
        <linearGradient x1="25.9615561%" y1="46.7304342%" x2="83.9698325%" y2="64.2630115%" id="linearGradient-1">
            <stop stop-color="#F8B400" offset="0.34%"></stop>
            <stop stop-color="#F9AD06" offset="33.765%"></stop>
            <stop stop-color="#FD9A16" offset="81.965%"></stop>
            <stop stop-color="#FF911E" offset="100%"></stop>
        </linearGradient>
        <linearGradient x1="-4.93873766%" y1="47.9791621%" x2="98.1373948%" y2="60.3972624%" id="linearGradient-2">
            <stop stop-color="#C28D00" offset="0.34%"></stop>
            <stop stop-color="#C18605" offset="36.606%"></stop>
            <stop stop-color="#BE7313" offset="88.899%"></stop>
            <stop stop-color="#BD6E17" offset="100%"></stop>
        </linearGradient>
        <linearGradient x1="-0.178112212%" y1="42.7219734%" x2="99.020397%" y2="53.018462%" id="linearGradient-3">
            <stop stop-color="#F8B400" offset="0.34%"></stop>
            <stop stop-color="#F9AD06" offset="33.765%"></stop>
            <stop stop-color="#FD9A16" offset="81.965%"></stop>
            <stop stop-color="#FF911E" offset="100%"></stop>
        </linearGradient>
        <radialGradient cx="56.6821041%" cy="45.2689003%" fx="56.6821041%" fy="45.2689003%" r="61.6216399%" gradientTransform="translate(0.566821,0.452689),scale(0.988161,1.000000),translate(-0.566821,-0.452689)" id="radialGradient-4">
            <stop stop-color="#EFFFFF" stop-opacity="0.2" offset="56.892%"></stop>
            <stop stop-color="#A6B1B1" stop-opacity="0.13888" offset="69.25%"></stop>
            <stop stop-color="#000000" stop-opacity="0" offset="100%"></stop>
        </radialGradient>
        <linearGradient x1="50.0000057%" y1="-9.04310303%" x2="50.0000057%" y2="95.8058881%" id="linearGradient-5">
            <stop stop-color="#FFFFFF" offset="0%"></stop>
            <stop stop-color="#FFFFFF" stop-opacity="0.77931" offset="16.806%"></stop>
            <stop stop-color="#FFFFFF" stop-opacity="0.50546" offset="39.556%"></stop>
            <stop stop-color="#FFFFFF" stop-opacity="0.28806" offset="60.083%"></stop>
            <stop stop-color="#FFFFFF" stop-opacity="0.13141" offset="77.631%"></stop>
            <stop stop-color="#FFFFFF" stop-opacity="0.03535" offset="91.51%"></stop>
            <stop stop-color="#FFFFFF" stop-opacity="0" offset="100%"></stop>
        </linearGradient>
        <linearGradient x1="0%" y1="50.0000302%" x2="100%" y2="50.0000302%" id="linearGradient-6">
            <stop stop-color="#F8D04C" offset="0.34%"></stop>
            <stop stop-color="#F9C948" offset="18.339%"></stop>
            <stop stop-color="#FAB63E" offset="44.353%"></stop>
            <stop stop-color="#FD972D" offset="75.08%"></stop>
            <stop stop-color="#FF781D" offset="100%"></stop>
        </linearGradient>
    </defs>
    <g id="问答推广" stroke="none" stroke-width="1" fill="none" fill-rule="evenodd">
        <g id="英文" fill-rule="nonzero">
            <path d="M116.3535,100.65308 C109.95752,103.106151 103.830787,106.210523 98.07,109.9172 C101.89207,102.4202 105.71418,95.1472 109.53587,88.20499 C111.808423,92.2297033 114.080967,96.3790667 116.3535,100.65308 Z" id="路径" fill="url(#linearGradient-1)"></path>
            <path d="M7.7655,59.05241 C11.97779,75.65462 16.18971,91.49414 20.40163,106.7162 C52.3852,119.20877 84.36954,96.07483 116.35351,100.65308 C114.080577,96.37164 111.80803,92.2222767 109.53587,88.20499 C75.61212,77.56685 41.68879,93.04125 7.7655,59.05241 Z" id="路径" fill="url(#linearGradient-2)"></path>
            <path d="M141.001,60.10581 C112.93094,32.7923 53.46807,20.98553 0,29.26659 C8.28471,31.8008 15.88723,38.13605 15.88723,38.13605 C15.88723,38.13605 14.32758,41.83965 10.91632,49.05199 C48.45832,40.85623 110.65838,61.54659 134.95815,84.16818 C136.972317,75.9829333 138.9866,67.9621433 141.001,60.10581 Z" id="路径" fill="url(#linearGradient-3)"></path>
            <path d="M127.09516,55.41676 C127.09516,33.5295436 113.910912,13.7973912 93.6898087,5.42140121 C73.468705,-2.95458881 50.1931255,1.67509724 34.7164677,17.1516378 C19.2398099,32.6281783 14.6099475,55.9037227 22.9857843,76.1248899 C31.3616211,96.346057 51.0936736,109.53062 72.98089,109.53062 C73.51952,109.53062 74.05533,109.5201 74.59032,109.50433 L80.70192,122.50923 L90.79132,106.527 C112.530148,98.9439368 127.094036,78.4402152 127.09516,55.41676 Z" id="路径" fill="#BF0013"></path>
            <g id="编组" transform="translate(17.000000, 0.000000)">
                <path d="M110.61519,67.42039 C74.4517673,73.5541252 37.5136127,73.5541252 1.35019,67.42039 C-0.39857347,59.510028 -0.39857347,51.313172 1.35019,43.40281 C37.5126713,37.2579059 74.4527087,37.2579059 110.61519,43.40281 C112.365089,51.3130479 112.365089,59.5101521 110.61519,67.42039 L110.61519,67.42039 Z" id="路径" fill="#003187"></path>
                <path d="M110.61519,43.4028 C74.4527087,37.2578959 37.5126713,37.2578959 1.35019,43.4028 C2.6374855,38.6159168 4.40802903,33.9722829 6.63452,29.5435 C39.11519,16.46241 72.85017,16.46241 105.31987,29.5435 C107.554669,33.9698544 109.32908,38.6139732 110.61519,43.4028 L110.61519,43.4028 Z" id="路径" fill="#FFFFFF"></path>
                <path d="M105.31987,29.5435 C72.85018,16.46241 39.1152,16.46241 6.63452,29.5435 C9.3015023,24.6844854 12.3587333,20.0501128 15.77606,15.68609 C27.26361,6.99565 40.3695,0.272 55.06079,0.00778 C70.42012,-0.26406 84.20086,6.61666 96.18571,15.68608 C99.6043963,20.0475615 102.65937,24.6822576 105.31987,29.5435 Z" id="路径" fill="#BF0013"></path>
                <path d="M105.31987,81.289 C72.85018,94.36062 39.1152,94.36062 6.63452,81.289 C4.40893666,76.8565925 2.63843812,72.2099762 1.35018,67.42042 C37.5136027,73.5541552 74.4517573,73.5541552 110.61518,67.42042 C109.328113,72.2119173 107.553755,76.8590172 105.31987,81.289 L105.31987,81.289 Z" id="路径" fill="#FFFFFF"></path>
                <path d="M96.18571,95.139 C84.20086,104.21769 70.42012,111.10561 55.06079,110.81919 C40.36951,110.55284 27.27554,103.83871 15.77607,95.139 C12.3555919,90.7798573 9.29817542,86.1476817 6.63453,81.289 C39.1152,94.36062 72.85018,94.36062 105.31988,81.289 C102.662712,86.1499032 99.6075475,90.7824016 96.18571,95.139 L96.18571,95.139 Z" id="路径" fill="#BF0013"></path>
            </g>
            <path d="M127.74372,55.4115 C127.74372,85.29666 103.22335,109.53062 72.96943,109.53062 C42.73292,109.53062 18.21804,85.29662 18.21804,55.4115 C18.21804,25.52823 42.73292,1.30166 72.96943,1.30166 C103.22335,1.30166 127.74372,25.52823 127.74372,55.4115 Z" id="路径" fill="url(#radialGradient-4)" opacity="0.8"></path>
            <path d="M115.81718,36.99174 C115.81718,55.25627 96.20861,70.09711 72.00437,70.09711 C47.80468,70.09711 28.19421,55.25628 28.19421,36.99174 C28.19421,18.71414 47.80467,3.8788 72.00437,3.8788 C96.20861,3.8788 115.81718,18.71415 115.81718,36.99174 Z" id="路径" fill="url(#linearGradient-5)"></path>
            <path d="M127.095225,55.41676 C127.095225,54.49276 127.07211,53.57484 127.02601,52.663 C99.54712,46.77334 67.9089,60.04192 50.55258,60.78071 C39.3451216,61.1072975 28.3733449,57.5234316 19.51969,50.644 L19.00611,51.5401 C18.91597,52.82033 18.8665936,54.11229 18.8665936,55.41678 C18.8622318,61.0386513 19.7347172,66.6268089 21.45261,71.97978 L71.23523,96.38013 C80.9081719,92.2227803 91.0623957,89.2895779 101.46223,87.6486 C106.342444,86.7468179 111.356544,86.8656473 116.18856,87.9976 C123.282988,78.6189734 127.113445,67.1764031 127.095225,55.41676 Z" id="路径" fill="#000000" opacity="0.14"></path>
            <path d="M7.74326,59.1252 C52.16278,87.7302 96.58148,31.50072 141.001,60.10581 C138.98686,67.9570233 136.972573,75.9778133 134.95814,84.16818 C96.77237,70.60648 58.58698,114.05268 20.40163,106.71618 C16.182,91.52081 11.96326,75.70555 7.74326,59.1252 Z" id="路径" fill="url(#linearGradient-6)"></path>
            <path d="M25.149,80 L25.149,76.01 L29.111,70.004 L27.277,70.004 L24.393,74.582 L21.509,70.004 L19.675,70.004 L23.637,76.01 L23.637,80 L25.149,80 Z M37.581,80 L37.581,78.698 L31.687,78.698 L31.687,75.52 L37.007,75.52 L37.007,74.218 L31.687,74.218 L31.687,71.306 L37.343,71.306 L37.343,70.004 L30.161,70.004 L30.161,80 L37.581,80 Z M46.555,80 L46.555,78.698 L40.661,78.698 L40.661,75.52 L45.981,75.52 L45.981,74.218 L40.661,74.218 L40.661,71.306 L46.317,71.306 L46.317,70.004 L39.135,70.004 L39.135,80 L46.555,80 Z M54.297,80 L54.297,76.542 L55.599,75.296 L59.659,80 L61.703,80 L56.635,74.302 L61.059,70.004 L59.127,70.004 L54.297,74.834 L54.297,70.004 L52.771,70.004 L52.771,80 L54.297,80 Z M70.103,80 L70.103,78.698 L64.209,78.698 L64.209,75.52 L69.529,75.52 L69.529,74.218 L64.209,74.218 L64.209,71.306 L69.865,71.306 L69.865,70.004 L62.683,70.004 L62.683,80 L70.103,80 Z M79.077,80 L79.077,78.698 L73.183,78.698 L73.183,75.52 L78.503,75.52 L78.503,74.218 L73.183,74.218 L73.183,71.306 L78.839,71.306 L78.839,70.004 L71.657,70.004 L71.657,80 L79.077,80 Z M92.307,80 L92.307,78.698 L86.805,78.698 L86.805,70.004 L85.293,70.004 L85.293,80 L92.307,80 Z M96.759,80.196 C97.851,80.196 98.733,79.818 99.405,79.09 C100.049,78.39 100.371,77.48 100.371,76.388 C100.371,75.282 100.035,74.372 99.391,73.658 C98.733,72.93 97.851,72.566 96.759,72.566 C95.667,72.566 94.785,72.93 94.127,73.658 C93.469,74.372 93.147,75.282 93.147,76.388 C93.147,77.48 93.469,78.39 94.113,79.09 C94.785,79.818 95.667,80.196 96.759,80.196 Z M96.759,78.978 C96.073,78.978 95.541,78.698 95.163,78.166 C94.827,77.704 94.673,77.116 94.673,76.388 C94.673,75.66 94.827,75.058 95.163,74.596 C95.541,74.05 96.073,73.784 96.759,73.784 C97.445,73.784 97.977,74.05 98.369,74.596 C98.705,75.058 98.873,75.66 98.873,76.388 C98.873,77.102 98.705,77.69 98.369,78.166 C97.977,78.698 97.445,78.978 96.759,78.978 Z M105.453,80 L105.453,78.768 L104.501,78.768 C104.319,78.768 104.193,78.712 104.109,78.628 C104.025,78.53 103.983,78.39 103.983,78.194 L103.983,73.994 L105.635,73.994 L105.635,72.762 L103.983,72.762 L103.983,70.424 L102.499,71.04 L102.499,72.762 L101.155,72.762 L101.155,73.994 L102.499,73.994 L102.499,78.194 C102.499,78.768 102.625,79.202 102.905,79.51 C103.185,79.832 103.647,80 104.263,80 L105.453,80 Z M110.493,80 L110.493,78.768 L109.541,78.768 C109.359,78.768 109.233,78.712 109.149,78.628 C109.065,78.53 109.023,78.39 109.023,78.194 L109.023,73.994 L110.675,73.994 L110.675,72.762 L109.023,72.762 L109.023,70.424 L107.539,71.04 L107.539,72.762 L106.195,72.762 L106.195,73.994 L107.539,73.994 L107.539,78.194 C107.539,78.768 107.665,79.202 107.945,79.51 C108.225,79.832 108.687,80 109.303,80 L110.493,80 Z M114.987,80.196 C115.953,80.196 116.751,79.916 117.381,79.37 C117.885,78.922 118.207,78.348 118.375,77.676 L116.891,77.676 C116.695,78.096 116.485,78.418 116.233,78.614 C115.911,78.852 115.491,78.978 114.973,78.978 C114.385,78.978 113.923,78.782 113.587,78.418 C113.251,78.04 113.069,77.494 113.013,76.794 L118.501,76.794 C118.487,75.506 118.193,74.498 117.633,73.77 C117.017,72.958 116.107,72.566 114.931,72.566 C113.867,72.566 113.013,72.93 112.397,73.672 C111.753,74.4 111.445,75.296 111.445,76.374 C111.445,77.564 111.781,78.502 112.453,79.202 C113.069,79.86 113.923,80.196 114.987,80.196 Z M116.947,75.674 L113.041,75.674 C113.125,75.058 113.335,74.596 113.643,74.274 C113.979,73.938 114.413,73.784 114.973,73.784 C116.149,73.784 116.807,74.414 116.947,75.674 Z M121.245,80 L121.245,76.164 C121.245,75.534 121.427,75.016 121.805,74.624 C122.155,74.26 122.561,74.078 123.009,74.078 C123.345,74.078 123.695,74.12 124.059,74.232 L124.059,72.748 C123.807,72.622 123.485,72.566 123.121,72.566 C122.673,72.566 122.281,72.692 121.945,72.972 C121.665,73.168 121.427,73.462 121.245,73.854 L121.245,72.762 L119.761,72.762 L119.761,80 L121.245,80 Z M127.391,82.772 L131.325,72.762 L129.701,72.762 L127.797,78.04 L125.809,72.762 L124.199,72.762 L127.069,79.832 L125.809,82.772 L127.391,82.772 Z" id="YEEKEELottery" fill="#000000" transform="translate(75.500000, 76.388000) rotate(-12.000000) translate(-75.500000, -76.388000) "></path>
        </g>
    </g>
</svg>