<svg xmlns="http://www.w3.org/2000/svg" xmlns:xlink="http://www.w3.org/1999/xlink" viewBox="0 0 141.001 121.20757"><defs><linearGradient id="linear-gradient" x1="101.0137" y1="97.04954" x2="115.9705" y2="100.85626" gradientUnits="userSpaceOnUse"><stop offset="0.0034" stop-color="#f8b400"/><stop offset="0.33765" stop-color="#f9ad06"/><stop offset="0.81965" stop-color="#fd9a16"/><stop offset="1" stop-color="#ff911e"/></linearGradient><linearGradient id="linear-gradient-2" x1="6.97298" y1="106.02826" x2="122.46822" y2="106.02826" gradientTransform="translate(21.79367 -25.65331) rotate(14.27665)" gradientUnits="userSpaceOnUse"><stop offset="0.0034" stop-color="#c28d00"/><stop offset="0.36606" stop-color="#c18605"/><stop offset="0.88899" stop-color="#be7313"/><stop offset="1" stop-color="#bd6e17"/></linearGradient><linearGradient id="linear-gradient-3" x1="-0.25114" y1="28.95169" x2="139.61975" y2="64.55079" xlink:href="#linear-gradient"/><linearGradient id="未命名漸層_29" x1="34.71634" y1="15.84992" x2="111.24375" y2="92.37733" gradientUnits="userSpaceOnUse"><stop offset="0" stop-color="#e62c14"/><stop offset="1" stop-color="#c72c14"/></linearGradient><linearGradient id="linear-gradient-4" x1="7.74326" y1="78.34385" x2="141.001" y2="78.34385" gradientUnits="userSpaceOnUse"><stop offset="0.0034" stop-color="#f8d04c"/><stop offset="0.27761" stop-color="#f9cc45"/><stop offset="0.67289" stop-color="#fcc232"/><stop offset="1" stop-color="#ffb71d"/></linearGradient><linearGradient id="linear-gradient-5" x1="3692.20205" y1="772.42482" x2="3693.7467" y2="822.07319" gradientTransform="matrix(-0.8962, 0.0688, 0.1005, 0.8893, 3300.57224, -949.45443)" gradientUnits="userSpaceOnUse"><stop offset="0" stop-color="#fff"/><stop offset="1" stop-color="#fff" stop-opacity="0"/></linearGradient></defs><title>日</title><g id="圖層_2" data-name="圖層 2"><g id="圖層_1-2" data-name="圖層 1"><path d="M116.3535,99.35143A99.9092,99.9092,0,0,0,98.07,108.61554c3.82207-7.497,7.64418-14.77,11.46587-21.71221Q112.9447,92.94041,116.3535,99.35143Z" style="fill:url(#linear-gradient)"/><path d="M7.7655,57.75075c4.21229,16.60221,8.42421,32.44173,12.63613,47.66379,31.98357,12.49257,63.96791-10.64137,95.95188-6.06312q-3.4094-6.42216-6.81764-12.44809C75.61212,76.2652,41.68879,91.73959,7.7655,57.75075Z" style="fill:url(#linear-gradient-2)"/><path d="M141.001,58.80416C112.93094,31.49065,53.46807,19.68387,0,27.96493c8.28471,2.53421,15.88723,8.86946,15.88723,8.86946s-1.55965,3.7036-4.97091,10.91594c37.542-8.19576,99.74206,12.4946,124.04183,35.11619Q137.9794,70.58866,141.001,58.80416Z" style="fill:url(#linear-gradient-3)"/><path d="M127.09516,54.1151A54.11427,54.11427,0,1,0,72.98089,108.229c.53863,0,1.07444-.01052,1.60943-.02629l6.1116,13.0049,10.08941-15.98226A54.13333,54.13333,0,0,0,127.09516,54.1151Z" style="fill:url(#未命名漸層_29)"/><path d="M127.09516,54.1151q0-1.386-.06915-2.75376c-27.47889-5.88966-59.11711,7.37892-76.47343,8.11771A48.28567,48.28567,0,0,1,19.51969,49.34232l-.51358.8961c-.09014,1.28023-.1395,2.57219-.1395,3.87668a54.06529,54.06529,0,0,0,2.586,16.563L71.23523,95.07848a126.4698,126.4698,0,0,1,30.227-8.73153,35.936,35.936,0,0,1,14.72633.349A53.86686,53.86686,0,0,0,127.09516,54.1151Z" style="opacity:0.14"/><path d="M7.74326,57.82355c44.41952,28.605,88.83822-27.62448,133.25774.98061q-3.02121,11.77682-6.04286,24.06237C96.77237,69.30482,58.587,112.751,20.40162,105.41455,16.182,90.21915,11.96326,74.40389,7.74326,57.82355Z" style="fill:url(#linear-gradient-4)"/><polygon points="71.695 12.193 76.368 26.563 91.484 26.563 79.258 35.449 83.926 49.829 71.695 40.943 59.469 49.829 64.142 35.449 51.911 26.563 67.027 26.563 71.695 12.193" style="fill:gold"/><path d="M32.7531,40.37965C34.813,58.6115,54.49353,72.01008,76.711,70.30647c22.21745-1.70756,38.55831-17.86876,36.49773-36.09975C111.1491,15.9743,91.46639,2.57709,69.24859,4.28213,47.03223,5.98632,30.692,22.14866,32.7531,40.37965Z" style="fill:url(#linear-gradient-5)"/><path d="M25.87454,93.075,25.90286,92.03a35.21506,35.21506,0,0,0,6.38281-2.24121,3.27066,3.27066,0,0,1-1.49316-.9541,20.27772,20.27772,0,0,1-3.7373,1.998l-.15332-.84766a14.80915,14.80915,0,0,0,5.11035-3.14453c-.54492.0918-.74414-.10547-.5918-.58984l.5957-1.90137,1.0332-.2373q.57715-.13184-.041.32227l-.333,1.0625q-.12158.38965.3291.28711l3.0293-.69531a.409.409,0,0,0,.32617-.28125l.291-.74219,1.02539-.02734-.3418.90918a1.702,1.702,0,0,1-1.32617.97754L33.36575,86.53a5.87472,5.87472,0,0,1-.78711.80469l4.63867-1.0625.30957-.22754.82129.43457-.457.3125A27.78381,27.78381,0,0,1,34.688,89.18629a18.95889,18.95889,0,0,0,5.39746-.61426l-.96582,1.36426a15.83231,15.83231,0,0,1-5.91309.16016A39.79924,39.79924,0,0,1,25.87454,93.075Zm14.251-9.59766.45605-1.45508L29.17533,84.63746l-.50781,1.62109-1.28906.2959.78809-2.5166,9.15039-2.09766a16.84329,16.84329,0,0,0,1.85547-2.293l1.084.166q.57422.07617-.252.42188c-.43164.48047-.874.94434-1.334,1.39453l3.48047-.79687-.73633,2.34863Zm-9.01562,1.8584q.23438.20654-.36426.39355a20.82258,20.82258,0,0,1-1.832,2.0293l-.83691-.37793a15.01046,15.01046,0,0,0,2.07617-2.24121Zm-1.19531-3.25684-.08691-.86133q6.189-1.626,10.98926-3.19336l.50879.66211q.2666.30176-.51953.32617Q34.47806,80.88014,29.91458,82.07887Zm1.50977,1.10938a2.0498,2.0498,0,0,0-.58789-.80078l1.47656-.70117a2.92042,2.92042,0,0,1,.65039.78516Zm4.67383,4.16992-4.252.97461a3.12539,3.12539,0,0,0,1.74219.74219A23.84506,23.84506,0,0,0,36.09818,87.35817Zm-1.749-2.24609a2.30881,2.30881,0,0,0-.5166-1.02344l1.21777-.64258a3.26429,3.26429,0,0,1,.68066.88184Zm.57324-2.77832a2.55774,2.55774,0,0,0-.59961-.95215l1.459-.64648a2.6632,2.6632,0,0,1,.67871.88281Zm4.23242,2.71582a4.622,4.622,0,0,0-1.291-1.418l1.14258-.78027a6.09,6.09,0,0,1,1.502,1.31738Z" style="fill:#42210b"/><path d="M46.02591,77.24586l13.27539-3.042-3.748,11.96484-1.28906.2959.1582-.50293L43.72513,88.41286l-.22754.72656-1.28906.2959Zm11.6543-1.68457L46.98294,78.01246l-2.9248,9.33789L54.7554,84.89918Zm-3.18164,5.19336-3.09375.709-.68359,2.17969,3.93164-.90039-.332,1.0625-9.08789,2.082.332-1.0625,3.86719-.88574.68359-2.18066-2.89844.66406.332-1.0625,2.89844-.66406L50.9556,79.074l-3.47852.79688.333-1.06152,8.377-1.91992-.333,1.06152-3.60937.82715-.50781,1.623,3.09375-.709Zm-1.77539.50977a5.4352,5.4352,0,0,1,1.21.916l-1.06738.91992a3.55851,3.55851,0,0,0-1.127-.98828Z" style="fill:#42210b"/><path d="M63.58548,75.03786q.71924-1.15137,1.47949-2.623l1.38867.14941c.123.10938.0293.21875-.28027.32324A15.23625,15.23625,0,0,1,64.939,74.72829l2.38477-.54687L64.43411,83.407l-1.28906.29492.21-.66992-2.83594.64941-.35059,1.11816-1.28906.29492,3.03027-9.67187Zm1.0127,4.02344-2.83594.65039-.91016,2.90723L63.688,81.9695Zm1.10352-3.52148-2.83594.64941-.77051,2.46,2.83594-.65039Zm4.38086-1.00391a19.24964,19.24964,0,0,1-2.99023,3.43457L66.44,77.18629a17.57575,17.57575,0,0,0,4.4707-6.05859l1.23047.08105c.33984.05957.28125.17676-.16895.34961q-.43945.82764-1.041,1.7959l4.63867-1.0625L72.86771,79.9695a3.75994,3.75994,0,0,1-2.76367,2.709l-1.80469.41406L68.441,82.073l1.67383-.38281A1.77787,1.77787,0,0,0,71.397,80.46168l2.42383-6.7832ZM69.229,79.55739A5.80153,5.80153,0,0,0,67.8599,78.0027L69.272,76.74489a5.41913,5.41913,0,0,1,1.44824,1.48438Z" style="fill:#42210b"/><path d="M77.37161,73.22731l.1748-1.12988q1.61133-.36914,3.25781-.85059.63428-1.08105,1.61426-2.86133l1.05469.07031c.38086.05078.334.20117-.14062.44727L82.191,70.825a24.24789,24.24789,0,0,0,2.37793-.9082L84.524,71.01832a31.95048,31.95048,0,0,1-3.08789,1.06934,73.30912,73.30912,0,0,1-4.9707,6.90137l-1.11426-.26367a58.09283,58.09283,0,0,0,4.63379-6.20117C79.272,72.75758,78.40286,72.991,77.37161,73.22731Zm9.08984-.94141q.6709-.0498-.01367.418L85.43216,75.948a15.12717,15.12717,0,0,1,2.9668.46191l-1.10645,1.23926a8.86444,8.86444,0,0,0-2.24512-.4707,5.5754,5.5754,0,0,1-1.38086,1.9248,5.35114,5.35114,0,0,1-2.33789,1.1582q-1.80469.41455-2.31836-.04a1.1542,1.1542,0,0,1-.19141-1.30566,3.26592,3.26592,0,0,1,1.04883-1.43457,6.12,6.12,0,0,1,2.67578-1.28711,7.04865,7.04865,0,0,1,1.6875-.23047l1.06836-3.41211Zm-4.2334,4.915a3.54075,3.54075,0,0,0-1.52051.65918,1.67868,1.67868,0,0,0-.53516.74609c-.082.26172-.06055.44727.06738.55469.18555.166.60254.17383,1.249.02637a3.22075,3.22075,0,0,0,1.39355-.63184,3.28946,3.28946,0,0,0,1.0166-1.5293A5.92579,5.92579,0,0,0,82.22806,77.20094Zm4.46777-7.77148q1.64795.08936,3.89844.35254L89.647,71.08961a30.29268,30.29268,0,0,0-3.81641-.42383Z" style="fill:#42210b"/><path d="M90.27982,77.84645l.333-1.0625,5.92773-1.3584.82324-2.62793-4.123.94531.332-1.0625,4.123-.94531.61328-1.957-4.1875.959.333-1.0625,9.79492-2.24414-.333,1.0625-4.31836.99023-.61328,1.957,4.38281-1.00488-.332,1.0625L98.65286,72.5027l-.82324,2.627,6.1875-1.418-.333,1.0625Zm2.46387-7.6748.876-2.7959,5.80078-1.33008.49023-1.56445,1.418-.3252q.60938-.03516-.07617.43262l-.34961,1.11816,5.99219-1.374-.84082,2.68359-1.28906.2959.50781-1.62109L94.57572,68.14332l-.543,1.73242Zm7.74512,2.01465a3.90116,3.90116,0,0,1,1.47852,1.00977l-1.39551,1.20215a5.62674,5.62674,0,0,0-1.41406-1.02637Z" style="fill:#42210b"/><path d="M109.14505,67.08668a71.03642,71.03642,0,0,0,7.02344-6.38477l.91309.51758q.40723.42627-.46.52148-1.35352,1.4502-6.52832,5.752a1.23809,1.23809,0,0,0-.37891.4502q-.104.33545.09863.44434a17.70869,17.70869,0,0,1,4.34766,3.31152l-1.47656,1.27246A20.76035,20.76035,0,0,0,108.6304,69.489c-.49121-.33594-.68066-.69238-.56348-1.06445A3.10612,3.10612,0,0,1,109.14505,67.08668Z" style="fill:#42210b"/><path d="M127.70658,66.82887a15.7834,15.7834,0,0,1-6.81543,4.002q-2.32031.53174-3.11816-.168-.61084-.5332.03809-2.60352l2.34668-7.49316,1.35352-.30957c.3623-.0127.35938.125-.01074.418l-2.207,7.04492q-.438,1.39746-.01562,1.76953.51563.45117,1.93457.126,2.51074-.57568,5.86035-3.626Zm-.88379-5.76562-.875.875q-1.05762-.43066-2.07422-.82227l.873-.875Q125.82474,60.61745,126.82279,61.06325Zm1.67383-1.52539-.874.875q-1.10889-.47168-2.07422-.82227l.87207-.875Q127.48245,59.14772,128.49661,59.53786Z" style="fill:#42210b"/></g></g></svg>