<svg xmlns="http://www.w3.org/2000/svg" xmlns:xlink="http://www.w3.org/1999/xlink" viewBox="0 0 141.001 122.50923"><defs><linearGradient id="linear-gradient" x1="101.0137" y1="98.3512" x2="115.9705" y2="102.15791" gradientUnits="userSpaceOnUse"><stop offset="0.0034" stop-color="#f8b400"/><stop offset="0.33765" stop-color="#f9ad06"/><stop offset="0.81965" stop-color="#fd9a16"/><stop offset="1" stop-color="#ff911e"/></linearGradient><linearGradient id="linear-gradient-2" x1="-82.58472" y1="110.16903" x2="32.91052" y2="110.16903" gradientTransform="translate(109.60515 -6.27955) rotate(14.27665)" gradientUnits="userSpaceOnUse"><stop offset="0.0034" stop-color="#c28d00"/><stop offset="0.36606" stop-color="#c18605"/><stop offset="0.88899" stop-color="#be7313"/><stop offset="1" stop-color="#bd6e17"/></linearGradient><linearGradient id="linear-gradient-3" x1="-0.25114" y1="30.25335" x2="139.61975" y2="65.85244" xlink:href="#linear-gradient"/><clipPath id="clip-path"><path d="M127.74372,55.4115c0,29.88516-24.52037,54.11912-54.77429,54.11912-30.23651,0-54.75139-24.234-54.75139-54.11912,0-29.88327,24.51488-54.10984,54.75139-54.10984C103.22335,1.30166,127.74372,25.52823,127.74372,55.4115Z" style="fill:none"/></clipPath><radialGradient id="未命名漸層_18" cx="80.2995" cy="50.29572" fx="49.936441867884554" fy="32.24608410877535" r="66.69246" gradientUnits="userSpaceOnUse"><stop offset="0.56892" stop-color="#efffff" stop-opacity="0.2"/><stop offset="0.6925" stop-color="#a6b1b1" stop-opacity="0.13888"/><stop offset="1" stop-opacity="0"/></radialGradient><linearGradient id="未命名漸層_11" x1="72.0057" y1="-2.10939" x2="72.0057" y2="67.31984" gradientUnits="userSpaceOnUse"><stop offset="0" stop-color="#fff"/><stop offset="0.16806" stop-color="#fff" stop-opacity="0.77931"/><stop offset="0.39556" stop-color="#fff" stop-opacity="0.50546"/><stop offset="0.60083" stop-color="#fff" stop-opacity="0.28806"/><stop offset="0.77631" stop-color="#fff" stop-opacity="0.13141"/><stop offset="0.9151" stop-color="#fff" stop-opacity="0.03535"/><stop offset="1" stop-color="#fff" stop-opacity="0"/></linearGradient><linearGradient id="未命名漸層_7" x1="7.74326" y1="79.64551" x2="141.001" y2="79.64551" gradientUnits="userSpaceOnUse"><stop offset="0.0034" stop-color="#f8d04c"/><stop offset="0.18339" stop-color="#f9c948"/><stop offset="0.44353" stop-color="#fab63e"/><stop offset="0.7508" stop-color="#fd972d"/><stop offset="1" stop-color="#ff781d"/></linearGradient></defs><title>泰国5分彩-日</title><g id="圖層_2" data-name="圖層 2"><g id="圖層_1-2" data-name="圖層 1"><path d="M116.3535,100.65308A99.9092,99.9092,0,0,0,98.07,109.9172c3.82207-7.497,7.64418-14.77,11.46587-21.71221Q112.9447,94.24206,116.3535,100.65308Z" style="fill:url(#linear-gradient)"/><path d="M7.7655,59.05241c4.21229,16.60221,8.42421,32.44173,12.63613,47.66379,31.98357,12.49257,63.96791-10.64137,95.95188-6.06312q-3.4094-6.42216-6.81764-12.44809C75.61212,77.56685,41.68879,93.04125,7.7655,59.05241Z" style="fill:url(#linear-gradient-2)"/><path d="M141.001,60.10581C112.93094,32.7923,53.46807,20.98553,0,29.26659c8.28471,2.53421,15.88723,8.86946,15.88723,8.86946s-1.55965,3.7036-4.97091,10.91594c37.542-8.19576,99.74206,12.4946,124.04183,35.11619Q137.9794,71.89031,141.001,60.10581Z" style="fill:url(#linear-gradient-3)"/><path d="M127.09516,55.41676a54.11427,54.11427,0,1,0-54.11427,54.11386c.53863,0,1.07444-.01052,1.60943-.02629l6.1116,13.0049L90.79132,106.527A54.13333,54.13333,0,0,0,127.09516,55.41676Z" style="fill:#bf0013"/><g style="clip-path:url(#clip-path)"><path d="M127.61519,67.42039a326.7039,326.7039,0,0,1-109.265,0,55.63217,55.63217,0,0,1,0-24.01758,326.11846,326.11846,0,0,1,109.265,0A55.59691,55.59691,0,0,1,127.61519,67.42039Z" style="fill:#003187"/><path d="M127.61519,43.4028a326.11846,326.11846,0,0,0-109.265,0A73.1476,73.1476,0,0,1,23.63452,29.5435c32.48067-13.08109,66.21565-13.08109,98.68535,0A72.43851,72.43851,0,0,1,127.61519,43.4028Z" style="fill:#fff"/><path d="M122.31987,29.5435c-32.46969-13.08109-66.20467-13.08109-98.68535,0a102.3651,102.3651,0,0,1,9.14154-13.85741C44.26361,6.99565,57.3695.272,72.06079.00778c15.35933-.27184,29.14007,6.60888,41.12492,15.6783A101.28515,101.28515,0,0,1,122.31987,29.5435Z" style="fill:#bf0013"/><path d="M122.31987,81.289c-32.46969,13.07162-66.20467,13.07162-98.68535,0a73.38452,73.38452,0,0,1-5.28434-13.86858,326.7039,326.7039,0,0,0,109.265,0A72.67172,72.67172,0,0,1,122.31987,81.289Z" style="fill:#fff"/><path d="M113.18571,95.139c-11.98485,9.07869-25.76559,15.96661-41.12492,15.68019-14.69128-.26635-27.78525-6.98048-39.28472-15.68019a101.39856,101.39856,0,0,1-9.14154-13.85c32.48067,13.07162,66.21565,13.07162,98.68535,0A100.33833,100.33833,0,0,1,113.18571,95.139Z" style="fill:#bf0013"/></g><path d="M127.74372,55.4115c0,29.88516-24.52037,54.11912-54.77429,54.11912-30.23651,0-54.75139-24.234-54.75139-54.11912,0-29.88327,24.51488-54.10984,54.75139-54.10984C103.22335,1.30166,127.74372,25.52823,127.74372,55.4115Z" style="opacity:0.8;fill:url(#未命名漸層_18)"/><path d="M115.81718,36.99174c0,18.26453-19.60857,33.10537-43.81281,33.10537-24.19969,0-43.81016-14.84083-43.81016-33.10537,0-18.2776,19.61046-33.11294,43.81016-33.11294C96.20861,3.8788,115.81718,18.71415,115.81718,36.99174Z" style="fill:url(#未命名漸層_11)"/><path d="M127.09516,55.41676q0-1.386-.06915-2.75376c-27.47889-5.88966-59.11711,7.37892-76.47343,8.11771A48.28567,48.28567,0,0,1,19.51969,50.644l-.51358.8961c-.09014,1.28023-.1395,2.57219-.1395,3.87668a54.06529,54.06529,0,0,0,2.586,16.563L71.23523,96.38013a126.4698,126.4698,0,0,1,30.227-8.73153,35.936,35.936,0,0,1,14.72633.349A53.86686,53.86686,0,0,0,127.09516,55.41676Z" style="opacity:0.14"/><path d="M7.74326,59.1252c44.41952,28.605,88.83822-27.62448,133.25774.98061q-3.02121,11.77682-6.04286,24.06237c-38.18577-13.5617-76.37116,29.8845-114.55651,22.548C16.182,91.52081,11.96326,75.70555,7.74326,59.1252Z" style="fill:url(#未命名漸層_7)"/><path d="M40.13775,92.53194l-.85254-.89551a25.499,25.499,0,0,0,5.1377-6.13281A5.29973,5.29973,0,0,0,43.05669,83.905l1.17285-1.626a8.31093,8.31093,0,0,1,1.28125,1.34082,23.20978,23.20978,0,0,0,1.834-4.23437l-2.73047.70508A43.85076,43.85076,0,0,1,41.2022,85.4294l-1.02344-.57129a46.7533,46.7533,0,0,0,5.37207-9.46875l1.3877.12988c.29688.0625.23438.19629-.19043.39746q-.41016.873-1.2373,2.41016l3.07227-.793.38281-.23828.57617.75586-.27637.41992a38.03447,38.03447,0,0,1-2.85742,6.17188l.51465.98145-1.28125,1.72461-.40723-.80176A34.408,34.408,0,0,1,40.13775,92.53194Z" style="fill:#42210b"/><path d="M50.6563,83.33858a50.21473,50.21473,0,0,0,9.57715-11.18066l1.08691.90332c.15723.19336.03613.33887-.3623.44141A49.89349,49.89349,0,0,1,57.503,78.156L54.584,88.45381l-1.707.44141,2.32227-8.19336A49.86613,49.86613,0,0,1,51.0606,84.696Z" style="fill:#42210b"/><path d="M67.1524,82.07491l-4.43945,1.14648-.3623,1.27734-1.707.44141,3.34473-11.80078L71.84185,71.112l-3.23828,11.4248-1.707.44043Zm.46875-1.65332,2.04492-7.21582-4.43945,1.14648-2.04492,7.21484Z" style="fill:#42210b"/><path d="M79.93169,76.6169a7.52491,7.52491,0,0,0-2.75391-1.72656L74.961,82.70674l-1.70508.44043L77.5606,67.96456l1.70508-.44043q.49072-.05566-.10645.376L77.7315,72.93526a8.54681,8.54681,0,0,1,3.501,1.88379Z" style="fill:#42210b"/><path d="M85.13873,77.50264a1.503,1.503,0,0,0,1.32324.07617,3.98277,3.98277,0,0,0,1.62207-.97656,6.81992,6.81992,0,0,0,1.875-3.26953q.55371-1.9541-.084-2.48633a1.15207,1.15207,0,0,0-1.06836-.14258,5.601,5.601,0,0,0-2.92383,2.2168l-1.707.44141,2.792-8.1748,7.3418-1.89551-.40527,1.42773L88.1856,66.196,86.459,71.17061a6.89416,6.89416,0,0,1,3.13672-1.85352,2.14843,2.14843,0,0,1,1.98438.252q1.02246.85254.34375,3.25684a9.28625,9.28625,0,0,1-2.75,4.40137A7.55608,7.55608,0,0,1,85.97076,79.03a2.87674,2.87674,0,0,1-2.55859-.17578q-.96387-.79687-.45117-2.87988l1.96484-.50684Q84.49957,76.97334,85.13873,77.50264Z" style="fill:#42210b"/><path d="M110.72076,65.3962l-2.06641,6.1748q-1.06787,3.20215-3.36914,3.79688l-2.56055.66113.21094-1.58691,2.13477-.55078a2.23679,2.23679,0,0,0,1.55762-1.58789l1.72461-4.97266-4.69336,1.21094-.25488.623q-1.77246,4.29053-8.89551,9.333l-.877-1.09863q6.33691-4.21,7.80859-7.44824l.42578-.94629-3.24219.83789.40527-1.42773ZM96.127,70.27706l-.96191-1.0752a35.8328,35.8328,0,0,0,8.46973-8.66406l1.36328.4834q.43066.16846-.27637.41992A45.6962,45.6962,0,0,1,96.127,70.27706Zm17.15625-4.42871q-4.01367-1.19092-4.67676-6.10645l1.792-1.02051a5.79591,5.79591,0,0,0,4.61133,5.21875Z" style="fill:#42210b"/></g></g></svg>