<svg id="圖層_1" data-name="圖層 1" xmlns="http://www.w3.org/2000/svg" xmlns:xlink="http://www.w3.org/1999/xlink" viewBox="0 0 141 121"><defs><linearGradient id="linear-gradient" x1="101.01298" y1="96.96638" x2="115.96968" y2="100.77307" gradientUnits="userSpaceOnUse"><stop offset="0.0034" stop-color="#f8b400"/><stop offset="0.33765" stop-color="#f9ad06"/><stop offset="0.81965" stop-color="#fd9a16"/><stop offset="1" stop-color="#ff911e"/></linearGradient><linearGradient id="linear-gradient-2" x1="-192.80695" y1="196.10446" x2="-77.31253" y2="196.10446" gradientTransform="translate(237.61317 -63.76345) rotate(14.27665)" gradientUnits="userSpaceOnUse"><stop offset="0.0034" stop-color="#c28d00"/><stop offset="0.36606" stop-color="#c18605"/><stop offset="0.88899" stop-color="#be7313"/><stop offset="1" stop-color="#bd6e17"/></linearGradient><linearGradient id="linear-gradient-3" x1="-0.25114" y1="28.86902" x2="139.61876" y2="64.46786" xlink:href="#linear-gradient"/><clipPath id="clip-path"><circle cx="72.98037" cy="54.0319" r="54.15614" style="fill:none"/></clipPath><linearGradient id="未命名漸層_34" x1="34.68619" y1="15.73772" x2="111.27454" y2="92.32607" gradientUnits="userSpaceOnUse"><stop offset="0.0034" stop-color="#fff" stop-opacity="0"/><stop offset="1" stop-opacity="0.4"/></linearGradient><linearGradient id="linear-gradient-4" x1="7.74321" y1="78.26083" x2="141" y2="78.26083" gradientUnits="userSpaceOnUse"><stop offset="0.0034" stop-color="#f8d04c"/><stop offset="0.27761" stop-color="#f9cc45"/><stop offset="0.67289" stop-color="#fcc232"/><stop offset="1" stop-color="#ffb71d"/></linearGradient><linearGradient id="linear-gradient-5" x1="4134.72654" y1="653.28868" x2="4136.27118" y2="702.9367" gradientTransform="matrix(-0.8962, 0.0688, 0.1005, 0.8893, 3709.13538, -874.07653)" gradientUnits="userSpaceOnUse"><stop offset="0" stop-color="#fff"/><stop offset="1" stop-color="#fff" stop-opacity="0"/></linearGradient></defs><title>馬來西亞-中</title><path d="M116.35268,99.26825a99.90848,99.90848,0,0,0-18.28338,9.264c3.822-7.497,7.64413-14.76987,11.46579-21.71206Q112.9439,92.85728,116.35268,99.26825Z" style="fill:url(#linear-gradient)"/><path d="M7.76544,57.66788c4.21226,16.60209,8.42415,32.4415,12.636,47.66345,31.98334,12.49248,63.96745-10.64129,95.9512-6.06307q-3.40938-6.42212-6.81759-12.448C75.61158,76.18219,41.68849,91.65647,7.76544,57.66788Z" style="fill:url(#linear-gradient-2)"/><path d="M141,58.72127c-28.06987-27.31332-87.53231-39.12-141-30.839,8.28465,2.5342,15.88711,8.8694,15.88711,8.8694s-1.55964,3.70357-4.97088,10.91586C48.458,39.47182,110.65759,60.162,134.95718,82.78347Q137.97842,70.50569,141,58.72127Z" style="fill:url(#linear-gradient-3)"/><path d="M127.09426,54.03225a54.11389,54.11389,0,1,0-54.11389,54.11348c.53863,0,1.07444-.01052,1.60942-.02629l6.11156,13.00481L90.79067,105.1421A54.13294,54.13294,0,0,0,127.09426,54.03225Z" style="fill:#9d1333"/><g style="clip-path:url(#clip-path)"><rect x="17.53368" y="-0.12424" width="210.23753" height="8.75992" style="fill:#d80031"/><rect x="17.53368" y="8.63568" width="210.23753" height="8.75979" style="fill:#fff"/><rect x="17.53368" y="17.39547" width="210.23753" height="8.75928" style="fill:#d80031"/><rect x="17.53368" y="26.15475" width="210.23753" height="8.76664" style="fill:#fff"/><rect x="17.53368" y="34.92139" width="210.23753" height="8.75295" style="fill:#d80031"/><rect x="17.53368" y="43.67434" width="210.23753" height="8.76613" style="fill:#fff"/><rect x="17.53368" y="52.44047" width="210.23753" height="8.75295" style="fill:#d80031"/><rect x="17.53368" y="61.19341" width="210.23753" height="8.76613" style="fill:#fff"/><rect x="17.53368" y="69.95954" width="210.23753" height="8.75358" style="fill:#d80031"/><rect x="17.53368" y="78.71312" width="210.23753" height="8.76613" style="fill:#fff"/><rect x="17.53368" y="87.47925" width="210.23753" height="8.76043" style="fill:#d80031"/><rect x="17.53368" y="96.23968" width="210.23753" height="8.75865" style="fill:#fff"/><rect x="17.53368" y="104.99833" width="210.23753" height="8.76043" style="fill:#d80031"/><rect x="17.53368" y="113.75875" width="210.23753" height="8.75979" style="fill:#fff"/><rect x="17.53368" y="-0.12424" width="64.65558" height="52.56471" style="fill:#2530a9"/><path d="M36.9252,30.026a12.72149,12.72149,0,0,1,19.38-10.84807,14.54047,14.54047,0,1,0,0,21.69228A12.72622,12.72622,0,0,1,36.9252,30.026" style="fill:#f5d028"/><polygon points="66.014 30.026 72.98 27.327 65.533 27.921 70.641 22.467 64.186 26.231 66.422 19.105 62.244 25.298 61.164 17.905 60.391 23.2 60.171 24.727 60.086 25.298 55.906 19.105 58.143 26.231 51.691 22.467 56.797 27.921 49.35 27.327 56.319 30.026 49.35 32.721 56.797 32.128 51.691 37.581 58.143 33.813 55.906 40.943 60.086 34.75 60.171 35.321 60.391 36.848 61.164 42.143 62.244 34.75 66.422 40.943 64.186 33.813 70.641 37.581 65.533 32.128 72.98 32.721 66.014 30.026" style="fill:#f5d028"/><rect x="17.53368" y="-0.12424" width="210.23753" height="122.64279" style="fill:none"/><rect x="17.53368" y="-0.12424" width="210.23753" height="122.64279" style="fill:none"/></g><circle cx="72.98037" cy="54.0319" r="54.15614" style="fill:url(#未命名漸層_34)"/><path d="M127.09426,54.03225q0-1.386-.06915-2.75374c-27.4787-5.88962-59.11669,7.37887-76.47289,8.11765A48.28533,48.28533,0,0,1,19.51955,49.2595l-.51357.89609c-.09014,1.28022-.1395,2.57217-.1395,3.87666a54.0649,54.0649,0,0,0,2.586,16.56284L71.23473,94.99533a126.4689,126.4689,0,0,1,30.22676-8.73147,35.93571,35.93571,0,0,1,14.72622.349A53.86648,53.86648,0,0,0,127.09426,54.03225Z" style="opacity:0.14"/><path d="M7.74321,57.74067C52.16242,86.34552,96.58079,30.11638,141,58.72127q-3.02119,11.77674-6.04282,24.0622c-38.1855-13.56161-76.37062,29.88428-114.5557,22.54786C16.18189,90.136,11.96317,74.3209,7.74321,57.74067Z" style="fill:url(#linear-gradient-4)"/><path d="M35.033,78.3476l.76514,4.58545,7.0415-1.85986-.92773-5.59033-9.86426,2.60547-.30957-1.16992,11.27686-2.97852,1.10791,6.79443,3.03174-.80078q.85913,3.77124,1.228,5.81836.52148,2.55615-2.20557,3.27686-1.65234.43652-3.14062.77734c-.15527-.36914-.35205-.81055-.58936-1.31934q1.88232-.34351,3.24609-.70312a1.53782,1.53782,0,0,0,1.31152-1.92432q-.28857-1.67432-.91992-4.39014L34.6629,84.48579l-.94531-5.791Zm-2.00049,9.125L45.0794,84.29047l.30957,1.17188L33.3421,88.64448Z" style="fill:#42210b"/><path d="M66.76543,81.20551c-.23437.5415-.42676,1.02832-.57617,1.45605a17.63685,17.63685,0,0,1-7.79053-3.11523l1.62061,6.13574-1.21875.32178-1.644-6.22461a24.87238,24.87238,0,0,1-5.19287,6.8457q-.46436-.39111-1.15869-.87744A28.47322,28.47322,0,0,0,56.52667,79.02l-6.7373,1.7793-.29639-1.123L56.63165,77.791,55.5169,73.57124,49.325,75.20649l-.29687-1.12207,6.19238-1.63525-.61035-2.30957,1.21875-.32178.61035,2.30957,6.32031-1.66992.29639,1.12207-6.32031,1.66992,1.11475,4.21973,7.1543-1.89014.29688,1.123-6.82568,1.80322A17.99425,17.99425,0,0,0,66.76543,81.20551Zm-15.7583-5.08594.73145-1.001a28.97654,28.97654,0,0,1,2.90674,1.90918l-.82568,1.16211Q52.70489,77.28388,51.00713,76.11958Zm8.15576-.11328a27.7115,27.7115,0,0,0,1.57373-3.333l1.33154.55811q-.82617,1.74536-1.7627,3.33105Z" style="fill:#42210b"/><path d="M64.991,68.56342l15.59229-4.11865L80.88848,65.6,75.70733,66.9687l.62744,2.374L80.87383,68.144,83.848,79.40473l-1.2832.33887-.2627-.99414-11.42139,3.0166.2627.99414-1.2832.33887L66.88555,71.83833l4.37988-1.15625q-.26953-1.14844-.57959-2.38672L65.2962,69.7187Zm17.00586,9.03076-.7373-2.791-2.96777.78369q-1.55566.41089-2.02148-1.35352L75.37188,70.833l-2.56641.67773a7.666,7.666,0,0,1-1.54492,6.75684,10.56672,10.56672,0,0,0-1.2334-.771A6.17975,6.17975,0,0,0,71.52178,71.85l-3.04785.80469,2.10156,7.95605Zm-9.44824-7.25146,2.51855-.665-.62744-2.374-2.48633.65674Q72.27642,69.248,72.54864,70.34272Zm5.91992,3.96191,2.48633-.65674-1.05957-4.00977-3.25586.85986.84766,3.208A.71887.71887,0,0,0,78.46856,74.30463Z" style="fill:#42210b"/><path d="M85.3626,76.55122l5.18115-1.36816L87.57354,63.937l-4.55566,1.20313-.32178-1.21875,14.66113-3.87256.32178,1.21875-4.604,1.21631,2.97021,11.24609,5.19727-1.373.31348,1.18652L85.67608,77.73774Zm-.44189-9.92236q2.21484,2.86377,4.16016,5.68018l-1.1748.94434q-1.94458-3.07324-4.00488-5.80664Zm6.97021,8.19824,2.80713-.7417L91.72784,62.8393l-2.80713.7417Zm3.96533-4.15332a62.22453,62.22453,0,0,0,.92725-7.144l1.43506.16943q-.46582,4.27588-1.06738,7.19775Z" style="fill:#42210b"/><path d="M100.18926,60.62251q-.25708-.51562-.59863-1.09473,4.64063-1.467,8.334-2.751l.59424,1.0791Q105.46685,58.9018,100.18926,60.62251Zm.33594,1.40381.82324-.78369q1.084,1.05176,2.125,2.13281l-.88672.86865Q101.69244,63.19379,100.5252,62.02631Zm7.03418,4.7998q1.70142.69141,3.52881,1.46973l-.53076,1.23926q-1.61719-.85913-3.44287-1.66455l1.31787,4.98926-1.1875.31348-1.43652-5.4375a19.49523,19.49523,0,0,1-2.123,4.6958q-.38379-.22412-1.18652-.5957a15.15446,15.15446,0,0,0,2.6499-5.62549l-3.27246.86426-.31348-1.18652,3.5127-.92773-.33057-1.252,1.1875-.31348.33057,1.252,3.28809-.86865.31348,1.18652-3.28809.86865.52539,1.98926Zm-4.23877-6.17236.84277-.772q1.13452,1.1748,2.12256,2.25293l-.92627.84619A30.63678,30.63678,0,0,0,103.32061,60.65376Zm3.52783,2.05371q.48486-1.67285.90332-3.85937l1.22656.29346q-.35449,1.44946-1.00391,3.79932Zm7.54053-6.79687a20.11933,20.11933,0,0,1-4.42578,5.85449q-.61011-.49219-1.07764-.832a14.723,14.723,0,0,0,4.24609-5.42822Zm-4.17139,15.32715a17.38768,17.38768,0,0,0,6.11914-7.43408l1.19873.57666a19.54947,19.54947,0,0,1-6.19971,7.7124A11.9567,11.9567,0,0,0,110.21758,71.23774Zm5.689-11.0083a20.29244,20.29244,0,0,1-4.47412,5.79736q-.41162-.38965-1.022-.87939a15.24392,15.24392,0,0,0,4.27783-5.438Z" style="fill:#42210b"/><path d="M32.75287,40.25512c2.05994,18.23172,21.74027,31.63021,43.95763,29.9266,22.21729-1.70755,38.558-17.86863,36.49747-36.09949C111.14831,15.84994,91.46574,2.45283,69.2481,4.15786,47.03189,5.862,30.69178,22.02426,32.75287,40.25512Z" style="fill:url(#linear-gradient-5)"/></svg>