<svg xmlns="http://www.w3.org/2000/svg" xmlns:xlink="http://www.w3.org/1999/xlink" viewBox="0 0 141.001 121.20757"><defs><linearGradient id="linear-gradient" x1="101.0137" y1="97.04954" x2="115.9705" y2="100.85626" gradientUnits="userSpaceOnUse"><stop offset="0.0034" stop-color="#f8b400"/><stop offset="0.33765" stop-color="#f9ad06"/><stop offset="0.81965" stop-color="#fd9a16"/><stop offset="1" stop-color="#ff911e"/></linearGradient><linearGradient id="linear-gradient-2" x1="-3.21327" y1="24.64753" x2="112.28198" y2="24.64753" gradientTransform="translate(11.59667 55.72469) rotate(14.27665)" gradientUnits="userSpaceOnUse"><stop offset="0.0034" stop-color="#c28d00"/><stop offset="0.36606" stop-color="#c18605"/><stop offset="0.88899" stop-color="#be7313"/><stop offset="1" stop-color="#bd6e17"/></linearGradient><linearGradient id="linear-gradient-3" x1="-0.25114" y1="28.95169" x2="139.61975" y2="64.55079" xlink:href="#linear-gradient"/><linearGradient id="未命名漸層_29" x1="34.71634" y1="15.84992" x2="111.24375" y2="92.37733" gradientUnits="userSpaceOnUse"><stop offset="0" stop-color="#e62c14"/><stop offset="1" stop-color="#c72c14"/></linearGradient><linearGradient id="linear-gradient-4" x1="7.74326" y1="78.34385" x2="141.001" y2="78.34385" gradientUnits="userSpaceOnUse"><stop offset="0.0034" stop-color="#f8d04c"/><stop offset="0.27761" stop-color="#f9cc45"/><stop offset="0.67289" stop-color="#fcc232"/><stop offset="1" stop-color="#ffb71d"/></linearGradient><linearGradient id="linear-gradient-5" x1="2997.14774" y1="800.66696" x2="2998.69239" y2="850.31533" gradientTransform="matrix(-0.8962, 0.0688, 0.1005, 0.8893, 2674.82624, -926.75043)" gradientUnits="userSpaceOnUse"><stop offset="0" stop-color="#fff"/><stop offset="1" stop-color="#fff" stop-opacity="0"/></linearGradient></defs><title>泰</title><g id="圖層_2" data-name="圖層 2"><g id="圖層_1-2" data-name="圖層 1"><path d="M116.3535,99.35143A99.9092,99.9092,0,0,0,98.07,108.61554c3.82207-7.497,7.64418-14.77,11.46587-21.71221Q112.9447,92.94041,116.3535,99.35143Z" style="fill:url(#linear-gradient)"/><path d="M7.7655,57.75075c4.21229,16.60221,8.42421,32.44173,12.63613,47.66379,31.98357,12.49257,63.96791-10.64137,95.95188-6.06312q-3.4094-6.42216-6.81764-12.44809C75.61212,76.2652,41.68879,91.73959,7.7655,57.75075Z" style="fill:url(#linear-gradient-2)"/><path d="M141.001,58.80416C112.93094,31.49065,53.46807,19.68387,0,27.96493c8.28471,2.53421,15.88723,8.86946,15.88723,8.86946s-1.55965,3.7036-4.97091,10.91594c37.542-8.19576,99.74206,12.4946,124.04183,35.11619Q137.9794,70.58866,141.001,58.80416Z" style="fill:url(#linear-gradient-3)"/><path d="M127.09516,54.1151A54.11427,54.11427,0,1,0,72.98089,108.229c.53863,0,1.07444-.01052,1.60943-.02629l6.1116,13.0049,10.08941-15.98226A54.13333,54.13333,0,0,0,127.09516,54.1151Z" style="fill:url(#未命名漸層_29)"/><path d="M127.09516,54.1151q0-1.386-.06915-2.75376c-27.47889-5.88966-59.11711,7.37892-76.47343,8.11771A48.28567,48.28567,0,0,1,19.51969,49.34232l-.51358.8961c-.09014,1.28023-.1395,2.57219-.1395,3.87668a54.06529,54.06529,0,0,0,2.586,16.563L71.23523,95.07848a126.4698,126.4698,0,0,1,30.227-8.73153,35.936,35.936,0,0,1,14.72633.349A53.86686,53.86686,0,0,0,127.09516,54.1151Z" style="opacity:0.14"/><path d="M7.74326,57.82355c44.41952,28.605,88.83822-27.62448,133.25774.98061q-3.02121,11.77682-6.04286,24.06237C96.77237,69.30482,58.587,112.751,20.40162,105.41455,16.182,90.21915,11.96326,74.40389,7.74326,57.82355Z" style="fill:url(#linear-gradient-4)"/><polygon points="71.695 12.193 76.368 26.563 91.484 26.563 79.258 35.449 83.926 49.829 71.695 40.943 59.469 49.829 64.142 35.449 51.911 26.563 67.027 26.563 71.695 12.193" style="fill:gold"/><path d="M32.7531,40.37965C34.813,58.6115,54.49353,72.01008,76.711,70.30647c22.21745-1.70756,38.55831-17.86876,36.49773-36.09975C111.1491,15.9743,91.46639,2.57709,69.24859,4.28213,47.03223,5.98632,30.692,22.14866,32.7531,40.37965Z" style="fill:url(#linear-gradient-5)"/><path d="M39.04886,81.50465a.4124.4124,0,0,0,.2373.03125l.4248-.02246-.08789.28027-2.8125.64453q-.72217.16553-.48047-.60937l1.39355-4.44922a4.82684,4.82684,0,0,0,.24707-1.0918.42752.42752,0,0,0-.2334-.4668,1.55394,1.55394,0,0,0-.87793.03418,2.92076,2.92076,0,0,0-.99121.39355,1.89826,1.89826,0,0,0-.585.65625,6.48254,6.48254,0,0,0-.45312,1.13867l-.50586,1.61523a8.67993,8.67993,0,0,1,.92285-.78125,2.5577,2.5577,0,0,1,.92383-.42187.87954.87954,0,0,1,.53223.002l-.56445,1.80273-.21875.05078c-.48145-.16211-.80371-.26465-.96875-.30469a.87681.87681,0,0,0-.39648-.02734.57352.57352,0,0,0-.45605.40234l-.69922,2.23047c-.03027.09961-.03027.16016,0,.1875a.42122.42122,0,0,0,.23633.03125l.39746-.01562-.08789.2793-4.28516.98242.08789-.2793.47559-.18359a1.16474,1.16474,0,0,0,.2959-.1543.47.47,0,0,0,.124-.21484l1.28906-4.11523A4.43223,4.43223,0,0,1,33.52152,76.905a9.01531,9.01531,0,0,1,3.45508-1.42383q2.2793-.52148,3.02734-.06055c.5.30469.61133.90039.335,1.78125l-1.28906,4.11523C39.01956,81.41676,39.01859,81.47731,39.04886,81.50465Z" style="fill:#42210b"/><path d="M47.48636,79.27223a9.38079,9.38079,0,0,1-3.66211,1.68262,6.69367,6.69367,0,0,1-1.35547.18066,3.47753,3.47753,0,0,1-1-.09961l.77344-1.9873L42.501,78.989a1.99881,1.99881,0,0,0,.25977,1.37891c.2168.26367.59277.33594,1.12891.21289a2.89767,2.89767,0,0,0,1.65918-1.168,9.04876,9.04876,0,0,0,1.26367-2.70117,3.60409,3.60409,0,0,0,.22168-2.26465q-.28857-.63574-1.46191-.36621a7.89944,7.89944,0,0,0-2.63086,1.19727l-.13574-.291a14.37245,14.37245,0,0,1,1.79785-1.03125,10.49819,10.49819,0,0,1,2.14258-.71387q1.979-.45264,2.76367.21582.78516.668.208,2.51367A6.46543,6.46543,0,0,1,47.48636,79.27223Z" style="fill:#42210b"/><path d="M52.45609,78.59254l.53027-.19531a.89189.89189,0,0,0,.28516-.14648.499.499,0,0,0,.1377-.23633l1.44824-4.623c.18359-.58789.21094-.96289.08105-1.12891q-.19482-.24609-.9043-.084a6.27027,6.27027,0,0,0-2.17187,1.06836l-.127-.28125a10.21831,10.21831,0,0,1,3.75879-1.72852q1.50146-.34277,1.96484.09375.46582.44238.07129,1.69727l-1.36816,4.36719c-.03125.09961-.03223.16016-.002.1875a.42535.42535,0,0,0,.2373.03125l.4248-.02246-.08789.28027-4.36621,1Z" style="fill:#42210b"/><path d="M62.47269,75.78786a1.44526,1.44526,0,0,0,.88672.01953,1.36651,1.36651,0,0,0,.78418-.43945,3.41276,3.41276,0,0,0,.50684-1.0957l1.40234-4.47656c.03027-.09766.03125-.16016.002-.18555a.40947.40947,0,0,0-.2373-.03125l-.4248.02246.08691-.28125,3.374-1.14551.28613-.06445-1.68262,5.36914a3.91135,3.91135,0,0,1-1.15625,1.834,5.19987,5.19987,0,0,1-2.28809,1.03906,2.802,2.802,0,0,1-1.48242.01758,1.53272,1.53272,0,0,1-.83887-.57617,2.03353,2.03353,0,0,1-.44824.78516,1.39842,1.39842,0,0,1-.72949.42676l-2.64746.60645.08789-.2793.47559-.18359a1.14716,1.14716,0,0,0,.2959-.1543.47872.47872,0,0,0,.124-.21484l1.79883-5.74609c.03125-.09766.03125-.16016.002-.18555a.4076.4076,0,0,0-.2373-.03125l-.4248.02344.08691-.28125,3.374-1.14551.28613-.06543-1.87891,5.998A1.7595,1.7595,0,0,0,62.47269,75.78786Z" style="fill:#42210b"/><path d="M73.53519,73.61207a1.49118,1.49118,0,0,0,.69531-.80469.83135.83135,0,0,0,.01074-.64062.77836.77836,0,0,0-.46973-.32031,8.35555,8.35555,0,0,0-1.10937-.2168,11.284,11.284,0,0,1-1.41016-.29,1.132,1.132,0,0,1-.6875-.49316,1.26509,1.26509,0,0,1,.001-1.01758,3.5233,3.5233,0,0,1,1.6084-1.918,10.3939,10.3939,0,0,1,4.43457-1.40137A6.23181,6.23181,0,0,1,77.8682,66.53l-.71191,1.94922-.28516.06445c.04492-.6875-.08789-1.13672-.40234-1.3457a1.78441,1.78441,0,0,0-1.38672-.10352,3.6224,3.6224,0,0,0-1.21875.49609,1.52582,1.52582,0,0,0-.63379.80859.625.625,0,0,0,.01172.53125.81783.81783,0,0,0,.46582.28906,9.253,9.253,0,0,0,1.10742.23047,9.84794,9.84794,0,0,1,1.48535.3291,1.06406,1.06406,0,0,1,.64746.52148,1.483,1.483,0,0,1-.04492,1.05273,3.37254,3.37254,0,0,1-.72949,1.27637,4.82857,4.82857,0,0,1-1.49316,1.03125,14.07611,14.07611,0,0,1-4.14941,1.09277,4.44362,4.44362,0,0,1-1.27637-.01074l.7207-1.97656.28711-.06445q-.00586,1.06641.48633,1.35742a1.92806,1.92806,0,0,0,1.40625.08105A4.628,4.628,0,0,0,73.53519,73.61207Z" style="fill:#42210b"/><path d="M80.91019,63.32887a12.4298,12.4298,0,0,1-4.46973,2.01563,4.642,4.642,0,0,1-1.89062.17188q-.53906-.13477-.33105-.80273a1.89444,1.89444,0,0,1,1.5293-1.28125,2.71933,2.71933,0,0,1,1.0332-.0625l-.28516.90723c-.0752.24121-.06445.40137.0332.4834.0957.08008.332.07813.70508-.00684a9.72567,9.72567,0,0,0,3.56348-1.63574Z" style="fill:#42210b"/><path d="M84.32425,70.82985l1.46-4.66309a3.51392,3.51392,0,0,0,.19824-.957.37124.37124,0,0,0-.24219-.39648,1.61047,1.61047,0,0,0-.78711.043,7.9142,7.9142,0,0,0-1.27051.416l-1.96289,6.26563c-.03027.09961-.03027.16016,0,.1875a.42122.42122,0,0,0,.23633.03125l.39844-.0166-.08789.28027-4.28613.98242.08789-.28125.47559-.18262a1.23874,1.23874,0,0,0,.2959-.15332.47787.47787,0,0,0,.125-.21582L80.06546,68.656a2.63824,2.63824,0,0,1,.66113-1.06348,3.80726,3.80726,0,0,1,1.16016-.793l.05469-.17383-1.66016.084.06738-.21484a17.28837,17.28837,0,0,1,5.04395-2.10937,4.33094,4.33094,0,0,1,2.7207-.07324q.68555.394.30566,1.61035l-1.377,4.39648c-.03027.09766-.03027.1582,0,.18555a.39912.39912,0,0,0,.23633.03223l.42578-.02246-.08789.2793-2.8125.64453Q84.08158,71.60524,84.32425,70.82985Z" style="fill:#42210b"/><path d="M96.52738,68.2859a8.094,8.094,0,0,1-3.23047,1.35547q-2.15479.49219-2.82129.0332c-.44531-.30859-.53613-.87891-.27344-1.7168l.37988-1.21484a2.131,2.131,0,0,1,.34277-.668,9.19619,9.19619,0,0,1,.62012-.709,8.25936,8.25936,0,0,0,.65723-.73828,2.38063,2.38063,0,0,0,.374-.73633.82041.82041,0,0,0,.04395-.5625c-.05371-.10742-.20605-.13281-.45117-.07617a1.63078,1.63078,0,0,0-.73047.37109,1.54833,1.54833,0,0,0-.44141.70312,2.176,2.176,0,0,0-.09668.43164l-.36914.084a1.15822,1.15822,0,0,1,.06445-.44922,2.1879,2.1879,0,0,1,.75391-1.05273,4.96318,4.96318,0,0,1,1.917-.76074q2.15625-.49365,1.71289.9209a2.24893,2.24893,0,0,1-.27637.57813,7.42157,7.42157,0,0,1-.502.65625q-.32812.39551-.54.71289a2.629,2.629,0,0,0-.33008.6875l-.51074,1.63086a5.09157,5.09157,0,0,0-.24023,1.0293.4675.4675,0,0,0,.1582.46484.95481.95481,0,0,0,.67578.00781,1.99292,1.99292,0,0,0,.78516-.34277,1.77993,1.77993,0,0,0,.48926-.61426,6.99314,6.99314,0,0,0,.41016-1.06836l.34766-1.10742a8.84259,8.84259,0,0,0,.27441-1.03711.68127.68127,0,0,0-.0332-.48242c-.06055-.085-.17871-.10742-.35156-.06641l-.4502.10156.11719-.375.51855-.11816a1.14713,1.14713,0,0,0,.60352-.31152,1.59021,1.59021,0,0,0,.334-.623l.40234-1.28125L99.59085,61.03l.123-.02734-.335,1.06836a2.691,2.691,0,0,1-.74023,1.17578,3.47457,3.47457,0,0,1-1.22754.73828c.4541-.04687.74707.04688.877.27734a1.70389,1.70389,0,0,1-.08105,1.22656l-.21289.68164A4.31472,4.31472,0,0,1,96.52738,68.2859Z" style="fill:#42210b"/><path d="M101.56742,67.33668l.53027-.19531a.89189.89189,0,0,0,.28516-.14648.499.499,0,0,0,.1377-.23633l1.44824-4.623c.18359-.58789.21094-.96289.08105-1.12891q-.19482-.24609-.9043-.084a6.27027,6.27027,0,0,0-2.17187,1.06836l-.127-.28125a10.21831,10.21831,0,0,1,3.75879-1.72852q1.50146-.34277,1.96484.09375.46582.44092.07129,1.69727l-1.36816,4.36719c-.03125.09961-.03125.16016-.001.1875a.41921.41921,0,0,0,.23633.03125l.42578-.02246-.08789.28027-4.36719,1Z" style="fill:#42210b"/><path d="M115.46878,58.27809c-.03418-.11914-.15625-.15625-.36523-.1084a1.18239,1.18239,0,0,0-.584.37012,1.911,1.911,0,0,0-.42676.75391l-.08789.28125-.49121.11328.08789-.28125a.90665.90665,0,0,0,.03027-.66406.32976.32976,0,0,0-.41211-.1416,1.72923,1.72923,0,0,0-.96094.90918,12.04926,12.04926,0,0,0-.97852,2.41211,8.14812,8.14812,0,0,0-.46094,2.34375c.00684.55664.31152.76758.91113.62891a2.51765,2.51765,0,0,0,.92578-.44727l.06348.2832a5.455,5.455,0,0,1-.86426.51367,5.34007,5.34007,0,0,1-1.11133.373q-1.77393.40576-2.3623-.2832-.5874-.69141-.02734-2.48047a8.00668,8.00668,0,0,1,1.78125-3.13672,5.34263,5.34263,0,0,1,2.72559-1.62891,1.56884,1.56884,0,0,1,.88477-.00977.58922.58922,0,0,1,.35938.5293,3.28722,3.28722,0,0,1,.92773-.81934,4.67759,4.67759,0,0,1,1.34961-.50684c.77246-.17773,1.28516-.13867,1.53516.11133q.375.38086.06152,1.38281l-1.50586,4.80957c-.03125.09766-.03223.16113-.00293.18652a.41343.41343,0,0,0,.23828.03125l.4248-.02344-.084.26758-2.81055.64453q-.72363.167-.48535-.59473l1.62793-5.19727A1.25879,1.25879,0,0,0,115.46878,58.27809Z" style="fill:#42210b"/><path d="M112.07816,56.50661a3.56383,3.56383,0,0,1,.94141-.86035,5.37626,5.37626,0,0,1,1.377-.6377l5.08594.09961-.09961.32031-7.50488,1.7207Z" style="fill:#42210b"/><path d="M64.94339,86.38161a2.13857,2.13857,0,0,0,.95313-.69531,4.118,4.118,0,0,0,.59277-1.24609,1.252,1.252,0,0,0,.04492-.62891,7.16679,7.16679,0,0,1,.75391-.34766A5.73989,5.73989,0,0,1,68.11917,83.2q.75146-.17285.96289.05664.21387.23145.02539.832A2.91368,2.91368,0,0,1,68.166,85.3777a6.17782,6.17782,0,0,1-2.1709,1.08594,4.91989,4.91989,0,0,1,1.31543-.05957.61641.61641,0,0,1,.55469.39355,1.74012,1.74012,0,0,1-.09961,1.00977l-.61523,1.96289c-.03125.09961-.03125.16016-.001.1875a.40368.40368,0,0,0,.23633.03125l.4248-.02344-.084.26758L64.916,90.8777q-.72363.167-.48437-.5957l.63574-2.0293a2.23208,2.23208,0,0,0,.15527-1.041c-.05078-.20312-.23828-.28906-.55957-.25684a15.85933,15.85933,0,0,0-1.59375.31641l-1.15918,3.7002c-.03125.09863-.03125.16016-.001.1875a.40368.40368,0,0,0,.23633.03125l.39844-.01758-.084.26758-4.28516.98242.084-.26758.47559-.18359a1.161,1.161,0,0,0,.2959-.15234.46791.46791,0,0,0,.123-.21582l1.80371-5.75781c.03027-.09766.03223-.16113.002-.18652a.41257.41257,0,0,0-.2373-.0332l-.4248.02344.08789-.2793,3.373-1.14453.28613-.06641-.84961,2.71191A13.1493,13.1493,0,0,0,64.94339,86.38161Z" style="fill:#42210b"/><path d="M75.59183,87.71266a9.39917,9.39917,0,0,1-3.66211,1.68066,6.6222,6.6222,0,0,1-1.35547.18164,3.48521,3.48521,0,0,1-1.001-.09863l.77441-1.98926.25977-.05859a1.99485,1.99485,0,0,0,.25781,1.37891c.21777.26563.59375.33594,1.13086.21289a2.90177,2.90177,0,0,0,1.6582-1.168A9.044,9.044,0,0,0,74.918,85.15016a3.59643,3.59643,0,0,0,.22168-2.26465q-.28857-.63281-1.46289-.36523a7.861,7.861,0,0,0-2.62988,1.19922l-.13672-.293A14.52312,14.52312,0,0,1,72.709,82.39528a10.42084,10.42084,0,0,1,2.14258-.71289q1.979-.4541,2.76367.21484.78369.6709.208,2.51367A6.456,6.456,0,0,1,75.59183,87.71266Z" style="fill:#42210b"/><path d="M82.52249,82.9109A.53546.53546,0,0,0,83,82.96364l1.52832-.34961-.126.40039-1.52832.34961a1.15257,1.15257,0,0,0-.85352.86523l-.31836,1.01563a3.55368,3.55368,0,0,0-.2041.99512.38785.38785,0,0,0,.26465.41113,1.77318,1.77318,0,0,0,.84473-.05078,3.01636,3.01636,0,0,0,.94238-.35937,1.77611,1.77611,0,0,0,.585-.61133,5.08128,5.08128,0,0,0,.43359-1.041l1.64453-5.25,2.72949-.91211.123-.02734-1.61523,5.15625a3.96358,3.96358,0,0,1-.81738,1.459,5.0506,5.0506,0,0,1-1.56934,1.12891,12.02325,12.02325,0,0,1-2.58105.85742,8.25614,8.25614,0,0,1-2.35645.28711q-.80127-.07324-.99219-.49316a1.65069,1.65069,0,0,1,.03809-1.15527,3.52553,3.52553,0,0,1,2.42969-2.21875,1.50182,1.50182,0,0,1-1.167-.25391c-.21-.209-.2373-.55664-.084-1.04687a2.8972,2.8972,0,0,1,1.10449-1.48047A5.085,5.085,0,0,1,83.36429,79.78a2.79631,2.79631,0,0,1,.99023-.08984,1.59982,1.59982,0,0,1,.667.25586l-.334.33594a.8134.8134,0,0,0-.32227-.14258.85211.85211,0,0,0-.39062-.00391,1.31029,1.31029,0,0,0-.74707.42578,2.769,2.769,0,0,0-.4502.92773l-.28906.92188C82.41019,82.65895,82.42191,82.82692,82.52249,82.9109Z" style="fill:#42210b"/></g></g></svg>