<svg xmlns="http://www.w3.org/2000/svg" xmlns:xlink="http://www.w3.org/1999/xlink" viewBox="0 0 141 121.21"><defs><linearGradient id="linear-gradient" x1="101.01" y1="97.05" x2="115.97" y2="100.86" gradientUnits="userSpaceOnUse"><stop offset="0" stop-color="#f8b400"/><stop offset="0.34" stop-color="#f9ad06"/><stop offset="0.82" stop-color="#fd9a16"/><stop offset="1" stop-color="#ff911e"/></linearGradient><linearGradient id="linear-gradient-2" x1="-894.37" y1="-1163.6" x2="-778.88" y2="-1163.6" gradientTransform="translate(582.19 1427.02) rotate(14.28)" gradientUnits="userSpaceOnUse"><stop offset="0" stop-color="#c28d00"/><stop offset="0.37" stop-color="#c18605"/><stop offset="0.89" stop-color="#be7313"/><stop offset="1" stop-color="#bd6e17"/></linearGradient><linearGradient id="linear-gradient-3" x1="-0.25" y1="28.95" x2="139.62" y2="64.55" xlink:href="#linear-gradient"/><linearGradient id="未命名漸層_29" x1="34.72" y1="15.85" x2="111.24" y2="92.38" gradientUnits="userSpaceOnUse"><stop offset="0" stop-color="#e62c14"/><stop offset="1" stop-color="#c72c14"/></linearGradient><linearGradient id="linear-gradient-4" x1="7.74" y1="78.34" x2="141" y2="78.34" gradientUnits="userSpaceOnUse"><stop offset="0" stop-color="#f8d04c"/><stop offset="0.28" stop-color="#f9cc45"/><stop offset="0.67" stop-color="#fcc232"/><stop offset="1" stop-color="#ffb71d"/></linearGradient><linearGradient id="linear-gradient-5" x1="-8303.43" y1="904.48" x2="-8301.89" y2="954.13" gradientTransform="matrix(-0.9, 0.07, 0.1, 0.89, -7463.19, -241.59)" gradientUnits="userSpaceOnUse"><stop offset="0" stop-color="#fff"/><stop offset="1" stop-color="#fff" stop-opacity="0"/></linearGradient></defs><title>泰_5</title><g id="圖層_2" data-name="圖層 2"><g id="圖層_1-2" data-name="圖層 1"><path d="M116.35,99.35a99.91,99.91,0,0,0-18.28,9.26c3.82-7.5,7.64-14.77,11.47-21.71Q112.94,92.94,116.35,99.35Z" style="fill:url(#linear-gradient)"/><path d="M7.77,57.75C12,74.35,16.19,90.19,20.4,105.41c32,12.49,64-10.64,96-6.06q-3.41-6.42-6.82-12.45C75.61,76.27,41.69,91.74,7.77,57.75Z" style="fill:url(#linear-gradient-2)"/><path d="M141,58.8C112.93,31.49,53.47,19.68,0,28c8.28,2.53,15.89,8.87,15.89,8.87s-1.56,3.7-5,10.92c37.54-8.2,99.74,12.49,124,35.12Q138,70.59,141,58.8Z" style="fill:url(#linear-gradient-3)"/><path d="M127.1,54.12A54.11,54.11,0,1,0,73,108.23l1.61,0,6.11,13,10.09-16A54.13,54.13,0,0,0,127.1,54.12Z" style="fill:url(#未命名漸層_29)"/><path d="M127.1,54.12q0-1.39-.07-2.75c-27.48-5.89-59.12,7.38-76.47,8.12a48.29,48.29,0,0,1-31-10.14l-.51.9c-.09,1.28-.14,2.57-.14,3.88a54.07,54.07,0,0,0,2.59,16.56l49.78,24.4a126.47,126.47,0,0,1,30.23-8.73,35.94,35.94,0,0,1,14.73.35A53.87,53.87,0,0,0,127.1,54.12Z" style="opacity:0.14"/><path d="M7.74,57.82C52.16,86.43,96.58,30.2,141,58.8q-3,11.78-6,24.06C96.77,69.3,58.59,112.75,20.4,105.41,16.18,90.22,12,74.4,7.74,57.82Z" style="fill:url(#linear-gradient-4)"/><polygon points="71.69 12.19 76.37 26.56 91.48 26.56 79.26 35.45 83.93 49.83 71.69 40.94 59.47 49.83 64.14 35.45 51.91 26.56 67.03 26.56 71.69 12.19" style="fill:gold"/><path d="M32.75,40.38c2.06,18.23,21.74,31.63,44,29.93s38.56-17.87,36.5-36.1S91.47,2.58,69.25,4.28,30.69,22.15,32.75,40.38Z" style="fill:url(#linear-gradient-5)"/><path d="M34.35,80.69l-.7.22a.47.47,0,0,0-.32.3.36.36,0,0,0,0,.18l.93,6L39.15,80a1.13,1.13,0,0,0,.11-.21c0-.1,0-.14-.18-.13l-.69.1.1-.33L41,78.86l-.1.33-.63.21a.8.8,0,0,0-.31.16,2.31,2.31,0,0,0-.27.33l-7.91,11.8-.53.12-1.44-9.65a.54.54,0,0,0-.09-.25s-.12-.05-.25,0l-.59.08.1-.33,5.47-1.25Z" style="fill:#42210b"/><path d="M42.92,78.95a.49.49,0,0,0-.29,0h-.57l.1-.33,4.59-1.05L50,82.91l1.81-5.79q.06-.18,0-.22a.56.56,0,0,0-.27,0H51l.1-.33L53.62,76l-.1.33-.65.27a1.41,1.41,0,0,0-.36.19.55.55,0,0,0-.15.26l-3.3,10.54-.6.14L43.37,79.3l-3,9.51c0,.12,0,.19,0,.22a.56.56,0,0,0,.27,0h.56l-.1.32L38.6,90l.1-.32.65-.27a1.43,1.43,0,0,0,.36-.19.56.56,0,0,0,.15-.26l3-9.73C43,79.06,43,79,42.92,78.95Z" style="fill:#42210b"/><path d="M62.13,83.68a5.57,5.57,0,0,0,1.19-2.21,2.34,2.34,0,0,0,0-1.87q-.37-.6-1.56-.33l-.68.16.15-.49.7-.16a3.35,3.35,0,0,0,1.7-.92,4.55,4.55,0,0,0,1-1.85q.36-1.14,0-1.55c-.25-.27-.75-.32-1.49-.16A9.58,9.58,0,0,0,60,75.83l-.1-.26a16,16,0,0,1,2.41-1.46A12.61,12.61,0,0,1,65,73.18a4,4,0,0,1,2.67.06q.87.47.45,1.8a4.4,4.4,0,0,1-1.27,1.86,8.51,8.51,0,0,1-2.36,1.52,2.58,2.58,0,0,1,2,.44,1.61,1.61,0,0,1,.23,1.77,5.18,5.18,0,0,1-2.12,2.83,12.79,12.79,0,0,1-4.23,1.65,13.32,13.32,0,0,1-2.14.33,4.05,4.05,0,0,1-1.48-.11l1.08-2.75.38-.09a5.9,5.9,0,0,0,.12,1.39,1.22,1.22,0,0,0,.56.79,1.83,1.83,0,0,0,1.33.06A3.58,3.58,0,0,0,62.13,83.68Z" style="fill:#42210b"/><path d="M79.7,70.43A2.1,2.1,0,0,1,81.07,72,5.61,5.61,0,0,1,80.79,75a10.82,10.82,0,0,1-1.74,3.39,10.48,10.48,0,0,1-2.62,2.44,9.52,9.52,0,0,1-3.07,1.32,4.78,4.78,0,0,1-2.65,0,2.1,2.1,0,0,1-1.37-1.53,5.62,5.62,0,0,1,.28-3.05,10.8,10.8,0,0,1,1.74-3.39A10.46,10.46,0,0,1,74,71.74,9.57,9.57,0,0,1,77,70.42,4.8,4.8,0,0,1,79.7,70.43ZM75.45,80a21.25,21.25,0,0,0,1.69-4.16,15.42,15.42,0,0,0,.86-4q0-1.24-1.09-1A3.18,3.18,0,0,0,75,72.57a21.22,21.22,0,0,0-1.69,4.16,15.36,15.36,0,0,0-.86,4q0,1.24,1.09,1A3.18,3.18,0,0,0,75.45,80Z" style="fill:#42210b"/><path d="M89,77.53a11.41,11.41,0,0,1-4.45,2,8.13,8.13,0,0,1-1.64.22,4.3,4.3,0,0,1-1.22-.12l.94-2.42.32-.07a2.42,2.42,0,0,0,.31,1.68c.26.32.72.41,1.37.26a3.51,3.51,0,0,0,2-1.42,10.94,10.94,0,0,0,1.54-3.28,4.37,4.37,0,0,0,.27-2.75q-.35-.77-1.78-.44a9.56,9.56,0,0,0-3.19,1.45l-.17-.35a17.19,17.19,0,0,1,2.18-1.25,12.63,12.63,0,0,1,2.6-.87q2.4-.55,3.35.26t.25,3.05A7.83,7.83,0,0,1,89,77.53Z" style="fill:#42210b"/><path d="M84.59,68.87a4.37,4.37,0,0,1,1.14-1A6.52,6.52,0,0,1,87.41,67l6.18.12-.12.39-9.12,2.09Z" style="fill:#42210b"/><path d="M100.06,75.38l.17-.55A9.15,9.15,0,0,1,98.58,76a7.1,7.1,0,0,1-2,.81q-1.8.41-2.36-.08t-.12-1.88l1.64-5.24c0-.12,0-.19,0-.23a.5.5,0,0,0-.29,0l-.52,0,.11-.34,4.1-1.39.35-.08-2.1,6.72a2.2,2.2,0,0,0-.16,1.25q.13.31.85.14a3.54,3.54,0,0,0,1.17-.52,9.09,9.09,0,0,0,1.14-.9l1.93-6.15c0-.12,0-.19,0-.23a.49.49,0,0,0-.29,0l-.52,0,.11-.34,4.1-1.39.35-.08-2.59,8.26c0,.12,0,.19,0,.23a.49.49,0,0,0,.29,0l.52,0-.11.34-3.71.85Q99.9,75.9,100.06,75.38Z" style="fill:#42210b"/><path d="M108.52,73.61l.64-.24a1.1,1.1,0,0,0,.35-.18.62.62,0,0,0,.17-.29l1.76-5.61q.34-1.07.1-1.37c-.16-.2-.52-.23-1.1-.1a7.59,7.59,0,0,0-2.64,1.3l-.15-.34a12.4,12.4,0,0,1,4.56-2.1q1.82-.42,2.39.12t.09,2.06L113,72.16c0,.12,0,.19,0,.23a.49.49,0,0,0,.29,0l.52,0-.11.34L108.41,74Z" style="fill:#42210b"/><path d="M123.75,62.46a8.17,8.17,0,0,1,2.48-1q2.72-.62,2,1.78l-1.84,5.87c0,.12,0,.2,0,.23a.5.5,0,0,0,.29,0l.52,0-.1.32-3.41.78q-.88.2-.59-.72l1.9-6.05q.21-.68.08-.89c-.09-.14-.29-.18-.6-.11a4.24,4.24,0,0,0-1.45.69,12.79,12.79,0,0,0-1.45,1.18l-1.91,6.1c0,.12,0,.2,0,.23a.5.5,0,0,0,.29,0l.48,0-.1.32-5.2,1.19.1-.32.58-.22a1.39,1.39,0,0,0,.36-.19.56.56,0,0,0,.15-.26l2.19-7c0-.12,0-.19,0-.23a.49.49,0,0,0-.29,0l-.52,0,.11-.34,4.1-1.39.31-.07-.5,1.61A14.79,14.79,0,0,1,123.75,62.46Z" style="fill:#42210b"/><path d="M121,60.52a4.36,4.36,0,0,1,1.14-1,6.54,6.54,0,0,1,1.67-.78l3.78.41.6-1.93,2.49-.57-.81,2.6-9.11,2.09Z" style="fill:#42210b"/></g></g></svg>