<svg xmlns="http://www.w3.org/2000/svg" xmlns:xlink="http://www.w3.org/1999/xlink" viewBox="0 0 141 121.21"><defs><linearGradient id="linear-gradient" x1="101.01" y1="97.05" x2="115.97" y2="100.86" gradientUnits="userSpaceOnUse"><stop offset="0" stop-color="#f8b400"/><stop offset="0.34" stop-color="#f9ad06"/><stop offset="0.82" stop-color="#fd9a16"/><stop offset="1" stop-color="#ff911e"/></linearGradient><linearGradient id="linear-gradient-2" x1="-505.93" y1="-1001.32" x2="-390.43" y2="-1001.32" gradientTransform="translate(245.77 1173.96) rotate(14.28)" gradientUnits="userSpaceOnUse"><stop offset="0" stop-color="#c28d00"/><stop offset="0.37" stop-color="#c18605"/><stop offset="0.89" stop-color="#be7313"/><stop offset="1" stop-color="#bd6e17"/></linearGradient><linearGradient id="linear-gradient-3" x1="-0.25" y1="28.95" x2="139.62" y2="64.55" xlink:href="#linear-gradient"/><linearGradient id="未命名漸層_29" x1="34.72" y1="15.85" x2="111.24" y2="92.38" gradientUnits="userSpaceOnUse"><stop offset="0" stop-color="#e62c14"/><stop offset="1" stop-color="#c72c14"/></linearGradient><linearGradient id="linear-gradient-4" x1="7.74" y1="78.34" x2="141" y2="78.34" gradientUnits="userSpaceOnUse"><stop offset="0" stop-color="#f8d04c"/><stop offset="0.28" stop-color="#f9cc45"/><stop offset="0.67" stop-color="#fcc232"/><stop offset="1" stop-color="#ffb71d"/></linearGradient><linearGradient id="linear-gradient-5" x1="-6346.22" y1="1001.16" x2="-6344.68" y2="1050.81" gradientTransform="matrix(-0.9, 0.07, 0.1, 0.89, -5718.85, -462.22)" gradientUnits="userSpaceOnUse"><stop offset="0" stop-color="#fff"/><stop offset="1" stop-color="#fff" stop-opacity="0"/></linearGradient></defs><title>高棉文</title><g id="圖層_2" data-name="圖層 2"><g id="圖層_1-2" data-name="圖層 1"><path d="M116.35,99.35a99.91,99.91,0,0,0-18.28,9.26c3.82-7.5,7.64-14.77,11.47-21.71Q112.94,92.94,116.35,99.35Z" style="fill:url(#linear-gradient)"/><path d="M7.77,57.75C12,74.35,16.19,90.19,20.4,105.41c32,12.49,64-10.64,96-6.06q-3.41-6.42-6.82-12.45C75.61,76.27,41.69,91.74,7.77,57.75Z" style="fill:url(#linear-gradient-2)"/><path d="M141,58.8C112.93,31.49,53.47,19.68,0,28c8.28,2.53,15.89,8.87,15.89,8.87s-1.56,3.7-5,10.92c37.54-8.2,99.74,12.49,124,35.12Q138,70.59,141,58.8Z" style="fill:url(#linear-gradient-3)"/><path d="M127.1,54.12A54.11,54.11,0,1,0,73,108.23l1.61,0,6.11,13,10.09-16A54.13,54.13,0,0,0,127.1,54.12Z" style="fill:url(#未命名漸層_29)"/><path d="M127.1,54.12q0-1.39-.07-2.75c-27.48-5.89-59.12,7.38-76.47,8.12a48.29,48.29,0,0,1-31-10.14l-.51.9c-.09,1.28-.14,2.57-.14,3.88a54.07,54.07,0,0,0,2.59,16.56l49.78,24.4a126.47,126.47,0,0,1,30.23-8.73,35.94,35.94,0,0,1,14.73.35A53.87,53.87,0,0,0,127.1,54.12Z" style="opacity:0.14"/><path d="M7.74,57.82C52.16,86.43,96.58,30.2,141,58.8q-3,11.78-6,24.06C96.77,69.3,58.59,112.75,20.4,105.41,16.18,90.22,12,74.4,7.74,57.82Z" style="fill:url(#linear-gradient-4)"/><polygon points="71.69 12.19 76.37 26.56 91.48 26.56 79.26 35.45 83.93 49.83 71.69 40.94 59.47 49.83 64.14 35.45 51.91 26.56 67.03 26.56 71.69 12.19" style="fill:gold"/><path d="M32.75,40.38c2.06,18.23,21.74,31.63,44,29.93s38.56-17.87,36.5-36.1S91.47,2.58,69.25,4.28,30.69,22.15,32.75,40.38Z" style="fill:url(#linear-gradient-5)"/><path d="M27.57,84.1l-.15-.25a1.32,1.32,0,0,1-.27-1,1.51,1.51,0,0,1,.32-.55l1.77-1.83,8-1.83-.49,1.58L29.13,82l-.25.25a.29.29,0,0,0-.08.12q-.08.27,1.32.9L29,86.77l.85-.19c.57-.13.9,0,1,.37s.26.71.42.79a.65.65,0,0,0,.45.07.55.55,0,0,0,.34-.25,4.93,4.93,0,0,0,.37-1l.39-1.25q-1.8.41-1.28-1.26a3.36,3.36,0,0,1,2.75-2.18q2-.47,1.72.56L34.92,86a4.83,4.83,0,0,1-1.34,2.26,5.26,5.26,0,0,1-2.33,1.1c-.74.17-1.25,0-1.51-.38l-.55-.8-.65.15L28,90.13l-2.47.57a3.26,3.26,0,0,1-.12-2.16,1.58,1.58,0,0,1,1.17-1.19Zm5.64.08.32-1a.89.89,0,0,0-.69.63Q32.68,84.3,33.21,84.18Z" style="fill:#42210b"/><path d="M30.31,91.26,32,90.87l-.32,1L30,92.28l-.43,1.38L28.27,94l.43-1.37L27,93l.32-1L29,91.56l.43-1.37,1.28-.29Z" style="fill:#42210b"/><path d="M43.81,82.69q-4.7.17-4-2.11.85-2.71,5.13-3.69t3.54,1.39l-.09.29a2.43,2.43,0,0,1-2,1.58l-1.54.35.38-1.21c.46-.1.71-.25.77-.44q.25-.8-1.56-.38T42.29,80q-.38,1.22,2.36,1.1,3-.09,2.39,1.81l-.21.67a4.6,4.6,0,0,1-3.74,3.06,2.2,2.2,0,0,1-1.7-.24c-.51-.3-.83-.44-1-.41L40,87.38l-2.47.57,1.32-4.22,2.47-.57-.4,1.28a1.88,1.88,0,0,1,1.69.24,1.25,1.25,0,0,0,1,.41,1.08,1.08,0,0,0,.75-.83l.24-.76Q44.84,82.66,43.81,82.69Z" style="fill:#42210b"/><path d="M51.55,75.39a3.26,3.26,0,0,1,2.13,0q.69.35.35,1.45l-2.46,7.86-2.47.56,2.33-7.44c.13-.4.13-.66,0-.77s-.39-.12-.82,0l-1.87.43.49-1.58Z" style="fill:#42210b"/><path d="M58.22,79.71Q60,79.3,59.49,81A3.32,3.32,0,0,1,57,83.47l-1.23.28q-1.23.28-.91-.74l1.18-3.76q.85-2.71,5.13-3.69t3.43,1.73l-1.5,4.78-2.47.57,1.5-4.78q.35-1.13-1.46-.72t-2.17,1.55ZM66.29,72l-.49,1.58-8.57,2L57.73,74ZM57.4,82.31a1.48,1.48,0,0,0,1.08-1.11c.11-.34-.1-.45-.63-.33Z" style="fill:#42210b"/><path d="M68.26,74.62q-.71-1.22-.64-1.46a1,1,0,0,1,.24-.38l.45-.48.9-1,.68-.16a.67.67,0,0,0,.49-.5l.39-1.26,2.47-.57-.39,1.26a3.23,3.23,0,0,1-2.42,2.41l-1.29.29,1.67,1-1.89,6A1.58,1.58,0,0,1,67.81,81l-1.23.28q-1.37.31-.72-1.77.52-1.67,1.46-1.88Zm-1,4.09c-.15,0-.28.22-.38.56-.18.56-.19.83,0,.8s.29-.28.44-.73S67.4,78.68,67.26,78.71Z" style="fill:#42210b"/><path d="M74.91,69.64q.47-1.51-.81-1.21a6.38,6.38,0,0,0-1.88.66l-2,.45,1.31-4.19L74,64.78l-.91,2.92a5,5,0,0,1,2-.92q3.15-.72,2.21,2.29l-4,12.67q-.63,2-4.38,2.87T65.9,83.46l.55-1.76L69.35,81l-.29.92-.43.1-.26.84q-.18.59,1.1.29t1.47-.88Z" style="fill:#42210b"/><path d="M80.74,74.55q1.8-.41,1.28,1.26a3.32,3.32,0,0,1-2.45,2.5l-1.23.28q-1.23.28-.91-.74l1.18-3.76q.85-2.71,5.13-3.69t3.43,1.73l-1.5,4.78-2.47.56,1.5-4.78q.35-1.13-1.46-.72t-2.17,1.55Zm8.08-7.71-.49,1.58-8.57,2,.49-1.58Zm-8.89,10.3A1.48,1.48,0,0,0,81,76c.11-.34-.1-.45-.63-.33Z" style="fill:#42210b"/><path d="M100.5,71.46l1.61-5.15Q103,63.6,107,62.68t3.17,1.79l-2.3,7.36-2.47.57,2.3-7.36q.35-1.13-1.2-.78a2.32,2.32,0,0,0-1.91,1.49l-2.3,7.36-2.3.53-1.24-1.13-2.2,1.92-2.3.53,2.3-7.36q.35-1.13-1.19-.78a2.32,2.32,0,0,0-1.91,1.49l-1.13,3.6q1.8-.41,1.28,1.26a3.32,3.32,0,0,1-2.45,2.5l-1.23.28q-1.23.28-.91-.74l2-6.33q.85-2.71,4.87-3.63T99,67L97.4,72.19l2-1.75ZM92,73.05l-.45,1.44a1.48,1.48,0,0,0,1.08-1.11C92.69,73,92.48,72.93,92,73.05Z" style="fill:#42210b"/><path d="M113.31,61.23a3.27,3.27,0,0,1,2.13,0q.69.36.35,1.45l-2.46,7.86-2.47.57,2.33-7.44q.19-.6,0-.77c-.12-.11-.39-.12-.82,0l-1.87.43.49-1.58Z" style="fill:#42210b"/><path d="M124.26,62.66l.29-.94-.64-.62-.31-.32a.39.39,0,0,1-.11-.42,1,1,0,0,1,.24-.38l.45-.48.9-1,3-.68-.49,1.58L125,60l2.1.86-1.36,4.34q-.85,2.71-5.13,3.69t-3.44-1.73l1.37-4.36-.26-.42-.21-.34a.43.43,0,0,1,0-.38,1.18,1.18,0,0,1,.29-.44l.45-.48.9-1,2.81-.64L122,60.71l-2.38.55,1.42,1-.38,1.22Zm-.49,1.58-3.63.83-.48,1.54q-.35,1.13,1.46.72t2.17-1.55Z" style="fill:#42210b"/></g></g></svg>