<svg xmlns="http://www.w3.org/2000/svg" xmlns:xlink="http://www.w3.org/1999/xlink" viewBox="0 0 141 121.21"><defs><linearGradient id="linear-gradient" x1="101.01" y1="97.05" x2="115.97" y2="100.86" gradientUnits="userSpaceOnUse"><stop offset="0" stop-color="#f8b400"/><stop offset="0.34" stop-color="#f9ad06"/><stop offset="0.82" stop-color="#fd9a16"/><stop offset="1" stop-color="#ff911e"/></linearGradient><linearGradient id="linear-gradient-2" x1="-874.33" y1="-1003.52" x2="-758.84" y2="-1003.52" gradientTransform="translate(602.25 1266.94) rotate(14.28)" gradientUnits="userSpaceOnUse"><stop offset="0" stop-color="#c28d00"/><stop offset="0.37" stop-color="#c18605"/><stop offset="0.89" stop-color="#be7313"/><stop offset="1" stop-color="#bd6e17"/></linearGradient><linearGradient id="linear-gradient-3" x1="-0.25" y1="28.95" x2="139.62" y2="64.55" xlink:href="#linear-gradient"/><linearGradient id="未命名漸層_29" x1="34.72" y1="15.85" x2="111.24" y2="92.38" gradientUnits="userSpaceOnUse"><stop offset="0" stop-color="#e62c14"/><stop offset="1" stop-color="#c72c14"/></linearGradient><linearGradient id="linear-gradient-4" x1="7.74" y1="78.34" x2="141" y2="78.34" gradientUnits="userSpaceOnUse"><stop offset="0" stop-color="#f8d04c"/><stop offset="0.28" stop-color="#f9cc45"/><stop offset="0.67" stop-color="#fcc232"/><stop offset="1" stop-color="#ffb71d"/></linearGradient><linearGradient id="linear-gradient-5" x1="-6936.2" y1="848.93" x2="-6934.65" y2="898.58" gradientTransform="matrix(-0.9, 0.07, 0.1, 0.89, -6232.29, -286.25)" gradientUnits="userSpaceOnUse"><stop offset="0" stop-color="#fff"/><stop offset="1" stop-color="#fff" stop-opacity="0"/></linearGradient></defs><title>中_5</title><g id="圖層_2" data-name="圖層 2"><g id="圖層_1-2" data-name="圖層 1"><path d="M116.35,99.35a99.91,99.91,0,0,0-18.28,9.26c3.82-7.5,7.64-14.77,11.47-21.71Q112.94,92.94,116.35,99.35Z" style="fill:url(#linear-gradient)"/><path d="M7.77,57.75C12,74.35,16.19,90.19,20.4,105.41c32,12.49,64-10.64,96-6.06q-3.41-6.42-6.82-12.45C75.61,76.27,41.69,91.74,7.77,57.75Z" style="fill:url(#linear-gradient-2)"/><path d="M141,58.8C112.93,31.49,53.47,19.68,0,28c8.28,2.53,15.89,8.87,15.89,8.87s-1.56,3.7-5,10.92c37.54-8.2,99.74,12.49,124,35.12Q138,70.59,141,58.8Z" style="fill:url(#linear-gradient-3)"/><path d="M127.1,54.12A54.11,54.11,0,1,0,73,108.23l1.61,0,6.11,13,10.09-16A54.13,54.13,0,0,0,127.1,54.12Z" style="fill:url(#未命名漸層_29)"/><path d="M127.1,54.12q0-1.39-.07-2.75c-27.48-5.89-59.12,7.38-76.47,8.12a48.29,48.29,0,0,1-31-10.14l-.51.9c-.09,1.28-.14,2.57-.14,3.88a54.07,54.07,0,0,0,2.59,16.56l49.78,24.4a126.47,126.47,0,0,1,30.23-8.73,35.94,35.94,0,0,1,14.73.35A53.87,53.87,0,0,0,127.1,54.12Z" style="opacity:0.14"/><path d="M7.74,57.82C52.16,86.43,96.58,30.2,141,58.8q-3,11.78-6,24.06C96.77,69.3,58.59,112.75,20.4,105.41,16.18,90.22,12,74.4,7.74,57.82Z" style="fill:url(#linear-gradient-4)"/><path d="M34.09,91.21a14.81,14.81,0,0,0-.46-7L34.75,84a28.13,28.13,0,0,1,.6,3,5.83,5.83,0,0,0,2,1.55L35.8,82.65l-3.66,1-.29-1.11L35,81.67l-.62-2.36L31.79,80l-.29-1.11,2.62-.69-.61-2.33,1.12-.3.61,2.33,2.47-.65L38,78.36,35.52,79l.62,2.36,2.73-.72.29,1.11-2.25.59.67,2.54,2.05-.54.29,1.11L37.88,86l.78,3a7,7,0,0,0,2.89-.18q3.74-.94,8.31-2.27-.1.8-.11,1.39Q45.19,89.1,41.52,90t-6-1.37a10.2,10.2,0,0,1-.39,3.72A10.74,10.74,0,0,0,34.09,91.21ZM42.4,87a20.62,20.62,0,0,0,1.79-3.64A25.93,25.93,0,0,1,41.9,78l-1.88.5L41.45,84q.56-.82,1.25-1.89.26.6.55,1.12-.74,1.05-1.46,2.22a8.19,8.19,0,0,0-.53,1l-1-.61a2.56,2.56,0,0,0,.09-1.69l-1.7-6.44L41.56,77q-.44-1.48-.86-3.05l1.09-.29q.37,1.47.86,3.05l4-1,.28,1.06-3.91,1a23.79,23.79,0,0,0,1.69,4.13,17.57,17.57,0,0,0,.61-3.55l1.2.17a23.61,23.61,0,0,1-1,4.67,8,8,0,0,0,1.11,1.28c.28.27.51.38.69.33s.22-.27.18-.68q-.13-1.07-.38-2.54l1.21.11q.29,1.8.35,2.71c.08,1-.2,1.53-.85,1.7a1.9,1.9,0,0,1-1.75-.5A6.74,6.74,0,0,1,45,84.48a20,20,0,0,1-1.52,3A4.3,4.3,0,0,0,42.4,87Zm.44-12.91.67-.83q.89.57,2.08,1.46l-.77.91Q43.7,74.66,42.84,74.06Z" style="fill:#42210b"/><path d="M47.33,74.29l7.21-1.9-.48-1.82,1.32-.35L55.85,72l7-1.86.3,1.14-7,1.86.43,1.64,6.15-1.62,2.4,9.1a1.73,1.73,0,0,1-1.36,2.38q-1.05.3-2.66.65c-.17-.38-.37-.8-.59-1.25q1.61-.32,2.45-.54c.71-.19,1-.59.81-1.21l-2-7.67L50.65,77.58l2.62,9.94L52,87.85,49.09,76.79l6.18-1.63-.43-1.64-7.21,1.9Zm5.39,8.59L57,81.73,56.56,80l-3.79,1-.28-1.06,5-1.33q.46-1.36.89-2.95l1.36.34q-.5,1.28-.93,2.26l2.47-.65.28,1.06-3.79,1,.46,1.75,4.3-1.14.28,1.06-4.3,1.14.81,3.08-1.25.33-.81-3.08L53,83.93ZM53,77.75l.78-.89q1.07.73,2,1.45l-.88.94Q54,78.49,53,77.75Z" style="fill:#42210b"/><path d="M67,79.36a4.74,4.74,0,0,0,3.14.23A3.16,3.16,0,0,0,72,78.43a2.16,2.16,0,0,0,.3-1.89q-.62-2.36-4-1.47l-1,.27L67,74l1-.26q3-.79,2.41-3-.54-2-2.83-1.44a4.13,4.13,0,0,0-2.23,1.53l-.39-1.49a5.78,5.78,0,0,1,2.66-1.46,3.9,3.9,0,0,1,2.77.16A2.81,2.81,0,0,1,71.88,70a3.13,3.13,0,0,1-1.66,3.8v0a3.47,3.47,0,0,1,2.38.39A2.87,2.87,0,0,1,73.92,76a3.49,3.49,0,0,1-.49,3,5,5,0,0,1-2.94,1.88,5.62,5.62,0,0,1-3,.09Z" style="fill:#42210b"/><path d="M75.22,73A9.56,9.56,0,0,1,75,67.77a3.65,3.65,0,0,1,2.71-2.53q3.95-1,5.63,5.33a9,9,0,0,1,.16,5.1,3.66,3.66,0,0,1-2.68,2.49,3.43,3.43,0,0,1-3.35-.81A8.68,8.68,0,0,1,75.22,73Zm1.59-.5q1.31,5,3.82,4.29t1.14-5.69Q80.4,65.94,78,66.58T76.81,72.54Z" style="fill:#42210b"/><path d="M85.21,74.31a19.29,19.29,0,0,0,.94-6.17l-2.22.59-.29-1.09L86.17,67l-.66-2.49q-1,.41-2,.82a9.68,9.68,0,0,0-.63-1,43,43,0,0,0,5.4-2.37l.65,1q-1.07.52-2.25,1l.71,2.67,2.25-.59.29,1.09-2.25.59.6,2.26.56-.82q.82.49,2.43,1.61l-.75,1q-1.34-1-2.17-1.6l2,7.47L89.09,78l-2-7.7a15.93,15.93,0,0,1-.94,5.24Q85.69,74.94,85.21,74.31Zm5.5-10.69H92q0,2.91-.18,5.94a10.4,10.4,0,0,0-1.35-.12A36.7,36.7,0,0,0,90.71,63.62Zm.2,12.53A13.87,13.87,0,0,0,98.53,67l1.3.43a15.57,15.57,0,0,1-7.93,9.7A13.22,13.22,0,0,0,90.92,76.15Zm1.55-15.78L93.72,60,96.4,70.18l-1.25.33Zm3.15,2.29,1-.8q1.76,1.66,3.42,3.54l-1,.91A43.23,43.23,0,0,0,95.61,62.66Z" style="fill:#42210b"/><path d="M100,60.74q-.25-.51-.6-1.09,4.65-1.47,8.34-2.75L108.3,58Q105.25,59,100,60.74Zm.34,1.41.82-.78q1.08,1.05,2.13,2.13l-.89.87Q101.47,63.31,100.3,62.15Zm7,4.8q1.7.69,3.53,1.47l-.53,1.24q-1.62-.86-3.44-1.67l1.32,5L107,73.3l-1.44-5.44a19.58,19.58,0,0,1-2.12,4.7q-.38-.22-1.19-.59a15.17,15.17,0,0,0,2.65-5.63l-3.28.87L101.34,66l3.51-.93-.33-1.25,1.19-.31.33,1.25,3.29-.87.31,1.19-3.29.87.53,2Zm-4.24-6.18.84-.77q1.14,1.18,2.12,2.25l-.93.85A30.86,30.86,0,0,0,103.1,60.77Zm3.53,2.06q.48-1.67.9-3.86l1.23.29q-.35,1.45-1,3.8Zm7.54-6.8a20.14,20.14,0,0,1-4.43,5.86q-.61-.49-1.08-.83a14.74,14.74,0,0,0,4.25-5.43ZM110,71.36a17.39,17.39,0,0,0,6.12-7.44l1.2.58a19.53,19.53,0,0,1-6.2,7.72A12.16,12.16,0,0,0,110,71.36Zm5.69-11a20.31,20.31,0,0,1-4.48,5.8c-.27-.26-.62-.55-1-.88a15.24,15.24,0,0,0,4.28-5.44Z" style="fill:#42210b"/><polygon points="71.69 12.19 76.37 26.56 91.48 26.56 79.26 35.45 83.93 49.83 71.69 40.94 59.47 49.83 64.14 35.45 51.91 26.56 67.03 26.56 71.69 12.19" style="fill:gold"/><path d="M32.75,40.38c2.06,18.23,21.74,31.63,44,29.93s38.56-17.87,36.5-36.1S91.47,2.58,69.25,4.28,30.69,22.15,32.75,40.38Z" style="fill:url(#linear-gradient-5)"/></g></g></svg>