<svg xmlns="http://www.w3.org/2000/svg" xmlns:xlink="http://www.w3.org/1999/xlink" viewBox="0 0 141 121.21"><defs><linearGradient id="linear-gradient" x1="101.01" y1="97.05" x2="115.97" y2="100.86" gradientUnits="userSpaceOnUse"><stop offset="0" stop-color="#f8b400"/><stop offset="0.34" stop-color="#f9ad06"/><stop offset="0.82" stop-color="#fd9a16"/><stop offset="1" stop-color="#ff911e"/></linearGradient><linearGradient id="linear-gradient-2" x1="-472.34" y1="-758" x2="-356.85" y2="-758" gradientTransform="translate(273.23 929.88) rotate(14.28)" gradientUnits="userSpaceOnUse"><stop offset="0" stop-color="#c28d00"/><stop offset="0.37" stop-color="#c18605"/><stop offset="0.89" stop-color="#be7313"/><stop offset="1" stop-color="#bd6e17"/></linearGradient><linearGradient id="linear-gradient-3" x1="-0.25" y1="28.95" x2="139.62" y2="64.55" xlink:href="#linear-gradient"/><linearGradient id="未命名漸層_29" x1="34.72" y1="15.85" x2="111.24" y2="92.38" gradientUnits="userSpaceOnUse"><stop offset="0" stop-color="#e62c14"/><stop offset="1" stop-color="#c72c14"/></linearGradient><linearGradient id="linear-gradient-4" x1="7.74" y1="78.34" x2="141" y2="78.34" gradientUnits="userSpaceOnUse"><stop offset="0" stop-color="#f8d04c"/><stop offset="0.28" stop-color="#f9cc45"/><stop offset="0.67" stop-color="#fcc232"/><stop offset="1" stop-color="#ffb71d"/></linearGradient><linearGradient id="linear-gradient-5" x1="-4263.21" y1="918.02" x2="-4261.67" y2="967.67" gradientTransform="matrix(-0.9, 0.07, 0.1, 0.89, -3843.7, -531.6)" gradientUnits="userSpaceOnUse"><stop offset="0" stop-color="#fff"/><stop offset="1" stop-color="#fff" stop-opacity="0"/></linearGradient></defs><title>中文_1</title><g id="圖層_2" data-name="圖層 2"><g id="圖層_1-2" data-name="圖層 1"><path d="M116.35,99.35a99.91,99.91,0,0,0-18.28,9.26c3.82-7.5,7.64-14.77,11.47-21.71Q112.94,92.94,116.35,99.35Z" style="fill:url(#linear-gradient)"/><path d="M7.77,57.75C12,74.35,16.19,90.19,20.4,105.41c32,12.49,64-10.64,96-6.06q-3.41-6.42-6.82-12.45C75.61,76.27,41.69,91.74,7.77,57.75Z" style="fill:url(#linear-gradient-2)"/><path d="M141,58.8C112.93,31.49,53.47,19.68,0,28c8.28,2.53,15.89,8.87,15.89,8.87s-1.56,3.7-5,10.92c37.54-8.2,99.74,12.49,124,35.12Q138,70.59,141,58.8Z" style="fill:url(#linear-gradient-3)"/><path d="M127.1,54.12A54.11,54.11,0,1,0,73,108.23l1.61,0,6.11,13,10.09-16A54.13,54.13,0,0,0,127.1,54.12Z" style="fill:url(#未命名漸層_29)"/><path d="M127.1,54.12q0-1.39-.07-2.75c-27.48-5.89-59.12,7.38-76.47,8.12a48.29,48.29,0,0,1-31-10.14l-.51.9c-.09,1.28-.14,2.57-.14,3.88a54.07,54.07,0,0,0,2.59,16.56l49.78,24.4a126.47,126.47,0,0,1,30.23-8.73,35.94,35.94,0,0,1,14.73.35A53.87,53.87,0,0,0,127.1,54.12Z" style="opacity:0.14"/><path d="M7.74,57.82C52.16,86.43,96.58,30.2,141,58.8q-3,11.78-6,24.06C96.77,69.3,58.59,112.75,20.4,105.41,16.18,90.22,12,74.4,7.74,57.82Z" style="fill:url(#linear-gradient-4)"/><path d="M48.66,87.36a14.79,14.79,0,0,0-.46-7l1.13-.23a28.21,28.21,0,0,1,.6,3,5.81,5.81,0,0,0,2,1.55L50.37,78.8l-3.66,1-.29-1.11,3.18-.84L49,75.46l-2.62.69L46.06,75l2.62-.69L48.06,72l1.12-.3.62,2.33,2.47-.65.29,1.11-2.47.65.62,2.36,2.73-.72.29,1.11-2.25.59L52.16,81l2.05-.54.29,1.11-2.05.54.78,3a7.05,7.05,0,0,0,2.89-.18q3.74-.94,8.31-2.26c-.06.53-.1,1-.11,1.39q-4.56,1.2-8.23,2.12t-6-1.37a10.23,10.23,0,0,1-.39,3.72A10.78,10.78,0,0,0,48.66,87.36ZM57,83.12a20.82,20.82,0,0,0,1.79-3.64,25.93,25.93,0,0,1-2.29-5.31l-1.89.5L56,80.13q.56-.82,1.25-1.89.26.6.55,1.12-.74,1.05-1.46,2.22a8.09,8.09,0,0,0-.53,1l-1-.61a2.57,2.57,0,0,0,.09-1.69l-1.7-6.44,2.92-.77q-.44-1.48-.86-3.05l1.09-.29q.37,1.46.86,3.05l4-1,.28,1.06-3.91,1A23.76,23.76,0,0,0,59.25,78a17.77,17.77,0,0,0,.62-3.55l1.19.17a23.53,23.53,0,0,1-1,4.67,7.91,7.91,0,0,0,1.11,1.28c.28.27.51.38.69.33s.22-.27.18-.68q-.13-1.07-.38-2.54l1.21.11q.29,1.8.35,2.71.12,1.44-.86,1.7a1.9,1.9,0,0,1-1.75-.5,6.82,6.82,0,0,1-1.05-1.07,20.1,20.1,0,0,1-1.52,3A4.33,4.33,0,0,0,57,83.12Zm.44-12.91.67-.83q.89.57,2.09,1.46l-.77.91Q58.27,70.81,57.41,70.21Z" style="fill:#42210b"/><path d="M65.18,69.57l7.21-1.9-.48-1.81,1.32-.35.48,1.81,7-1.86L81,66.6l-7,1.86.43,1.64,6.15-1.62,2.4,9.1A1.73,1.73,0,0,1,81.63,80q-1.05.3-2.66.65-.25-.57-.59-1.25Q80,79,80.83,78.81q1.06-.28.81-1.21l-2-7.67L68.51,72.86l2.62,9.93-1.27.33L66.94,72.07l6.18-1.63-.43-1.64-7.21,1.9Zm5.39,8.59L74.88,77l-.46-1.75-3.79,1-.28-1.06,5-1.33q.47-1.36.89-2.95l1.36.34q-.5,1.28-.93,2.25l2.47-.65.28,1.06-3.79,1,.46,1.75,4.3-1.14.28,1.06-4.3,1.14.81,3.08L76,81.16l-.81-3.08-4.3,1.14ZM70.91,73l.78-.89q1.07.73,2,1.45l-.89.94Q71.89,73.77,70.91,73Z" style="fill:#42210b"/><path d="M85.4,64.59q-.25-.52-.6-1.1,4.64-1.47,8.34-2.75l.59,1.08Q90.68,62.87,85.4,64.59ZM85.73,66l.82-.78q1.09,1.05,2.13,2.13l-.89.87Q86.9,67.16,85.73,66Zm7,4.8q1.7.69,3.53,1.47l-.53,1.24q-1.62-.86-3.45-1.67l1.32,5-1.19.31L91,71.71a19.54,19.54,0,0,1-2.12,4.7q-.39-.22-1.19-.6a15.17,15.17,0,0,0,2.65-5.63L87.09,71l-.31-1.19,3.52-.93L90,67.68l1.19-.31.33,1.25,3.29-.87.31,1.19-3.29.87.53,2Zm-4.24-6.18.84-.77Q90.51,65,91.5,66.1l-.93.85A30.08,30.08,0,0,0,88.53,64.62Zm3.53,2.06q.49-1.67.9-3.86l1.23.29q-.35,1.45-1,3.8Zm7.54-6.8a20.15,20.15,0,0,1-4.43,5.86q-.61-.49-1.08-.83a14.76,14.76,0,0,0,4.25-5.43ZM95.43,75.21a17.4,17.4,0,0,0,6.12-7.44l1.2.58a19.55,19.55,0,0,1-6.2,7.72A12.4,12.4,0,0,0,95.43,75.21Zm5.69-11A20.26,20.26,0,0,1,96.65,70q-.41-.39-1-.88a15.25,15.25,0,0,0,4.28-5.44Z" style="fill:#42210b"/><polygon points="71.69 12.19 76.37 26.56 91.48 26.56 79.26 35.45 83.93 49.83 71.69 40.94 59.47 49.83 64.14 35.45 51.91 26.56 67.03 26.56 71.69 12.19" style="fill:gold"/><path d="M32.75,40.38c2.06,18.23,21.74,31.63,44,29.93s38.56-17.87,36.5-36.1S91.47,2.58,69.25,4.28,30.69,22.15,32.75,40.38Z" style="fill:url(#linear-gradient-5)"/></g></g></svg>