<svg xmlns="http://www.w3.org/2000/svg" xmlns:xlink="http://www.w3.org/1999/xlink" viewBox="0 0 141 121.21"><defs><linearGradient id="linear-gradient" x1="101.01" y1="97.05" x2="115.97" y2="100.86" gradientUnits="userSpaceOnUse"><stop offset="0" stop-color="#f8b400"/><stop offset="0.34" stop-color="#f9ad06"/><stop offset="0.82" stop-color="#fd9a16"/><stop offset="1" stop-color="#ff911e"/></linearGradient><linearGradient id="linear-gradient-2" x1="-481.57" y1="-843.87" x2="-366.07" y2="-843.87" gradientTransform="translate(260.99 1015.37) rotate(14.28)" gradientUnits="userSpaceOnUse"><stop offset="0" stop-color="#c28d00"/><stop offset="0.37" stop-color="#c18605"/><stop offset="0.89" stop-color="#be7313"/><stop offset="1" stop-color="#bd6e17"/></linearGradient><linearGradient id="linear-gradient-3" x1="-0.25" y1="28.95" x2="139.62" y2="64.55" xlink:href="#linear-gradient"/><linearGradient id="未命名漸層_29" x1="34.72" y1="15.85" x2="111.24" y2="92.38" gradientUnits="userSpaceOnUse"><stop offset="0" stop-color="#e62c14"/><stop offset="1" stop-color="#c72c14"/></linearGradient><linearGradient id="linear-gradient-4" x1="7.74" y1="78.34" x2="141" y2="78.34" gradientUnits="userSpaceOnUse"><stop offset="0" stop-color="#f8d04c"/><stop offset="0.28" stop-color="#f9cc45"/><stop offset="0.67" stop-color="#fcc232"/><stop offset="1" stop-color="#ffb71d"/></linearGradient><linearGradient id="linear-gradient-5" x1="-4994.24" y1="948.45" x2="-4992.69" y2="998.1" gradientTransform="matrix(-0.9, 0.07, 0.1, 0.89, -4501.91, -508.37)" gradientUnits="userSpaceOnUse"><stop offset="0" stop-color="#fff"/><stop offset="1" stop-color="#fff" stop-opacity="0"/></linearGradient></defs><title>越南彩_日文</title><g id="圖層_2" data-name="圖層 2"><g id="圖層_1-2" data-name="圖層 1"><path d="M116.35,99.35a99.91,99.91,0,0,0-18.28,9.26c3.82-7.5,7.64-14.77,11.47-21.71Q112.94,92.94,116.35,99.35Z" style="fill:url(#linear-gradient)"/><path d="M7.77,57.75C12,74.35,16.19,90.19,20.4,105.41c32,12.49,64-10.64,96-6.06q-3.41-6.42-6.82-12.45C75.61,76.27,41.69,91.74,7.77,57.75Z" style="fill:url(#linear-gradient-2)"/><path d="M141,58.8C112.93,31.49,53.47,19.68,0,28c8.28,2.53,15.89,8.87,15.89,8.87s-1.56,3.7-5,10.92c37.54-8.2,99.74,12.49,124,35.12Q138,70.59,141,58.8Z" style="fill:url(#linear-gradient-3)"/><path d="M127.1,54.12A54.11,54.11,0,1,0,73,108.23l1.61,0,6.11,13,10.09-16A54.13,54.13,0,0,0,127.1,54.12Z" style="fill:url(#未命名漸層_29)"/><path d="M127.1,54.12q0-1.39-.07-2.75c-27.48-5.89-59.12,7.38-76.47,8.12a48.29,48.29,0,0,1-31-10.14l-.51.9c-.09,1.28-.14,2.57-.14,3.88a54.07,54.07,0,0,0,2.59,16.56l49.78,24.4a126.47,126.47,0,0,1,30.23-8.73,35.94,35.94,0,0,1,14.73.35A53.87,53.87,0,0,0,127.1,54.12Z" style="opacity:0.14"/><path d="M7.74,57.82C52.16,86.43,96.58,30.2,141,58.8q-3,11.78-6,24.06C96.77,69.3,58.59,112.75,20.4,105.41,16.18,90.22,12,74.4,7.74,57.82Z" style="fill:url(#linear-gradient-4)"/><polygon points="71.69 12.19 76.37 26.56 91.48 26.56 79.26 35.45 83.93 49.83 71.69 40.94 59.47 49.83 64.14 35.45 51.91 26.56 67.03 26.56 71.69 12.19" style="fill:gold"/><path d="M32.75,40.38c2.06,18.23,21.74,31.63,44,29.93s38.56-17.87,36.5-36.1S91.47,2.58,69.25,4.28,30.69,22.15,32.75,40.38Z" style="fill:url(#linear-gradient-5)"/><path d="M31.41,84.11q4.42-4.59,6.46-6.88a2.07,2.07,0,0,1,.94-.75c.31-.07.52,0,.63.24a23,23,0,0,0,2.5,4.07,18.35,18.35,0,0,0,2.4,2.42l-2.2,2.25a17.67,17.67,0,0,1-2.27-2.83,29,29,0,0,1-1.73-2.88c0-.09-.11-.13-.23-.1a1,1,0,0,0-.46.33q-.68.76-4.85,5.68Z" style="fill:#42210b"/><path d="M50.41,70.25l1.14,1.94-1.32,1.14-1-2ZM52.55,69l1.29,1.76-1.32,1.14L51.35,70Z" style="fill:#42210b"/><path d="M57.13,75.1a17.56,17.56,0,0,1,4.75,1.65l-1.47,2.16a14.39,14.39,0,0,0-3.92-1.77l-2.67,8.53-1.89.43,5.21-16.65,1.74-.25q.89-.05-.08.55Z" style="fill:#42210b"/><path d="M70,74.81l.74-2.38-6,1.36.49-1.56,6-1.36,1.62-5.17,1.74-.25c.59,0,.57.15-.08.55l-1.39,4.43,5.58-1.28-.49,1.56L72.67,72l-1,3.12a18.7,18.7,0,0,1-6.32,8.68l-1-1.15A16.34,16.34,0,0,0,70,74.81Z" style="fill:#42210b"/><path d="M78.26,77.11l2-.54A114.42,114.42,0,0,0,88,62.24l1.87.18q.68.07,0,.39a153,153,0,0,1-7.66,13.25l6.48-1.94a15.43,15.43,0,0,0-.83-3.24l1.87-1.5a22.93,22.93,0,0,1,1.83,6.2l-2.3,1.75q-.11-1-.32-2.06L79,78.69q-.42.78-.57.13Z" style="fill:#42210b"/><path d="M98.7,62l10.4-2.38L105.22,72l-2,.46.33-1.07L97,72.88l-.51,1.64L94.64,75Zm-1.17,9.33,6.62-1.52,2.57-8.2-6.62,1.52Z" style="fill:#42210b"/><path d="M113.37,62.21a17.51,17.51,0,0,1,4.75,1.65L116.65,66a14.39,14.39,0,0,0-3.92-1.77l-2.67,8.53-1.89.43,5.21-16.65,1.75-.25q.89-.05-.09.55Z" style="fill:#42210b"/></g></g></svg>